<svg width="1362" height="1061" viewBox="0 0 1362 1061" fill="none" xmlns="http://www.w3.org/2000/svg">
<rect x="243" y="285" width="179" height="11" fill="white"/>
<rect x="313" y="237" width="109" height="11" fill="white"/>
<rect x="297" y="191" width="125" height="11" fill="white"/>
<rect x="646" y="137" width="87" height="11" fill="white"/>
<rect x="646" y="89" width="50" height="11" fill="white"/>
<rect x="645" y="46" width="88" height="11" fill="white"/>
<rect x="645" width="145" height="11" fill="white"/>
<rect x="845" width="104" height="11" fill="white"/>
<rect x="845" y="46" width="68" height="11" fill="white"/>
<rect x="845" y="89" width="92" height="11" fill="white"/>
<rect x="1036" y="315" width="151" height="11" fill="white"/>
<rect x="1036" y="362" width="162" height="11" fill="white"/>
<rect x="845" y="138" width="68" height="11" fill="white"/>
<rect x="618" y="893" width="251" height="26" fill="white"/>
<rect x="923" y="893" width="238" height="26" fill="white"/>
<rect x="1130" y="583" width="161" height="11" fill="white"/>
<rect x="1130" y="629" width="203" height="11" fill="white"/>
<rect y="718" width="233" height="11" fill="white"/>
<rect x="61" y="672" width="172" height="11" fill="white"/>
<rect x="129" y="628" width="104" height="11" fill="white"/>
<rect x="173" y="582" width="60" height="11" fill="white"/>
<rect x="1130" y="674" width="232" height="11" fill="white"/>
<rect x="923" y="963" width="238" height="26" fill="white"/>
<rect x="618" y="964" width="251" height="26" fill="white"/>
<rect x="618" y="1035" width="251" height="26" fill="white"/>
<rect x="642" y="204" width="77" height="10" fill="#FFE090"/>
<rect x="930" y="327" width="77" height="10" fill="#FFE090"/>
<rect x="157" y="523" width="77" height="10" fill="#FFE090"/>
<rect x="370" y="345" width="51" height="10" fill="#FFE090"/>
<rect x="1130" y="524" width="77" height="10" fill="#FFE090"/>
<rect x="918" y="830" width="99" height="10" fill="#FFE090"/>
<rect x="616" y="830" width="129" height="10" fill="#FFE090"/>
<rect x="345" y="830" width="123" height="10" fill="#FFE090"/>
</svg>
