<svg width="1048" height="664" viewBox="0 0 1048 664" fill="none" xmlns="http://www.w3.org/2000/svg">
<path d="M779.291 150.111H793.655V144.009H777.023V145.764H791.441V148.437H777.104V154.701H794.249V152.946H779.291V150.111ZM793.034 139.797C793.574 137.07 793.574 134.991 793.574 133.344V131.805H777.239V133.587H791.387C791.387 135.18 791.36 137.124 790.82 139.797H774.431V141.579H796.409V139.797H793.034ZM820.95 143.172C817.764 141.822 816.09 138.771 816.09 135.828V132.75H813.849V135.828C813.849 138.204 812.661 141.12 810.231 142.794C807.774 141.066 806.532 138.069 806.532 135.828V132.75H804.345V135.828C804.345 138.501 802.59 141.768 799.485 143.172L800.673 144.873C802.968 143.766 804.588 141.714 805.425 139.419C806.181 141.768 807.774 144.009 810.204 145.143C812.634 144.036 814.2 141.876 814.983 139.554C815.793 141.849 817.413 143.82 819.735 144.873L820.95 143.172ZM799.269 149.949V151.785H821.22V149.949H799.269ZM825.538 133.398V135.18H834.637C834.178 140.931 830.938 145.575 824.431 148.68L825.619 150.489C833.665 146.547 836.878 140.391 836.878 133.398H825.538ZM841.765 130.779V154.998H843.979V130.779H841.765Z" fill="black"/>
<path d="M978.967 348.462H984.799V342.819H976.78V344.493H982.666V346.815H976.834V352.701H978.319C982.423 352.701 984.421 352.62 986.851 352.08L986.608 350.406C984.394 350.919 982.504 351.027 978.967 351.027V348.462ZM986.095 344.601H991.603V352.89H993.79V342.819H986.095V344.601ZM992.953 338.31C993.574 335.394 993.574 333.288 993.574 331.506V329.859H977.212V331.668H991.387C991.387 333.369 991.36 335.448 990.739 338.31H974.431V340.119H996.382V338.31H992.953ZM1001.97 335.313C1001.97 333.207 1003.72 331.695 1006.07 331.695C1008.45 331.695 1010.18 333.207 1010.18 335.313C1010.18 337.419 1008.45 338.931 1006.07 338.931C1003.72 338.931 1001.97 337.419 1001.97 335.313ZM1012.34 335.313C1012.34 332.1 1009.69 329.886 1006.07 329.886C1002.45 329.886 999.836 332.1 999.836 335.313C999.836 338.526 1002.45 340.74 1006.07 340.74C1009.69 340.74 1012.34 338.526 1012.34 335.313ZM1004.48 348.327H1010.31V342.738H1002.29V344.412H1008.15V346.707H1002.35V352.674H1003.8C1007.34 352.674 1009.47 352.62 1012.17 352.134L1011.96 350.46C1009.53 350.892 1007.56 350.973 1004.48 350.973V348.327ZM1011.34 344.52H1016.93V352.836H1019.11V342.738H1011.34V344.52ZM1016.9 328.806V341.631H1019.11V328.806H1016.9ZM1025.54 331.398V333.18H1034.64C1034.18 338.931 1030.94 343.575 1024.43 346.68L1025.62 348.489C1033.66 344.547 1036.88 338.391 1036.88 331.398H1025.54ZM1041.76 328.779V352.998H1043.98V328.779H1041.76Z" fill="black"/>
<path d="M5.184 332.937H14.445V331.074H2.997V347.031H4.941C9.828 347.031 12.987 346.869 16.713 346.194L16.47 344.331C12.906 345.006 9.855 345.141 5.184 345.141V332.937ZM19.035 328.779V353.052H21.249V328.779H19.035ZM34.4229 333.099H39.7959V331.263H26.7009V333.099H32.2359V336.177C32.2359 340.281 29.3199 344.871 25.8639 346.599L27.1599 348.354C29.8869 346.95 32.2359 343.872 33.3429 340.335C34.4499 343.575 36.7179 346.41 39.4179 347.76L40.6869 345.978C37.1769 344.331 34.4229 340.038 34.4229 336.177V333.099ZM48.8949 338.553H44.8989V328.806H42.6849V352.998H44.8989V340.416H48.8949V338.553ZM70.9788 328.806H68.7648V346.491H70.9788V328.806ZM53.8338 336.42C53.8338 334.071 55.6158 332.397 57.9648 332.397C60.3678 332.397 62.1498 334.071 62.1498 336.42C62.1498 338.823 60.3678 340.497 57.9648 340.497C55.6158 340.497 53.8338 338.823 53.8338 336.42ZM64.3098 336.42C64.3098 332.937 61.5828 330.48 57.9648 330.48C54.3738 330.48 51.6738 332.937 51.6738 336.42C51.6738 339.93 54.3738 342.414 57.9648 342.414C61.5828 342.414 64.3098 339.93 64.3098 336.42ZM57.6138 350.649V344.682H55.3998V352.458H71.7078V350.649H57.6138Z" fill="black"/>
<path d="M216.915 156.961C216.915 154.72 218.697 153.1 221.046 153.1C223.422 153.1 225.15 154.72 225.15 156.961C225.15 159.229 223.422 160.849 221.046 160.849C218.697 160.849 216.915 159.229 216.915 156.961ZM232.143 155.071V158.851H226.932C227.148 158.257 227.256 157.636 227.256 156.961C227.256 156.259 227.148 155.638 226.959 155.071H232.143ZM232.143 160.66V164.116H234.384V149.779H232.143V153.262H225.933C224.826 152.02 223.098 151.237 221.046 151.237C217.455 151.237 214.809 153.586 214.809 156.961C214.809 160.363 217.455 162.739 221.046 162.739C223.098 162.739 224.826 161.956 225.933 160.66H232.143ZM226.365 172.216C222.72 172.216 220.506 171.136 220.506 169.327C220.506 167.491 222.72 166.411 226.365 166.411C230.064 166.411 232.278 167.491 232.278 169.327C232.278 171.136 230.064 172.216 226.365 172.216ZM226.365 164.683C221.397 164.683 218.319 166.384 218.319 169.327C218.319 172.27 221.397 173.971 226.365 173.971C231.36 173.971 234.465 172.27 234.465 169.327C234.465 166.384 231.36 164.683 226.365 164.683ZM245.749 166.573C243.427 166.573 241.807 164.035 241.807 160.093C241.807 156.178 243.427 153.64 245.749 153.64C248.044 153.64 249.664 156.178 249.664 160.093C249.664 164.035 248.044 166.573 245.749 166.573ZM257.008 149.779V159.013H251.743C251.392 154.477 249.016 151.642 245.749 151.642C242.212 151.642 239.701 154.936 239.701 160.093C239.701 165.25 242.212 168.544 245.749 168.544C249.124 168.544 251.527 165.574 251.743 160.822H257.008V174.052H259.222V149.779H257.008Z" fill="black"/>
<path d="M488.808 11.695V13.477H495.936C495.855 14.773 495.666 16.015 495.342 17.23L487.62 17.743L487.917 19.66L494.748 18.958C493.56 21.847 491.346 24.385 487.62 26.437L488.889 28.03C496.233 23.98 498.096 18.013 498.096 11.695H488.808ZM505.872 8.779V18.58H502.605V9.373H500.526V31.81H502.605V20.416H505.872V32.998H507.978V8.779H505.872ZM526.984 19.66C523.15 20.281 519.991 20.416 515.698 20.416V16.933H524.473V10.21H513.457V12.019H522.286V15.232H513.538V22.225H515.482C519.964 22.225 523.258 22.09 527.227 21.442L526.984 19.66ZM515.968 26.707H529.927V32.998H532.141V24.898H515.968V26.707ZM529.927 8.806V23.602H532.141V8.806H529.927ZM540.428 19.579H548.366V17.797H540.428V12.802H549.419V10.966H538.214V27.193H540.077C544.694 27.193 547.637 27.058 551.147 26.437L550.904 24.628C547.61 25.222 544.802 25.384 540.428 25.384V19.579ZM554.846 8.752V17.905H549.851V19.741H554.846V33.025H557.06V8.752H554.846Z" fill="black"/>
<path d="M474.339 636.533C478.038 636.533 480.549 637.883 480.549 640.016C480.549 642.149 478.038 643.526 474.339 643.526C470.667 643.526 468.156 642.149 468.156 640.016C468.156 637.883 470.667 636.533 474.339 636.533ZM474.339 645.308C479.388 645.308 482.817 643.256 482.817 640.016C482.817 636.776 479.388 634.751 474.339 634.751C469.317 634.751 465.888 636.776 465.888 640.016C465.888 643.256 469.317 645.308 474.339 645.308ZM485.355 647.576H463.431V649.385H469.074V657.998H471.315V649.385H477.39V657.998H479.631V649.385H485.355V647.576ZM494.722 650.573C492.373 650.573 490.726 648.035 490.726 644.093C490.726 640.178 492.373 637.64 494.722 637.64C497.044 637.64 498.691 640.178 498.691 644.093C498.691 648.035 497.044 650.573 494.722 650.573ZM494.722 635.642C491.158 635.642 488.62 638.936 488.62 644.093C488.62 649.25 491.158 652.544 494.722 652.544C498.286 652.544 500.797 649.25 500.797 644.093C500.797 638.936 498.286 635.642 494.722 635.642ZM510.895 643.445H506.899V633.806H504.685V657.998H506.899V645.308H510.895V643.445ZM530.225 638.882C530.225 641.879 530.225 645.065 529.388 649.385L531.575 649.655C532.439 645.119 532.439 641.96 532.439 638.882V636.209H515.375V638.018H530.225V638.882ZM526.661 652.787V644.768H524.474V652.787H520.667V644.768H518.48V652.787H513.107V654.596H535.004V652.787H526.661ZM548.88 636.101C552.714 636.101 555.117 637.181 555.117 638.99C555.117 640.799 552.714 641.879 548.88 641.879C545.046 641.879 542.643 640.799 542.643 638.99C542.643 637.181 545.046 636.101 548.88 636.101ZM548.88 643.607C554.118 643.607 557.385 641.906 557.385 638.99C557.385 636.074 554.118 634.346 548.88 634.346C543.669 634.346 540.375 636.074 540.375 638.99C540.375 641.906 543.669 643.607 548.88 643.607ZM551.85 650.303H545.937V647.225H551.85V650.303ZM559.842 647.225V645.443H537.945V647.225H543.723V650.303H540.375V652.085H554.928V658.025H557.142V650.303H554.064V647.225H559.842ZM575.419 647.36C576.094 642.851 576.094 639.692 576.094 637.748V636.425H563.863V638.234H573.934C573.934 640.178 573.88 643.121 573.205 647.144L575.419 647.36ZM569.857 643.337H567.67V650.789C565.861 650.843 564.079 650.87 562.54 650.87L562.783 652.706C567.076 652.706 572.773 652.598 577.795 651.788L577.66 650.168C575.203 650.465 572.503 650.627 569.857 650.735V643.337ZM585.22 643.904H581.359V633.779H579.145V657.998H581.359V645.767H585.22V643.904Z" fill="black"/>
</svg>
