<svg width="1920" height="1186" viewBox="0 0 1920 1186" fill="none" xmlns="http://www.w3.org/2000/svg">
<path d="M1211.72 905.351C1215.77 905.351 1218.85 903.191 1218.85 896.819V885.182H1216.45V896.9C1216.45 901.679 1214.37 903.164 1211.72 903.164C1209.16 903.164 1207.13 901.679 1207.13 896.9V885.182H1204.62V896.819C1204.62 903.191 1207.7 905.351 1211.72 905.351ZM1221.63 905H1224.25L1227.11 899.654C1227.62 898.655 1228.13 897.656 1228.7 896.468H1228.81C1229.46 897.656 1230 898.655 1230.51 899.654L1233.43 905H1236.18L1230.4 894.902L1235.8 885.182H1233.18L1230.54 890.258C1230.05 891.176 1229.67 892.013 1229.13 893.147H1229.03C1228.38 892.013 1227.97 891.176 1227.46 890.258L1224.76 885.182H1222.01L1227.41 894.767L1221.63 905ZM1250.71 908.24V881.24H1249.58V908.24H1250.71ZM1273.37 905.351C1277.42 905.351 1280.49 903.191 1280.49 896.819V885.182H1278.09V896.9C1278.09 901.679 1276.01 903.164 1273.37 903.164C1270.8 903.164 1268.78 901.679 1268.78 896.9V885.182H1266.27V896.819C1266.27 903.191 1269.34 905.351 1273.37 905.351ZM1285.81 905H1288.32V885.182H1285.81V905Z" fill="black"/>
<path d="M620.884 899.573C618.535 899.573 616.888 897.035 616.888 893.093C616.888 889.178 618.535 886.64 620.884 886.64C623.206 886.64 624.853 889.178 624.853 893.093C624.853 897.035 623.206 899.573 620.884 899.573ZM620.884 884.642C617.32 884.642 614.782 887.936 614.782 893.093C614.782 898.25 617.32 901.544 620.884 901.544C624.448 901.544 626.959 898.25 626.959 893.093C626.959 887.936 624.448 884.642 620.884 884.642ZM637.057 892.445H633.061V882.806H630.847V906.998H633.061V894.308H637.057V892.445ZM656.36 890.177H641.996V897.71H659.087V895.901H644.183V891.959H658.52V884.642H641.942V886.424H656.36V890.177ZM639.242 902.111V903.947H661.247V902.111H639.242ZM674.178 899.357H667.266V892.985H674.178V899.357ZM674.178 891.23H667.266V884.831H665.079V901.166H676.338V884.831H674.178V891.23ZM686.733 892.31H682.737V882.806H680.523V906.971H682.737V894.173H686.733V892.31ZM706.549 882.779V907.052H708.763V882.779H706.549ZM695.992 884.642C692.401 884.642 689.836 887.936 689.836 893.093C689.836 898.25 692.401 901.544 695.992 901.544C699.583 901.544 702.148 898.25 702.148 893.093C702.148 887.936 699.583 884.642 695.992 884.642ZM695.992 886.64C698.341 886.64 700.015 889.178 700.015 893.093C700.015 897.035 698.341 899.573 695.992 899.573C693.616 899.573 691.942 897.035 691.942 893.093C691.942 889.178 693.616 886.64 695.992 886.64ZM733.223 895.847H718.832V892.013H732.44V890.258H718.832V886.667H732.98V884.885H716.591V897.629H733.223V895.847ZM713.756 902.057V903.866H735.734V902.057H713.756Z" fill="black"/>
<path d="M1225.46 391.713C1228.29 391.011 1230.45 389.391 1231.48 387.258C1232.53 389.229 1234.64 390.687 1237.42 391.362L1238.31 389.634C1234.88 388.851 1232.53 386.772 1232.53 384.342V384.288H1237.88V382.533H1232.53V379.833H1230.32V382.533H1225V384.288H1230.34V384.342C1230.34 386.934 1227.99 389.148 1224.51 389.958L1225.46 391.713ZM1239.36 392.604C1234.07 393.36 1227.99 393.387 1223.38 393.387L1223.67 395.25C1225.7 395.25 1227.99 395.223 1230.37 395.142V403.296H1232.58V395.007C1234.88 394.872 1237.25 394.629 1239.52 394.251L1239.36 392.604ZM1241.09 379.806V404.025H1243.3V379.806H1241.09ZM1249.67 382.155V397.896H1260.8V382.155H1249.67ZM1258.64 383.937V396.141H1251.83V383.937H1258.64ZM1265.87 379.779V404.052H1268.09V379.779H1265.87Z" fill="black"/>
<path d="M1427.36 576.073C1427.36 577.963 1427.36 579.745 1426.71 582.229L1428.87 582.472C1429.55 579.988 1429.55 578.017 1429.55 576.073V574.021H1413.05V575.803H1427.36V576.073ZM1421.29 595.243C1417.51 595.243 1415.08 594.217 1415.08 592.543C1415.08 590.815 1417.51 589.789 1421.29 589.789C1425.09 589.789 1427.52 590.815 1427.52 592.543C1427.52 594.217 1425.09 595.243 1421.29 595.243ZM1421.29 588.088C1416.13 588.088 1412.86 589.735 1412.86 592.543C1412.86 595.297 1416.13 596.971 1421.29 596.971C1426.44 596.971 1429.74 595.297 1429.74 592.543C1429.74 589.735 1426.44 588.088 1421.29 588.088ZM1421.64 584.065V579.421H1419.42V584.065H1410.49V585.847H1432.27V584.065H1421.64ZM1452.22 582.418H1440.21V578.854H1452.22V582.418ZM1454.44 573.751H1452.22V577.072H1440.21V573.751H1438.02V584.227H1454.44V573.751ZM1457.22 587.143H1435.24V588.925H1445.07V597.025H1447.28V588.925H1457.22V587.143Z" fill="black"/>
<path d="M441.184 576.937H450.445V575.074H438.997V591.031H440.941C445.828 591.031 448.987 590.869 452.713 590.194L452.47 588.331C448.906 589.006 445.855 589.141 441.184 589.141V576.937ZM455.035 572.779V597.052H457.249V572.779H455.035ZM470.423 577.099H475.796V575.263H462.701V577.099H468.236V580.177C468.236 584.281 465.32 588.871 461.864 590.599L463.16 592.354C465.887 590.95 468.236 587.872 469.343 584.335C470.45 587.575 472.718 590.41 475.418 591.76L476.687 589.978C473.177 588.331 470.423 584.038 470.423 580.177V577.099ZM484.895 582.553H480.899V572.806H478.685V596.998H480.899V584.416H484.895V582.553ZM506.979 572.806H504.765V590.491H506.979V572.806ZM489.834 580.42C489.834 578.071 491.616 576.397 493.965 576.397C496.368 576.397 498.15 578.071 498.15 580.42C498.15 582.823 496.368 584.497 493.965 584.497C491.616 584.497 489.834 582.823 489.834 580.42ZM500.31 580.42C500.31 576.937 497.583 574.48 493.965 574.48C490.374 574.48 487.674 576.937 487.674 580.42C487.674 583.93 490.374 586.414 493.965 586.414C497.583 586.414 500.31 583.93 500.31 580.42ZM493.614 594.649V588.682H491.4V596.458H507.708V594.649H493.614Z" fill="black"/>
<path d="M652.915 405.961C652.915 403.72 654.697 402.1 657.046 402.1C659.422 402.1 661.15 403.72 661.15 405.961C661.15 408.229 659.422 409.849 657.046 409.849C654.697 409.849 652.915 408.229 652.915 405.961ZM668.143 404.071V407.851H662.932C663.148 407.257 663.256 406.636 663.256 405.961C663.256 405.259 663.148 404.638 662.959 404.071H668.143ZM668.143 409.66V413.116H670.384V398.779H668.143V402.262H661.933C660.826 401.02 659.098 400.237 657.046 400.237C653.455 400.237 650.809 402.586 650.809 405.961C650.809 409.363 653.455 411.739 657.046 411.739C659.098 411.739 660.826 410.956 661.933 409.66H668.143ZM662.365 421.216C658.72 421.216 656.506 420.136 656.506 418.327C656.506 416.491 658.72 415.411 662.365 415.411C666.064 415.411 668.278 416.491 668.278 418.327C668.278 420.136 666.064 421.216 662.365 421.216ZM662.365 413.683C657.397 413.683 654.319 415.384 654.319 418.327C654.319 421.27 657.397 422.971 662.365 422.971C667.36 422.971 670.465 421.27 670.465 418.327C670.465 415.384 667.36 413.683 662.365 413.683ZM681.749 415.573C679.427 415.573 677.807 413.035 677.807 409.093C677.807 405.178 679.427 402.64 681.749 402.64C684.044 402.64 685.664 405.178 685.664 409.093C685.664 413.035 684.044 415.573 681.749 415.573ZM693.008 398.779V408.013H687.743C687.392 403.477 685.016 400.642 681.749 400.642C678.212 400.642 675.701 403.936 675.701 409.093C675.701 414.25 678.212 417.544 681.749 417.544C685.124 417.544 687.527 414.574 687.743 409.822H693.008V423.052H695.222V398.779H693.008Z" fill="black"/>
<path d="M924.808 260.695V262.477H931.936C931.855 263.773 931.666 265.015 931.342 266.23L923.62 266.743L923.917 268.66L930.748 267.958C929.56 270.847 927.346 273.385 923.62 275.437L924.889 277.03C932.233 272.98 934.096 267.013 934.096 260.695H924.808ZM941.872 257.779V267.58H938.605V258.373H936.526V280.81H938.605V269.416H941.872V281.998H943.978V257.779H941.872ZM962.984 268.66C959.15 269.281 955.991 269.416 951.698 269.416V265.933H960.473V259.21H949.457V261.019H958.286V264.232H949.538V271.225H951.482C955.964 271.225 959.258 271.09 963.227 270.442L962.984 268.66ZM951.968 275.707H965.927V281.998H968.141V273.898H951.968V275.707ZM965.927 257.806V272.602H968.141V257.806H965.927ZM976.428 268.579H984.366V266.797H976.428V261.802H985.419V259.966H974.214V276.193H976.077C980.694 276.193 983.637 276.058 987.147 275.437L986.904 273.628C983.61 274.222 980.802 274.384 976.428 274.384V268.579ZM990.846 257.752V266.905H985.851V268.741H990.846V282.025H993.06V257.752H990.846Z" fill="black"/>
<path d="M910.339 885.533C914.038 885.533 916.549 886.883 916.549 889.016C916.549 891.149 914.038 892.526 910.339 892.526C906.667 892.526 904.156 891.149 904.156 889.016C904.156 886.883 906.667 885.533 910.339 885.533ZM910.339 894.308C915.388 894.308 918.817 892.256 918.817 889.016C918.817 885.776 915.388 883.751 910.339 883.751C905.317 883.751 901.888 885.776 901.888 889.016C901.888 892.256 905.317 894.308 910.339 894.308ZM921.355 896.576H899.431V898.385H905.074V906.998H907.315V898.385H913.39V906.998H915.631V898.385H921.355V896.576ZM930.722 899.573C928.373 899.573 926.726 897.035 926.726 893.093C926.726 889.178 928.373 886.64 930.722 886.64C933.044 886.64 934.691 889.178 934.691 893.093C934.691 897.035 933.044 899.573 930.722 899.573ZM930.722 884.642C927.158 884.642 924.62 887.936 924.62 893.093C924.62 898.25 927.158 901.544 930.722 901.544C934.286 901.544 936.797 898.25 936.797 893.093C936.797 887.936 934.286 884.642 930.722 884.642ZM946.895 892.445H942.899V882.806H940.685V906.998H942.899V894.308H946.895V892.445ZM966.225 887.882C966.225 890.879 966.225 894.065 965.388 898.385L967.575 898.655C968.439 894.119 968.439 890.96 968.439 887.882V885.209H951.375V887.018H966.225V887.882ZM962.661 901.787V893.768H960.474V901.787H956.667V893.768H954.48V901.787H949.107V903.596H971.004V901.787H962.661ZM984.88 885.101C988.714 885.101 991.117 886.181 991.117 887.99C991.117 889.799 988.714 890.879 984.88 890.879C981.046 890.879 978.643 889.799 978.643 887.99C978.643 886.181 981.046 885.101 984.88 885.101ZM984.88 892.607C990.118 892.607 993.385 890.906 993.385 887.99C993.385 885.074 990.118 883.346 984.88 883.346C979.669 883.346 976.375 885.074 976.375 887.99C976.375 890.906 979.669 892.607 984.88 892.607ZM987.85 899.303H981.937V896.225H987.85V899.303ZM995.842 896.225V894.443H973.945V896.225H979.723V899.303H976.375V901.085H990.928V907.025H993.142V899.303H990.064V896.225H995.842ZM1011.42 896.36C1012.09 891.851 1012.09 888.692 1012.09 886.748V885.425H999.863V887.234H1009.93C1009.93 889.178 1009.88 892.121 1009.2 896.144L1011.42 896.36ZM1005.86 892.337H1003.67V899.789C1001.86 899.843 1000.08 899.87 998.54 899.87L998.783 901.706C1003.08 901.706 1008.77 901.598 1013.79 900.788L1013.66 899.168C1011.2 899.465 1008.5 899.627 1005.86 899.735V892.337ZM1021.22 892.904H1017.36V882.779H1015.14V906.998H1017.36V894.767H1021.22V892.904Z" fill="black"/>
</svg>
