<svg width="1920" height="1186" viewBox="0 0 1920 1186" fill="none" xmlns="http://www.w3.org/2000/svg">
<path d="M1211.72 905.351C1215.77 905.351 1218.85 903.191 1218.85 896.819V885.182H1216.45V896.9C1216.45 901.679 1214.37 903.164 1211.72 903.164C1209.16 903.164 1207.13 901.679 1207.13 896.9V885.182H1204.62V896.819C1204.62 903.191 1207.7 905.351 1211.72 905.351ZM1221.63 905H1224.25L1227.11 899.654C1227.62 898.655 1228.13 897.656 1228.7 896.468H1228.81C1229.46 897.656 1230 898.655 1230.51 899.654L1233.43 905H1236.18L1230.4 894.902L1235.8 885.182H1233.18L1230.54 890.258C1230.05 891.176 1229.67 892.013 1229.13 893.147H1229.03C1228.38 892.013 1227.97 891.176 1227.46 890.258L1224.76 885.182H1222.01L1227.41 894.767L1221.63 905ZM1250.71 908.24V881.24H1249.58V908.24H1250.71ZM1273.37 905.351C1277.42 905.351 1280.49 903.191 1280.49 896.819V885.182H1278.09V896.9C1278.09 901.679 1276.01 903.164 1273.37 903.164C1270.8 903.164 1268.78 901.679 1268.78 896.9V885.182H1266.27V896.819C1266.27 903.191 1269.34 905.351 1273.37 905.351ZM1285.81 905H1288.32V885.182H1285.81V905Z" fill="black"/>
<path d="M620.884 899.573C618.535 899.573 616.888 897.035 616.888 893.093C616.888 889.178 618.535 886.64 620.884 886.64C623.206 886.64 624.853 889.178 624.853 893.093C624.853 897.035 623.206 899.573 620.884 899.573ZM620.884 884.642C617.32 884.642 614.782 887.936 614.782 893.093C614.782 898.25 617.32 901.544 620.884 901.544C624.448 901.544 626.959 898.25 626.959 893.093C626.959 887.936 624.448 884.642 620.884 884.642ZM637.057 892.445H633.061V882.806H630.847V906.998H633.061V894.308H637.057V892.445ZM656.36 890.177H641.996V897.71H659.087V895.901H644.183V891.959H658.52V884.642H641.942V886.424H656.36V890.177ZM639.242 902.111V903.947H661.247V902.111H639.242ZM674.178 899.357H667.266V892.985H674.178V899.357ZM674.178 891.23H667.266V884.831H665.079V901.166H676.338V884.831H674.178V891.23ZM686.733 892.31H682.737V882.806H680.523V906.971H682.737V894.173H686.733V892.31ZM706.549 882.779V907.052H708.763V882.779H706.549ZM695.992 884.642C692.401 884.642 689.836 887.936 689.836 893.093C689.836 898.25 692.401 901.544 695.992 901.544C699.583 901.544 702.148 898.25 702.148 893.093C702.148 887.936 699.583 884.642 695.992 884.642ZM695.992 886.64C698.341 886.64 700.015 889.178 700.015 893.093C700.015 897.035 698.341 899.573 695.992 899.573C693.616 899.573 691.942 897.035 691.942 893.093C691.942 889.178 693.616 886.64 695.992 886.64ZM733.223 895.847H718.832V892.013H732.44V890.258H718.832V886.667H732.98V884.885H716.591V897.629H733.223V895.847ZM713.756 902.057V903.866H735.734V902.057H713.756Z" fill="black"/>
<path d="M910.339 885.533C914.038 885.533 916.549 886.883 916.549 889.016C916.549 891.149 914.038 892.526 910.339 892.526C906.667 892.526 904.156 891.149 904.156 889.016C904.156 886.883 906.667 885.533 910.339 885.533ZM910.339 894.308C915.388 894.308 918.817 892.256 918.817 889.016C918.817 885.776 915.388 883.751 910.339 883.751C905.317 883.751 901.888 885.776 901.888 889.016C901.888 892.256 905.317 894.308 910.339 894.308ZM921.355 896.576H899.431V898.385H905.074V906.998H907.315V898.385H913.39V906.998H915.631V898.385H921.355V896.576ZM930.722 899.573C928.373 899.573 926.726 897.035 926.726 893.093C926.726 889.178 928.373 886.64 930.722 886.64C933.044 886.64 934.691 889.178 934.691 893.093C934.691 897.035 933.044 899.573 930.722 899.573ZM930.722 884.642C927.158 884.642 924.62 887.936 924.62 893.093C924.62 898.25 927.158 901.544 930.722 901.544C934.286 901.544 936.797 898.25 936.797 893.093C936.797 887.936 934.286 884.642 930.722 884.642ZM946.895 892.445H942.899V882.806H940.685V906.998H942.899V894.308H946.895V892.445ZM966.225 887.882C966.225 890.879 966.225 894.065 965.388 898.385L967.575 898.655C968.439 894.119 968.439 890.96 968.439 887.882V885.209H951.375V887.018H966.225V887.882ZM962.661 901.787V893.768H960.474V901.787H956.667V893.768H954.48V901.787H949.107V903.596H971.004V901.787H962.661ZM984.88 885.101C988.714 885.101 991.117 886.181 991.117 887.99C991.117 889.799 988.714 890.879 984.88 890.879C981.046 890.879 978.643 889.799 978.643 887.99C978.643 886.181 981.046 885.101 984.88 885.101ZM984.88 892.607C990.118 892.607 993.385 890.906 993.385 887.99C993.385 885.074 990.118 883.346 984.88 883.346C979.669 883.346 976.375 885.074 976.375 887.99C976.375 890.906 979.669 892.607 984.88 892.607ZM987.85 899.303H981.937V896.225H987.85V899.303ZM995.842 896.225V894.443H973.945V896.225H979.723V899.303H976.375V901.085H990.928V907.025H993.142V899.303H990.064V896.225H995.842ZM1011.42 896.36C1012.09 891.851 1012.09 888.692 1012.09 886.748V885.425H999.863V887.234H1009.93C1009.93 889.178 1009.88 892.121 1009.2 896.144L1011.42 896.36ZM1005.86 892.337H1003.67V899.789C1001.86 899.843 1000.08 899.87 998.54 899.87L998.783 901.706C1003.08 901.706 1008.77 901.598 1013.79 900.788L1013.66 899.168C1011.2 899.465 1008.5 899.627 1005.86 899.735V892.337ZM1021.22 892.904H1017.36V882.779H1015.14V906.998H1017.36V894.767H1021.22V892.904Z" fill="black"/>
</svg>
