<svg width="758" height="446" viewBox="0 0 758 446" fill="none" xmlns="http://www.w3.org/2000/svg">
<ellipse cx="379" cy="394" rx="93" ry="52" fill="#7B9CE3"/>
<path d="M317.425 405H328.575V402.55H320.325V396.6H327.075V394.15H320.325V389.025H328.3V386.575H317.425V405ZM329.389 405H332.414L334.014 402.075C334.439 401.25 334.864 400.425 335.289 399.65H335.414C335.914 400.425 336.389 401.275 336.839 402.075L338.639 405H341.764L337.339 398.15L341.464 391.25H338.464L337.014 394C336.639 394.775 336.239 395.55 335.864 396.325H335.764C335.314 395.55 334.864 394.775 334.464 394L332.814 391.25H329.714L333.839 397.825L329.389 405ZM344.348 410.575H347.223V406.125L347.123 403.775C348.298 404.775 349.523 405.325 350.748 405.325C353.848 405.325 356.673 402.625 356.673 397.9C356.673 393.675 354.723 390.9 351.248 390.9C349.698 390.9 348.198 391.75 346.998 392.75H346.923L346.698 391.25H344.348V410.575ZM350.198 402.95C349.348 402.95 348.298 402.625 347.223 401.7V394.975C348.373 393.85 349.398 393.3 350.473 393.3C352.773 393.3 353.698 395.075 353.698 397.95C353.698 401.175 352.198 402.95 350.198 402.95ZM365.82 405.325C367.62 405.325 369.195 404.725 370.47 403.875L369.47 402.05C368.47 402.7 367.42 403.075 366.195 403.075C363.82 403.075 362.17 401.5 361.945 398.875H370.87C370.945 398.525 371.02 397.975 371.02 397.4C371.02 393.525 369.045 390.9 365.395 390.9C362.195 390.9 359.12 393.675 359.12 398.125C359.12 402.675 362.095 405.325 365.82 405.325ZM361.92 396.875C362.195 394.475 363.72 393.15 365.445 393.15C367.445 393.15 368.52 394.525 368.52 396.875H361.92ZM374.231 405H377.106V396.425C377.956 394.25 379.306 393.475 380.431 393.475C380.981 393.475 381.331 393.55 381.806 393.7L382.331 391.2C381.906 391 381.456 390.9 380.781 390.9C379.306 390.9 377.856 391.95 376.881 393.725H376.806L376.581 391.25H374.231V405ZM384.46 405H387.335V391.25H384.46V405ZM385.885 388.675C386.935 388.675 387.685 388 387.685 386.95C387.685 385.925 386.935 385.25 385.885 385.25C384.835 385.25 384.11 385.925 384.11 386.95C384.11 388 384.835 388.675 385.885 388.675ZM397.363 405.325C399.163 405.325 400.738 404.725 402.013 403.875L401.013 402.05C400.013 402.7 398.963 403.075 397.738 403.075C395.363 403.075 393.713 401.5 393.488 398.875H402.413C402.488 398.525 402.563 397.975 402.563 397.4C402.563 393.525 400.588 390.9 396.938 390.9C393.738 390.9 390.663 393.675 390.663 398.125C390.663 402.675 393.638 405.325 397.363 405.325ZM393.463 396.875C393.738 394.475 395.263 393.15 396.988 393.15C398.988 393.15 400.063 394.525 400.063 396.875H393.463ZM405.774 405H408.649V395.25C409.849 394.025 410.724 393.375 411.999 393.375C413.624 393.375 414.324 394.325 414.324 396.7V405H417.199V396.35C417.199 392.85 415.899 390.9 412.974 390.9C411.099 390.9 409.699 391.925 408.424 393.15H408.349L408.124 391.25H405.774V405ZM426.974 405.325C428.549 405.325 430.174 404.75 431.449 403.625L430.249 401.725C429.424 402.425 428.399 402.975 427.249 402.975C424.974 402.975 423.374 401.05 423.374 398.125C423.374 395.225 425.024 393.275 427.349 393.275C428.274 393.275 429.049 393.675 429.799 394.35L431.224 392.475C430.224 391.6 428.949 390.9 427.199 390.9C423.574 390.9 420.399 393.55 420.399 398.125C420.399 402.7 423.249 405.325 426.974 405.325ZM439.355 405.325C441.155 405.325 442.73 404.725 444.005 403.875L443.005 402.05C442.005 402.7 440.955 403.075 439.73 403.075C437.355 403.075 435.705 401.5 435.48 398.875H444.405C444.48 398.525 444.555 397.975 444.555 397.4C444.555 393.525 442.58 390.9 438.93 390.9C435.73 390.9 432.655 393.675 432.655 398.125C432.655 402.675 435.63 405.325 439.355 405.325ZM435.455 396.875C435.73 394.475 437.255 393.15 438.98 393.15C440.98 393.15 442.055 394.525 442.055 396.875H435.455Z" fill="white"/>
<ellipse cx="93" cy="230" rx="93" ry="52" fill="#7B9CE3"/>
<path d="M38.425 241.325C43.15 241.325 46.45 237.65 46.45 231.725C46.45 225.8 43.15 222.25 38.425 222.25C33.7 222.25 30.425 225.8 30.425 231.725C30.425 237.65 33.7 241.325 38.425 241.325ZM38.425 238.8C35.375 238.8 33.4 236.025 33.4 231.725C33.4 227.4 35.375 224.775 38.425 224.775C41.475 224.775 43.475 227.4 43.475 231.725C43.475 236.025 41.475 238.8 38.425 238.8ZM54.6477 241.325C55.6477 241.325 56.5727 241.075 57.3477 240.825L56.8227 238.7C56.4227 238.875 55.8227 239.025 55.3477 239.025C53.9227 239.025 53.3477 238.175 53.3477 236.525V229.55H56.9227V227.25H53.3477V223.45H50.9477L50.6227 227.25L48.4727 227.4V229.55H50.4727V236.5C50.4727 239.4 51.5477 241.325 54.6477 241.325ZM59.9348 241H62.8098V231.25C64.0098 230.025 64.8848 229.375 66.1598 229.375C67.7848 229.375 68.4848 230.325 68.4848 232.7V241H71.3598V232.35C71.3598 228.85 70.0598 226.9 67.1348 226.9C65.2598 226.9 63.8848 227.925 62.6848 229.075L62.8098 226.35V221.075H59.9348V241ZM81.1871 241.325C82.9871 241.325 84.5621 240.725 85.8371 239.875L84.8371 238.05C83.8371 238.7 82.7871 239.075 81.5621 239.075C79.1871 239.075 77.5371 237.5 77.3121 234.875H86.2371C86.3121 234.525 86.3871 233.975 86.3871 233.4C86.3871 229.525 84.4121 226.9 80.7621 226.9C77.5621 226.9 74.4871 229.675 74.4871 234.125C74.4871 238.675 77.4621 241.325 81.1871 241.325ZM77.2871 232.875C77.5621 230.475 79.0871 229.15 80.8121 229.15C82.8121 229.15 83.8871 230.525 83.8871 232.875H77.2871ZM89.5979 241H92.4729V232.425C93.3229 230.25 94.6729 229.475 95.7979 229.475C96.3479 229.475 96.6979 229.55 97.1729 229.7L97.6979 227.2C97.2729 227 96.8229 226.9 96.1479 226.9C94.6729 226.9 93.2229 227.95 92.2479 229.725H92.1729L91.9479 227.25H89.5979V241ZM113.193 241.325C115.718 241.325 117.793 240.4 119.018 239.175V231.2H112.743V233.575H116.393V237.9C115.743 238.475 114.618 238.8 113.493 238.8C109.693 238.8 107.668 236.125 107.668 231.75C107.668 227.425 109.943 224.775 113.368 224.775C115.143 224.775 116.268 225.5 117.193 226.425L118.743 224.575C117.618 223.4 115.868 222.25 113.268 222.25C108.393 222.25 104.693 225.85 104.693 231.85C104.693 237.875 108.293 241.325 113.193 241.325ZM128.472 241.325C131.872 241.325 134.947 238.7 134.947 234.125C134.947 229.55 131.872 226.9 128.472 226.9C125.072 226.9 121.997 229.55 121.997 234.125C121.997 238.7 125.072 241.325 128.472 241.325ZM128.472 238.975C126.322 238.975 124.972 237.05 124.972 234.125C124.972 231.225 126.322 229.275 128.472 229.275C130.647 229.275 131.997 231.225 131.997 234.125C131.997 237.05 130.647 238.975 128.472 238.975ZM141.212 241.325C142.862 241.325 144.337 240.5 145.587 239.425H145.687L145.912 241H148.262V232.725C148.262 229.075 146.687 226.9 143.262 226.9C141.062 226.9 139.137 227.8 137.712 228.7L138.787 230.65C139.962 229.9 141.312 229.25 142.762 229.25C144.787 229.25 145.362 230.65 145.387 232.25C139.662 232.875 137.162 234.4 137.162 237.35C137.162 239.775 138.837 241.325 141.212 241.325ZM142.087 239.05C140.862 239.05 139.937 238.5 139.937 237.15C139.937 235.6 141.312 234.55 145.387 234.075V237.45C144.262 238.475 143.287 239.05 142.087 239.05ZM155.192 241.325C155.917 241.325 156.392 241.225 156.742 241.1L156.367 238.925C156.117 238.975 156.017 238.975 155.892 238.975C155.542 238.975 155.217 238.7 155.217 237.925V221.075H152.342V237.775C152.342 240 153.117 241.325 155.192 241.325Z" fill="white"/>
<ellipse cx="665" cy="230" rx="93" ry="52" fill="#7B9CE3"/>
<path d="M624.6 241.325C626.975 241.325 628.85 240.375 630.325 238.675L628.775 236.85C627.675 238.05 626.4 238.8 624.7 238.8C621.45 238.8 619.4 236.125 619.4 231.75C619.4 227.425 621.6 224.775 624.775 224.775C626.275 224.775 627.425 225.45 628.375 226.425L629.95 224.575C628.825 223.35 627.025 222.25 624.725 222.25C620.075 222.25 616.425 225.85 616.425 231.85C616.425 237.875 619.975 241.325 624.6 241.325ZM638.837 241.325C642.237 241.325 645.312 238.7 645.312 234.125C645.312 229.55 642.237 226.9 638.837 226.9C635.437 226.9 632.362 229.55 632.362 234.125C632.362 238.7 635.437 241.325 638.837 241.325ZM638.837 238.975C636.687 238.975 635.337 237.05 635.337 234.125C635.337 231.225 636.687 229.275 638.837 229.275C641.012 229.275 642.362 231.225 642.362 234.125C642.362 237.05 641.012 238.975 638.837 238.975ZM648.694 241H651.569V231.25C652.769 230.025 653.644 229.375 654.919 229.375C656.544 229.375 657.244 230.325 657.244 232.7V241H660.119V232.35C660.119 228.85 658.819 226.9 655.894 226.9C654.019 226.9 652.619 227.925 651.344 229.15H651.269L651.044 227.25H648.694V241ZM669.894 241.325C671.469 241.325 673.094 240.75 674.369 239.625L673.169 237.725C672.344 238.425 671.319 238.975 670.169 238.975C667.894 238.975 666.294 237.05 666.294 234.125C666.294 231.225 667.944 229.275 670.269 229.275C671.194 229.275 671.969 229.675 672.719 230.35L674.144 228.475C673.144 227.6 671.869 226.9 670.119 226.9C666.494 226.9 663.319 229.55 663.319 234.125C663.319 238.7 666.169 241.325 669.894 241.325ZM682.275 241.325C684.075 241.325 685.65 240.725 686.925 239.875L685.925 238.05C684.925 238.7 683.875 239.075 682.65 239.075C680.275 239.075 678.625 237.5 678.4 234.875H687.325C687.4 234.525 687.475 233.975 687.475 233.4C687.475 229.525 685.5 226.9 681.85 226.9C678.65 226.9 675.575 229.675 675.575 234.125C675.575 238.675 678.55 241.325 682.275 241.325ZM678.375 232.875C678.65 230.475 680.175 229.15 681.9 229.15C683.9 229.15 684.975 230.525 684.975 232.875H678.375ZM690.686 241H693.561V232.425C694.411 230.25 695.761 229.475 696.886 229.475C697.436 229.475 697.786 229.55 698.261 229.7L698.786 227.2C698.361 227 697.911 226.9 697.236 226.9C695.761 226.9 694.311 227.95 693.336 229.725H693.261L693.036 227.25H690.686V241ZM700.915 241H703.79V231.25C704.99 230.025 705.865 229.375 707.14 229.375C708.765 229.375 709.465 230.325 709.465 232.7V241H712.34V232.35C712.34 228.85 711.04 226.9 708.115 226.9C706.24 226.9 704.84 227.925 703.565 229.15H703.49L703.265 227.25H700.915V241Z" fill="white"/>
<ellipse cx="379" cy="52" rx="93" ry="52" fill="#7B9CE3"/>
<path d="M311.425 63H314.325V44.575H311.425V63ZM318.89 63H321.765V53.25C322.89 52 323.915 51.375 324.84 51.375C326.415 51.375 327.14 52.325 327.14 54.7V63H330.015V53.25C331.165 52 332.165 51.375 333.115 51.375C334.665 51.375 335.415 52.325 335.415 54.7V63H338.29V54.35C338.29 50.85 336.94 48.9 334.065 48.9C332.34 48.9 330.94 49.975 329.59 51.425C328.99 49.85 327.84 48.9 325.79 48.9C324.09 48.9 322.715 49.925 321.54 51.175H321.465L321.24 49.25H318.89V63ZM345.699 63.325C347.349 63.325 348.824 62.5 350.074 61.425H350.174L350.399 63H352.749V54.725C352.749 51.075 351.174 48.9 347.749 48.9C345.549 48.9 343.624 49.8 342.199 50.7L343.274 52.65C344.449 51.9 345.799 51.25 347.249 51.25C349.274 51.25 349.849 52.65 349.874 54.25C344.149 54.875 341.649 56.4 341.649 59.35C341.649 61.775 343.324 63.325 345.699 63.325ZM346.574 61.05C345.349 61.05 344.424 60.5 344.424 59.15C344.424 57.6 345.799 56.55 349.874 56.075V59.45C348.749 60.475 347.774 61.05 346.574 61.05ZM361.529 69.175C365.929 69.175 368.729 67.025 368.729 64.375C368.729 62.025 367.029 61.025 363.779 61.025H361.254C359.504 61.025 358.954 60.5 358.954 59.675C358.954 59 359.254 58.625 359.704 58.225C360.304 58.5 361.004 58.65 361.629 58.65C364.504 58.65 366.779 56.925 366.779 53.925C366.779 52.875 366.404 51.95 365.879 51.4H368.504V49.25H363.629C363.104 49.05 362.404 48.9 361.629 48.9C358.779 48.9 356.304 50.725 356.304 53.825C356.304 55.475 357.179 56.775 358.129 57.5V57.6C357.354 58.15 356.579 59.075 356.579 60.15C356.579 61.275 357.129 62 357.829 62.425V62.55C356.554 63.325 355.829 64.4 355.829 65.55C355.829 67.95 358.229 69.175 361.529 69.175ZM361.629 56.8C360.204 56.8 359.029 55.675 359.029 53.825C359.029 51.975 360.179 50.925 361.629 50.925C363.079 50.925 364.229 52 364.229 53.825C364.229 55.675 363.054 56.8 361.629 56.8ZM361.954 67.275C359.679 67.275 358.279 66.475 358.279 65.125C358.279 64.425 358.629 63.725 359.454 63.125C360.029 63.25 360.654 63.325 361.304 63.325H363.379C365.054 63.325 365.954 63.675 365.954 64.825C365.954 66.1 364.354 67.275 361.954 67.275ZM376.592 63.325C378.392 63.325 379.967 62.725 381.242 61.875L380.242 60.05C379.242 60.7 378.192 61.075 376.967 61.075C374.592 61.075 372.942 59.5 372.717 56.875H381.642C381.717 56.525 381.792 55.975 381.792 55.4C381.792 51.525 379.817 48.9 376.167 48.9C372.967 48.9 369.892 51.675 369.892 56.125C369.892 60.675 372.867 63.325 376.592 63.325ZM372.692 54.875C372.967 52.475 374.492 51.15 376.217 51.15C378.217 51.15 379.292 52.525 379.292 54.875H372.692ZM396.118 63.325C399.518 63.325 402.593 60.7 402.593 56.125C402.593 51.55 399.518 48.9 396.118 48.9C392.718 48.9 389.643 51.55 389.643 56.125C389.643 60.7 392.718 63.325 396.118 63.325ZM396.118 60.975C393.968 60.975 392.618 59.05 392.618 56.125C392.618 53.225 393.968 51.275 396.118 51.275C398.293 51.275 399.643 53.225 399.643 56.125C399.643 59.05 398.293 60.975 396.118 60.975ZM406.377 63H409.252V51.55H412.027V49.25H409.252V47.5C409.252 45.825 409.852 45.025 411.077 45.025C411.552 45.025 412.077 45.15 412.577 45.375L413.152 43.2C412.527 42.95 411.652 42.75 410.727 42.75C407.652 42.75 406.377 44.7 406.377 47.525V49.25L404.502 49.4V51.55H406.377V63ZM420.385 63H422.985V53.9C422.985 52.25 422.76 49.875 422.635 48.2H422.735L424.185 52.45L427.41 61.225H429.21L432.41 52.45L433.885 48.2H433.985C433.835 49.875 433.61 52.25 433.61 53.9V63H436.31V44.575H432.96L429.635 53.9C429.21 55.125 428.86 56.375 428.435 57.6H428.31C427.885 56.375 427.51 55.125 427.085 53.9L423.71 44.575H420.385V63ZM446.612 63.325C448.412 63.325 449.987 62.725 451.262 61.875L450.262 60.05C449.262 60.7 448.212 61.075 446.987 61.075C444.612 61.075 442.962 59.5 442.737 56.875H451.662C451.737 56.525 451.812 55.975 451.812 55.4C451.812 51.525 449.837 48.9 446.187 48.9C442.987 48.9 439.912 51.675 439.912 56.125C439.912 60.675 442.887 63.325 446.612 63.325ZM442.712 54.875C442.987 52.475 444.512 51.15 446.237 51.15C448.237 51.15 449.312 52.525 449.312 54.875H442.712Z" fill="white"/>
</svg>
