<svg width="1440" height="528" viewBox="0 0 1440 528" fill="none" xmlns="http://www.w3.org/2000/svg">
<rect width="1440" height="528" fill="white"/>
<path d="M351.66 122.26C354.44 121.78 357.08 120.28 358.18 118.16C359.26 120.28 361.92 121.78 364.7 122.26L365.34 120.96C362.18 120.5 359.08 118.44 359.08 116.08V115.98H364.7V114.66H351.6V115.98H357.26V116.08C357.26 118.44 354.16 120.5 351.04 120.96L351.66 122.26ZM366.28 123.76H350.08V125.1H357.32V131.48H358.96V125.1H366.3L366.28 123.76ZM373.258 125.98C371.538 125.98 370.338 124.1 370.338 121.18C370.338 118.28 371.538 116.4 373.258 116.4C374.958 116.4 376.158 118.28 376.158 121.18C376.158 124.1 374.958 125.98 373.258 125.98ZM381.598 113.54V120.38H377.698C377.438 117.02 375.678 114.92 373.258 114.92C370.638 114.92 368.778 117.36 368.778 121.18C368.778 125 370.638 127.44 373.258 127.44C375.758 127.44 377.538 125.24 377.698 121.72H381.598V131.52H383.238V113.54H381.598ZM401.577 113.56H399.937V126.68H401.577V113.56ZM397.817 122.82C395.177 121.94 393.317 119.76 393.317 117.34V116.36H397.377V115.04H387.537V116.36H391.637V117.34C391.637 119.9 389.817 122.24 387.097 123.18L387.957 124.46C390.077 123.7 391.737 122.08 392.497 120.04C393.317 121.92 394.957 123.4 397.017 124.12L397.817 122.82ZM391.677 129.74V125.44H390.037V131.08H402.117V129.74H391.677ZM424.448 113.54H422.808V122.74H424.448V113.54ZM411.728 118.18C411.728 116.62 413.028 115.52 414.768 115.52C416.528 115.52 417.808 116.62 417.808 118.18C417.808 119.72 416.528 120.82 414.768 120.82C413.028 120.82 411.728 119.72 411.728 118.18ZM419.408 118.18C419.408 115.8 417.448 114.18 414.768 114.18C412.088 114.18 410.148 115.8 410.148 118.18C410.148 120.54 412.088 122.14 414.768 122.14C417.448 122.14 419.408 120.54 419.408 118.18ZM414.488 129.94V127.96H424.448V123.62H412.828V124.92H422.828V126.74H412.868V131.24H425.048V129.94H414.488ZM432.186 126.02C430.746 126.02 429.846 124.2 429.846 121.26C429.846 118.38 430.746 116.56 432.186 116.56C433.586 116.56 434.506 118.38 434.506 121.26C434.506 124.2 433.586 126.02 432.186 126.02ZM438.246 120.52H435.986C435.786 117.14 434.346 115.04 432.186 115.04C429.846 115.04 428.346 117.44 428.346 121.26C428.346 125.14 429.846 127.54 432.186 127.54C434.386 127.54 435.846 125.38 435.986 121.86H438.246V130.6H439.806V113.94H438.246V120.52ZM441.806 113.54V131.48H443.366V113.54H441.806ZM452.398 123.62C454.538 122.94 456.198 121.52 456.978 119.64C457.798 121.42 459.438 122.78 461.558 123.42L462.318 122.16C459.698 121.38 457.818 119.48 457.778 117.2H461.918V115.88H457.778V113.66H456.138V115.88H452.058V117.2H456.138C456.098 119.56 454.278 121.54 451.638 122.34L452.398 123.62ZM457.778 123.02H456.138V126.36C454.318 126.42 452.577 126.42 451.098 126.42L451.318 127.8C454.518 127.78 458.918 127.76 462.938 127.02L462.798 125.8C461.198 126.06 459.458 126.18 457.778 126.28V123.02ZM463.978 113.54V131.5H465.618V113.54H463.978ZM482.516 126.96H484.176V113.56H482.516V117.76H478.596V119.12H482.516V126.96ZM479.876 122.72C477.296 121.76 475.536 119.4 475.536 116.9V114.62H473.896V116.84C473.896 119.58 472.096 122.12 469.416 123.1L470.276 124.4C472.376 123.56 473.976 121.86 474.736 119.72C475.496 121.66 477.036 123.2 479.016 123.98L479.876 122.72ZM474.276 129.74V125.48H472.636V131.08H484.596V129.74H474.276ZM495.894 115.08C498.834 115.08 500.514 115.76 500.514 116.96C500.514 118.16 498.834 118.84 495.894 118.84C492.954 118.84 491.274 118.16 491.274 116.96C491.274 115.76 492.954 115.08 495.894 115.08ZM495.894 120.06C499.834 120.06 502.194 118.98 502.194 116.96C502.194 114.94 499.834 113.84 495.894 113.84C491.954 113.84 489.594 114.94 489.594 116.96C489.594 118.98 491.954 120.06 495.894 120.06ZM491.394 128.18H501.934V124.14H489.734V125.38H500.314V126.98H489.794V131.28H502.474V130H491.394V128.18ZM487.774 121.28V122.6H504.014V121.28H487.774ZM513.065 116.62H519.765V115.26H511.425V127.04H512.845C516.225 127.04 518.585 126.92 521.325 126.4L521.145 125.04C518.545 125.5 516.245 125.64 513.065 125.64V116.62ZM527.425 120.62H524.465V113.54H522.825V131.52H524.465V121.98H527.425V120.62ZM539.704 115.38H535.224V113.36H533.584V115.38H529.124V116.7H539.704V115.38ZM531.684 120.68C531.684 119.52 532.764 118.78 534.404 118.78C536.044 118.78 537.144 119.52 537.144 120.68C537.144 121.86 536.044 122.58 534.404 122.58C532.764 122.58 531.684 121.86 531.684 120.68ZM538.704 120.68C538.704 118.78 536.964 117.56 534.404 117.56C531.844 117.56 530.124 118.78 530.124 120.68C530.124 122.6 531.844 123.82 534.404 123.82C536.964 123.82 538.704 122.6 538.704 120.68ZM541.364 129.92H533.324V127.94H541.364V129.92ZM541.364 126.66H533.324V124.76H531.704V131.24H542.984V124.76H541.364V126.66ZM545.644 118.1H542.984V113.54H541.344V123.96H542.984V119.48H545.644V118.1ZM550.222 115.28H548.582V126.84H550.062C552.922 126.84 555.742 126.64 558.862 126L558.682 124.6C555.702 125.2 552.922 125.44 550.222 125.44V115.28ZM560.522 113.54V131.46H562.162V113.54H560.522ZM568.261 116.62H574.961V115.26H566.621V127.04H568.041C571.421 127.04 573.781 126.92 576.521 126.4L576.341 125.04C573.741 125.5 571.441 125.64 568.261 125.64V116.62ZM582.621 120.62H579.661V113.54H578.021V131.52H579.661V121.98H582.621V120.62ZM585.979 130.26C586.699 130.26 587.299 129.7 587.299 128.88C587.299 128.04 586.699 127.46 585.979 127.46C585.259 127.46 584.659 128.04 584.659 128.88C584.659 129.7 585.259 130.26 585.979 130.26Z" fill="black"/>
<path d="M351.9 285.24C351.9 283.62 353.18 282.5 354.96 282.5C356.72 282.5 358 283.62 358 285.24C358 286.84 356.72 287.98 354.96 287.98C353.18 287.98 351.9 286.84 351.9 285.24ZM363.18 284V286.4H359.4C359.5 286.04 359.56 285.64 359.56 285.24C359.56 284.8 359.5 284.38 359.38 284H363.18ZM363.18 287.7V289.74H364.82V280.54H363.18V282.7H358.66C357.84 281.74 356.52 281.16 354.96 281.16C352.28 281.16 350.34 282.82 350.34 285.24C350.34 287.62 352.28 289.3 354.96 289.3C356.56 289.32 357.88 288.7 358.72 287.7H363.18ZM354.92 296.94V294.98H364.82V290.66H353.26V291.96H363.2V293.74H353.3V298.24H365.5V296.94H354.92ZM378.038 285.2V286.54H381.578V291.24H383.238V280.56H381.578V285.2H378.038ZM379.038 289.28C376.438 288.36 374.678 286.1 374.678 283.8V283.18H378.618V281.86H369.038V283.18H373.038V283.8C373.038 286.38 371.198 288.8 368.518 289.78L369.378 291.08C371.478 290.28 373.138 288.6 373.898 286.52C374.678 288.36 376.218 289.84 378.218 290.56L379.038 289.28ZM377.318 297.2C374.618 297.2 372.978 296.44 372.978 295.14C372.978 293.84 374.618 293.06 377.318 293.06C380.018 293.06 381.658 293.84 381.658 295.14C381.658 296.44 380.018 297.2 377.318 297.2ZM377.318 291.8C373.638 291.8 371.338 293.02 371.338 295.14C371.338 297.26 373.638 298.48 377.318 298.48C380.998 298.48 383.298 297.26 383.298 295.14C383.298 293.02 380.998 291.8 377.318 291.8ZM397.437 289.3C394.837 288.38 393.077 286.12 393.077 283.82V283.1H397.017V281.76H387.437V283.1H391.437V283.82C391.437 286.36 389.577 288.76 386.917 289.7L387.777 291C389.877 290.22 391.517 288.58 392.277 286.52C393.077 288.38 394.617 289.86 396.617 290.58L397.437 289.3ZM389.637 293.58H399.977V298.5H401.637V292.26H389.637V293.58ZM399.977 280.54V285.22H396.477V286.56H399.977V291.28H401.637V280.54H399.977ZM418.295 280.54V298.52H419.935V280.54H418.295ZM410.475 281.92C407.815 281.92 405.915 284.36 405.915 288.18C405.915 292 407.815 294.44 410.475 294.44C413.135 294.44 415.035 292 415.035 288.18C415.035 284.36 413.135 281.92 410.475 281.92ZM410.475 283.4C412.215 283.4 413.455 285.28 413.455 288.18C413.455 291.1 412.215 292.98 410.475 292.98C408.715 292.98 407.475 291.1 407.475 288.18C407.475 285.28 408.715 283.4 410.475 283.4ZM436.314 284.12C436.314 286.28 436.314 288.8 435.634 292.24L437.274 292.42C437.954 288.8 437.954 286.34 437.954 284.12V282.34H425.374V283.68H436.314V284.12ZM431.614 294.62V288.2H429.974V294.62H423.674V295.96H439.894V294.62H431.614ZM457.105 289.3C454.505 288.38 452.745 286.12 452.745 283.82V283.1H456.685V281.76H447.105V283.1H451.105V283.82C451.105 286.36 449.245 288.76 446.585 289.7L447.445 291C449.545 290.22 451.185 288.58 451.945 286.52C452.745 288.38 454.285 289.86 456.285 290.58L457.105 289.3ZM449.305 293.58H459.645V298.5H461.305V292.26H449.305V293.58ZM459.645 280.54V285.22H456.145V286.56H459.645V291.28H461.305V280.54H459.645ZM466.663 293.44H477.583V298.54H479.223V292.1H466.663V293.44ZM478.643 288.1C479.103 285.74 479.103 284 479.103 282.62V281.4H467.003V282.74H477.483C477.483 284.1 477.463 285.78 477.003 288.1H464.923V289.42H481.203V288.1H478.643ZM493.902 289.3C491.302 288.38 489.542 286.12 489.542 283.82V283.1H493.482V281.76H483.902V283.1H487.902V283.82C487.902 286.36 486.042 288.76 483.382 289.7L484.242 291C486.342 290.22 487.982 288.58 488.742 286.52C489.542 288.38 491.082 289.86 493.082 290.58L493.902 289.3ZM486.102 293.58H496.442V298.5H498.102V292.26H486.102V293.58ZM496.442 280.54V285.22H492.942V286.56H496.442V291.28H498.102V280.54H496.442ZM509.82 281.66C506.1 281.66 503.3 283.64 503.3 286.62C503.3 289.62 506.1 291.58 509.82 291.58C513.54 291.58 516.34 289.62 516.34 286.62C516.34 283.64 513.54 281.66 509.82 281.66ZM509.82 283C512.66 283 514.78 284.46 514.78 286.62C514.78 288.8 512.66 290.24 509.82 290.24C507 290.24 504.86 288.8 504.86 286.62C504.86 284.46 507 283 509.82 283ZM501.7 294.74V296.1H518V294.74H501.7ZM529.059 294.92V291.54H534.799V290.22H523.759V287.32H534.379V281.86H522.099V283.2H532.779V286H522.139V291.54H527.399V294.92H520.099V296.26H536.399V294.92H529.059ZM556.07 280.56V290.82H557.71V280.56H556.07ZM546.11 291.78V298.24H557.71V291.78H546.11ZM556.11 293.08V296.92H547.71V293.08H556.11ZM548.07 281.5C545.37 281.5 543.41 283.2 543.41 285.68C543.41 288.16 545.37 289.86 548.07 289.86C550.79 289.86 552.77 288.16 552.77 285.68C552.77 283.2 550.79 281.5 548.07 281.5ZM548.07 282.86C549.87 282.86 551.17 284.04 551.17 285.68C551.17 287.34 549.87 288.5 548.07 288.5C546.29 288.5 545.01 287.34 545.01 285.68C545.01 284.04 546.29 282.86 548.07 282.86ZM572.028 282.38H567.548V280.36H565.908V282.38H561.448V283.7H572.028V282.38ZM564.008 287.68C564.008 286.52 565.088 285.78 566.728 285.78C568.368 285.78 569.468 286.52 569.468 287.68C569.468 288.86 568.368 289.58 566.728 289.58C565.088 289.58 564.008 288.86 564.008 287.68ZM571.028 287.68C571.028 285.78 569.288 284.56 566.728 284.56C564.168 284.56 562.448 285.78 562.448 287.68C562.448 289.6 564.168 290.82 566.728 290.82C569.288 290.82 571.028 289.6 571.028 287.68ZM573.688 296.92H565.648V294.94H573.688V296.92ZM573.688 293.66H565.648V291.76H564.028V298.24H575.308V291.76H573.688V293.66ZM577.968 285.1H575.308V280.54H573.668V290.96H575.308V286.48H577.968V285.1ZM582.547 282.28H580.907V293.84H582.387C585.247 293.84 588.067 293.64 591.187 293L591.007 291.6C588.027 292.2 585.247 292.44 582.547 292.44V282.28ZM592.847 280.54V298.46H594.487V280.54H592.847ZM600.585 283.62H607.285V282.26H598.945V294.04H600.365C603.745 294.04 606.105 293.92 608.845 293.4L608.665 292.04C606.065 292.5 603.765 292.64 600.585 292.64V283.62ZM614.945 287.62H611.985V280.54H610.345V298.52H611.985V288.98H614.945V287.62ZM618.303 297.26C619.023 297.26 619.623 296.7 619.623 295.88C619.623 295.04 619.023 294.46 618.303 294.46C617.583 294.46 616.983 295.04 616.983 295.88C616.983 296.7 617.583 297.26 618.303 297.26Z" fill="black"/>
<path d="M360.42 454.98C357.84 454.1 356.08 451.86 356.08 449.44V447.46H354.44V449.3C354.44 452.04 352.7 454.48 349.98 455.46L350.84 456.76C352.94 455.96 354.54 454.32 355.28 452.22C356.08 454.06 357.62 455.54 359.56 456.26L360.42 454.98ZM358.28 463.18C355.62 463.18 354 462.44 354 461.2C354 459.94 355.62 459.2 358.28 459.2C360.92 459.2 362.54 459.94 362.54 461.2C362.54 462.44 360.92 463.18 358.28 463.18ZM358.28 457.92C354.62 457.92 352.36 459.1 352.36 461.2C352.36 463.28 354.62 464.46 358.28 464.46C361.92 464.46 364.18 463.28 364.18 461.2C364.18 459.1 361.92 457.92 358.28 457.92ZM363.98 451.18V446.56H362.34V457.42H363.98V452.54H366.64V451.18H363.98ZM370.718 450.06H375.778V448.72H369.098V460.06H370.278C372.958 460.06 374.778 459.98 376.918 459.52L376.778 458.16C374.818 458.58 373.118 458.68 370.718 458.7V450.06ZM382.118 446.54V453.74H379.578V446.94H378.038V463.58H379.578V455.08H382.118V464.48H383.698V446.54H382.118ZM394.297 454.62H389.217V451.66H394.297V454.62ZM395.897 447.68H394.297V450.38H389.217V447.68H387.597V455.94H395.897V447.68ZM395.077 463.18C392.397 463.18 390.797 462.42 390.797 461.14C390.797 459.86 392.397 459.12 395.077 459.12C397.717 459.12 399.337 459.86 399.337 461.14C399.337 462.42 397.717 463.18 395.077 463.18ZM395.077 457.8C391.417 457.8 389.157 459.02 389.157 461.14C389.157 463.26 391.417 464.48 395.077 464.48C398.717 464.48 400.977 463.26 400.977 461.14C400.977 459.02 398.717 457.8 395.077 457.8ZM400.777 451.06V446.54H399.137V457.34H400.777V452.42H403.437V451.06H400.777ZM422.808 446.56V456.18H424.448V446.56H422.808ZM412.888 457.06V464.24H424.448V457.06H422.828V459.26H414.508V457.06H412.888ZM414.508 460.54H422.828V462.92H414.508V460.54ZM414.808 447.4C412.108 447.4 410.148 449.08 410.148 451.52C410.148 454 412.108 455.66 414.808 455.66C417.528 455.66 419.508 454 419.508 451.52C419.508 449.08 417.528 447.4 414.808 447.4ZM414.808 448.76C416.628 448.76 417.908 449.9 417.908 451.52C417.908 453.16 416.628 454.3 414.808 454.3C413.028 454.3 411.748 453.16 411.748 451.52C411.748 449.9 413.028 448.76 414.808 448.76ZM438.526 455.22C435.886 454.34 434.186 452.24 434.186 449.9V449.2H438.146V447.88H428.526V449.2H432.546V449.9C432.546 452.48 430.746 454.8 428.046 455.74L428.886 457.04C431.026 456.28 432.646 454.68 433.406 452.64C434.166 454.42 435.706 455.84 437.746 456.5L438.526 455.22ZM436.346 463.16C433.666 463.16 432.066 462.42 432.066 461.14C432.066 459.88 433.666 459.14 436.346 459.14C438.986 459.14 440.606 459.88 440.606 461.14C440.606 462.42 438.986 463.16 436.346 463.16ZM436.346 457.84C432.666 457.84 430.426 459.06 430.426 461.14C430.426 463.24 432.666 464.46 436.346 464.46C439.986 464.46 442.246 463.24 442.246 461.14C442.246 459.06 439.986 457.84 436.346 457.84ZM442.046 451.08V446.56H440.406V457.38H442.046V452.46H444.706V451.08H442.046ZM450.585 459.02C449.145 459.02 448.245 457.2 448.245 454.26C448.245 451.38 449.145 449.56 450.585 449.56C451.985 449.56 452.905 451.38 452.905 454.26C452.905 457.2 451.985 459.02 450.585 459.02ZM456.645 453.52H454.385C454.185 450.14 452.745 448.04 450.585 448.04C448.245 448.04 446.745 450.44 446.745 454.26C446.745 458.14 448.245 460.54 450.585 460.54C452.785 460.54 454.245 458.38 454.385 454.86H456.645V463.6H458.205V446.94H456.645V453.52ZM460.205 446.54V464.48H461.765V446.54H460.205ZM471.203 448.08H469.563V451.3C469.563 454.62 467.523 458.08 464.923 459.38L465.923 460.68C467.943 459.6 469.603 457.34 470.383 454.68C471.203 457.2 472.843 459.34 474.883 460.36L475.843 459.06C473.243 457.82 471.203 454.56 471.203 451.3V448.08ZM478.063 446.54V452.62H473.903V453.96H478.063V464.5H479.703V446.54H478.063ZM499.074 452.7H501.354V457.62H502.934V446.56H501.354V451.36H499.074V446.9H497.514V457.04H499.074V452.7ZM496.774 454.96C494.474 454.08 493.134 452.06 493.134 450.08V447.66H491.554V450.08C491.554 452.08 490.154 454.4 487.814 455.44L488.694 456.72C490.434 455.94 491.714 454.42 492.354 452.74C492.994 454.26 494.214 455.54 495.894 456.22L496.774 454.96ZM497.014 463.2C494.334 463.2 492.654 462.48 492.654 461.24C492.654 460 494.334 459.3 497.014 459.3C499.734 459.3 501.394 460 501.394 461.24C501.394 462.48 499.734 463.2 497.014 463.2ZM497.014 458.02C493.334 458.02 491.034 459.2 491.034 461.24C491.034 463.28 493.334 464.46 497.014 464.46C500.714 464.46 503.014 463.28 503.014 461.24C503.014 459.2 500.714 458.02 497.014 458.02ZM506.973 447.68V449.02H513.473C513.173 452.06 510.513 454.4 506.153 455.58L506.833 456.88C512.073 455.44 515.233 452.22 515.233 447.68H506.973ZM508.453 459.2H518.473V464.48H520.113V457.88H508.453V459.2ZM522.773 451.08H520.113V446.52H518.473V457.06H520.113V452.44H522.773V451.08ZM529.851 459.12C528.231 459.12 527.051 457.96 527.051 456.36C527.051 454.74 528.231 453.58 529.851 453.58C531.491 453.58 532.671 454.74 532.671 456.36C532.671 457.96 531.491 459.12 529.851 459.12ZM529.851 452.22C527.331 452.22 525.511 453.94 525.511 456.36C525.511 458.8 527.331 460.48 529.851 460.48C532.411 460.48 534.231 458.8 534.231 456.36C534.231 453.94 532.411 452.22 529.851 452.22ZM530.651 446.76H529.011V449.42H524.491V450.74H535.071V449.42H530.651V446.76ZM541.351 453.92H538.411V446.56H536.771V464.48H538.411V455.3H541.351V453.92ZM555.65 450.12C555.65 452.28 555.65 454.8 554.97 458.24L556.61 458.42C557.29 454.8 557.29 452.34 557.29 450.12V448.34H544.71V449.68H555.65V450.12ZM550.95 460.62V454.2H549.31V460.62H543.01V461.96H559.23V460.62H550.95ZM581.341 455.3C578.201 454.74 574.781 452.1 574.781 449.12V447.74H573.061V449.12C573.061 452.1 569.661 454.74 566.521 455.3L567.201 456.66C569.961 456.08 572.761 454.22 573.921 451.66C575.081 454.22 577.901 456.08 580.641 456.66L581.341 455.3ZM574.741 460.8V456.44H573.101V460.8H565.861V462.14H582.141V460.8H574.741ZM592.359 463.22C589.479 463.22 587.859 462.66 587.859 461.58C587.859 460.52 589.479 459.94 592.359 459.94C595.259 459.94 596.859 460.52 596.859 461.58C596.859 462.66 595.259 463.22 592.359 463.22ZM592.359 458.72C588.459 458.72 586.219 459.72 586.219 461.58C586.219 463.46 588.459 464.46 592.359 464.46C596.259 464.46 598.499 463.46 598.499 461.58C598.499 459.72 596.259 458.72 592.359 458.72ZM593.179 456.04V454.28H598.579V453H588.019V451.24H597.999V450H588.019V448.34H598.479V447.06H586.379V454.28H591.539V456.04H584.239V457.36H600.479V456.04H593.179ZM613.298 448.38H608.818V446.36H607.178V448.38H602.718V449.7H613.298V448.38ZM605.278 453.68C605.278 452.52 606.358 451.78 607.998 451.78C609.638 451.78 610.738 452.52 610.738 453.68C610.738 454.86 609.638 455.58 607.998 455.58C606.358 455.58 605.278 454.86 605.278 453.68ZM612.298 453.68C612.298 451.78 610.558 450.56 607.998 450.56C605.438 450.56 603.718 451.78 603.718 453.68C603.718 455.6 605.438 456.82 607.998 456.82C610.558 456.82 612.298 455.6 612.298 453.68ZM614.958 462.92H606.918V460.94H614.958V462.92ZM614.958 459.66H606.918V457.76H605.298V464.24H616.578V457.76H614.958V459.66ZM619.238 451.1H616.578V446.54H614.938V456.96H616.578V452.48H619.238V451.1ZM623.816 448.28H622.176V459.84H623.656C626.516 459.84 629.336 459.64 632.456 459L632.276 457.6C629.296 458.2 626.516 458.44 623.816 458.44V448.28ZM634.116 446.54V464.46H635.756V446.54H634.116ZM641.855 449.62H648.555V448.26H640.215V460.04H641.635C645.015 460.04 647.375 459.92 650.115 459.4L649.935 458.04C647.335 458.5 645.035 458.64 641.855 458.64V449.62ZM656.215 453.62H653.255V446.54H651.615V464.52H653.255V454.98H656.215V453.62ZM659.573 463.26C660.293 463.26 660.893 462.7 660.893 461.88C660.893 461.04 660.293 460.46 659.573 460.46C658.853 460.46 658.253 461.04 658.253 461.88C658.253 462.7 658.853 463.26 659.573 463.26Z" fill="black"/>
<path d="M1370.32 93H1381.66V90.435H1377.77V73.101H1375.43C1374.29 73.83 1372.97 74.289 1371.11 74.64V76.611H1374.67V90.435H1370.32V93ZM1391.09 93.351C1394.98 93.351 1397.52 89.895 1397.52 82.983C1397.52 76.125 1394.98 72.75 1391.09 72.75C1387.21 72.75 1384.67 76.098 1384.67 82.983C1384.67 89.895 1387.21 93.351 1391.09 93.351ZM1391.09 90.894C1389.07 90.894 1387.64 88.734 1387.64 82.983C1387.64 77.286 1389.07 75.207 1391.09 75.207C1393.12 75.207 1394.55 77.286 1394.55 82.983C1394.55 88.734 1393.12 90.894 1391.09 90.894ZM1406.49 93.351C1410.38 93.351 1412.92 89.895 1412.92 82.983C1412.92 76.125 1410.38 72.75 1406.49 72.75C1402.6 72.75 1400.07 76.098 1400.07 82.983C1400.07 89.895 1402.6 93.351 1406.49 93.351ZM1406.49 90.894C1404.47 90.894 1403.04 88.734 1403.04 82.983C1403.04 77.286 1404.47 75.207 1406.49 75.207C1408.52 75.207 1409.95 77.286 1409.95 82.983C1409.95 88.734 1408.52 90.894 1406.49 90.894ZM1419.81 85.332C1422.59 85.332 1424.48 83.01 1424.48 79.014C1424.48 75.018 1422.59 72.75 1419.81 72.75C1417.03 72.75 1415.17 75.018 1415.17 79.014C1415.17 83.01 1417.03 85.332 1419.81 85.332ZM1419.81 83.496C1418.43 83.496 1417.44 82.065 1417.44 79.014C1417.44 75.936 1418.43 74.586 1419.81 74.586C1421.22 74.586 1422.21 75.936 1422.21 79.014C1422.21 82.065 1421.22 83.496 1419.81 83.496ZM1420.43 93.351H1422.4L1433.28 72.75H1431.31L1420.43 93.351ZM1433.93 93.351C1436.69 93.351 1438.58 91.056 1438.58 87.06C1438.58 83.064 1436.69 80.796 1433.93 80.796C1431.15 80.796 1429.26 83.064 1429.26 87.06C1429.26 91.056 1431.15 93.351 1433.93 93.351ZM1433.93 91.542C1432.53 91.542 1431.56 90.111 1431.56 87.06C1431.56 83.982 1432.53 82.632 1433.93 82.632C1435.31 82.632 1436.31 83.982 1436.31 87.06C1436.31 90.111 1435.31 91.542 1433.93 91.542Z" fill="black"/>
<path d="M1370.32 260H1381.66V257.435H1377.77V240.101H1375.43C1374.29 240.83 1372.97 241.289 1371.11 241.64V243.611H1374.67V257.435H1370.32V260ZM1391.09 260.351C1394.98 260.351 1397.52 256.895 1397.52 249.983C1397.52 243.125 1394.98 239.75 1391.09 239.75C1387.21 239.75 1384.67 243.098 1384.67 249.983C1384.67 256.895 1387.21 260.351 1391.09 260.351ZM1391.09 257.894C1389.07 257.894 1387.64 255.734 1387.64 249.983C1387.64 244.286 1389.07 242.207 1391.09 242.207C1393.12 242.207 1394.55 244.286 1394.55 249.983C1394.55 255.734 1393.12 257.894 1391.09 257.894ZM1406.49 260.351C1410.38 260.351 1412.92 256.895 1412.92 249.983C1412.92 243.125 1410.38 239.75 1406.49 239.75C1402.6 239.75 1400.07 243.098 1400.07 249.983C1400.07 256.895 1402.6 260.351 1406.49 260.351ZM1406.49 257.894C1404.47 257.894 1403.04 255.734 1403.04 249.983C1403.04 244.286 1404.47 242.207 1406.49 242.207C1408.52 242.207 1409.95 244.286 1409.95 249.983C1409.95 255.734 1408.52 257.894 1406.49 257.894ZM1419.81 252.332C1422.59 252.332 1424.48 250.01 1424.48 246.014C1424.48 242.018 1422.59 239.75 1419.81 239.75C1417.03 239.75 1415.17 242.018 1415.17 246.014C1415.17 250.01 1417.03 252.332 1419.81 252.332ZM1419.81 250.496C1418.43 250.496 1417.44 249.065 1417.44 246.014C1417.44 242.936 1418.43 241.586 1419.81 241.586C1421.22 241.586 1422.21 242.936 1422.21 246.014C1422.21 249.065 1421.22 250.496 1419.81 250.496ZM1420.43 260.351H1422.4L1433.28 239.75H1431.31L1420.43 260.351ZM1433.93 260.351C1436.69 260.351 1438.58 258.056 1438.58 254.06C1438.58 250.064 1436.69 247.796 1433.93 247.796C1431.15 247.796 1429.26 250.064 1429.26 254.06C1429.26 258.056 1431.15 260.351 1433.93 260.351ZM1433.93 258.542C1432.53 258.542 1431.56 257.111 1431.56 254.06C1431.56 250.982 1432.53 249.632 1433.93 249.632C1435.31 249.632 1436.31 250.982 1436.31 254.06C1436.31 257.111 1435.31 258.542 1433.93 258.542Z" fill="black"/>
<path d="M1370.32 426H1381.66V423.435H1377.77V406.101H1375.43C1374.29 406.83 1372.97 407.289 1371.11 407.64V409.611H1374.67V423.435H1370.32V426ZM1391.09 426.351C1394.98 426.351 1397.52 422.895 1397.52 415.983C1397.52 409.125 1394.98 405.75 1391.09 405.75C1387.21 405.75 1384.67 409.098 1384.67 415.983C1384.67 422.895 1387.21 426.351 1391.09 426.351ZM1391.09 423.894C1389.07 423.894 1387.64 421.734 1387.64 415.983C1387.64 410.286 1389.07 408.207 1391.09 408.207C1393.12 408.207 1394.55 410.286 1394.55 415.983C1394.55 421.734 1393.12 423.894 1391.09 423.894ZM1406.49 426.351C1410.38 426.351 1412.92 422.895 1412.92 415.983C1412.92 409.125 1410.38 405.75 1406.49 405.75C1402.6 405.75 1400.07 409.098 1400.07 415.983C1400.07 422.895 1402.6 426.351 1406.49 426.351ZM1406.49 423.894C1404.47 423.894 1403.04 421.734 1403.04 415.983C1403.04 410.286 1404.47 408.207 1406.49 408.207C1408.52 408.207 1409.95 410.286 1409.95 415.983C1409.95 421.734 1408.52 423.894 1406.49 423.894ZM1419.81 418.332C1422.59 418.332 1424.48 416.01 1424.48 412.014C1424.48 408.018 1422.59 405.75 1419.81 405.75C1417.03 405.75 1415.17 408.018 1415.17 412.014C1415.17 416.01 1417.03 418.332 1419.81 418.332ZM1419.81 416.496C1418.43 416.496 1417.44 415.065 1417.44 412.014C1417.44 408.936 1418.43 407.586 1419.81 407.586C1421.22 407.586 1422.21 408.936 1422.21 412.014C1422.21 415.065 1421.22 416.496 1419.81 416.496ZM1420.43 426.351H1422.4L1433.28 405.75H1431.31L1420.43 426.351ZM1433.93 426.351C1436.69 426.351 1438.58 424.056 1438.58 420.06C1438.58 416.064 1436.69 413.796 1433.93 413.796C1431.15 413.796 1429.26 416.064 1429.26 420.06C1429.26 424.056 1431.15 426.351 1433.93 426.351ZM1433.93 424.542C1432.53 424.542 1431.56 423.111 1431.56 420.06C1431.56 416.982 1432.53 415.632 1433.93 415.632C1435.31 415.632 1436.31 416.982 1436.31 420.06C1436.31 423.111 1435.31 424.542 1433.93 424.542Z" fill="black"/>
<path d="M14.97 86.88C11.52 85.65 9.99 83.04 9.99 80.25V80.16H14.16V77.04H9.99V74.19H6.24V77.04H2.04V80.16H6.24V80.25C6.24 83.19 4.77 86.01 1.26 87.33L3.06 90.27C5.58 89.34 7.23 87.6 8.16 85.47C9.12 87.42 10.74 88.98 13.2 89.79L14.97 86.88ZM5.82 95.25H20.88V101.61H24.84V92.07H5.82V95.25ZM21.09 73.95V80.88H19.02V74.43H15.36V90.75H19.02V84.06H21.09V90.9H24.84V73.95H21.09ZM47.8477 73.95V89.61H51.8377V73.95H47.8477ZM33.4477 90.84V101.25H51.8377V90.84H33.4477ZM47.9677 93.93V98.16H37.3477V93.93H47.9677ZM36.8077 75.21C32.5177 75.21 29.2777 77.97 29.2777 81.87C29.2777 85.74 32.5177 88.5 36.8077 88.5C41.0977 88.5 44.3077 85.74 44.3077 81.87C44.3077 77.97 41.0977 75.21 36.8077 75.21ZM36.8077 78.51C38.8777 78.51 40.4377 79.77 40.4377 81.87C40.4377 83.94 38.8777 85.2 36.8077 85.2C34.7077 85.2 33.1477 83.94 33.1477 81.87C33.1477 79.77 34.7077 78.51 36.8077 78.51ZM57.5053 75.54V78.69H66.2653C65.6953 82.32 62.3353 85.35 56.1853 86.88L57.7453 90C65.9353 87.87 70.5853 82.89 70.5853 75.54H57.5053ZM64.1953 93.57H74.3353V98.16H64.1953V93.57ZM60.3253 101.25H78.2353V90.45H60.3253V101.25ZM81.8953 79.95H78.2353V73.95H74.2753V89.34H78.2353V83.19H81.8953V79.95ZM110.02 90.15H113.98V73.95H110.02V78.99H104.98V82.2H110.02V90.15ZM107.5 86.16C103.12 84.75 101.32 81.39 101.32 77.67V75.39H97.2998V77.85C97.2998 81.66 95.3498 85.41 90.6398 86.91L92.7098 90.09C95.9798 88.98 98.1698 86.76 99.3998 83.94C100.57 86.4 102.52 88.29 105.43 89.28L107.5 86.16ZM104.65 98.55C101.02 98.55 99.1298 97.8 99.1298 96.24C99.1298 94.65 101.02 93.9 104.65 93.9C108.25 93.9 110.14 94.65 110.14 96.24C110.14 97.8 108.25 98.55 104.65 98.55ZM104.65 90.84C98.7698 90.84 95.1698 92.82 95.1698 96.24C95.1698 99.6 98.7698 101.58 104.65 101.58C110.5 101.58 114.1 99.6 114.1 96.24C114.1 92.82 110.5 90.84 104.65 90.84ZM141.398 73.98H137.438V87.9H141.398V73.98ZM135.428 84.48C130.958 83.16 128.978 79.95 128.978 76.68V74.61H124.958V76.68C124.958 80.04 122.948 83.52 118.358 84.93L120.278 88.02C123.518 87.03 125.768 84.93 127.028 82.32C128.258 84.72 130.388 86.64 133.538 87.57L135.428 84.48ZM126.968 98.31V96.6H141.428V89.13H123.008V92.16H137.498V93.78H123.038V101.37H142.118V98.31H126.968ZM162.335 76.44H156.185V73.77H152.195V76.44H146.045V79.56H162.335V76.44ZM151.205 85.35C151.205 84 152.435 83.31 154.205 83.31C155.975 83.31 157.205 84 157.205 85.35C157.205 86.73 155.975 87.42 154.205 87.42C152.435 87.42 151.205 86.73 151.205 85.35ZM160.985 85.35C160.985 82.41 158.195 80.4 154.205 80.4C150.215 80.4 147.425 82.41 147.425 85.35C147.425 88.35 150.215 90.33 154.205 90.33C158.195 90.33 160.985 88.35 160.985 85.35ZM153.755 94.92H163.955V98.16H153.755V94.92ZM149.855 101.25H167.825V91.8H149.855V101.25ZM171.485 80.76H167.825V73.98H163.865V90.6H167.825V84H171.485V80.76Z" fill="black"/>
<path d="M15.75 262.22V256.46H23.64V253.28H8.19V246.02H23.43V242.84H4.2V256.46H11.79V262.22H1.29V265.46H26.31V262.22H15.75ZM43.7077 248.09V251.3H48.0277V261.11H51.9877V240.95H48.0277V248.09H43.7077ZM45.5377 254.45C41.1877 252.98 39.2977 249.59 39.2977 246.32V245.96H44.6677V242.81H29.8177V245.96H35.2477V246.35C35.2477 249.83 33.2677 253.46 28.7377 254.93L30.7477 258.08C33.9577 257 36.1177 254.81 37.3477 252.08C38.5477 254.57 40.5877 256.55 43.6177 257.54L45.5377 254.45ZM37.7377 264.95V259.43H33.7777V268.1H52.6177V264.95H37.7377ZM78.2822 247.61V250.82H82.4222V257.39H86.3822V240.95H82.4222V247.61H78.2822ZM79.9322 253.55C75.7322 252.17 73.8122 248.93 73.6922 245.78H79.0622V242.6H64.2122V245.78H69.6422C69.5222 249.23 67.5122 252.74 63.1322 254.27L65.1422 257.39C68.3522 256.31 70.5422 254.06 71.7422 251.27C72.9422 253.7 75.0122 255.65 78.0122 256.64L79.9322 253.55ZM77.0522 265.61C73.4222 265.61 71.5322 264.86 71.5322 263.3C71.5322 261.74 73.4222 260.99 77.0522 260.99C80.6522 260.99 82.5422 261.74 82.5422 263.3C82.5422 264.86 80.6522 265.61 77.0522 265.61ZM77.0522 257.99C71.1722 257.99 67.5722 259.94 67.5722 263.3C67.5722 266.66 71.1722 268.61 77.0522 268.61C82.9022 268.61 86.5022 266.66 86.5022 263.3C86.5022 259.94 82.9022 257.99 77.0522 257.99ZM113.83 240.98H109.84V261.11H113.83V240.98ZM107.8 253.79C103.3 252.35 101.38 248.81 101.38 245.15V242.48H97.3598V245.15C97.3598 248.84 95.3798 252.71 90.7898 254.27L92.7998 257.42C96.0098 256.31 98.1698 254.06 99.4298 251.27C100.63 253.85 102.73 255.89 105.79 256.94L107.8 253.79ZM99.3998 264.95V259.19H95.4398V268.1H114.52V264.95H99.3998Z" fill="black"/>
<path d="M25.47 419.55C19.17 418.53 15.78 414.39 15.78 410.46V408.48H11.55V410.46C11.55 414.3 8.13 418.53 1.89 419.55L3.51 422.82C8.34 421.95 11.85 419.34 13.65 415.95C15.45 419.37 18.99 421.95 23.85 422.82L25.47 419.55ZM15.66 428.13V421.95H11.7V428.13H1.29V431.31H26.31V428.13H15.66ZM41.3077 431.7C37.4977 431.7 35.7277 431.19 35.7277 430.05C35.7277 428.91 37.4977 428.43 41.3077 428.43C45.1477 428.43 46.9177 428.91 46.9177 430.05C46.9177 431.19 45.1477 431.7 41.3077 431.7ZM41.3077 425.52C35.2477 425.52 31.7377 427.08 31.7377 430.05C31.7377 432.99 35.2477 434.58 41.3077 434.58C47.3977 434.58 50.9077 432.99 50.9077 430.05C50.9077 427.08 47.3977 425.52 41.3077 425.52ZM43.3177 421.2V419.49H51.2077V416.49H35.9077V414.99H50.3677V412.11H35.9077V410.67H50.9977V407.67H31.9777V419.49H39.3577V421.2H28.8577V424.29H53.8477V421.2H43.3177ZM85.5122 413.82H70.3922V407.43H66.4322V416.97H85.5122V413.82ZM75.7022 431.49C72.0122 431.49 70.1222 430.83 70.1222 429.39C70.1222 427.95 72.0122 427.29 75.7022 427.29C79.3922 427.29 81.2822 427.95 81.2822 429.39C81.2822 430.83 79.3922 431.49 75.7022 431.49ZM75.7022 424.26C69.7322 424.26 66.1322 426.15 66.1322 429.39C66.1322 432.63 69.7322 434.52 75.7022 434.52C81.6722 434.52 85.3022 432.63 85.3022 429.39C85.3022 426.15 81.6722 424.26 75.7022 424.26ZM63.3122 419.31V422.46H88.3022V419.31H63.3122ZM104.98 419.46C102.25 419.97 99.8198 420.09 95.8598 420.12V417.24H103.99V408.51H91.8998V411.69H100.09V414.3H91.9298V423.3H94.0598C99.3098 423.3 102.16 423.21 105.37 422.61L104.98 419.46ZM95.0798 428.37H110.02V434.61H113.98V425.22H95.0798V428.37ZM110.02 406.98V410.76H105.58V413.94H110.02V416.67H105.58V419.82H110.02V423.99H113.98V406.95L110.02 406.98ZM131.304 415.02C131.304 413.37 132.234 412.32 133.554 412.32C134.694 412.32 135.204 413.13 135.204 414.24C135.204 415.86 133.854 416.94 132.114 417.99C131.604 416.94 131.304 415.95 131.304 415.02ZM132.144 432.42C134.874 432.42 137.124 431.52 138.954 430.08C140.814 431.25 142.734 432.03 144.504 432.42L145.584 428.82C144.414 428.61 143.064 428.04 141.624 427.23C143.364 424.92 144.564 422.37 145.374 419.61H141.384C140.784 421.8 139.824 423.69 138.654 425.25C136.884 423.9 135.174 422.28 133.854 420.63C136.224 418.98 138.624 417.15 138.624 414.21C138.624 411.3 136.644 409.38 133.464 409.38C129.924 409.38 127.644 411.93 127.644 415.02C127.644 416.49 128.154 418.14 129.054 419.82C126.834 421.23 124.884 423.03 124.884 426.12C124.884 429.57 127.494 432.42 132.144 432.42ZM129.084 425.85C129.084 424.65 129.834 423.66 130.914 422.73C132.324 424.59 134.034 426.36 135.924 427.92C134.874 428.61 133.794 429.03 132.684 429.03C130.554 429.03 129.084 427.74 129.084 425.85ZM170.929 418.35C167.479 418.86 164.449 418.98 159.679 419.01V416.82H168.229V413.76H159.679V411.66H169.039V408.54H155.749V422.13H158.119C163.939 422.13 167.389 422.04 171.289 421.41L170.929 418.35ZM162.709 427.59H173.329V431.16H162.709V427.59ZM158.809 434.25H177.199V424.5H158.809V434.25ZM173.209 406.98V423.36H177.199V406.98H173.209ZM190.697 411.09C192.647 411.09 193.967 412.08 193.967 413.76C193.967 415.47 192.647 416.43 190.697 416.43C188.747 416.43 187.367 415.47 187.367 413.76C187.367 412.08 188.747 411.09 190.697 411.09ZM190.697 419.43C194.747 419.43 197.687 417.12 197.687 413.76C197.687 410.43 194.747 408.09 190.697 408.09C186.617 408.09 183.677 410.43 183.677 413.76C183.677 417.12 186.617 419.43 190.697 419.43ZM199.517 420.15C193.637 420.96 186.887 420.99 181.757 420.99L182.207 424.2C184.127 424.2 186.287 424.2 188.537 424.11V433.77H192.497V423.9C194.897 423.72 197.327 423.48 199.757 423.03L199.517 420.15ZM201.287 406.95V425.52H195.737V428.52H201.287V434.55H205.247V406.95H201.287ZM211.484 417.51L211.964 420.72L227.744 419.91C227.564 421.77 227.264 423.78 226.724 426.03L230.624 426.42C231.914 420.42 231.914 416.61 231.914 412.59V409.38H212.264V412.53H228.014V412.59C228.014 414 228.014 415.44 227.954 416.97L211.484 417.51ZM209.474 428.07V431.31H234.434V428.07H209.474Z" fill="black"/>
<rect x="349" y="70.9873" width="1000" height="22" fill="#F4F4F4"/>
<rect x="349" y="238" width="1000" height="22" fill="#F4F4F4"/>
<rect x="349" y="404" width="1000" height="22" fill="#F4F4F4"/>
<rect x="349" y="71" width="1000" height="22" fill="#7B9CE3"/>
<rect x="349.5" y="404.5" width="999" height="21" fill="white" stroke="black"/>
<rect x="349" y="238" width="1000" height="22" fill="#FEE094"/>
</svg>
