<svg width="1375" height="407" viewBox="0 0 1375 407" fill="none" xmlns="http://www.w3.org/2000/svg">
<path d="M301.66 60.26C304.44 59.78 307.08 58.28 308.18 56.16C309.26 58.28 311.92 59.78 314.7 60.26L315.34 58.96C312.18 58.5 309.08 56.44 309.08 54.08V53.98H314.7V52.66H301.6V53.98H307.26V54.08C307.26 56.44 304.16 58.5 301.04 58.96L301.66 60.26ZM316.28 61.76H300.08V63.1H307.32V69.48H308.96V63.1H316.3L316.28 61.76ZM323.258 63.98C321.538 63.98 320.338 62.1 320.338 59.18C320.338 56.28 321.538 54.4 323.258 54.4C324.958 54.4 326.158 56.28 326.158 59.18C326.158 62.1 324.958 63.98 323.258 63.98ZM331.598 51.54V58.38H327.698C327.438 55.02 325.678 52.92 323.258 52.92C320.638 52.92 318.778 55.36 318.778 59.18C318.778 63 320.638 65.44 323.258 65.44C325.758 65.44 327.538 63.24 327.698 59.72H331.598V69.52H333.238V51.54H331.598ZM351.577 51.56H349.937V64.68H351.577V51.56ZM347.817 60.82C345.177 59.94 343.317 57.76 343.317 55.34V54.36H347.377V53.04H337.537V54.36H341.637V55.34C341.637 57.9 339.817 60.24 337.097 61.18L337.957 62.46C340.077 61.7 341.737 60.08 342.497 58.04C343.317 59.92 344.957 61.4 347.017 62.12L347.817 60.82ZM341.677 67.74V63.44H340.037V69.08H352.117V67.74H341.677ZM374.448 51.54H372.808V60.74H374.448V51.54ZM361.728 56.18C361.728 54.62 363.028 53.52 364.768 53.52C366.528 53.52 367.808 54.62 367.808 56.18C367.808 57.72 366.528 58.82 364.768 58.82C363.028 58.82 361.728 57.72 361.728 56.18ZM369.408 56.18C369.408 53.8 367.448 52.18 364.768 52.18C362.088 52.18 360.148 53.8 360.148 56.18C360.148 58.54 362.088 60.14 364.768 60.14C367.448 60.14 369.408 58.54 369.408 56.18ZM364.488 67.94V65.96H374.448V61.62H362.828V62.92H372.828V64.74H362.868V69.24H375.048V67.94H364.488ZM382.186 64.02C380.746 64.02 379.846 62.2 379.846 59.26C379.846 56.38 380.746 54.56 382.186 54.56C383.586 54.56 384.506 56.38 384.506 59.26C384.506 62.2 383.586 64.02 382.186 64.02ZM388.246 58.52H385.986C385.786 55.14 384.346 53.04 382.186 53.04C379.846 53.04 378.346 55.44 378.346 59.26C378.346 63.14 379.846 65.54 382.186 65.54C384.386 65.54 385.846 63.38 385.986 59.86H388.246V68.6H389.806V51.94H388.246V58.52ZM391.806 51.54V69.48H393.366V51.54H391.806ZM402.398 61.62C404.538 60.94 406.198 59.52 406.978 57.64C407.798 59.42 409.438 60.78 411.558 61.42L412.318 60.16C409.698 59.38 407.818 57.48 407.778 55.2H411.918V53.88H407.778V51.66H406.138V53.88H402.058V55.2H406.138C406.098 57.56 404.278 59.54 401.638 60.34L402.398 61.62ZM407.778 61.02H406.138V64.36C404.318 64.42 402.577 64.42 401.098 64.42L401.318 65.8C404.518 65.78 408.918 65.76 412.938 65.02L412.798 63.8C411.198 64.06 409.458 64.18 407.778 64.28V61.02ZM413.978 51.54V69.5H415.618V51.54H413.978ZM432.516 64.96H434.176V51.56H432.516V55.76H428.596V57.12H432.516V64.96ZM429.876 60.72C427.296 59.76 425.536 57.4 425.536 54.9V52.62H423.896V54.84C423.896 57.58 422.096 60.12 419.416 61.1L420.276 62.4C422.376 61.56 423.976 59.86 424.736 57.72C425.496 59.66 427.036 61.2 429.016 61.98L429.876 60.72ZM424.276 67.74V63.48H422.636V69.08H434.596V67.74H424.276ZM445.894 53.08C448.834 53.08 450.514 53.76 450.514 54.96C450.514 56.16 448.834 56.84 445.894 56.84C442.954 56.84 441.274 56.16 441.274 54.96C441.274 53.76 442.954 53.08 445.894 53.08ZM445.894 58.06C449.834 58.06 452.194 56.98 452.194 54.96C452.194 52.94 449.834 51.84 445.894 51.84C441.954 51.84 439.594 52.94 439.594 54.96C439.594 56.98 441.954 58.06 445.894 58.06ZM441.394 66.18H451.934V62.14H439.734V63.38H450.314V64.98H439.794V69.28H452.474V68H441.394V66.18ZM437.774 59.28V60.6H454.014V59.28H437.774ZM463.065 54.62H469.765V53.26H461.425V65.04H462.845C466.225 65.04 468.585 64.92 471.325 64.4L471.145 63.04C468.545 63.5 466.245 63.64 463.065 63.64V54.62ZM477.425 58.62H474.465V51.54H472.825V69.52H474.465V59.98H477.425V58.62ZM489.704 53.38H485.224V51.36H483.584V53.38H479.124V54.7H489.704V53.38ZM481.684 58.68C481.684 57.52 482.764 56.78 484.404 56.78C486.044 56.78 487.144 57.52 487.144 58.68C487.144 59.86 486.044 60.58 484.404 60.58C482.764 60.58 481.684 59.86 481.684 58.68ZM488.704 58.68C488.704 56.78 486.964 55.56 484.404 55.56C481.844 55.56 480.124 56.78 480.124 58.68C480.124 60.6 481.844 61.82 484.404 61.82C486.964 61.82 488.704 60.6 488.704 58.68ZM491.364 67.92H483.324V65.94H491.364V67.92ZM491.364 64.66H483.324V62.76H481.704V69.24H492.984V62.76H491.364V64.66ZM495.644 56.1H492.984V51.54H491.344V61.96H492.984V57.48H495.644V56.1ZM500.222 53.28H498.582V64.84H500.062C502.922 64.84 505.742 64.64 508.862 64L508.682 62.6C505.702 63.2 502.922 63.44 500.222 63.44V53.28ZM510.522 51.54V69.46H512.162V51.54H510.522ZM518.261 54.62H524.961V53.26H516.621V65.04H518.041C521.421 65.04 523.781 64.92 526.521 64.4L526.341 63.04C523.741 63.5 521.441 63.64 518.261 63.64V54.62ZM532.621 58.62H529.661V51.54H528.021V69.52H529.661V59.98H532.621V58.62ZM535.979 68.26C536.699 68.26 537.299 67.7 537.299 66.88C537.299 66.04 536.699 65.46 535.979 65.46C535.259 65.46 534.659 66.04 534.659 66.88C534.659 67.7 535.259 68.26 535.979 68.26Z" fill="black"/>
<path d="M301.9 223.24C301.9 221.62 303.18 220.5 304.96 220.5C306.72 220.5 308 221.62 308 223.24C308 224.84 306.72 225.98 304.96 225.98C303.18 225.98 301.9 224.84 301.9 223.24ZM313.18 222V224.4H309.4C309.5 224.04 309.56 223.64 309.56 223.24C309.56 222.8 309.5 222.38 309.38 222H313.18ZM313.18 225.7V227.74H314.82V218.54H313.18V220.7H308.66C307.84 219.74 306.52 219.16 304.96 219.16C302.28 219.16 300.34 220.82 300.34 223.24C300.34 225.62 302.28 227.3 304.96 227.3C306.56 227.32 307.88 226.7 308.72 225.7H313.18ZM304.92 234.94V232.98H314.82V228.66H303.26V229.96H313.2V231.74H303.3V236.24H315.5V234.94H304.92ZM328.038 223.2V224.54H331.578V229.24H333.238V218.56H331.578V223.2H328.038ZM329.038 227.28C326.438 226.36 324.678 224.1 324.678 221.8V221.18H328.618V219.86H319.038V221.18H323.038V221.8C323.038 224.38 321.198 226.8 318.518 227.78L319.378 229.08C321.478 228.28 323.138 226.6 323.898 224.52C324.678 226.36 326.218 227.84 328.218 228.56L329.038 227.28ZM327.318 235.2C324.618 235.2 322.978 234.44 322.978 233.14C322.978 231.84 324.618 231.06 327.318 231.06C330.018 231.06 331.658 231.84 331.658 233.14C331.658 234.44 330.018 235.2 327.318 235.2ZM327.318 229.8C323.638 229.8 321.338 231.02 321.338 233.14C321.338 235.26 323.638 236.48 327.318 236.48C330.998 236.48 333.298 235.26 333.298 233.14C333.298 231.02 330.998 229.8 327.318 229.8ZM347.437 227.3C344.837 226.38 343.077 224.12 343.077 221.82V221.1H347.017V219.76H337.437V221.1H341.437V221.82C341.437 224.36 339.577 226.76 336.917 227.7L337.777 229C339.877 228.22 341.517 226.58 342.277 224.52C343.077 226.38 344.617 227.86 346.617 228.58L347.437 227.3ZM339.637 231.58H349.977V236.5H351.637V230.26H339.637V231.58ZM349.977 218.54V223.22H346.477V224.56H349.977V229.28H351.637V218.54H349.977ZM368.295 218.54V236.52H369.935V218.54H368.295ZM360.475 219.92C357.815 219.92 355.915 222.36 355.915 226.18C355.915 230 357.815 232.44 360.475 232.44C363.135 232.44 365.035 230 365.035 226.18C365.035 222.36 363.135 219.92 360.475 219.92ZM360.475 221.4C362.215 221.4 363.455 223.28 363.455 226.18C363.455 229.1 362.215 230.98 360.475 230.98C358.715 230.98 357.475 229.1 357.475 226.18C357.475 223.28 358.715 221.4 360.475 221.4ZM386.314 222.12C386.314 224.28 386.314 226.8 385.634 230.24L387.274 230.42C387.954 226.8 387.954 224.34 387.954 222.12V220.34H375.374V221.68H386.314V222.12ZM381.614 232.62V226.2H379.974V232.62H373.674V233.96H389.894V232.62H381.614ZM407.105 227.3C404.505 226.38 402.745 224.12 402.745 221.82V221.1H406.685V219.76H397.105V221.1H401.105V221.82C401.105 224.36 399.245 226.76 396.585 227.7L397.445 229C399.545 228.22 401.185 226.58 401.945 224.52C402.745 226.38 404.285 227.86 406.285 228.58L407.105 227.3ZM399.305 231.58H409.645V236.5H411.305V230.26H399.305V231.58ZM409.645 218.54V223.22H406.145V224.56H409.645V229.28H411.305V218.54H409.645ZM416.663 231.44H427.583V236.54H429.223V230.1H416.663V231.44ZM428.643 226.1C429.103 223.74 429.103 222 429.103 220.62V219.4H417.003V220.74H427.483C427.483 222.1 427.463 223.78 427.003 226.1H414.923V227.42H431.203V226.1H428.643ZM443.902 227.3C441.302 226.38 439.542 224.12 439.542 221.82V221.1H443.482V219.76H433.902V221.1H437.902V221.82C437.902 224.36 436.042 226.76 433.382 227.7L434.242 229C436.342 228.22 437.982 226.58 438.742 224.52C439.542 226.38 441.082 227.86 443.082 228.58L443.902 227.3ZM436.102 231.58H446.442V236.5H448.102V230.26H436.102V231.58ZM446.442 218.54V223.22H442.942V224.56H446.442V229.28H448.102V218.54H446.442ZM459.82 219.66C456.1 219.66 453.3 221.64 453.3 224.62C453.3 227.62 456.1 229.58 459.82 229.58C463.54 229.58 466.34 227.62 466.34 224.62C466.34 221.64 463.54 219.66 459.82 219.66ZM459.82 221C462.66 221 464.78 222.46 464.78 224.62C464.78 226.8 462.66 228.24 459.82 228.24C457 228.24 454.86 226.8 454.86 224.62C454.86 222.46 457 221 459.82 221ZM451.7 232.74V234.1H468V232.74H451.7ZM479.059 232.92V229.54H484.799V228.22H473.759V225.32H484.379V219.86H472.099V221.2H482.779V224H472.139V229.54H477.399V232.92H470.099V234.26H486.399V232.92H479.059ZM506.07 218.56V228.82H507.71V218.56H506.07ZM496.11 229.78V236.24H507.71V229.78H496.11ZM506.11 231.08V234.92H497.71V231.08H506.11ZM498.07 219.5C495.37 219.5 493.41 221.2 493.41 223.68C493.41 226.16 495.37 227.86 498.07 227.86C500.79 227.86 502.77 226.16 502.77 223.68C502.77 221.2 500.79 219.5 498.07 219.5ZM498.07 220.86C499.87 220.86 501.17 222.04 501.17 223.68C501.17 225.34 499.87 226.5 498.07 226.5C496.29 226.5 495.01 225.34 495.01 223.68C495.01 222.04 496.29 220.86 498.07 220.86ZM522.028 220.38H517.548V218.36H515.908V220.38H511.448V221.7H522.028V220.38ZM514.008 225.68C514.008 224.52 515.088 223.78 516.728 223.78C518.368 223.78 519.468 224.52 519.468 225.68C519.468 226.86 518.368 227.58 516.728 227.58C515.088 227.58 514.008 226.86 514.008 225.68ZM521.028 225.68C521.028 223.78 519.288 222.56 516.728 222.56C514.168 222.56 512.448 223.78 512.448 225.68C512.448 227.6 514.168 228.82 516.728 228.82C519.288 228.82 521.028 227.6 521.028 225.68ZM523.688 234.92H515.648V232.94H523.688V234.92ZM523.688 231.66H515.648V229.76H514.028V236.24H525.308V229.76H523.688V231.66ZM527.968 223.1H525.308V218.54H523.668V228.96H525.308V224.48H527.968V223.1ZM532.547 220.28H530.907V231.84H532.387C535.247 231.84 538.067 231.64 541.187 231L541.007 229.6C538.027 230.2 535.247 230.44 532.547 230.44V220.28ZM542.847 218.54V236.46H544.487V218.54H542.847ZM550.585 221.62H557.285V220.26H548.945V232.04H550.365C553.745 232.04 556.105 231.92 558.845 231.4L558.665 230.04C556.065 230.5 553.765 230.64 550.585 230.64V221.62ZM564.945 225.62H561.985V218.54H560.345V236.52H561.985V226.98H564.945V225.62ZM568.303 235.26C569.023 235.26 569.623 234.7 569.623 233.88C569.623 233.04 569.023 232.46 568.303 232.46C567.583 232.46 566.983 233.04 566.983 233.88C566.983 234.7 567.583 235.26 568.303 235.26Z" fill="black"/>
<path d="M310.42 392.98C307.84 392.1 306.08 389.86 306.08 387.44V385.46H304.44V387.3C304.44 390.04 302.7 392.48 299.98 393.46L300.84 394.76C302.94 393.96 304.54 392.32 305.28 390.22C306.08 392.06 307.62 393.54 309.56 394.26L310.42 392.98ZM308.28 401.18C305.62 401.18 304 400.44 304 399.2C304 397.94 305.62 397.2 308.28 397.2C310.92 397.2 312.54 397.94 312.54 399.2C312.54 400.44 310.92 401.18 308.28 401.18ZM308.28 395.92C304.62 395.92 302.36 397.1 302.36 399.2C302.36 401.28 304.62 402.46 308.28 402.46C311.92 402.46 314.18 401.28 314.18 399.2C314.18 397.1 311.92 395.92 308.28 395.92ZM313.98 389.18V384.56H312.34V395.42H313.98V390.54H316.64V389.18H313.98ZM320.718 388.06H325.778V386.72H319.098V398.06H320.278C322.958 398.06 324.778 397.98 326.918 397.52L326.778 396.16C324.818 396.58 323.118 396.68 320.718 396.7V388.06ZM332.118 384.54V391.74H329.578V384.94H328.038V401.58H329.578V393.08H332.118V402.48H333.698V384.54H332.118ZM344.297 392.62H339.217V389.66H344.297V392.62ZM345.897 385.68H344.297V388.38H339.217V385.68H337.597V393.94H345.897V385.68ZM345.077 401.18C342.397 401.18 340.797 400.42 340.797 399.14C340.797 397.86 342.397 397.12 345.077 397.12C347.717 397.12 349.337 397.86 349.337 399.14C349.337 400.42 347.717 401.18 345.077 401.18ZM345.077 395.8C341.417 395.8 339.157 397.02 339.157 399.14C339.157 401.26 341.417 402.48 345.077 402.48C348.717 402.48 350.977 401.26 350.977 399.14C350.977 397.02 348.717 395.8 345.077 395.8ZM350.777 389.06V384.54H349.137V395.34H350.777V390.42H353.437V389.06H350.777ZM372.808 384.56V394.18H374.448V384.56H372.808ZM362.888 395.06V402.24H374.448V395.06H372.828V397.26H364.508V395.06H362.888ZM364.508 398.54H372.828V400.92H364.508V398.54ZM364.808 385.4C362.108 385.4 360.148 387.08 360.148 389.52C360.148 392 362.108 393.66 364.808 393.66C367.528 393.66 369.508 392 369.508 389.52C369.508 387.08 367.528 385.4 364.808 385.4ZM364.808 386.76C366.628 386.76 367.908 387.9 367.908 389.52C367.908 391.16 366.628 392.3 364.808 392.3C363.028 392.3 361.748 391.16 361.748 389.52C361.748 387.9 363.028 386.76 364.808 386.76ZM388.526 393.22C385.886 392.34 384.186 390.24 384.186 387.9V387.2H388.146V385.88H378.526V387.2H382.546V387.9C382.546 390.48 380.746 392.8 378.046 393.74L378.886 395.04C381.026 394.28 382.646 392.68 383.406 390.64C384.166 392.42 385.706 393.84 387.746 394.5L388.526 393.22ZM386.346 401.16C383.666 401.16 382.066 400.42 382.066 399.14C382.066 397.88 383.666 397.14 386.346 397.14C388.986 397.14 390.606 397.88 390.606 399.14C390.606 400.42 388.986 401.16 386.346 401.16ZM386.346 395.84C382.666 395.84 380.426 397.06 380.426 399.14C380.426 401.24 382.666 402.46 386.346 402.46C389.986 402.46 392.246 401.24 392.246 399.14C392.246 397.06 389.986 395.84 386.346 395.84ZM392.046 389.08V384.56H390.406V395.38H392.046V390.46H394.706V389.08H392.046ZM400.585 397.02C399.145 397.02 398.245 395.2 398.245 392.26C398.245 389.38 399.145 387.56 400.585 387.56C401.985 387.56 402.905 389.38 402.905 392.26C402.905 395.2 401.985 397.02 400.585 397.02ZM406.645 391.52H404.385C404.185 388.14 402.745 386.04 400.585 386.04C398.245 386.04 396.745 388.44 396.745 392.26C396.745 396.14 398.245 398.54 400.585 398.54C402.785 398.54 404.245 396.38 404.385 392.86H406.645V401.6H408.205V384.94H406.645V391.52ZM410.205 384.54V402.48H411.765V384.54H410.205ZM421.203 386.08H419.563V389.3C419.563 392.62 417.523 396.08 414.923 397.38L415.923 398.68C417.943 397.6 419.603 395.34 420.383 392.68C421.203 395.2 422.843 397.34 424.883 398.36L425.843 397.06C423.243 395.82 421.203 392.56 421.203 389.3V386.08ZM428.063 384.54V390.62H423.903V391.96H428.063V402.5H429.703V384.54H428.063ZM449.074 390.7H451.354V395.62H452.934V384.56H451.354V389.36H449.074V384.9H447.514V395.04H449.074V390.7ZM446.774 392.96C444.474 392.08 443.134 390.06 443.134 388.08V385.66H441.554V388.08C441.554 390.08 440.154 392.4 437.814 393.44L438.694 394.72C440.434 393.94 441.714 392.42 442.354 390.74C442.994 392.26 444.214 393.54 445.894 394.22L446.774 392.96ZM447.014 401.2C444.334 401.2 442.654 400.48 442.654 399.24C442.654 398 444.334 397.3 447.014 397.3C449.734 397.3 451.394 398 451.394 399.24C451.394 400.48 449.734 401.2 447.014 401.2ZM447.014 396.02C443.334 396.02 441.034 397.2 441.034 399.24C441.034 401.28 443.334 402.46 447.014 402.46C450.714 402.46 453.014 401.28 453.014 399.24C453.014 397.2 450.714 396.02 447.014 396.02ZM456.973 385.68V387.02H463.473C463.173 390.06 460.513 392.4 456.153 393.58L456.833 394.88C462.073 393.44 465.233 390.22 465.233 385.68H456.973ZM458.453 397.2H468.473V402.48H470.113V395.88H458.453V397.2ZM472.773 389.08H470.113V384.52H468.473V395.06H470.113V390.44H472.773V389.08ZM479.851 397.12C478.231 397.12 477.051 395.96 477.051 394.36C477.051 392.74 478.231 391.58 479.851 391.58C481.491 391.58 482.671 392.74 482.671 394.36C482.671 395.96 481.491 397.12 479.851 397.12ZM479.851 390.22C477.331 390.22 475.511 391.94 475.511 394.36C475.511 396.8 477.331 398.48 479.851 398.48C482.411 398.48 484.231 396.8 484.231 394.36C484.231 391.94 482.411 390.22 479.851 390.22ZM480.651 384.76H479.011V387.42H474.491V388.74H485.071V387.42H480.651V384.76ZM491.351 391.92H488.411V384.56H486.771V402.48H488.411V393.3H491.351V391.92ZM505.65 388.12C505.65 390.28 505.65 392.8 504.97 396.24L506.61 396.42C507.29 392.8 507.29 390.34 507.29 388.12V386.34H494.71V387.68H505.65V388.12ZM500.95 398.62V392.2H499.31V398.62H493.01V399.96H509.23V398.62H500.95ZM531.341 393.3C528.201 392.74 524.781 390.1 524.781 387.12V385.74H523.061V387.12C523.061 390.1 519.661 392.74 516.521 393.3L517.201 394.66C519.961 394.08 522.761 392.22 523.921 389.66C525.081 392.22 527.901 394.08 530.641 394.66L531.341 393.3ZM524.741 398.8V394.44H523.101V398.8H515.861V400.14H532.141V398.8H524.741ZM542.359 401.22C539.479 401.22 537.859 400.66 537.859 399.58C537.859 398.52 539.479 397.94 542.359 397.94C545.259 397.94 546.859 398.52 546.859 399.58C546.859 400.66 545.259 401.22 542.359 401.22ZM542.359 396.72C538.459 396.72 536.219 397.72 536.219 399.58C536.219 401.46 538.459 402.46 542.359 402.46C546.259 402.46 548.499 401.46 548.499 399.58C548.499 397.72 546.259 396.72 542.359 396.72ZM543.179 394.04V392.28H548.579V391H538.019V389.24H547.999V388H538.019V386.34H548.479V385.06H536.379V392.28H541.539V394.04H534.239V395.36H550.479V394.04H543.179ZM563.298 386.38H558.818V384.36H557.178V386.38H552.718V387.7H563.298V386.38ZM555.278 391.68C555.278 390.52 556.358 389.78 557.998 389.78C559.638 389.78 560.738 390.52 560.738 391.68C560.738 392.86 559.638 393.58 557.998 393.58C556.358 393.58 555.278 392.86 555.278 391.68ZM562.298 391.68C562.298 389.78 560.558 388.56 557.998 388.56C555.438 388.56 553.718 389.78 553.718 391.68C553.718 393.6 555.438 394.82 557.998 394.82C560.558 394.82 562.298 393.6 562.298 391.68ZM564.958 400.92H556.918V398.94H564.958V400.92ZM564.958 397.66H556.918V395.76H555.298V402.24H566.578V395.76H564.958V397.66ZM569.238 389.1H566.578V384.54H564.938V394.96H566.578V390.48H569.238V389.1ZM573.816 386.28H572.176V397.84H573.656C576.516 397.84 579.336 397.64 582.456 397L582.276 395.6C579.296 396.2 576.516 396.44 573.816 396.44V386.28ZM584.116 384.54V402.46H585.756V384.54H584.116ZM591.855 387.62H598.555V386.26H590.215V398.04H591.635C595.015 398.04 597.375 397.92 600.115 397.4L599.935 396.04C597.335 396.5 595.035 396.64 591.855 396.64V387.62ZM606.215 391.62H603.255V384.54H601.615V402.52H603.255V392.98H606.215V391.62ZM609.573 401.26C610.293 401.26 610.893 400.7 610.893 399.88C610.893 399.04 610.293 398.46 609.573 398.46C608.853 398.46 608.253 399.04 608.253 399.88C608.253 400.7 608.853 401.26 609.573 401.26Z" fill="black"/>
<path d="M14.97 24.88C11.52 23.65 9.99 21.04 9.99 18.25V18.16H14.16V15.04H9.99V12.19H6.24V15.04H2.04V18.16H6.24V18.25C6.24 21.19 4.77 24.01 1.26 25.33L3.06 28.27C5.58 27.34 7.23 25.6 8.16 23.47C9.12 25.42 10.74 26.98 13.2 27.79L14.97 24.88ZM5.82 33.25H20.88V39.61H24.84V30.07H5.82V33.25ZM21.09 11.95V18.88H19.02V12.43H15.36V28.75H19.02V22.06H21.09V28.9H24.84V11.95H21.09ZM47.8477 11.95V27.61H51.8377V11.95H47.8477ZM33.4477 28.84V39.25H51.8377V28.84H33.4477ZM47.9677 31.93V36.16H37.3477V31.93H47.9677ZM36.8077 13.21C32.5177 13.21 29.2777 15.97 29.2777 19.87C29.2777 23.74 32.5177 26.5 36.8077 26.5C41.0977 26.5 44.3077 23.74 44.3077 19.87C44.3077 15.97 41.0977 13.21 36.8077 13.21ZM36.8077 16.51C38.8777 16.51 40.4377 17.77 40.4377 19.87C40.4377 21.94 38.8777 23.2 36.8077 23.2C34.7077 23.2 33.1477 21.94 33.1477 19.87C33.1477 17.77 34.7077 16.51 36.8077 16.51ZM57.5053 13.54V16.69H66.2653C65.6953 20.32 62.3353 23.35 56.1853 24.88L57.7453 28C65.9353 25.87 70.5853 20.89 70.5853 13.54H57.5053ZM64.1953 31.57H74.3353V36.16H64.1953V31.57ZM60.3253 39.25H78.2353V28.45H60.3253V39.25ZM81.8953 17.95H78.2353V11.95H74.2753V27.34H78.2353V21.19H81.8953V17.95ZM110.02 28.15H113.98V11.95H110.02V16.99H104.98V20.2H110.02V28.15ZM107.5 24.16C103.12 22.75 101.32 19.39 101.32 15.67V13.39H97.2998V15.85C97.2998 19.66 95.3498 23.41 90.6398 24.91L92.7098 28.09C95.9798 26.98 98.1698 24.76 99.3998 21.94C100.57 24.4 102.52 26.29 105.43 27.28L107.5 24.16ZM104.65 36.55C101.02 36.55 99.1298 35.8 99.1298 34.24C99.1298 32.65 101.02 31.9 104.65 31.9C108.25 31.9 110.14 32.65 110.14 34.24C110.14 35.8 108.25 36.55 104.65 36.55ZM104.65 28.84C98.7698 28.84 95.1698 30.82 95.1698 34.24C95.1698 37.6 98.7698 39.58 104.65 39.58C110.5 39.58 114.1 37.6 114.1 34.24C114.1 30.82 110.5 28.84 104.65 28.84ZM141.398 11.98H137.438V25.9H141.398V11.98ZM135.428 22.48C130.958 21.16 128.978 17.95 128.978 14.68V12.61H124.958V14.68C124.958 18.04 122.948 21.52 118.358 22.93L120.278 26.02C123.518 25.03 125.768 22.93 127.028 20.32C128.258 22.72 130.388 24.64 133.538 25.57L135.428 22.48ZM126.968 36.31V34.6H141.428V27.13H123.008V30.16H137.498V31.78H123.038V39.37H142.118V36.31H126.968ZM162.335 14.44H156.185V11.77H152.195V14.44H146.045V17.56H162.335V14.44ZM151.205 23.35C151.205 22 152.435 21.31 154.205 21.31C155.975 21.31 157.205 22 157.205 23.35C157.205 24.73 155.975 25.42 154.205 25.42C152.435 25.42 151.205 24.73 151.205 23.35ZM160.985 23.35C160.985 20.41 158.195 18.4 154.205 18.4C150.215 18.4 147.425 20.41 147.425 23.35C147.425 26.35 150.215 28.33 154.205 28.33C158.195 28.33 160.985 26.35 160.985 23.35ZM153.755 32.92H163.955V36.16H153.755V32.92ZM149.855 39.25H167.825V29.8H149.855V39.25ZM171.485 18.76H167.825V11.98H163.865V28.6H167.825V22H171.485V18.76Z" fill="black"/>
<path d="M1322.05 17.284C1322.05 14.692 1323.4 13.153 1325.1 13.153C1327.26 13.153 1328.75 14.935 1329.04 18.85C1327.91 20.551 1326.51 21.28 1325.26 21.28C1323.18 21.28 1322.05 19.822 1322.05 17.284ZM1324.56 31.351C1328.4 31.351 1331.96 28.219 1331.96 20.389C1331.96 13.801 1328.88 10.75 1325.07 10.75C1321.86 10.75 1319.16 13.342 1319.16 17.284C1319.16 21.442 1321.4 23.521 1324.72 23.521C1326.24 23.521 1327.94 22.63 1329.1 21.199C1328.91 26.869 1326.83 28.813 1324.43 28.813C1323.18 28.813 1321.97 28.219 1321.19 27.328L1319.49 29.245C1320.65 30.433 1322.27 31.351 1324.56 31.351ZM1340.63 31.351C1344.12 31.351 1347.33 28.867 1347.33 24.466C1347.33 20.119 1344.6 18.148 1341.28 18.148C1340.2 18.148 1339.42 18.418 1338.56 18.85L1339.01 13.747H1346.39V11.101H1336.31L1335.72 20.551L1337.23 21.55C1338.39 20.794 1339.15 20.416 1340.42 20.416C1342.69 20.416 1344.2 21.928 1344.2 24.574C1344.2 27.22 1342.5 28.813 1340.26 28.813C1338.18 28.813 1336.75 27.814 1335.61 26.68L1334.13 28.705C1335.53 30.082 1337.5 31.351 1340.63 31.351ZM1354.41 23.332C1357.19 23.332 1359.08 21.01 1359.08 17.014C1359.08 13.018 1357.19 10.75 1354.41 10.75C1351.63 10.75 1349.77 13.018 1349.77 17.014C1349.77 21.01 1351.63 23.332 1354.41 23.332ZM1354.41 21.496C1353.04 21.496 1352.04 20.065 1352.04 17.014C1352.04 13.936 1353.04 12.586 1354.41 12.586C1355.82 12.586 1356.82 13.936 1356.82 17.014C1356.82 20.065 1355.82 21.496 1354.41 21.496ZM1355.03 31.351H1357L1367.89 10.75H1365.91L1355.03 31.351ZM1368.53 31.351C1371.29 31.351 1373.18 29.056 1373.18 25.06C1373.18 21.064 1371.29 18.796 1368.53 18.796C1365.75 18.796 1363.86 21.064 1363.86 25.06C1363.86 29.056 1365.75 31.351 1368.53 31.351ZM1368.53 29.542C1367.13 29.542 1366.16 28.111 1366.16 25.06C1366.16 21.982 1367.13 20.632 1368.53 20.632C1369.91 20.632 1370.91 21.982 1370.91 25.06C1370.91 28.111 1369.91 29.542 1368.53 29.542Z" fill="black"/>
<path d="M1322.05 184.284C1322.05 181.692 1323.4 180.153 1325.1 180.153C1327.26 180.153 1328.75 181.935 1329.04 185.85C1327.91 187.551 1326.51 188.28 1325.26 188.28C1323.18 188.28 1322.05 186.822 1322.05 184.284ZM1324.56 198.351C1328.4 198.351 1331.96 195.219 1331.96 187.389C1331.96 180.801 1328.88 177.75 1325.07 177.75C1321.86 177.75 1319.16 180.342 1319.16 184.284C1319.16 188.442 1321.4 190.521 1324.72 190.521C1326.24 190.521 1327.94 189.63 1329.1 188.199C1328.91 193.869 1326.83 195.813 1324.43 195.813C1323.18 195.813 1321.97 195.219 1321.19 194.328L1319.49 196.245C1320.65 197.433 1322.27 198.351 1324.56 198.351ZM1341.09 198.351C1344.98 198.351 1347.52 194.895 1347.52 187.983C1347.52 181.125 1344.98 177.75 1341.09 177.75C1337.21 177.75 1334.67 181.098 1334.67 187.983C1334.67 194.895 1337.21 198.351 1341.09 198.351ZM1341.09 195.894C1339.07 195.894 1337.64 193.734 1337.64 187.983C1337.64 182.286 1339.07 180.207 1341.09 180.207C1343.12 180.207 1344.55 182.286 1344.55 187.983C1344.55 193.734 1343.12 195.894 1341.09 195.894ZM1354.41 190.332C1357.19 190.332 1359.08 188.01 1359.08 184.014C1359.08 180.018 1357.19 177.75 1354.41 177.75C1351.63 177.75 1349.77 180.018 1349.77 184.014C1349.77 188.01 1351.63 190.332 1354.41 190.332ZM1354.41 188.496C1353.04 188.496 1352.04 187.065 1352.04 184.014C1352.04 180.936 1353.04 179.586 1354.41 179.586C1355.82 179.586 1356.82 180.936 1356.82 184.014C1356.82 187.065 1355.82 188.496 1354.41 188.496ZM1355.03 198.351H1357L1367.89 177.75H1365.91L1355.03 198.351ZM1368.53 198.351C1371.29 198.351 1373.18 196.056 1373.18 192.06C1373.18 188.064 1371.29 185.796 1368.53 185.796C1365.75 185.796 1363.86 188.064 1363.86 192.06C1363.86 196.056 1365.75 198.351 1368.53 198.351ZM1368.53 196.542C1367.13 196.542 1366.16 195.111 1366.16 192.06C1366.16 188.982 1367.13 187.632 1368.53 187.632C1369.91 187.632 1370.91 188.982 1370.91 192.06C1370.91 195.111 1369.91 196.542 1368.53 196.542Z" fill="black"/>
<path d="M1322.05 350.284C1322.05 347.692 1323.4 346.153 1325.1 346.153C1327.26 346.153 1328.75 347.935 1329.04 351.85C1327.91 353.551 1326.51 354.28 1325.26 354.28C1323.18 354.28 1322.05 352.822 1322.05 350.284ZM1324.56 364.351C1328.4 364.351 1331.96 361.219 1331.96 353.389C1331.96 346.801 1328.88 343.75 1325.07 343.75C1321.86 343.75 1319.16 346.342 1319.16 350.284C1319.16 354.442 1321.4 356.521 1324.72 356.521C1326.24 356.521 1327.94 355.63 1329.1 354.199C1328.91 359.869 1326.83 361.813 1324.43 361.813C1323.18 361.813 1321.97 361.219 1321.19 360.328L1319.49 362.245C1320.65 363.433 1322.27 364.351 1324.56 364.351ZM1341.09 364.351C1344.98 364.351 1347.52 360.895 1347.52 353.983C1347.52 347.125 1344.98 343.75 1341.09 343.75C1337.21 343.75 1334.67 347.098 1334.67 353.983C1334.67 360.895 1337.21 364.351 1341.09 364.351ZM1341.09 361.894C1339.07 361.894 1337.64 359.734 1337.64 353.983C1337.64 348.286 1339.07 346.207 1341.09 346.207C1343.12 346.207 1344.55 348.286 1344.55 353.983C1344.55 359.734 1343.12 361.894 1341.09 361.894ZM1354.41 356.332C1357.19 356.332 1359.08 354.01 1359.08 350.014C1359.08 346.018 1357.19 343.75 1354.41 343.75C1351.63 343.75 1349.77 346.018 1349.77 350.014C1349.77 354.01 1351.63 356.332 1354.41 356.332ZM1354.41 354.496C1353.04 354.496 1352.04 353.065 1352.04 350.014C1352.04 346.936 1353.04 345.586 1354.41 345.586C1355.82 345.586 1356.82 346.936 1356.82 350.014C1356.82 353.065 1355.82 354.496 1354.41 354.496ZM1355.03 364.351H1357L1367.89 343.75H1365.91L1355.03 364.351ZM1368.53 364.351C1371.29 364.351 1373.18 362.056 1373.18 358.06C1373.18 354.064 1371.29 351.796 1368.53 351.796C1365.75 351.796 1363.86 354.064 1363.86 358.06C1363.86 362.056 1365.75 364.351 1368.53 364.351ZM1368.53 362.542C1367.13 362.542 1366.16 361.111 1366.16 358.06C1366.16 354.982 1367.13 353.632 1368.53 353.632C1369.91 353.632 1370.91 354.982 1370.91 358.06C1370.91 361.111 1369.91 362.542 1368.53 362.542Z" fill="black"/>
<path d="M15.75 200.22V194.46H23.64V191.28H8.19V184.02H23.43V180.84H4.2V194.46H11.79V200.22H1.29V203.46H26.31V200.22H15.75ZM43.7077 186.09V189.3H48.0277V199.11H51.9877V178.95H48.0277V186.09H43.7077ZM45.5377 192.45C41.1877 190.98 39.2977 187.59 39.2977 184.32V183.96H44.6677V180.81H29.8177V183.96H35.2477V184.35C35.2477 187.83 33.2677 191.46 28.7377 192.93L30.7477 196.08C33.9577 195 36.1177 192.81 37.3477 190.08C38.5477 192.57 40.5877 194.55 43.6177 195.54L45.5377 192.45ZM37.7377 202.95V197.43H33.7777V206.1H52.6177V202.95H37.7377ZM78.2822 185.61V188.82H82.4222V195.39H86.3822V178.95H82.4222V185.61H78.2822ZM79.9322 191.55C75.7322 190.17 73.8122 186.93 73.6922 183.78H79.0622V180.6H64.2122V183.78H69.6422C69.5222 187.23 67.5122 190.74 63.1322 192.27L65.1422 195.39C68.3522 194.31 70.5422 192.06 71.7422 189.27C72.9422 191.7 75.0122 193.65 78.0122 194.64L79.9322 191.55ZM77.0522 203.61C73.4222 203.61 71.5322 202.86 71.5322 201.3C71.5322 199.74 73.4222 198.99 77.0522 198.99C80.6522 198.99 82.5422 199.74 82.5422 201.3C82.5422 202.86 80.6522 203.61 77.0522 203.61ZM77.0522 195.99C71.1722 195.99 67.5722 197.94 67.5722 201.3C67.5722 204.66 71.1722 206.61 77.0522 206.61C82.9022 206.61 86.5022 204.66 86.5022 201.3C86.5022 197.94 82.9022 195.99 77.0522 195.99ZM113.83 178.98H109.84V199.11H113.83V178.98ZM107.8 191.79C103.3 190.35 101.38 186.81 101.38 183.15V180.48H97.3598V183.15C97.3598 186.84 95.3798 190.71 90.7898 192.27L92.7998 195.42C96.0098 194.31 98.1698 192.06 99.4298 189.27C100.63 191.85 102.73 193.89 105.79 194.94L107.8 191.79ZM99.3998 202.95V197.19H95.4398V206.1H114.52V202.95H99.3998Z" fill="black"/>
<path d="M25.47 357.55C19.17 356.53 15.78 352.39 15.78 348.46V346.48H11.55V348.46C11.55 352.3 8.13 356.53 1.89 357.55L3.51 360.82C8.34 359.95 11.85 357.34 13.65 353.95C15.45 357.37 18.99 359.95 23.85 360.82L25.47 357.55ZM15.66 366.13V359.95H11.7V366.13H1.29V369.31H26.31V366.13H15.66ZM41.3077 369.7C37.4977 369.7 35.7277 369.19 35.7277 368.05C35.7277 366.91 37.4977 366.43 41.3077 366.43C45.1477 366.43 46.9177 366.91 46.9177 368.05C46.9177 369.19 45.1477 369.7 41.3077 369.7ZM41.3077 363.52C35.2477 363.52 31.7377 365.08 31.7377 368.05C31.7377 370.99 35.2477 372.58 41.3077 372.58C47.3977 372.58 50.9077 370.99 50.9077 368.05C50.9077 365.08 47.3977 363.52 41.3077 363.52ZM43.3177 359.2V357.49H51.2077V354.49H35.9077V352.99H50.3677V350.11H35.9077V348.67H50.9977V345.67H31.9777V357.49H39.3577V359.2H28.8577V362.29H53.8477V359.2H43.3177ZM85.5122 351.82H70.3922V345.43H66.4322V354.97H85.5122V351.82ZM75.7022 369.49C72.0122 369.49 70.1222 368.83 70.1222 367.39C70.1222 365.95 72.0122 365.29 75.7022 365.29C79.3922 365.29 81.2822 365.95 81.2822 367.39C81.2822 368.83 79.3922 369.49 75.7022 369.49ZM75.7022 362.26C69.7322 362.26 66.1322 364.15 66.1322 367.39C66.1322 370.63 69.7322 372.52 75.7022 372.52C81.6722 372.52 85.3022 370.63 85.3022 367.39C85.3022 364.15 81.6722 362.26 75.7022 362.26ZM63.3122 357.31V360.46H88.3022V357.31H63.3122ZM104.98 357.46C102.25 357.97 99.8198 358.09 95.8598 358.12V355.24H103.99V346.51H91.8998V349.69H100.09V352.3H91.9298V361.3H94.0598C99.3098 361.3 102.16 361.21 105.37 360.61L104.98 357.46ZM95.0798 366.37H110.02V372.61H113.98V363.22H95.0798V366.37ZM110.02 344.98V348.76H105.58V351.94H110.02V354.67H105.58V357.82H110.02V361.99H113.98V344.95L110.02 344.98ZM131.304 353.02C131.304 351.37 132.234 350.32 133.554 350.32C134.694 350.32 135.204 351.13 135.204 352.24C135.204 353.86 133.854 354.94 132.114 355.99C131.604 354.94 131.304 353.95 131.304 353.02ZM132.144 370.42C134.874 370.42 137.124 369.52 138.954 368.08C140.814 369.25 142.734 370.03 144.504 370.42L145.584 366.82C144.414 366.61 143.064 366.04 141.624 365.23C143.364 362.92 144.564 360.37 145.374 357.61H141.384C140.784 359.8 139.824 361.69 138.654 363.25C136.884 361.9 135.174 360.28 133.854 358.63C136.224 356.98 138.624 355.15 138.624 352.21C138.624 349.3 136.644 347.38 133.464 347.38C129.924 347.38 127.644 349.93 127.644 353.02C127.644 354.49 128.154 356.14 129.054 357.82C126.834 359.23 124.884 361.03 124.884 364.12C124.884 367.57 127.494 370.42 132.144 370.42ZM129.084 363.85C129.084 362.65 129.834 361.66 130.914 360.73C132.324 362.59 134.034 364.36 135.924 365.92C134.874 366.61 133.794 367.03 132.684 367.03C130.554 367.03 129.084 365.74 129.084 363.85ZM170.929 356.35C167.479 356.86 164.449 356.98 159.679 357.01V354.82H168.229V351.76H159.679V349.66H169.039V346.54H155.749V360.13H158.119C163.939 360.13 167.389 360.04 171.289 359.41L170.929 356.35ZM162.709 365.59H173.329V369.16H162.709V365.59ZM158.809 372.25H177.199V362.5H158.809V372.25ZM173.209 344.98V361.36H177.199V344.98H173.209ZM190.697 349.09C192.647 349.09 193.967 350.08 193.967 351.76C193.967 353.47 192.647 354.43 190.697 354.43C188.747 354.43 187.367 353.47 187.367 351.76C187.367 350.08 188.747 349.09 190.697 349.09ZM190.697 357.43C194.747 357.43 197.687 355.12 197.687 351.76C197.687 348.43 194.747 346.09 190.697 346.09C186.617 346.09 183.677 348.43 183.677 351.76C183.677 355.12 186.617 357.43 190.697 357.43ZM199.517 358.15C193.637 358.96 186.887 358.99 181.757 358.99L182.207 362.2C184.127 362.2 186.287 362.2 188.537 362.11V371.77H192.497V361.9C194.897 361.72 197.327 361.48 199.757 361.03L199.517 358.15ZM201.287 344.95V363.52H195.737V366.52H201.287V372.55H205.247V344.95H201.287ZM211.484 355.51L211.964 358.72L227.744 357.91C227.564 359.77 227.264 361.78 226.724 364.03L230.624 364.42C231.914 358.42 231.914 354.61 231.914 350.59V347.38H212.264V350.53H228.014V350.59C228.014 352 228.014 353.44 227.954 354.97L211.484 355.51ZM209.474 366.07V369.31H234.434V366.07H209.474Z" fill="black"/>
<rect x="299" y="8.9873" width="1000" height="22" fill="#F4F4F4"/>
<rect x="299" y="176" width="1000" height="22" fill="#F4F4F4"/>
<rect x="299" y="342" width="1000" height="22" fill="#F4F4F4"/>
</svg>
