<svg width="679" height="39" viewBox="0 0 679 39" fill="none" xmlns="http://www.w3.org/2000/svg">
<path d="M598.72 31.351C602.77 31.351 605.848 29.191 605.848 22.819V11.182H603.445V22.9C603.445 27.679 601.366 29.164 598.72 29.164C596.155 29.164 594.13 27.679 594.13 22.9V11.182H591.619V22.819C591.619 29.191 594.697 31.351 598.72 31.351ZM608.628 31H611.247L614.109 25.654C614.622 24.655 615.135 23.656 615.702 22.468H615.81C616.458 23.656 616.998 24.655 617.511 25.654L620.427 31H623.181L617.403 20.902L622.803 11.182H620.184L617.538 16.258C617.052 17.176 616.674 18.013 616.134 19.147H616.026C615.378 18.013 614.973 17.176 614.46 16.258L611.76 11.182H609.006L614.406 20.767L608.628 31ZM637.713 34.24V7.24H636.579V34.24H637.713ZM660.366 31.351C664.416 31.351 667.494 29.191 667.494 22.819V11.182H665.091V22.9C665.091 27.679 663.012 29.164 660.366 29.164C657.801 29.164 655.776 27.679 655.776 22.9V11.182H653.265V22.819C653.265 29.191 656.343 31.351 660.366 31.351ZM672.805 31H675.316V11.182H672.805V31Z" fill="black"/>
<path d="M7.884 25.573C5.535 25.573 3.888 23.035 3.888 19.093C3.888 15.178 5.535 12.64 7.884 12.64C10.206 12.64 11.853 15.178 11.853 19.093C11.853 23.035 10.206 25.573 7.884 25.573ZM7.884 10.642C4.32 10.642 1.782 13.936 1.782 19.093C1.782 24.25 4.32 27.544 7.884 27.544C11.448 27.544 13.959 24.25 13.959 19.093C13.959 13.936 11.448 10.642 7.884 10.642ZM24.057 18.445H20.061V8.806H17.847V32.998H20.061V20.308H24.057V18.445ZM43.3599 16.177H28.9959V23.71H46.0869V21.901H31.1829V17.959H45.5199V10.642H28.9419V12.424H43.3599V16.177ZM26.2419 28.111V29.947H48.2469V28.111H26.2419ZM61.1778 25.357H54.2658V18.985H61.1778V25.357ZM61.1778 17.23H54.2658V10.831H52.0788V27.166H63.3378V10.831H61.1778V17.23ZM73.7328 18.31H69.7368V8.806H67.5228V32.971H69.7368V20.173H73.7328V18.31ZM93.5487 8.779V33.052H95.7627V8.779H93.5487ZM82.9917 10.642C79.4007 10.642 76.8357 13.936 76.8357 19.093C76.8357 24.25 79.4007 27.544 82.9917 27.544C86.5827 27.544 89.1477 24.25 89.1477 19.093C89.1477 13.936 86.5827 10.642 82.9917 10.642ZM82.9917 12.64C85.3407 12.64 87.0147 15.178 87.0147 19.093C87.0147 23.035 85.3407 25.573 82.9917 25.573C80.6157 25.573 78.9417 23.035 78.9417 19.093C78.9417 15.178 80.6157 12.64 82.9917 12.64ZM120.223 21.847H105.832V18.013H119.44V16.258H105.832V12.667H119.98V10.885H103.591V23.629H120.223V21.847ZM100.756 28.057V29.866H122.734V28.057H100.756Z" fill="black"/>
</svg>
