<svg width="1920" height="1186" viewBox="0 0 1920 1186" fill="none" xmlns="http://www.w3.org/2000/svg">
<rect x="522" y="350" width="179" height="11" fill="white"/>
<rect x="592" y="302" width="109" height="11" fill="white"/>
<rect x="576" y="256" width="125" height="11" fill="white"/>
<rect x="925" y="202" width="87" height="11" fill="white"/>
<rect x="925" y="154" width="50" height="11" fill="white"/>
<rect x="924" y="111" width="88" height="11" fill="white"/>
<rect x="924" y="65" width="145" height="11" fill="white"/>
<rect x="1124" y="65" width="104" height="11" fill="white"/>
<rect x="1124" y="111" width="68" height="11" fill="white"/>
<rect x="1124" y="154" width="92" height="11" fill="white"/>
<rect x="1315" y="388" width="104" height="11" fill="white"/>
<rect x="1521" y="388" width="67" height="11" fill="white"/>
<rect x="1315" y="480" width="54" height="11" fill="white"/>
<rect x="1521" y="480" width="33" height="11" fill="white"/>
<rect x="1315" y="434" width="67" height="11" fill="white"/>
<rect x="1521" y="434" width="87" height="11" fill="white"/>
<rect x="1124" y="203" width="68" height="11" fill="white"/>
<rect x="897" y="958" width="251" height="26" fill="white"/>
<rect x="1202" y="958" width="238" height="26" fill="white"/>
<rect x="1413" y="643" width="50" height="11" fill="white"/>
<rect x="1413" y="689" width="33" height="11" fill="white"/>
<rect x="1413" y="735" width="33" height="11" fill="white"/>
<rect x="279" y="778" width="233" height="11" fill="white"/>
<rect x="340" y="732" width="172" height="11" fill="white"/>
<rect x="408" y="688" width="104" height="11" fill="white"/>
<rect x="452" y="642" width="60" height="11" fill="white"/>
<rect x="1202" y="1028" width="238" height="26" fill="white"/>
<rect x="897" y="1029" width="251" height="26" fill="white"/>
<rect x="897" y="1100" width="251" height="26" fill="white"/>
</svg>
