<svg width="1920" height="1186" viewBox="0 0 1920 1186" fill="none" xmlns="http://www.w3.org/2000/svg">
<ellipse cx="960" cy="752" rx="93" ry="52" fill="#7B9CE3"/>
<path d="M898.425 763H909.575V760.55H901.325V754.6H908.075V752.15H901.325V747.025H909.3V744.575H898.425V763ZM910.389 763H913.414L915.014 760.075C915.439 759.25 915.864 758.425 916.289 757.65H916.414C916.914 758.425 917.389 759.275 917.839 760.075L919.639 763H922.764L918.339 756.15L922.464 749.25H919.464L918.014 752C917.639 752.775 917.239 753.55 916.864 754.325H916.764C916.314 753.55 915.864 752.775 915.464 752L913.814 749.25H910.714L914.839 755.825L910.389 763ZM925.348 768.575H928.223V764.125L928.123 761.775C929.298 762.775 930.523 763.325 931.748 763.325C934.848 763.325 937.673 760.625 937.673 755.9C937.673 751.675 935.723 748.9 932.248 748.9C930.698 748.9 929.198 749.75 927.998 750.75H927.923L927.698 749.25H925.348V768.575ZM931.198 760.95C930.348 760.95 929.298 760.625 928.223 759.7V752.975C929.373 751.85 930.398 751.3 931.473 751.3C933.773 751.3 934.698 753.075 934.698 755.95C934.698 759.175 933.198 760.95 931.198 760.95ZM946.82 763.325C948.62 763.325 950.195 762.725 951.47 761.875L950.47 760.05C949.47 760.7 948.42 761.075 947.195 761.075C944.82 761.075 943.17 759.5 942.945 756.875H951.87C951.945 756.525 952.02 755.975 952.02 755.4C952.02 751.525 950.045 748.9 946.395 748.9C943.195 748.9 940.12 751.675 940.12 756.125C940.12 760.675 943.095 763.325 946.82 763.325ZM942.92 754.875C943.195 752.475 944.72 751.15 946.445 751.15C948.445 751.15 949.52 752.525 949.52 754.875H942.92ZM955.231 763H958.106V754.425C958.956 752.25 960.306 751.475 961.431 751.475C961.981 751.475 962.331 751.55 962.806 751.7L963.331 749.2C962.906 749 962.456 748.9 961.781 748.9C960.306 748.9 958.856 749.95 957.881 751.725H957.806L957.581 749.25H955.231V763ZM965.46 763H968.335V749.25H965.46V763ZM966.885 746.675C967.935 746.675 968.685 746 968.685 744.95C968.685 743.925 967.935 743.25 966.885 743.25C965.835 743.25 965.11 743.925 965.11 744.95C965.11 746 965.835 746.675 966.885 746.675ZM978.363 763.325C980.163 763.325 981.738 762.725 983.013 761.875L982.013 760.05C981.013 760.7 979.963 761.075 978.738 761.075C976.363 761.075 974.713 759.5 974.488 756.875H983.413C983.488 756.525 983.563 755.975 983.563 755.4C983.563 751.525 981.588 748.9 977.938 748.9C974.738 748.9 971.663 751.675 971.663 756.125C971.663 760.675 974.638 763.325 978.363 763.325ZM974.463 754.875C974.738 752.475 976.263 751.15 977.988 751.15C979.988 751.15 981.063 752.525 981.063 754.875H974.463ZM986.774 763H989.649V753.25C990.849 752.025 991.724 751.375 992.999 751.375C994.624 751.375 995.324 752.325 995.324 754.7V763H998.199V754.35C998.199 750.85 996.899 748.9 993.974 748.9C992.099 748.9 990.699 749.925 989.424 751.15H989.349L989.124 749.25H986.774V763ZM1007.97 763.325C1009.55 763.325 1011.17 762.75 1012.45 761.625L1011.25 759.725C1010.42 760.425 1009.4 760.975 1008.25 760.975C1005.97 760.975 1004.37 759.05 1004.37 756.125C1004.37 753.225 1006.02 751.275 1008.35 751.275C1009.27 751.275 1010.05 751.675 1010.8 752.35L1012.22 750.475C1011.22 749.6 1009.95 748.9 1008.2 748.9C1004.57 748.9 1001.4 751.55 1001.4 756.125C1001.4 760.7 1004.25 763.325 1007.97 763.325ZM1020.36 763.325C1022.16 763.325 1023.73 762.725 1025.01 761.875L1024.01 760.05C1023.01 760.7 1021.96 761.075 1020.73 761.075C1018.36 761.075 1016.71 759.5 1016.48 756.875H1025.41C1025.48 756.525 1025.56 755.975 1025.56 755.4C1025.56 751.525 1023.58 748.9 1019.93 748.9C1016.73 748.9 1013.66 751.675 1013.66 756.125C1013.66 760.675 1016.63 763.325 1020.36 763.325ZM1016.46 754.875C1016.73 752.475 1018.26 751.15 1019.98 751.15C1021.98 751.15 1023.06 752.525 1023.06 754.875H1016.46Z" fill="white"/>
<ellipse cx="674" cy="588" rx="93" ry="52" fill="#7B9CE3"/>
<path d="M619.425 599.325C624.15 599.325 627.45 595.65 627.45 589.725C627.45 583.8 624.15 580.25 619.425 580.25C614.7 580.25 611.425 583.8 611.425 589.725C611.425 595.65 614.7 599.325 619.425 599.325ZM619.425 596.8C616.375 596.8 614.4 594.025 614.4 589.725C614.4 585.4 616.375 582.775 619.425 582.775C622.475 582.775 624.475 585.4 624.475 589.725C624.475 594.025 622.475 596.8 619.425 596.8ZM635.648 599.325C636.648 599.325 637.573 599.075 638.348 598.825L637.823 596.7C637.423 596.875 636.823 597.025 636.348 597.025C634.923 597.025 634.348 596.175 634.348 594.525V587.55H637.923V585.25H634.348V581.45H631.948L631.623 585.25L629.473 585.4V587.55H631.473V594.5C631.473 597.4 632.548 599.325 635.648 599.325ZM640.935 599H643.81V589.25C645.01 588.025 645.885 587.375 647.16 587.375C648.785 587.375 649.485 588.325 649.485 590.7V599H652.36V590.35C652.36 586.85 651.06 584.9 648.135 584.9C646.26 584.9 644.885 585.925 643.685 587.075L643.81 584.35V579.075H640.935V599ZM662.187 599.325C663.987 599.325 665.562 598.725 666.837 597.875L665.837 596.05C664.837 596.7 663.787 597.075 662.562 597.075C660.187 597.075 658.537 595.5 658.312 592.875H667.237C667.312 592.525 667.387 591.975 667.387 591.4C667.387 587.525 665.412 584.9 661.762 584.9C658.562 584.9 655.487 587.675 655.487 592.125C655.487 596.675 658.462 599.325 662.187 599.325ZM658.287 590.875C658.562 588.475 660.087 587.15 661.812 587.15C663.812 587.15 664.887 588.525 664.887 590.875H658.287ZM670.598 599H673.473V590.425C674.323 588.25 675.673 587.475 676.798 587.475C677.348 587.475 677.698 587.55 678.173 587.7L678.698 585.2C678.273 585 677.823 584.9 677.148 584.9C675.673 584.9 674.223 585.95 673.248 587.725H673.173L672.948 585.25H670.598V599ZM694.193 599.325C696.718 599.325 698.793 598.4 700.018 597.175V589.2H693.743V591.575H697.393V595.9C696.743 596.475 695.618 596.8 694.493 596.8C690.693 596.8 688.668 594.125 688.668 589.75C688.668 585.425 690.943 582.775 694.368 582.775C696.143 582.775 697.268 583.5 698.193 584.425L699.743 582.575C698.618 581.4 696.868 580.25 694.268 580.25C689.393 580.25 685.693 583.85 685.693 589.85C685.693 595.875 689.293 599.325 694.193 599.325ZM709.472 599.325C712.872 599.325 715.947 596.7 715.947 592.125C715.947 587.55 712.872 584.9 709.472 584.9C706.072 584.9 702.997 587.55 702.997 592.125C702.997 596.7 706.072 599.325 709.472 599.325ZM709.472 596.975C707.322 596.975 705.972 595.05 705.972 592.125C705.972 589.225 707.322 587.275 709.472 587.275C711.647 587.275 712.997 589.225 712.997 592.125C712.997 595.05 711.647 596.975 709.472 596.975ZM722.212 599.325C723.862 599.325 725.337 598.5 726.587 597.425H726.687L726.912 599H729.262V590.725C729.262 587.075 727.687 584.9 724.262 584.9C722.062 584.9 720.137 585.8 718.712 586.7L719.787 588.65C720.962 587.9 722.312 587.25 723.762 587.25C725.787 587.25 726.362 588.65 726.387 590.25C720.662 590.875 718.162 592.4 718.162 595.35C718.162 597.775 719.837 599.325 722.212 599.325ZM723.087 597.05C721.862 597.05 720.937 596.5 720.937 595.15C720.937 593.6 722.312 592.55 726.387 592.075V595.45C725.262 596.475 724.287 597.05 723.087 597.05ZM736.192 599.325C736.917 599.325 737.392 599.225 737.742 599.1L737.367 596.925C737.117 596.975 737.017 596.975 736.892 596.975C736.542 596.975 736.217 596.7 736.217 595.925V579.075H733.342V595.775C733.342 598 734.117 599.325 736.192 599.325Z" fill="white"/>
<ellipse cx="1246" cy="588" rx="93" ry="52" fill="#7B9CE3"/>
<path d="M1230.03 599.325C1230.75 599.325 1231.23 599.225 1231.58 599.1L1231.2 596.925C1230.95 596.975 1230.85 596.975 1230.73 596.975C1230.38 596.975 1230.05 596.7 1230.05 595.925V579.075H1227.18V595.775C1227.18 598 1227.95 599.325 1230.03 599.325ZM1234.62 599H1237.5V585.25H1234.62V599ZM1236.05 582.675C1237.1 582.675 1237.85 582 1237.85 580.95C1237.85 579.925 1237.1 579.25 1236.05 579.25C1235 579.25 1234.27 579.925 1234.27 580.95C1234.27 582 1235 582.675 1236.05 582.675ZM1241.8 599H1244.62V595.425L1246.92 592.775L1250.65 599H1253.77L1248.6 590.85L1253.25 585.25H1250.05L1244.72 591.9H1244.62V579.075H1241.8V599ZM1261.29 599.325C1263.09 599.325 1264.67 598.725 1265.94 597.875L1264.94 596.05C1263.94 596.7 1262.89 597.075 1261.67 597.075C1259.29 597.075 1257.64 595.5 1257.42 592.875H1266.34C1266.42 592.525 1266.49 591.975 1266.49 591.4C1266.49 587.525 1264.52 584.9 1260.87 584.9C1257.67 584.9 1254.59 587.675 1254.59 592.125C1254.59 596.675 1257.57 599.325 1261.29 599.325ZM1257.39 590.875C1257.67 588.475 1259.19 587.15 1260.92 587.15C1262.92 587.15 1263.99 588.525 1263.99 590.875H1257.39Z" fill="white"/>
<ellipse cx="960" cy="410" rx="93" ry="52" fill="#7B9CE3"/>
<path d="M892.425 421H895.325V402.575H892.425V421ZM899.89 421H902.765V411.25C903.89 410 904.915 409.375 905.84 409.375C907.415 409.375 908.14 410.325 908.14 412.7V421H911.015V411.25C912.165 410 913.165 409.375 914.115 409.375C915.665 409.375 916.415 410.325 916.415 412.7V421H919.29V412.35C919.29 408.85 917.94 406.9 915.065 406.9C913.34 406.9 911.94 407.975 910.59 409.425C909.99 407.85 908.84 406.9 906.79 406.9C905.09 406.9 903.715 407.925 902.54 409.175H902.465L902.24 407.25H899.89V421ZM926.699 421.325C928.349 421.325 929.824 420.5 931.074 419.425H931.174L931.399 421H933.749V412.725C933.749 409.075 932.174 406.9 928.749 406.9C926.549 406.9 924.624 407.8 923.199 408.7L924.274 410.65C925.449 409.9 926.799 409.25 928.249 409.25C930.274 409.25 930.849 410.65 930.874 412.25C925.149 412.875 922.649 414.4 922.649 417.35C922.649 419.775 924.324 421.325 926.699 421.325ZM927.574 419.05C926.349 419.05 925.424 418.5 925.424 417.15C925.424 415.6 926.799 414.55 930.874 414.075V417.45C929.749 418.475 928.774 419.05 927.574 419.05ZM942.529 427.175C946.929 427.175 949.729 425.025 949.729 422.375C949.729 420.025 948.029 419.025 944.779 419.025H942.254C940.504 419.025 939.954 418.5 939.954 417.675C939.954 417 940.254 416.625 940.704 416.225C941.304 416.5 942.004 416.65 942.629 416.65C945.504 416.65 947.779 414.925 947.779 411.925C947.779 410.875 947.404 409.95 946.879 409.4H949.504V407.25H944.629C944.104 407.05 943.404 406.9 942.629 406.9C939.779 406.9 937.304 408.725 937.304 411.825C937.304 413.475 938.179 414.775 939.129 415.5V415.6C938.354 416.15 937.579 417.075 937.579 418.15C937.579 419.275 938.129 420 938.829 420.425V420.55C937.554 421.325 936.829 422.4 936.829 423.55C936.829 425.95 939.229 427.175 942.529 427.175ZM942.629 414.8C941.204 414.8 940.029 413.675 940.029 411.825C940.029 409.975 941.179 408.925 942.629 408.925C944.079 408.925 945.229 410 945.229 411.825C945.229 413.675 944.054 414.8 942.629 414.8ZM942.954 425.275C940.679 425.275 939.279 424.475 939.279 423.125C939.279 422.425 939.629 421.725 940.454 421.125C941.029 421.25 941.654 421.325 942.304 421.325H944.379C946.054 421.325 946.954 421.675 946.954 422.825C946.954 424.1 945.354 425.275 942.954 425.275ZM957.592 421.325C959.392 421.325 960.967 420.725 962.242 419.875L961.242 418.05C960.242 418.7 959.192 419.075 957.967 419.075C955.592 419.075 953.942 417.5 953.717 414.875H962.642C962.717 414.525 962.792 413.975 962.792 413.4C962.792 409.525 960.817 406.9 957.167 406.9C953.967 406.9 950.892 409.675 950.892 414.125C950.892 418.675 953.867 421.325 957.592 421.325ZM953.692 412.875C953.967 410.475 955.492 409.15 957.217 409.15C959.217 409.15 960.292 410.525 960.292 412.875H953.692ZM977.118 421.325C980.518 421.325 983.593 418.7 983.593 414.125C983.593 409.55 980.518 406.9 977.118 406.9C973.718 406.9 970.643 409.55 970.643 414.125C970.643 418.7 973.718 421.325 977.118 421.325ZM977.118 418.975C974.968 418.975 973.618 417.05 973.618 414.125C973.618 411.225 974.968 409.275 977.118 409.275C979.293 409.275 980.643 411.225 980.643 414.125C980.643 417.05 979.293 418.975 977.118 418.975ZM987.377 421H990.252V409.55H993.027V407.25H990.252V405.5C990.252 403.825 990.852 403.025 992.077 403.025C992.552 403.025 993.077 403.15 993.577 403.375L994.152 401.2C993.527 400.95 992.652 400.75 991.727 400.75C988.652 400.75 987.377 402.7 987.377 405.525V407.25L985.502 407.4V409.55H987.377V421ZM1001.38 421H1003.98V411.9C1003.98 410.25 1003.76 407.875 1003.63 406.2H1003.73L1005.18 410.45L1008.41 419.225H1010.21L1013.41 410.45L1014.88 406.2H1014.98C1014.83 407.875 1014.61 410.25 1014.61 411.9V421H1017.31V402.575H1013.96L1010.63 411.9C1010.21 413.125 1009.86 414.375 1009.43 415.6H1009.31C1008.88 414.375 1008.51 413.125 1008.08 411.9L1004.71 402.575H1001.38V421ZM1027.61 421.325C1029.41 421.325 1030.99 420.725 1032.26 419.875L1031.26 418.05C1030.26 418.7 1029.21 419.075 1027.99 419.075C1025.61 419.075 1023.96 417.5 1023.74 414.875H1032.66C1032.74 414.525 1032.81 413.975 1032.81 413.4C1032.81 409.525 1030.84 406.9 1027.19 406.9C1023.99 406.9 1020.91 409.675 1020.91 414.125C1020.91 418.675 1023.89 421.325 1027.61 421.325ZM1023.71 412.875C1023.99 410.475 1025.51 409.15 1027.24 409.15C1029.24 409.15 1030.31 410.525 1030.31 412.875H1023.71Z" fill="white"/>
</svg>
