<svg width="684" height="76" viewBox="0 0 684 76" fill="none" xmlns="http://www.w3.org/2000/svg">
<path d="M41.75 21.66C41.05 21.66 38.88 22.71 37.69 23.48C37.48 23.76 37.41 24.46 37.69 24.74C38.67 25.72 39.58 27.19 39.58 30.83C39.58 41.12 32.23 51.34 29.92 51.34C29.01 51.34 28.59 50.57 28.45 49.1C27.75 42.03 26.7 33.28 25.65 22.57C25.51 21.94 25.44 21.66 25.16 21.66C24.46 21.66 21.59 22.5 20.4 23.27C20.26 23.55 20.12 24.25 20.4 24.53C20.89 25.02 21.24 25.93 21.45 28.03L21.87 32.51C20.75 41.96 14.17 51.34 12.14 51.34C11.23 51.34 10.81 50.57 10.67 49.1C9.9 42.03 9.06 33.28 7.87 22.57C7.73 21.94 7.66 21.66 7.38 21.66C6.89 21.66 2.41 23.06 1.22 23.55C1.01 23.76 0.8 24.11 0.8 24.6C0.8 24.95 0.87 25.09 1.57 25.44C2.2 25.79 3.39 26.7 3.6 28.03C4.79 34.47 5.35 42.66 6.19 50.22C6.68 54.07 8.5 55.89 11.09 55.89C14.03 55.89 19.56 50.01 22.92 41.54L23.97 50.22C24.46 54.07 26.28 55.89 28.87 55.89C33.35 55.89 43.71 43.5 43.71 28.45C43.71 25.16 42.59 21.66 41.75 21.66ZM78.5902 51.2C78.3102 51.2 77.1202 51.62 76.0702 51.62C75.3702 51.62 75.0202 51.2 75.2302 49.45C75.6502 46.16 76.7702 40.56 78.1002 33.14C79.3602 25.93 76.4902 21.66 71.2402 21.66C66.6902 21.66 61.9302 25.65 58.1502 32.44C61.5802 12.56 63.6802 1.64 63.6802 0.729997C63.6802 0.379998 63.6102 0.24 63.3302 0.24C62.7702 0.24 57.8702 1.15 56.3302 1.57C56.1202 1.78 55.9102 2.13 55.9102 2.62C55.9102 3.18 57.2402 4.09 57.5202 4.86C58.0102 6.26 57.5902 9.41 54.5802 28.38C52.2702 43.01 50.2402 53.65 49.9602 54.91C49.8202 55.61 50.3102 55.82 51.0802 55.82C52.5502 55.82 54.3002 55.54 55.0702 55.05C54.8602 52.74 56.1202 45.46 56.9602 40.7C60.6002 32.16 65.6402 26.07 70.1902 26.07C73.2002 26.07 74.6002 28.59 73.4802 34.75C72.2202 41.75 70.2602 51.13 70.2602 52.39C70.2602 54.77 71.5902 55.68 73.3402 55.68C75.8602 55.68 78.3802 54.56 79.2902 53.72C79.3602 53.02 79.0102 51.2 78.5902 51.2ZM114.961 51.2C114.681 51.2 113.491 51.62 112.441 51.62C111.741 51.62 111.321 51.2 111.601 49.45L115.381 24.95C113.771 23.76 109.781 21.66 104.111 21.66C94.8707 21.66 86.4707 29.5 86.4707 42.87C86.4707 50.64 90.0407 55.96 95.0807 55.96C99.7707 55.96 104.321 51.83 107.541 46.02C106.911 49.73 106.701 51.48 106.701 52.39C106.701 54.77 107.961 55.68 109.711 55.68C112.231 55.68 114.681 54.56 115.661 53.72C115.661 53.02 115.381 51.2 114.961 51.2ZM109.011 36.43C105.791 44.97 100.821 51.69 96.3407 51.69C93.4707 51.69 91.1607 49.1 91.1607 42.24C91.1607 32.23 96.6907 25.44 103.621 25.44C106.071 25.44 108.731 25.93 110.551 26.98L109.011 36.43ZM134.181 22.36C134.671 19.63 135.161 16.83 135.441 14.17C135.511 13.54 135.511 13.26 135.231 13.26C134.671 13.26 132.011 13.96 130.471 14.52C130.261 14.73 130.051 14.94 130.051 15.43C130.051 15.99 130.401 16.76 130.121 18.58C129.981 19.42 129.771 20.75 129.561 22.36H124.171C123.541 22.36 122.631 23.76 122.631 25.16C122.631 25.65 122.841 25.93 123.261 25.93H129.001L128.091 31.74L125.571 46.58C124.311 53.93 127.671 56.31 132.011 56.31C135.511 56.31 138.591 54.56 140.411 52.81C140.761 52.46 140.971 52.25 140.971 51.9C140.971 51.34 140.061 49.59 139.711 49.59C139.501 49.59 139.431 49.66 139.081 49.94C137.121 51.62 134.881 52.25 133.131 52.25C130.891 52.25 129.561 51.13 130.401 45.53L132.571 31.53C132.851 29.71 133.201 27.82 133.551 25.93H141.811C142.581 25.93 143.421 24.46 143.421 22.92C143.421 22.5 143.351 22.36 142.791 22.36H134.181ZM178.41 22.36C178.9 19.63 179.39 16.83 179.67 14.17C179.74 13.54 179.74 13.26 179.46 13.26C178.9 13.26 176.24 13.96 174.7 14.52C174.49 14.73 174.28 14.94 174.28 15.43C174.28 15.99 174.63 16.76 174.35 18.58C174.21 19.42 174 20.75 173.79 22.36H168.4C167.77 22.36 166.86 23.76 166.86 25.16C166.86 25.65 167.07 25.93 167.49 25.93H173.23L172.32 31.74L169.8 46.58C168.54 53.93 171.9 56.31 176.24 56.31C179.74 56.31 182.82 54.56 184.64 52.81C184.99 52.46 185.2 52.25 185.2 51.9C185.2 51.34 184.29 49.59 183.94 49.59C183.73 49.59 183.66 49.66 183.31 49.94C181.35 51.62 179.11 52.25 177.36 52.25C175.12 52.25 173.79 51.13 174.63 45.53L176.8 31.53C177.08 29.71 177.43 27.82 177.78 25.93H186.04C186.81 25.93 187.65 24.46 187.65 22.92C187.65 22.5 187.58 22.36 187.02 22.36H178.41ZM220.641 51.2C220.361 51.2 219.171 51.62 218.121 51.62C217.421 51.62 217.071 51.2 217.281 49.45C217.701 46.16 218.821 40.56 220.151 33.14C221.411 25.93 218.541 21.66 213.291 21.66C208.741 21.66 203.981 25.65 200.201 32.44C203.631 12.56 205.731 1.64 205.731 0.729997C205.731 0.379998 205.661 0.24 205.381 0.24C204.821 0.24 199.921 1.15 198.381 1.57C198.171 1.78 197.961 2.13 197.961 2.62C197.961 3.18 199.291 4.09 199.571 4.86C200.061 6.26 199.641 9.41 196.631 28.38C194.321 43.01 192.291 53.65 192.011 54.91C191.871 55.61 192.361 55.82 193.131 55.82C194.601 55.82 196.351 55.54 197.121 55.05C196.911 52.74 198.171 45.46 199.011 40.7C202.651 32.16 207.691 26.07 212.241 26.07C215.251 26.07 216.651 28.59 215.531 34.75C214.271 41.75 212.311 51.13 212.311 52.39C212.311 54.77 213.641 55.68 215.391 55.68C217.911 55.68 220.431 54.56 221.341 53.72C221.411 53.02 221.061 51.2 220.641 51.2ZM237.201 13.19C235.241 13.19 234.121 12.07 234.121 9.83C234.121 7.73 235.731 5.28 238.181 5.28C240.141 5.28 241.261 6.4 241.261 8.64C241.261 10.74 239.651 13.19 237.201 13.19ZM229.151 52.46C229.151 54.84 230.411 55.68 232.161 55.68C234.751 55.68 237.271 54.56 238.181 53.72C238.251 53.02 237.971 51.2 237.551 51.2C237.271 51.2 236.081 51.62 235.031 51.62C234.331 51.62 233.981 51.2 234.191 49.45C234.611 46.16 235.241 41.47 236.501 34.05C237.831 26.35 238.461 23.76 238.461 22.43C238.461 21.8 238.391 21.66 238.111 21.66C237.551 21.66 233.141 22.64 231.601 23.2C231.391 23.41 231.181 23.62 231.181 24.11C231.181 24.67 232.161 25.02 232.441 25.79C232.861 26.91 232.861 29.43 232.021 34.68C229.711 49.31 229.151 51.2 229.151 52.46ZM274.723 51.2C274.443 51.2 273.253 51.62 272.203 51.62C271.503 51.62 271.153 51.2 271.363 49.45C271.713 46.16 272.973 40.56 274.233 33.14C275.423 25.93 272.623 21.66 267.303 21.66C262.753 21.66 257.923 25.58 254.143 32.3C254.983 27.4 255.753 23.41 255.753 22.43C255.753 21.8 255.753 21.66 255.473 21.66C254.913 21.66 250.433 22.64 248.893 23.2C248.683 23.41 248.473 23.62 248.473 24.11C248.473 24.67 249.453 25.02 249.733 25.79C250.223 26.84 250.293 29.43 249.453 34.68C247.213 49.31 246.163 53.65 245.883 54.91C245.743 55.61 246.233 55.82 247.003 55.82C248.473 55.82 250.293 55.54 250.993 55.05C250.783 52.74 252.113 45.46 252.883 40.7C256.523 32.16 261.563 26.07 266.183 26.07C269.263 26.07 270.663 28.59 269.543 34.75C268.283 41.75 266.463 51.13 266.463 52.39C266.463 54.77 267.723 55.68 269.473 55.68C271.993 55.68 274.443 54.56 275.423 53.72C275.423 53.02 275.143 51.2 274.723 51.2ZM310.942 51.2C310.662 51.2 309.472 51.62 308.422 51.62C307.722 51.62 306.882 51.48 306.182 50.57C303.942 47.77 301.142 43.85 298.412 39.79C305.132 38.32 310.942 34.82 310.942 28.8C310.942 24.81 308.352 21.66 303.382 21.66C298.972 21.66 294.282 24.74 291.202 29.15L291.412 27.75C294.702 8.36 296.172 1.78 296.172 0.729997C296.172 0.379998 296.032 0.24 295.752 0.24C295.192 0.24 290.362 1.15 288.822 1.57C288.612 1.78 288.332 2.13 288.332 2.62C288.332 3.18 289.662 4.09 289.942 4.86C290.432 6.26 290.152 9.41 287.002 28.38C284.552 43.01 282.662 53.65 282.382 54.91C282.242 55.61 282.732 55.82 283.502 55.82C284.972 55.82 286.792 55.54 287.492 55.05C287.212 53.37 288.682 43.92 290.152 35.17C293.232 29.57 298.412 25.44 302.402 25.44C305.272 25.44 306.462 26.84 306.462 29.5C306.462 33.98 301.562 36.36 294.002 37.83C293.442 38.04 293.022 39.44 293.442 40.42C296.732 45.04 300.302 50.08 302.682 53.58C303.592 54.91 304.292 55.68 305.832 55.68C308.352 55.68 310.732 54.56 311.642 53.72C311.712 53.02 311.362 51.2 310.942 51.2ZM348.488 22.36C348.978 19.63 349.468 16.83 349.748 14.17C349.818 13.54 349.818 13.26 349.538 13.26C348.978 13.26 346.318 13.96 344.778 14.52C344.568 14.73 344.358 14.94 344.358 15.43C344.358 15.99 344.708 16.76 344.428 18.58C344.288 19.42 344.078 20.75 343.868 22.36H338.478C337.848 22.36 336.938 23.76 336.938 25.16C336.938 25.65 337.148 25.93 337.568 25.93H343.308L342.398 31.74L339.878 46.58C338.618 53.93 341.978 56.31 346.318 56.31C349.818 56.31 352.898 54.56 354.718 52.81C355.068 52.46 355.278 52.25 355.278 51.9C355.278 51.34 354.368 49.59 354.018 49.59C353.808 49.59 353.738 49.66 353.388 49.94C351.428 51.62 349.188 52.25 347.438 52.25C345.198 52.25 343.868 51.13 344.708 45.53L346.878 31.53C347.158 29.71 347.508 27.82 347.858 25.93H356.118C356.888 25.93 357.728 24.46 357.728 22.92C357.728 22.5 357.658 22.36 357.098 22.36H348.488ZM390.719 51.2C390.439 51.2 389.249 51.62 388.199 51.62C387.499 51.62 387.149 51.2 387.359 49.45C387.779 46.16 388.899 40.56 390.229 33.14C391.489 25.93 388.619 21.66 383.369 21.66C378.819 21.66 374.059 25.65 370.279 32.44C373.709 12.56 375.809 1.64 375.809 0.729997C375.809 0.379998 375.739 0.24 375.459 0.24C374.899 0.24 369.999 1.15 368.459 1.57C368.249 1.78 368.039 2.13 368.039 2.62C368.039 3.18 369.369 4.09 369.649 4.86C370.139 6.26 369.719 9.41 366.709 28.38C364.399 43.01 362.369 53.65 362.089 54.91C361.949 55.61 362.439 55.82 363.209 55.82C364.679 55.82 366.429 55.54 367.199 55.05C366.989 52.74 368.249 45.46 369.089 40.7C372.729 32.16 377.769 26.07 382.319 26.07C385.329 26.07 386.729 28.59 385.609 34.75C384.349 41.75 382.389 51.13 382.389 52.39C382.389 54.77 383.719 55.68 385.469 55.68C387.989 55.68 390.509 54.56 391.419 53.72C391.489 53.02 391.139 51.2 390.719 51.2ZM407.28 13.19C405.32 13.19 404.2 12.07 404.2 9.83C404.2 7.73 405.81 5.28 408.26 5.28C410.22 5.28 411.34 6.4 411.34 8.64C411.34 10.74 409.73 13.19 407.28 13.19ZM399.23 52.46C399.23 54.84 400.49 55.68 402.24 55.68C404.83 55.68 407.35 54.56 408.26 53.72C408.33 53.02 408.05 51.2 407.63 51.2C407.35 51.2 406.16 51.62 405.11 51.62C404.41 51.62 404.06 51.2 404.27 49.45C404.69 46.16 405.32 41.47 406.58 34.05C407.91 26.35 408.54 23.76 408.54 22.43C408.54 21.8 408.47 21.66 408.19 21.66C407.63 21.66 403.22 22.64 401.68 23.2C401.47 23.41 401.26 23.62 401.26 24.11C401.26 24.67 402.24 25.02 402.52 25.79C402.94 26.91 402.94 29.43 402.1 34.68C399.79 49.31 399.23 51.2 399.23 52.46ZM444.801 51.2C444.521 51.2 443.331 51.62 442.281 51.62C441.581 51.62 441.231 51.2 441.441 49.45C441.791 46.16 443.051 40.56 444.311 33.14C445.501 25.93 442.701 21.66 437.381 21.66C432.831 21.66 428.001 25.58 424.221 32.3C425.061 27.4 425.831 23.41 425.831 22.43C425.831 21.8 425.831 21.66 425.551 21.66C424.991 21.66 420.511 22.64 418.971 23.2C418.761 23.41 418.551 23.62 418.551 24.11C418.551 24.67 419.531 25.02 419.811 25.79C420.301 26.84 420.371 29.43 419.531 34.68C417.291 49.31 416.241 53.65 415.961 54.91C415.821 55.61 416.311 55.82 417.081 55.82C418.551 55.82 420.371 55.54 421.071 55.05C420.861 52.74 422.191 45.46 422.961 40.7C426.601 32.16 431.641 26.07 436.261 26.07C439.341 26.07 440.741 28.59 439.621 34.75C438.361 41.75 436.541 51.13 436.541 52.39C436.541 54.77 437.801 55.68 439.551 55.68C442.071 55.68 444.521 54.56 445.501 53.72C445.501 53.02 445.221 51.2 444.801 51.2ZM470.52 21.66C461.28 21.66 452.88 29.36 452.88 42.73C452.88 50.5 456.52 55.96 461.56 55.96C466.25 55.96 470.8 51.76 474.02 45.95L471.99 58.13C470.52 67.02 467.51 71.78 461.56 71.78C455.47 71.78 453.02 67.02 452.53 67.02C452.25 67.02 451.83 67.09 451.69 67.23C450.99 67.93 449.59 70.73 449.59 71.36C449.59 71.64 449.52 71.85 450.08 72.2C451.2 72.9 456.03 75.77 460.79 75.77C470.73 75.77 475.14 68.42 476.75 57.85L481.79 24.95C480.11 23.76 476.19 21.66 470.52 21.66ZM475.49 36.43C472.27 44.97 467.23 51.69 462.75 51.69C459.88 51.69 457.57 49.1 457.57 42.24C457.57 32.23 463.17 25.44 470.1 25.44C472.55 25.44 475.21 25.93 477.03 26.98L475.49 36.43ZM496.349 52.04C491.029 52.04 488.929 48.4 488.649 48.33C488.439 48.26 487.529 48.33 487.249 48.54C486.689 49.45 485.569 51.76 485.569 52.39C485.569 52.95 485.779 53.09 486.339 53.44C487.109 53.93 491.099 55.96 495.719 55.96C502.789 55.96 507.689 52.18 507.619 45.74C507.549 41.33 505.099 39.93 499.919 36.78C496.349 34.61 494.319 33.7 494.319 30.62C494.319 27.33 496.699 25.44 500.549 25.44C505.239 25.44 506.359 28.52 506.639 28.59C506.849 28.66 507.689 28.66 507.969 28.45C508.599 27.54 509.649 25.3 509.649 24.67C509.649 24.11 509.509 23.97 508.949 23.62C508.109 23.13 505.309 21.66 501.179 21.66C494.249 21.66 489.839 25.37 489.839 31.18C489.839 35.8 493.479 38.18 497.539 40.49C501.739 42.87 503.069 43.78 503.069 46.51C503.069 49.87 500.829 52.04 496.349 52.04ZM545.088 55.96C537.038 55.96 533.398 49.59 533.398 41.89C533.398 30.69 539.978 21.66 550.198 21.66C558.248 21.66 561.888 27.96 561.888 35.66C561.888 46.86 555.308 55.96 545.088 55.96ZM545.998 51.97C552.438 51.97 557.198 45.67 557.198 35.87C557.198 29.08 554.118 25.65 549.288 25.65C542.848 25.65 538.088 31.88 538.088 41.68C538.088 48.47 541.168 51.97 545.998 51.97ZM577.177 55.89C581.797 55.89 594.047 43.5 594.047 28.45C594.047 25.16 592.787 21.66 591.947 21.66C591.247 21.66 589.147 22.71 587.957 23.48C587.747 23.76 587.677 24.46 587.957 24.74C588.937 25.72 589.847 27.19 589.847 30.83C589.847 41.05 580.677 51.27 578.297 51.27C577.387 51.27 576.967 50.57 576.827 49.1C576.057 42.03 574.937 33.28 573.747 22.57C573.607 21.94 573.537 21.66 573.257 21.66C572.767 21.66 568.217 23.06 567.027 23.55C566.817 23.76 566.607 24.18 566.607 24.67C566.607 24.95 566.677 25.09 567.377 25.44C568.007 25.79 569.197 26.7 569.407 28.03C570.597 34.47 571.297 42.66 572.277 50.22C572.837 54.07 574.587 55.89 577.177 55.89ZM621.349 47.77C621.139 47.77 620.999 47.91 620.649 48.19C618.059 50.22 615.469 51.9 611.969 51.9C607.209 51.9 604.199 48.26 603.919 42.8C616.309 41.82 624.429 36.64 624.359 29.85C624.289 24.39 620.509 21.66 615.609 21.66C606.649 21.66 599.229 30.48 599.229 42.1C599.229 49.24 602.799 55.96 610.919 55.96C615.259 55.96 619.459 53.93 622.189 51.2C622.609 50.78 622.749 50.57 622.749 50.22C622.749 49.66 621.699 47.77 621.349 47.77ZM615.329 25.58C617.919 25.58 619.809 26.98 619.809 30.13C619.809 35.52 613.649 38.32 604.059 39.3C604.829 31.25 609.169 25.58 615.329 25.58ZM654.836 22.29C653.996 21.87 652.946 21.66 651.406 21.66C646.996 21.66 642.376 25.65 638.526 32.44C639.436 27.54 640.206 23.55 640.206 22.57C640.206 21.94 640.206 21.66 639.926 21.66C639.366 21.66 634.886 22.64 633.346 23.2C633.136 23.41 632.926 23.62 632.926 24.11C632.926 24.67 633.906 25.02 634.186 25.79C634.676 26.84 634.746 29.43 633.906 34.68C631.596 49.31 630.616 53.65 630.336 54.91C630.196 55.61 630.686 55.82 631.456 55.82C632.926 55.82 634.746 55.54 635.446 55.05C635.236 52.74 636.566 45.46 637.336 40.7C641.186 32.16 645.946 26.42 649.866 26.42C652.106 26.42 652.526 28.24 652.806 28.31C653.016 28.38 653.926 28.31 654.206 28.1C654.836 27.19 655.606 23.69 655.606 23.2C655.606 22.64 655.396 22.57 654.836 22.29ZM664.05 38.88C663.98 39.51 664.12 39.72 664.61 39.79C665.24 39.86 666.43 39.79 667.06 39.65C667.62 39.51 667.69 39.3 667.76 38.88C668.04 37.41 668.25 35.03 668.74 33.42C669.23 31.74 671.54 30.34 675.6 27.26C680.71 23.34 683.72 19.42 683.72 12.7C683.72 6.68 679.24 2.76 672.59 2.76C667.55 2.76 663.56 5.14 661.74 6.68C661.32 7.03 661.04 7.31 661.04 7.66C661.04 9.13 662.3 11.02 663.14 11.02C664.26 11.02 666.99 7.03 672.1 7.03C676.3 7.03 678.61 9.48 678.61 13.05C678.61 18.16 676.51 21.31 672.45 24.53C666.15 29.5 665.17 29.85 664.68 32.93C664.4 34.68 664.12 38.04 664.05 38.88ZM664.05 55.96C661.95 55.96 660.76 54.7 660.76 52.25C660.76 49.94 662.51 47.28 665.1 47.28C667.2 47.28 668.39 48.54 668.39 50.99C668.39 53.3 666.64 55.96 664.05 55.96Z" fill="black"/>
</svg>
