<svg xmlns="http://www.w3.org/2000/svg" viewBox="0 0 110.63 110.64"><defs><style>.cls-1{fill:#fff;}.cls-2{fill:#231f20;}.cls-3{fill:none;}</style></defs><g id="Layer_2" data-name="Layer 2"><g id="Layer_1-2" data-name="Layer 1"><polyline class="cls-1" points="0.26 44.39 55.19 0.77 110.13 44.39"/><polygon class="cls-2" points="55.19 0 54.93 0.2 0 43.83 0.52 44.96 55.19 1.55 109.87 44.96 110.38 43.83 55.19 0"/><rect class="cls-1" x="0.5" y="44.41" width="109.63" height="65.73"/><path class="cls-2" d="M110.63,110.64H0V43.91H110.63ZM1,109.64H109.63V44.91H1Z"/><polyline class="cls-3" points="0.5 45.5 55.31 89.13 110.13 45.5"/><polygon class="cls-2" points="110.38 46.08 86.47 65.1 55.31 89.9 55.05 89.7 19.87 61.7 0.24 46.08 0.75 44.94 20.13 60.36 55.31 88.35 86.83 63.27 109.87 44.94 110.38 46.08"/><rect x="-6.28" y="91.56" width="49.71" height="1" transform="translate(-59.66 40.1) rotate(-45)"/><rect x="91.48" y="67.05" width="1" height="49.9" transform="translate(-38.11 91.99) rotate(-45)"/><polygon class="cls-1" points="90.79 42.79 86.83 63.27 86.47 65.1 55.31 89.9 55.05 89.7 19.87 61.7 20.13 60.36 25.96 30.25 90.79 42.79"/><path d="M55.32,90.53l-.57-.44L19.32,61.9l6.25-32.24L91.38,42.39l-4.45,23-.14.12Zm-34.9-29L55.31,89.26,86,64.82l.32-1.65,3.87-20L26.36,30.83Z"/><path d="M36.94,41.91a11.85,11.85,0,0,1,2,.23A3.35,3.35,0,0,1,41,43.23,2.18,2.18,0,0,1,41.4,45a2.35,2.35,0,0,1-.94,1.57,3.35,3.35,0,0,1-2.6.4,4.1,4.1,0,0,1-.81-.23L36.43,50l-1-.2Zm.27,4a3.38,3.38,0,0,0,.84.25c1.23.24,2.1-.21,2.32-1.3s-.44-1.7-1.57-1.93a5,5,0,0,0-1-.1Z"/><path d="M47.06,49a2.83,2.83,0,0,1-3.43,2.47A2.75,2.75,0,0,1,41.48,48a2.83,2.83,0,0,1,3.41-2.47A2.75,2.75,0,0,1,47.06,49Zm-4.53-.83a2,2,0,0,0,1.3,2.53c1,.2,1.92-.59,2.17-1.87.19-1-.06-2.29-1.28-2.53S42.74,47.11,42.53,48.19Z"/><path d="M48.57,48.25c.13-.67.23-1.25.3-1.78l.91.17-.18,1.13h0a1.73,1.73,0,0,1,1.82-.94,1.1,1.1,0,0,1,.29.09l-.19,1a1.31,1.31,0,0,0-.35-.11,1.48,1.48,0,0,0-1.64,1.06,3.92,3.92,0,0,0-.15.48l-.59,3-1-.2Z"/><path d="M54.62,45.89l-.32,1.64,1.48.29-.15.79-1.48-.29-.6,3.07c-.14.7,0,1.14.56,1.26a2.37,2.37,0,0,0,.61,0l-.1.79a2.65,2.65,0,0,1-.95,0,1.44,1.44,0,0,1-1-.65,2.13,2.13,0,0,1-.11-1.56l.6-3.11L52.25,48l.16-.79.88.17L53.56,46Z"/><path d="M55.94,53.76l1-4.9-.8-.16.16-.79.8.16,0-.27a2.75,2.75,0,0,1,1-1.86,2,2,0,0,1,1.49-.26,2.38,2.38,0,0,1,.85.33l-.3.78a1.57,1.57,0,0,0-.63-.26c-.88-.17-1.26.56-1.43,1.43l-.06.31,1.38.27-.16.79-1.37-.27L57,54Z"/><path d="M64.85,52.5A2.84,2.84,0,0,1,61.42,55a2.76,2.76,0,0,1-2.16-3.47A2.84,2.84,0,0,1,62.68,49,2.76,2.76,0,0,1,64.85,52.5Zm-4.53-.83a2,2,0,0,0,1.3,2.53c1,.19,1.91-.59,2.16-1.87.19-1-.05-2.29-1.28-2.53S60.53,50.59,60.32,51.67Z"/><path d="M67.22,47.29l1,.21-1.64,8.35-1-.2Z"/><path d="M68.37,56.19l1.11-5.69,1,.2L69.4,56.4ZM71,49.12a.65.65,0,0,1-1.28-.25.64.64,0,0,1,.77-.52A.63.63,0,0,1,71,49.12Z"/><path d="M76.85,54.85a2.85,2.85,0,0,1-3.43,2.47,2.77,2.77,0,0,1-2.16-3.47,2.84,2.84,0,0,1,3.42-2.47A2.75,2.75,0,0,1,76.85,54.85ZM72.32,54a2,2,0,0,0,1.3,2.53c1,.19,1.91-.59,2.16-1.88.19-1,0-2.28-1.28-2.52S72.53,52.94,72.32,54Z"/></g></g></svg>