<svg width="111" height="67" viewBox="0 0 111 67" fill="none" xmlns="http://www.w3.org/2000/svg">
<path d="M1 1H109.63V65.73H1V1Z" fill="white" stroke="black"/>
<path d="M110.63 66.73H0V0H110.63V66.73ZM1 65.73H109.63V1H1V65.73Z" fill="#231F20"/>
<path d="M0.5 1.45996L55.31 34.32L110.13 1.45996" fill="white"/>
<mask id="path-4-inside-1" fill="white">
<path d="M55.3102 34.9098L55.0602 34.7498L0.240234 1.88979L0.760234 1.02979L55.3102 33.7398L109.87 1.02979L110.38 1.88979L55.3102 34.9098Z"/>
</mask>
<path d="M55.3102 34.9098L55.0602 34.7498L0.240234 1.88979L0.760234 1.02979L55.3102 33.7398L109.87 1.02979L110.38 1.88979L55.3102 34.9098Z" fill="#231F20"/>
<path d="M55.3102 34.9098L52.615 39.1211L55.2244 40.7912L57.8815 39.198L55.3102 34.9098ZM55.0602 34.7498L57.7555 30.5384L57.6938 30.4989L57.6309 30.4612L55.0602 34.7498ZM0.240234 1.88979L-4.03843 -0.697311L-6.63548 3.59782L-2.3304 6.17835L0.240234 1.88979ZM0.760234 1.02979L3.33156 -3.25837L-0.940839 -5.82024L-3.51843 -1.55731L0.760234 1.02979ZM55.3102 33.7398L52.7389 38.0279L55.31 39.5697L57.8812 38.0282L55.3102 33.7398ZM109.87 1.02979L114.171 -1.52058L111.608 -5.84193L107.299 -3.25858L109.87 1.02979ZM110.38 1.88979L112.951 6.17801L117.219 3.61924L114.681 -0.660577L110.38 1.88979ZM58.0055 30.6984L57.7555 30.5384L52.365 38.9611L52.615 39.1211L58.0055 30.6984ZM57.6309 30.4612L2.81087 -2.39878L-2.3304 6.17835L52.4896 39.0384L57.6309 30.4612ZM4.51889 4.47688L5.03889 3.61688L-3.51843 -1.55731L-4.03843 -0.697311L4.51889 4.47688ZM-1.81109 5.31794L52.7389 38.0279L57.8816 29.4516L3.33156 -3.25837L-1.81109 5.31794ZM57.8812 38.0282L112.441 5.31815L107.299 -3.25858L52.7393 29.4514L57.8812 38.0282ZM105.57 3.58015L106.08 4.44015L114.681 -0.660577L114.171 -1.52058L105.57 3.58015ZM107.809 -2.39844L52.739 30.6216L57.8815 39.198L112.951 6.17801L107.809 -2.39844Z" fill="black" mask="url(#path-4-inside-1)"/>
<path d="M55.3102 34.9098L52.615 39.1211L55.2244 40.7912L57.8815 39.198L55.3102 34.9098ZM55.0602 34.7498L57.7555 30.5384L57.6938 30.4989L57.6309 30.4612L55.0602 34.7498ZM0.240234 1.88979L-4.03843 -0.697311L-6.63548 3.59782L-2.3304 6.17835L0.240234 1.88979ZM0.760234 1.02979L3.33156 -3.25837L-0.940839 -5.82024L-3.51843 -1.55731L0.760234 1.02979ZM55.3102 33.7398L52.7389 38.0279L55.31 39.5697L57.8812 38.0282L55.3102 33.7398ZM109.87 1.02979L114.171 -1.52058L111.608 -5.84193L107.299 -3.25858L109.87 1.02979ZM110.38 1.88979L112.951 6.17801L117.219 3.61924L114.681 -0.660577L110.38 1.88979ZM58.0055 30.6984L57.7555 30.5384L52.365 38.9611L52.615 39.1211L58.0055 30.6984ZM57.6309 30.4612L2.81087 -2.39878L-2.3304 6.17835L52.4896 39.0384L57.6309 30.4612ZM4.51889 4.47688L5.03889 3.61688L-3.51843 -1.55731L-4.03843 -0.697311L4.51889 4.47688ZM-1.81109 5.31794L52.7389 38.0279L57.8816 29.4516L3.33156 -3.25837L-1.81109 5.31794ZM57.8812 38.0282L112.441 5.31815L107.299 -3.25858L52.7393 29.4514L57.8812 38.0282ZM105.57 3.58015L106.08 4.44015L114.681 -0.660577L114.171 -1.52058L105.57 3.58015ZM107.809 -2.39844L52.739 30.6216L57.8815 39.198L112.951 6.17801L107.809 -2.39844Z" fill="black" fill-opacity="0.2" mask="url(#path-4-inside-1)"/>
<mask id="path-6-inside-2" fill="white">
<path d="M55.3102 33.88L55.0602 33.72L0.240234 0.86L0.760234 0L55.3102 32.71L109.87 0L110.38 0.86L55.3102 33.88Z"/>
</mask>
<path d="M55.3102 33.88L55.0602 33.72L0.240234 0.86L0.760234 0L55.3102 32.71L109.87 0L110.38 0.86L55.3102 33.88Z" fill="#231F20"/>
<path d="M55.3102 33.88L52.615 38.0914L55.2244 39.7614L57.8815 38.1682L55.3102 33.88ZM55.0602 33.72L57.7555 29.5086L57.6938 29.4691L57.6309 29.4314L55.0602 33.72ZM0.240234 0.86L-4.03843 -1.7271L-6.63548 2.56803L-2.3304 5.14857L0.240234 0.86ZM0.760234 0L3.33156 -4.28816L-0.940839 -6.85003L-3.51843 -2.5871L0.760234 0ZM55.3102 32.71L52.7389 36.9982L55.31 38.5399L57.8812 36.9984L55.3102 32.71ZM109.87 0L114.171 -2.55036L111.608 -6.87171L107.299 -4.28837L109.87 0ZM110.38 0.86L112.951 5.14822L117.219 2.58946L114.681 -1.69036L110.38 0.86ZM58.0055 29.6686L57.7555 29.5086L52.365 37.9314L52.615 38.0914L58.0055 29.6686ZM57.6309 29.4314L2.81087 -3.42857L-2.3304 5.14857L52.4896 38.0086L57.6309 29.4314ZM4.51889 3.4471L5.03889 2.5871L-3.51843 -2.5871L-4.03843 -1.7271L4.51889 3.4471ZM-1.81109 4.28816L52.7389 36.9982L57.8816 28.4218L3.33156 -4.28816L-1.81109 4.28816ZM57.8812 36.9984L112.441 4.28837L107.299 -4.28837L52.7393 28.4216L57.8812 36.9984ZM105.57 2.55036L106.08 3.41036L114.681 -1.69036L114.171 -2.55036L105.57 2.55036ZM107.809 -3.42822L52.739 29.5918L57.8815 38.1682L112.951 5.14822L107.809 -3.42822Z" fill="black" mask="url(#path-6-inside-2)"/>
<path d="M55.3102 33.88L52.615 38.0914L55.2244 39.7614L57.8815 38.1682L55.3102 33.88ZM55.0602 33.72L57.7555 29.5086L57.6938 29.4691L57.6309 29.4314L55.0602 33.72ZM0.240234 0.86L-4.03843 -1.7271L-6.63548 2.56803L-2.3304 5.14857L0.240234 0.86ZM0.760234 0L3.33156 -4.28816L-0.940839 -6.85003L-3.51843 -2.5871L0.760234 0ZM55.3102 32.71L52.7389 36.9982L55.31 38.5399L57.8812 36.9984L55.3102 32.71ZM109.87 0L114.171 -2.55036L111.608 -6.87171L107.299 -4.28837L109.87 0ZM110.38 0.86L112.951 5.14822L117.219 2.58946L114.681 -1.69036L110.38 0.86ZM58.0055 29.6686L57.7555 29.5086L52.365 37.9314L52.615 38.0914L58.0055 29.6686ZM57.6309 29.4314L2.81087 -3.42857L-2.3304 5.14857L52.4896 38.0086L57.6309 29.4314ZM4.51889 3.4471L5.03889 2.5871L-3.51843 -2.5871L-4.03843 -1.7271L4.51889 3.4471ZM-1.81109 4.28816L52.7389 36.9982L57.8816 28.4218L3.33156 -4.28816L-1.81109 4.28816ZM57.8812 36.9984L112.441 4.28837L107.299 -4.28837L52.7393 28.4216L57.8812 36.9984ZM105.57 2.55036L106.08 3.41036L114.681 -1.69036L114.171 -2.55036L105.57 2.55036ZM107.809 -3.42822L52.739 29.5918L57.8815 38.1682L112.951 5.14822L107.809 -3.42822Z" fill="black" fill-opacity="0.2" mask="url(#path-6-inside-2)"/>
</svg>
