<svg width="111" height="67" viewBox="0 0 111 67" fill="none" xmlns="http://www.w3.org/2000/svg">
<path d="M1 1H109.63V65.73H1V1Z" fill="white" stroke="black"/>
<path d="M110.63 66.73H0V0H110.63V66.73ZM1 65.73H109.63V1H1V65.73Z" fill="#231F20"/>
<path d="M0.5 1.45996L55.31 34.32L110.13 1.45996" fill="white"/>
<path d="M107.681 2.92505L55.3187 34.3217L55.3173 34.3209L55.3153 34.3197L55.5673 34.1686L107.681 2.92505ZM27.2484 17.496L0.927806 1.71898L0.930342 1.71479L27.2484 17.496Z" fill="#231F20"/>
<path d="M107.681 2.92505L55.3187 34.3217L55.3173 34.3209L55.3153 34.3197L55.5673 34.1686L107.681 2.92505ZM27.2484 17.496L0.927806 1.71898L0.930342 1.71479L27.2484 17.496Z" stroke="black"/>
<path d="M107.681 2.92505L55.3187 34.3217L55.3173 34.3209L55.3153 34.3197L55.5673 34.1686L107.681 2.92505ZM27.2484 17.496L0.927806 1.71898L0.930342 1.71479L27.2484 17.496Z" stroke="black" stroke-opacity="0.2"/>
</svg>
