<svg xmlns="http://www.w3.org/2000/svg" viewBox="0 0 110.63 110.64"><defs><style>.cls-1{fill:#fff;}.cls-2{fill:#231f20;}.cls-3{fill:none;}</style></defs><g id="Layer_2" data-name="Layer 2"><g id="Layer_1-2" data-name="Layer 1"><polyline class="cls-1" points="0.26 44.39 55.19 0.77 110.13 44.39"/><polygon class="cls-2" points="55.19 0 54.93 0.2 0 43.83 0.52 44.96 55.19 1.55 109.87 44.96 110.38 43.83 55.19 0"/><rect class="cls-1" x="0.5" y="44.41" width="109.63" height="65.73"/><path class="cls-2" d="M110.63,110.64H0V43.91H110.63ZM1,109.64H109.63V44.91H1Z"/><polyline class="cls-3" points="0.5 45.5 55.31 89.13 110.13 45.5"/><polygon class="cls-2" points="110.38 46.08 86.47 65.1 55.31 89.9 55.05 89.7 19.87 61.7 0.24 46.08 0.75 44.94 20.13 60.36 55.31 88.35 86.83 63.27 109.87 44.94 110.38 46.08"/><rect x="-6.28" y="91.56" width="49.71" height="1" transform="translate(-59.66 40.1) rotate(-45)"/><rect x="91.48" y="67.05" width="1" height="49.9" transform="translate(-38.11 91.99) rotate(-45)"/><polygon class="cls-1" points="90.79 42.79 86.83 63.27 86.47 65.1 55.31 89.9 55.05 89.7 19.87 61.7 20.13 60.36 25.96 30.25 90.79 42.79"/><path d="M55.32,90.53l-.57-.44L19.32,61.9l6.25-32.24L91.38,42.39l-4.45,23-.14.12Zm-34.9-29L55.31,89.26,86,64.82l.32-1.65,3.87-20L26.36,30.83Z"/><path d="M33.62,47.5l-1.31,2.34-1.06-.21,4.25-7.41,1.23.24,1.16,8.47-1.1-.22-.36-2.66Zm2.76-.29-.33-2.44c-.08-.55-.1-1-.13-1.52h0c-.21.45-.44.91-.68,1.36L34,46.74Z"/><path d="M38.94,51.13c.1-.38.24-1,.34-1.46l1.34-6.88,1,.2L41,46.56h0a2.15,2.15,0,0,1,2.15-.67c1.41.28,2.18,1.65,1.83,3.38-.4,2-1.88,2.79-3.15,2.55a2.08,2.08,0,0,1-1.7-1.45h0l-.23.93Zm1.52-2.07a1.67,1.67,0,0,0,0,.38A1.63,1.63,0,0,0,41.75,51c1.08.21,1.9-.54,2.16-1.85.22-1.14-.18-2.23-1.28-2.45a1.69,1.69,0,0,0-1.83,1,1.88,1.88,0,0,0-.14.42Z"/><path d="M51.41,50.57A2.84,2.84,0,0,1,48,53a2.77,2.77,0,0,1-2.16-3.47,2.83,2.83,0,0,1,3.42-2.47A2.75,2.75,0,0,1,51.41,50.57Zm-4.53-.83a2,2,0,0,0,1.3,2.53c1,.19,1.91-.59,2.16-1.88.19-1-.05-2.28-1.27-2.52S47.09,48.66,46.88,49.74Z"/><path d="M57.22,53.1c-.11.59-.2,1.1-.25,1.56l-.92-.18.12-.94h0a2.2,2.2,0,0,1-2.09.7c-.9-.18-1.87-.88-1.48-2.88L53.23,48l1,.21-.62,3.15c-.21,1.08,0,1.88.92,2.06a1.53,1.53,0,0,0,1.55-.67,1.55,1.55,0,0,0,.2-.51l.68-3.5,1,.2Z"/><path d="M61.32,47.9,61,49.53l1.49.29-.16.79-1.48-.29-.6,3.08c-.14.7,0,1.14.56,1.25a2.08,2.08,0,0,0,.61.05l-.1.79a2.65,2.65,0,0,1-1,0,1.48,1.48,0,0,1-1-.66,2.17,2.17,0,0,1-.11-1.56l.61-3.1L59,50l.16-.79.88.18L60.26,48Z"/><path d="M65.85,52.08a15.42,15.42,0,0,0,.25-1.55l.91.18-.13.93h0a2,2,0,0,1,2-.69A1.72,1.72,0,0,1,70.3,52.4h0a2.32,2.32,0,0,1,.78-.62,2,2,0,0,1,1.34-.15c.75.14,1.77.86,1.39,2.84l-.66,3.35-1-.2.63-3.22c.21-1.1-.06-1.84-.89-2a1.37,1.37,0,0,0-1.41.7,1.74,1.74,0,0,0-.19.5l-.68,3.52-1-.19.67-3.42c.18-.9-.09-1.64-.88-1.8a1.46,1.46,0,0,0-1.49.79,1.51,1.51,0,0,0-.18.49l-.67,3.44-1-.2Z"/><path d="M76,55.61A1.85,1.85,0,0,0,77.52,58a3.92,3.92,0,0,0,1.64,0l0,.77a4.58,4.58,0,0,1-2,0A2.69,2.69,0,0,1,75,55.32c.33-1.71,1.61-2.87,3.27-2.54a2.46,2.46,0,0,1,1.83,3.14,4.89,4.89,0,0,1-.13.48Zm3.18-.14a1.51,1.51,0,0,0-1.11-2,1.76,1.76,0,0,0-1.92,1.37Z"/></g></g></svg>