<svg width="105" height="25" viewBox="0 0 105 25" fill="none" xmlns="http://www.w3.org/2000/svg">
<path d="M5.16 16.11C11.01 16.23 15.09 14.37 15.09 9.51C15.09 6.3 13.8 4.41 8.91 4.41C7.65 4.41 4.8 4.5 3.66 4.59C3.45 4.86 3.24 5.19 3.24 5.52C3.24 5.79 3.42 5.79 3.9 5.91C4.41 6.03 4.65 6.51 4.47 7.68L2.88 18.15C2.64 19.74 2.46 20.79 2.34 21.36C2.16 22.2 1.92 22.77 1.59 22.92C0.99 23.22 0.39 23.37 0.39 23.67C0.39 23.97 0.48 24.36 0.69 24.54C2.01 24.45 4.38 24.45 5.49 24.48C5.7 24.24 5.91 23.85 5.91 23.52C5.91 23.28 5.58 23.31 4.98 23.13C4.47 22.98 4.26 22.59 4.38 21.45C4.47 20.64 4.59 19.71 4.86 18.09L5.16 16.11ZM8.64 5.94C11.97 5.88 13.02 6.78 13.02 9.72C13.02 12.96 10.5 14.55 5.43 14.46L6.78 6.03C7.41 5.97 8.01 5.94 8.64 5.94ZM21.0384 24.84C17.5884 24.84 16.0284 22.11 16.0284 18.81C16.0284 14.01 18.8484 10.14 23.2284 10.14C26.6784 10.14 28.2384 12.84 28.2384 16.14C28.2384 20.94 25.4184 24.84 21.0384 24.84ZM21.4284 23.13C24.1884 23.13 26.2284 20.43 26.2284 16.23C26.2284 13.32 24.9084 11.85 22.8384 11.85C20.0784 11.85 18.0384 14.52 18.0384 18.72C18.0384 21.63 19.3584 23.13 21.4284 23.13ZM41.5305 10.41C41.1705 10.23 40.7205 10.14 40.0605 10.14C38.1705 10.14 36.1905 11.85 34.5405 14.76C34.9305 12.66 35.2605 10.95 35.2605 10.53C35.2605 10.26 35.2605 10.14 35.1405 10.14C34.9005 10.14 32.9805 10.56 32.3205 10.8C32.2305 10.89 32.1405 10.98 32.1405 11.19C32.1405 11.43 32.5605 11.58 32.6805 11.91C32.8905 12.36 32.9205 13.47 32.5605 15.72C31.5705 21.99 31.1505 23.85 31.0305 24.39C30.9705 24.69 31.1805 24.78 31.5105 24.78C32.1405 24.78 32.9205 24.66 33.2205 24.45C33.1305 23.46 33.7005 20.34 34.0305 18.3C35.6805 14.64 37.7205 12.18 39.4005 12.18C40.3605 12.18 40.5405 12.96 40.6605 12.99C40.7505 13.02 41.1405 12.99 41.2605 12.9C41.5305 12.51 41.8605 11.01 41.8605 10.8C41.8605 10.56 41.7705 10.53 41.5305 10.41ZM47.6993 10.44C47.9093 9.27 48.1193 8.07 48.2393 6.93C48.2693 6.66 48.2693 6.54 48.1493 6.54C47.9093 6.54 46.7693 6.84 46.1093 7.08C46.0193 7.17 45.9293 7.26 45.9293 7.47C45.9293 7.71 46.0793 8.04 45.9593 8.82C45.8993 9.18 45.8093 9.75 45.7193 10.44H43.4093C43.1393 10.44 42.7493 11.04 42.7493 11.64C42.7493 11.85 42.8393 11.97 43.0193 11.97H45.4793L45.0893 14.46L44.0093 20.82C43.4693 23.97 44.9093 24.99 46.7693 24.99C48.2693 24.99 49.5893 24.24 50.3693 23.49C50.5193 23.34 50.6093 23.25 50.6093 23.1C50.6093 22.86 50.2193 22.11 50.0693 22.11C49.9793 22.11 49.9493 22.14 49.7993 22.26C48.9593 22.98 47.9993 23.25 47.2493 23.25C46.2893 23.25 45.7193 22.77 46.0793 20.37L47.0093 14.37C47.1293 13.59 47.2793 12.78 47.4293 11.97H50.9693C51.2993 11.97 51.6593 11.34 51.6593 10.68C51.6593 10.5 51.6293 10.44 51.3893 10.44H47.6993ZM65.3184 1.41C64.7184 1.14 63.8484 0.96 62.8584 0.96C59.8584 0.96 57.4884 2.94 56.7384 8.01L56.3784 10.44H54.0384C53.7684 10.44 53.3784 11.04 53.3784 11.64C53.3784 11.85 53.4684 11.97 53.6484 11.97H56.1384L56.0184 12.72C54.6984 21.39 54.0684 23.85 53.9784 24.39C53.9484 24.69 54.1584 24.78 54.4884 24.78C55.1184 24.78 56.0184 24.66 56.3184 24.45C56.3484 23.46 56.5284 21.21 57.9684 12.45L58.0584 11.97H61.8384C62.1684 11.97 62.5284 11.34 62.5284 10.68C62.5284 10.5 62.4984 10.44 62.2584 10.44H58.2984L58.7184 7.83C59.4084 3.54 60.9084 2.73 62.4384 2.73C62.9784 2.73 63.3684 2.91 63.6084 3.12C64.0284 3.45 64.1184 3.9 64.1784 3.93C64.2684 3.96 64.6584 3.93 64.8384 3.84C65.1384 3.42 65.5884 2.01 65.5884 1.77C65.5884 1.56 65.5284 1.5 65.3184 1.41ZM67.5619 24.84C64.1119 24.84 62.5519 22.11 62.5519 18.81C62.5519 14.01 65.3719 10.14 69.7519 10.14C73.2019 10.14 74.7619 12.84 74.7619 16.14C74.7619 20.94 71.9419 24.84 67.5619 24.84ZM67.9519 23.13C70.7119 23.13 72.7519 20.43 72.7519 16.23C72.7519 13.32 71.4319 11.85 69.3619 11.85C66.6019 11.85 64.5619 14.52 64.5619 18.72C64.5619 21.63 65.8819 23.13 67.9519 23.13ZM80.314 22.98C80.014 22.98 79.864 22.8 79.954 22.05C80.134 20.64 80.884 15.93 81.394 12.75C82.714 4.47 83.344 1.62 83.344 1.17C83.344 1.02 83.314 0.96 83.194 0.96C82.954 0.96 80.854 1.35 80.194 1.53C80.104 1.62 80.014 1.77 80.014 1.98C80.014 2.22 80.584 2.61 80.704 2.94C80.884 3.54 80.734 4.89 79.444 13.02C78.424 19.29 77.794 22.77 77.794 23.31C77.794 24.33 78.364 24.72 79.114 24.72C80.224 24.72 81.304 24.24 81.694 23.88C81.694 23.58 81.574 22.8 81.394 22.8C81.274 22.8 80.764 22.98 80.314 22.98ZM88.8919 6.51C88.0519 6.51 87.5719 6.03 87.5719 5.07C87.5719 4.17 88.2619 3.12 89.3119 3.12C90.1519 3.12 90.6319 3.6 90.6319 4.56C90.6319 5.46 89.9419 6.51 88.8919 6.51ZM85.4419 23.34C85.4419 24.36 85.9819 24.72 86.7319 24.72C87.8419 24.72 88.9219 24.24 89.3119 23.88C89.3419 23.58 89.2219 22.8 89.0419 22.8C88.9219 22.8 88.4119 22.98 87.9619 22.98C87.6619 22.98 87.5119 22.8 87.6019 22.05C87.7819 20.64 88.0519 18.63 88.5919 15.45C89.1619 12.15 89.4319 11.04 89.4319 10.47C89.4319 10.2 89.4019 10.14 89.2819 10.14C89.0419 10.14 87.1519 10.56 86.4919 10.8C86.4019 10.89 86.3119 10.98 86.3119 11.19C86.3119 11.43 86.7319 11.58 86.8519 11.91C87.0319 12.39 87.0319 13.47 86.6719 15.72C85.6819 21.99 85.4419 22.8 85.4419 23.34ZM97.5326 24.84C94.0826 24.84 92.5226 22.11 92.5226 18.81C92.5226 14.01 95.3426 10.14 99.7226 10.14C103.173 10.14 104.733 12.84 104.733 16.14C104.733 20.94 101.913 24.84 97.5326 24.84ZM97.9226 23.13C100.683 23.13 102.723 20.43 102.723 16.23C102.723 13.32 101.403 11.85 99.3326 11.85C96.5726 11.85 94.5326 14.52 94.5326 18.72C94.5326 21.63 95.8526 23.13 97.9226 23.13Z" fill="black"/>
</svg>
