<svg width="120" height="25" viewBox="0 0 120 25" fill="none" xmlns="http://www.w3.org/2000/svg">
<path d="M18.1 23.13C17.59 22.95 17.56 22.41 17.32 21.54C16.3 17.43 14.8 9.21 14.05 4.71C14.02 4.29 13.78 3.99 13.39 3.99C12.46 3.99 11.74 4.29 11.38 5.01C9.67 8.49 4.48 18 2.71 21.18C2.26 22.02 1.84 22.74 1.51 22.92C0.97 23.22 0.46 23.34 0.4 23.67C0.34 24.06 0.46 24.54 0.67 24.54C1.99 24.45 4.24 24.45 5.35 24.48C5.56 24.21 5.77 23.85 5.8 23.52C5.83 23.28 5.68 23.28 5.17 23.13C4.66 22.98 4.06 22.8 4.45 21.84C4.87 21.03 5.68 19.47 6.67 17.61C8.65 17.58 12.31 17.58 14.41 17.61C14.65 19.02 14.89 20.37 15.04 21.51C15.16 22.35 15.01 22.74 14.68 22.92C14.14 23.22 13.51 23.34 13.45 23.67C13.39 24.06 13.51 24.54 13.72 24.54C15.04 24.45 17.17 24.45 18.28 24.48C18.49 24.21 18.7 23.85 18.73 23.52C18.76 23.28 18.55 23.28 18.1 23.13ZM7.57 15.87C9.25 12.66 11.17 9 12.4 6.75C12.79 9.15 13.48 12.6 14.08 15.87C12.37 15.93 9.19 15.93 7.57 15.87ZM30.1244 10.14C28.2344 10.14 26.4044 11.52 25.1444 13.71C26.3444 6.48 27.2744 1.59 27.2744 1.17C27.2744 1.02 27.2444 0.96 27.1244 0.96C26.8844 0.96 24.7844 1.35 24.1244 1.53C24.0344 1.62 23.9444 1.77 23.9444 1.98C23.9444 2.22 24.5144 2.61 24.6344 2.94C24.8444 3.54 24.6644 4.89 23.3744 13.02C22.3844 19.29 21.8144 22.8 21.5744 23.34C22.3844 23.85 24.2144 24.84 26.7944 24.84C31.1744 24.84 34.1144 21.12 34.1144 15.33C34.1144 12.06 32.3444 10.14 30.1244 10.14ZM26.9144 23.25C25.8644 23.25 24.5744 23.01 23.8244 22.5L24.4544 18.3C25.5044 14.61 27.6944 12.03 29.6444 12.03C30.9644 12.03 32.1044 12.9 32.1044 15.81C32.1044 20.16 30.1544 23.25 26.9144 23.25ZM41.9603 24.84C38.5103 24.84 36.9503 22.11 36.9503 18.81C36.9503 14.01 39.7703 10.14 44.1503 10.14C47.6003 10.14 49.1603 12.84 49.1603 16.14C49.1603 20.94 46.3403 24.84 41.9603 24.84ZM42.3503 23.13C45.1103 23.13 47.1503 20.43 47.1503 16.23C47.1503 13.32 45.8303 11.85 43.7603 11.85C41.0003 11.85 38.9603 14.52 38.9603 18.72C38.9603 21.63 40.2803 23.13 42.3503 23.13ZM63.7724 22.8C63.6524 22.8 63.1424 22.98 62.6924 22.98C62.3924 22.98 62.2724 22.8 62.3324 22.05C62.4224 20.76 64.2524 11.13 64.2524 10.47C64.2524 10.23 64.2524 10.14 64.1324 10.14C63.8924 10.14 62.7824 10.38 62.1224 10.62C62.0324 10.71 61.9424 10.8 61.9424 11.01C61.9424 11.25 62.0624 11.55 62.0624 11.97C62.0624 12.63 61.8224 14.37 61.4024 16.62C59.9024 20.28 57.8024 22.89 56.1224 22.89C54.7124 22.89 54.1424 21.81 54.5324 19.17C55.0124 15.87 55.9424 11.07 55.9424 10.47C55.9424 10.2 55.9424 10.14 55.8224 10.14C55.5824 10.14 53.6624 10.56 53.0024 10.8C52.9124 10.89 52.8224 10.98 52.8224 11.19C52.8224 11.43 53.2424 11.58 53.3624 11.91C53.5424 12.39 53.6024 13.47 53.2424 15.72L52.5524 19.86C52.0424 22.95 53.2124 24.78 55.6424 24.78C57.3224 24.78 59.2124 23.19 60.7124 20.49C60.4424 21.93 60.2324 22.98 60.2324 23.31C60.2324 24.33 60.7724 24.72 61.5224 24.72C62.6024 24.72 63.6524 24.24 64.0724 23.88C64.0724 23.58 63.9524 22.8 63.7724 22.8ZM71.9903 10.44C72.2003 9.27 72.4103 8.07 72.5303 6.93C72.5603 6.66 72.5603 6.54 72.4403 6.54C72.2003 6.54 71.0603 6.84 70.4003 7.08C70.3103 7.17 70.2203 7.26 70.2203 7.47C70.2203 7.71 70.3703 8.04 70.2503 8.82C70.1903 9.18 70.1003 9.75 70.0103 10.44H67.7003C67.4303 10.44 67.0403 11.04 67.0403 11.64C67.0403 11.85 67.1303 11.97 67.3103 11.97H69.7703L69.3803 14.46L68.3003 20.82C67.7603 23.97 69.2003 24.99 71.0603 24.99C72.5603 24.99 73.8803 24.24 74.6603 23.49C74.8103 23.34 74.9003 23.25 74.9003 23.1C74.9003 22.86 74.5103 22.11 74.3603 22.11C74.2703 22.11 74.2403 22.14 74.0903 22.26C73.2503 22.98 72.2903 23.25 71.5403 23.25C70.5803 23.25 70.0103 22.77 70.3703 20.37L71.3003 14.37C71.4203 13.59 71.5703 12.78 71.7203 11.97H75.2603C75.5903 11.97 75.9503 11.34 75.9503 10.68C75.9503 10.5 75.9203 10.44 75.6803 10.44H71.9903ZM105.495 22.8C105.375 22.8 104.865 22.98 104.415 22.98C104.115 22.98 103.965 22.8 104.055 22.05C104.235 20.64 104.775 18.24 105.315 15.06C105.825 11.97 104.955 10.14 102.675 10.14C100.815 10.14 99.0454 11.67 97.5454 14.28C97.7854 11.67 96.8854 10.14 94.8154 10.14C92.8654 10.14 91.0354 11.79 89.5054 14.58C89.8954 12.54 90.1954 10.86 90.1954 10.47C90.1954 10.2 90.1954 10.14 90.0754 10.14C89.8354 10.14 87.9454 10.56 87.2854 10.8C87.1954 10.89 87.1054 10.98 87.1054 11.19C87.1054 11.43 87.5254 11.58 87.6454 11.91C87.8554 12.36 87.8854 13.47 87.5254 15.72C86.5654 21.99 86.1154 23.85 85.9954 24.39C85.9054 24.69 86.1454 24.78 86.4754 24.78C87.1054 24.78 87.8554 24.66 88.1554 24.45C88.0654 23.46 88.6354 20.34 88.9654 18.3C90.5254 14.64 92.3554 12.03 94.3354 12.03C95.6554 12.03 95.9554 13.11 95.4754 15.75C94.9354 18.75 94.1554 22.77 94.1554 23.31C94.1554 24.33 94.7254 24.72 95.3854 24.72C96.4654 24.72 97.5154 24.24 97.9354 23.88C97.9354 23.58 97.8154 22.8 97.6354 22.8C97.5154 22.8 97.0054 22.98 96.5554 22.98C96.2554 22.98 96.1054 22.8 96.1954 22.05C96.2854 21.15 96.5554 19.83 96.8854 18.15C98.4454 14.58 100.245 12.03 102.195 12.03C103.515 12.03 103.815 13.11 103.335 15.75C102.795 18.75 102.015 22.77 102.015 23.31C102.015 24.33 102.585 24.72 103.245 24.72C104.325 24.72 105.375 24.24 105.795 23.88C105.795 23.58 105.675 22.8 105.495 22.8ZM118.267 21.33C118.177 21.33 118.117 21.39 117.967 21.51C116.857 22.38 115.747 23.1 114.247 23.1C112.207 23.1 110.917 21.54 110.797 19.2C116.107 18.78 119.587 16.56 119.557 13.65C119.527 11.31 117.907 10.14 115.807 10.14C111.967 10.14 108.787 13.92 108.787 18.9C108.787 21.96 110.317 24.84 113.797 24.84C115.657 24.84 117.457 23.97 118.627 22.8C118.807 22.62 118.867 22.53 118.867 22.38C118.867 22.14 118.417 21.33 118.267 21.33ZM115.687 11.82C116.797 11.82 117.607 12.42 117.607 13.77C117.607 16.08 114.967 17.28 110.857 17.7C111.187 14.25 113.047 11.82 115.687 11.82Z" fill="black"/>
</svg>
