<svg width="42" height="19" viewBox="0 0 42 19" fill="none" xmlns="http://www.w3.org/2000/svg">
<path d="M9.89 15.33C9.8 15.33 9.74 15.39 9.59 15.51C8.48 16.38 7.37 17.1 5.87 17.1C3.83 17.1 2.54 15.54 2.42 13.2C7.73 12.78 11.21 10.56 11.18 7.65C11.15 5.31 9.53 4.14 7.43 4.14C3.59 4.14 0.41 7.92 0.41 12.9C0.41 15.96 1.94 18.84 5.42 18.84C7.28 18.84 9.08 17.97 10.25 16.8C10.43 16.62 10.49 16.53 10.49 16.38C10.49 16.14 10.04 15.33 9.89 15.33ZM7.31 5.82C8.42 5.82 9.23 6.42 9.23 7.77C9.23 10.08 6.59 11.28 2.48 11.7C2.81 8.25 4.67 5.82 7.31 5.82ZM18.6915 4.44C18.9015 3.27 19.1115 2.07 19.2315 0.93C19.2615 0.66 19.2615 0.539999 19.1415 0.539999C18.9015 0.539999 17.7615 0.839999 17.1015 1.08C17.0115 1.17 16.9215 1.26 16.9215 1.47C16.9215 1.71 17.0715 2.04 16.9515 2.82C16.8915 3.18 16.8015 3.75 16.7115 4.44H14.4015C14.1315 4.44 13.7415 5.04 13.7415 5.64C13.7415 5.85 13.8315 5.97 14.0115 5.97H16.4715L16.0815 8.46L15.0015 14.82C14.4615 17.97 15.9015 18.99 17.7615 18.99C19.2615 18.99 20.5815 18.24 21.3615 17.49C21.5115 17.34 21.6015 17.25 21.6015 17.1C21.6015 16.86 21.2115 16.11 21.0615 16.11C20.9715 16.11 20.9415 16.14 20.7915 16.26C19.9515 16.98 18.9915 17.25 18.2415 17.25C17.2815 17.25 16.7115 16.77 17.0715 14.37L18.0015 8.37C18.1215 7.59 18.2715 6.78 18.4215 5.97H21.9615C22.2915 5.97 22.6515 5.34 22.6515 4.68C22.6515 4.5 22.6215 4.44 22.3815 4.44H18.6915ZM31.6306 5.85C33.7606 5.85 34.1806 7.32 34.3006 7.35C34.3906 7.38 34.7806 7.35 34.9006 7.26C35.1406 6.87 35.6506 5.76 35.6506 5.49C35.6506 5.25 35.5606 5.19 35.3506 5.04C34.9906 4.83 33.7306 4.14 31.9306 4.14C27.5506 4.14 24.5506 7.92 24.5506 12.93C24.5506 15.99 26.0806 18.84 29.6206 18.84C31.4806 18.84 33.2806 17.94 34.4506 16.8C34.6306 16.62 34.6906 16.53 34.6906 16.38C34.6906 16.14 34.2406 15.33 34.0906 15.33C34.0006 15.33 33.9406 15.39 33.7906 15.51C32.6806 16.38 31.5106 17.07 30.0106 17.07C27.8806 17.07 26.5906 15.33 26.5906 12.81C26.5906 8.85 28.3906 5.85 31.6306 5.85ZM39.177 18.84C38.247 18.84 37.707 18.27 37.707 17.19C37.707 16.17 38.487 15 39.627 15C40.557 15 41.097 15.57 41.097 16.65C41.097 17.67 40.317 18.84 39.177 18.84Z" fill="black"/>
</svg>
