<svg width="91" height="21" viewBox="0 0 91 21" fill="none" xmlns="http://www.w3.org/2000/svg">
<path d="M5.16 12.11C11.01 12.23 15.09 10.37 15.09 5.51C15.09 2.3 13.8 0.409998 8.91 0.409998C7.65 0.409998 4.8 0.499999 3.66 0.59C3.45 0.86 3.24 1.19 3.24 1.52C3.24 1.79 3.42 1.79 3.9 1.91C4.41 2.03 4.65 2.51 4.47 3.68L2.88 14.15C2.64 15.74 2.46 16.79 2.34 17.36C2.16 18.2 1.92 18.77 1.59 18.92C0.99 19.22 0.39 19.37 0.39 19.67C0.39 19.97 0.48 20.36 0.69 20.54C2.01 20.45 4.38 20.45 5.49 20.48C5.7 20.24 5.91 19.85 5.91 19.52C5.91 19.28 5.58 19.31 4.98 19.13C4.47 18.98 4.26 18.59 4.38 17.45C4.47 16.64 4.59 15.71 4.86 14.09L5.16 12.11ZM8.64 1.94C11.97 1.88 13.02 2.78 13.02 5.72C13.02 8.96 10.5 10.55 5.43 10.46L6.78 2.03C7.41 1.97 8.01 1.94 8.64 1.94ZM27.6438 6.41C27.2838 6.23 26.8338 6.14 26.1738 6.14C24.2838 6.14 22.3038 7.85 20.6538 10.76C21.0438 8.66 21.3738 6.95 21.3738 6.53C21.3738 6.26 21.3738 6.14 21.2538 6.14C21.0138 6.14 19.0938 6.56 18.4338 6.8C18.3438 6.89 18.2538 6.98 18.2538 7.19C18.2538 7.43 18.6738 7.58 18.7938 7.91C19.0038 8.36 19.0338 9.47 18.6738 11.72C17.6838 17.99 17.2638 19.85 17.1438 20.39C17.0838 20.69 17.2938 20.78 17.6238 20.78C18.2538 20.78 19.0338 20.66 19.3338 20.45C19.2438 19.46 19.8138 16.34 20.1438 14.3C21.7938 10.64 23.8338 8.18 25.5138 8.18C26.4738 8.18 26.6538 8.96 26.7738 8.99C26.8638 9.02 27.2538 8.99 27.3738 8.9C27.6438 8.51 27.9738 7.01 27.9738 6.8C27.9738 6.56 27.8838 6.53 27.6438 6.41ZM33.1966 20.84C29.7466 20.84 28.1866 18.11 28.1866 14.81C28.1866 10.01 31.0066 6.14 35.3866 6.14C38.8366 6.14 40.3966 8.84 40.3966 12.14C40.3966 16.94 37.5766 20.84 33.1966 20.84ZM33.5866 19.13C36.3466 19.13 38.3866 16.43 38.3866 12.23C38.3866 9.32 37.0666 7.85 34.9966 7.85C32.2366 7.85 30.1966 10.52 30.1966 14.72C30.1966 17.63 31.5166 19.13 33.5866 19.13ZM50.2088 7.85C52.3388 7.85 52.7588 9.32 52.8788 9.35C52.9688 9.38 53.3588 9.35 53.4788 9.26C53.7188 8.87 54.2288 7.76 54.2288 7.49C54.2288 7.25 54.1388 7.19 53.9288 7.04C53.5688 6.83 52.3088 6.14 50.5088 6.14C46.1287 6.14 43.1288 9.92 43.1288 14.93C43.1288 17.99 44.6588 20.84 48.1988 20.84C50.0588 20.84 51.8588 19.94 53.0288 18.8C53.2088 18.62 53.2688 18.53 53.2688 18.38C53.2688 18.14 52.8188 17.33 52.6688 17.33C52.5788 17.33 52.5188 17.39 52.3688 17.51C51.2588 18.38 50.0888 19.07 48.5888 19.07C46.4588 19.07 45.1688 17.33 45.1688 14.81C45.1688 10.85 46.9688 7.85 50.2088 7.85ZM65.6752 17.33C65.5852 17.33 65.5252 17.39 65.3752 17.51C64.2652 18.38 63.1552 19.1 61.6552 19.1C59.6152 19.1 58.3252 17.54 58.2052 15.2C63.5152 14.78 66.9952 12.56 66.9652 9.65C66.9352 7.31 65.3152 6.14 63.2152 6.14C59.3752 6.14 56.1952 9.92 56.1952 14.9C56.1952 17.96 57.7252 20.84 61.2052 20.84C63.0652 20.84 64.8652 19.97 66.0352 18.8C66.2152 18.62 66.2752 18.53 66.2752 18.38C66.2752 18.14 65.8252 17.33 65.6752 17.33ZM63.0952 7.82C64.2052 7.82 65.0152 8.42 65.0152 9.77C65.0152 12.08 62.3752 13.28 58.2652 13.7C58.5952 10.25 60.4552 7.82 63.0952 7.82ZM73.2166 19.16C70.9366 19.16 70.0366 17.6 69.9166 17.57C69.8266 17.54 69.4366 17.57 69.3166 17.66C69.0766 18.05 68.5966 19.04 68.5966 19.31C68.5966 19.55 68.6866 19.61 68.9266 19.76C69.2566 19.97 70.9666 20.84 72.9466 20.84C75.9766 20.84 78.0766 19.22 78.0466 16.46C78.0166 14.57 76.9666 13.97 74.7466 12.62C73.2166 11.69 72.3466 11.3 72.3466 9.98C72.3466 8.57 73.3666 7.76 75.0166 7.76C77.0266 7.76 77.5066 9.08 77.6266 9.11C77.7166 9.14 78.0766 9.14 78.1966 9.05C78.4666 8.66 78.9166 7.7 78.9166 7.43C78.9166 7.19 78.8566 7.13 78.6166 6.98C78.2566 6.77 77.0566 6.14 75.2866 6.14C72.3166 6.14 70.4266 7.73 70.4266 10.22C70.4266 12.2 71.9866 13.22 73.7266 14.21C75.5266 15.23 76.0966 15.62 76.0966 16.79C76.0966 18.23 75.1366 19.16 73.2166 19.16ZM84.7889 19.16C82.5089 19.16 81.6089 17.6 81.4889 17.57C81.3989 17.54 81.0089 17.57 80.8889 17.66C80.6489 18.05 80.1689 19.04 80.1689 19.31C80.1689 19.55 80.2589 19.61 80.4989 19.76C80.8289 19.97 82.5389 20.84 84.5189 20.84C87.5489 20.84 89.6489 19.22 89.6189 16.46C89.5889 14.57 88.5389 13.97 86.3189 12.62C84.7889 11.69 83.9189 11.3 83.9189 9.98C83.9189 8.57 84.9389 7.76 86.5889 7.76C88.5989 7.76 89.0789 9.08 89.1989 9.11C89.2889 9.14 89.6489 9.14 89.7689 9.05C90.0389 8.66 90.4889 7.7 90.4889 7.43C90.4889 7.19 90.4289 7.13 90.1889 6.98C89.8289 6.77 88.6289 6.14 86.8589 6.14C83.8889 6.14 81.9989 7.73 81.9989 10.22C81.9989 12.2 83.5589 13.22 85.2989 14.21C87.0989 15.23 87.6689 15.62 87.6689 16.79C87.6689 18.23 86.7089 19.16 84.7889 19.16Z" fill="black"/>
</svg>
