<svg width="657" height="700" viewBox="0 0 657 700" fill="none" xmlns="http://www.w3.org/2000/svg">
<path d="M42.8 111.6C44.2 103.8 45.6 95.8 46.4 88.2C46.6 86.4 46.6 85.6 45.8 85.6C44.2 85.6 36.6 87.6 32.2 89.2C31.6 89.8 31 90.4 31 91.8C31 93.4 32 95.6 31.2 100.8C30.8 103.2 30.2 107 29.6 111.6H14.2C12.4 111.6 9.8 115.6 9.8 119.6C9.8 121 10.4 121.8 11.6 121.8H28L25.4 138.4L18.2 180.8C14.6 201.8 24.2 208.6 36.6 208.6C46.6 208.6 55.4 203.6 60.6 198.6C61.6 197.6 62.2 197 62.2 196C62.2 194.4 59.6 189.4 58.6 189.4C58 189.4 57.8 189.6 56.8 190.4C51.2 195.2 44.8 197 39.8 197C33.4 197 29.6 193.8 32 177.8L38.2 137.8C39 132.6 40 127.2 41 121.8H64.6C66.8 121.8 69.2 117.6 69.2 113.2C69.2 112 69 111.6 67.4 111.6H42.8ZM163.461 194C162.661 194 159.261 195.2 156.261 195.2C154.261 195.2 153.261 194 153.861 189C155.061 179.6 158.261 163.6 162.061 142.4C165.661 121.8 157.461 109.6 142.461 109.6C129.461 109.6 115.861 121 105.061 140.4C114.861 83.6 120.861 52.4 120.861 49.8C120.861 48.8 120.661 48.4 119.861 48.4C118.261 48.4 104.261 51 99.8609 52.2C99.2609 52.8 98.6609 53.8 98.6609 55.2C98.6609 56.8 102.461 59.4 103.261 61.6C104.661 65.6 103.461 74.6 94.8609 128.8C88.2609 170.6 82.4609 201 81.6609 204.6C81.2609 206.6 82.6609 207.2 84.8609 207.2C89.0609 207.2 94.0609 206.4 96.2609 205C95.6609 198.4 99.2609 177.6 101.661 164C112.061 139.6 126.461 122.2 139.461 122.2C148.061 122.2 152.061 129.4 148.861 147C145.261 167 139.661 193.8 139.661 197.4C139.661 204.2 143.461 206.8 148.461 206.8C155.661 206.8 162.861 203.6 165.461 201.2C165.661 199.2 164.661 194 163.461 194ZM210.777 85.4C205.177 85.4 201.977 82.2 201.977 75.8C201.977 69.8 206.577 62.8 213.577 62.8C219.177 62.8 222.377 66 222.377 72.4C222.377 78.4 217.777 85.4 210.777 85.4ZM187.777 197.6C187.777 204.4 191.377 206.8 196.377 206.8C203.777 206.8 210.977 203.6 213.577 201.2C213.777 199.2 212.977 194 211.777 194C210.977 194 207.577 195.2 204.577 195.2C202.577 195.2 201.577 194 202.177 189C203.377 179.6 205.177 166.2 208.777 145C212.577 123 214.377 115.6 214.377 111.8C214.377 110 214.177 109.6 213.377 109.6C211.777 109.6 199.177 112.4 194.777 114C194.177 114.6 193.577 115.2 193.577 116.6C193.577 118.2 196.377 119.2 197.177 121.4C198.377 124.6 198.377 131.8 195.977 146.8C189.377 188.6 187.777 194 187.777 197.6ZM317.981 194C317.181 194 313.781 195.2 310.781 195.2C308.781 195.2 307.781 194 308.381 189C309.381 179.6 312.981 163.6 316.581 142.4C319.981 121.8 311.981 109.6 296.781 109.6C283.781 109.6 269.981 120.8 259.181 140C261.581 126 263.781 114.6 263.781 111.8C263.781 110 263.781 109.6 262.981 109.6C261.381 109.6 248.581 112.4 244.181 114C243.581 114.6 242.981 115.2 242.981 116.6C242.981 118.2 245.781 119.2 246.581 121.4C247.981 124.4 248.181 131.8 245.781 146.8C239.381 188.6 236.381 201 235.581 204.6C235.181 206.6 236.581 207.2 238.781 207.2C242.981 207.2 248.181 206.4 250.181 205C249.581 198.4 253.381 177.6 255.581 164C265.981 139.6 280.381 122.2 293.581 122.2C302.381 122.2 306.381 129.4 303.181 147C299.581 167 294.381 193.8 294.381 197.4C294.381 204.2 297.981 206.8 302.981 206.8C310.181 206.8 317.181 203.6 319.981 201.2C319.981 199.2 319.181 194 317.981 194ZM421.464 194C420.664 194 417.264 195.2 414.264 195.2C412.264 195.2 409.864 194.8 407.864 192.2C401.464 184.2 393.464 173 385.664 161.4C404.864 157.2 421.464 147.2 421.464 130C421.464 118.6 414.064 109.6 399.864 109.6C387.264 109.6 373.864 118.4 365.064 131L365.664 127C375.064 71.6 379.264 52.8 379.264 49.8C379.264 48.8 378.864 48.4 378.064 48.4C376.464 48.4 362.664 51 358.264 52.2C357.664 52.8 356.864 53.8 356.864 55.2C356.864 56.8 360.664 59.4 361.464 61.6C362.864 65.6 362.064 74.6 353.064 128.8C346.064 170.6 340.664 201 339.864 204.6C339.464 206.6 340.864 207.2 343.064 207.2C347.264 207.2 352.464 206.4 354.464 205C353.664 200.2 357.864 173.2 362.064 148.2C370.864 132.2 385.664 120.4 397.064 120.4C405.264 120.4 408.664 124.4 408.664 132C408.664 144.8 394.664 151.6 373.064 155.8C371.464 156.4 370.264 160.4 371.464 163.2C380.864 176.4 391.064 190.8 397.864 200.8C400.464 204.6 402.464 206.8 406.864 206.8C414.064 206.8 420.864 203.6 423.464 201.2C423.664 199.2 422.664 194 421.464 194Z" fill="black"/>
<path d="M42.8 327.6C44.2 319.8 45.6 311.8 46.4 304.2C46.6 302.4 46.6 301.6 45.8 301.6C44.2 301.6 36.6 303.6 32.2 305.2C31.6 305.8 31 306.4 31 307.8C31 309.4 32 311.6 31.2 316.8C30.8 319.2 30.2 323 29.6 327.6H14.2C12.4 327.6 9.8 331.6 9.8 335.6C9.8 337 10.4 337.8 11.6 337.8H28L25.4 354.4L18.2 396.8C14.6 417.8 24.2 424.6 36.6 424.6C46.6 424.6 55.4 419.6 60.6 414.6C61.6 413.6 62.2 413 62.2 412C62.2 410.4 59.6 405.4 58.6 405.4C58 405.4 57.8 405.6 56.8 406.4C51.2 411.2 44.8 413 39.8 413C33.4 413 29.6 409.8 32 393.8L38.2 353.8C39 348.6 40 343.2 41 337.8H64.6C66.8 337.8 69.2 333.6 69.2 329.2C69.2 328 69 327.6 67.4 327.6H42.8ZM163.461 410C162.661 410 159.261 411.2 156.261 411.2C154.261 411.2 153.261 410 153.861 405C155.061 395.6 158.261 379.6 162.061 358.4C165.661 337.8 157.461 325.6 142.461 325.6C129.461 325.6 115.861 337 105.061 356.4C114.861 299.6 120.861 268.4 120.861 265.8C120.861 264.8 120.661 264.4 119.861 264.4C118.261 264.4 104.261 267 99.8609 268.2C99.2609 268.8 98.6609 269.8 98.6609 271.2C98.6609 272.8 102.461 275.4 103.261 277.6C104.661 281.6 103.461 290.6 94.8609 344.8C88.2609 386.6 82.4609 417 81.6609 420.6C81.2609 422.6 82.6609 423.2 84.8609 423.2C89.0609 423.2 94.0609 422.4 96.2609 421C95.6609 414.4 99.2609 393.6 101.661 380C112.061 355.6 126.461 338.2 139.461 338.2C148.061 338.2 152.061 345.4 148.861 363C145.261 383 139.661 409.8 139.661 413.4C139.661 420.2 143.461 422.8 148.461 422.8C155.661 422.8 162.861 419.6 165.461 417.2C165.661 415.2 164.661 410 163.461 410ZM210.777 301.4C205.177 301.4 201.977 298.2 201.977 291.8C201.977 285.8 206.577 278.8 213.577 278.8C219.177 278.8 222.377 282 222.377 288.4C222.377 294.4 217.777 301.4 210.777 301.4ZM187.777 413.6C187.777 420.4 191.377 422.8 196.377 422.8C203.777 422.8 210.977 419.6 213.577 417.2C213.777 415.2 212.977 410 211.777 410C210.977 410 207.577 411.2 204.577 411.2C202.577 411.2 201.577 410 202.177 405C203.377 395.6 205.177 382.2 208.777 361C212.577 339 214.377 331.6 214.377 327.8C214.377 326 214.177 325.6 213.377 325.6C211.777 325.6 199.177 328.4 194.777 330C194.177 330.6 193.577 331.2 193.577 332.6C193.577 334.2 196.377 335.2 197.177 337.4C198.377 340.6 198.377 347.8 195.977 362.8C189.377 404.6 187.777 410 187.777 413.6ZM317.981 410C317.181 410 313.781 411.2 310.781 411.2C308.781 411.2 307.781 410 308.381 405C309.381 395.6 312.981 379.6 316.581 358.4C319.981 337.8 311.981 325.6 296.781 325.6C283.781 325.6 269.981 336.8 259.181 356C261.581 342 263.781 330.6 263.781 327.8C263.781 326 263.781 325.6 262.981 325.6C261.381 325.6 248.581 328.4 244.181 330C243.581 330.6 242.981 331.2 242.981 332.6C242.981 334.2 245.781 335.2 246.581 337.4C247.981 340.4 248.181 347.8 245.781 362.8C239.381 404.6 236.381 417 235.581 420.6C235.181 422.6 236.581 423.2 238.781 423.2C242.981 423.2 248.181 422.4 250.181 421C249.581 414.4 253.381 393.6 255.581 380C265.981 355.6 280.381 338.2 293.581 338.2C302.381 338.2 306.381 345.4 303.181 363C299.581 383 294.381 409.8 294.381 413.4C294.381 420.2 297.981 422.8 302.981 422.8C310.181 422.8 317.181 419.6 319.981 417.2C319.981 415.2 319.181 410 317.981 410ZM391.464 325.6C365.064 325.6 341.064 347.6 341.064 385.8C341.064 408 351.464 423.6 365.864 423.6C379.264 423.6 392.264 411.6 401.464 395L395.664 429.8C391.464 455.2 382.864 468.8 365.864 468.8C348.464 468.8 341.464 455.2 340.064 455.2C339.264 455.2 338.064 455.4 337.664 455.8C335.664 457.8 331.664 465.8 331.664 467.6C331.664 468.4 331.464 469 333.064 470C336.264 472 350.064 480.2 363.664 480.2C392.064 480.2 404.664 459.2 409.264 429L423.664 335C418.864 331.6 407.664 325.6 391.464 325.6ZM405.664 367.8C396.464 392.2 382.064 411.4 369.264 411.4C361.064 411.4 354.464 404 354.464 384.4C354.464 355.8 370.464 336.4 390.264 336.4C397.264 336.4 404.864 337.8 410.064 340.8L405.664 367.8ZM465.259 412.4C450.059 412.4 444.059 402 443.259 401.8C442.659 401.6 440.059 401.8 439.259 402.4C437.659 405 434.459 411.6 434.459 413.4C434.459 415 435.059 415.4 436.659 416.4C438.859 417.8 450.259 423.6 463.459 423.6C483.659 423.6 497.659 412.8 497.459 394.4C497.259 381.8 490.259 377.8 475.459 368.8C465.259 362.6 459.459 360 459.459 351.2C459.459 341.8 466.259 336.4 477.259 336.4C490.659 336.4 493.859 345.2 494.659 345.4C495.259 345.6 497.659 345.6 498.459 345C500.259 342.4 503.259 336 503.259 334.2C503.259 332.6 502.859 332.2 501.259 331.2C498.859 329.8 490.859 325.6 479.059 325.6C459.259 325.6 446.659 336.2 446.659 352.8C446.659 366 457.059 372.8 468.659 379.4C480.659 386.2 484.459 388.8 484.459 396.6C484.459 406.2 478.059 412.4 465.259 412.4Z" fill="black"/>
<path d="M42.6 639.6C19.6 639.6 9.2 621.4 9.2 599.4C9.2 567.4 28 541.6 57.2 541.6C80.2 541.6 90.6 559.6 90.6 581.6C90.6 613.6 71.8 639.6 42.6 639.6ZM45.2 628.2C63.6 628.2 77.2 610.2 77.2 582.2C77.2 562.8 68.4 553 54.6 553C36.2 553 22.6 570.8 22.6 598.8C22.6 618.2 31.4 628.2 45.2 628.2ZM134.284 639.4C147.484 639.4 182.484 604 182.484 561C182.484 551.6 178.884 541.6 176.484 541.6C174.484 541.6 168.484 544.6 165.084 546.8C164.484 547.6 164.284 549.6 165.084 550.4C167.884 553.2 170.484 557.4 170.484 567.8C170.484 597 144.284 626.2 137.484 626.2C134.884 626.2 133.684 624.2 133.284 620C131.084 599.8 127.884 574.8 124.484 544.2C124.084 542.4 123.884 541.6 123.084 541.6C121.684 541.6 108.684 545.6 105.284 547C104.684 547.6 104.084 548.8 104.084 550.2C104.084 551 104.284 551.4 106.284 552.4C108.084 553.4 111.484 556 112.084 559.8C115.484 578.2 117.484 601.6 120.284 623.2C121.884 634.2 126.884 639.4 134.284 639.4ZM260.491 616.2C259.891 616.2 259.491 616.6 258.491 617.4C251.091 623.2 243.691 628 233.691 628C220.091 628 211.491 617.6 210.691 602C246.091 599.2 269.291 584.4 269.091 565C268.891 549.4 258.091 541.6 244.091 541.6C218.491 541.6 197.291 566.8 197.291 600C197.291 620.4 207.491 639.6 230.691 639.6C243.091 639.6 255.091 633.8 262.891 626C264.091 624.8 264.491 624.2 264.491 623.2C264.491 621.6 261.491 616.2 260.491 616.2ZM243.291 552.8C250.691 552.8 256.091 556.8 256.091 565.8C256.091 581.2 238.491 589.2 211.091 592C213.291 569 225.691 552.8 243.291 552.8ZM356.167 543.4C353.767 542.2 350.767 541.6 346.367 541.6C333.767 541.6 320.567 553 309.567 572.4C312.167 558.4 314.367 547 314.367 544.2C314.367 542.4 314.367 541.6 313.567 541.6C311.967 541.6 299.167 544.4 294.767 546C294.167 546.6 293.567 547.2 293.567 548.6C293.567 550.2 296.367 551.2 297.167 553.4C298.567 556.4 298.767 563.8 296.367 578.8C289.767 620.6 286.967 633 286.167 636.6C285.767 638.6 287.167 639.2 289.367 639.2C293.567 639.2 298.767 638.4 300.767 637C300.167 630.4 303.967 609.6 306.167 596C317.167 571.6 330.767 555.2 341.967 555.2C348.367 555.2 349.567 560.4 350.367 560.6C350.967 560.8 353.567 560.6 354.367 560C356.167 557.4 358.367 547.4 358.367 546C358.367 544.4 357.767 544.2 356.167 543.4ZM374.292 639.6C368.092 639.6 364.492 635.8 364.492 628.6C364.492 621.8 369.692 614 377.292 614C383.492 614 387.092 617.8 387.092 625C387.092 631.8 381.892 639.6 374.292 639.6Z" fill="black"/>
<g clip-path="url(#clip0)">
<path d="M552.75 134C552.75 137.91 551.196 141.66 548.43 144.425C545.664 147.19 541.913 148.744 538.002 148.744C534.09 148.744 530.339 147.19 527.574 144.425C524.808 141.66 523.254 137.91 523.254 134" stroke="black" stroke-miterlimit="10"/>
<path d="M582.25 134C582.25 135.936 581.869 137.854 581.128 139.643C580.386 141.432 579.3 143.058 577.93 144.427C576.56 145.796 574.934 146.883 573.145 147.624C571.355 148.365 569.437 148.746 567.5 148.746C565.563 148.746 563.645 148.365 561.855 147.624C560.066 146.883 558.44 145.796 557.07 144.427C555.7 143.058 554.614 141.432 553.872 139.643C553.131 137.854 552.75 135.936 552.75 134" stroke="black" stroke-miterlimit="10"/>
<path d="M611.746 134C611.746 137.91 610.192 141.66 607.427 144.425C604.661 147.19 600.91 148.744 596.998 148.744C593.087 148.744 589.336 147.19 586.57 144.425C583.804 141.66 582.25 137.91 582.25 134" stroke="black" stroke-miterlimit="10"/>
</g>
<path d="M596.75 375C596.75 378.91 595.196 382.66 592.43 385.425C589.664 388.19 585.913 389.744 582.002 389.744C578.09 389.744 574.339 388.19 571.574 385.425C568.808 382.66 567.254 378.91 567.254 375" stroke="black" stroke-miterlimit="10"/>
<path d="M626.25 375C626.25 376.936 625.869 378.854 625.128 380.643C624.386 382.432 623.3 384.058 621.93 385.427C620.56 386.796 618.934 387.883 617.145 388.624C615.355 389.365 613.437 389.746 611.5 389.746C609.563 389.746 607.645 389.365 605.855 388.624C604.066 387.883 602.44 386.796 601.07 385.427C599.7 384.058 598.614 382.432 597.872 380.643C597.131 378.854 596.75 376.936 596.75 375" stroke="black" stroke-miterlimit="10"/>
<path d="M655.746 375C655.746 378.91 654.192 382.66 651.427 385.425C648.661 388.19 644.91 389.744 640.998 389.744C637.087 389.744 633.336 388.19 630.57 385.425C627.804 382.66 626.25 378.91 626.25 375" stroke="black" stroke-miterlimit="10"/>
<g clip-path="url(#clip1)">
<path d="M493.75 587C493.75 590.91 492.196 594.66 489.43 597.425C486.664 600.19 482.913 601.744 479.002 601.744C475.09 601.744 471.339 600.19 468.574 597.425C465.808 594.66 464.254 590.91 464.254 587" stroke="black" stroke-miterlimit="10"/>
<path d="M523.25 587C523.25 588.936 522.869 590.854 522.128 592.643C521.386 594.432 520.3 596.058 518.93 597.427C517.56 598.796 515.934 599.883 514.145 600.624C512.355 601.365 510.437 601.746 508.5 601.746C506.563 601.746 504.645 601.365 502.855 600.624C501.066 599.883 499.44 598.796 498.07 597.427C496.7 596.058 495.614 594.432 494.872 592.643C494.131 590.854 493.75 588.936 493.75 587" stroke="black" stroke-miterlimit="10"/>
<path d="M552.746 587C552.746 590.91 551.192 594.66 548.427 597.425C545.661 600.19 541.91 601.744 537.998 601.744C534.087 601.744 530.336 600.19 527.57 597.425C524.804 594.66 523.25 590.91 523.25 587" stroke="black" stroke-miterlimit="10"/>
</g>
<defs>
<clipPath id="clip0">
<rect width="89" height="15" fill="white" transform="translate(523 134)"/>
</clipPath>
<clipPath id="clip1">
<rect width="89" height="15" fill="white" transform="translate(464 587)"/>
</clipPath>
</defs>
</svg>
