<svg width="500" height="76" viewBox="0 0 500 76" fill="none" xmlns="http://www.w3.org/2000/svg">
<path d="M11.98 22.36C12.47 19.63 12.96 16.83 13.24 14.17C13.31 13.54 13.31 13.26 13.03 13.26C12.47 13.26 9.81 13.96 8.27 14.52C8.06 14.73 7.85 14.94 7.85 15.43C7.85 15.99 8.2 16.76 7.92 18.58C7.78 19.42 7.57 20.75 7.36 22.36H1.97C1.34 22.36 0.43 23.76 0.43 25.16C0.43 25.65 0.64 25.93 1.06 25.93H6.8L5.89 31.74L3.37 46.58C2.11 53.93 5.47 56.31 9.81 56.31C13.31 56.31 16.39 54.56 18.21 52.81C18.56 52.46 18.77 52.25 18.77 51.9C18.77 51.34 17.86 49.59 17.51 49.59C17.3 49.59 17.23 49.66 16.88 49.94C14.92 51.62 12.68 52.25 10.93 52.25C8.69 52.25 7.36 51.13 8.2 45.53L10.37 31.53C10.65 29.71 11 27.82 11.35 25.93H19.61C20.38 25.93 21.22 24.46 21.22 22.92C21.22 22.5 21.15 22.36 20.59 22.36H11.98ZM54.2113 51.2C53.9313 51.2 52.7413 51.62 51.6913 51.62C50.9913 51.62 50.6413 51.2 50.8513 49.45C51.2713 46.16 52.3913 40.56 53.7213 33.14C54.9813 25.93 52.1113 21.66 46.8613 21.66C42.3113 21.66 37.5513 25.65 33.7713 32.44C37.2013 12.56 39.3013 1.64 39.3013 0.729997C39.3013 0.379998 39.2313 0.24 38.9513 0.24C38.3913 0.24 33.4913 1.15 31.9513 1.57C31.7413 1.78 31.5313 2.13 31.5313 2.62C31.5313 3.18 32.8613 4.09 33.1413 4.86C33.6313 6.26 33.2113 9.41 30.2013 28.38C27.8913 43.01 25.8613 53.65 25.5813 54.91C25.4413 55.61 25.9313 55.82 26.7013 55.82C28.1713 55.82 29.9213 55.54 30.6913 55.05C30.4813 52.74 31.7413 45.46 32.5813 40.7C36.2213 32.16 41.2613 26.07 45.8113 26.07C48.8213 26.07 50.2213 28.59 49.1013 34.75C47.8413 41.75 45.8813 51.13 45.8813 52.39C45.8813 54.77 47.2113 55.68 48.9613 55.68C51.4813 55.68 54.0013 54.56 54.9113 53.72C54.9813 53.02 54.6313 51.2 54.2113 51.2ZM70.7718 13.19C68.8118 13.19 67.6918 12.07 67.6918 9.83C67.6918 7.73 69.3018 5.28 71.7518 5.28C73.7118 5.28 74.8318 6.4 74.8318 8.64C74.8318 10.74 73.2218 13.19 70.7718 13.19ZM62.7218 52.46C62.7218 54.84 63.9818 55.68 65.7318 55.68C68.3218 55.68 70.8418 54.56 71.7518 53.72C71.8218 53.02 71.5418 51.2 71.1218 51.2C70.8418 51.2 69.6518 51.62 68.6018 51.62C67.9018 51.62 67.5518 51.2 67.7618 49.45C68.1818 46.16 68.8118 41.47 70.0718 34.05C71.4018 26.35 72.0318 23.76 72.0318 22.43C72.0318 21.8 71.9618 21.66 71.6818 21.66C71.1218 21.66 66.7118 22.64 65.1718 23.2C64.9618 23.41 64.7518 23.62 64.7518 24.11C64.7518 24.67 65.7318 25.02 66.0118 25.79C66.4318 26.91 66.4318 29.43 65.5918 34.68C63.2818 49.31 62.7218 51.2 62.7218 52.46ZM108.293 51.2C108.013 51.2 106.823 51.62 105.773 51.62C105.073 51.62 104.723 51.2 104.933 49.45C105.283 46.16 106.543 40.56 107.803 33.14C108.993 25.93 106.193 21.66 100.873 21.66C96.3234 21.66 91.4934 25.58 87.7134 32.3C88.5534 27.4 89.3234 23.41 89.3234 22.43C89.3234 21.8 89.3234 21.66 89.0434 21.66C88.4834 21.66 84.0034 22.64 82.4634 23.2C82.2534 23.41 82.0434 23.62 82.0434 24.11C82.0434 24.67 83.0234 25.02 83.3034 25.79C83.7934 26.84 83.8634 29.43 83.0234 34.68C80.7834 49.31 79.7334 53.65 79.4534 54.91C79.3134 55.61 79.8034 55.82 80.5734 55.82C82.0434 55.82 83.8634 55.54 84.5634 55.05C84.3534 52.74 85.6834 45.46 86.4534 40.7C90.0934 32.16 95.1334 26.07 99.7534 26.07C102.833 26.07 104.233 28.59 103.113 34.75C101.853 41.75 100.033 51.13 100.033 52.39C100.033 54.77 101.293 55.68 103.043 55.68C105.563 55.68 108.013 54.56 108.993 53.72C108.993 53.02 108.713 51.2 108.293 51.2ZM144.512 51.2C144.232 51.2 143.042 51.62 141.992 51.62C141.292 51.62 140.452 51.48 139.752 50.57C137.512 47.77 134.712 43.85 131.982 39.79C138.702 38.32 144.512 34.82 144.512 28.8C144.512 24.81 141.922 21.66 136.952 21.66C132.542 21.66 127.852 24.74 124.772 29.15L124.982 27.75C128.272 8.36 129.742 1.78 129.742 0.729997C129.742 0.379998 129.602 0.24 129.322 0.24C128.762 0.24 123.932 1.15 122.392 1.57C122.182 1.78 121.902 2.13 121.902 2.62C121.902 3.18 123.232 4.09 123.512 4.86C124.002 6.26 123.722 9.41 120.572 28.38C118.122 43.01 116.232 53.65 115.952 54.91C115.812 55.61 116.302 55.82 117.072 55.82C118.542 55.82 120.362 55.54 121.062 55.05C120.782 53.37 122.252 43.92 123.722 35.17C126.802 29.57 131.982 25.44 135.972 25.44C138.842 25.44 140.032 26.84 140.032 29.5C140.032 33.98 135.132 36.36 127.572 37.83C127.012 38.04 126.592 39.44 127.012 40.42C130.302 45.04 133.872 50.08 136.252 53.58C137.162 54.91 137.862 55.68 139.402 55.68C141.922 55.68 144.302 54.56 145.212 53.72C145.282 53.02 144.932 51.2 144.512 51.2ZM182.058 22.36C182.548 19.63 183.038 16.83 183.318 14.17C183.388 13.54 183.388 13.26 183.108 13.26C182.548 13.26 179.888 13.96 178.348 14.52C178.138 14.73 177.928 14.94 177.928 15.43C177.928 15.99 178.278 16.76 177.998 18.58C177.858 19.42 177.648 20.75 177.438 22.36H172.048C171.418 22.36 170.508 23.76 170.508 25.16C170.508 25.65 170.718 25.93 171.138 25.93H176.878L175.968 31.74L173.448 46.58C172.188 53.93 175.548 56.31 179.888 56.31C183.388 56.31 186.468 54.56 188.288 52.81C188.638 52.46 188.848 52.25 188.848 51.9C188.848 51.34 187.938 49.59 187.588 49.59C187.378 49.59 187.308 49.66 186.958 49.94C184.998 51.62 182.758 52.25 181.008 52.25C178.768 52.25 177.438 51.13 178.278 45.53L180.448 31.53C180.728 29.71 181.078 27.82 181.428 25.93H189.688C190.458 25.93 191.298 24.46 191.298 22.92C191.298 22.5 191.228 22.36 190.668 22.36H182.058ZM224.289 51.2C224.009 51.2 222.819 51.62 221.769 51.62C221.069 51.62 220.719 51.2 220.929 49.45C221.349 46.16 222.469 40.56 223.799 33.14C225.059 25.93 222.189 21.66 216.939 21.66C212.389 21.66 207.629 25.65 203.849 32.44C207.279 12.56 209.379 1.64 209.379 0.729997C209.379 0.379998 209.309 0.24 209.029 0.24C208.469 0.24 203.569 1.15 202.029 1.57C201.819 1.78 201.609 2.13 201.609 2.62C201.609 3.18 202.939 4.09 203.219 4.86C203.709 6.26 203.289 9.41 200.279 28.38C197.969 43.01 195.939 53.65 195.659 54.91C195.519 55.61 196.009 55.82 196.779 55.82C198.249 55.82 199.999 55.54 200.769 55.05C200.559 52.74 201.819 45.46 202.659 40.7C206.299 32.16 211.339 26.07 215.889 26.07C218.899 26.07 220.299 28.59 219.179 34.75C217.919 41.75 215.959 51.13 215.959 52.39C215.959 54.77 217.289 55.68 219.039 55.68C221.559 55.68 224.079 54.56 224.989 53.72C225.059 53.02 224.709 51.2 224.289 51.2ZM240.85 13.19C238.89 13.19 237.77 12.07 237.77 9.83C237.77 7.73 239.38 5.28 241.83 5.28C243.79 5.28 244.91 6.4 244.91 8.64C244.91 10.74 243.3 13.19 240.85 13.19ZM232.8 52.46C232.8 54.84 234.06 55.68 235.81 55.68C238.4 55.68 240.92 54.56 241.83 53.72C241.9 53.02 241.62 51.2 241.2 51.2C240.92 51.2 239.73 51.62 238.68 51.62C237.98 51.62 237.63 51.2 237.84 49.45C238.26 46.16 238.89 41.47 240.15 34.05C241.48 26.35 242.11 23.76 242.11 22.43C242.11 21.8 242.04 21.66 241.76 21.66C241.2 21.66 236.79 22.64 235.25 23.2C235.04 23.41 234.83 23.62 234.83 24.11C234.83 24.67 235.81 25.02 236.09 25.79C236.51 26.91 236.51 29.43 235.67 34.68C233.36 49.31 232.8 51.2 232.8 52.46ZM278.372 51.2C278.092 51.2 276.902 51.62 275.852 51.62C275.152 51.62 274.802 51.2 275.012 49.45C275.362 46.16 276.622 40.56 277.882 33.14C279.072 25.93 276.272 21.66 270.952 21.66C266.402 21.66 261.572 25.58 257.792 32.3C258.632 27.4 259.402 23.41 259.402 22.43C259.402 21.8 259.402 21.66 259.122 21.66C258.562 21.66 254.082 22.64 252.542 23.2C252.332 23.41 252.122 23.62 252.122 24.11C252.122 24.67 253.102 25.02 253.382 25.79C253.872 26.84 253.942 29.43 253.102 34.68C250.862 49.31 249.812 53.65 249.532 54.91C249.392 55.61 249.882 55.82 250.652 55.82C252.122 55.82 253.942 55.54 254.642 55.05C254.432 52.74 255.762 45.46 256.532 40.7C260.172 32.16 265.212 26.07 269.832 26.07C272.912 26.07 274.312 28.59 273.192 34.75C271.932 41.75 270.112 51.13 270.112 52.39C270.112 54.77 271.372 55.68 273.122 55.68C275.642 55.68 278.092 54.56 279.072 53.72C279.072 53.02 278.792 51.2 278.372 51.2ZM304.091 21.66C294.851 21.66 286.451 29.36 286.451 42.73C286.451 50.5 290.091 55.96 295.131 55.96C299.821 55.96 304.371 51.76 307.591 45.95L305.561 58.13C304.091 67.02 301.081 71.78 295.131 71.78C289.041 71.78 286.591 67.02 286.101 67.02C285.821 67.02 285.401 67.09 285.261 67.23C284.561 67.93 283.161 70.73 283.161 71.36C283.161 71.64 283.091 71.85 283.651 72.2C284.771 72.9 289.601 75.77 294.361 75.77C304.301 75.77 308.711 68.42 310.321 57.85L315.361 24.95C313.681 23.76 309.761 21.66 304.091 21.66ZM309.061 36.43C305.841 44.97 300.801 51.69 296.321 51.69C293.451 51.69 291.141 49.1 291.141 42.24C291.141 32.23 296.741 25.44 303.671 25.44C306.121 25.44 308.781 25.93 310.601 26.98L309.061 36.43ZM329.919 52.04C324.599 52.04 322.499 48.4 322.219 48.33C322.009 48.26 321.099 48.33 320.819 48.54C320.259 49.45 319.139 51.76 319.139 52.39C319.139 52.95 319.349 53.09 319.909 53.44C320.679 53.93 324.669 55.96 329.289 55.96C336.359 55.96 341.259 52.18 341.189 45.74C341.119 41.33 338.669 39.93 333.489 36.78C329.919 34.61 327.889 33.7 327.889 30.62C327.889 27.33 330.269 25.44 334.119 25.44C338.809 25.44 339.929 28.52 340.209 28.59C340.419 28.66 341.259 28.66 341.539 28.45C342.169 27.54 343.219 25.3 343.219 24.67C343.219 24.11 343.079 23.97 342.519 23.62C341.679 23.13 338.879 21.66 334.749 21.66C327.819 21.66 323.409 25.37 323.409 31.18C323.409 35.8 327.049 38.18 331.109 40.49C335.309 42.87 336.639 43.78 336.639 46.51C336.639 49.87 334.399 52.04 329.919 52.04ZM378.658 55.96C370.608 55.96 366.968 49.59 366.968 41.89C366.968 30.69 373.548 21.66 383.768 21.66C391.818 21.66 395.458 27.96 395.458 35.66C395.458 46.86 388.878 55.96 378.658 55.96ZM379.568 51.97C386.008 51.97 390.768 45.67 390.768 35.87C390.768 29.08 387.688 25.65 382.858 25.65C376.418 25.65 371.658 31.88 371.658 41.68C371.658 48.47 374.738 51.97 379.568 51.97ZM410.748 55.89C415.368 55.89 427.618 43.5 427.618 28.45C427.618 25.16 426.358 21.66 425.518 21.66C424.818 21.66 422.718 22.71 421.528 23.48C421.318 23.76 421.248 24.46 421.528 24.74C422.508 25.72 423.418 27.19 423.418 30.83C423.418 41.05 414.248 51.27 411.868 51.27C410.958 51.27 410.538 50.57 410.398 49.1C409.628 42.03 408.508 33.28 407.318 22.57C407.178 21.94 407.108 21.66 406.828 21.66C406.338 21.66 401.788 23.06 400.598 23.55C400.388 23.76 400.178 24.18 400.178 24.67C400.178 24.95 400.248 25.09 400.948 25.44C401.578 25.79 402.768 26.7 402.978 28.03C404.168 34.47 404.868 42.66 405.848 50.22C406.408 54.07 408.158 55.89 410.748 55.89ZM454.92 47.77C454.71 47.77 454.57 47.91 454.22 48.19C451.63 50.22 449.04 51.9 445.54 51.9C440.78 51.9 437.77 48.26 437.49 42.8C449.88 41.82 458 36.64 457.93 29.85C457.86 24.39 454.08 21.66 449.18 21.66C440.22 21.66 432.8 30.48 432.8 42.1C432.8 49.24 436.37 55.96 444.49 55.96C448.83 55.96 453.03 53.93 455.76 51.2C456.18 50.78 456.32 50.57 456.32 50.22C456.32 49.66 455.27 47.77 454.92 47.77ZM448.9 25.58C451.49 25.58 453.38 26.98 453.38 30.13C453.38 35.52 447.22 38.32 437.63 39.3C438.4 31.25 442.74 25.58 448.9 25.58ZM488.407 22.29C487.567 21.87 486.517 21.66 484.977 21.66C480.567 21.66 475.947 25.65 472.097 32.44C473.007 27.54 473.777 23.55 473.777 22.57C473.777 21.94 473.777 21.66 473.497 21.66C472.937 21.66 468.457 22.64 466.917 23.2C466.707 23.41 466.497 23.62 466.497 24.11C466.497 24.67 467.477 25.02 467.757 25.79C468.247 26.84 468.317 29.43 467.477 34.68C465.167 49.31 464.187 53.65 463.907 54.91C463.767 55.61 464.257 55.82 465.027 55.82C466.497 55.82 468.317 55.54 469.017 55.05C468.807 52.74 470.137 45.46 470.907 40.7C474.757 32.16 479.517 26.42 483.437 26.42C485.677 26.42 486.097 28.24 486.377 28.31C486.587 28.38 487.497 28.31 487.777 28.1C488.407 27.19 489.177 23.69 489.177 23.2C489.177 22.64 488.967 22.57 488.407 22.29ZM494.75 55.96C492.58 55.96 491.32 54.63 491.32 52.11C491.32 49.73 493.14 47 495.8 47C497.97 47 499.23 48.33 499.23 50.85C499.23 53.23 497.41 55.96 494.75 55.96Z" fill="black"/>
</svg>
