<svg width="367" height="255" viewBox="0 0 367 255" fill="none" xmlns="http://www.w3.org/2000/svg">
<path d="M152.56 239.254L151.878 242.774H154.892V244.248H151.592L150.69 248.846H149.128L150.03 244.248H146.884L146.026 248.846H144.486L145.322 244.248H142.55V242.774H145.608L146.312 239.254H143.364V237.802H146.576L147.456 233.138H149.04L148.16 237.802H151.328L152.208 233.138H153.726L152.846 237.802H155.64V239.254H152.56ZM147.17 242.774H150.316L150.998 239.254H147.852L147.17 242.774ZM160.337 248.846H158.357V233.138H167.135V234.876H160.337V240.442H166.717V242.18H160.337V248.846ZM171.745 248.846H169.765V233.138H178.543V234.876H171.745V240.442H178.125V242.18H171.745V248.846ZM183.153 248.846H181.173V233.138H189.951V234.876H183.153V240.442H189.533V242.18H183.153V248.846ZM194.561 248.846H192.581V233.138H201.359V234.876H194.561V240.442H200.941V242.18H194.561V248.846ZM205.969 248.846H203.989V233.138H212.767V234.876H205.969V240.442H212.349V242.18H205.969V248.846ZM217.378 248.846H215.398V233.138H224.176V234.876H217.378V240.442H223.758V242.18H217.378V248.846Z" fill="black"/>
<path d="M143.854 30.0467C153.977 38.0717 157.365 52.7924 154.488 70.2641C151.614 87.7168 142.499 107.792 127.801 126.332C113.103 144.871 95.6369 158.326 79.3002 165.106C62.9456 171.893 47.8402 171.953 37.7175 163.928C27.5948 155.903 24.2066 141.182 27.0839 123.71C29.9581 106.258 39.0733 86.1824 53.7709 67.6428C68.4685 49.1033 85.9349 35.6486 102.272 28.8687C118.626 22.0813 133.732 22.0218 143.854 30.0467Z" fill="white" stroke="black"/>
<path d="M190.121 30.0467C200.244 38.0717 203.632 52.7924 200.755 70.2641C197.881 87.7168 188.765 107.792 174.068 126.332C159.37 144.871 141.904 158.326 125.567 165.106C109.212 171.893 94.107 171.953 83.9843 163.928C73.8616 155.903 70.4735 141.182 73.3508 123.71C76.2249 106.258 85.3401 86.1824 100.038 67.6428C114.735 49.1033 132.202 35.6486 148.538 28.8687C164.893 22.0813 179.998 22.0218 190.121 30.0467Z" fill="white" stroke="black"/>
<path d="M236.388 30.0467C246.511 38.0717 249.899 52.7924 247.022 70.2641C244.147 87.7168 235.032 107.792 220.335 126.332C205.637 144.871 188.171 158.326 171.834 165.106C155.479 171.893 140.374 171.953 130.251 163.928C120.128 155.903 116.74 141.182 119.618 123.71C122.492 106.258 131.607 86.1824 146.305 67.6428C161.002 49.1033 178.469 35.6486 194.805 28.8687C211.16 22.0813 226.265 22.0218 236.388 30.0467Z" fill="white" stroke="black"/>
<path d="M282.655 30.0467C292.778 38.0717 296.166 52.7924 293.288 70.2641C290.414 87.7168 281.299 107.792 266.601 126.332C251.904 144.871 234.437 158.326 218.101 165.106C201.746 171.893 186.641 171.953 176.518 163.928C166.395 155.903 163.007 141.182 165.884 123.71C168.759 106.258 177.874 86.1824 192.571 67.6428C207.269 49.1033 224.735 35.6486 241.072 28.8687C257.427 22.0813 272.532 22.0218 282.655 30.0467Z" fill="white" stroke="black"/>
<path d="M328.922 30.0467C339.044 38.0717 342.433 52.7924 339.555 70.2641C336.681 87.7168 327.566 107.792 312.868 126.332C298.171 144.871 280.704 158.326 264.368 165.106C248.013 171.893 232.908 171.953 222.785 163.928C212.662 155.903 209.274 141.182 212.151 123.71C215.025 106.258 224.141 86.1824 238.838 67.6428C253.536 49.1033 271.002 35.6486 287.339 28.8687C303.694 22.0813 318.799 22.0218 328.922 30.0467Z" fill="white" stroke="black"/>
</svg>
