<svg width="297" height="44" viewBox="0 0 297 44" fill="none" xmlns="http://www.w3.org/2000/svg">
<path d="M7.92 32.12C12.36 32.12 15.72 29.32 15.72 24.84C15.72 20.52 13.6 18.84 8.56 16.6C5.32 15.16 3.32 14 3.32 10.76C3.32 8.28 5.28 6.84 8 6.84C9.6 6.84 10.8 7.08 11.76 7.68C12.72 8.28 12.96 9.84 13.12 9.92C13.24 10 14.12 9.92 14.32 9.8C14.44 8.96 14.76 6.64 14.76 6.16C14.76 5.8 14.6 5.68 14.24 5.52C12.88 4.92 10.68 4.48 8.12 4.48C3.8 4.48 0.48 6.96 0.48 11.16C0.48 15.2 3 17.2 7.2 19.16C11.92 21.36 12.88 22.4 12.88 25.28C12.88 28.32 11.04 29.72 8.08 29.72C5.68 29.72 4.28 29.04 3.36 28.44C2.44 27.84 2.16 26.12 2 26.04C1.88 25.96 1 26.04 0.8 26.16C0.64 27 0.32 29.56 0.32 30.04C0.32 30.4 0.48 30.56 0.84 30.68C2.24 31.16 4.72 32.12 7.92 32.12ZM34.8047 29.6C34.6447 29.6 34.1647 29.68 33.8047 29.68C33.3247 29.68 33.0447 28.52 33.0047 27.64C32.8847 24.88 33.0047 21.36 33.0847 18.08C33.1647 14.8 30.9647 12.52 26.8447 12.52C24.2847 12.52 22.2447 13.36 20.9247 14.2C20.6047 14.4 20.5647 14.48 20.5647 14.76C20.5647 15.08 21.2047 16.84 21.6447 17.32C21.9247 17.36 22.3247 17.24 22.4447 17.16C22.5647 17.08 22.8847 16.16 23.6447 15.64C24.4047 15.12 25.4047 14.72 26.7647 14.72C29.0047 14.72 30.2047 15.92 30.3247 18.76C30.3647 19.44 30.3647 20.2 30.3647 20.96C28.2847 21.16 24.8447 21.36 23.1647 22.04C21.4047 22.76 20.0047 24.24 20.0047 27.16C20.0047 29.96 21.8447 32.12 24.8047 32.12C27.6047 32.12 29.5247 30.48 30.7247 29.6C31.0847 30.76 31.8047 32.12 32.6047 32.12C33.1247 32.12 34.6847 31.4 35.2847 30.88C35.2847 30.48 35.0447 29.6 34.8047 29.6ZM25.5647 29.92C23.6447 29.92 22.8047 28.72 22.8047 27.08C22.8047 24.84 23.5647 24 24.9647 23.56C26.0847 23.24 28.7647 23.04 30.3647 23C30.3647 24.96 30.3247 26.84 30.2847 27.92C29.5647 28.52 27.6447 29.92 25.5647 29.92ZM39.2831 31.72C41.0031 31.6 43.3631 31.6 44.6031 31.64C44.8431 31.32 45.0031 30.88 45.0031 30.48C45.0031 30.16 44.7631 30.16 44.2431 30C43.5631 29.8 43.2431 29.24 43.2431 27.88C43.2431 25.48 43.2831 21.48 43.2831 17.8C44.6831 16.48 47.0431 15.12 48.8831 15.12C51.6431 15.12 52.6431 16.84 52.6431 19.8C52.6031 29.12 52.6431 25.36 52.6031 27.76C52.6031 28.8 52.4431 29.44 52.1231 29.72C51.5231 30.24 50.9231 30.24 50.9231 30.64C50.9231 31.16 51.1631 31.72 51.4031 31.72C53.1231 31.6 55.4831 31.6 56.7231 31.64C56.9631 31.32 57.1231 30.88 57.1231 30.48C57.1231 30.16 56.8031 30.16 56.2831 30C55.6031 29.8 55.2431 29.32 55.2431 27.88V19.08C55.2431 14.96 53.2031 12.52 49.7231 12.52C47.6431 12.52 45.0431 13.8 43.1231 15.64V13.04C43.1231 12.68 43.0431 12.52 42.8831 12.52C42.5631 12.52 40.1631 13.08 39.3231 13.4C39.2431 13.52 39.1631 13.64 39.1631 13.92C39.1631 14.24 39.8031 14.44 40.0431 14.88C40.3631 15.48 40.6831 16.96 40.6831 19.96C40.6831 23.44 40.6831 25.44 40.6031 27.76C40.5631 28.8 40.4431 29.44 40.1231 29.72C39.5231 30.24 38.8031 30.24 38.8031 30.64C38.8031 31.16 39.0431 31.72 39.2831 31.72ZM79.1403 29.6C78.9803 29.6 78.5003 29.68 78.1403 29.68C77.6603 29.68 77.3403 28.52 77.2603 27.64C77.1003 25.72 77.1003 20.92 77.1003 15.2C77.1003 4.96 77.2603 1.6 77.2603 0.799998C77.2603 0.439998 77.1803 0.28 77.0203 0.28C76.7003 0.28 73.9403 0.799998 73.1403 1.04C73.0603 1.16 72.9803 1.28 72.9803 1.56C72.9803 1.88 73.5403 2.2 73.8603 2.6C74.4603 3.32 74.5403 4.88 74.5403 13.24C73.5003 12.84 71.9803 12.52 70.5003 12.52C65.7003 12.52 61.2603 15.8 61.3003 22.96C61.3403 28.12 63.9003 32.12 68.7403 32.12C70.5803 32.12 73.1003 31.28 74.8203 28.88C75.3003 30.92 76.2203 32.12 76.9403 32.12C77.4603 32.12 79.0203 31.4 79.6203 30.88C79.6203 30.48 79.3803 29.6 79.1403 29.6ZM68.9803 29.72C66.5003 29.72 64.1803 27.56 64.1403 22.6C64.1003 16.96 66.9803 14.8 70.4603 14.8C72.0203 14.8 73.5403 15.16 74.5403 15.68C74.5403 20.92 74.5403 25.52 74.5403 26.24V26.52C73.2603 28.6 71.2603 29.72 68.9803 29.72ZM92.6766 32.12C96.2366 32.12 101.397 29.64 101.397 21.8C101.397 16.12 97.5166 12.52 92.6766 12.52C88.6366 12.52 83.8366 15.36 83.8366 22.64C83.8366 28.04 87.1566 32.12 92.6766 32.12ZM93.0366 29.8C89.3566 29.8 86.6366 27.36 86.6366 22.12C86.6366 16.2 89.9566 14.84 92.4366 14.84C96.3966 14.84 98.5966 17.8 98.5966 22.36C98.5966 27.4 95.9966 29.8 93.0366 29.8ZM106.662 31.72C108.262 31.6 110.982 31.6 112.342 31.64C112.582 31.32 112.742 30.88 112.742 30.48C112.742 30.16 112.502 30.16 111.862 30C111.182 29.84 110.782 29.32 110.782 27.96C110.782 24.84 110.742 19.8 110.742 15.2C110.742 4.96 110.902 1.6 110.902 0.799998C110.902 0.439998 110.822 0.28 110.662 0.28C110.342 0.28 107.582 0.799998 106.782 1.04C106.702 1.16 106.622 1.28 106.622 1.56C106.622 1.88 107.182 2.2 107.502 2.6C108.142 3.36 108.182 5.12 108.182 15.16C108.182 19.44 108.102 24.88 108.102 27.84C108.102 28.88 107.822 29.48 107.502 29.76C106.902 30.28 106.182 30.24 106.182 30.64C106.182 31.16 106.422 31.72 106.662 31.72ZM117.951 31.72C119.551 31.6 122.271 31.6 123.631 31.64C123.871 31.32 124.031 30.88 124.031 30.48C124.031 30.16 123.791 30.16 123.151 30C122.471 29.84 122.071 29.32 122.071 27.96C122.071 24.84 122.031 19.8 122.031 15.2C122.031 4.96 122.191 1.6 122.191 0.799998C122.191 0.439998 122.111 0.28 121.951 0.28C121.631 0.28 118.871 0.799998 118.071 1.04C117.991 1.16 117.911 1.28 117.911 1.56C117.911 1.88 118.471 2.2 118.791 2.6C119.431 3.36 119.471 5.12 119.471 15.16C119.471 19.44 119.391 24.88 119.391 27.84C119.391 28.88 119.111 29.48 118.791 29.76C118.191 30.28 117.471 30.24 117.471 30.64C117.471 31.16 117.711 31.72 117.951 31.72ZM139.553 38.88C140.553 38.88 146.873 35.16 146.873 26.84V9.04C146.873 7.88 147.153 7.4 147.473 7.12C148.073 6.64 148.753 6.56 148.753 6.12C148.753 5.6 148.513 4.96 148.233 4.96C146.553 4.88 143.673 4.96 142.193 5.08C141.953 5.44 141.793 5.92 141.793 6.36C141.793 6.68 142.233 6.72 142.913 6.88C143.633 7.04 144.033 7.68 144.033 9.24V25.32C144.033 29.68 143.153 32.56 140.993 34.52C140.353 35.08 139.753 35.28 139.273 35.28C138.633 35.28 138.232 35.08 137.872 34.84C137.632 35 137.072 35.52 136.993 35.76C137.392 36.56 138.553 38.2 138.913 38.56C139.073 38.72 139.233 38.88 139.553 38.88ZM162.048 32.12C165.008 32.12 167.408 30.96 168.848 29.52C169.048 29.32 169.088 29.2 169.088 29C169.088 28.68 168.288 27.6 168.088 27.6C167.968 27.6 167.928 27.68 167.768 27.84C166.448 29 164.808 29.8 162.288 29.8C158.608 29.8 156.368 27.08 156.248 22.84L168.848 22.88C169.248 22.88 169.368 22.44 169.368 21.68C169.368 16.92 167.168 12.52 161.808 12.52C157.008 12.52 153.488 16.6 153.488 22.72C153.488 28.32 156.888 32.12 162.048 32.12ZM156.328 20.84C156.608 16.48 159.088 14.76 161.488 14.76C165.528 14.76 166.608 17.8 166.608 20.88L156.328 20.84ZM182.559 32.12C186.119 32.12 191.279 29.64 191.279 21.8C191.279 16.12 187.399 12.52 182.559 12.52C178.519 12.52 173.719 15.36 173.719 22.64C173.719 28.04 177.039 32.12 182.559 32.12ZM182.919 29.8C179.239 29.8 176.519 27.36 176.519 22.12C176.519 16.2 179.839 14.84 182.319 14.84C186.279 14.84 188.479 17.8 188.479 22.36C188.479 27.4 185.879 29.8 182.919 29.8ZM196.705 31.72C198.425 31.6 200.785 31.6 202.025 31.64C202.265 31.32 202.425 30.88 202.425 30.48C202.425 30.16 202.185 30.16 201.665 30C200.985 29.8 200.665 29.24 200.665 27.88C200.665 25.48 200.705 21.48 200.705 17.8C202.105 16.48 204.465 15.12 206.305 15.12C209.065 15.12 210.065 16.84 210.065 19.8C210.025 29.12 210.065 25.36 210.025 27.76C210.025 28.8 209.865 29.44 209.545 29.72C208.945 30.24 208.345 30.24 208.345 30.64C208.345 31.16 208.585 31.72 208.825 31.72C210.545 31.6 212.905 31.6 214.145 31.64C214.385 31.32 214.545 30.88 214.545 30.48C214.545 30.16 214.225 30.16 213.705 30C213.025 29.8 212.665 29.32 212.665 27.88V19.08C212.665 14.96 210.625 12.52 207.145 12.52C205.065 12.52 202.465 13.8 200.545 15.64V13.04C200.545 12.68 200.465 12.52 200.305 12.52C199.985 12.52 197.585 13.08 196.745 13.4C196.665 13.52 196.585 13.64 196.585 13.92C196.585 14.24 197.225 14.44 197.465 14.88C197.785 15.48 198.105 16.96 198.105 19.96C198.105 23.44 198.105 25.44 198.025 27.76C197.985 28.8 197.865 29.44 197.545 29.72C196.945 30.24 196.225 30.24 196.225 30.64C196.225 31.16 196.465 31.72 196.705 31.72ZM228.322 31.52C223.242 31.52 222.402 30.48 222.402 29.48C222.402 28.68 222.882 27.72 224.042 26.92C224.682 27.04 225.322 27.12 226.002 27.12C230.122 27.12 233.202 24.16 233.202 19.32C233.202 17.88 232.762 16.52 232.002 15.44L235.122 15.48C235.882 15.48 236.282 14.6 236.282 13.64C236.282 13.36 236.162 13.2 235.802 13.2C235.322 13.2 233.602 13.44 229.722 13.44C228.682 12.84 227.402 12.52 225.962 12.52C222.202 12.52 218.642 15.56 218.642 20.32C218.642 22.92 220.042 25.12 222.242 26.28C220.562 27.4 219.642 29 219.642 30.12C219.642 31.32 220.282 32.2 221.362 32.8C219.202 33.8 217.722 35.68 217.722 37.92C217.722 41.96 221.362 43.64 226.522 43.64C232.882 43.64 236.122 40.56 236.122 36.76C236.122 32.76 233.242 31.52 228.322 31.52ZM225.802 14.64C229.322 14.64 230.482 17.28 230.482 20C230.482 23 228.962 25 226.322 25C223.362 25 221.362 23.28 221.362 19.68C221.362 15.92 223.522 14.64 225.802 14.64ZM226.802 41.4C222.522 41.4 220.682 39.92 220.602 37.52C220.562 36 221.202 34.32 223.242 33.56C224.322 33.8 225.602 33.96 226.962 33.96C231.882 34 233.442 34.72 233.442 37.12C233.442 40 230.562 41.4 226.802 41.4ZM247.635 32.12C250.435 32.12 252.875 30.92 254.315 29.48C254.515 29.28 254.555 29.16 254.555 28.96C254.555 28.64 253.755 27.56 253.555 27.56C253.435 27.56 253.395 27.64 253.235 27.8C251.915 28.96 250.235 29.76 247.875 29.76C244.235 29.76 241.835 26.84 241.875 22.44C241.915 17.04 244.515 14.8 247.915 14.8C249.435 14.8 250.395 15.2 251.155 15.76C251.915 16.32 252.275 17.24 252.395 17.32C252.515 17.4 253.035 17.32 253.195 17.24C253.635 16.76 254.275 14.88 254.275 14.56C254.275 14.28 254.235 14.2 253.915 14C252.595 13.16 250.755 12.52 247.995 12.52C242.875 12.52 239.035 16.44 239.035 22.72C239.035 27.76 241.835 32.12 247.635 32.12ZM275.613 30C274.933 29.8 274.573 29.32 274.573 27.88V19.08C274.573 14.96 272.533 12.52 269.053 12.52C267.013 12.52 264.533 13.76 262.613 15.52C262.613 5.44 262.773 1.6 262.773 0.799998C262.773 0.439998 262.693 0.28 262.533 0.28C262.213 0.28 259.453 0.799998 258.653 1.04C258.573 1.16 258.493 1.28 258.493 1.56C258.493 1.88 259.053 2.2 259.373 2.6C260.013 3.36 260.053 5.12 260.053 15.16C260.053 18.64 260.053 25.44 259.973 27.76C259.933 28.8 259.693 29.48 259.373 29.76C258.773 30.28 258.093 30.24 258.093 30.64C258.093 31.16 258.333 31.72 258.573 31.72C260.293 31.6 262.733 31.6 263.973 31.64C264.213 31.32 264.373 30.88 264.373 30.48C264.373 30.16 264.133 30.16 263.613 30C262.933 29.8 262.613 29.24 262.613 27.88C262.613 25.48 262.653 21.48 262.653 17.8C264.053 16.48 266.372 15.12 268.213 15.12C270.973 15.12 271.973 16.84 271.973 19.8C271.973 29.12 271.933 25.36 271.933 27.76C271.933 28.8 271.773 29.44 271.453 29.72C270.853 30.24 270.253 30.24 270.253 30.64C270.253 31.16 270.493 31.72 270.733 31.72C272.453 31.6 274.813 31.6 276.053 31.64C276.293 31.32 276.453 30.88 276.453 30.48C276.453 30.16 276.133 30.16 275.613 30ZM289.001 32.12C291.961 32.12 294.361 30.96 295.801 29.52C296.001 29.32 296.041 29.2 296.041 29C296.041 28.68 295.241 27.6 295.041 27.6C294.921 27.6 294.881 27.68 294.721 27.84C293.401 29 291.761 29.8 289.241 29.8C285.561 29.8 283.321 27.08 283.201 22.84L295.801 22.88C296.201 22.88 296.321 22.44 296.321 21.68C296.321 16.92 294.121 12.52 288.761 12.52C283.961 12.52 280.441 16.6 280.441 22.72C280.441 28.32 283.841 32.12 289.001 32.12ZM283.281 20.84C283.561 16.48 286.041 14.76 288.441 14.76C292.481 14.76 293.561 17.8 293.561 20.88L283.281 20.84Z" fill="black"/>
</svg>
