<svg width="237" height="184" viewBox="0 0 237 184" fill="none" xmlns="http://www.w3.org/2000/svg">
<path d="M130.599 7.21831C130.798 7.21831 130.814 7.21831 130.814 7.41839C130.814 7.97247 130.446 8.48037 130.185 8.46498L127.197 8.31107C127.028 8.97289 126.875 9.6347 126.737 10.2811L125.71 15.2217C125.297 17.1917 125.71 17.6227 126.538 17.6534C127.331 17.6854 128.11 17.4285 128.729 16.9301C128.852 16.8377 128.883 16.8223 128.959 16.8223C129.036 16.8223 129.373 17.4687 129.358 17.6688C129.342 17.8689 129.281 17.8689 129.143 17.9766C128.293 18.7115 127.2 19.1011 126.078 19.0694C124.546 18.9771 123.396 18.069 123.979 15.4833L125.143 10.2503L125.664 8.21872L123.626 8.11099C123.473 8.11099 123.412 8.00325 123.412 7.81856C123.412 7.32604 123.795 6.84892 124.025 6.86431L125.925 6.95666C126.032 6.38719 126.124 5.92546 126.201 5.63303C126.253 5.26035 126.253 4.88216 126.201 4.50948C126.204 4.4465 126.22 4.38492 126.249 4.32907C126.278 4.27323 126.319 4.22448 126.369 4.18627C126.924 4.01371 127.493 3.89517 128.07 3.83228C128.178 3.83228 128.178 3.94001 128.07 4.15549C127.917 5.09434 127.703 6.09476 127.473 7.049L130.599 7.21831Z" fill="black"/>
<path d="M141.894 19.5312C141.239 19.9234 140.475 20.0909 139.717 20.0084C139.563 20.0066 139.412 19.9694 139.274 19.8998C139.137 19.8302 139.017 19.73 138.924 19.6068C138.831 19.4836 138.767 19.3406 138.737 19.1888C138.707 19.037 138.712 18.8804 138.752 18.7309C138.752 18.2846 139.84 15.0371 140.53 12.5745C141.158 10.4351 140.76 9.49628 139.702 9.37315C138.17 9.20385 136.085 11.1739 134.492 14.0674C133.977 15.7181 133.587 17.4057 133.327 19.1157C132.862 19.2665 132.37 19.3086 131.886 19.2388C131.626 19.2388 131.457 19.1157 131.534 18.8848C131.611 18.654 132.775 14.7446 134.139 9.65019C135.886 3.03204 136.162 1.95466 136.039 1.43137C135.917 0.908072 135.503 0.769552 135.518 0.569469C135.531 0.431698 135.597 0.304425 135.702 0.215475C136.269 0.123128 138.032 0 138.231 0C138.43 0 138.338 0 138.323 0.184693C138.308 0.369385 137.158 4.30949 135.258 11.2201C136.79 8.95759 138.675 7.71092 140.269 7.88022C142.123 8.0803 142.982 9.69636 142.277 12.2051C141.572 14.7138 140.928 16.7301 140.652 17.869C140.514 18.4846 140.652 18.654 140.882 18.6693C141.183 18.6923 141.485 18.6923 141.786 18.6693C141.878 18.6386 141.94 19.3004 141.894 19.5312Z" fill="black"/>
<path d="M146.491 13.3902C146.901 12.4165 147.109 11.3692 147.104 10.312C147.104 10.0196 146.721 9.85029 146.752 9.6502C146.759 9.58899 146.781 9.53048 146.816 9.47959C146.85 9.4287 146.897 9.38692 146.951 9.35777C147.731 9.22936 148.52 9.16246 149.311 9.15769C149.418 9.15769 149.433 9.15769 149.403 9.45012C149.372 9.74255 148.974 10.7891 148.1 13.4364C147.227 16.0837 146.798 17.6074 146.476 18.7463C146.307 19.3466 146.476 19.5159 146.66 19.5466C146.96 19.5732 147.263 19.5732 147.564 19.5466C147.702 19.5466 147.702 20.2239 147.564 20.4701C146.887 20.8285 146.113 20.9581 145.357 20.8395C144.744 20.7472 144.346 20.3932 144.468 19.5466C144.606 19.0541 144.913 18.4693 146.491 13.3902ZM151.089 4.70968C151.138 4.56033 151.153 4.40158 151.132 4.2456C151.111 4.08962 151.054 3.94055 150.967 3.80981C150.88 3.67907 150.764 3.57013 150.628 3.49134C150.493 3.41255 150.341 3.36601 150.184 3.35526C149.78 3.32114 149.379 3.44942 149.069 3.71197C148.758 3.97452 148.564 4.34991 148.529 4.75585C148.483 4.90428 148.47 5.06139 148.492 5.21542C148.515 5.36944 148.572 5.51637 148.659 5.6452C148.746 5.77403 148.861 5.8814 148.995 5.95928C149.129 6.03716 149.279 6.08351 149.433 6.09487C149.838 6.13345 150.241 6.00922 150.554 5.74949C150.867 5.48975 151.065 5.11575 151.104 4.70968H151.089Z" fill="black"/>
<path d="M160.406 22.825C159.723 23.1466 158.956 23.2435 158.214 23.102C158.062 23.084 157.915 23.0312 157.786 22.9477C157.656 22.8642 157.547 22.7521 157.468 22.6201C157.388 22.488 157.339 22.3394 157.325 22.1855C157.311 22.0317 157.332 21.8766 157.387 21.7322C157.479 21.3013 158.766 18.1461 159.686 15.7913C160.498 13.7135 160.191 12.7131 159.119 12.5284C157.586 12.2051 155.333 13.9751 153.479 16.7147C152.819 18.286 152.266 19.9006 151.824 21.5475C151.351 21.6625 150.857 21.6625 150.383 21.5475C150.123 21.5475 149.954 21.3936 150.062 21.1473C150.169 20.9011 150.904 19.285 152.713 14.3291C153.182 13.3718 153.424 12.318 153.418 11.2509C153.418 10.9585 153.065 10.7738 153.096 10.5737C153.111 10.4696 153.166 10.3757 153.249 10.312C154.045 10.2635 154.844 10.2635 155.64 10.312C155.747 10.312 155.732 10.312 155.64 10.6045C155.548 10.8969 155.027 12.2821 154.399 13.9443C156.176 11.8512 158.123 10.8661 159.716 11.1432C161.555 11.5125 162.245 13.2056 161.249 15.6374C160.253 18.0691 159.655 20.0084 159.379 21.055C159.18 21.6553 159.272 21.8246 159.517 21.8707C159.818 21.8983 160.12 21.8983 160.421 21.8707C160.498 21.9323 160.467 22.5787 160.406 22.825Z" fill="black"/>
<path d="M172.543 26.057C171.851 26.3377 171.086 26.381 170.367 26.1801C169.846 26.0416 169.678 25.7184 169.478 25.1643C168.988 23.7483 168.237 21.6705 167.547 19.7774C167.547 19.4081 167.762 18.9617 167.976 18.9463C170.704 19.1464 172.574 18.777 173.018 17.2379C173.099 17.0563 173.136 16.858 173.126 16.6593C173.116 16.4606 173.06 16.267 172.961 16.0944C172.863 15.9218 172.725 15.7751 172.559 15.6663C172.393 15.5574 172.204 15.4894 172.007 15.4679C171.044 15.4055 170.08 15.5722 169.193 15.9547C168.306 16.3371 167.522 16.9245 166.904 17.6689C165.843 19.8025 164.922 22.0029 164.145 24.2562C163.663 24.3361 163.169 24.2992 162.705 24.1485C162.444 24.1485 162.291 23.9484 162.414 23.7329C162.536 23.5175 164.268 19.839 166.459 15.037C169.31 8.88058 169.693 7.75703 169.662 7.21834C169.662 6.92591 169.264 6.49497 169.325 6.29488C169.344 6.22799 169.378 6.16597 169.422 6.11291C169.467 6.05985 169.523 6.01696 169.586 5.98706C170.153 5.98706 171.884 6.12558 172.084 6.17175C172.283 6.21793 172.206 6.2641 172.176 6.38723C172.145 6.51036 170.965 8.86519 168.038 15.2371L167.823 15.6988C168.471 15.0996 169.248 14.6575 170.093 14.4067C170.937 14.1559 171.828 14.103 172.697 14.2521C173.048 14.3032 173.385 14.43 173.683 14.6238C173.981 14.8175 174.234 15.0737 174.425 15.3747C174.615 15.6757 174.739 16.0146 174.787 16.368C174.835 16.7214 174.807 17.0812 174.704 17.4226C174.137 19.485 171.823 20.1468 169.386 20.0237C169.938 21.6859 170.536 23.2866 171.041 24.4563C171.095 24.6019 171.185 24.731 171.303 24.8309C171.422 24.9307 171.564 24.9979 171.716 25.0258C172.008 25.0905 172.306 25.1215 172.605 25.1181C172.681 25.1643 172.635 25.8261 172.543 26.057Z" fill="black"/>
<path d="M227.453 86.0976C227.427 92.6496 225.615 99.0693 222.211 104.659C207.653 129.285 164.712 147.262 114.002 147.262C98.5012 147.321 83.0463 145.565 67.9507 142.029C28.1059 132.471 0.383057 111.031 0.383057 86.0976C0.383057 52.3604 51.2158 24.9951 113.925 24.9951C176.635 24.9951 227.453 52.3296 227.453 86.0976Z" fill="white"/>
<path d="M113.926 147.6C98.3934 147.661 82.9074 145.899 67.7822 142.352C26.6041 132.517 0 110.431 0 86.0976C0 52.1911 51.1086 24.6257 113.926 24.6257C176.742 24.6257 227.836 52.2065 227.836 86.113C227.774 92.7251 225.92 99.1954 222.472 104.828C207.377 130.408 163.762 147.6 113.926 147.6ZM113.926 25.3799C51.5224 25.3799 0.766246 52.622 0.766246 86.0976C0.766246 110.061 27.1404 131.855 67.9507 141.598C83.0216 145.126 98.4507 146.877 113.926 146.815C163.502 146.815 206.856 129.777 221.813 104.413C225.194 98.897 227.011 92.559 227.069 86.0822C227.069 52.6221 176.313 25.3799 113.926 25.3799Z" fill="black"/>
<path d="M71.7821 96.0402C71.92 95.9171 71.9813 95.9325 72.0733 96.0402C72.4564 96.4404 72.5943 97.0253 72.3798 97.21L70.2496 99.2262C70.6174 99.7957 70.9699 100.381 71.3377 100.919L74.1728 105.09C75.3068 106.768 75.9198 106.722 76.5022 106.183C77.0627 105.641 77.4107 104.914 77.483 104.136C77.483 103.982 77.483 103.951 77.483 103.89C77.8041 103.896 78.115 104.004 78.3718 104.197C78.4638 104.197 78.4485 104.382 78.4485 104.567C78.383 105.684 77.908 106.736 77.1152 107.522C75.9811 108.569 74.5406 108.769 73.0847 106.537L70.1577 102.058L68.993 100.334L67.4605 101.72C67.3532 101.827 67.2306 101.72 67.108 101.72C66.7709 101.35 66.6789 100.765 66.8322 100.611L68.242 99.3031C67.9049 98.8414 67.629 98.4412 67.4758 98.1796C67.253 97.8781 66.9901 97.6088 66.6942 97.3793C66.6489 97.3364 66.6141 97.2834 66.5928 97.2246C66.5715 97.1658 66.5643 97.1028 66.5716 97.0407C66.8371 96.5008 67.15 95.9857 67.5064 95.5015C67.5831 95.4246 67.6444 95.5015 67.7823 95.6862C68.3493 96.4404 68.901 97.2253 69.4374 98.118L71.7821 96.0402Z" fill="black"/>
<path d="M88.8847 97.6407C88.6219 98.3618 88.1392 98.9812 87.5054 99.4107C87.3857 99.5035 87.2469 99.5682 87.099 99.6C86.9512 99.6318 86.7981 99.6299 86.6511 99.5945C86.5041 99.559 86.3668 99.491 86.2495 99.3952C86.1321 99.2995 86.0376 99.1785 85.9729 99.0413C85.7124 98.6719 84.4404 95.5013 83.429 93.1773C82.5401 91.1457 81.636 90.6686 80.7471 91.2688C79.3985 92.1769 79.1227 94.978 79.7357 98.2256C80.3749 99.8225 81.1384 101.366 82.0191 102.843C81.7675 103.267 81.4146 103.621 80.9923 103.874C80.7624 104.028 80.5785 104.059 80.4866 103.874C80.3946 103.689 78.8162 99.8878 76.5941 95.1012C73.7436 88.9448 73.2379 87.8674 72.8088 87.5596C72.3797 87.2517 72.0119 87.3749 71.9046 87.2056C71.8628 87.1518 71.8329 87.0896 71.8171 87.0232C71.8012 86.9568 71.7997 86.8878 71.8127 86.8208C72.3621 86.1794 72.9453 85.568 73.5597 84.9893C73.5597 84.9893 73.6823 84.9893 73.759 85.0662C73.8356 85.1432 75.4753 88.9755 78.3564 95.5475C78.1419 92.7771 78.7549 90.6532 80.0881 89.7605C81.4214 88.8678 83.3217 89.4065 84.3791 91.7921C85.4366 94.1777 86.2334 96.1324 86.7545 97.179C87.0457 97.7484 87.2296 97.7946 87.4441 97.6561C87.6756 97.464 87.8956 97.2584 88.1031 97.0404C88.2563 96.9635 88.7161 97.4252 88.8847 97.6407Z" fill="black"/>
<path d="M86.8158 82.4961C86.6826 82.5784 86.5325 82.6295 86.3769 82.6457C86.2213 82.6619 86.064 82.6426 85.9168 82.5894C85.7696 82.5362 85.6362 82.4503 85.5266 82.3383C85.4169 82.2262 85.3338 82.0908 85.2833 81.942C85.0761 81.5909 85.0162 81.1716 85.1168 80.7762C85.2174 80.3808 85.4702 80.0416 85.8197 79.8334C85.9522 79.748 86.1025 79.6944 86.2589 79.6767C86.4154 79.6589 86.5738 79.6776 86.7219 79.7311C86.8701 79.7847 87.0039 79.8717 87.1132 79.9855C87.2225 80.0994 87.3043 80.2369 87.3522 80.3875C87.5594 80.7386 87.6193 81.1579 87.5187 81.5533C87.4182 81.9488 87.1653 82.2879 86.8158 82.4961ZM90.7237 96.2403C90.7696 96.3923 90.851 96.5312 90.961 96.6454C91.0709 96.7595 91.2064 96.8458 91.3562 96.8969C91.506 96.9481 91.6657 96.9626 91.8222 96.9394C91.9787 96.9163 92.1275 96.856 92.2562 96.7636C92.9093 96.4168 93.4434 95.8805 93.7887 95.2245C93.6967 94.9936 93.2983 94.4549 93.1757 94.5319C92.9449 94.7305 92.699 94.9107 92.4401 95.0706C92.2255 95.1937 92.0416 95.0706 91.8271 94.5319C91.4133 93.4237 90.8463 91.8384 90.0341 89.2835C89.2218 86.7286 88.9613 85.7128 88.7314 85.2819C88.5016 84.8509 88.5935 85.051 88.5016 85.0972C87.8649 85.5625 87.2654 86.0771 86.7085 86.6363C86.6826 86.6916 86.6691 86.7521 86.6691 86.8133C86.6691 86.8745 86.6826 86.9349 86.7085 86.9903C86.8005 87.1596 87.1683 87.1134 87.3828 87.3135C88.0098 88.1744 88.458 89.1532 88.7008 90.1916C90.4172 95.1475 90.5091 95.8401 90.7237 96.2403Z" fill="black"/>
<path d="M105.543 90.053C105.145 90.7006 104.556 91.2067 103.857 91.4998C103.719 91.5689 103.567 91.6056 103.413 91.6069C103.259 91.6082 103.107 91.5742 102.968 91.5074C102.829 91.4406 102.707 91.3427 102.612 91.2214C102.516 91.1 102.449 90.9584 102.416 90.8072C102.263 90.3916 101.604 87.0517 101.083 84.6507C100.639 82.4652 99.8418 81.8188 98.8304 82.2343C97.2979 82.85 96.455 85.5434 96.409 88.8525C96.7167 90.544 97.1469 92.2107 97.6963 93.8392C97.3581 94.1907 96.9438 94.4592 96.4857 94.6241C96.2251 94.7319 96.0412 94.7319 95.9953 94.4702C95.9493 94.2086 95.6888 92.454 94.4628 87.3134C94.3314 86.2502 93.9534 85.2328 93.3594 84.3429C93.1755 84.1274 92.8077 84.1428 92.7311 83.9581C92.7001 83.9043 92.6838 83.8433 92.6838 83.7811C92.6838 83.719 92.7001 83.658 92.7311 83.6041C93.3521 83.0973 94.0076 82.6344 94.6927 82.2189C94.7846 82.2189 94.7999 82.219 94.8765 82.4344C94.9532 82.6499 95.2903 84.1736 95.6734 85.9128C96.0106 83.1886 97.0833 81.2955 98.5699 80.6337C100.317 79.9257 101.819 80.9569 102.386 83.4964C102.953 86.0359 103.29 88.1137 103.612 89.2681C103.78 89.8683 103.949 89.9606 104.179 89.8683C104.444 89.7265 104.7 89.5671 104.945 89.3912C105.114 89.2681 105.451 89.8221 105.543 90.053Z" fill="black"/>
<path d="M114.646 76.6781L116.178 88.4369C116.669 92.2231 115.887 95.1628 112.5 96.1324C111.174 96.4088 109.799 96.3506 108.501 95.9631C108.271 95.9631 108.271 95.8092 108.24 95.7169C108.244 95.1626 108.353 94.6141 108.562 94.1008C108.632 94.0255 108.723 93.9721 108.822 93.9469C109.324 94.3204 109.9 94.5799 110.511 94.7075C111.123 94.8351 111.754 94.8276 112.362 94.6857C114.401 94.1008 114.952 92.1769 114.585 88.991L114.048 84.6507C113.512 86.9594 112.378 88.8371 110.769 89.268C109.16 89.699 107.275 88.2522 106.524 85.5896C105.206 80.9723 107.321 77.54 110.477 76.632C111.839 76.2221 113.293 76.2382 114.646 76.6781ZM113.221 77.8325C112.377 77.6867 111.512 77.7394 110.692 77.9864C108.332 78.679 107.091 81.5417 108.071 84.9739C108.746 87.3288 109.788 88.0521 110.769 87.6981C112.301 87.2672 113.343 84.466 113.619 81.2185L113.221 77.8325Z" fill="black"/>
<path d="M124.025 82.5884C123.825 81.6341 123.304 81.4187 121.68 80.88C120.055 80.3413 118.615 79.7872 118.339 78.1712C117.941 76.1395 119.213 74.5389 121.619 74.0464C122.559 73.836 123.538 73.8838 124.454 74.1849C124.668 74.1849 124.73 74.308 124.776 74.4927C124.75 74.9897 124.641 75.4788 124.454 75.9395C124.325 76.0337 124.169 76.0825 124.009 76.078C123.711 75.7708 123.337 75.5479 122.925 75.4317C122.514 75.3156 122.079 75.3102 121.665 75.4162C120.331 75.6932 119.626 76.5243 119.856 77.6786C120.086 78.833 120.852 78.9253 122.247 79.4332C124.254 80.1566 125.22 80.4798 125.542 82.0189C126.017 84.266 124.576 85.9282 122.124 86.4208C120.978 86.6222 119.801 86.543 118.692 86.1899C118.462 86.1899 118.385 86.0668 118.339 85.8821C118.366 85.3553 118.474 84.836 118.661 84.343C118.805 84.2528 118.967 84.1951 119.136 84.1737C119.531 84.5215 120.001 84.7711 120.51 84.9021C121.018 85.0331 121.55 85.042 122.063 84.9278C123.626 84.6508 124.254 83.7581 124.025 82.5884Z" fill="black"/>
<path d="M236.617 134.41C236.617 159.128 199.393 179.167 153.479 179.167C147.199 179.171 140.924 178.786 134.691 178.013C132.867 177.797 131.074 177.536 129.296 177.228C95.183 171.656 70.3413 154.603 70.3413 134.41C70.499 127.783 72.9665 121.421 77.3141 116.433C78.3927 115.137 79.5385 113.899 80.7469 112.724C94.9225 98.9644 122.124 89.6375 153.479 89.6375C199.393 89.6682 236.617 109.692 236.617 134.41Z" fill="white"/>
<path d="M153.479 179.552C147.183 179.557 140.893 179.171 134.645 178.398C132.821 178.182 130.997 177.905 129.235 177.613C93.7732 171.826 69.9583 154.526 69.9583 134.41C70.1008 127.694 72.6032 121.245 77.023 116.202C78.1017 114.887 79.2529 113.633 80.4711 112.447C95.2137 98.1641 123.182 89.2681 153.479 89.2681C199.454 89.2681 237 109.507 237 134.395C237 159.282 199.531 179.552 153.479 179.552ZM153.479 90.053C123.366 90.053 95.5969 98.8413 81.0075 113.001C79.8087 114.165 78.6731 115.393 77.6054 116.68C73.3061 121.593 70.8696 127.871 70.7245 134.41C70.7245 153.757 94.8306 171.21 129.358 176.859C131.12 177.151 132.928 177.413 134.737 177.643C140.955 178.404 147.214 178.784 153.479 178.782C199.117 178.782 236.234 158.882 236.234 134.41C236.234 109.938 199.117 90.053 153.479 90.053Z" fill="black"/>
<path d="M121.772 119.604C119.121 118.557 118.707 115.971 119.749 113.447C121.281 109.738 124.561 107.599 127.932 108.938C130.584 109.984 130.997 112.555 129.955 115.094C128.499 118.788 125.143 120.943 121.772 119.604ZM122.599 118.403C124.714 119.25 127.105 117.788 128.392 114.54C129.266 112.278 128.699 110.739 127.105 110.108C124.975 109.276 122.599 110.708 121.327 113.894C120.439 116.218 121.067 117.772 122.599 118.403Z" fill="black"/>
<path d="M130.89 121.451C131.963 118.942 133.22 116.31 133.955 114.125C134.017 113.93 134.035 113.725 134.009 113.523C133.982 113.32 133.912 113.127 133.802 112.955C133.649 112.724 133.664 112.663 133.71 112.586C133.785 112.455 133.905 112.356 134.047 112.309C134.803 112.452 135.55 112.637 136.285 112.863C136.285 112.863 136.285 113.017 136.285 113.232C134.752 116.726 133.48 119.619 132.438 121.928C132.223 122.405 132.223 122.698 132.438 122.851C133.158 123.282 137.802 121.82 139.656 118.68C139.892 118.371 140.061 118.015 140.15 117.636C140.24 117.257 140.249 116.863 140.177 116.48C140.177 116.341 140.284 116.141 140.392 116.079C140.908 116.051 141.426 116.109 141.924 116.249C142.185 116.403 141.924 117.788 141.342 118.711C138.629 123.329 132.653 124.868 131.243 124.067C130.584 123.606 130.369 122.728 130.89 121.451Z" fill="black"/>
<path d="M144.805 131.732C144.756 131.781 144.695 131.818 144.628 131.84C144.562 131.861 144.491 131.866 144.422 131.855C142.925 131.935 141.454 131.434 140.315 130.454C138.17 128.515 138.783 125.837 140.499 123.99C143.242 120.912 147.288 120.312 149.694 122.451C150.022 122.687 150.295 122.991 150.495 123.342C150.695 123.693 150.818 124.084 150.854 124.487C150.89 124.89 150.84 125.296 150.706 125.678C150.572 126.06 150.357 126.408 150.077 126.699C148.545 128.515 145.112 127.977 141.602 125.283C141.308 125.562 141.074 125.899 140.914 126.272C140.754 126.645 140.671 127.047 140.671 127.453C140.671 127.86 140.754 128.262 140.914 128.635C141.074 129.008 141.308 129.344 141.602 129.623C142.5 130.348 143.624 130.729 144.775 130.701C144.928 130.701 145.004 130.701 145.05 130.701C145.079 131.062 144.993 131.423 144.805 131.732ZM142.43 124.39C145.204 126.407 147.502 127.13 148.774 125.699C148.925 125.546 149.042 125.363 149.118 125.162C149.194 124.962 149.227 124.747 149.216 124.532C149.204 124.318 149.148 124.108 149.051 123.917C148.954 123.725 148.818 123.556 148.652 123.421C147.027 121.959 144.545 122.436 142.43 124.39Z" fill="black"/>
<path d="M159.057 135.287C158.518 135.564 157.939 135.756 157.341 135.857C157.198 135.766 157.082 135.638 157.004 135.487C157.114 135.298 157.173 135.083 157.173 134.864C157.173 134.645 157.114 134.43 157.004 134.241C156.238 133.086 153.602 132.825 150.322 133.379C148.74 134.044 147.204 134.815 145.725 135.687C145.314 135.425 144.969 135.072 144.713 134.656C144.56 134.425 144.529 134.241 144.713 134.148C144.897 134.056 146.614 133.41 151.364 131.162C152.375 130.827 153.29 130.252 154.031 129.485C154.199 129.239 154.123 128.885 154.276 128.777C154.331 128.75 154.391 128.736 154.452 128.736C154.513 128.736 154.574 128.75 154.629 128.777C155.255 129.277 155.844 129.822 156.391 130.408C156.391 130.501 156.391 130.547 156.176 130.685C155.962 130.824 154.644 131.44 152.943 132.148C155.701 131.932 157.786 132.502 158.674 133.81C158.921 134.148 159.088 134.537 159.165 134.949C159.211 135.103 159.226 135.18 159.057 135.287Z" fill="black"/>
<path d="M153.74 145.569C154.659 145.276 154.843 144.737 155.272 143.06C155.701 141.382 156.069 139.982 157.647 139.474C159.609 138.873 161.325 139.982 162.046 142.352C162.335 143.274 162.377 144.256 162.168 145.199C162.168 145.43 162.076 145.492 161.892 145.553C161.4 145.574 160.908 145.511 160.437 145.368C160.331 145.242 160.267 145.086 160.253 144.922C160.532 144.598 160.721 144.204 160.799 143.782C160.877 143.36 160.842 142.925 160.697 142.521C160.299 141.213 159.41 140.597 158.291 140.982C157.172 141.367 157.142 142.09 156.759 143.522C156.222 145.615 156.008 146.6 154.521 147.077C152.33 147.769 150.552 146.492 149.816 143.999C149.496 142.876 149.459 141.691 149.709 140.551C149.709 140.32 149.801 140.228 149.985 140.166C150.502 140.148 151.019 140.211 151.517 140.351C151.625 140.479 151.699 140.633 151.732 140.797C151.421 141.239 151.216 141.746 151.134 142.28C151.052 142.814 151.094 143.36 151.257 143.876C151.625 145.368 152.606 145.907 153.74 145.569Z" fill="black"/>
<path d="M85.3138 183.615C118.102 183.615 144.683 169.31 144.683 151.663C144.683 134.017 118.102 119.712 85.3138 119.712C52.5254 119.712 25.9451 134.017 25.9451 151.663C25.9451 169.31 52.5254 183.615 85.3138 183.615Z" fill="white"/>
<path d="M85.3138 184C52.3653 184 25.5466 169.486 25.5466 151.679C25.5466 133.871 52.3499 119.358 85.3138 119.358C118.278 119.358 145.081 133.856 145.081 151.679C145.081 169.502 118.247 184 85.3138 184ZM85.3138 120.096C52.7944 120.096 26.3282 134.256 26.3282 151.663C26.3282 169.071 52.7944 183.231 85.3138 183.231C117.833 183.231 144.284 169.071 144.284 151.663C144.284 134.256 117.833 120.05 85.3138 120.05V120.096Z" fill="black"/>
</svg>
