<svg width="342" height="184" viewBox="0 0 342 184" fill="none" xmlns="http://www.w3.org/2000/svg">
<rect width="342" height="184" fill="#FCFCFC"/>
<path d="M13.48 101.36C14.1733 101.36 14.8 101.293 15.36 101.16C15.9467 101 16.5467 100.813 17.16 100.6V106.16C16.3333 106.507 15.4533 106.8 14.52 107.04C13.5867 107.28 12.4 107.4 10.96 107.4C9.52 107.4 8.25333 107.173 7.16 106.72C6.09333 106.267 5.25333 105.493 4.64 104.4C4.02667 103.28 3.72 101.72 3.72 99.72V90.6H1.04V87.48L4.44 85.08L6.4 80.44H11.4V84.88H16.84V90.6H11.4V99.2C11.4 100.64 12.0933 101.36 13.48 101.36ZM28.6784 80.92C28.6784 82.5467 28.6384 83.92 28.5584 85.04C28.4784 86.16 28.4118 87.0133 28.3584 87.6H28.7184C29.4384 86.4533 30.3051 85.6533 31.3184 85.2C32.3318 84.72 33.4918 84.48 34.7984 84.48C36.2651 84.48 37.5851 84.76 38.7584 85.32C39.9318 85.88 40.8651 86.76 41.5584 87.96C42.2784 89.1333 42.6384 90.68 42.6384 92.6V107H34.9584V94.92C34.9584 91.96 34.0784 90.48 32.3184 90.48C30.9318 90.48 29.9718 91.0667 29.4384 92.24C28.9318 93.4133 28.6784 95.0933 28.6784 97.28V107H21.0384V76.6H28.6784V80.92ZM51.7153 75.96C52.8086 75.96 53.7553 76.1867 54.5553 76.64C55.382 77.0933 55.7953 78 55.7953 79.36C55.7953 80.6667 55.382 81.56 54.5553 82.04C53.7553 82.4933 52.8086 82.72 51.7153 82.72C50.5953 82.72 49.6353 82.4933 48.8353 82.04C48.062 81.56 47.6753 80.6667 47.6753 79.36C47.6753 78 48.062 77.0933 48.8353 76.64C49.6353 76.1867 50.5953 75.96 51.7153 75.96ZM55.5153 84.88V107H47.8753V84.88H55.5153ZM74.6831 84.48C76.9765 84.48 78.8431 85.12 80.2831 86.4C81.7231 87.68 82.4431 89.7467 82.4431 92.6V107H74.8031V94.92C74.8031 93.4533 74.5898 92.3467 74.1631 91.6C73.7365 90.8533 73.0565 90.48 72.1231 90.48C70.6831 90.48 69.7098 91.0667 69.2031 92.24C68.7231 93.4133 68.4831 95.1067 68.4831 97.32V107H60.8431V84.88H66.6031L67.6431 87.8H67.9231C68.6165 86.76 69.5231 85.9467 70.6431 85.36C71.7898 84.7733 73.1365 84.48 74.6831 84.48ZM95.32 88.56C95.32 89.4667 95.28 90.4667 95.2 91.56C95.12 92.6533 95.0133 93.6533 94.88 94.56H95.04C95.3333 94.1067 95.7067 93.5333 96.16 92.84C96.64 92.1467 97.0533 91.5733 97.4 91.12L102.36 84.88H110.88L103.2 94.28L111.36 107H102.64L97.8 99.08L95.32 100.96V107H87.64V76.6H95.32V88.56ZM135.238 101.36C135.931 101.36 136.558 101.293 137.118 101.16C137.704 101 138.304 100.813 138.918 100.6V106.16C138.091 106.507 137.211 106.8 136.278 107.04C135.344 107.28 134.158 107.4 132.718 107.4C131.278 107.4 130.011 107.173 128.918 106.72C127.851 106.267 127.011 105.493 126.398 104.4C125.784 103.28 125.478 101.72 125.478 99.72V90.6H122.798V87.48L126.198 85.08L128.158 80.44H133.158V84.88H138.598V90.6H133.158V99.2C133.158 100.64 133.851 101.36 135.238 101.36ZM150.436 80.92C150.436 82.5467 150.396 83.92 150.316 85.04C150.236 86.16 150.17 87.0133 150.116 87.6H150.476C151.196 86.4533 152.063 85.6533 153.076 85.2C154.09 84.72 155.25 84.48 156.556 84.48C158.023 84.48 159.343 84.76 160.516 85.32C161.69 85.88 162.623 86.76 163.316 87.96C164.036 89.1333 164.396 90.68 164.396 92.6V107H156.716V94.92C156.716 91.96 155.836 90.48 154.076 90.48C152.69 90.48 151.73 91.0667 151.196 92.24C150.69 93.4133 150.436 95.0933 150.436 97.28V107H142.796V76.6H150.436V80.92ZM173.473 75.96C174.566 75.96 175.513 76.1867 176.313 76.64C177.14 77.0933 177.553 78 177.553 79.36C177.553 80.6667 177.14 81.56 176.313 82.04C175.513 82.4933 174.566 82.72 173.473 82.72C172.353 82.72 171.393 82.4933 170.593 82.04C169.82 81.56 169.433 80.6667 169.433 79.36C169.433 78 169.82 77.0933 170.593 76.64C171.393 76.1867 172.353 75.96 173.473 75.96ZM177.273 84.88V107H169.633V84.88H177.273ZM196.441 84.48C198.734 84.48 200.601 85.12 202.041 86.4C203.481 87.68 204.201 89.7467 204.201 92.6V107H196.561V94.92C196.561 93.4533 196.348 92.3467 195.921 91.6C195.494 90.8533 194.814 90.48 193.881 90.48C192.441 90.48 191.468 91.0667 190.961 92.24C190.481 93.4133 190.241 95.1067 190.241 97.32V107H182.601V84.88H188.361L189.401 87.8H189.681C190.374 86.76 191.281 85.9467 192.401 85.36C193.548 84.7733 194.894 84.48 196.441 84.48ZM216.478 84.48C218.024 84.48 219.264 84.7867 220.198 85.4C221.158 85.9867 221.931 86.72 222.518 87.6H222.678L223.238 84.88H229.838V107.04C229.838 110.16 228.864 112.533 226.918 114.16C224.998 115.787 222.038 116.6 218.038 116.6C216.251 116.6 214.678 116.507 213.318 116.32C211.958 116.133 210.651 115.8 209.398 115.32V108.96C210.731 109.52 211.998 109.933 213.198 110.2C214.398 110.493 215.864 110.64 217.598 110.64C220.664 110.64 222.198 109.547 222.198 107.36V106.96C222.198 106.187 222.278 105.267 222.438 104.2H222.198C221.691 105.08 220.971 105.84 220.038 106.48C219.104 107.093 217.878 107.4 216.358 107.4C214.011 107.4 212.104 106.427 210.638 104.48C209.171 102.533 208.438 99.6933 208.438 95.96C208.438 92.2267 209.184 89.3867 210.678 87.44C212.171 85.4667 214.104 84.48 216.478 84.48ZM219.358 90.4C217.251 90.4 216.198 92.2933 216.198 96.08C216.198 98 216.464 99.3867 216.998 100.24C217.531 101.067 218.358 101.48 219.478 101.48C220.731 101.48 221.598 101.093 222.078 100.32C222.558 99.52 222.798 98.3333 222.798 96.76V95.84C222.798 94.1067 222.558 92.7733 222.078 91.84C221.624 90.88 220.718 90.4 219.358 90.4ZM266.612 95.88C266.612 99.5867 265.625 102.44 263.652 104.44C261.678 106.413 258.972 107.4 255.532 107.4C253.398 107.4 251.505 106.96 249.852 106.08C248.198 105.173 246.892 103.867 245.932 102.16C244.998 100.427 244.532 98.3333 244.532 95.88C244.532 92.2267 245.518 89.4133 247.492 87.44C249.465 85.4667 252.185 84.48 255.652 84.48C257.785 84.48 259.665 84.92 261.292 85.8C262.945 86.68 264.238 87.9733 265.172 89.68C266.132 91.36 266.612 93.4267 266.612 95.88ZM252.292 95.88C252.292 97.7733 252.545 99.2267 253.052 100.24C253.558 101.227 254.412 101.72 255.612 101.72C256.785 101.72 257.612 101.227 258.092 100.24C258.598 99.2267 258.852 97.7733 258.852 95.88C258.852 93.9867 258.598 92.56 258.092 91.6C257.612 90.64 256.772 90.16 255.572 90.16C254.425 90.16 253.585 90.64 253.052 91.6C252.545 92.56 252.292 93.9867 252.292 95.88ZM275.979 107L267.539 84.88H275.499L279.259 97.96C279.312 98.0667 279.379 98.36 279.459 98.84C279.566 99.32 279.619 99.7733 279.619 100.2H279.739C279.739 99.7467 279.779 99.32 279.859 98.92C279.966 98.52 280.046 98.2133 280.099 98L284.019 84.88H291.979L283.539 107H275.979ZM304.592 84.48C307.819 84.48 310.366 85.32 312.232 87C314.099 88.68 315.032 91.2133 315.032 94.6V98H301.392C301.446 99.1467 301.872 100.093 302.672 100.84C303.499 101.587 304.686 101.96 306.232 101.96C307.619 101.96 308.886 101.827 310.032 101.56C311.179 101.293 312.366 100.867 313.592 100.28V105.76C312.526 106.32 311.352 106.733 310.072 107C308.819 107.267 307.232 107.4 305.312 107.4C303.072 107.4 301.072 107.013 299.312 106.24C297.579 105.44 296.206 104.2 295.192 102.52C294.179 100.84 293.672 98.6933 293.672 96.08C293.672 93.4133 294.126 91.2267 295.032 89.52C295.966 87.8133 297.246 86.5467 298.872 85.72C300.526 84.8933 302.432 84.48 304.592 84.48ZM304.872 89.68C303.966 89.68 303.206 89.96 302.592 90.52C302.006 91.08 301.659 91.9733 301.552 93.2H308.112C308.086 92.2133 307.792 91.3867 307.232 90.72C306.699 90.0267 305.912 89.68 304.872 89.68ZM332.719 84.48C333.145 84.48 333.585 84.5067 334.039 84.56C334.492 84.6133 334.825 84.6667 335.039 84.72L334.359 91.92C334.092 91.8667 333.759 91.8133 333.359 91.76C332.985 91.7067 332.452 91.68 331.759 91.68C331.119 91.68 330.425 91.7733 329.679 91.96C328.959 92.1467 328.332 92.56 327.799 93.2C327.265 93.8133 326.999 94.7867 326.999 96.12V107H319.359V84.88H325.039L326.239 88.4H326.599C327.212 87.3067 328.065 86.3867 329.159 85.64C330.279 84.8667 331.465 84.48 332.719 84.48ZM331.563 103.76C331.563 102.373 331.963 101.4 332.763 100.84C333.589 100.28 334.576 100 335.723 100C336.816 100 337.749 100.28 338.523 100.84C339.323 101.4 339.723 102.373 339.723 103.76C339.723 105.067 339.323 106.013 338.523 106.6C337.749 107.187 336.816 107.48 335.723 107.48C334.576 107.48 333.589 107.187 332.763 106.6C331.963 106.013 331.563 105.067 331.563 103.76Z" fill="black"/>
</svg>
