<svg width="437" height="255" viewBox="0 0 437 255" fill="none" xmlns="http://www.w3.org/2000/svg">
<path d="M57.56 239.254L56.878 242.774H59.892V244.248H56.592L55.69 248.846H54.128L55.03 244.248H51.884L51.026 248.846H49.486L50.322 244.248H47.55V242.774H50.608L51.312 239.254H48.364V237.802H51.576L52.456 233.138H54.04L53.16 237.802H56.328L57.208 233.138H58.726L57.846 237.802H60.64V239.254H57.56ZM52.17 242.774H55.316L55.998 239.254H52.852L52.17 242.774ZM65.3367 248.846H63.3567V233.138H72.1347V234.876H65.3367V240.442H71.7167V242.18H65.3367V248.846ZM76.7449 248.846H74.7649V233.138H83.5429V234.876H76.7449V240.442H83.1249V242.18H76.7449V248.846ZM94.9511 248.846H86.1731V233.138H94.9511V234.876H88.1531V239.782H94.5551V241.498H88.1531V247.108H94.9511V248.846ZM107.77 240.97C107.77 242.657 107.594 244.109 107.242 245.326C106.89 246.529 106.332 247.453 105.57 248.098C104.807 248.744 103.795 249.066 102.534 249.066C100.759 249.066 99.4463 248.355 98.5957 246.932C97.7597 245.495 97.3417 243.508 97.3417 240.97C97.3417 239.269 97.5103 237.817 97.8477 236.614C98.1997 235.412 98.757 234.495 99.5197 233.864C100.282 233.219 101.287 232.896 102.534 232.896C104.294 232.896 105.606 233.608 106.472 235.03C107.337 236.438 107.77 238.418 107.77 240.97ZM99.2777 240.97C99.2777 243.126 99.5197 244.74 100.004 245.81C100.502 246.881 101.346 247.416 102.534 247.416C103.707 247.416 104.543 246.888 105.042 245.832C105.555 244.762 105.812 243.141 105.812 240.97C105.812 238.829 105.555 237.223 105.042 236.152C104.543 235.082 103.707 234.546 102.534 234.546C101.346 234.546 100.502 235.082 100.004 236.152C99.5197 237.223 99.2777 238.829 99.2777 240.97ZM120.294 239.848C120.294 240.978 120.191 242.092 119.986 243.192C119.795 244.278 119.436 245.268 118.908 246.162C118.394 247.042 117.661 247.746 116.708 248.274C115.769 248.802 114.559 249.066 113.078 249.066C112.784 249.066 112.44 249.044 112.044 249C111.662 248.971 111.347 248.92 111.098 248.846V247.196C111.67 247.387 112.315 247.482 113.034 247.482C114.06 247.482 114.904 247.314 115.564 246.976C116.238 246.639 116.774 246.184 117.17 245.612C117.566 245.026 117.852 244.351 118.028 243.588C118.204 242.811 118.306 241.997 118.336 241.146H118.204C117.881 241.645 117.412 242.078 116.796 242.444C116.194 242.796 115.417 242.972 114.464 242.972C113.114 242.972 112.022 242.562 111.186 241.74C110.364 240.904 109.954 239.731 109.954 238.22C109.954 237.12 110.159 236.174 110.57 235.382C110.995 234.59 111.582 233.982 112.33 233.556C113.078 233.131 113.958 232.918 114.97 232.918C115.967 232.918 116.869 233.175 117.676 233.688C118.482 234.187 119.12 234.95 119.59 235.976C120.059 236.988 120.294 238.279 120.294 239.848ZM114.97 234.546C114.06 234.546 113.312 234.847 112.726 235.448C112.154 236.05 111.868 236.966 111.868 238.198C111.868 239.21 112.11 240.01 112.594 240.596C113.092 241.168 113.855 241.454 114.882 241.454C115.586 241.454 116.194 241.315 116.708 241.036C117.221 240.743 117.617 240.376 117.896 239.936C118.189 239.496 118.336 239.042 118.336 238.572C118.336 237.942 118.211 237.318 117.962 236.702C117.712 236.086 117.338 235.573 116.84 235.162C116.341 234.752 115.718 234.546 114.97 234.546ZM132.949 240.97C132.949 242.657 132.773 244.109 132.421 245.326C132.069 246.529 131.512 247.453 130.749 248.098C129.987 248.744 128.975 249.066 127.713 249.066C125.939 249.066 124.626 248.355 123.775 246.932C122.939 245.495 122.521 243.508 122.521 240.97C122.521 239.269 122.69 237.817 123.027 236.614C123.379 235.412 123.937 234.495 124.699 233.864C125.462 233.219 126.467 232.896 127.713 232.896C129.473 232.896 130.786 233.608 131.651 235.03C132.517 236.438 132.949 238.418 132.949 240.97ZM124.457 240.97C124.457 243.126 124.699 244.74 125.183 245.81C125.682 246.881 126.525 247.416 127.713 247.416C128.887 247.416 129.723 246.888 130.221 245.832C130.735 244.762 130.991 243.141 130.991 240.97C130.991 238.829 130.735 237.223 130.221 236.152C129.723 235.082 128.887 234.546 127.713 234.546C126.525 234.546 125.682 235.082 125.183 236.152C124.699 237.223 124.457 238.829 124.457 240.97Z" fill="black"/>
<ellipse cx="90.7859" cy="96.9873" rx="85.9242" ry="47.7357" transform="rotate(-51.5937 90.7859 96.9873)" fill="#FFE090"/>
<path d="M285.56 239.254L284.878 242.774H287.892V244.248H284.592L283.69 248.846H282.128L283.03 244.248H279.884L279.026 248.846H277.486L278.322 244.248H275.55V242.774H278.608L279.312 239.254H276.364V237.802H279.576L280.456 233.138H282.04L281.16 237.802H284.328L285.208 233.138H286.726L285.846 237.802H288.64V239.254H285.56ZM280.17 242.774H283.316L283.998 239.254H280.852L280.17 242.774ZM292.215 248.846L298.661 234.898H290.191V233.138H300.729V234.634L294.349 248.846H292.215ZM310.679 234.656C308.992 234.656 307.665 235.221 306.697 236.35C305.729 237.48 305.245 239.027 305.245 240.992C305.245 242.943 305.692 244.49 306.587 245.634C307.496 246.764 308.853 247.328 310.657 247.328C311.346 247.328 311.999 247.27 312.615 247.152C313.231 247.035 313.832 246.888 314.419 246.712V248.428C313.832 248.648 313.223 248.81 312.593 248.912C311.977 249.015 311.236 249.066 310.371 249.066C308.772 249.066 307.437 248.736 306.367 248.076C305.296 247.416 304.489 246.478 303.947 245.26C303.419 244.043 303.155 242.613 303.155 240.97C303.155 239.386 303.441 237.993 304.013 236.79C304.599 235.573 305.457 234.627 306.587 233.952C307.716 233.263 309.087 232.918 310.701 232.918C312.358 232.918 313.803 233.226 315.035 233.842L314.242 235.514C313.759 235.294 313.216 235.096 312.615 234.92C312.028 234.744 311.383 234.656 310.679 234.656ZM327.703 248.846L325.811 243.984H319.585L317.715 248.846H315.713L321.851 233.072H323.633L329.749 248.846H327.703ZM323.457 237.472C323.413 237.355 323.34 237.142 323.237 236.834C323.134 236.526 323.032 236.211 322.929 235.888C322.841 235.551 322.768 235.294 322.709 235.118C322.606 235.573 322.489 236.02 322.357 236.46C322.225 236.886 322.115 237.223 322.027 237.472L320.245 242.224H325.217L323.457 237.472ZM341.204 248.846H330.82V247.24L334.934 243.082C335.726 242.29 336.393 241.586 336.936 240.97C337.478 240.354 337.889 239.753 338.168 239.166C338.446 238.565 338.586 237.912 338.586 237.208C338.586 236.343 338.329 235.69 337.816 235.25C337.302 234.796 336.635 234.568 335.814 234.568C335.051 234.568 334.376 234.7 333.79 234.964C333.218 235.228 332.631 235.595 332.03 236.064L330.996 234.766C331.612 234.253 332.316 233.82 333.108 233.468C333.914 233.102 334.816 232.918 335.814 232.918C337.28 232.918 338.439 233.292 339.29 234.04C340.14 234.774 340.566 235.793 340.566 237.098C340.566 237.92 340.397 238.69 340.06 239.408C339.722 240.127 339.253 240.838 338.652 241.542C338.05 242.232 337.346 242.972 336.54 243.764L333.262 246.998V247.086H341.204V248.846ZM353.266 248.846H344.488V233.138H353.266V234.876H346.468V239.782H352.87V241.498H346.468V247.108H353.266V248.846ZM360.848 232.918C362.227 232.918 363.356 233.241 364.236 233.886C365.116 234.532 365.556 235.463 365.556 236.68C365.556 237.311 365.417 237.861 365.138 238.33C364.874 238.8 364.515 239.218 364.06 239.584C363.605 239.936 363.107 240.252 362.564 240.53C363.209 240.838 363.796 241.19 364.324 241.586C364.852 241.968 365.27 242.415 365.578 242.928C365.901 243.442 366.062 244.058 366.062 244.776C366.062 246.096 365.593 247.145 364.654 247.922C363.73 248.685 362.483 249.066 360.914 249.066C359.227 249.066 357.929 248.7 357.02 247.966C356.111 247.218 355.656 246.177 355.656 244.842C355.656 244.124 355.803 243.5 356.096 242.972C356.404 242.444 356.807 241.99 357.306 241.608C357.805 241.227 358.34 240.904 358.912 240.64C358.149 240.2 357.497 239.672 356.954 239.056C356.426 238.426 356.162 237.626 356.162 236.658C356.162 235.852 356.367 235.177 356.778 234.634C357.189 234.077 357.746 233.652 358.45 233.358C359.154 233.065 359.953 232.918 360.848 232.918ZM360.826 234.48C360.019 234.48 359.352 234.678 358.824 235.074C358.311 235.456 358.054 236.013 358.054 236.746C358.054 237.289 358.179 237.744 358.428 238.11C358.692 238.477 359.044 238.792 359.484 239.056C359.924 239.306 360.408 239.548 360.936 239.782C361.699 239.46 362.337 239.071 362.85 238.616C363.378 238.162 363.642 237.538 363.642 236.746C363.642 236.013 363.385 235.456 362.872 235.074C362.359 234.678 361.677 234.48 360.826 234.48ZM357.548 244.864C357.548 245.627 357.819 246.265 358.362 246.778C358.905 247.277 359.741 247.526 360.87 247.526C361.941 247.526 362.755 247.277 363.312 246.778C363.884 246.265 364.17 245.605 364.17 244.798C364.17 244.036 363.869 243.405 363.268 242.906C362.667 242.393 361.867 241.946 360.87 241.564L360.518 241.432C359.55 241.843 358.809 242.32 358.296 242.862C357.797 243.39 357.548 244.058 357.548 244.864Z" fill="black"/>
<ellipse cx="296.786" cy="96.9873" rx="85.9242" ry="47.7357" transform="rotate(-51.5937 296.786 96.9873)" fill="#7CA2E8"/>
<ellipse cx="345.256" cy="96.9873" rx="85.9242" ry="47.7357" transform="rotate(-51.5937 345.256 96.9873)" fill="#7CA2E8"/>
</svg>
