<svg width="89" height="15" viewBox="0 0 89 15" fill="none" xmlns="http://www.w3.org/2000/svg">
<g clip-path="url(#clip0)">
<path d="M29.7496 0C29.7496 3.91024 28.1958 7.66034 25.43 10.4253C22.6643 13.1903 18.9131 14.7436 15.0017 14.7436C11.0904 14.7436 7.3392 13.1903 4.57344 10.4253C1.80769 7.66034 0.253906 3.91024 0.253906 0" stroke="black" stroke-miterlimit="10"/>
<path d="M59.2503 0C59.2503 1.93649 58.8687 3.85403 58.1274 5.64311C57.3862 7.43219 56.2997 9.05779 54.93 10.4271C53.5603 11.7964 51.9342 12.8826 50.1446 13.6236C48.355 14.3647 46.4369 14.7461 44.4999 14.7461C42.5628 14.7461 40.6448 14.3647 38.8552 13.6236C37.0656 12.8826 35.4395 11.7964 34.0698 10.4271C32.7001 9.05779 31.6136 7.43219 30.8723 5.64311C30.131 3.85403 29.7495 1.93649 29.7495 0" stroke="black" stroke-miterlimit="10"/>
<path d="M88.7462 0C88.7462 3.91024 87.1924 7.66034 84.4266 10.4253C81.6609 13.1903 77.9097 14.7436 73.9983 14.7436C70.087 14.7436 66.3358 13.1903 63.57 10.4253C60.8043 7.66034 59.2505 3.91024 59.2505 0" stroke="black" stroke-miterlimit="10"/>
</g>
<defs>
<clipPath id="clip0">
<rect width="89" height="15" fill="white"/>
</clipPath>
</defs>
</svg>
