<svg width="15" height="89" viewBox="0 0 15 89" fill="none" xmlns="http://www.w3.org/2000/svg">
<g clip-path="url(#clip0)">
<path d="M-1.2893e-06 59.2504C3.91024 59.2504 7.66034 60.8042 10.4253 63.57C13.1903 66.3357 14.7436 70.0869 14.7436 73.9983C14.7436 77.9096 13.1903 81.6608 10.4253 84.4266C7.66034 87.1923 3.91024 88.7461 0 88.7461" stroke="black" stroke-miterlimit="10"/>
<path d="M-1.28952e-06 29.7497C1.93649 29.7497 3.85403 30.1313 5.64311 30.8726C7.43219 31.6138 9.05779 32.7003 10.4271 34.07C11.7964 35.4397 12.8826 37.0658 13.6236 38.8554C14.3647 40.645 14.7461 42.5631 14.7461 44.5001C14.7461 46.4372 14.3647 48.3552 13.6236 50.1448C12.8826 51.9344 11.7964 53.5605 10.4271 54.9302C9.05779 56.2999 7.43219 57.3864 5.64311 58.1277C3.85403 58.869 1.93649 59.2505 0 59.2505" stroke="black" stroke-miterlimit="10"/>
<path d="M-1.2893e-06 0.253844C3.91024 0.253844 7.66034 1.80763 10.4253 4.57339C13.1903 7.33914 14.7436 11.0903 14.7436 15.0017C14.7436 18.913 13.1903 22.6642 10.4253 25.43C7.66034 28.1957 3.91024 29.7495 0 29.7495" stroke="black" stroke-miterlimit="10"/>
</g>
<defs>
<clipPath id="clip0">
<rect width="89" height="15" fill="white" transform="translate(0 89) rotate(-90)"/>
</clipPath>
</defs>
</svg>
