<svg xmlns="http://www.w3.org/2000/svg" viewBox="0 0 263.61 285.12"><defs><style>.cls-1{fill:#fff;}.cls-1,.cls-3,.cls-4{stroke:#000;stroke-miterlimit:10;stroke-width:0.5px;}.cls-2{font-size:19px;font-family:SDJeongche730i, Sandoll Jeongche;}.cls-3{fill:#7ca2e8;}.cls-4{fill:#ffe090;}.cls-5{font-size:28px;font-family:SDJeongche830i, Sandoll Jeongche;}.cls-6{font-size:18px;letter-spacing:-0.05em;}.cls-7{letter-spacing:0em;}</style></defs><g id="Layer_2" data-name="Layer 2"><g id="Layer_1-2" data-name="Layer 1"><path class="cls-1" d="M262.81,9.29a4.89,4.89,0,0,1,.55.05V6.11a4.89,4.89,0,0,1-.55,0,4.52,4.52,0,0,1-4.75-4.25,3.89,3.89,0,0,1,.38-1.66h-5.83A3.74,3.74,0,0,1,253,1.91a4.77,4.77,0,0,1-9.48,0,3.74,3.74,0,0,1,.38-1.66h-5.83a3.89,3.89,0,0,1,.38,1.66,4.77,4.77,0,0,1-9.49,0,3.89,3.89,0,0,1,.38-1.66H223.5a3.74,3.74,0,0,1,.38,1.66,4.77,4.77,0,0,1-9.48,0,3.88,3.88,0,0,1,.37-1.66H209a3.88,3.88,0,0,1,.37,1.66,4.77,4.77,0,0,1-9.48,0,3.89,3.89,0,0,1,.38-1.66h-5.83a3.89,3.89,0,0,1,.38,1.66,4.77,4.77,0,0,1-9.48,0,3.88,3.88,0,0,1,.37-1.66h-5.82a3.88,3.88,0,0,1,.37,1.66,4.77,4.77,0,0,1-9.48,0,3.89,3.89,0,0,1,.38-1.66h-5.83a3.89,3.89,0,0,1,.38,1.66,4.77,4.77,0,0,1-9.48,0,3.88,3.88,0,0,1,.37-1.66h-5.82a3.88,3.88,0,0,1,.37,1.66,4.77,4.77,0,0,1-9.48,0A3.74,3.74,0,0,1,142,.25h-5.83a3.89,3.89,0,0,1,.38,1.66,4.77,4.77,0,0,1-9.49,0,3.89,3.89,0,0,1,.38-1.66h-5.83A3.74,3.74,0,0,1,122,1.91a4.77,4.77,0,0,1-9.48,0,3.74,3.74,0,0,1,.38-1.66h-5.83a3.89,3.89,0,0,1,.38,1.66,4.77,4.77,0,0,1-9.49,0A3.89,3.89,0,0,1,98.33.25H92.5a3.74,3.74,0,0,1,.38,1.66,4.77,4.77,0,0,1-9.48,0A3.88,3.88,0,0,1,83.77.25H78a3.88,3.88,0,0,1,.37,1.66,4.77,4.77,0,0,1-9.48,0A3.89,3.89,0,0,1,69.22.25H63.39a3.89,3.89,0,0,1,.38,1.66,4.77,4.77,0,0,1-9.48,0A3.88,3.88,0,0,1,54.66.25H48.84a3.88,3.88,0,0,1,.37,1.66,4.51,4.51,0,0,1-4.74,4.25,4.51,4.51,0,0,1-4.74-4.25A3.89,3.89,0,0,1,40.11.25H34.28a3.89,3.89,0,0,1,.38,1.66,4.52,4.52,0,0,1-4.74,4.25,4.51,4.51,0,0,1-4.74-4.25A3.88,3.88,0,0,1,25.55.25H19.73a3.88,3.88,0,0,1,.37,1.66,4.51,4.51,0,0,1-4.74,4.25,4.51,4.51,0,0,1-4.74-4.25A3.74,3.74,0,0,1,11,.25H5.17a3.89,3.89,0,0,1,.38,1.66A4.52,4.52,0,0,1,.81,6.16a5.07,5.07,0,0,1-.56,0V9.34a5.07,5.07,0,0,1,.56-.05,4.52,4.52,0,0,1,4.74,4.25A4.52,4.52,0,0,1,.81,17.79a5.07,5.07,0,0,1-.56-.05V21c.18,0,.37-.05.56-.05a4.53,4.53,0,0,1,4.74,4.26A4.52,4.52,0,0,1,.81,29.42a5.07,5.07,0,0,1-.56-.05v3.22a5.07,5.07,0,0,1,.56-.05,4.52,4.52,0,0,1,4.74,4.25A4.53,4.53,0,0,1,.81,41.05a5.07,5.07,0,0,1-.56,0v3.22a5.07,5.07,0,0,1,.56,0,4.52,4.52,0,0,1,4.74,4.25A4.53,4.53,0,0,1,.81,52.68a5,5,0,0,1-.56-.06v3.23a5.07,5.07,0,0,1,.56-.05,4.28,4.28,0,1,1,0,8.5,5.07,5.07,0,0,1-.56,0v3.23a5.07,5.07,0,0,1,.56,0,4.28,4.28,0,1,1,0,8.5,5.07,5.07,0,0,1-.56-.05V79.1a5.07,5.07,0,0,1,.56,0,4.28,4.28,0,1,1,0,8.51,5.07,5.07,0,0,1-.56,0v3.22a5.07,5.07,0,0,1,.56,0,4.28,4.28,0,1,1,0,8.51,5.07,5.07,0,0,1-.56,0v3.22a5.07,5.07,0,0,1,.56,0,4.28,4.28,0,1,1,0,8.51,5,5,0,0,1-.56-.06V114a5.07,5.07,0,0,1,.56,0,4.28,4.28,0,1,1,0,8.5,5.07,5.07,0,0,1-.56,0v3.23a5.07,5.07,0,0,1,.56-.05,4.28,4.28,0,1,1,0,8.5,5.07,5.07,0,0,1-.56,0v3.22a5.07,5.07,0,0,1,.56-.05,4.53,4.53,0,0,1,4.74,4.26,3.8,3.8,0,0,1-.19,1.11,3.69,3.69,0,0,1,.19,1.11,4.52,4.52,0,0,1-4.74,4.25,5.07,5.07,0,0,1-.56,0v3.23a5.07,5.07,0,0,1,.56,0,4.28,4.28,0,1,1,0,8.5,5.07,5.07,0,0,1-.56-.05v3.22a5.07,5.07,0,0,1,.56-.05,4.28,4.28,0,1,1,0,8.51,5.07,5.07,0,0,1-.56-.05v3.22a5.07,5.07,0,0,1,.56,0,4.28,4.28,0,1,1,0,8.51,5.07,5.07,0,0,1-.56-.05V186a5.07,5.07,0,0,1,.56,0,4.28,4.28,0,1,1,0,8.5,5.07,5.07,0,0,1-.56-.05v3.23a5.07,5.07,0,0,1,.56-.05,4.28,4.28,0,1,1,0,8.5A5.07,5.07,0,0,1,.25,206v3.23a5.07,5.07,0,0,1,.56-.05,4.28,4.28,0,1,1,0,8.5,5.07,5.07,0,0,1-.56-.05v3.22a5.07,5.07,0,0,1,.56-.05,4.28,4.28,0,1,1,0,8.51,5.07,5.07,0,0,1-.56,0v3.22a5.07,5.07,0,0,1,.56-.05,4.28,4.28,0,1,1,0,8.51,5.07,5.07,0,0,1-.56,0v3.22a5.07,5.07,0,0,1,.56-.05,4.28,4.28,0,1,1,0,8.5,5.07,5.07,0,0,1-.56,0v3.23a5.07,5.07,0,0,1,.56-.05,4.28,4.28,0,1,1,0,8.5,5.07,5.07,0,0,1-.56-.05v3.23a5.07,5.07,0,0,1,.56-.05,4.28,4.28,0,1,1,0,8.5,5.07,5.07,0,0,1-.56-.05V279A5.07,5.07,0,0,1,.81,279a4.53,4.53,0,0,1,4.74,4.26,3.89,3.89,0,0,1-.38,1.66H11a3.74,3.74,0,0,1-.38-1.66A4.52,4.52,0,0,1,15.36,279a4.52,4.52,0,0,1,4.74,4.26,3.88,3.88,0,0,1-.37,1.66h5.82a3.88,3.88,0,0,1-.37-1.66A4.52,4.52,0,0,1,29.92,279a4.53,4.53,0,0,1,4.74,4.26,3.89,3.89,0,0,1-.38,1.66h5.83a3.89,3.89,0,0,1-.38-1.66A4.52,4.52,0,0,1,44.47,279a4.52,4.52,0,0,1,4.74,4.26,3.88,3.88,0,0,1-.37,1.66h5.82a3.88,3.88,0,0,1-.37-1.66,4.77,4.77,0,0,1,9.48,0,3.89,3.89,0,0,1-.38,1.66h5.83a3.89,3.89,0,0,1-.38-1.66,4.77,4.77,0,0,1,9.48,0,3.88,3.88,0,0,1-.37,1.66h5.82a3.88,3.88,0,0,1-.37-1.66,4.77,4.77,0,0,1,9.48,0,3.74,3.74,0,0,1-.38,1.66h5.83a3.89,3.89,0,0,1-.38-1.66,4.77,4.77,0,0,1,9.49,0,3.89,3.89,0,0,1-.38,1.66h5.83a3.74,3.74,0,0,1-.38-1.66,4.77,4.77,0,0,1,9.48,0,3.74,3.74,0,0,1-.38,1.66h5.83a3.89,3.89,0,0,1-.38-1.66,4.77,4.77,0,0,1,9.49,0,3.89,3.89,0,0,1-.38,1.66H142a3.74,3.74,0,0,1-.38-1.66,4.77,4.77,0,0,1,9.48,0,3.88,3.88,0,0,1-.37,1.66h5.82a3.88,3.88,0,0,1-.37-1.66,4.77,4.77,0,0,1,9.48,0,3.89,3.89,0,0,1-.38,1.66h5.83a3.89,3.89,0,0,1-.38-1.66,4.77,4.77,0,0,1,9.48,0,3.88,3.88,0,0,1-.37,1.66h5.82a3.88,3.88,0,0,1-.37-1.66,4.77,4.77,0,0,1,9.48,0,3.89,3.89,0,0,1-.38,1.66h5.83a3.89,3.89,0,0,1-.38-1.66,4.77,4.77,0,0,1,9.48,0,3.88,3.88,0,0,1-.37,1.66h5.82a3.88,3.88,0,0,1-.37-1.66,4.77,4.77,0,0,1,9.48,0,3.74,3.74,0,0,1-.38,1.66h5.83a3.89,3.89,0,0,1-.38-1.66,4.77,4.77,0,0,1,9.49,0,3.89,3.89,0,0,1-.38,1.66h5.83a3.74,3.74,0,0,1-.38-1.66,4.77,4.77,0,0,1,9.48,0,3.74,3.74,0,0,1-.38,1.66h5.83a3.89,3.89,0,0,1-.38-1.66,4.53,4.53,0,0,1,4.75-4.26,4.89,4.89,0,0,1,.55.05v-3.22a4.89,4.89,0,0,1-.55.05,4.28,4.28,0,1,1,0-8.5,4.89,4.89,0,0,1,.55.05v-3.23a4.89,4.89,0,0,1-.55.05,4.28,4.28,0,1,1,0-8.5,4.89,4.89,0,0,1,.55.05v-3.23a4.89,4.89,0,0,1-.55,0,4.28,4.28,0,1,1,0-8.5,4.89,4.89,0,0,1,.55.05V240.9a4.89,4.89,0,0,1-.55,0,4.28,4.28,0,1,1,0-8.51,4.89,4.89,0,0,1,.55.05v-3.22a4.89,4.89,0,0,1-.55,0,4.28,4.28,0,1,1,0-8.51,4.89,4.89,0,0,1,.55.05v-3.22a4.89,4.89,0,0,1-.55.05,4.28,4.28,0,1,1,0-8.5,4.89,4.89,0,0,1,.55.05V206a4.89,4.89,0,0,1-.55.05,4.28,4.28,0,1,1,0-8.5,4.89,4.89,0,0,1,.55.05v-3.23a4.89,4.89,0,0,1-.55.05,4.28,4.28,0,1,1,0-8.5,4.89,4.89,0,0,1,.55,0v-3.22a4.89,4.89,0,0,1-.55.05,4.28,4.28,0,1,1,0-8.51,4.89,4.89,0,0,1,.55,0v-3.22a4.89,4.89,0,0,1-.55.05,4.28,4.28,0,1,1,0-8.51,4.89,4.89,0,0,1,.55.05V159.5a4.89,4.89,0,0,1-.55.05,4.28,4.28,0,1,1,0-8.5,4.89,4.89,0,0,1,.55,0v-3.23a4.89,4.89,0,0,1-.55,0,4.52,4.52,0,0,1-4.75-4.25,3.69,3.69,0,0,1,.19-1.11,3.8,3.8,0,0,1-.19-1.11,4.53,4.53,0,0,1,4.75-4.26,4.89,4.89,0,0,1,.55.05V134a4.89,4.89,0,0,1-.55,0,4.28,4.28,0,1,1,0-8.5,4.89,4.89,0,0,1,.55.05v-3.23a4.89,4.89,0,0,1-.55,0,4.28,4.28,0,1,1,0-8.5,4.89,4.89,0,0,1,.55,0v-3.23a4.87,4.87,0,0,1-.55.06,4.28,4.28,0,1,1,0-8.51,4.89,4.89,0,0,1,.55,0V99.14a4.89,4.89,0,0,1-.55,0,4.28,4.28,0,1,1,0-8.51,4.89,4.89,0,0,1,.55,0V87.51a4.89,4.89,0,0,1-.55,0,4.28,4.28,0,1,1,0-8.51,4.89,4.89,0,0,1,.55,0V75.88a4.89,4.89,0,0,1-.55.05,4.28,4.28,0,1,1,0-8.5,4.89,4.89,0,0,1,.55,0V64.25a4.89,4.89,0,0,1-.55,0,4.28,4.28,0,1,1,0-8.5,4.89,4.89,0,0,1,.55.05V52.62a4.87,4.87,0,0,1-.55.06,4.53,4.53,0,0,1-4.75-4.26,4.52,4.52,0,0,1,4.75-4.25,4.89,4.89,0,0,1,.55,0V41a4.89,4.89,0,0,1-.55,0,4.53,4.53,0,0,1-4.75-4.26,4.53,4.53,0,0,1,4.75-4.25,4.89,4.89,0,0,1,.55.05V29.37a4.89,4.89,0,0,1-.55.05,4.52,4.52,0,0,1-4.75-4.25,4.53,4.53,0,0,1,4.75-4.26c.19,0,.37,0,.55.05V17.74a4.89,4.89,0,0,1-.55.05,4.52,4.52,0,0,1-4.75-4.25A4.52,4.52,0,0,1,262.81,9.29Z"/><path class="cls-1" d="M110,260.19a25,25,0,0,0-14.55,0,25.08,25.08,0,0,0-14.56,0,25,25,0,0,0-14.55,0,25.08,25.08,0,0,0-14.56,0,25.08,25.08,0,0,0-14.56,0,25.09,25.09,0,0,0-11.8-.67,24.39,24.39,0,0,0-.72-5.38,23.79,23.79,0,0,0,.72-5.82,23.71,23.71,0,0,0-.72-5.81,23.79,23.79,0,0,0,.72-5.82,23.71,23.71,0,0,0-.72-5.81,23.71,23.71,0,0,0,.72-5.81,23.73,23.73,0,0,0-.72-5.82,23.71,23.71,0,0,0,.72-5.81,23.79,23.79,0,0,0-.72-5.82,23.8,23.8,0,0,0,0-11.62,23.79,23.79,0,0,0,.72-5.82,23.71,23.71,0,0,0-.72-5.81,23.73,23.73,0,0,0,.72-5.82,23.71,23.71,0,0,0-.72-5.81,23.71,23.71,0,0,0,.72-5.81,23.73,23.73,0,0,0-.72-5.82,23.71,23.71,0,0,0,.72-5.81,23.79,23.79,0,0,0-.72-5.82,23.71,23.71,0,0,0,.72-5.81q0-.55,0-1.11t0-1.11a23.73,23.73,0,0,0-.72-5.82,23.71,23.71,0,0,0,.72-5.81,23.79,23.79,0,0,0-.72-5.82,23.8,23.8,0,0,0,0-11.62,23.79,23.79,0,0,0,.72-5.82,23.71,23.71,0,0,0-.72-5.81,23.73,23.73,0,0,0,.72-5.82,23.71,23.71,0,0,0-.72-5.81,23.71,23.71,0,0,0,.72-5.81,23.79,23.79,0,0,0-.72-5.82,23.71,23.71,0,0,0,.72-5.81,23.79,23.79,0,0,0-.72-5.82,23.8,23.8,0,0,0,0-11.62,23.79,23.79,0,0,0,.72-5.82,23.71,23.71,0,0,0-.72-5.81,23.73,23.73,0,0,0,.72-5.82A23.71,23.71,0,0,0,24.67,31a24.47,24.47,0,0,0,.72-5.38,24.94,24.94,0,0,0,4.53.41,24.93,24.93,0,0,0,7.27-1.08,25.08,25.08,0,0,0,14.56,0,25.08,25.08,0,0,0,14.56,0A24.93,24.93,0,0,0,73.58,26a24.94,24.94,0,0,0,7.28-1.08,25.08,25.08,0,0,0,14.56,0A24.93,24.93,0,0,0,102.69,26,24.94,24.94,0,0,0,110,24.93a25.08,25.08,0,0,0,14.56,0A24.94,24.94,0,0,0,131.81,26a24.93,24.93,0,0,0,7.27-1.08,25.08,25.08,0,0,0,14.56,0A24.94,24.94,0,0,0,160.92,26a24.93,24.93,0,0,0,7.27-1.08,25.08,25.08,0,0,0,14.56,0,25.08,25.08,0,0,0,14.56,0A24.93,24.93,0,0,0,204.58,26a24.94,24.94,0,0,0,7.28-1.08,25.08,25.08,0,0,0,14.56,0A24.93,24.93,0,0,0,233.69,26a25.14,25.14,0,0,0,4.54-.41A23.33,23.33,0,0,0,239,31a23.53,23.53,0,0,0,0,11.63,23.53,23.53,0,0,0,0,11.63,23.49,23.49,0,0,0,0,11.62,23.53,23.53,0,0,0,0,11.63,23.53,23.53,0,0,0,0,11.63,23.53,23.53,0,0,0,0,11.63,23.53,23.53,0,0,0,0,11.63A23.49,23.49,0,0,0,239,124a23.53,23.53,0,0,0,0,11.63,23.26,23.26,0,0,0-.73,5.82q0,.56,0,1.11t0,1.11a23.24,23.24,0,0,0,.73,5.81,23.53,23.53,0,0,0,0,11.63,23.53,23.53,0,0,0,0,11.63,23.53,23.53,0,0,0,0,11.63A23.53,23.53,0,0,0,239,196a23.49,23.49,0,0,0,0,11.62,23.53,23.53,0,0,0,0,11.63,23.53,23.53,0,0,0,0,11.63,23.53,23.53,0,0,0,0,11.63,23.53,23.53,0,0,0,0,11.63,23.26,23.26,0,0,0-.72,5.38,25.13,25.13,0,0,0-11.81.67,25.08,25.08,0,0,0-14.56,0,25,25,0,0,0-14.55,0,25.08,25.08,0,0,0-14.56,0,25.08,25.08,0,0,0-14.56,0,25,25,0,0,0-14.55,0,25.08,25.08,0,0,0-14.56,0,25,25,0,0,0-14.55,0,25.08,25.08,0,0,0-14.56,0Z"/><text class="cls-2" transform="matrix(1, 0.05, -0.05, 1, 132.89, 80.68)">t</text><text class="cls-2" transform="matrix(0.99, 0.1, -0.1, 0.99, 139.6, 80.96)">h</text><text class="cls-2" transform="translate(149.21 81.99) rotate(8.5)">i</text><text class="cls-2" transform="translate(153.76 82.59) rotate(11.44)">n</text><text class="cls-2" transform="matrix(0.96, 0.27, -0.27, 0.96, 163.29, 84.51)">k</text><path class="cls-1" d="M210.22,129.51a25.73,25.73,0,0,1-3.83,13.27c-10.48,17.71-41.39,30.53-77.88,30.53a143.94,143.94,0,0,1-33.15-3.75c-28.61-6.81-48.56-22.18-48.56-40.05,0-24.18,36.58-43.78,81.71-43.78S210.22,105.33,210.22,129.51Z"/><path class="cls-3" d="M216.81,164.13c0,17.71-26.79,32.07-59.83,32.07a109.72,109.72,0,0,1-13.52-.82c-1.32-.16-2.61-.35-3.88-.56-24.56-4-42.44-16.22-42.44-30.69a20.31,20.31,0,0,1,5-12.88,33.85,33.85,0,0,1,2.47-2.66c10.2-9.85,29.83-16.52,52.35-16.52C190,132.07,216.81,146.42,216.81,164.13Z"/><text class="cls-2" transform="translate(131.69 151.92) rotate(22.78)">o</text><text class="cls-2" transform="translate(139.69 155.18) rotate(32.83)">v</text><text class="cls-2" transform="matrix(0.7, 0.72, -0.72, 0.7, 146.49, 159.43)">e</text><text class="cls-2" transform="translate(151.83 164.74) rotate(62.3)">r</text><text class="cls-2" transform="translate(154.99 170.35) rotate(81.7)">s</text><text class="cls-2" transform="matrix(-0.16, 0.99, -0.99, -0.16, 155.89, 176.68)">.</text><ellipse class="cls-4" cx="107.92" cy="176.49" rx="42.72" ry="22.89"/><text class="cls-2" transform="translate(106.43 140.45) rotate(-31.5)">t</text><text class="cls-2" transform="translate(111.92 136.97) rotate(-24.34)">h</text><text class="cls-2" transform="matrix(0.94, -0.33, 0.33, 0.94, 120.68, 133.14)">i</text><text class="cls-2" transform="matrix(0.97, -0.25, 0.25, 0.97, 124.85, 131.57)">n</text><text class="cls-2" transform="translate(134.22 129.15) rotate(-9.09)">g</text><text class="cls-2" transform="matrix(1, -0.08, 0.08, 1, 143.39, 127.72)">s</text><text class="cls-5" transform="translate(36.04 60.68)">2021</text><text class="cls-5" transform="translate(195.8 226.21)">20<tspan class="cls-6"><tspan x="-1.14" y="16">K</tspan><tspan class="cls-7" x="9.1" y="16">OR</tspan></tspan></text></g></g></svg>