<svg width="339" height="42" viewBox="0 0 339 42" fill="none" xmlns="http://www.w3.org/2000/svg">
<path d="M12.48 26.36C13.1733 26.36 13.8 26.2933 14.36 26.16C14.9467 26 15.5467 25.8133 16.16 25.6V31.16C15.3333 31.5067 14.4533 31.8 13.52 32.04C12.5867 32.28 11.4 32.4 9.96 32.4C8.52 32.4 7.25333 32.1733 6.16 31.72C5.09333 31.2667 4.25333 30.4933 3.64 29.4C3.02667 28.28 2.72 26.72 2.72 24.72V15.6H0.04V12.48L3.44 10.08L5.4 5.44H10.4V9.88H15.84V15.6H10.4V24.2C10.4 25.64 11.0933 26.36 12.48 26.36ZM27.6784 5.92C27.6784 7.54667 27.6384 8.92 27.5584 10.04C27.4784 11.16 27.4118 12.0133 27.3584 12.6H27.7184C28.4384 11.4533 29.3051 10.6533 30.3184 10.2C31.3318 9.72 32.4918 9.48 33.7984 9.48C35.2651 9.48 36.5851 9.76 37.7584 10.32C38.9318 10.88 39.8651 11.76 40.5584 12.96C41.2784 14.1333 41.6384 15.68 41.6384 17.6V32H33.9584V19.92C33.9584 16.96 33.0784 15.48 31.3184 15.48C29.9318 15.48 28.9718 16.0667 28.4384 17.24C27.9318 18.4133 27.6784 20.0933 27.6784 22.28V32H20.0384V1.6H27.6784V5.92ZM50.7153 0.959999C51.8086 0.959999 52.7553 1.18667 53.5553 1.64C54.382 2.09333 54.7953 3 54.7953 4.36C54.7953 5.66667 54.382 6.56 53.5553 7.04C52.7553 7.49333 51.8086 7.72 50.7153 7.72C49.5953 7.72 48.6353 7.49333 47.8353 7.04C47.062 6.56 46.6753 5.66667 46.6753 4.36C46.6753 3 47.062 2.09333 47.8353 1.64C48.6353 1.18667 49.5953 0.959999 50.7153 0.959999ZM54.5153 9.88V32H46.8753V9.88H54.5153ZM73.6831 9.48C75.9765 9.48 77.8431 10.12 79.2831 11.4C80.7231 12.68 81.4431 14.7467 81.4431 17.6V32H73.8031V19.92C73.8031 18.4533 73.5898 17.3467 73.1631 16.6C72.7365 15.8533 72.0565 15.48 71.1231 15.48C69.6831 15.48 68.7098 16.0667 68.2031 17.24C67.7231 18.4133 67.4831 20.1067 67.4831 22.32V32H59.8431V9.88H65.6031L66.6431 12.8H66.9231C67.6165 11.76 68.5231 10.9467 69.6431 10.36C70.7898 9.77333 72.1365 9.48 73.6831 9.48ZM94.32 13.56C94.32 14.4667 94.28 15.4667 94.2 16.56C94.12 17.6533 94.0133 18.6533 93.88 19.56H94.04C94.3333 19.1067 94.7067 18.5333 95.16 17.84C95.64 17.1467 96.0533 16.5733 96.4 16.12L101.36 9.88H109.88L102.2 19.28L110.36 32H101.64L96.8 24.08L94.32 25.96V32H86.64V1.6H94.32V13.56ZM134.238 26.36C134.931 26.36 135.558 26.2933 136.118 26.16C136.704 26 137.304 25.8133 137.918 25.6V31.16C137.091 31.5067 136.211 31.8 135.278 32.04C134.344 32.28 133.158 32.4 131.718 32.4C130.278 32.4 129.011 32.1733 127.918 31.72C126.851 31.2667 126.011 30.4933 125.398 29.4C124.784 28.28 124.478 26.72 124.478 24.72V15.6H121.798V12.48L125.198 10.08L127.158 5.44H132.158V9.88H137.598V15.6H132.158V24.2C132.158 25.64 132.851 26.36 134.238 26.36ZM149.436 5.92C149.436 7.54667 149.396 8.92 149.316 10.04C149.236 11.16 149.17 12.0133 149.116 12.6H149.476C150.196 11.4533 151.063 10.6533 152.076 10.2C153.09 9.72 154.25 9.48 155.556 9.48C157.023 9.48 158.343 9.76 159.516 10.32C160.69 10.88 161.623 11.76 162.316 12.96C163.036 14.1333 163.396 15.68 163.396 17.6V32H155.716V19.92C155.716 16.96 154.836 15.48 153.076 15.48C151.69 15.48 150.73 16.0667 150.196 17.24C149.69 18.4133 149.436 20.0933 149.436 22.28V32H141.796V1.6H149.436V5.92ZM172.473 0.959999C173.566 0.959999 174.513 1.18667 175.313 1.64C176.14 2.09333 176.553 3 176.553 4.36C176.553 5.66667 176.14 6.56 175.313 7.04C174.513 7.49333 173.566 7.72 172.473 7.72C171.353 7.72 170.393 7.49333 169.593 7.04C168.82 6.56 168.433 5.66667 168.433 4.36C168.433 3 168.82 2.09333 169.593 1.64C170.393 1.18667 171.353 0.959999 172.473 0.959999ZM176.273 9.88V32H168.633V9.88H176.273ZM195.441 9.48C197.734 9.48 199.601 10.12 201.041 11.4C202.481 12.68 203.201 14.7467 203.201 17.6V32H195.561V19.92C195.561 18.4533 195.348 17.3467 194.921 16.6C194.494 15.8533 193.814 15.48 192.881 15.48C191.441 15.48 190.468 16.0667 189.961 17.24C189.481 18.4133 189.241 20.1067 189.241 22.32V32H181.601V9.88H187.361L188.401 12.8H188.681C189.374 11.76 190.281 10.9467 191.401 10.36C192.548 9.77333 193.894 9.48 195.441 9.48ZM215.478 9.48C217.024 9.48 218.264 9.78667 219.198 10.4C220.158 10.9867 220.931 11.72 221.518 12.6H221.678L222.238 9.88H228.838V32.04C228.838 35.16 227.864 37.5333 225.918 39.16C223.998 40.7867 221.038 41.6 217.038 41.6C215.251 41.6 213.678 41.5067 212.318 41.32C210.958 41.1333 209.651 40.8 208.398 40.32V33.96C209.731 34.52 210.998 34.9333 212.198 35.2C213.398 35.4933 214.864 35.64 216.598 35.64C219.664 35.64 221.198 34.5467 221.198 32.36V31.96C221.198 31.1867 221.278 30.2667 221.438 29.2H221.198C220.691 30.08 219.971 30.84 219.038 31.48C218.104 32.0933 216.878 32.4 215.358 32.4C213.011 32.4 211.104 31.4267 209.638 29.48C208.171 27.5333 207.438 24.6933 207.438 20.96C207.438 17.2267 208.184 14.3867 209.678 12.44C211.171 10.4667 213.104 9.48 215.478 9.48ZM218.358 15.4C216.251 15.4 215.198 17.2933 215.198 21.08C215.198 23 215.464 24.3867 215.998 25.24C216.531 26.0667 217.358 26.48 218.478 26.48C219.731 26.48 220.598 26.0933 221.078 25.32C221.558 24.52 221.798 23.3333 221.798 21.76V20.84C221.798 19.1067 221.558 17.7733 221.078 16.84C220.624 15.88 219.718 15.4 218.358 15.4ZM265.612 20.88C265.612 24.5867 264.625 27.44 262.652 29.44C260.678 31.4133 257.972 32.4 254.532 32.4C252.398 32.4 250.505 31.96 248.852 31.08C247.198 30.1733 245.892 28.8667 244.932 27.16C243.998 25.4267 243.532 23.3333 243.532 20.88C243.532 17.2267 244.518 14.4133 246.492 12.44C248.465 10.4667 251.185 9.48 254.652 9.48C256.785 9.48 258.665 9.92 260.292 10.8C261.945 11.68 263.238 12.9733 264.172 14.68C265.132 16.36 265.612 18.4267 265.612 20.88ZM251.292 20.88C251.292 22.7733 251.545 24.2267 252.052 25.24C252.558 26.2267 253.412 26.72 254.612 26.72C255.785 26.72 256.612 26.2267 257.092 25.24C257.598 24.2267 257.852 22.7733 257.852 20.88C257.852 18.9867 257.598 17.56 257.092 16.6C256.612 15.64 255.772 15.16 254.572 15.16C253.425 15.16 252.585 15.64 252.052 16.6C251.545 17.56 251.292 18.9867 251.292 20.88ZM274.979 32L266.539 9.88H274.499L278.259 22.96C278.312 23.0667 278.379 23.36 278.459 23.84C278.566 24.32 278.619 24.7733 278.619 25.2H278.739C278.739 24.7467 278.779 24.32 278.859 23.92C278.966 23.52 279.046 23.2133 279.099 23L283.019 9.88H290.979L282.539 32H274.979ZM303.592 9.48C306.819 9.48 309.366 10.32 311.232 12C313.099 13.68 314.032 16.2133 314.032 19.6V23H300.392C300.446 24.1467 300.872 25.0933 301.672 25.84C302.499 26.5867 303.686 26.96 305.232 26.96C306.619 26.96 307.886 26.8267 309.032 26.56C310.179 26.2933 311.366 25.8667 312.592 25.28V30.76C311.526 31.32 310.352 31.7333 309.072 32C307.819 32.2667 306.232 32.4 304.312 32.4C302.072 32.4 300.072 32.0133 298.312 31.24C296.579 30.44 295.206 29.2 294.192 27.52C293.179 25.84 292.672 23.6933 292.672 21.08C292.672 18.4133 293.126 16.2267 294.032 14.52C294.966 12.8133 296.246 11.5467 297.872 10.72C299.526 9.89333 301.432 9.48 303.592 9.48ZM303.872 14.68C302.966 14.68 302.206 14.96 301.592 15.52C301.006 16.08 300.659 16.9733 300.552 18.2H307.112C307.086 17.2133 306.792 16.3867 306.232 15.72C305.699 15.0267 304.912 14.68 303.872 14.68ZM331.719 9.48C332.145 9.48 332.585 9.50667 333.039 9.56C333.492 9.61333 333.825 9.66667 334.039 9.72L333.359 16.92C333.092 16.8667 332.759 16.8133 332.359 16.76C331.985 16.7067 331.452 16.68 330.759 16.68C330.119 16.68 329.425 16.7733 328.679 16.96C327.959 17.1467 327.332 17.56 326.799 18.2C326.265 18.8133 325.999 19.7867 325.999 21.12V32H318.359V9.88H324.039L325.239 13.4H325.599C326.212 12.3067 327.065 11.3867 328.159 10.64C329.279 9.86667 330.465 9.48 331.719 9.48ZM330.563 28.76C330.563 27.3733 330.963 26.4 331.763 25.84C332.589 25.28 333.576 25 334.723 25C335.816 25 336.749 25.28 337.523 25.84C338.323 26.4 338.723 27.3733 338.723 28.76C338.723 30.0667 338.323 31.0133 337.523 31.6C336.749 32.1867 335.816 32.48 334.723 32.48C333.576 32.48 332.589 32.1867 331.763 31.6C330.963 31.0133 330.563 30.0667 330.563 28.76Z" fill="black"/>
</svg>
