<svg width="112" height="37" viewBox="0 0 112 37" fill="none" xmlns="http://www.w3.org/2000/svg">
<path d="M7.56 5.92C7.84 4.36 8.12 2.76 8.28 1.24C8.32 0.88 8.32 0.719999 8.16 0.719999C7.84 0.719999 6.32 1.12 5.44 1.44C5.32 1.56 5.2 1.68 5.2 1.96C5.2 2.28 5.4 2.72 5.24 3.76C5.16 4.24 5.04 5 4.92 5.92H1.84C1.48 5.92 0.96 6.72 0.96 7.52C0.96 7.8 1.08 7.96 1.32 7.96H4.6L4.08 11.28L2.64 19.76C1.92 23.96 3.84 25.32 6.32 25.32C8.32 25.32 10.08 24.32 11.12 23.32C11.32 23.12 11.44 23 11.44 22.8C11.44 22.48 10.92 21.48 10.72 21.48C10.6 21.48 10.56 21.52 10.36 21.68C9.24 22.64 7.96 23 6.96 23C5.68 23 4.92 22.36 5.4 19.16L6.64 11.16C6.8 10.12 7 9.04 7.2 7.96H11.92C12.36 7.96 12.84 7.12 12.84 6.24C12.84 6 12.8 5.92 12.48 5.92H7.56ZM22.0122 25.12C17.4122 25.12 15.3322 21.48 15.3322 17.08C15.3322 10.68 19.0922 5.52 24.9322 5.52C29.5322 5.52 31.6122 9.12 31.6122 13.52C31.6122 19.92 27.8522 25.12 22.0122 25.12ZM22.5322 22.84C26.2122 22.84 28.9322 19.24 28.9322 13.64C28.9322 9.76 27.1722 7.8 24.4122 7.8C20.7322 7.8 18.0122 11.36 18.0122 16.96C18.0122 20.84 19.7722 22.84 22.5322 22.84ZM37.335 25.12C36.095 25.12 35.375 24.36 35.375 22.92C35.375 21.56 36.415 20 37.935 20C39.175 20 39.895 20.76 39.895 22.2C39.895 23.56 38.855 25.12 37.335 25.12ZM71.0975 5.52C70.6975 5.52 69.5775 6.12 68.8975 6.56C68.7775 6.72 68.7375 7.12 68.8975 7.28C69.4575 7.84 69.9375 8.68 69.9375 10.76C69.9375 15.04 65.7775 22.68 63.3375 22.68C62.6975 22.68 62.4175 22.08 62.3375 21.32C61.8975 17.24 61.2575 12.16 60.5775 6.04C60.4975 5.68 60.4175 5.52 60.2575 5.52C59.9775 5.52 57.4175 6.32 56.7375 6.6C56.6175 6.72 56.4975 6.96 56.4975 7.24C56.4975 7.4 56.5375 7.48 56.9375 7.68C57.2975 7.88 57.9775 8.4 58.0975 9.16C58.6975 12.84 59.2575 17.76 59.7375 21.96C59.9375 23.72 60.5375 24.96 61.6975 24.96C62.3775 24.96 63.2575 24.6 64.0575 24.08C60.7775 28.6 56.0975 32.48 52.2975 34C52.0975 34.08 52.0975 34 51.9375 34.16C51.8975 34.2 51.8575 34.28 51.8575 34.36C51.8575 34.84 52.6975 36.44 53.3375 36.44C53.4975 36.44 53.7375 36.36 54.1375 36.12C58.4575 33.52 63.4575 29.12 66.9775 23.6C70.1375 18.64 72.3375 13.68 72.3375 9.4C72.3375 7.52 71.5775 5.52 71.0975 5.52ZM81.895 25.12C77.295 25.12 75.215 21.48 75.215 17.08C75.215 10.68 78.975 5.52 84.815 5.52C89.415 5.52 91.495 9.12 91.495 13.52C91.495 19.92 87.735 25.12 81.895 25.12ZM82.415 22.84C86.095 22.84 88.815 19.24 88.815 13.64C88.815 9.76 87.055 7.8 84.295 7.8C80.615 7.8 77.895 11.36 77.895 16.96C77.895 20.84 79.655 22.84 82.415 22.84ZM110.978 22.4C110.818 22.4 110.138 22.64 109.538 22.64C109.138 22.64 108.978 22.4 109.058 21.4C109.178 19.68 111.618 6.84 111.618 5.96C111.618 5.64 111.618 5.52 111.458 5.52C111.138 5.52 109.658 5.84 108.778 6.16C108.658 6.28 108.538 6.4 108.538 6.68C108.538 7 108.698 7.4 108.698 7.96C108.698 8.84 108.378 11.16 107.818 14.16C105.818 19.04 103.018 22.52 100.778 22.52C98.8978 22.52 98.1378 21.08 98.6578 17.56C99.2978 13.16 100.538 6.76 100.538 5.96C100.538 5.6 100.538 5.52 100.378 5.52C100.058 5.52 97.4978 6.08 96.6178 6.4C96.4978 6.52 96.3778 6.64 96.3778 6.92C96.3778 7.24 96.9378 7.44 97.0978 7.88C97.3378 8.52 97.4178 9.96 96.9378 12.96L96.0178 18.48C95.3378 22.6 96.8978 25.04 100.138 25.04C102.378 25.04 104.898 22.92 106.898 19.32C106.538 21.24 106.258 22.64 106.258 23.08C106.258 24.44 106.978 24.96 107.978 24.96C109.418 24.96 110.818 24.32 111.378 23.84C111.378 23.44 111.218 22.4 110.978 22.4Z" fill="black"/>
</svg>
