<svg width="70" height="46" viewBox="0 0 70 46" fill="none" xmlns="http://www.w3.org/2000/svg">
<path d="M66.2319 17.7456C66.214 19.6347 65.6796 21.4832 64.6861 23.0927C60.4412 30.2247 47.9369 35.3905 33.1665 35.3905C28.6526 35.4063 24.1521 34.8992 19.7558 33.8795C8.17823 31.1354 0.101074 24.9422 0.101074 17.7617C0.101074 8.01855 14.9079 0.116821 33.1665 0.116821C51.4251 0.116821 66.2319 8.00242 66.2319 17.7456Z" fill="white"/>
<path d="M33.1666 35.4913C28.6442 35.51 24.1352 35.0015 19.7316 33.9762C7.74536 31.1556 0 24.7649 0 17.7456C0 7.96215 14.8797 0.0161133 33.1828 0.0161133C51.486 0.0161133 66.3656 7.97827 66.3656 17.7456C66.3472 19.6533 65.8071 21.52 64.8035 23.1451C60.3805 30.5391 47.678 35.4913 33.1666 35.4913ZM33.1666 0.201451C14.9889 0.201451 0.202334 8.07095 0.202334 17.7456C0.202334 24.6682 7.89103 30.9622 19.7802 33.7828C24.1683 34.8014 28.6608 35.3072 33.1666 35.2898C47.6092 35.2898 60.2389 30.3698 64.5972 23.0403C65.5838 21.4477 66.1141 19.6168 66.1309 17.7456C66.143 8.07095 51.3443 0.201451 33.1666 0.201451Z" fill="black"/>
<path d="M68.9029 31.6954C68.9029 38.8316 58.0619 44.6178 44.6876 44.6178C42.8589 44.618 41.0318 44.5076 39.2165 44.2874C38.6864 44.2189 38.1603 44.1464 37.6464 44.0578C27.7118 42.446 20.4763 37.522 20.4763 31.6954C20.5179 29.7826 21.2341 27.9453 22.4997 26.5055C22.8109 26.1298 23.1432 25.772 23.4951 25.4337C27.6268 21.4607 35.5664 18.7731 44.6795 18.7731C58.0498 18.7731 68.9029 24.5593 68.9029 31.6954Z" fill="#7CA2E8"/>
<path d="M44.6955 44.7186C42.8626 44.7192 41.0314 44.6075 39.2122 44.3842C38.6781 44.3197 38.152 44.2432 37.6381 44.1586C27.3191 42.4863 20.3831 37.4777 20.3831 31.6955C20.429 29.7639 21.1552 27.9098 22.4347 26.4572C22.7509 26.0796 23.0873 25.7191 23.4423 25.3773C27.7318 21.2512 35.8737 18.6885 44.6955 18.6885C58.1022 18.6885 69.012 24.5312 69.012 31.7116C69.012 38.8921 58.0941 44.7186 44.6955 44.7186ZM44.6955 18.8739C35.9263 18.8739 27.833 21.4164 23.5839 25.5063C23.2323 25.8407 22.9012 26.1959 22.5925 26.5701C21.3322 27.9875 20.6155 29.8029 20.5692 31.6955C20.5692 34.4879 22.2324 37.1433 25.3848 39.3756C28.4481 41.5475 32.8063 43.1754 37.6543 43.9611C38.1642 44.0457 38.6902 44.1223 39.2203 44.1867C41.0316 44.4068 42.8546 44.5171 44.6793 44.5171C57.9767 44.5171 68.7935 38.7631 68.7935 31.6955C68.7935 24.6279 57.9848 18.8739 44.6955 18.8739Z" fill="black"/>
<path d="M24.8346 45.8993C34.3821 45.8993 42.122 41.7698 42.122 36.6759C42.122 31.582 34.3821 27.4525 24.8346 27.4525C15.287 27.4525 7.54712 31.582 7.54712 36.6759C7.54712 41.7698 15.287 45.8993 24.8346 45.8993Z" fill="#FFE090"/>
<path d="M24.8346 45.9999C15.248 45.9999 7.43384 41.8174 7.43384 36.6758C7.43384 31.5342 15.2358 27.3477 24.8346 27.3477C34.4333 27.3477 42.2353 31.5342 42.2353 36.6758C42.2353 41.8174 34.4252 45.9999 24.8346 45.9999ZM24.8346 27.5491C15.3572 27.5491 7.64827 31.643 7.64827 36.6758C7.64827 41.7086 15.337 45.7984 24.8346 45.7984C34.3321 45.7984 42.0208 41.7045 42.0208 36.6758C42.0208 31.6471 34.3119 27.5491 24.8346 27.5491Z" fill="black"/>
</svg>
