<svg xmlns="http://www.w3.org/2000/svg" viewBox="0 0 123.7 61.97"><defs><style>.cls-1{fill:#fff;}</style></defs><g id="레이어_2" data-name="레이어 2"><g id="레이어_1-2" data-name="레이어 1"><path class="cls-1" d="M17.29,51.49c-1.3-4.37,3.42-7.16,7.19-7.59,6.79-.79,12.83,2.91,19.24,4.41,7.15,1.67,14.67.77,19.84-4.91,3.5-3.85,4.5-9.89,8.83-12.89a11.07,11.07,0,0,1,12.17-.28c5.45,3.12,10.67,6.31,17.23,5.67,12.79-1.24,18.91-14.28,21.63-25.32C126,0,109.64-4.57,107,6.06c-.88,3.58-2.15,10-5.42,12.27s-8.9-3.19-12.09-4.58A28.14,28.14,0,0,0,55.08,24.56C53.92,26.43,52.87,31,51,32c-1.39.8-4.3-.47-5.9-1C38,28.68,31,26.22,23.34,27,9.18,28.38-3.54,41.1.9,56,4,66.47,20.43,62,17.29,51.49Z"/></g></g></svg>