<svg xmlns="http://www.w3.org/2000/svg" viewBox="0 0 87.61 67.35"><defs><style>.cls-1{fill:#fff;}</style></defs><g id="레이어_2" data-name="레이어 2"><g id="레이어_1-2" data-name="레이어 1"><path class="cls-1" d="M81.69,35.06c-14.41-4.56-31.4-8.44-44.79,1.1-5.83,4.15-10.63,10.48-10.3,18,.34,7.8,6.63,14.08,14.66,13.09s13.22-8.57,13-16.38c-.18-7.23-4.41-14.76-8.34-20.63A72.16,72.16,0,0,0,32.05,14.64,76.52,76.52,0,0,0,23,8.11c-2.38-1.44-6.42-2.4-8.32-4.21l2.19,3.75-.2-1.07-2.19,8.27.36-.41-6,2.49.56.05L5.09,15.82l.52.33-3.05-3,.2.39L5.81,1.86l-.36.24C-3.46,8.31,5,23.05,14,16.78l.36-.25c3.89-2.7,5.35-7.29,3.05-11.63C14.59-.46,6.91-1.73,2.63,2.62c-5.19,5.28-2,13,3.76,16.07,9.09,4.84,17,9.52,23.35,17.93A43.9,43.9,0,0,1,36.68,49a19.18,19.18,0,0,0,.59,2.86c-1.75-2.16,8.62,1.13,6.19,2.19.27-.12.21-1.25.53-1.55a22.41,22.41,0,0,1,2.11-2.14c8.82-6.71,21.84-1.85,31.07,1.07,10.45,3.31,14.93-13.1,4.52-16.39Z"/></g></g></svg>