<svg xmlns="http://www.w3.org/2000/svg" viewBox="0 0 109.63 102.29"><defs><style>.cls-1{fill:#fff;}</style></defs><g id="레이어_2" data-name="레이어 2"><g id="레이어_1-2" data-name="레이어 1"><path class="cls-1" d="M10.5,20.53c10.42-3,25.25-7.58,32.86,3.12,6,8.49,7.27,21.39,6,31.46a31.88,31.88,0,0,1-4.88,14,17.77,17.77,0,0,1-4.35,4.47c-1.5,1.07-4,1.19-1.17,2.23,2.37.88,1.29.39,1.88-1.45,1.4-4.36,6.73-6.58,10.94-6.22,6.12.54,11.62,4.37,16,8.44,9.06,8.39,24.62,34.81,39.08,22.57,8.36-7.08-3.71-19-12-12l-.87.73,3.75-2.18-1.12.18h4.52c-3.26-.64-6.84-5.77-9.08-8.21C88.7,74,85.57,70.3,82.15,66.85c-6.82-6.89-15.3-13.18-25-15.06-9.41-1.83-18.67.41-25.79,7C24.56,65,21.12,75.69,25.42,84.32c5.17,10.33,16.8,8.7,24.78,2.8,6.63-4.9,11-11.8,13.62-19.55,5.11-15.12,3.55-33.92-3.35-48.22-4.31-8.93-12.18-16-22-18.32C27.65-1.52,16.45,1.12,6,4.14S0,23.58,10.5,20.53Z"/></g></g></svg>