<svg xmlns="http://www.w3.org/2000/svg" viewBox="0 0 87.28 73.71"><defs><style>.cls-1{fill:#fff;}</style></defs><g id="레이어_2" data-name="레이어 2"><g id="레이어_1-2" data-name="레이어 1"><path class="cls-1" d="M20.53,59c-2.33-3.59,4.38-8.38,6.73-10.34.87-.73,4.45-2.52,4.64-3-.36.94-1.17-2.88-1.11-2.44-.25-2.08,1.81-4.67,4.15-3.4l5,8.64c0-7.16,9.72-13.48,15-17.1A86.3,86.3,0,0,1,80,19.44a10.17,10.17,0,0,0,7-12.3C85.35,1.37,80-.59,74.63.15L69.17.91c-5.35.74-8.28,7.58-7,12.3,1.58,5.77,6.93,7.73,12.3,7L80,19.44,74.63.15A103.81,103.81,0,0,0,40.78,17c-10.26,7.8-20.92,17.56-20.89,31.46a10,10,0,0,0,5,8.63c9.67,5.26,22,1.16,25-9.89C53,36,43.57,26,32.58,25.72c-9.94-.21-19.1,7.21-25.25,14.44C.46,48.23-3,59.54,3.26,69.1c7,10.75,24.32.74,17.27-10.09Z"/></g></g></svg>