<svg xmlns="http://www.w3.org/2000/svg" viewBox="0 0 936.39 75.79"><defs><style>.cls-1{fill:#fff;}</style></defs><g id="레이어_2" data-name="레이어 2"><g id="레이어_1-2" data-name="레이어 1"><path class="cls-1" d="M10,1.82H1.82V14H7.26a10.21,10.21,0,0,0,4-.77V14a10.16,10.16,0,0,1-4,.74H1V1.12h9Zm3.91,14-.78,0V.4h.78Z"/><path class="cls-1" d="M22.54,7.58l5.38,6.48-.59.45-5-6.07c-.88,3.55-2.54,5.77-4.83,6.25V14c3.12-.74,4.74-5.8,4.79-12.15H17.84v-.7h9.65v.7H23.08A30.58,30.58,0,0,1,22.54,7.58Zm10.69.25H30.8v7.94h-.75V.4h.75V7.13h2.43Z"/><path class="cls-1" d="M44.35,5c0,2.42-1.71,4.36-4.71,4.36S34.92,7.44,34.92,5,36.63.67,39.64.67,44.35,2.61,44.35,5ZM35.69,5a3.61,3.61,0,0,0,4,3.69A3.6,3.6,0,0,0,43.58,5a3.61,3.61,0,0,0-3.94-3.69A3.61,3.61,0,0,0,35.69,5ZM37,14.71H49.13v.7H36.25V10.68H37Zm11.54-2.86h-.76V.4h.76Z"/><path class="cls-1" d="M52.65,17.47H52l.51-3.5h.83Z"/><path class="cls-1" d="M75.69,14.87H60.5v-.7H75.69Zm-1.17-3.11h-.75V1.8H61.56V1.1h13Z"/><path class="cls-1" d="M87.57,5.13H79.45V8h4.13a15.67,15.67,0,0,0,5.88-.83v.7a16.27,16.27,0,0,1-6,.81H78.7V4.45h8.12V1.62H78.66V.94h8.91Zm4.2,10.28H79.29V10.52H91.77Zm-.76-.7V11.22h-11v3.49Zm.76-5.27H91V.4h.76Z"/><path class="cls-1" d="M115.37,14.87h-15.2v-.7h15.2Zm-1.17-3.11h-.76V1.8H101.23V1.1h13Z"/><path class="cls-1" d="M127,8.08H119.3V14h5.48a10.2,10.2,0,0,0,4-.74V14a9.82,9.82,0,0,1-4,.74h-6.25V7.38h7.71V1.82h-7.75v-.7H127Zm4.45,7.69h-.76V.4h.76Z"/><path class="cls-1" d="M143.89,4.45c0,6.1-3.11,10.17-8.24,10.17V13.9c4.57,0,7.49-3.64,7.49-9.38V1.82h-7.49v-.7h8.24Zm4.86,11.32H148V.4h.75Z"/><path class="cls-1" d="M152.85,17.47h-.66l.5-3.5h.83Z"/><path class="cls-1" d="M167.65,14a10.14,10.14,0,0,0,4-.77V14a10.09,10.09,0,0,1-4,.74H161.6V1.12h8.82v.7h-8.06V14Zm9-6.16h-2.44v7.94h-.75V.4h.75V7.13h2.44Z"/><path class="cls-1" d="M187.85,7.9c0,4.74-1.91,7-4.5,7s-4.5-2.27-4.5-7,1.9-7,4.5-7S187.85,3.17,187.85,7.9Zm-8.23,0c0,4.27,1.6,6.31,3.73,6.31s3.73-2,3.73-6.31-1.63-6.3-3.73-6.3S179.62,3.64,179.62,7.9ZM192,15.77h-.77V.4H192Z"/><path class="cls-1" d="M209.43.4V15.77h-.75V8H205c0,4.7-1.89,7-4.43,7s-4.43-2.27-4.43-7,1.87-7,4.43-7,4.25,2.05,4.41,6.36h3.75V.4Zm-5.26,7.5c0-4.26-1.56-6.3-3.65-6.3s-3.66,2-3.66,6.3,1.57,6.31,3.66,6.31S204.17,12.17,204.17,7.9Z"/><path class="cls-1" d="M222.16,8.08h-7.69V14h5.47a10.2,10.2,0,0,0,4-.74V14a9.78,9.78,0,0,1-4,.74h-6.25V7.38h7.71V1.82h-7.74v-.7h8.5Zm4.44,7.69h-.75V.4h.75Z"/><path class="cls-1" d="M250.2,14.17v.7H235v-.7Zm-15-4.27V9.18c3-1.06,3.75-4.37,3.95-8.59l.75.13a23.34,23.34,0,0,1-.54,4.09l3,4.27c2.74-1.18,3.46-4.42,3.65-8.49l.76.13A23.08,23.08,0,0,1,246.22,5l3.64,4.41-.59.45L246,5.76a5.78,5.78,0,0,1-3.91,4.14l-2.93-4.21A5.84,5.84,0,0,1,235.22,9.9Z"/><path class="cls-1" d="M261.41,4.45c0,6.1-3.11,10.17-8.24,10.17V13.9c4.57,0,7.49-3.64,7.49-9.38V1.82h-7.49v-.7h8.24Zm4.87,11.32h-.76V.4h.76Z"/><path class="cls-1" d="M270.38,17.47h-.67l.5-3.5H271Z"/><path class="cls-1" d="M284.15,7.35h-5.73V6.66h2.43v-5h-2.43V.94h10.73v.68h-2.43V6.55A9.28,9.28,0,0,0,290,5.78v.76A15.09,15.09,0,0,1,284.15,7.35Zm8.57,7.38v.68h-13V12h11.7V9.94H279.68V9.25h12.5v3.41H280.47v2.07Zm-8.63-8.07c.69,0,1.3,0,1.87,0v-5h-4.35v5Zm8.09,1.51h-.76V.4h.76Z"/><path class="cls-1" d="M301.1,7.44l5.17,6.77-.59.45-4.79-6.34c-.94,3.67-2.65,6-5.1,6.37V14c3.57-.67,5.13-6.66,5.17-13.14h.75A33.19,33.19,0,0,1,301.1,7.44Zm10.39.39h-2.43v7.94h-.76V.4h.76V7.13h2.43Z"/><path class="cls-1" d="M318.58,3.22h4.61v.71h-10V3.22h4.59V.36h.76Zm3.75,7c0,2.84-1.86,4.62-4.13,4.62s-4.12-1.78-4.12-4.62,1.85-4.63,4.12-4.63S322.33,7.4,322.33,10.25Zm-.78,0c0-2.42-1.55-3.93-3.35-3.93s-3.35,1.51-3.35,3.93,1.55,3.92,3.35,3.92S321.55,12.66,321.55,10.25Zm7.26-2.42h-2.43v7.94h-.76V.4h.76V7.13h2.43Z"/><path class="cls-1" d="M339.26,4.45c0,6.1-3.11,10.17-8.24,10.17V13.9c4.57,0,7.49-3.64,7.49-9.38V1.82H331v-.7h8.24Zm4.86,11.32h-.75V.4h.75Z"/><path class="cls-1" d="M352.89,14a16.41,16.41,0,0,0,5.78-.7V14a18,18,0,0,1-5.84.68h-5.34V14h4.64V10.32A4.47,4.47,0,0,1,348,5.62a4.56,4.56,0,1,1,9.12,0,4.47,4.47,0,0,1-4.18,4.7Zm-.38-4.36a3.74,3.74,0,0,0,3.78-4,3.79,3.79,0,1,0-7.56,0A3.74,3.74,0,0,0,352.51,9.63Zm10.93-1.94H361v8.08h-.75V.4H361V7h2.4Z"/><path class="cls-1" d="M370.37,7.51v-.7c4.87,0,7.84-1.25,7.84-4.65V1.64h-7.84V.94H379V2.16C379,6,375.73,7.51,370.37,7.51Zm1.47,7.2h11.69v.7H371.08V9.08h12.28v.7H371.84v2.09h11.31v.68H371.84Zm14-11v.7h-2.43V8h-.75V.4h.75V3.69Z"/><path class="cls-1" d="M402.35,9.47H387.16v-.7h15.19Zm-1-5.81c0,2.17-3.17,3.22-6.62,3.22s-6.63-1-6.63-3.22S391.3.43,394.76.43,401.38,1.48,401.38,3.66ZM389.14,14.73h12.37v.7H388.38V11.22h.76ZM388.9,3.66c0,1.65,2.87,2.52,5.86,2.52s5.85-.87,5.85-2.52-2.86-2.53-5.85-2.53S388.9,2,388.9,3.66Z"/><path class="cls-1" d="M409.55,8.77V8.05c3.15-1,3.76-4.12,3.76-7.44l.76,0a16.35,16.35,0,0,1-.32,3.46l3.88,3.69-.52.54L413.53,4.9A5.58,5.58,0,0,1,409.55,8.77Zm14.64,4c0,2.13-3.17,2.85-6.59,2.85S411,14.91,411,12.78s3.17-2.84,6.59-2.84S424.19,10.66,424.19,12.78Zm-.78,0c0-1.58-3-2.14-5.81-2.14s-5.82.56-5.82,2.14,3,2.15,5.82,2.15S423.41,14.37,423.41,12.78Zm-3.9-3.87h-.76V.5h.76V3.71h3.63V.4h.76v9h-.76v-5h-3.63Z"/><path class="cls-1" d="M426.9,9.33V8.61c3.31-.72,5.13-4.27,5.13-8l.76,0a11.24,11.24,0,0,1-.68,4l5.25,4-.48.6L431.8,5.35A7,7,0,0,1,426.9,9.33Zm1.91,5.38h12.12v.7H428.05V10.93h.76Zm14-10.33v.7h-2.43v6.77h-.75V.4h.75v4Z"/><path class="cls-1" d="M444.49,9.15V8.43c3-.54,4.8-2.9,4.91-6.76h-4.73V1h9.83v.7h-4.34a11.47,11.47,0,0,1-.47,3l5.15,3.8-.43.59-5-3.69A6.32,6.32,0,0,1,444.49,9.15Zm1,1.73h12.72v4.75h-.76V11.58h-12ZM458.23.4V9.79h-.76V4.93h-3.71V4.25h3.71V.4Z"/><path class="cls-1" d="M471.22,5c0,2.42-1.71,4.36-4.72,4.36S461.79,7.44,461.79,5,463.5.67,466.5.67,471.22,2.61,471.22,5Zm-8.66,0a4,4,0,0,0,7.89,0,4,4,0,0,0-7.89,0Zm1.31,9.69H476v.7H463.12V10.68h.75Zm11.55-2.86h-.76V.4h.76Z"/><path class="cls-1" d="M489,9.09h-5.18V8.43h4.82V7.09c-2.54-.07-3.9-.86-3.9-2s1.51-2,4.3-2,4.3.81,4.3,2S492,7,489.4,7.09V8.43a17.49,17.49,0,0,0,5.6-.65v.68A19.2,19.2,0,0,1,489,9.09Zm5.24-6.8H484V1.62h4.68V0h.76V1.62h4.84Zm-8.35,12.46h12v.66H485.15V12.59h11.49V11.11H485.11v-.67h12.27v2.79H485.89ZM489,6.45c2.38,0,3.56-.6,3.56-1.32S491.42,3.82,489,3.82s-3.57.59-3.57,1.31S486.66,6.45,489,6.45Zm10.73-2.27v.7h-2.39V9.36h-.76V.4h.76V4.18Z"/><path class="cls-1" d="M516.33,7.89v.7h-15.2v-.7h7.22V5.69h-6V.74h12.73v.7h-12V5H515.3v.7h-6.19v2.2Zm-1.06,5.16c0,2-3.26,2.63-6.54,2.63s-6.53-.61-6.53-2.63,3.25-2.62,6.53-2.62S515.27,11,515.27,13.05Zm-.76,0c0-1.47-3.08-1.92-5.78-1.92s-5.78.45-5.78,1.92S506,15,508.73,15,514.51,14.53,514.51,13.05Z"/><path class="cls-1" d="M523.74,14a17,17,0,0,0,5.89-.7V14a17.93,17.93,0,0,1-5.83.68h-5.35V14h3.29V6.68h.76V14Zm3.15-12.17H519.1v-.7h8.55V11h-.76Zm7.51,5.87H532v8.08h-.76V.4H532V7h2.39Z"/><path class="cls-1" d="M541.06,9.45V8.73c2.23-.54,3.44-2.37,3.54-5.81h-3.38V2.21h3.38V.14h.76V2.21h3.28v.71h-3.26a14.06,14.06,0,0,1-.27,2.21l3.76,3.73-.52.54L544.87,6A5,5,0,0,1,541.06,9.45Zm1.08,1.71h13.05v4.47h-.76V11.87H542.14ZM555.19.4v9.68h-.76v-5h-3.52V9.92h-.76V.5h.76V4.41h3.52V.4Z"/><path class="cls-1" d="M573.32,7.94h-15.2V7.26h15.2Zm-1-4.75c0,2-3.11,2.68-6.57,2.68s-6.57-.72-6.57-2.68S562.26.5,565.72.5,572.29,1.22,572.29,3.19Zm-.14,9.72H560.07v1.84h12.42v.68H559.31V12.24h12.08V10.46H559.27V9.78h12.88ZM559.92,3.19c0,1.46,2.81,2,5.8,2s5.8-.54,5.8-2-2.81-2-5.8-2S559.92,1.73,559.92,3.19Z"/><path class="cls-1" d="M590.16,4.23c0,2-1.73,3.57-4.61,3.57s-4.61-1.53-4.61-3.57S582.67.67,585.55.67,590.16,2.2,590.16,4.23Zm-8.46,0c0,1.89,1.62,2.88,3.85,2.88s3.86-1,3.86-2.88-1.62-2.88-3.86-2.88S581.7,2.34,581.7,4.23ZM588,12.66h-5.27v2.07h6v.68H582V12h5.27V9.94H582V9.25H588Zm6.41,2.75h-.76V9.94h-4.59V9.25h5.35Zm0-7.24h-.76V.4h.76Z"/><path class="cls-1" d="M613,14.87h-15.2v-.7H613Zm-.88-9.27c0,2.88-2.63,4.72-6.72,4.72s-6.72-1.84-6.72-4.72S601.3.88,605.39.88,612.11,2.72,612.11,5.6Zm-12.66,0c0,2.41,2.34,4,5.94,4s5.94-1.61,5.94-4-2.34-4-5.94-4S599.45,3.19,599.45,5.6Z"/><path class="cls-1" d="M616.08,1.12h8.07V14.69h-8.07ZM616.84,14h6.55V1.82h-6.55ZM629.21.4V15.77h-.76V10.59H625.1V9.88h3.35V5.37H625.1V4.66h3.35V.4Z"/><path class="cls-1" d="M637.54,8.43V7.71C640.85,7,642.67,4,642.67.61l.75,0A8.84,8.84,0,0,1,642.81,4l5.26,3.46-.42.59L642.52,4.7A6.94,6.94,0,0,1,637.54,8.43Zm13.73,4.21c0,2.11-2.77,3-6.3,3s-6.3-.88-6.3-3,2.77-3,6.3-3S651.27,10.53,651.27,12.64Zm-.77,0c0-1.55-2.43-2.29-5.53-2.29s-5.53.74-5.53,2.29,2.44,2.29,5.53,2.29S650.5,14.19,650.5,12.64Zm2.92-8.84v.7H651V8.93h-.76V.4H651V3.8Z"/><path class="cls-1" d="M654.85,8.43V7.71C658.16,7,660,4,660,.61l.76,0A9,9,0,0,1,660.13,4l5.25,3.46-.41.59L659.84,4.7A7,7,0,0,1,654.85,8.43Zm13.74,4.21c0,2.11-2.77,3-6.3,3s-6.3-.88-6.3-3,2.77-3,6.3-3S668.59,10.53,668.59,12.64Zm-.77,0c0-1.55-2.44-2.29-5.53-2.29s-5.53.74-5.53,2.29,2.43,2.29,5.53,2.29S667.82,14.19,667.82,12.64Zm2.91-8.84v.7H668.3V8.93h-.76V.4h.76V3.8Z"/><path class="cls-1" d="M677.71,14.69H672.1V14h5.72a15.32,15.32,0,0,0,5.89-.83v.72A16.08,16.08,0,0,1,677.71,14.69ZM682,5.62a4.63,4.63,0,1,1-9.25,0,4.63,4.63,0,1,1,9.25,0Zm-8.48,0a3.86,3.86,0,1,0,7.71,0,3.86,3.86,0,1,0-7.71,0ZM686.1,15.77h-.75V.4h.75Z"/><path class="cls-1" d="M701.4,14a10.2,10.2,0,0,0,4-.74V14a9.78,9.78,0,0,1-4,.74h-6V1h.76V14Zm9-6.14H708v7.94h-.75V.4H708V7.13h2.43Z"/><path class="cls-1" d="M714.5,14a11.67,11.67,0,0,0,5.17-.88v.77a12.27,12.27,0,0,1-5.11.81H712.4V7.38h5.11V1.82H712.4v-.7h5.87v7h-5.12V14ZM726.15.4V15.77h-.75v-8h-3.53V15.5h-.76V.5h.76V7h3.53V.4Z"/><path class="cls-1" d="M744.28,8.5h-15.2V7.81h15.2Zm-1.17,4.57H731v1.69h12.44v.67H730.27v-3h12.1V10.8H730.24v-.66h12.87Zm0-9.31h-12V5.51h12.23v.67h-13V3.1h12V1.4h-12V.74h12.71Z"/><path class="cls-1" d="M756,7.78h-4.47V7.09h2.24V1.62h-2.24V.94h9.89v.68h-2.27V7A11.85,11.85,0,0,0,762,6.36v.7A18.17,18.17,0,0,1,756,7.78Zm10.05,7v.68h-13V12.12h11.68V10.21H753V9.53h12.5v3.25H753.87v2ZM754.55,7.09h1.59c.84,0,1.6,0,2.28-.07V1.62h-3.87Zm10.23-1.56h-3V4.86h3V2.92h-3V2.25h3V.4h.76v8h-.76Z"/><path class="cls-1" d="M774.34,8l5.4,6.19-.52.5-5.1-5.85c-.92,3.3-2.66,5.37-5,5.87V14c2.92-.68,4.7-4.88,4.93-10h-4.71V3.22h4.73V.38h.76V3.22h4.5v.71h-4.52A22.42,22.42,0,0,1,774.34,8ZM782.71.4V15.77H782V.4Z"/><path class="cls-1" d="M801.27,9.18h-15.2v-.7h15.2Zm-13.22,5.55h12.37v.7H787.29V11h.76Zm0-9.27H800.2v.7H787.33V.49h.76Z"/><path class="cls-1" d="M809,9.22V8.48c4.88,0,7.85-1.85,7.85-5.81v-1H809V.94h8.6V2.65a7.66,7.66,0,0,1-.25,2h4.38V.4h.75V11h-.75V5.33h-4.63C816,7.94,813.14,9.22,809,9.22Zm13.77,6.39-6.61-3.55a8.21,8.21,0,0,1-6.39,3.35v-.72a7.18,7.18,0,0,0,6.77-5.36l.78.14a6.73,6.73,0,0,1-.76,2L823.23,15Z"/><path class="cls-1" d="M840.94,7.94h-15.2V7.26h15.2Zm-1-4.75c0,2-3.11,2.68-6.57,2.68s-6.57-.72-6.57-2.68S829.88.5,833.34.5,839.91,1.22,839.91,3.19Zm-.14,9.72H827.69v1.84h12.42v.68H826.93V12.24H839V10.46H826.89V9.78h12.88ZM827.54,3.19c0,1.46,2.81,2,5.8,2s5.8-.54,5.8-2-2.81-2-5.8-2S827.54,1.73,827.54,3.19Z"/><path class="cls-1" d="M863.29,7.13v.68H848.1V7.13h7.22V5.22h.75V7.13Zm-7.22,2.92h6.36v.68H848.91v-.68h6.39V8.62h.77ZM849,5.55V4.84c2.83-.09,6.18-1.2,6.66-3.4H849.3V.74h12.81v.7H856.4a3.29,3.29,0,0,1-.51,1.24l6.68,2.24-.28.7-6.9-2.33C854,4.77,851.28,5.47,849,5.55Zm12.64,8.19c0,1.24-1.69,2-5.94,2s-5.94-.79-5.94-2,1.69-2.05,5.94-2.05S861.62,12.5,861.62,13.74Zm-.76,0c0-.85-1.94-1.37-5.18-1.37s-5.19.52-5.19,1.37,2,1.35,5.19,1.35S860.86,14.58,860.86,13.74Z"/><path class="cls-1" d="M874.94,7.9c0,4.74-1.87,7-4.43,7s-4.43-2.27-4.43-7,1.87-7,4.43-7S874.94,3.17,874.94,7.9Zm-.78,0c0-4.26-1.56-6.3-3.65-6.3s-3.66,2-3.66,6.3,1.57,6.31,3.66,6.31S874.16,12.17,874.16,7.9Zm7.21-.07h-2.43v7.94h-.76V.4h.76V7.13h2.43Z"/><path class="cls-1" d="M893.15,2.68H882.77V2h4.8V.13h.76V2h4.82Zm-9.57,3.8c0-1.58,1.81-2.68,4.37-2.68s4.38,1.1,4.38,2.68S890.51,9.17,888,9.17,883.58,8.07,883.58,6.48ZM895.5,9.94h.75v5.47H884V9.94h.76v1.93H895.5ZM884.33,6.48c0,1.1,1.39,2,3.62,2s3.62-.9,3.62-2-1.39-2-3.62-2S884.33,5.38,884.33,6.48Zm11.17,8.25v-2.2H884.71v2.2Zm3.18-9.92h-2.43V9.2h-.75V.4h.75V4.11h2.43Z"/><path class="cls-1" d="M901.86,14h5.48a10.23,10.23,0,0,0,4-.75v.72a10,10,0,0,1-4,.75h-6.23V1h.75ZM914,15.77l-.78,0V.4H914Z"/><path class="cls-1" d="M924.31,14a10.17,10.17,0,0,0,4-.77V14a10.13,10.13,0,0,1-4,.74h-6V1.12h8.82v.7H919V14Zm9-6.16h-2.43v7.94h-.75V.4h.75V7.13h2.43Z"/><path class="cls-1" d="M936.39,14.75a.85.85,0,1,1-.85-.85A.85.85,0,0,1,936.39,14.75Z"/><path class="cls-1" d="M10.39,32.72H0V32H4.81V30.13h.75V32h4.83ZM.81,36.66c0-1.71,1.82-2.79,4.38-2.79S9.56,35,9.56,36.66s-1.82,2.68-4.37,2.68S.81,38.3.81,36.66Zm13,6.38c0,1.87-2.72,2.59-6.27,2.59S1.22,44.91,1.22,43s2.72-2.6,6.27-2.6S13.76,41.16,13.76,43ZM1.57,36.66c0,1.15,1.38,2,3.62,2s3.61-.85,3.61-2-1.38-2.1-3.61-2.1S1.57,35.46,1.57,36.66ZM13,43c0-1.32-2.37-1.91-5.49-1.91S2,41.72,2,43s2.38,1.9,5.49,1.9S13,44.35,13,43Zm2.94-8.41v.7H13.49v4.46h-.76V30.4h.76v4.23Z"/><path class="cls-1" d="M17.35,38.43v-.72c3.32-.72,5.13-3.71,5.13-7.1l.76,0A9,9,0,0,1,22.63,34l5.25,3.46-.41.59L22.34,34.7A7,7,0,0,1,17.35,38.43Zm13.74,4.21c0,2.11-2.77,3-6.3,3s-6.3-.88-6.3-3,2.77-3,6.3-3S31.09,40.53,31.09,42.64Zm-.77,0c0-1.55-2.44-2.29-5.53-2.29s-5.53.74-5.53,2.29,2.43,2.29,5.53,2.29S30.32,44.19,30.32,42.64Zm2.91-8.84v.7H30.8v4.43h-.75V30.4h.75v3.4Z"/><path class="cls-1" d="M44.86,39.27H39.64v-.7h3.74V34.25h.76v4.32h.79a17.43,17.43,0,0,0,5.89-.65v.7A17.86,17.86,0,0,1,44.86,39.27Zm3.27-7.79H40.52v-.71h8.37v6h-.76Zm-6.5,13.23H53.77v.7H40.88V41.16h.75Zm14-9.54v.7h-2.4v6.25h-.77V30.4h.77v4.77Z"/><path class="cls-1" d="M57.2,37.85v-.72c2.7-.52,4.45-2,4.72-4.5H57.35v-.7H62v-1.8h.76v1.8h4.52v.7H62.7a6.06,6.06,0,0,1-.35,1.51l5,2.88-.34.6-5-2.85A6.54,6.54,0,0,1,57.2,37.85ZM59,44.73H71v.68H58.19V42H69.72V40H58.16v-.69H70.47v3.41H59Zm14-11.06v.71H70.47v3.81h-.75V30.4h.75v3.27Z"/><path class="cls-1" d="M80,33.22H84.6v.71H74.65v-.71h4.59V30.36H80Zm3.75,7c0,2.84-1.86,4.62-4.12,4.62s-4.13-1.78-4.13-4.62,1.86-4.63,4.13-4.63S83.74,37.4,83.74,40.25Zm-.78,0c0-2.42-1.54-3.93-3.34-3.93s-3.35,1.51-3.35,3.93,1.54,3.92,3.35,3.92S83,42.66,83,40.25Zm7.26-2.42H87.79v7.94H87V30.4h.76v6.73h2.43Z"/><path class="cls-1" d="M106.78,44.17v.7H91.58v-.7H97.9V36.59h.76v7.58ZM104.85,31.8H92.65v-.7h13V41.25h-.76Z"/><path class="cls-1" d="M123,34.45c0,6.1-3.11,10.17-8.24,10.17V43.9c4.57,0,7.49-3.64,7.49-9.38v-2.7h-7.49v-.7H123Zm4.86,11.32h-.75V30.4h.75Z"/><path class="cls-1" d="M146.45,39.24v.68h-15.2v-.68h7.22V37.17h-5.94V33.6h12V31.42h-12v-.68h12.72v3.53h-12v2.21H145.5v.69h-6.27v2.07ZM132.3,41.87h12.95v3.78h-.76V42.57H132.3Z"/><path class="cls-1" d="M154.3,33.22h4.61v.71H149v-.71h4.59V30.36h.76Zm3.74,7c0,2.84-1.85,4.62-4.12,4.62s-4.13-1.78-4.13-4.62,1.86-4.63,4.13-4.63S158,37.4,158,40.25Zm-.77,0c0-2.42-1.55-3.93-3.35-3.93s-3.35,1.51-3.35,3.93,1.55,3.92,3.35,3.92S157.27,42.66,157.27,40.25Zm7.25-2.42h-2.43v7.94h-.75V30.4h.75v6.73h2.43Z"/><path class="cls-1" d="M181.08,39.18H165.89v-.7h15.19Zm-13.21,5.55h12.37v.7H167.11V41h.76Zm0-9.27H180v.7H167.15V30.49h.75Z"/><path class="cls-1" d="M188.85,39.22v-.74c4.88,0,7.86-1.85,7.86-5.81v-1h-7.86v-.7h8.61v1.71a7.66,7.66,0,0,1-.25,2h4.37V30.4h.76V41h-.76V35.33H197C195.84,37.94,193,39.22,188.85,39.22Zm13.78,6.39L196,42.06a8.23,8.23,0,0,1-6.39,3.35v-.72a7.18,7.18,0,0,0,6.77-5.36l.77.14a6.45,6.45,0,0,1-.75,2L203,45Z"/><path class="cls-1" d="M220.75,37.94H205.56v-.68h15.19Zm-1-4.75c0,2-3.12,2.68-6.57,2.68s-6.58-.72-6.58-2.68,3.12-2.69,6.58-2.69S219.73,31.22,219.73,33.19Zm-.15,9.72H207.5v1.84h12.43v.68H206.75V42.24h12.08V40.46H206.71v-.68h12.87Zm-12.22-9.72c0,1.46,2.81,2,5.8,2s5.79-.54,5.79-2-2.8-2-5.79-2S207.36,31.73,207.36,33.19Z"/><path class="cls-1" d="M243.11,37.26v.68h-15.2v-.68Zm-14.31-1.5v-.7c2.89-.09,6.37-1.17,6.69-3.62h-6.37v-.7h12.8v.7h-5.69a3.44,3.44,0,0,1-.52,1.5l6.66,2.19-.29.7-6.87-2.26C233.77,35,231.1,35.69,228.8,35.76Zm1.06,9h12.42v.68H229.1V42.24h12.08V40.46H229.07v-.68h12.87v3.13H229.86Z"/><path class="cls-1" d="M245.91,38v-.72c4.88,0,8-1.26,8-5v-.61h-8v-.7h8.77v1.31C254.68,36.43,251.28,38,245.91,38Zm12.52,1.24h.75v6.21H246.71V39.2h.75v2.23h11Zm0,5.53V42.12h-11v2.61Zm.75-14.33v8h-.73v-8Z"/><path class="cls-1" d="M264.36,44h5.48a10.19,10.19,0,0,0,4-.75v.72a10,10,0,0,1-4,.75h-6.23V31h.75Zm12.14,1.8-.77,0V30.4h.77Z"/><path class="cls-1" d="M286.81,44a10.17,10.17,0,0,0,4-.77V44a10.13,10.13,0,0,1-4,.74h-6.05V31.12h8.82v.7h-8.06V44Zm9-6.16h-2.43v7.94h-.75V30.4h.75v6.73h2.43Z"/><path class="cls-1" d="M298.89,44.75a.85.85,0,0,1-.85.84.85.85,0,0,1,0-1.69A.85.85,0,0,1,298.89,44.75Z"/><path class="cls-1" d="M311.34,37.49l5.46,6.57-.59.45-5-6.16c-.88,3.61-2.53,5.84-4.84,6.34V44c3.12-.74,4.74-5.8,4.79-12.15h-4.48v-.7h9.7v.7h-4.46A30.72,30.72,0,0,1,311.34,37.49Zm8.83-7.09V45.77h-.76V37.31h-4.36v-.7h4.36V30.4Z"/><path class="cls-1" d="M338.58,39.18h-15.2v-.7h15.2Zm-13.21,5.55h12.37v.7H324.61V41h.76Zm0-9.27h12.12v.7H324.65V30.49h.75Z"/><path class="cls-1" d="M350.13,37.26,354,44l-.63.41-3.42-6c-.61,3.49-1.82,5.51-4,6.28v-.75c3-1.19,3.69-6.13,3.73-13.09h.76A52.93,52.93,0,0,1,350.13,37.26Zm10-6.86V45.77h-.76v-8H355.7V45.5h-.76v-15h.76V37h3.67V30.4Z"/><path class="cls-1" d="M378.25,44.17v.7H363.06v-.7h7.16V40.3h-6V35.35h12.13V31.82H364.25v-.7h12.89v4.93H365V39.6h12.41v.7H371v3.87Z"/><path class="cls-1" d="M395.57,38.66v.7h-7.22v3.12h-.76V39.36h-7.22v-.7Zm-14.23-5c0-2.18,3.17-3.19,6.63-3.19s6.63,1,6.63,3.19-3.17,3.19-6.63,3.19S381.34,35.8,381.34,33.62Zm1,11.11h12.37v.7H381.6V41.22h.75Zm-.23-11.11c0,1.66,2.86,2.48,5.85,2.48s5.85-.82,5.85-2.48S391,31.13,388,31.13,382.12,32,382.12,33.62Z"/><path class="cls-1" d="M403.34,39.22v-.74c4.88,0,7.85-1.85,7.85-5.81v-1h-7.85v-.7H412v1.71a7.66,7.66,0,0,1-.25,2h4.37V30.4h.76V41h-.76V35.33h-4.63C410.33,37.94,407.45,39.22,403.34,39.22Zm13.77,6.39-6.6-3.55a8.23,8.23,0,0,1-6.39,3.35v-.72a7.18,7.18,0,0,0,6.76-5.36l.78.14a6.73,6.73,0,0,1-.76,2L417.53,45Z"/><path class="cls-1" d="M435.24,37.94H420v-.68h15.2Zm-1-4.75c0,2-3.11,2.68-6.57,2.68s-6.57-.72-6.57-2.68,3.11-2.69,6.57-2.69S434.21,31.22,434.21,33.19Zm-.14,9.72H422v1.84h12.42v.68H421.23V42.24h12.08V40.46H421.2v-.68h12.87Zm-12.23-9.72c0,1.46,2.81,2,5.8,2s5.8-.54,5.8-2-2.81-2-5.8-2S421.84,31.73,421.84,33.19Z"/><path class="cls-1" d="M447.71,38.66h-4.59V30.94h9.33v.68h-8.57v2.83h8.26v.68h-8.26V38h3.94a15.76,15.76,0,0,0,5.89-.83v.7A16.33,16.33,0,0,1,447.71,38.66Zm-4.09,1.86h12.3v4.89h-12.3Zm.76,4.19h10.79V41.22H444.38Zm14-9.74h-2.43v4.47h-.75v-9h.75v3.87h2.43Z"/><path class="cls-1" d="M474.91,40.07H467.6v6.06h-.75V40.07h-7.13v-.76h15.19Zm-2-8.45h-12v-.7h12.78v6.79h-.77Z"/><path class="cls-1" d="M482.76,33.22h4.61v.71h-10v-.71H482V30.36h.76Zm3.74,7c0,2.84-1.85,4.62-4.12,4.62s-4.12-1.78-4.12-4.62,1.85-4.63,4.12-4.63S486.5,37.4,486.5,40.25Zm-.77,0c0-2.42-1.55-3.93-3.35-3.93S479,37.83,479,40.25s1.55,3.92,3.35,3.92S485.73,42.66,485.73,40.25ZM493,37.83h-2.43v7.94h-.75V30.4h.75v6.73H493Z"/><path class="cls-1" d="M509.54,44.17v.7H494.35v-.7h6.32V36.59h.75v7.58ZM507.62,31.8H495.41v-.7h13V41.25h-.75Z"/><path class="cls-1" d="M522.86,30.94h.76V44.69h-6.27V30.94h.76v6h4.75Zm0,13.05V37.6h-4.75V44Zm8.23-13.59V45.77h-.76V37.72H526.8V45.5h-.75v-15h.75V37h3.53V30.4Z"/><path class="cls-1" d="M549.22,41.13H542v5h-.76v-5H534v-.7h15.2ZM535,34.65c0-2.54,2.67-3.95,6.65-3.95s6.64,1.41,6.64,3.95-2.66,3.94-6.64,3.94S535,37.18,535,34.65Zm.76,0c0,2.07,2.39,3.24,5.89,3.24s5.89-1.17,5.89-3.24-2.4-3.25-5.89-3.25S535.73,32.58,535.73,34.65Z"/><path class="cls-1" d="M566.53,39.18h-15.2v-.7h15.2Zm-13.21,5.55h12.37v.7H552.56V41h.76Zm0-9.27h12.12v.7H552.59V30.49h.76Z"/><path class="cls-1" d="M574.3,37.51v-.7c4.88,0,7.85-1.25,7.85-4.65v-.52H574.3v-.7h8.61v1.22a5,5,0,0,1-.24,1.64H587V30.4h.76V38H587V34.5h-4.64C581.27,36.63,578.41,37.51,574.3,37.51Zm14,7.2v.7h-13V41.9H587V39.78H575.29v-.7h12.5v3.51H576.08v2.12Z"/><path class="cls-1" d="M611.24,37.13v.68H596.05v-.68h7.22V35.22H604v1.91ZM604,40.05h6.36v.68H596.86v-.68h6.39V38.62H604Zm-7.09-4.5v-.71c2.83-.09,6.17-1.2,6.66-3.4h-6.34v-.7h12.8v.7h-5.7a3.46,3.46,0,0,1-.51,1.24l6.68,2.24-.28.7-6.9-2.33C601.9,34.77,599.23,35.47,596.93,35.55Zm12.64,8.19c0,1.24-1.69,2-5.94,2s-5.94-.79-5.94-2,1.69-2.05,5.94-2.05S609.57,42.5,609.57,43.74Zm-.76,0c0-.85-1.94-1.37-5.18-1.37s-5.19.52-5.19,1.37,1.95,1.35,5.19,1.35S608.81,44.58,608.81,43.74Z"/><path class="cls-1" d="M622.89,37.9c0,4.74-1.88,7-4.43,7s-4.43-2.27-4.43-7,1.87-7,4.43-7S622.89,33.17,622.89,37.9Zm-.78,0c0-4.26-1.56-6.3-3.65-6.3s-3.66,2-3.66,6.3,1.57,6.31,3.66,6.31S622.11,42.17,622.11,37.9Zm7.2-.07h-2.43v7.94h-.75V30.4h.75v6.73h2.43Z"/><path class="cls-1" d="M636.4,33.22H641v.71h-10v-.71h4.59V30.36h.75Zm3.75,7c0,2.84-1.86,4.62-4.12,4.62s-4.13-1.78-4.13-4.62,1.86-4.63,4.13-4.63S640.15,37.4,640.15,40.25Zm-.78,0c0-2.42-1.54-3.93-3.34-3.93s-3.35,1.51-3.35,3.93,1.54,3.92,3.35,3.92S639.37,42.66,639.37,40.25Zm7.26-2.42H644.2v7.94h-.76V30.4h.76v6.73h2.43Z"/><path class="cls-1" d="M663.19,39.18H648v-.7h15.2ZM650,44.73h12.37v.7H649.22V41H650Zm0-9.27h12.12v.7H649.25V30.49H650Z"/><path class="cls-1" d="M675.91,37.44l5.17,6.77-.59.45-4.79-6.34c-.94,3.67-2.65,6-5.1,6.37V44c3.57-.67,5.13-6.66,5.17-13.14h.76A33.91,33.91,0,0,1,675.91,37.44Zm10.39.39h-2.43v7.94h-.75V30.4h.75v6.73h2.43Z"/><path class="cls-1" d="M696.36,34.45V31.62h-8v-.68h8.75v4.19h-8V38h4a15.67,15.67,0,0,0,5.88-.83v.7a16.27,16.27,0,0,1-6,.81h-4.59V34.45Zm-7.47,6.07h12.3v4.89h-12.3Zm.76,4.19h10.78V41.22H689.65Zm14-9.74h-2.43v4.47h-.76v-9h.76v3.87h2.43Z"/><path class="cls-1" d="M710,38.08c-2.92,0-4.66-1.56-4.66-3.7s1.74-3.71,4.66-3.71,4.66,1.56,4.66,3.71S713,38.08,710,38.08Zm0-.64c2.29,0,3.91-1.14,3.91-3.06s-1.62-3.07-3.91-3.07-3.91,1.14-3.91,3.07S707.75,37.44,710,37.44Zm8.14,1.76h.76v6.21h-12.3V39.2h.75v2.23h10.79Zm0,5.53V42.1H707.39v2.63Zm.76-14.33v8h-.76v-8Z"/><path class="cls-1" d="M724.12,44h5.47a10.19,10.19,0,0,0,4-.75v.72a9.94,9.94,0,0,1-4,.75h-6.23V31h.76Zm12.13,1.8-.77,0V30.4h.77Z"/><path class="cls-1" d="M746.56,44a10.14,10.14,0,0,0,4-.77V44a10.09,10.09,0,0,1-4,.74h-6V31.12h8.83v.7h-8.07V44Zm9-6.16h-2.44v7.94h-.75V30.4h.75v6.73h2.44Z"/><path class="cls-1" d="M758.64,44.75a.85.85,0,0,1-.85.84.85.85,0,0,1,0-1.69A.85.85,0,0,1,758.64,44.75Z"/><path class="cls-1" d="M9.79,67.9c0,4.74-1.9,7-4.5,7s-4.5-2.27-4.5-7,1.91-7,4.5-7S9.79,63.17,9.79,67.9Zm-8.22,0c0,4.27,1.6,6.31,3.72,6.31S9,72.17,9,67.9,7.4,61.6,5.29,61.6,1.57,63.64,1.57,67.9Zm12.37,7.87h-.78V60.4h.78Z"/><path class="cls-1" d="M25.33,64.9V61.62H18.05v-.68h8v4.64H18.85v3.28h3.72A15.73,15.73,0,0,0,28.46,68v.7a16.05,16.05,0,0,1-6,.81H18.09V64.9Zm6.48,9.79v.72h-13v-4.1h.79v3.38ZM30.6,64.86H27.36v-.68H30.6V60.4h.78V71.9H30.6Z"/><path class="cls-1" d="M39.76,68.57v-.72c3.26-.72,5-3.82,5-7.24l.75,0a9.7,9.7,0,0,1-.63,3.55L50,67.71l-.45.57-5-3.4A6.89,6.89,0,0,1,39.76,68.57Zm14.1,4.14c0,2.05-2.77,2.92-6.34,2.92s-6.34-.87-6.34-2.92,2.78-2.92,6.34-2.92S53.86,70.66,53.86,72.71Zm-.78,0c0-1.49-2.43-2.21-5.56-2.21S42,71.22,42,72.71s2.43,2.22,5.56,2.22S53.08,74.21,53.08,72.71ZM53,64.32H48.51v-.68H53V60.4h.75v8.68H53Z"/><path class="cls-1" d="M67.38,62.72H57V62h4.8V60.13h.76V62h4.83ZM57.8,66.66c0-1.71,1.82-2.79,4.37-2.79s4.38,1.08,4.38,2.79-1.82,2.68-4.38,2.68S57.8,68.3,57.8,66.66ZM70.74,73c0,1.87-2.72,2.59-6.26,2.59s-6.27-.72-6.27-2.59,2.72-2.6,6.27-2.6S70.74,71.16,70.74,73ZM58.55,66.66c0,1.15,1.39,2,3.62,2s3.62-.85,3.62-2-1.38-2.1-3.62-2.1S58.55,65.46,58.55,66.66ZM70,73c0-1.32-2.38-1.91-5.49-1.91S59,71.72,59,73s2.37,1.9,5.49,1.9S70,74.35,70,73Zm.5-9.53v3.13H72.9v.69H70.47v2.46h-.75V60.4h.75v2.43H72.9v.68Z"/><path class="cls-1" d="M84.1,67.9c0,4.74-1.91,7-4.5,7s-4.5-2.27-4.5-7,1.9-7,4.5-7S84.1,63.17,84.1,67.9Zm-8.23,0c0,4.27,1.6,6.31,3.73,6.31s3.72-2,3.72-6.31-1.62-6.3-3.72-6.3S75.87,63.64,75.87,67.9Zm12.37,7.87h-.78V60.4h.78Z"/><path class="cls-1" d="M96.86,64.38c0-2.15,1.71-3.71,4.59-3.71S106,62.23,106,64.38s-1.71,3.67-4.59,3.67S96.86,66.52,96.86,64.38Zm.75,0c0,1.92,1.59,3,3.84,3s3.83-1.1,3.83-3-1.58-3.07-3.83-3.07S97.61,62.45,97.61,64.38Zm10,10.42h3v.7H97.76v-.7h3V70.44H97.94v-.7H110.4v.7h-2.81Zm-6.09,0h5.33V70.44H101.5Zm11.08-10.86v.71h-2.43v3.94h-.76V60.4h.76v3.54Z"/><path class="cls-1" d="M129.14,74.87h-15.2v-.7h15.2Zm-.89-9.27c0,2.88-2.63,4.72-6.71,4.72s-6.72-1.84-6.72-4.72,2.63-4.72,6.72-4.72S128.25,62.72,128.25,65.6Zm-12.65,0c0,2.41,2.34,4,5.94,4s5.94-1.61,5.94-4-2.34-4-5.94-4S115.6,63.19,115.6,65.6Z"/><path class="cls-1" d="M146.45,74.17v.7h-15.2v-.7h7.17V70.3h-6v-5h12.14V61.82H132.44v-.7h12.89v4.93H133.2V69.6h12.4v.7h-6.42v3.87Z"/><path class="cls-1" d="M154.22,67.51v-.7c4.88,0,7.85-1.25,7.85-4.65v-.52h-7.85v-.7h8.61v1.22a5,5,0,0,1-.24,1.64H167V60.4h.76V68H167V64.5h-4.64C161.19,66.63,158.33,67.51,154.22,67.51Zm14,7.2v.7h-13V71.9H167V69.78H155.21v-.7h12.5v3.51H156v2.12Z"/><path class="cls-1" d="M185,60.4V75.77h-.75V68h-3.73c0,4.7-1.89,7-4.43,7s-4.43-2.27-4.43-7,1.87-7,4.43-7,4.25,2.05,4.41,6.36h3.75V60.4Zm-5.25,7.5c0-4.26-1.57-6.3-3.66-6.3s-3.65,2-3.65,6.3,1.56,6.31,3.65,6.31S179.77,72.17,179.77,67.9Z"/><path class="cls-1" d="M188.76,67.51v-.7c4.88,0,7.86-1.25,7.86-4.65v-.52h-7.86v-.7h8.61v1.22C197.37,66,194.13,67.51,188.76,67.51Zm1.52,7.2h12v.7H189.48V71.9H201V69.78H189.45v-.7h12.31v3.51H190.28ZM204.2,63.58v.71h-2.44V68H201V60.4h.75v3.18Z"/><path class="cls-1" d="M220.64,61.82h-8.19V74h5.44a10.17,10.17,0,0,0,4-.77V74a10.13,10.13,0,0,1-4,.74h-6.21V61.12h9Zm3.91,13.95-.77,0V60.4h.77Z"/><path class="cls-1" d="M233.17,67.58l5.38,6.48-.59.45-5-6.07c-.88,3.55-2.54,5.77-4.82,6.25V74c3.11-.74,4.73-5.8,4.79-12.15h-4.49v-.7h9.65v.7h-4.41A30.58,30.58,0,0,1,233.17,67.58Zm10.7.25h-2.43v7.94h-.76V60.4h.76v6.73h2.43Z"/><path class="cls-1" d="M255.06,67.9c0,4.74-1.91,7-4.5,7s-4.5-2.27-4.5-7,1.91-7,4.5-7S255.06,63.17,255.06,67.9Zm-8.23,0c0,4.27,1.6,6.31,3.73,6.31s3.73-2,3.73-6.31-1.62-6.3-3.73-6.3S246.83,63.64,246.83,67.9Zm12.37,7.87h-.77V60.4h.77Z"/><path class="cls-1" d="M269.37,74a10.2,10.2,0,0,0,4-.74V74a9.78,9.78,0,0,1-4,.74h-5.83V61h.75V74Zm7.27-13.57V75.77h-.75V67h-6.45v-.7h6.45V60.4Z"/><path class="cls-1" d="M294.35,62.16c0,3.89-3.4,5.35-8.76,5.35v-.7c4.87,0,8-1.21,8-4.65v-.52h-8v-.7h8.76Zm4.51,10.43H287.19v2.12H299.4v.7h-13V71.9h11.68V69.78H286.36v-.7h12.5Zm0-4.6h-.76V60.4h.76Z"/><path class="cls-1" d="M312.25,60.5H313v15h-.75V68h-2.81c0,4.7-1.19,7-3.42,7s-3.43-2.27-3.43-7,1.19-7,3.43-7,3.31,2.05,3.42,6.36h2.81Zm-3.57,7.4c0-4.26-.9-6.3-2.66-6.3s-2.67,2-2.67,6.3.9,6.31,2.67,6.31S308.68,72.17,308.68,67.9Zm7.92-7.5V75.77h-.75V60.4Z"/><path class="cls-1" d="M334,67.49h-8.66V60.76h.76v2.48h7.15V60.76H334Zm-7.54,7.24h6v.68h-6.81V72.06H331v-2h-5.33V69.4h6.06v3.33h-5.27Zm6.79-7.92V63.93h-7.15v2.88Zm-.45,2.59h5.34v6h-.77V70.08h-4.57Zm7.78-5h-2.44v3.93h-.75V60.4h.75v3.29h2.44Z"/><path class="cls-1" d="M357.08,69.47H341.89v-.7h15.19Zm-1-5.81c0,2.17-3.17,3.22-6.62,3.22s-6.63-1-6.63-3.22,3.17-3.23,6.63-3.23S356.11,61.48,356.11,63.66ZM343.87,74.73h12.37v.7H343.11V71.22h.76Zm-.23-11.07c0,1.65,2.86,2.52,5.85,2.52s5.85-.87,5.85-2.52-2.86-2.53-5.85-2.53S343.64,62,343.64,63.66Z"/><path class="cls-1" d="M374,67.51h-8.82V60.76h.75v2.5h7.31v-2.5H374Zm4.57,8.14-6.89-2.72a8.18,8.18,0,0,1-6.18,2.48v-.7c2.83,0,5.85-1.4,6.25-3.56h-6.16v-.69h6.14V68.52h.78v1.94h6.12v.69h-6.12a3.67,3.67,0,0,1-.44,1.18L378.83,75Zm-5.33-8.83V63.94h-7.31v2.88Zm5,2.17h-.76V60.4h.76Z"/><path class="cls-1" d="M396.76,67.94h-15.2v-.68h15.2Zm-1-4.75c0,2-3.11,2.68-6.57,2.68s-6.57-.72-6.57-2.68,3.11-2.69,6.57-2.69S395.73,61.22,395.73,63.19Zm-.14,9.72H383.5v1.84h12.43v.68H382.75V72.24h12.08V70.46H382.71v-.68h12.88Zm-12.23-9.72c0,1.46,2.81,2,5.8,2s5.8-.54,5.8-2-2.81-2-5.8-2S383.36,61.73,383.36,63.19Z"/><path class="cls-1" d="M412.61,60.94h.76V74.69H405V60.94h.77v5.92h6.86Zm0,13V67.56h-6.86V74Zm5.26-13.59V75.77h-.75V60.4Z"/><path class="cls-1" d="M429.21,68.14v1.93h6.05v3h-12.1v1.71H435.6v.67H422.42v-3h12.1V70.73H422.38v-.66h6.07V68.14h-7.22v-.69h15.2v.69Zm-7.28-2.07v-.69c2.61-.07,6.05-1,6.65-3.24h-6.34v-.68h6.23V59.78h.76v1.68h6.21v.68h-6.09a3,3,0,0,1-.45,1.14l6.84,2.1-.27.67-7-2.18C427,65.4,424.17,66,421.93,66.07Z"/><path class="cls-1" d="M444.2,69.22v-.74c4.88,0,7.85-1.85,7.85-5.81v-1H444.2v-.7h8.61v1.71a7.24,7.24,0,0,1-.26,2h4.38V60.4h.76V71h-.76V65.33H452.3C451.19,67.94,448.3,69.22,444.2,69.22ZM458,75.61l-6.6-3.55a8.23,8.23,0,0,1-6.4,3.35v-.72a7.18,7.18,0,0,0,6.77-5.36l.78.14a6.73,6.73,0,0,1-.76,2L458.39,75Z"/><path class="cls-1" d="M466,68.08c-2.91,0-4.66-1.56-4.66-3.7s1.75-3.71,4.66-3.71,4.67,1.56,4.67,3.71S468.88,68.08,466,68.08Zm0-.64c2.29,0,3.91-1.14,3.91-3.06s-1.62-3.07-3.91-3.07-3.9,1.14-3.9,3.07S463.68,67.44,466,67.44Zm8.14,1.76h.76v6.21h-12.3V69.2h.76v2.23H474.1Zm0,5.53V72.1H463.32v2.63Zm.76-14.33v8h-.76v-8Z"/><path class="cls-1" d="M480,74h5.47a10.19,10.19,0,0,0,4-.75v.72a9.94,9.94,0,0,1-4,.75h-6.23V61H480Zm12.13,1.8-.77,0V60.4h.77Z"/><path class="cls-1" d="M502.49,74a10.12,10.12,0,0,0,4-.77V74a10.08,10.08,0,0,1-4,.74h-6.05V61.12h8.82v.7h-8.07V74Zm9-6.16h-2.43v7.94h-.76V60.4h.76v6.73h2.43Z"/><path class="cls-1" d="M514.56,74.75a.85.85,0,1,1-.84-.85A.85.85,0,0,1,514.56,74.75Z"/></g></g></svg>