<svg xmlns="http://www.w3.org/2000/svg" viewBox="0 0 402.18 496.28"><defs><style>.cls-1{fill:#fff;}</style></defs><g id="레이어_2" data-name="레이어 2"><g id="레이어_1-2" data-name="레이어 1"><path class="cls-1" d="M2.18,17H0l.6-1.4L7.1.6,7.38,0h1.3L9,.6l6.5,15,.6,1.4H13.88l-.28-.6L8,3.53,2.45,16.4Z"/><path class="cls-1" d="M29.28,8.67A4.46,4.46,0,0,1,31,12.25a4.41,4.41,0,0,1-1.18,3A5,5,0,0,1,25.93,17h-7.4V8.5l0-7.47V0h1L25,0a5.23,5.23,0,0,1,3.4,1.2,4.47,4.47,0,0,1,1.72,3.55,4.53,4.53,0,0,1-1.59,3.42C28.79,8.33,29,8.49,29.28,8.67ZM25,7.5A3.42,3.42,0,0,0,26.78,7a2.53,2.53,0,0,0,.77-3.83A3.11,3.11,0,0,0,25,2H20.53V7.53ZM20.55,15l5.38,0a3.29,3.29,0,0,0,1.75-.5A2.53,2.53,0,0,0,29,12.25a2.61,2.61,0,0,0-.55-1.58A3.08,3.08,0,0,0,25.93,9.5H20.55Z"/><path class="cls-1" d="M35.85,2.35A6.82,6.82,0,0,1,41,0a7,7,0,0,1,5.2,2.38,8.7,8.7,0,0,1,2.3,6.12,8.74,8.74,0,0,1-2.33,6.15A6.8,6.8,0,0,1,41,17a7,7,0,0,1-5.2-2.38,8.65,8.65,0,0,1-2.3-6.12A8.73,8.73,0,0,1,35.85,2.35ZM37,12.9A4.93,4.93,0,0,0,41,15a5.05,5.05,0,0,0,3.67-1.67A6.79,6.79,0,0,0,46.53,8.5a7.09,7.09,0,0,0-1.45-4.4A5,5,0,0,0,41,2a5.06,5.06,0,0,0-3.68,1.67A6.78,6.78,0,0,0,35.53,8.5,7,7,0,0,0,37,12.9Z"/><path class="cls-1" d="M52.05,0h2l0,1,0,10.3a3.41,3.41,0,0,0,.82,2.22A3.91,3.91,0,0,0,58,15a4.15,4.15,0,0,0,2.45-.78A3.38,3.38,0,0,0,62,11.33V1l0-1h2l0,1,0,10.3a5.46,5.46,0,0,1-1.5,3.75A5.91,5.91,0,0,1,58,17a6,6,0,0,1-4.1-1.55A5.28,5.28,0,0,1,52,11.33V1Z"/><path class="cls-1" d="M78.53,0h1V2H74.05V17h-2V2H66.53V0h12Z"/><path class="cls-1" d="M3.9,117.29v-1.6c10.84,0,17.8-2.8,17.8-11.07v-1.36H3.9V101.7H23.38v2.92C23.38,113.89,15.82,117.29,3.9,117.29Zm30.4,15.24v1.52H5v-1.52h6.76v-9.72H5.42v-1.56H33.9v1.56H27.54v9.72Zm-20.84,0h12.4v-9.72H13.46Zm19.92-13.88H31.74V100.5h1.64Z"/><path class="cls-1" d="M62.86,100.74h1.68v33.31H62.86V116.81h-7.8c-1.48,9-6.12,15.28-13.16,15.28v-1.6c7.36,0,12-8.48,12-19.88v-7h-12V102.1H55.54v8.36a37.27,37.27,0,0,1-.28,4.79h7.6Zm10-.24v34.15H71.14V100.5Z"/><path class="cls-1" d="M124.3,131.09v1.56H90.54v-1.56h16V119.85h1.68v11.24Zm-33.08-9.92v-1.6c7.92,0,15.12-8.8,17.32-18.71l1.76.44a32.56,32.56,0,0,1-2.76,7.63L122.94,120l-1,1.2-15.12-10.92C103,116.73,97.22,121.17,91.22,121.17Z"/><path class="cls-1" d="M162.78,118.89v1.52H129v-1.52h16v-4.32h-13.2V101.26h28.52v1.48H133.54v4.43h26.28v1.45H133.54v4.47h27.12v1.48H146.74v4.32Zm-2.4,10.28c0,3.92-7.2,5.28-14.48,5.28s-14.48-1.36-14.48-5.28,7.2-5.28,14.48-5.28S160.38,125.25,160.38,129.17Zm-1.68,0c0-2.72-6.8-3.76-12.8-3.76s-12.8,1-12.8,3.76,6.8,3.76,12.8,3.76S158.7,131.89,158.7,129.17Z"/><path class="cls-1" d="M180.22,106.78h10.24v1.55H168.34v-1.55h10.2v-6.36h1.68Zm8.32,15.59c0,6.32-4.12,10.28-9.16,10.28s-9.16-4-9.16-10.28,4.12-10.28,9.16-10.28S188.54,116.05,188.54,122.37Zm-1.72,0c0-5.36-3.44-8.72-7.44-8.72s-7.44,3.36-7.44,8.72,3.44,8.72,7.44,8.72S186.82,127.73,186.82,122.37ZM202.94,117h-5.4v17.64h-1.68V100.5h1.68v15h5.4Z"/><path class="cls-1" d="M208.14,102.1h17.92v30.15H208.14Zm1.68,28.59h14.56v-27H209.82ZM237.3,100.5v34.15h-1.68V123.13h-7.44v-1.56h7.44v-10h-7.44V110h7.44V100.5Z"/><path class="cls-1" d="M14.18,177H4V161.7H24.7v1.56h-19v12.15h8.76c5.92,0,10.6-.68,13.08-1.84v1.6C25.14,176.29,20.34,177,14.18,177Zm18.88,10.72c0,4.68-6.16,6.64-14,6.64s-14-2-14-6.64,6.16-6.64,14-6.64S33.06,183,33.06,187.69Zm-1.72,0c0-3.44-5.4-5.08-12.28-5.08s-12.28,1.64-12.28,5.08,5.4,5.08,12.28,5.08S31.34,191.13,31.34,187.69Zm6.48-19.11v1.55h-5.4v9.32H30.74V160.5h1.68v8.08Z"/><path class="cls-1" d="M41.46,180.33v-1.6c7.36-1.6,11.6-9.48,11.6-17.75l1.68.08a24.2,24.2,0,0,1-1.52,8.64L65,178.77l-1.08,1.32-11.4-8.76A15.75,15.75,0,0,1,41.46,180.33Zm31.68,12v1.56h-29v-10h1.68v8.4Zm-1.28-6.36H70.18V160.5h1.68Z"/><path class="cls-1" d="M91.82,192.25H79.34v-1.56H92.06c5.92,0,10.6-.64,13.08-1.84v1.6C102.78,191.57,98,192.25,91.82,192.25Zm9.44-20.16c0,6.08-4.32,10.48-10.28,10.48s-10.28-4.4-10.28-10.48S85,161.62,91,161.62,101.26,166,101.26,172.09Zm-18.84,0c0,5,3.4,8.92,8.56,8.92s8.56-3.88,8.56-8.92-3.4-8.91-8.56-8.91S82.42,167.05,82.42,172.09Zm28,22.56h-1.68V160.5h1.68Z"/><path class="cls-1" d="M130.38,176.29v-1.56c10.84,0,17.24-2.8,17.24-10.31v-1.16H130.38V161.7H149.3v2.72C149.3,172.89,142.3,176.29,130.38,176.29Zm30.32,16v1.56H132.5V179.77h27.84v1.56H134.18V186h25.68v1.52H134.18v4.8Zm-2-18.64h-8.92v-1.56h8.92v-5.71H151v-1.56h7.64V160.5h1.68v16.87h-1.68Z"/><path class="cls-1" d="M189.78,160.74h1.68v33.31h-1.68V177.29h-6.24c0,10.44-2.64,15.44-7.6,15.44s-7.6-5-7.6-15.56,2.64-15.55,7.6-15.55c4.72,0,7.36,4.56,7.6,14.11h6.24Zm-7.92,16.43c0-9.47-2-14-5.92-14s-5.92,4.52-5.92,14,2,14,5.92,14S181.86,186.65,181.86,177.17Zm17.6-16.67v34.15h-1.68V160.5Z"/><path class="cls-1" d="M223.22,190.69a17.07,17.07,0,0,0,6-1v1.64a19.69,19.69,0,0,1-6,.88h-4.28V162.1h10.12v1.56h-8.48v27Zm12.68,0a14.88,14.88,0,0,0,6.6-1.32v1.72a17.19,17.19,0,0,1-6.6,1.16h-5V162.1h10.64v1.56h-9v27Zm12.8-30.19v34.15h-1.64V177h-8.52v-1.56h8.52V160.5Z"/><path class="cls-1" d="M289.42,191.09v1.56H255.66v-1.56h16v-9.36c-8.56-.24-14-4.12-14-10.08,0-6.15,5.84-10.07,14.92-10.07s14.92,3.92,14.92,10.07c0,6-5.48,9.84-14.12,10.08v9.36Zm-16.88-10.92c8,0,13.2-3.4,13.2-8.52s-5.2-8.51-13.2-8.51-13.2,3.4-13.2,8.51S264.54,180.17,272.54,180.17Z"/><path class="cls-1" d="M327.9,178.49H294.14V177H327.9Zm-2.6,10.16H298.42v3.76h27.64v1.48H296.78v-6.68h26.88v-3.6h-27v-1.48h28.6ZM325.22,168h-26.6v3.88h27.16v1.48H297V166.5h26.6v-3.76H297v-1.48h28.24Z"/><path class="cls-1" d="M24.7,223.66H6.5v27H18.58A22.56,22.56,0,0,0,27.42,249v1.64a22.49,22.49,0,0,1-8.84,1.64H4.78V222.1H24.7Zm8.68,31-1.72,0V220.5h1.72Z"/><path class="cls-1" d="M52.54,236.45l12,14.4-1.32,1-11-13.48c-2,7.88-5.64,12.8-10.72,13.88v-1.6c6.92-1.64,10.52-12.88,10.64-27h-10V222.1H63.54v1.56h-9.8A67.19,67.19,0,0,1,52.54,236.45ZM76.3,237H70.9v17.64H69.22V220.5H70.9v14.95h5.4Z"/><path class="cls-1" d="M101.18,237.17c0,10.52-4.24,15.56-10,15.56s-10-5-10-15.56,4.24-15.55,10-15.55S101.18,226.66,101.18,237.17Zm-18.28,0c0,9.48,3.56,14,8.28,14s8.28-4.52,8.28-14-3.6-14-8.28-14S82.9,227.7,82.9,237.17Zm27.48,17.48h-1.72V220.5h1.72Z"/><path class="cls-1" d="M133,250.65a22.63,22.63,0,0,0,8.84-1.64v1.6a21.79,21.79,0,0,1-8.84,1.64H120V221.9h1.68v28.75Zm16.16-30.15v34.15h-1.68v-19.4H133.14v-1.56h14.32V220.5Z"/><path class="cls-1" d="M167.82,238.69v-3.56c5.64-.76,9.12-4.92,9.64-10.35h-9.2v-3.4h21.8v3.4h-8.64a16.79,16.79,0,0,1-.68,3.8l10.4,6.39-2,3-9.88-6.2A14.89,14.89,0,0,1,167.82,238.69Zm31,8.88c0,5.12-6.44,7.08-14.64,7.08s-14.64-2-14.64-7.08,6.48-7.08,14.64-7.08S198.78,242.45,198.78,247.57Zm-4.24,0c0-2.6-4.56-3.8-10.4-3.8s-10.4,1.2-10.4,3.8,4.6,3.8,10.4,3.8S194.54,250.21,194.54,247.57ZM203.06,227v3.75h-4.8v8.6h-4V220.5h4V227Z"/><path class="cls-1" d="M221,249a22.63,22.63,0,0,0,8.84-1.64V251a22.82,22.82,0,0,1-9,1.64H207.42V221.74h19.72v3.6H211.46V249Zm20.56-10.88h-4.8v16.52h-4V220.5h4v13.83h4.8Z"/><path class="cls-1" d="M278.42,238v3.36H263.34v5.88h-4v-5.88h-15V238Zm-32.24-10.35c0-5,6.88-7.36,15.16-7.36s15.16,2.32,15.16,7.36-6.88,7.39-15.16,7.39S246.18,232.73,246.18,227.66Zm4.52,23.19h26v3.4h-30v-9.72h4Zm-.32-23.19c0,2.8,5,4.19,11,4.19s11-1.39,11-4.19-5-4.16-11-4.16S250.38,224.9,250.38,227.66Z"/><path class="cls-1" d="M294.18,237.57c-6.48,0-10.36-3.48-10.36-8.24s3.88-8.23,10.36-8.23,10.36,3.48,10.36,8.23S300.66,237.57,294.18,237.57Zm0-1.44c5.08,0,8.68-2.52,8.68-6.8s-3.6-6.79-8.68-6.79-8.68,2.52-8.68,6.79S289.1,236.13,294.18,236.13Zm18.08,3.92h1.68v13.8H286.62v-13.8h1.68v5h24Zm0,12.28v-5.84h-24v5.84Zm1.68-31.83v17.83h-1.68V220.5Z"/><path class="cls-1" d="M325.46,250.65h12.16a22.6,22.6,0,0,0,8.84-1.68v1.6a21.76,21.76,0,0,1-8.84,1.68H323.78V221.9h1.68Zm27,4-1.72,0V220.5h1.72Z"/><path class="cls-1" d="M375.34,250.69a22.56,22.56,0,0,0,8.84-1.72v1.64a22.49,22.49,0,0,1-8.84,1.64H361.9V222.1h19.6v1.56H363.58v27Zm20-13.68h-5.4v17.64h-1.68V220.5h1.68v14.95h5.4Z"/><path class="cls-1" d="M402.18,252.37a1.88,1.88,0,1,1-1.88-1.88A1.88,1.88,0,0,1,402.18,252.37Z"/><path class="cls-1" d="M165.14,255.49v-2H280.58v2Z"/><path class="cls-1" d="M11.13,341.47H2.94v12.17H8.38a10.17,10.17,0,0,0,4-.77v.74a10.14,10.14,0,0,1-4,.73H2.17V340.77h9ZM15,355.42l-.77,0V340.05H15Z"/><path class="cls-1" d="M23.66,347.23,29,353.71l-.59.45-5-6.06c-.88,3.54-2.54,5.76-4.82,6.24v-.72c3.11-.73,4.73-5.79,4.78-12.15H19v-.7h9.65v.7H24.2A30.58,30.58,0,0,1,23.66,347.23Zm10.7.25H31.92v7.94h-.75V340.05h.75v6.73h2.44Z"/><path class="cls-1" d="M45.48,344.67c0,2.42-1.71,4.36-4.72,4.36S36,347.09,36,344.67s1.71-4.35,4.72-4.35S45.48,342.26,45.48,344.67Zm-8.66,0a3.61,3.61,0,0,0,3.94,3.7,3.7,3.7,0,1,0,0-7.39A3.6,3.6,0,0,0,36.82,344.67Zm1.31,9.69H50.25v.7H37.38v-4.73h.75Zm11.54-2.86h-.75V340.05h.75Z"/><path class="cls-1" d="M58.33,353.64a17,17,0,0,0,5.89-.7v.72a18,18,0,0,1-5.84.68H53v-.7h3.29v-7.31h.76v7.31Zm3.15-12.17h-7.8v-.7h8.56v9.92h-.76ZM69,347.34h-2.4v8.08h-.75V340.05h.75v6.59H69Z"/><path class="cls-1" d="M81,347.09l5.16,6.77-.59.45L80.74,348c-.94,3.67-2.65,6-5.1,6.37v-.7c3.57-.66,5.14-6.66,5.17-13.14l.76,0A34.74,34.74,0,0,1,81,347.09Zm10.38.39H88.91v7.94h-.75V340.05h.75v6.73h2.43Z"/><path class="cls-1" d="M107.9,347.66v.71H92.71v-.71h3.8v-2.37c-1.66-.42-2.8-1.19-2.8-2.4,0-2,3.14-2.81,6.59-2.81s6.6.81,6.6,2.81c0,1.21-1.14,2-2.8,2.4v2.37Zm-1.06,5c0,2-3.26,2.62-6.54,2.62s-6.53-.61-6.53-2.62,3.26-2.6,6.53-2.6S106.84,350.69,106.84,352.71ZM100.3,345c3,0,5.82-.63,5.82-2.11s-2.83-2.1-5.82-2.1-5.81.63-5.81,2.1S97.32,345,100.3,345Zm5.77,7.71c0-1.48-3.06-1.9-5.77-1.9s-5.76.42-5.76,1.9,3.06,1.92,5.76,1.92S106.07,354.18,106.07,352.71Zm-8.81-5h6.09v-2.21a18.67,18.67,0,0,1-6.09,0Z"/><path class="cls-1" d="M115.28,347.23l5.38,6.48-.59.45-5-6.06c-.88,3.54-2.54,5.76-4.83,6.24v-.72c3.12-.73,4.74-5.79,4.79-12.15h-4.48v-.7h9.65v.7h-4.41A30.58,30.58,0,0,1,115.28,347.23Zm10.69.25h-2.43v7.94h-.75V340.05h.75v6.73H126Z"/><path class="cls-1" d="M142.54,348.15h-15.2v-.68h15.2Zm-1.17,4.57h-12.1v1.7h12.44v.66H128.53v-3h12.1v-1.63H128.49v-.66h12.88Zm0-9.31h-12v1.75h12.22v.67h-13v-3.08h12v-1.69h-12v-.67h12.71Z"/><path class="cls-1" d="M155,348.31h-4.6v-7.72h9.33v.68h-8.57v2.83h8.27v.68h-8.27v2.85h3.94a15.73,15.73,0,0,0,5.89-.83v.7A16.05,16.05,0,0,1,155,348.31Zm-4.09,1.86h12.3v4.89h-12.3Zm.75,4.19h10.79v-3.49H151.67Zm14-9.74h-2.43v4.47h-.76v-9h.76v3.87h2.43Z"/><path class="cls-1" d="M182.21,349.72H174.9v6.06h-.76v-6.06H167V349h15.2Zm-2-8.45h-12v-.7H181v6.79h-.78Z"/><path class="cls-1" d="M190.05,342.87h4.61v.71h-10v-.71h4.6V340h.75Zm3.75,7c0,2.84-1.86,4.62-4.13,4.62s-4.12-1.78-4.12-4.62,1.86-4.63,4.12-4.63S193.8,347.05,193.8,349.9Zm-.78,0c0-2.42-1.55-3.93-3.35-3.93s-3.35,1.51-3.35,3.93,1.55,3.92,3.35,3.92S193,352.31,193,349.9Zm7.26-2.42h-2.43v7.94h-.76V340.05h.76v6.73h2.43Z"/><path class="cls-1" d="M202.61,340.77h8.07v13.57h-8.07Zm.76,12.87h6.55V341.47h-6.55Zm12.37-13.59v15.37H215v-5.18h-3.35v-.7H215V345h-3.35v-.71H215v-4.26Z"/><path class="cls-1" d="M1.36,377.22v-.72c3.31-.72,5.22-4.27,5.22-8l.76,0a10.93,10.93,0,0,1-.69,3.89L12,376.52l-.48.59-5.13-3.94A7.09,7.09,0,0,1,1.36,377.22Zm14.26,5.38v.7H2.56v-4.48h.76v3.78ZM15,379.74h-.75V368.29H15Z"/><path class="cls-1" d="M24.13,381.88a17,17,0,0,0,5.89-.7v.72a18,18,0,0,1-5.84.68H18.4v-.7h4.92V378H19.45v-4.68h7.83v-3.6H19.45V369H28v5H20.2v3.31h8.32V378H24.08v3.91Zm8.26-13.59v15.37h-.75V368.29Z"/><path class="cls-1" d="M46.14,370.36H35.76v-.69h4.8V368h.76v1.65h4.82Zm-9.56,3.42c0-1.53,1.88-2.38,4.36-2.38s4.36.85,4.36,2.38-1.87,2.38-4.36,2.38S36.58,375.31,36.58,373.78Zm1.14,8.84H49.78v.68H37V380H48.49V378.1H36.93v-.68H49.24v3.27H37.72Zm-.38-8.84c0,1,1.37,1.71,3.6,1.71s3.6-.7,3.6-1.71-1.37-1.71-3.6-1.71S37.34,372.77,37.34,373.78Zm14.33-1.84v.69H49.24v3.74h-.75v-8.08h.75v3.65Z"/><path class="cls-1" d="M73.27,379H66v5h-.75v-5h-7.2v-.7H73.27ZM58.44,376.3v-.72c3.56,0,6.89-3.39,7.7-7.31l.79.16a11,11,0,0,1-1.15,3l6.84,4.19-.36.61-6.86-4.19A8.8,8.8,0,0,1,58.44,376.3Z"/><path class="cls-1" d="M85.49,376.33c-2.92,0-4.66-1.62-4.66-3.88s1.74-3.89,4.66-3.89,4.66,1.62,4.66,3.89S88.41,376.33,85.49,376.33Zm0-.66c2.29,0,3.91-1.17,3.91-3.22s-1.62-3.23-3.91-3.23-3.91,1.17-3.91,3.23S83.2,375.67,85.49,375.67Zm9.72,7.63-3.29-2.86a4.87,4.87,0,0,1-3.58,2.86l-2.92-2.75a4.92,4.92,0,0,1-3.55,2.75v-.7c1.91-.29,3.57-2.61,3.71-5.27l.74.05a7.94,7.94,0,0,1-.58,2.52l2.85,2.67c1.78-.44,3.24-2.67,3.38-5.24l.74.07a8.19,8.19,0,0,1-.5,2.37l3.51,3Zm-.82-6.42h-.76v-8.59h.76Z"/><path class="cls-1" d="M112.94,377.07H97.75v-.7h15.19Zm-13.21,5.55H112.1v.7H99v-4.43h.76Zm0-9.27h12.12v.7H99v-5.67h.75Z"/><path class="cls-1" d="M130.15,369.71H122v12.17h5.43a10.14,10.14,0,0,0,4-.77v.73a10.09,10.09,0,0,1-4,.74h-6.21V369h9Zm3.91,14-.78,0V368.29h.78Z"/><path class="cls-1" d="M142.68,375.47l5.38,6.48-.59.45-5-6.07c-.89,3.55-2.54,5.77-4.83,6.25v-.72c3.12-.74,4.74-5.79,4.79-12.15H138V369h9.65v.7h-4.41A30.58,30.58,0,0,1,142.68,375.47Zm10.69.25h-2.43v7.94h-.76V368.29h.76V375h2.43Z"/><path class="cls-1" d="M164.57,375.79c0,4.74-1.91,7-4.51,7s-4.5-2.27-4.5-7,1.91-7,4.5-7S164.57,371.06,164.57,375.79Zm-8.23,0c0,4.27,1.6,6.31,3.72,6.31s3.73-2,3.73-6.31-1.62-6.3-3.73-6.3S156.34,371.53,156.34,375.79Zm12.37,7.87h-.78V368.29h.78Z"/><path class="cls-1" d="M178.87,381.86a10.16,10.16,0,0,0,4-.74v.72a9.75,9.75,0,0,1-4,.74H173V368.92h.76v12.94Zm7.28-13.57v15.37h-.76v-8.73H179v-.7h6.44v-5.94Z"/><path class="cls-1" d="M190.05,369h8.08v3.33c0,6-2.95,10.17-8.08,10.17v-.72c4.57,0,7.33-3.71,7.33-9.38v-2.7h-7.33Zm15.27,6.71h-2.43v7.94h-.76V368.29h.76V375h2.43Z"/><path class="cls-1" d="M217.45,381.88a16.9,16.9,0,0,0,5.88-.7v.72a17.89,17.89,0,0,1-5.83.68h-5.78v-.7h4.92V377H212.8v-8h8.77v.7h-8v6.61h8.17v.7h-4.34v4.86Zm8.26-13.59v15.37H225V368.29Z"/><path class="cls-1" d="M229.51,376.62v-.72c3.25,0,5.61-1.69,5.61-5.07v-1.3h-5.61v-.7h6.37v2a7.68,7.68,0,0,1-.07,1.09H239v-3.53h.75V377H239v-4.35h-3.32C234.94,375.25,232.6,376.62,229.51,376.62Zm14.6,6.7-3.44-2.81a5.3,5.3,0,0,1-3.76,2.79L234,380.64a5.4,5.4,0,0,1-3.76,2.66v-.7c1.83-.29,3.8-2.29,4-5.06l.73.07a6.91,6.91,0,0,1-.64,2.42l2.86,2.52a5.4,5.4,0,0,0,3.65-5l.74.07a7.2,7.2,0,0,1-.56,2.27l3.6,2.88Zm-.69-6.17h-.75v-8.86h.75Z"/><path class="cls-1" d="M261.55,375.43v.71h-15.2v-.71ZM247,373.74V373c3-.09,6.64-2.07,7.33-5l.74.13a5.42,5.42,0,0,1-.87,2l6.65,3-.31.61-6.81-3.08A9.7,9.7,0,0,1,247,373.74Zm12.57,3.89h.75v5.69H247.58v-5.69h.75v2h11.26Zm0,5v-2.27H248.33v2.27Z"/><path class="cls-1" d="M265.49,381.86H271a10.19,10.19,0,0,0,4-.75v.72a9.94,9.94,0,0,1-4,.75h-6.23V368.92h.76Zm12.13,1.8-.77,0V368.29h.77Z"/><path class="cls-1" d="M287.94,381.88a10.12,10.12,0,0,0,4-.77v.73a10.08,10.08,0,0,1-4,.74h-6.05V369h8.82v.7h-8.07v12.17Zm9-6.16h-2.43v7.94h-.76V368.29h.76V375h2.43Z"/><path class="cls-1" d="M300,382.64a.85.85,0,0,1-1.69,0,.85.85,0,1,1,1.69,0Z"/><path class="cls-1" d="M.62,487.59A4.44,4.44,0,0,1,5,482.88a4.08,4.08,0,0,1,3.86,2.37V479H9.5v13H8.83v-2.14A4.07,4.07,0,0,1,5,492.3,4.44,4.44,0,0,1,.62,487.59Zm8.23,0A3.86,3.86,0,0,0,5,483.51a4.1,4.1,0,0,0,0,8.16A3.85,3.85,0,0,0,8.85,487.59Z"/><path class="cls-1" d="M13.74,479.68a.56.56,0,1,1-.56-.56A.55.55,0,0,1,13.74,479.68Zm-.23,12.39h-.67v-9h.67Z"/><path class="cls-1" d="M23.56,485.22h-.67c0-1-1.39-1.73-3.13-1.73s-3,.76-3,1.73.54,1.7,3.3,2,3.7,1.2,3.7,2.46c0,1.64-1.73,2.6-3.93,2.6-2.46,0-3.77-1.17-3.92-2.47h.69c.1.85,1,1.86,3.28,1.86,1.83,0,3.2-.8,3.2-1.95s-.73-1.59-3.41-1.93-3.58-1.21-3.58-2.52c0-1.46,1.54-2.41,3.66-2.41S23.52,483.92,23.56,485.22Z"/><path class="cls-1" d="M27.1,479.68a.56.56,0,1,1-.56-.56A.55.55,0,0,1,27.1,479.68Zm-.23,12.39H26.2v-9h.67Z"/><path class="cls-1" d="M30,493.05h.7a3.11,3.11,0,0,0,3.41,2.5c2,0,3.49-1.33,3.49-3.72v-1.9a4.07,4.07,0,0,1-3.86,2.37,4.72,4.72,0,0,1,0-9.42,4.08,4.08,0,0,1,3.86,2.37v-2.14h.67v8.72a4,4,0,0,1-4.16,4.34A3.8,3.8,0,0,1,30,493.05Zm7.62-5.46a3.86,3.86,0,0,0-3.83-4.08,4.1,4.1,0,0,0,0,8.16A3.85,3.85,0,0,0,37.57,487.59Z"/><path class="cls-1" d="M41.16,483.11h.67v2.22a3.93,3.93,0,0,1,3.69-2.45c2,0,3.5,1.54,3.5,3.89v5.3h-.67v-5.18c0-2.2-1.15-3.38-3-3.38a3.9,3.9,0,0,0-3.54,3.89v4.67h-.67Z"/><path class="cls-1" d="M51.23,487.59a4.36,4.36,0,1,1,8.7,0,2.81,2.81,0,0,1,0,.3h-8a3.72,3.72,0,0,0,3.67,3.78,3.3,3.3,0,0,0,3.22-1.85h.73a4,4,0,0,1-4,2.48A4.43,4.43,0,0,1,51.23,487.59Zm8-.32a3.67,3.67,0,1,0-7.34,0Z"/><path class="cls-1" d="M62.35,483.11H63v2.22a4.06,4.06,0,0,1,3.84-2.45,3.82,3.82,0,0,1,1.23.16v.66a3.27,3.27,0,0,0-1.26-.19A4,4,0,0,0,63,487.4v4.67h-.67Z"/><path class="cls-1" d="M78.22,490.92a3,3,0,0,0,3.22-3.25v-8.32h1.69v8.32a4.58,4.58,0,0,1-4.91,4.79c-2.93,0-4.82-1.91-4.87-4.39H75A2.93,2.93,0,0,0,78.22,490.92Z"/><path class="cls-1" d="M85.11,487.59a4.56,4.56,0,0,1,4.53-4.8,3.69,3.69,0,0,1,3.25,1.58V483h1.65v9.16H92.89v-1.36a3.69,3.69,0,0,1-3.25,1.58A4.56,4.56,0,0,1,85.11,487.59Zm7.82,0a3.14,3.14,0,0,0-3.14-3.34,3.36,3.36,0,0,0,0,6.69A3.14,3.14,0,0,0,92.93,487.59Z"/><path class="cls-1" d="M98.78,483v1.4a3.52,3.52,0,0,1,3.1-1.62c2.16,0,3.68,1.55,3.68,4v5.36h-1.64v-5.08c0-1.85-.9-2.86-2.39-2.86a3,3,0,0,0-2.75,3.2v4.74H97.13V483Z"/><path class="cls-1" d="M108,493h1.68a2.4,2.4,0,0,0,2.66,1.83,2.7,2.7,0,0,0,2.82-2.92v-1.26a3.72,3.72,0,0,1-3.25,1.58,4.74,4.74,0,0,1,0-9.47,3.72,3.72,0,0,1,3.25,1.58V483h1.65V492a4.22,4.22,0,0,1-4.47,4.32C109.75,496.28,108.36,494.76,108,493Zm7.19-5.49a3.11,3.11,0,0,0-3.14-3.29,3.3,3.3,0,0,0,0,6.59A3.11,3.11,0,0,0,115.23,487.54Z"/><path class="cls-1" d="M128.54,479.35c4.42,0,7,2.59,7,6.42s-2.56,6.4-7,6.4H124V479.35Zm5.28,6.42c0-3.13-2-4.92-5.23-4.92h-2.92v9.8h2.92C131.84,490.65,133.82,488.89,133.82,485.77Z"/><path class="cls-1" d="M137.16,487.59a4.56,4.56,0,0,1,4.53-4.8,3.71,3.71,0,0,1,3.25,1.58V483h1.65v9.16h-1.65v-1.36a3.71,3.71,0,0,1-3.25,1.58A4.56,4.56,0,0,1,137.16,487.59Zm7.81,0a3.13,3.13,0,0,0-3.14-3.34,3.36,3.36,0,0,0,0,6.69A3.14,3.14,0,0,0,145,487.59Z"/><path class="cls-1" d="M153.18,485.75a6.76,6.76,0,1,1,6.77,6.71A6.53,6.53,0,0,1,153.18,485.75Zm11.84,0a5.08,5.08,0,1,0-5.07,5.17A5,5,0,0,0,165,485.75Z"/><path class="cls-1" d="M177.71,487.59a4.68,4.68,0,1,1-4.68-4.8A4.6,4.6,0,0,1,177.71,487.59Zm-7.75,0a3.08,3.08,0,1,0,3.07-3.34A3.11,3.11,0,0,0,170,487.59Z"/><path class="cls-1" d="M181.47,483v1.4a3.52,3.52,0,0,1,3.1-1.62c2.16,0,3.68,1.55,3.68,4v5.36H186.6v-5.08c0-1.85-.89-2.86-2.38-2.86a3,3,0,0,0-2.75,3.2v4.74h-1.65V483Z"/><path class="cls-1" d="M250,482.84c0,1.41-.93,2.65-2.59,4.25l-4.55,4.36h7.7v.62h-8.7v-.62l4.88-4.68c1.71-1.65,2.57-2.88,2.57-3.93,0-2-1.37-3.06-3.37-3.06a3.28,3.28,0,0,0-3.44,3.39h-.69a3.91,3.91,0,0,1,4.13-4C248.44,479.16,250,480.58,250,482.84Z"/><path class="cls-1" d="M261.38,485.75c0,4.4-1.95,6.59-4.51,6.59s-4.52-2.19-4.52-6.59,2-6.59,4.52-6.59S261.38,481.35,261.38,485.75Zm-8.34,0c0,3.91,1.72,6,3.83,6s3.82-2.06,3.82-6-1.71-6-3.82-6S253,481.84,253,485.75Z"/><path class="cls-1" d="M271.32,482.84c0,1.41-.93,2.65-2.59,4.25l-4.55,4.36h7.7v.62h-8.71v-.62l4.88-4.68c1.72-1.65,2.58-2.88,2.58-3.93,0-2-1.38-3.06-3.38-3.06a3.28,3.28,0,0,0-3.44,3.39h-.69a3.91,3.91,0,0,1,4.13-4C269.73,479.16,271.32,480.58,271.32,482.84Z"/><path class="cls-1" d="M277.24,492.07h-.69v-12h-2.93v-.62h3.62Z"/><rect class="cls-1" x="0.03" y="449.4" width="334.65" height="1"/></g></g></svg>