<svg xmlns="http://www.w3.org/2000/svg" viewBox="0 0 192 21.83"><defs><style>.cls-1{fill:#fff;}</style></defs><g id="레이어_2" data-name="레이어 2"><g id="레이어_1-2" data-name="레이어 1"><path class="cls-1" d="M0,0H2.56V19.2H12.8v2.56H0V0Z"/><path class="cls-1" d="M18.33,3A8.73,8.73,0,0,1,25,0a9,9,0,0,1,6.66,3,11.16,11.16,0,0,1,2.94,7.84,11.17,11.17,0,0,1-3,7.87,8.7,8.7,0,0,1-6.62,3,8.93,8.93,0,0,1-6.66-3,11.16,11.16,0,0,1-2.94-7.84A11.2,11.2,0,0,1,18.33,3Zm1.45,13.5A6.31,6.31,0,0,0,25,19.2a6.43,6.43,0,0,0,4.7-2.14A8.71,8.71,0,0,0,32,10.88a9,9,0,0,0-1.86-5.63A6.31,6.31,0,0,0,25,2.56,6.47,6.47,0,0,0,20.25,4.7a8.75,8.75,0,0,0-2.33,6.18A9,9,0,0,0,19.78,16.51Z"/><path class="cls-1" d="M36.45,0h2.78l.35.77,7.17,16.48L53.86.77,54.21,0H57l-.77,1.79L47.94,21l-.36.77H45.92L45.57,21,37.21,1.79Z"/><path class="cls-1" d="M75.52,0V2.56H62.72v7h9.34v2.56H62.72v7h12.8v2.56H60.16V0H75.52Z"/><path class="cls-1" d="M107.2,0h1.28V2.56h-7v19.2H98.91V2.56H91.84V0H107.2Z"/><path class="cls-1" d="M128.32,20.48v1.28h-2.56v-9.6H114.88v9.6h-2.56V0h2.56V9.6h10.88V0h2.56V20.48Z"/><path class="cls-1" d="M134.27,0h2.56V21.76h-2.56V0Z"/><path class="cls-1" d="M152.7,6.08a2.93,2.93,0,0,0-.8-2,4.81,4.81,0,0,0-3.74-1.5,5.43,5.43,0,0,0-2.59.64,3.15,3.15,0,0,0-1.95,2.88,1.56,1.56,0,0,0,.16.67c.36.71,1.56,1.45,3.61,2.24,2.54,1,4.07,1.62,4.58,1.86q3.87,2,3.87,4.83a5.45,5.45,0,0,1-1.73,3.78,8.14,8.14,0,0,1-6,2.3A8.61,8.61,0,0,1,142.75,20a5.41,5.41,0,0,1-2.27-4.32H143a3,3,0,0,0,1,2.05,5.82,5.82,0,0,0,4.16,1.47,6.69,6.69,0,0,0,3-.7,3.18,3.18,0,0,0,2.08-2.82,1.42,1.42,0,0,0-.19-.7c-.36-.73-1.58-1.5-3.65-2.31q-3.78-1.47-4.51-1.82-3.87-1.92-3.87-4.77a5.52,5.52,0,0,1,1.53-3.78A7.23,7.23,0,0,1,148.16,0,7.57,7.57,0,0,1,153,1.6a5.51,5.51,0,0,1,2.3,4.48Z"/><path class="cls-1" d="M174.08,19.23h2.56v2.6h-2.56v-2.6Z"/><path class="cls-1" d="M181.76,19.23h2.56v2.6h-2.56v-2.6Z"/><path class="cls-1" d="M189.44,19.23H192v2.6h-2.56v-2.6Z"/></g></g></svg>