<svg xmlns="http://www.w3.org/2000/svg" viewBox="0 0 1440.65 396.97"><defs><style>.cls-1{fill:#fff;}.cls-2{fill:#99f;}.cls-3{opacity:0.6;}.cls-4{fill:#cc2f98;}.cls-5{fill:#22a5f1;}.cls-6{fill:#2961b2;}.cls-7{fill:#0acc81;}.cls-8{fill:#9f59fc;}.cls-9{fill:#ef4e1e;}.cls-10{fill:#fc7262;}.cls-11{fill:#1ab9fb;}.cls-12{fill:#f55513;}</style></defs><g id="레이어_2" data-name="레이어 2"><g id="레이어_1-2" data-name="레이어 1"><path class="cls-1" d="M622.62,21.76h-2.56V0h2.11l.32.77L630,17.34,637.44.77l.32-.77h2.11V1.28l0,19.2v1.28h-2.56V20.48l0-13.25L631.13,21l-.32.77h-1.66l-.32-.77L622.62,7.23V21.76Z"/><path class="cls-1" d="M653.09,20.48v1.28h-2.56V11.3l-6-9.32-1.24-2h3l.38.58,5.06,7.9L656.73.61l.39-.61h3l-1.22,2-5.82,9.28Z"/><path class="cls-1" d="M676.89,21.76h-2.78l.77-1.79L683.2.77l.35-.77h1.66l.36.77L693.89,20l.76,1.79h-2.78l-.35-.77L684.38,4.51,677.25,21Z"/><path class="cls-1" d="M711.58,11.1a5.74,5.74,0,0,1,.74,8.42,6.38,6.38,0,0,1-5,2.24h-9.47V10.88l0-9.57V0h1.28l7,0a6.67,6.67,0,0,1,4.35,1.54,5.72,5.72,0,0,1,2.21,4.54,5.83,5.83,0,0,1-2,4.38A9.42,9.42,0,0,1,711.58,11.1Zm-5.47-1.5A4.26,4.26,0,0,0,708.38,9a3.21,3.21,0,0,0,1-4.9,4,4,0,0,0-3.26-1.5h-5.73V9.63Zm-5.7,9.63,6.88,0a4.11,4.11,0,0,0,2.24-.64,3.21,3.21,0,0,0,1.73-2.88,3.28,3.28,0,0,0-.7-2,3.94,3.94,0,0,0-3.27-1.5h-6.88Z"/><path class="cls-1" d="M717.85,0h2.56V21.76h-2.56V0Z"/><path class="cls-1" d="M726,0h2.56V19.2h10.24v2.56H726V0Z"/><path class="cls-1" d="M742.17,0h2.56V21.76h-2.56V0Z"/><path class="cls-1" d="M763.1,0h1.28V2.56h-7v19.2h-2.56V2.56h-7.07V0H763.1Z"/><path class="cls-1" d="M775,20.48v1.28h-2.56V11.3l-6-9.32-1.24-2h3l.38.58,5.06,7.9L778.65.61,779,0h3l-1.22,2L775,11.23Z"/><path class="cls-1" d="M1319.17,347.69l0-9.56v-1.28h1.28l8.13,0a6.68,6.68,0,0,1,4.32,1.54,5.73,5.73,0,0,1,.73,8.42,6.43,6.43,0,0,1-5.05,2.2h-6.88v9.6h-2.56V347.69Zm9.44-1.28a4.46,4.46,0,0,0,2.2-.57,3.2,3.2,0,0,0,1.8-2.91,3.27,3.27,0,0,0-.71-2,3.94,3.94,0,0,0-3.29-1.54h-6.88v7.08Z"/><path class="cls-1" d="M1345.66,343.21h1.28v2.56h-1.28a3.91,3.91,0,0,0-1.92.48c-1.43.79-2.15,2.28-2.17,4.45v7.87H1339V343.21h2.56v1.35A6.65,6.65,0,0,1,1345.66,343.21Z"/><path class="cls-1" d="M1361.53,355.57a7.05,7.05,0,0,1-6,3,6.61,6.61,0,0,1-4.61-1.85,7.64,7.64,0,0,1-2.43-5.83,7.87,7.87,0,0,1,1.83-5.18,6.63,6.63,0,0,1,9.79-.64,7.57,7.57,0,0,1,2.46,5.82v1.28h-11.39a5.51,5.51,0,0,0,.77,1.8,4.1,4.1,0,0,0,3.58,2,4.76,4.76,0,0,0,3.91-2Zm-1.47-6a3.36,3.36,0,0,0-.86-2,4.54,4.54,0,0,0-3.62-1.83,4,4,0,0,0-1.89.48,4.77,4.77,0,0,0-2.46,3.36Z"/><path class="cls-1" d="M1376.64,345.39a5.4,5.4,0,0,1,7.87-.86,6,6,0,0,1,2.18,4.83v7.93l0,1.32h-2.53l0-1.28,0-8a4.2,4.2,0,0,0-.48-1.95,2.94,2.94,0,0,0-4.39-1.06,3.53,3.53,0,0,0-1.41,3v7.93l0,1.32h-2.53l0-1.28,0-6.69v-1.28a4.2,4.2,0,0,0-.48-1.95,2.93,2.93,0,0,0-4.38-1.06,3.53,3.53,0,0,0-1.41,3v9.21h-2.56V343.21H1369v1a5.61,5.61,0,0,1,3.14-1,5.71,5.71,0,0,1,4.41,2.24A.1.1,0,0,0,1376.64,345.39Z"/><path class="cls-1" d="M1391.33,341.26V338.7h2.59v2.56h-2.59Zm0,1.95h2.56v15.36h-2.56V343.21Z"/><path class="cls-1" d="M1409.92,355.57a7.08,7.08,0,0,1-6,3,6.59,6.59,0,0,1-4.61-1.85,7.64,7.64,0,0,1-2.43-5.83,7.86,7.86,0,0,1,1.82-5.18,6.6,6.6,0,0,1,5.22-2.5,6.49,6.49,0,0,1,4.57,1.86,7.58,7.58,0,0,1,2.47,5.82v1.28h-11.4a5.73,5.73,0,0,0,.77,1.8,4.12,4.12,0,0,0,3.59,2,4.74,4.74,0,0,0,3.9-2Zm-1.47-6a3.32,3.32,0,0,0-.87-2,4.54,4.54,0,0,0-3.61-1.83,3.9,3.9,0,0,0-1.89.48,4.81,4.81,0,0,0-2.47,3.36Z"/><path class="cls-1" d="M1421.5,343.21h1.28v2.56h-1.28a3.91,3.91,0,0,0-1.92.48c-1.43.79-2.15,2.28-2.17,4.45v7.87h-2.56V343.21h2.56v1.35A6.65,6.65,0,0,1,1421.5,343.21Z"/><path class="cls-1" d="M1437.37,355.57a7.05,7.05,0,0,1-5.95,3,6.61,6.61,0,0,1-4.61-1.85,7.64,7.64,0,0,1-2.43-5.83,7.87,7.87,0,0,1,1.83-5.18,6.63,6.63,0,0,1,9.79-.64,7.57,7.57,0,0,1,2.46,5.82v1.28h-11.39a5.51,5.51,0,0,0,.77,1.8,4.1,4.1,0,0,0,3.58,2,4.76,4.76,0,0,0,3.91-2Zm-1.47-6a3.36,3.36,0,0,0-.86-2,4.54,4.54,0,0,0-3.62-1.83,4,4,0,0,0-1.89.48,4.77,4.77,0,0,0-2.46,3.36Z"/><g id="Outlined_Mnemonics_Logos" data-name="Outlined Mnemonics Logos"><path class="cls-2" d="M1359.3,232v-27.7c0-.19.08-.3.27-.3.46,0,.89,0,1.51,0s1.32,0,2.05-.05,1.5,0,2.34-.06,1.64,0,2.45,0a16,16,0,0,1,5.55.83,9.59,9.59,0,0,1,3.6,2.21,8.56,8.56,0,0,1,2,3.07,10.4,10.4,0,0,1,.62,3.5,9.59,9.59,0,0,1-1.62,5.73,9.2,9.2,0,0,1-4.33,3.29,17.52,17.52,0,0,1-6.06.91c-.65,0-1.08,0-1.35,0s-.64,0-1.15,0V232a.35.35,0,0,1-.3.38h-5.22C1359.41,232.37,1359.3,232.26,1359.3,232Zm5.87-22.8v9c.38,0,.73.06,1,.06h1.43a10.2,10.2,0,0,0,3.1-.49,4.54,4.54,0,0,0,2.2-1.43,4.11,4.11,0,0,0,.84-2.77,4.44,4.44,0,0,0-.62-2.4,3.9,3.9,0,0,0-1.89-1.53,7.87,7.87,0,0,0-3.17-.54c-.7,0-1.32,0-1.83,0a5.61,5.61,0,0,0-1.11,0Z"/><path class="cls-2" d="M1383.43,210.78h4.71a.6.6,0,0,1,.56.43,2.86,2.86,0,0,1,.17.67c.05.27.1.57.13.84a9.3,9.3,0,0,1,0,1,10.08,10.08,0,0,1,2.88-2.31,8.37,8.37,0,0,1,4.1-1.05.32.32,0,0,1,.37.3V216c0,.22-.13.3-.43.3a11.28,11.28,0,0,0-2.9.27,10.55,10.55,0,0,0-2.27.73,4.18,4.18,0,0,0-1.37,1V232c0,.27-.11.38-.35.38h-5.3a.37.37,0,0,1-.43-.32V217c0-.64,0-1.32,0-2s0-1.4,0-2.1-.06-1.21-.11-1.83a.24.24,0,0,1,.19-.29s.05,0,.08,0Z"/></g><g class="cls-3"><path class="cls-1" d="M1377.85,280.91a62.8,62.8,0,1,1,62.8-62.79A62.86,62.86,0,0,1,1377.85,280.91Zm0-119.59a56.8,56.8,0,1,0,56.8,56.8A56.86,56.86,0,0,0,1377.85,161.32Z"/></g><path class="cls-2" d="M1377.85,280.91l-.06-6a56.8,56.8,0,1,0,.06-113.59v-6a62.8,62.8,0,1,1,0,125.59Z"/><path class="cls-1" d="M846.36,337.36l.38-.55h3.14l-1.41,2-6,8.45,6.53,9.28,1.41,2h-3.14l-.39-.54-6-8.51L835,358l-.39.54h-3.13l1.4-2,6.53-9.28-6-8.45-1.41-2h3.14l.38.55L841,345Z"/><path class="cls-1" d="M853.11,358.57V336.81h8.45a8.57,8.57,0,0,1,6,3.3,10.13,10.13,0,0,1,2.24,7.58,10.46,10.46,0,0,1-2.14,7.49,8.42,8.42,0,0,1-6.05,3.39h-8.45Zm8.26-2.56a5.74,5.74,0,0,0,4.06-2.27,8.16,8.16,0,0,0,1.76-6.05v-.09a8.46,8.46,0,0,0-1.28-5.31,5.85,5.85,0,0,0-4.54-2.92h-5.7V356Z"/><g id="Outlined_Mnemonics_Logos-2" data-name="Outlined Mnemonics Logos"><g id="Xd"><path class="cls-4" d="M853.49,205.31l-8.06,13.3,8.62,14.13a.43.43,0,0,1,.05.33c0,.1-.13,0-.31.07h-6.15c-.43,0-.74,0-.91-.31L845,229.47c-.58-1.11-1.2-2.24-1.85-3.4s-1.29-2.33-1.93-3.51h0c-.58,1.15-1.18,2.31-1.8,3.47l-1.84,3.44c-.61,1.14-1.23,2.28-1.86,3.4-.12.26-.32.29-.61.29h-5.94c-.11,0-.18.05-.19-.07a.4.4,0,0,1,.06-.3l8.37-13.74-8.15-13.79c-.09-.11-.1-.21-.05-.28a.38.38,0,0,1,.26-.11h6.12a1.07,1.07,0,0,1,.39.07.85.85,0,0,1,.26.24c.52,1.15,1.09,2.31,1.73,3.46s1.28,2.3,1.93,3.43,1.25,2.27,1.8,3.42h0c.58-1.18,1.16-2.34,1.76-3.46s1.2-2.27,1.82-3.41,1.22-2.27,1.8-3.4a.62.62,0,0,1,.17-.28.61.61,0,0,1,.35-.07h5.67a.26.26,0,0,1,.31.18.25.25,0,0,1-.09.26Z"/><path class="cls-4" d="M865.93,233.7a13.48,13.48,0,0,1-5.79-1.22,9.2,9.2,0,0,1-4-3.66,11.74,11.74,0,0,1-1.47-6.13,11.3,11.3,0,0,1,1.47-5.68,10.86,10.86,0,0,1,4.29-4.16,13.88,13.88,0,0,1,6.81-1.56l.56,0,.82.07v-8.54c0-.21.09-.31.26-.31h5.47a.23.23,0,0,1,.26.2v25.68c0,.49,0,1,.06,1.6s.08,1.1.11,1.56a.45.45,0,0,1-.26.44,21.62,21.62,0,0,1-4.38,1.3A24.12,24.12,0,0,1,865.93,233.7Zm2.64-5.38V216.49a4.23,4.23,0,0,0-.71-.13,8.83,8.83,0,0,0-.89,0,6.63,6.63,0,0,0-3,.69,5.92,5.92,0,0,0-2.28,2,6,6,0,0,0-.89,3.43,7.71,7.71,0,0,0,.46,2.77,5.18,5.18,0,0,0,1.21,1.91,4.57,4.57,0,0,0,1.82,1.08,7.07,7.07,0,0,0,2.23.35c.41,0,.78,0,1.13,0A5.14,5.14,0,0,0,868.57,228.32Z"/></g></g><g class="cls-3"><path class="cls-1" d="M851.83,280.91a62.8,62.8,0,1,1,62.8-62.79A62.87,62.87,0,0,1,851.83,280.91Zm0-119.59a56.8,56.8,0,1,0,56.8,56.8A56.86,56.86,0,0,0,851.83,161.32Z"/></g><path class="cls-4" d="M851.83,280.91a62.76,62.76,0,0,1-61.42-75.85l5.87,1.24a56.8,56.8,0,1,0,55.55-45v-6a62.8,62.8,0,1,1,0,125.59Z"/><path class="cls-1" d="M1024.76,336.81h2.79l.35.77,7.17,16.48,7.1-16.48.35-.77h2.79l-.77,1.8-8.29,19.2-.35.76h-1.67l-.35-.76-8.35-19.2Z"/><path class="cls-1" d="M1047.35,341.26V338.7h2.6v2.56h-2.6Zm0,1.95h2.57v15.36h-2.57V343.21Z"/><path class="cls-1" d="M1061.82,347.66a1.35,1.35,0,0,0-.35-.89,3.12,3.12,0,0,0-2.56-1,4.54,4.54,0,0,0-1.32.2c-1.06.34-1.6.9-1.6,1.69a.85.85,0,0,0,.2.51,7.58,7.58,0,0,0,2.94,1.32,24,24,0,0,1,2.37.8q3.39,1.36,3.36,3.84a3.75,3.75,0,0,1-1,2.43,6.22,6.22,0,0,1-5,2,7.05,7.05,0,0,1-4-1.12,3.94,3.94,0,0,1-2-3.32h2.56a1.27,1.27,0,0,0,.39.89,3.91,3.91,0,0,0,3,1,5.7,5.7,0,0,0,1.47-.19c1.28-.32,1.92-.88,1.92-1.69a.88.88,0,0,0-.16-.48,7.23,7.23,0,0,0-2.91-1.28c-1-.32-1.84-.59-2.37-.8q-3.39-1.38-3.43-3.91a4,4,0,0,1,1-2.53,5.56,5.56,0,0,1,4.52-1.92,6.16,6.16,0,0,1,3.55,1.06,4,4,0,0,1,1.92,3.39Z"/><path class="cls-1" d="M1068.09,343.25h2.59l0,1.28,0,8.19a3,3,0,0,0,.61,1.82,3.61,3.61,0,0,0,3,1.47,3.88,3.88,0,0,0,2-.54,3.07,3.07,0,0,0,1.63-2.75v-8.23l0-1.24h2.59l0,1.28,0,8.19a5.56,5.56,0,0,1-1.34,3.65,6,6,0,0,1-4.83,2.2,6.2,6.2,0,0,1-4-1.37,5.47,5.47,0,0,1-2.21-4.48v-8.23Z"/><path class="cls-1" d="M1085.53,345.68a6.49,6.49,0,0,1,5.15-2.47,6.57,6.57,0,0,1,4.48,1.76v-1.76h2.56v15.36h-2.56v-1.76a6.64,6.64,0,0,1-4.48,1.76,6.46,6.46,0,0,1-4.57-1.85,7.57,7.57,0,0,1-2.47-5.83A7.76,7.76,0,0,1,1085.53,345.68Zm1.6,8.32a4.1,4.1,0,0,0,3.55,2,4,4,0,0,0,2.69-1,5.19,5.19,0,0,0,1.79-4.1,5.51,5.51,0,0,0-.93-3.1,4.1,4.1,0,0,0-3.55-2,4,4,0,0,0-2.69,1,5.18,5.18,0,0,0-1.79,4.09A5.51,5.51,0,0,0,1087.13,354Z"/><path class="cls-1" d="M1102.84,335.53h2.56v23h-2.56v-23Z"/><path class="cls-1" d="M1133.72,342.89a2.92,2.92,0,0,0-.8-2,4.83,4.83,0,0,0-3.74-1.51,5.55,5.55,0,0,0-2.59.64,3.18,3.18,0,0,0-2,2.88,1.77,1.77,0,0,0,.16.68c.37.7,1.57,1.45,3.62,2.24,2.54,1,4.06,1.62,4.58,1.85q3.87,1.95,3.87,4.83a5.43,5.43,0,0,1-1.73,3.78,8.1,8.1,0,0,1-6,2.3,8.55,8.55,0,0,1-5.41-1.76,5.4,5.4,0,0,1-2.27-4.32h2.56a3,3,0,0,0,1,2.05,5.82,5.82,0,0,0,4.16,1.47,6.69,6.69,0,0,0,3-.7,3.16,3.16,0,0,0,2.08-2.82,1.57,1.57,0,0,0-.19-.7c-.37-.72-1.58-1.49-3.65-2.3-2.52-1-4-1.59-4.51-1.83-2.58-1.28-3.88-2.87-3.88-4.77a5.51,5.51,0,0,1,1.54-3.77,7.2,7.2,0,0,1,5.57-2.31,7.63,7.63,0,0,1,4.8,1.6,5.54,5.54,0,0,1,2.3,4.48Z"/><path class="cls-1" d="M1143.48,354.06q0,1.89,2.34,1.95h1.28v2.56h-1.28a7.2,7.2,0,0,1-1.7-.19q-3.19-.74-3.2-4.29v-8.32h-2.14v-2.56h2.14v-3.36l0-1.24h2.6l0,1.28v3.32h3.59v2.56h-3.59Z"/><path class="cls-1" d="M1149.69,343.25h2.59l0,1.28,0,8.19a3,3,0,0,0,.61,1.82,3.61,3.61,0,0,0,3,1.47,3.88,3.88,0,0,0,2-.54,3.07,3.07,0,0,0,1.63-2.75v-8.23l0-1.24h2.6l0,1.28,0,8.19a5.56,5.56,0,0,1-1.34,3.65,6,6,0,0,1-4.83,2.2,6.2,6.2,0,0,1-4-1.37,5.47,5.47,0,0,1-2.21-4.48v-8.23Z"/><path class="cls-1" d="M1167.13,345.68a6.49,6.49,0,0,1,5.15-2.47,6.57,6.57,0,0,1,4.48,1.76v-9.44h2.56v23h-2.56v-1.76a6.64,6.64,0,0,1-4.48,1.76,6.46,6.46,0,0,1-4.57-1.85,7.57,7.57,0,0,1-2.47-5.83A7.76,7.76,0,0,1,1167.13,345.68Zm1.6,8.32a4.1,4.1,0,0,0,3.55,2,4,4,0,0,0,2.69-1,5.16,5.16,0,0,0,1.79-4.1,5.51,5.51,0,0,0-.93-3.1,4.1,4.1,0,0,0-3.55-2,4,4,0,0,0-2.69,1,5.18,5.18,0,0,0-1.79,4.09A5.51,5.51,0,0,0,1168.73,354Z"/><path class="cls-1" d="M1184,341.26V338.7h2.59v2.56H1184Zm0,1.95h2.56v15.36H1184V343.21Z"/><path class="cls-1" d="M1191.45,345.68a6.59,6.59,0,0,1,9.73-.61,7.57,7.57,0,0,1,2.46,5.82,7.76,7.76,0,0,1-1.89,5.22,6.6,6.6,0,0,1-9.72.61,7.57,7.57,0,0,1-2.47-5.83A7.76,7.76,0,0,1,1191.45,345.68Zm1.6,8.32a4.1,4.1,0,0,0,3.55,2,4,4,0,0,0,2.69-1,5.19,5.19,0,0,0,1.79-4.1,5.51,5.51,0,0,0-.93-3.1,4.1,4.1,0,0,0-3.55-2,4,4,0,0,0-2.69,1,5.18,5.18,0,0,0-1.79,4.09A5.51,5.51,0,0,0,1193.05,354Z"/><path class="cls-1" d="M1098.06,392.37a8.82,8.82,0,0,1-1.86,2.17,9.6,9.6,0,0,1-6.33,2.43,8.83,8.83,0,0,1-6.63-3,11.92,11.92,0,0,1,0-15.71,8.67,8.67,0,0,1,6.6-3,9.47,9.47,0,0,1,4.25,1.06,8.61,8.61,0,0,1,3.91,3.65l-2.31,1.15a5.25,5.25,0,0,0-1.18-1.5,6.88,6.88,0,0,0-4.67-1.8,6.46,6.46,0,0,0-4.71,2.15,8.77,8.77,0,0,0-2.3,6.17,9.1,9.1,0,0,0,1.82,5.6,6.3,6.3,0,0,0,5.19,2.73,6.84,6.84,0,0,0,2.62-.55,6.51,6.51,0,0,0,3.33-2.78Z"/><path class="cls-1" d="M1102.67,384.08a6.58,6.58,0,0,1,9.72-.61,7.56,7.56,0,0,1,2.47,5.82,7.76,7.76,0,0,1-1.89,5.22,6.61,6.61,0,0,1-9.73.61,7.59,7.59,0,0,1-2.46-5.83A7.76,7.76,0,0,1,1102.67,384.08Zm1.6,8.32a4.1,4.1,0,0,0,3.55,2,4,4,0,0,0,2.69-1,5.19,5.19,0,0,0,1.79-4.1,5.51,5.51,0,0,0-.93-3.1,4.11,4.11,0,0,0-3.55-2,4,4,0,0,0-2.69,1,5.18,5.18,0,0,0-1.79,4.09A5.51,5.51,0,0,0,1104.27,392.4Z"/><path class="cls-1" d="M1119.31,384.08a6.48,6.48,0,0,1,5.15-2.47,6.59,6.59,0,0,1,4.48,1.76v-9.44h2.56v23h-2.56v-1.76a6.66,6.66,0,0,1-4.48,1.76,6.5,6.5,0,0,1-4.58-1.85,7.59,7.59,0,0,1-2.46-5.83A7.76,7.76,0,0,1,1119.31,384.08Zm1.6,8.32a4.1,4.1,0,0,0,3.55,2,4,4,0,0,0,2.69-1,5.19,5.19,0,0,0,1.79-4.1,5.51,5.51,0,0,0-.93-3.1,4.11,4.11,0,0,0-3.55-2,4,4,0,0,0-2.69,1,5.18,5.18,0,0,0-1.79,4.09A5.51,5.51,0,0,0,1120.91,392.4Z"/><path class="cls-1" d="M1148.33,394a7.06,7.06,0,0,1-5.95,3,6.59,6.59,0,0,1-4.61-1.85,7.64,7.64,0,0,1-2.43-5.83,7.91,7.91,0,0,1,1.82-5.18,6.6,6.6,0,0,1,5.22-2.5,6.47,6.47,0,0,1,4.57,1.86,7.56,7.56,0,0,1,2.47,5.82v1.28H1138a5.71,5.71,0,0,0,.76,1.8,4.13,4.13,0,0,0,3.59,2.05,4.73,4.73,0,0,0,3.9-2Zm-1.47-6a3.32,3.32,0,0,0-.87-2,4.52,4.52,0,0,0-3.61-1.83,4,4,0,0,0-1.89.48A4.77,4.77,0,0,0,1138,388Z"/><path class="cls-5" d="M1138.1,218.11V204.26a11.77,11.77,0,0,0-.26-3,2.3,2.3,0,0,0-1-1.25s-10.38-5.06-10.68-5a2.77,2.77,0,0,0-2.59.89l-18.28,16.64-6.91-5.25a8.85,8.85,0,0,0-1.83-1.14,1.62,1.62,0,0,0-1.3.16,17.69,17.69,0,0,0-3.18,2.87,2.13,2.13,0,0,0-.37,1.69c.15.58.7,1.06,1.71,2l5.78,5.26c-2.24,2.05-4.54,4.13-5.78,5.26-1,.92-1.56,1.4-1.71,2a2.15,2.15,0,0,0,.37,1.69,17.69,17.69,0,0,0,3.18,2.87,1.61,1.61,0,0,0,1.3.15,9,9,0,0,0,1.83-1.13l6.93-5.27,18.26,16.62h0a2.77,2.77,0,0,0,2.59.89c.3.05,10.68-5,10.68-5a2.3,2.3,0,0,0,1-1.25,11.77,11.77,0,0,0,.26-3Zm-25.53,0,13.89-10.53v21.07Z"/><g class="cls-3"><path class="cls-1" d="M1114.86,280.91a62.8,62.8,0,1,1,62.8-62.79A62.87,62.87,0,0,1,1114.86,280.91Zm0-119.59a56.8,56.8,0,1,0,56.8,56.8A56.86,56.86,0,0,0,1114.86,161.32Z"/></g><path class="cls-5" d="M1114.86,280.91a62.79,62.79,0,0,1-57.28-88.53l5.47,2.45a56.8,56.8,0,1,0,51.81-33.51v-6a62.8,62.8,0,1,1,0,125.59Z"/><path class="cls-1" d="M255.54,347.69l0-9.56v-1.28h1.28l8.13,0a6.68,6.68,0,0,1,4.32,1.54,5.68,5.68,0,0,1,2.24,4.58,5.6,5.6,0,0,1-1.51,3.84,6.43,6.43,0,0,1-5,2.2H258.1v9.6h-2.56V347.69Zm9.44-1.28a4.43,4.43,0,0,0,2.2-.57,3.2,3.2,0,0,0,1.8-2.91,3.27,3.27,0,0,0-.71-2,3.94,3.94,0,0,0-3.29-1.54H258.1v7.08Z"/><path class="cls-1" d="M281.46,343.21a5.56,5.56,0,0,1,3.8,1.48,6.45,6.45,0,0,1,2.28,5.15v7.45l0,1.32H285l0-1.28,0-7.49a4.64,4.64,0,0,0-.61-2.31,3.26,3.26,0,0,0-2.91-1.76,3.15,3.15,0,0,0-2,.71,4.05,4.05,0,0,0-1.53,3.36v8.73h-2.56v-21h2.56v6.85A5.91,5.91,0,0,1,281.46,343.21Z"/><path class="cls-1" d="M293.26,345.68a6.59,6.59,0,0,1,9.73-.61,7.58,7.58,0,0,1,2.47,5.82,7.76,7.76,0,0,1-1.89,5.22,6.61,6.61,0,0,1-9.73.61,7.59,7.59,0,0,1-2.46-5.83A7.8,7.8,0,0,1,293.26,345.68Zm1.6,8.32a4.11,4.11,0,0,0,3.56,2,4,4,0,0,0,2.68-1,5.17,5.17,0,0,0,1.8-4.1,5.51,5.51,0,0,0-.93-3.1,4.11,4.11,0,0,0-3.55-2,4,4,0,0,0-2.69,1,5.15,5.15,0,0,0-1.79,4.09A5.58,5.58,0,0,0,294.86,354Z"/><path class="cls-1" d="M312.08,354.06q0,1.89,2.34,1.95h1.28v2.56h-1.28a7.14,7.14,0,0,1-1.7-.19q-3.2-.74-3.2-4.29v-8.32h-2.14v-2.56h2.14v-3.36l0-1.24h2.59l0,1.28v3.32h3.59v2.56h-3.59Z"/><path class="cls-1" d="M319.5,345.68a6.59,6.59,0,0,1,9.73-.61,7.54,7.54,0,0,1,2.47,5.82,7.76,7.76,0,0,1-1.89,5.22,6.61,6.61,0,0,1-9.73.61,7.59,7.59,0,0,1-2.46-5.83A7.8,7.8,0,0,1,319.5,345.68Zm1.6,8.32a4.11,4.11,0,0,0,3.56,2,4,4,0,0,0,2.68-1,5.17,5.17,0,0,0,1.8-4.1,5.51,5.51,0,0,0-.93-3.1,4.11,4.11,0,0,0-3.55-2,4,4,0,0,0-2.69,1,5.15,5.15,0,0,0-1.79,4.09A5.58,5.58,0,0,0,321.1,354Z"/><path class="cls-1" d="M343.12,347.66a1.35,1.35,0,0,0-.35-.89,3.12,3.12,0,0,0-2.56-1,4.42,4.42,0,0,0-1.31.2c-1.07.34-1.6.9-1.6,1.69a.83.83,0,0,0,.19.51,7.58,7.58,0,0,0,2.94,1.32,24,24,0,0,1,2.37.8q3.39,1.36,3.36,3.84a3.75,3.75,0,0,1-1,2.43,6.22,6.22,0,0,1-5,2,7.05,7.05,0,0,1-4-1.12,3.93,3.93,0,0,1-1.95-3.32h2.56a1.25,1.25,0,0,0,.38.89,3.91,3.91,0,0,0,3,1,5.7,5.7,0,0,0,1.47-.19c1.28-.32,1.92-.88,1.92-1.69a.88.88,0,0,0-.16-.48,7.23,7.23,0,0,0-2.91-1.28c-1-.32-1.84-.59-2.37-.8q-3.39-1.38-3.42-3.91a4,4,0,0,1,1-2.53,5.54,5.54,0,0,1,4.51-1.92,6.14,6.14,0,0,1,3.55,1.06,4,4,0,0,1,1.92,3.39Z"/><path class="cls-1" d="M356.08,343.21a5.6,5.6,0,0,1,3.81,1.48,6.47,6.47,0,0,1,2.27,5.15v7.45l0,1.32h-2.53l0-1.28,0-7.49a4.54,4.54,0,0,0-.61-2.31,3.25,3.25,0,0,0-2.91-1.76,3.1,3.1,0,0,0-2,.71,4,4,0,0,0-1.54,3.36v8.73H350v-21h2.56v6.85A5.91,5.91,0,0,1,356.08,343.21Z"/><path class="cls-1" d="M367.89,345.68a6.59,6.59,0,0,1,9.73-.61,7.57,7.57,0,0,1,2.46,5.82,7.76,7.76,0,0,1-1.89,5.22,6.61,6.61,0,0,1-9.73.61,7.59,7.59,0,0,1-2.46-5.83A7.76,7.76,0,0,1,367.89,345.68Zm1.6,8.32a4.09,4.09,0,0,0,3.55,2,4,4,0,0,0,2.69-1,5.19,5.19,0,0,0,1.79-4.1,5.51,5.51,0,0,0-.93-3.1,4.1,4.1,0,0,0-3.55-2,4,4,0,0,0-2.69,1,5.18,5.18,0,0,0-1.79,4.09A5.51,5.51,0,0,0,369.49,354Z"/><path class="cls-1" d="M383.92,344.49v-1.28h2.56V345a6.56,6.56,0,0,1,4.51-1.76,6.48,6.48,0,0,1,4.55,1.86,7.57,7.57,0,0,1,2.46,5.82,7.76,7.76,0,0,1-1.89,5.22,6.6,6.6,0,0,1-9.63.7v8.36h-2.56V344.49Zm3.49,9.51a4.09,4.09,0,0,0,3.55,2,4,4,0,0,0,2.69-1,5.19,5.19,0,0,0,1.79-4.1,5.51,5.51,0,0,0-.93-3.1,4.08,4.08,0,0,0-3.52-2,4.18,4.18,0,0,0-2.69,1,5.38,5.38,0,0,0-1.82,4.12A5.51,5.51,0,0,0,387.41,354Z"/><g id="Outlined_Mnemonics_Logos-3" data-name="Outlined Mnemonics Logos"><path class="cls-6" d="M306.39,231.71V204c0-.21.09-.31.27-.31.46,0,.88,0,1.51,0l2.06,0,2.34-.05,2.45,0a16.23,16.23,0,0,1,5.55.83,9.47,9.47,0,0,1,3.62,2.21,8.44,8.44,0,0,1,2,3,10.14,10.14,0,0,1,.61,3.49,9.62,9.62,0,0,1-1.6,5.72,9.13,9.13,0,0,1-4.34,3.28,17.24,17.24,0,0,1-6.07.91c-.63,0-1.08,0-1.34,0l-1.17,0v8.65a.35.35,0,0,1-.29.39H306.7C306.5,232.06,306.39,232,306.39,231.71Zm5.86-22.8v9c.37,0,.72,0,1,0h1.43a10.2,10.2,0,0,0,3.1-.49,4.75,4.75,0,0,0,2.21-1.43,4.2,4.2,0,0,0,.84-2.78,4.33,4.33,0,0,0-.62-2.38,4.07,4.07,0,0,0-1.89-1.54,8,8,0,0,0-3.16-.54c-.7,0-1.31,0-1.85,0s-.9,0-1.1.06Z"/><path class="cls-6" d="M343.53,216.31a10.32,10.32,0,0,0-2.58-.92,13.89,13.89,0,0,0-3-.34,5.6,5.6,0,0,0-1.63.19,1.49,1.49,0,0,0-.84.55,1.33,1.33,0,0,0-.22.73,1.18,1.18,0,0,0,.26.7,3,3,0,0,0,.91.71,19.46,19.46,0,0,0,1.91.89,19.4,19.4,0,0,1,4.14,2,6.38,6.38,0,0,1,2.12,2.23,6,6,0,0,1,.63,2.78,6.19,6.19,0,0,1-1,3.57,6.83,6.83,0,0,1-3,2.41,12.11,12.11,0,0,1-4.88.87,18,18,0,0,1-3.66-.35,11.44,11.44,0,0,1-2.75-.87.55.55,0,0,1-.31-.52v-4.68a.26.26,0,0,1,.11-.24.23.23,0,0,1,.24,0,11.5,11.5,0,0,0,3.34,1.33,14,14,0,0,0,3.16.41,4.83,4.83,0,0,0,2.23-.39,1.23,1.23,0,0,0,.72-1.13,1.43,1.43,0,0,0-.65-1.08,10.73,10.73,0,0,0-2.65-1.26,15.72,15.72,0,0,1-3.83-1.95,6.57,6.57,0,0,1-2-2.28,5.94,5.94,0,0,1-.63-2.75,6.23,6.23,0,0,1,.91-3.25,6.62,6.62,0,0,1,2.82-2.47,10.69,10.69,0,0,1,4.77-.95,20.85,20.85,0,0,1,3.34.24,9,9,0,0,1,2.32.62.44.44,0,0,1,.26.24,1.24,1.24,0,0,1,0,.33v4.38a.28.28,0,0,1-.13.26A.48.48,0,0,1,343.53,216.31Z"/></g><g class="cls-3"><path class="cls-1" d="M325.81,280.91a62.8,62.8,0,1,1,62.79-62.79A62.87,62.87,0,0,1,325.81,280.91Zm0-119.59a56.8,56.8,0,1,0,56.79,56.8A56.86,56.86,0,0,0,325.81,161.32Z"/></g><path class="cls-6" d="M325.81,280.91a62.79,62.79,0,0,1-52.46-97.31l5,3.3a56.79,56.79,0,1,0,47.45-25.58v-6a62.8,62.8,0,0,1,0,125.59Z"/><path class="cls-1" d="M563,336.81v2.56H552.15v7H560V349h-7.87v9.6h-2.56V336.81H563Z"/><path class="cls-1" d="M565.75,341.26V338.7h2.59v2.56h-2.59Zm0,1.95h2.56v15.36h-2.56V343.21Z"/><path class="cls-1" d="M573.24,345.68a6.48,6.48,0,0,1,5.15-2.47,6.61,6.61,0,0,1,4.48,1.76v-.48l0-1.24h2.59l0,1.28,0,12.76a7.63,7.63,0,0,1-.32,2.12,9.2,9.2,0,0,1-1,2.11,9.64,9.64,0,0,1-1.45,1.84,6.75,6.75,0,0,1-2,1.31,5.76,5.76,0,0,1-2.34.5h-1.28v-2.56h1.28a4.07,4.07,0,0,0,3-1.57,5.65,5.65,0,0,0,1.41-3.75v-.48a6.66,6.66,0,0,1-4.48,1.76,6.48,6.48,0,0,1-4.58-1.85,7.59,7.59,0,0,1-2.46-5.83A7.76,7.76,0,0,1,573.24,345.68Zm1.6,8.32a4.09,4.09,0,0,0,3.55,2,4,4,0,0,0,2.69-1,5.19,5.19,0,0,0,1.79-4.1,5.51,5.51,0,0,0-.93-3.1,4.11,4.11,0,0,0-3.55-2,4,4,0,0,0-2.69,1,5.15,5.15,0,0,0-1.79,4.09A5.51,5.51,0,0,0,574.84,354Z"/><path class="cls-1" d="M600.72,345.39a5.41,5.41,0,0,1,7.88-.86,6,6,0,0,1,2.17,4.83v7.93l0,1.32h-2.52l0-1.28,0-8a4.2,4.2,0,0,0-.48-1.95,2.93,2.93,0,0,0-4.38-1.06,3.53,3.53,0,0,0-1.41,3v7.93l0,1.32h-2.53l0-1.28,0-6.69v-1.28a4.2,4.2,0,0,0-.48-1.95,2.93,2.93,0,0,0-4.38-1.06,3.53,3.53,0,0,0-1.41,3v9.21h-2.56V343.21h2.56v1a5.57,5.57,0,0,1,3.13-1,5.74,5.74,0,0,1,4.42,2.24S600.7,345.43,600.72,345.39Z"/><path class="cls-1" d="M616.5,345.68a6.49,6.49,0,0,1,5.15-2.47,6.57,6.57,0,0,1,4.48,1.76v-1.76h2.56v15.36h-2.56v-1.76a6.64,6.64,0,0,1-4.48,1.76,6.46,6.46,0,0,1-4.57-1.85,7.57,7.57,0,0,1-2.47-5.83A7.76,7.76,0,0,1,616.5,345.68Zm1.6,8.32a4.1,4.1,0,0,0,3.55,2,4,4,0,0,0,2.69-1,5.19,5.19,0,0,0,1.79-4.1,5.51,5.51,0,0,0-.93-3.1,4.1,4.1,0,0,0-3.55-2,4,4,0,0,0-2.69,1,5.18,5.18,0,0,0-1.79,4.09A5.51,5.51,0,0,0,618.1,354Z"/><g id="path0_fill" data-name="path0 fill"><path class="cls-7" d="M581.23,240.88a7.59,7.59,0,0,0,7.59-7.59V225.7h-7.59a7.59,7.59,0,0,0,0,15.18Z"/></g><g id="path1_fill" data-name="path1 fill"><path class="cls-8" d="M573.64,218.11a7.59,7.59,0,0,1,7.59-7.58h7.59V225.7h-7.59A7.59,7.59,0,0,1,573.64,218.11Z"/></g><g id="path1_fill-2" data-name="path1 fill"><path class="cls-9" d="M573.64,202.94a7.59,7.59,0,0,1,7.59-7.59h7.59v15.18h-7.59A7.59,7.59,0,0,1,573.64,202.94Z"/></g><g id="path2_fill" data-name="path2 fill"><path class="cls-10" d="M588.82,195.35h7.59a7.59,7.59,0,1,1,0,15.18h-7.59Z"/></g><g id="path3_fill" data-name="path3 fill"><circle class="cls-11" cx="596.41" cy="218.11" r="7.59"/></g><g class="cls-3"><path class="cls-1" d="M588.82,280.91a62.8,62.8,0,1,1,62.8-62.79A62.87,62.87,0,0,1,588.82,280.91Zm0-119.59a56.8,56.8,0,1,0,56.8,56.8A56.86,56.86,0,0,0,588.82,161.32Z"/></g><path class="cls-7" d="M588.82,280.91a62.76,62.76,0,0,1-61.42-75.85l5.86,1.24a56.8,56.8,0,1,0,55.56-45v-6a62.8,62.8,0,1,1,0,125.59Z"/><path class="cls-1" d="M2.49,336.81H5.05v21.76H2.49V336.81Z"/><path class="cls-1" d="M10,335.53h2.56v23H10v-23Z"/><path class="cls-1" d="M16.16,335.53h2.56v23H16.16v-23Z"/><path class="cls-1" d="M21.72,343.25h2.6l0,1.28,0,8.19a3,3,0,0,0,.61,1.82,3.62,3.62,0,0,0,3,1.47,3.85,3.85,0,0,0,2-.54,3.08,3.08,0,0,0,1.64-2.75v-8.23l0-1.24h2.59l0,1.28,0,8.19a5.52,5.52,0,0,1-1.35,3.65,5.94,5.94,0,0,1-4.83,2.2,6.22,6.22,0,0,1-4-1.37,5.49,5.49,0,0,1-2.21-4.48v-8.23Z"/><path class="cls-1" d="M46.14,347.66a1.35,1.35,0,0,0-.35-.89,3.1,3.1,0,0,0-2.56-1,4.42,4.42,0,0,0-1.31.2c-1.07.34-1.6.9-1.6,1.69a.83.83,0,0,0,.19.51,7.58,7.58,0,0,0,2.94,1.32,24,24,0,0,1,2.37.8q3.39,1.36,3.36,3.84a3.75,3.75,0,0,1-1,2.43,6.21,6.21,0,0,1-5,2,7.05,7.05,0,0,1-4-1.12,3.93,3.93,0,0,1-1.95-3.32h2.56a1.25,1.25,0,0,0,.38.89,3.91,3.91,0,0,0,3,1,5.7,5.7,0,0,0,1.47-.19c1.28-.32,1.92-.88,1.92-1.69a.88.88,0,0,0-.16-.48,7.23,7.23,0,0,0-2.91-1.28c-1-.32-1.84-.59-2.37-.8q-3.39-1.38-3.42-3.91a4,4,0,0,1,1-2.53,5.54,5.54,0,0,1,4.51-1.92,6.14,6.14,0,0,1,3.55,1.06,4,4,0,0,1,1.92,3.39Z"/><path class="cls-1" d="M55.8,354.06c0,1.26.8,1.91,2.34,1.95h1.28v2.56H58.14a7.2,7.2,0,0,1-1.7-.19q-3.19-.74-3.19-4.29v-8.32H51.1v-2.56h2.15v-3.36l0-1.24h2.59l0,1.28v3.32h3.58v2.56H55.84Z"/><path class="cls-1" d="M69.28,343.21h1.28v2.56H69.28a3.85,3.85,0,0,0-1.92.48c-1.43.79-2.16,2.28-2.18,4.45v7.87H62.62V343.21h2.56v1.35A6.68,6.68,0,0,1,69.28,343.21Z"/><path class="cls-1" d="M74,345.68a6.51,6.51,0,0,1,5.16-2.47A6.61,6.61,0,0,1,83.68,345v-1.76h2.56v15.36H83.68v-1.76a6.66,6.66,0,0,1-4.48,1.76,6.48,6.48,0,0,1-4.58-1.85,7.59,7.59,0,0,1-2.46-5.83A7.8,7.8,0,0,1,74,345.68Zm1.6,8.32a4.11,4.11,0,0,0,3.56,2,4,4,0,0,0,2.68-1,5.17,5.17,0,0,0,1.8-4.1,5.51,5.51,0,0,0-.93-3.1,4.11,4.11,0,0,0-3.55-2,4,4,0,0,0-2.69,1,5.15,5.15,0,0,0-1.79,4.09A5.58,5.58,0,0,0,75.64,354Z"/><path class="cls-1" d="M94.14,354.06q0,1.89,2.34,1.95h1.28v2.56H96.48a7.14,7.14,0,0,1-1.7-.19q-3.19-.74-3.2-4.29v-8.32H89.44v-2.56h2.14v-3.36l0-1.24h2.6l0,1.28v3.32h3.59v2.56H94.17Z"/><path class="cls-1" d="M101.56,345.68a6.59,6.59,0,0,1,9.73-.61,7.54,7.54,0,0,1,2.47,5.82,7.76,7.76,0,0,1-1.89,5.22,6.61,6.61,0,0,1-9.73.61,7.59,7.59,0,0,1-2.46-5.83A7.8,7.8,0,0,1,101.56,345.68Zm1.61,8.32a4.09,4.09,0,0,0,3.55,2,4,4,0,0,0,2.69-1,5.19,5.19,0,0,0,1.79-4.1,5.51,5.51,0,0,0-.93-3.1,4.11,4.11,0,0,0-3.55-2,4,4,0,0,0-2.69,1,5.15,5.15,0,0,0-1.79,4.09A5.51,5.51,0,0,0,103.17,354Z"/><path class="cls-1" d="M124.25,343.21h1.28v2.56h-1.28a3.91,3.91,0,0,0-1.92.48c-1.43.79-2.15,2.28-2.17,4.45v7.87H117.6V343.21h2.56v1.35A6.65,6.65,0,0,1,124.25,343.21Z"/><g id="Outlined_Mnemonics_Logos-4" data-name="Outlined Mnemonics Logos"><g id="Ai"><path class="cls-12" d="M62.88,226.67h-10l-2,6.33a.5.5,0,0,1-.52.39H45.23c-.29,0-.39-.16-.3-.47l8.67-25c.09-.26.17-.56.26-.89a9.35,9.35,0,0,0,.17-1.75.27.27,0,0,1,.23-.31h7c.2,0,.32.07.35.22L71.41,233c.09.29,0,.43-.26.43H65.52a.38.38,0,0,1-.43-.3Zm-8.46-5.46h6.85q-.26-.86-.6-2c-.24-.72-.48-1.49-.74-2.32l-.78-2.47c-.26-.82-.5-1.61-.72-2.38s-.41-1.47-.58-2.1H57.8a31.42,31.42,0,0,1-.91,3.46l-1.23,4c-.42,1.36-.83,2.62-1.24,3.77Z"/><path class="cls-12" d="M77.27,209.6a3.14,3.14,0,0,1-2.39-1,3.42,3.42,0,0,1-.91-2.47,3.15,3.15,0,0,1,1-2.4,3.3,3.3,0,0,1,2.4-.93,3.23,3.23,0,0,1,2.45.93,3.28,3.28,0,0,1,.89,2.4,3.37,3.37,0,0,1-.93,2.47A3.32,3.32,0,0,1,77.27,209.6Zm-3,23.36V212.24c0-.26.12-.39.35-.39H80c.23,0,.35.13.35.39V233c0,.29-.12.43-.35.43H74.67C74.41,233.39,74.28,233.25,74.27,233Z"/></g></g><g class="cls-3"><path class="cls-1" d="M62.8,280.91a62.8,62.8,0,1,1,62.79-62.79A62.87,62.87,0,0,1,62.8,280.91Zm0-119.59a56.8,56.8,0,1,0,56.79,56.8A56.86,56.86,0,0,0,62.8,161.32Z"/></g><path class="cls-12" d="M62.8,280.91A62.79,62.79,0,0,1,16.73,175.44l4.4,4.08a56.79,56.79,0,1,0,41.67-18.2v-6a62.8,62.8,0,0,1,0,125.59Z"/></g></g></svg>