<?xml version="1.0" encoding="utf-8"?>
<!-- Generator: Adobe Illustrator 26.0.2, SVG Export Plug-In . SVG Version: 6.00 Build 0)  -->
<svg version="1.1" id="레이어_1" xmlns="http://www.w3.org/2000/svg" xmlns:xlink="http://www.w3.org/1999/xlink" x="0px"
	 y="0px" viewBox="0 0 1993 560" style="enable-background:new 0 0 1993 560;" xml:space="preserve">
<style type="text/css">
	.st0{opacity:0;fill:#FFFFFF;}
	.st1{fill:#FFFFFF;}
</style>
<g>
	<rect class="st0" width="1993" height="560"/>
	<g>
		<path class="st1" d="M709.8,254.9h1.5v19.3h-1.5V254.9z M695,272.9v-17.2h11.5v1.4h-10v14.3h6.4c1.7,0,3.6-0.4,4.7-0.9l0.4-0.2
			v1.5l-0.2,0.1c-1.2,0.6-3.1,0.9-5,0.9H695V272.9z"/>
		<path class="st1" d="M706.2,256.9h-10v14.9h6.6c1.8,0,3.7-0.4,4.9-0.9v0.9c-1.1,0.5-3.1,0.9-4.9,0.9h-7.6v-16.6h11V256.9z
			 M711,274h-0.9v-18.8h0.9V274z"/>
		<path class="st1" d="M730.4,274.3v-19.4h1.5v8.2h3v1.4h-3v9.7L730.4,274.3L730.4,274.3z M715.2,271.6l0.2-0.1
			c3.4-0.8,5.5-6.3,5.6-14.3h-5.5v-1.4h12.4v1.4h-5.4c0,2.5-0.2,4.7-0.6,6.7l6.7,8l-1.2,0.9l-5.9-7.2c-1.2,4.2-3.2,6.7-6,7.3
			l-0.3,0.1V271.6z"/>
		<path class="st1" d="M721.6,264l6.6,7.9l-0.7,0.5l-6.1-7.4c-1.1,4.3-3.1,7-5.9,7.6v-0.9c3.8-0.9,5.8-7.1,5.9-14.9h-5.5v-0.9h11.8
			v0.9h-5.4C722.2,259.6,722,261.9,721.6,264z M734.6,264.3h-3v9.7h-0.9v-18.8h0.9v8.2h3V264.3z"/>
		<path class="st1" d="M752.1,274.3v-19.4h1.5v19.4H752.1z M742.8,273.2c-3.6,0-5.8-3.3-5.8-8.8s2.2-8.8,5.8-8.8s5.8,3.3,5.8,8.8
			S746.4,273.2,742.8,273.2z M742.8,256.9c-2.7,0-4.3,2.8-4.3,7.4s1.6,7.4,4.3,7.4s4.3-2.8,4.3-7.4S745.5,256.9,742.8,256.9z"/>
		<path class="st1" d="M748.3,264.4c0,5.8-2.3,8.6-5.5,8.6s-5.5-2.8-5.5-8.6s2.3-8.6,5.5-8.6S748.3,258.6,748.3,264.4z M738.2,264.4
			c0,5.2,2,7.7,4.6,7.7s4.6-2.5,4.6-7.7s-2-7.7-4.6-7.7C740.2,256.7,738.2,259.1,738.2,264.4z M753.4,274h-0.9v-18.8h0.9V274z"/>
		<path class="st1" d="M773.5,274.3v-10.7h-7.9v-1.4h7.9v-7.3h1.5v19.4H773.5z M758.4,272.9v-17.3h1.5v15.8h5.9
			c1.7,0,3.7-0.4,4.7-0.9l0.4-0.2v1.5l-0.2,0.1c-1.1,0.6-3.1,0.9-5,0.9h-7.3V272.9z"/>
		<path class="st1" d="M765.8,271.8c1.8,0,3.7-0.4,4.9-0.9v0.9c-1.1,0.6-3.1,0.9-4.9,0.9h-7.1V256h0.9v15.8H765.8z M774.7,255.2V274
			h-0.9v-10.7h-7.9v-0.9h7.9v-7.3h0.9V255.2z"/>
		<path class="st1" d="M794.5,274.3v-19.4h1.5v19.4H794.5z M778.3,272.9v-1.4h7.3c3.2,0,5.8-0.3,7.1-1l0.4-0.2v1.5l-0.2,0.1
			c-1.4,0.6-4.1,1-7.4,1H778.3z M785,267.6c-3.4,0-5.9-2.5-5.9-6s2.5-6,5.9-6s5.9,2.5,5.9,6S788.5,267.6,785,267.6z M785,256.9
			c-2.6,0-4.4,1.9-4.4,4.6s1.8,4.6,4.4,4.6s4.4-1.9,4.4-4.6S787.6,256.9,785,256.9z"/>
		<path class="st1" d="M785.5,272.7h-6.9v-0.9h7c3.3,0,5.8-0.4,7.2-1v0.9C791.5,272.3,788.9,272.7,785.5,272.7z M790.7,261.6
			c0,3.3-2.4,5.8-5.7,5.8s-5.7-2.4-5.7-5.8c0-3.3,2.4-5.8,5.7-5.8S790.7,258.2,790.7,261.6z M780.3,261.6c0,2.8,1.9,4.9,4.7,4.9
			s4.7-2.1,4.7-4.9s-1.9-4.9-4.7-4.9S780.3,258.8,780.3,261.6z M795.7,274h-0.9v-18.8h0.9V274z"/>
		<path class="st1" d="M815.1,274.1c-5.1,0-8-1.4-8-3.8s2.9-3.8,8-3.8s8,1.4,8,3.8S820.2,274.1,815.1,274.1z M815.1,267.9
			c-3.9,0-6.5,0.9-6.5,2.4s2.5,2.4,6.5,2.4s6.5-0.9,6.5-2.4S819.1,267.9,815.1,267.9z M821.3,266.3v-11.4h1.5v4.6h3v1.4h-3v5.4
			H821.3z M806.5,264.8v-9.5h1.5v3.4h8.2v-3.4h1.5v9.5H806.5z M816.2,263.4v-3.3H808v3.3H816.2z"/>
		<path class="st1" d="M817.4,264.6h-10.6v-8.9h0.9v3.4h8.7v-3.4h0.9L817.4,264.6L817.4,264.6z M822.8,270.3c0,2.5-3.4,3.5-7.7,3.5
			s-7.7-1-7.7-3.5s3.4-3.5,7.7-3.5S822.8,267.8,822.8,270.3z M816.5,263.7v-3.9h-8.7v3.9H816.5z M821.9,270.3c0-1.8-3-2.6-6.8-2.6
			s-6.8,0.9-6.8,2.6s3,2.6,6.8,2.6S821.9,272.1,821.9,270.3z M825.4,259.7v0.9h-3v5.4h-0.9v-10.8h0.9v4.6L825.4,259.7L825.4,259.7z"
			/>
		<path class="st1" d="M836.3,274.1c-5.2,0-7.9-1.2-7.9-3.5s2.7-3.5,7.9-3.5s7.9,1.2,7.9,3.5S841.5,274.1,836.3,274.1z M836.3,268.6
			c-4,0-6.4,0.8-6.4,2c0,1.3,2.5,2,6.4,2s6.4-0.8,6.4-2S840.3,268.6,836.3,268.6z M842.4,267v-12.1h1.5v3h3v1.4h-3v3.3h3v1.4h-3v3
			L842.4,267L842.4,267z M833.5,266.4c-3.4,0-5.6-1.4-5.6-3.6s2.3-3.7,5.6-3.7s5.6,1.5,5.6,3.7S836.9,266.4,833.5,266.4z
			 M833.5,260.6c-2.4,0-4.1,0.9-4.1,2.3c0,1.3,1.7,2.2,4.1,2.2s4.1-0.9,4.1-2.2C837.6,261.5,835.9,260.6,833.5,260.6z M826.9,258.3
			v-1.4h5.9v-2.3h1.5v2.3h5.9v1.4H826.9z"/>
		<path class="st1" d="M839.8,258h-12.7v-0.9h5.9v-2.3h0.9v2.3h5.9L839.8,258L839.8,258z M828.1,262.8c0-2.1,2.2-3.4,5.3-3.4
			s5.3,1.3,5.3,3.4c0,2-2.2,3.3-5.3,3.3S828.1,264.8,828.1,262.8z M844,270.6c0,2.3-3.3,3.2-7.7,3.2c-4.3,0-7.7-0.9-7.7-3.2
			c0-2.3,3.3-3.2,7.7-3.2C840.6,267.5,844,268.3,844,270.6z M829.1,262.8c0,1.4,1.7,2.4,4.4,2.4s4.4-1,4.4-2.4
			c0-1.5-1.7-2.6-4.4-2.6S829.1,261.4,829.1,262.8z M843,270.6c0-1.6-2.9-2.3-6.7-2.3s-6.7,0.7-6.7,2.3c0,1.6,2.9,2.3,6.7,2.3
			S843,272.2,843,270.6z M843.6,259v3.8h3v0.8h-3v3h-0.9v-11.5h0.9v3h3v0.8h-3V259z"/>
		<path class="st1" d="M857.9,274.1c-5.1,0-8-1.4-8-3.8s2.9-3.8,8-3.8s8,1.4,8,3.8S863,274.1,857.9,274.1z M857.9,267.8
			c-4,0-6.5,1-6.5,2.4s2.6,2.4,6.5,2.4s6.5-1,6.5-2.4S861.9,267.8,857.9,267.8z M864.3,266.1v-5.8h-5.5v-1.4h5.5v-4h1.5v11.2
			L864.3,266.1L864.3,266.1z M848.1,264.1h0.2c3.6-0.8,5.9-4.2,5.9-8.6v-0.3l1.5,0.1v0.3c0,1.5-0.2,2.9-0.7,4.2l6.3,4.3l-0.9,1.2
			l-6.1-4.1c-1.3,2.3-3.4,3.8-6,4.4l-0.3,0.1L848.1,264.1L848.1,264.1z"/>
		<path class="st1" d="M848.4,265.2v-0.9c4-0.9,6.1-4.7,6.1-8.8h0.9c0,1.6-0.3,3-0.8,4.3l6.3,4.3l-0.6,0.7l-6.1-4.2
			C853.2,263,851.2,264.6,848.4,265.2z M865.7,270.2c0,2.5-3.4,3.6-7.7,3.6s-7.7-1.1-7.7-3.6s3.4-3.6,7.7-3.6
			S865.7,267.7,865.7,270.2z M864.7,270.2c0-1.8-3-2.7-6.8-2.7s-6.8,0.9-6.8,2.7s3,2.7,6.8,2.7S864.7,272.1,864.7,270.2z M864.6,260
			h-5.5v-0.8h5.5v-4h0.9v10.6h-0.9V260z"/>
		<path class="st1" d="M885.3,274.3v-19.4h1.5v19.4H885.3z M875.9,273.2c-3.6,0-5.8-3.3-5.8-8.8s2.2-8.8,5.8-8.8s5.8,3.3,5.8,8.8
			S879.6,273.2,875.9,273.2z M875.9,256.9c-2.7,0-4.3,2.8-4.3,7.4s1.6,7.4,4.3,7.4s4.3-2.8,4.3-7.4S878.6,256.9,875.9,256.9z"/>
		<path class="st1" d="M881.4,264.4c0,5.8-2.3,8.6-5.5,8.6s-5.5-2.8-5.5-8.6s2.3-8.6,5.5-8.6S881.4,258.6,881.4,264.4z M871.4,264.4
			c0,5.2,2,7.7,4.6,7.7s4.6-2.5,4.6-7.7s-2-7.7-4.6-7.7C873.4,256.7,871.4,259.1,871.4,264.4z M886.5,274h-0.9v-18.8h0.9V274z"/>
		<path class="st1" d="M898,273.8v-7.3h15.6v7.3H898z M912.1,272.4v-4.5h-12.6v4.5H912.1z M912.1,265.7v-10.8h1.5v4.4h3v1.4h-3v5
			H912.1z M897.4,264.5v-9h12v1.4h-10.5v6.1h4.5c3.2,0,5.7-0.4,7.1-1l0.4-0.2v1.5l-0.2,0.1c-1.4,0.6-4.1,1-7.4,1h-5.9V264.5z"/>
		<path class="st1" d="M903.2,264.3h-5.6v-8.4H909v0.9h-10.5v6.7h4.8c3.3,0,5.8-0.4,7.2-1v0.9C909.3,263.9,906.6,264.3,903.2,264.3z
			 M898.3,266.8h15v6.8h-15V266.8z M899.2,272.7h13.2v-5.1h-13.2V272.7z M916.3,260.5h-3v5h-0.9v-10.3h0.9v4.4h3V260.5z"/>
		<path class="st1" d="M919.4,273.8v-6h1.5v4.6h15v1.4H919.4z M933.8,269.5v-14.6h1.5v14.6H933.8z M918.5,266.3v-1.4h0.3
			c6.1,0,9.5-2.4,9.5-6.8v-1h-9.8v-1.4h11.3v2.4c0,5.2-4,8.2-11,8.2L918.5,266.3L918.5,266.3z"/>
		<path class="st1" d="M929.5,258c0,5.3-4.3,8-10.7,8v-0.9c6,0,9.8-2.3,9.8-7.1v-1.3h-9.8v-0.9h10.7V258z M920.6,272.7h15v0.9h-16
			v-5.5h0.9L920.6,272.7L920.6,272.7z M935,269.2h-1v-14h0.9L935,269.2L935,269.2z"/>
		<path class="st1" d="M961.6,274.3v-9.8h-3.9v9.5h-1.5v-19h1.5v8h3.9v-8.1h1.5v19.4H961.6z M945.5,272.9v-1.4h0.3
			c3.8,0,6.3-4.3,6.3-10.7v-3.5h-6.6v-1.4h8.1v4.9c0,7.3-3.1,12.2-7.8,12.2h-0.3V272.9z"/>
		<path class="st1" d="M945.8,256.1h7.5v4.6c0,6.7-2.8,11.9-7.5,11.9v-0.9c4,0,6.6-4.7,6.6-10.9V257h-6.6V256.1z M962.8,255.2V274
			h-0.9v-9.8h-4.5v9.5h-0.9v-18.3h0.9v8h4.5v-8.1h0.9V255.2z"/>
		<path class="st1" d="M968.1,273.8v-6.4h1.5v4.9h14.8v1.4h-16.3V273.8z M982.3,269.5v-14.6h1.5v14.6H982.3z M972.6,266.5
			c-3.6,0-6-2.3-6-5.6s2.4-5.6,6-5.6s6,2.3,6,5.6S976.2,266.5,972.6,266.5z M972.6,256.6c-2.8,0-4.5,1.7-4.5,4.2s1.8,4.2,4.5,4.2
			s4.5-1.7,4.5-4.2S975.3,256.6,972.6,256.6z"/>
		<path class="st1" d="M978.3,260.8c0,2.9-2.1,5.3-5.8,5.3s-5.8-2.4-5.8-5.3s2.1-5.3,5.8-5.3C976.2,255.5,978.3,257.9,978.3,260.8z
			 M967.8,260.8c0,2.7,1.9,4.5,4.8,4.5s4.8-1.8,4.8-4.5s-1.9-4.5-4.8-4.5S967.8,258.1,967.8,260.8z M969.4,272.7h14.8v0.9h-15.7
			v-5.8h0.9V272.7z M983.5,269.2h-0.9v-14h0.9V269.2z"/>
		<path class="st1" d="M995.5,273.8v-7.1h1.5v2.3h13.1v-2.3h1.5v7.1H995.5z M1010.1,272.4v-2H997v2H1010.1z M997.8,267.7V265h-4.3
			v-1.4h4c3.6,0,5.9-0.2,7.1-0.8l0.4-0.2v1.4l-0.2,0.1c-1,0.4-2.8,0.7-5.6,0.8v2.7h-1.4V267.7z M1010.1,266.6v-11.7h1.5v11.7H1010.1
			z M1006.2,266.4v-6.9h-2.7v-1.4h2.7V255h1.5v11.4H1006.2z M998.5,262.5c-3.1,0-4.5-1.8-4.5-3.7s1.4-3.7,4.5-3.7s4.5,1.8,4.5,3.7
			S1001.6,262.5,998.5,262.5z M998.5,256.5c-1.8,0-3,0.9-3,2.3s1.2,2.3,3,2.3s3-0.9,3-2.3C1001.6,257.4,1000.4,256.5,998.5,256.5z"
			/>
		<path class="st1" d="M997.4,264.8h-3.7V264h3.8c3.3,0,5.8-0.2,7.2-0.8v0.8c-1,0.5-3.1,0.7-5.7,0.8v2.7h-0.9v-2.7H997.4z
			 M994.3,258.8c0-1.9,1.5-3.4,4.2-3.4s4.2,1.5,4.2,3.4s-1.5,3.4-4.2,3.4S994.3,260.7,994.3,258.8z M995.2,258.8
			c0,1.4,1.2,2.6,3.3,2.6s3.3-1.1,3.3-2.6c0-1.4-1.2-2.6-3.3-2.6C996.4,256.3,995.2,257.4,995.2,258.8z M1011.3,267v6.5h-15.5V267
			h0.9v2.3h13.7V267H1011.3z M1010.4,272.7v-2.6h-13.7v2.6H1010.4z M1006.5,259.3h-2.7v-0.8h2.7v-3.1h0.9v10.8h-0.9V259.3z
			 M1011.3,266.3h-0.9v-11.1h0.9V266.3z"/>
		<path class="st1" d="M1030.2,274.3v-19.4h1.5v8.2h3v1.4h-3v9.7L1030.2,274.3L1030.2,274.3z M1021.6,265.5c-1.3,4.5-3.4,7-6.3,7.4
			h-0.3v-1.4h0.2c4.4-0.8,6-8.7,6.1-15.8v-0.3h1.5v0.3c0,3-0.3,5.7-0.7,8l6.4,8.4l-1.2,0.9L1021.6,265.5z"/>
		<path class="st1" d="M1021.7,263.8l6.3,8.3l-0.7,0.5l-5.9-7.7c-1.1,4.5-3.2,7.4-6.2,7.8v-0.9c4.4-0.8,6.3-8.1,6.3-16.1h0.9
			C1022.4,258.8,1022.2,261.5,1021.7,263.8z M1034.4,264.3h-3v9.7h-0.9v-18.8h0.9v8.2h3V264.3z"/>
		<path class="st1" d="M1051.9,274.3v-19.4h1.5v19.4H1051.9z M1042.6,273.2c-3.6,0-5.8-3.3-5.8-8.8s2.2-8.8,5.8-8.8s5.8,3.3,5.8,8.8
			S1046.2,273.2,1042.6,273.2z M1042.6,256.9c-2.7,0-4.3,2.8-4.3,7.4s1.6,7.4,4.3,7.4s4.3-2.8,4.3-7.4S1045.2,256.9,1042.6,256.9z"
			/>
		<path class="st1" d="M1048.1,264.4c0,5.8-2.3,8.6-5.5,8.6s-5.5-2.8-5.5-8.6s2.3-8.6,5.5-8.6
			C1045.7,255.8,1048.1,258.6,1048.1,264.4z M1038,264.4c0,5.2,2,7.7,4.6,7.7s4.6-2.5,4.6-7.7s-2-7.7-4.6-7.7
			C1040,256.7,1038,259.1,1038,264.4z M1053.1,274h-0.9v-18.8h0.9V274z"/>
		<path class="st1" d="M1056.9,273.2v-1.4h19.1v1.4H1056.9z M1058.4,267.9v-12.1h16.3v1.4h-14.8v3.9h14.6v1.4h-14.6v3.9h15.2v1.4
			h-16.7V267.9z"/>
		<path class="st1" d="M1075.8,272v0.9h-18.6V272H1075.8z M1074.8,267.6h-16.1V256h15.7v0.9h-14.8v4.5h14.6v0.9h-14.6v4.5h15.2
			L1074.8,267.6L1074.8,267.6z"/>
		<path class="st1" d="M1079.6,273.8v-4.2h14.8v-1.4h-14.8v-1.4h16.3v4.2H1081v1.5h15.2v1.4h-16.6V273.8z M1078.1,265.4V264h19.1
			v1.4H1078.1z M1079.7,262.5v-4.3h14.6v-1.5h-14.6v-1.4h16.1v4.3h-14.6v1.6h14.9v1.4h-16.4V262.5z"/>
		<path class="st1" d="M1097,265.1h-18.6v-0.8h18.6V265.1z M1095.5,270.7h-14.8v2.1h15.2v0.8h-16.1v-3.7h14.8v-2h-14.8v-0.8h15.7
			L1095.5,270.7L1095.5,270.7z M1095.5,259.3h-14.6v2.1h14.9v0.8H1080v-3.8h14.6v-2.1H1080v-0.8h15.5V259.3z"/>
		<path class="st1" d="M1121.6,274.3v-19.4h1.5v19.4H1121.6z M1106.5,272.9v-1.4h0.3c5.5,0,8.9-4.3,8.9-11.2v-3h-9.2v-1.4h10.6v4.4
			c0,7.7-4.1,12.7-10.4,12.7h-0.2V272.9z"/>
		<path class="st1" d="M1116.8,260.1c0,7.5-3.8,12.4-10.1,12.4v-0.9c5.6,0,9.2-4.4,9.2-11.5v-3.3h-9.2v-0.9h10.1V260.1z M1122.8,274
			h-0.9v-18.8h0.9V274z"/>
		<path class="st1" d="M1142.8,274.1v-3.6h-14.3v-1.4h15.8v5H1142.8z M1142.8,268.3v-13.4h1.5v13.4H1142.8z M1126.6,267.7v-1.4h6.1
			V265c-3-0.2-4.8-1.3-4.8-3c0-1.8,2.2-3,5.6-3s5.6,1.2,5.6,3c0,1.7-1.9,2.9-4.9,3v1.3c3.3,0,5.7-0.3,6.8-0.8l0.4-0.2v1.5l-0.2,0.1
			c-1.6,0.7-5.3,0.8-7.4,0.8L1126.6,267.7L1126.6,267.7z M1133.5,260.3c-2.7,0-4.1,0.9-4.1,1.7c0,0.8,1.5,1.7,4.1,1.7
			s4.1-0.9,4.1-1.7C1137.6,261.1,1136.1,260.3,1133.5,260.3z M1126.9,258.3v-1.4h5.8v-2.5h1.5v2.5h6v1.4H1126.9z"/>
		<path class="st1" d="M1133.7,267.4h-6.9v-0.8h6.1v-1.8c-3.1-0.1-4.8-1.3-4.8-2.8c0-1.6,2-2.8,5.3-2.8s5.3,1.2,5.3,2.8
			c0,1.5-1.8,2.6-4.9,2.8v1.8c3.3,0,5.9-0.2,7.2-0.8v0.9C1139.9,267.1,1137.1,267.4,1133.7,267.4z M1139.9,258h-12.7v-0.8h5.8v-2.5
			h0.9v2.5h6L1139.9,258L1139.9,258z M1128.7,269.4h15.3v4.4h-0.9v-3.6h-14.3L1128.7,269.4L1128.7,269.4z M1133.5,263.9
			c2.7,0,4.4-0.9,4.4-1.9s-1.7-1.9-4.4-1.9s-4.4,0.9-4.4,1.9S1130.7,263.9,1133.5,263.9z M1144,255.2V268h-0.9v-12.8H1144z"/>
		<path class="st1" d="M1162.2,270.9c-1.1,1.5-2.8,2.6-4.5,2.9h-0.1l-3.6-2.7c-1.2,1.5-2.8,2.4-4.5,2.7h-0.3v-1.4h0.2
			c2-0.3,4.4-2.5,4.6-5v-0.3l1.5,0.1v0.3c-0.1,0.9-0.4,1.7-0.8,2.4l3.2,2.4c2.1-0.5,3.9-2.7,4.1-5V267l1.5,0.1v0.3
			c-0.1,0.8-0.3,1.5-0.6,2.2l4.5,3.1l-0.9,1.2L1162.2,270.9z M1164.4,267.3v-6h-3.6v5.8h-1.5v-12h1.5v4.8h3.6v-5h1.5v12.4
			L1164.4,267.3L1164.4,267.3z M1152.9,266.8c-2.7,0-4.5-1.5-4.5-3.7s1.9-3.7,4.5-3.7c2.7,0,4.5,1.5,4.5,3.7
			S1155.5,266.8,1152.9,266.8z M1152.9,260.7c-1.8,0-3,0.9-3,2.3s1.2,2.3,3,2.3s3-0.9,3-2.3S1154.7,260.7,1152.9,260.7z
			 M1147.5,258.6v-1.4h4.6v-2.5h1.5v2.5h4.4v1.4H1147.5z"/>
		<path class="st1" d="M1157.7,258.3h-9.9v-0.9h4.6v-2.5h0.9v2.5h4.4V258.3z M1148.6,263.1c0-2.2,1.8-3.5,4.2-3.5s4.2,1.3,4.2,3.5
			s-1.8,3.5-4.2,3.5S1148.6,265.2,1148.6,263.1z M1166.5,273.6l-4.4-3c-1.1,1.6-2.7,2.7-4.5,3l-3.7-2.8c-1.1,1.5-2.8,2.6-4.4,2.8
			v-0.9c2.2-0.4,4.6-2.7,4.8-5.3l0.9,0.1c-0.1,0.9-0.4,1.8-0.8,2.5l3.5,2.6c2.2-0.5,4.2-2.7,4.5-5.2l0.9,0.1
			c-0.1,0.8-0.3,1.6-0.7,2.3l4.5,3L1166.5,273.6z M1149.6,263.1c0,1.5,1.2,2.6,3.3,2.6c2.1,0,3.3-1.2,3.3-2.6s-1.2-2.6-3.3-2.6
			C1150.8,260.4,1149.6,261.6,1149.6,263.1z M1160.5,266.8h-0.9v-11.4h0.9v4.8h4.2v-5h0.9V267h-0.9v-6h-4.2V266.8z"/>
		<path class="st1" d="M1170.4,273.8v-7.5h1.5v2.5h13.2v-2.5h1.5v7.5H1170.4z M1185.1,272.4v-2.2h-13.2v2.2H1185.1z M1168.9,265.1
			v-1.4h19.1v1.4H1168.9z M1178.3,258.5c-2,2.1-5.2,3.6-8.3,3.7h-0.3v-1.4h0.3c3.6-0.1,7.9-2.5,8.7-5.9l0.1-0.3l1.5,0.2l-0.1,0.3
			c-0.2,0.8-0.5,1.6-0.9,2.3l8.1,3.7l-0.6,1.3L1178.3,258.5z"/>
		<path class="st1" d="M1187.8,263.9v0.9h-18.6v-0.9H1187.8z M1170,261.9V261c3.7-0.1,8.1-2.5,9-6.2l0.9,0.2
			c-0.2,0.9-0.5,1.7-1.1,2.4l8.1,3.7l-0.4,0.7l-8.3-3.8C1176.2,260.4,1172.9,261.8,1170,261.9z M1185.4,266.6h0.9v7h-15.6v-7h0.9
			v2.5h13.8L1185.4,266.6L1185.4,266.6z M1185.4,272.7v-2.8h-13.8v2.8H1185.4z"/>
		<path class="st1" d="M1206.2,254.9h1.5v19.3h-1.5V254.9z M1191.4,272.9v-17.3h1.5v15.8h6.4c1.7,0,3.6-0.4,4.7-0.9l0.4-0.2v1.5
			l-0.2,0.1c-1.2,0.6-3.1,1-5,1H1191.4z"/>
		<path class="st1" d="M1192.6,271.8h6.7c1.8,0,3.7-0.4,4.9-0.9v0.9c-1.1,0.6-3.1,0.9-4.9,0.9h-7.6V256h0.9V271.8z M1207.4,274h-0.9
			v-18.8h0.9V274z"/>
		<path class="st1" d="M1226.8,274.3v-19.4h1.5v8.2h3v1.4h-3v9.7L1226.8,274.3L1226.8,274.3z M1212.3,272.9v-17.2h11.3v1.4h-9.9
			v14.3h6.2c1.7,0,3.6-0.4,4.7-0.9l0.4-0.2v1.5l-0.2,0.1c-1.2,0.6-3.1,0.9-5,0.9h-7.5V272.9z"/>
		<path class="st1" d="M1220,271.8c1.8,0,3.7-0.4,4.9-0.9v0.9c-1.1,0.5-3.1,0.9-4.9,0.9h-7.4v-16.6h10.8v0.9h-9.9v14.9L1220,271.8
			L1220,271.8z M1231,264.3h-3v9.7h-0.9v-18.8h0.9v8.2h3V264.3z"/>
		<circle class="st1" cx="1233.8" cy="272.7" r="1.3"/>
		<path class="st1" d="M1234.8,272.7c0,0.6-0.5,1-1,1s-1-0.5-1-1s0.5-1,1-1S1234.8,272.2,1234.8,272.7z"/>
		<path class="st1" d="M709.8,288.9h1.5v19.3h-1.5V288.9z M695,306.9v-17.2h11.5v1.4h-10v14.3h6.4c1.7,0,3.6-0.4,4.7-0.9l0.4-0.2
			v1.5l-0.2,0.1c-1.2,0.6-3.1,0.9-5,0.9H695V306.9z"/>
		<path class="st1" d="M706.2,290.9h-10v14.9h6.6c1.8,0,3.7-0.4,4.9-0.9v0.9c-1.1,0.5-3.1,0.9-4.9,0.9h-7.6v-16.6h11V290.9z
			 M711,308h-0.9v-18.8h0.9V308z"/>
		<path class="st1" d="M730.4,308.3v-19.4h1.5v8.2h3v1.4h-3v9.7L730.4,308.3L730.4,308.3z M715.2,305.6l0.2-0.1
			c3.4-0.8,5.5-6.3,5.6-14.3h-5.5v-1.4h12.4v1.4h-5.4c0,2.5-0.2,4.7-0.6,6.7l6.7,8l-1.2,0.9l-5.9-7.2c-1.2,4.2-3.2,6.7-6,7.3
			l-0.3,0.1V305.6z"/>
		<path class="st1" d="M721.6,298l6.6,7.9l-0.7,0.5l-6.1-7.4c-1.1,4.3-3.1,7-5.9,7.6v-0.9c3.8-0.9,5.8-7.1,5.9-14.9h-5.5v-0.9h11.8
			v0.9h-5.4C722.2,293.6,722,295.9,721.6,298z M734.6,298.3h-3v9.7h-0.9v-18.8h0.9v8.2h3V298.3z"/>
		<path class="st1" d="M752.1,308.3v-19.4h1.5v19.4H752.1z M742.8,307.2c-3.6,0-5.8-3.3-5.8-8.8s2.2-8.8,5.8-8.8s5.8,3.3,5.8,8.8
			S746.4,307.2,742.8,307.2z M742.8,290.9c-2.7,0-4.3,2.8-4.3,7.4s1.6,7.4,4.3,7.4s4.3-2.8,4.3-7.4S745.5,290.9,742.8,290.9z"/>
		<path class="st1" d="M748.3,298.4c0,5.8-2.3,8.6-5.5,8.6s-5.5-2.8-5.5-8.6s2.3-8.6,5.5-8.6S748.3,292.6,748.3,298.4z M738.2,298.4
			c0,5.2,2,7.7,4.6,7.7s4.6-2.5,4.6-7.7s-2-7.7-4.6-7.7C740.2,290.7,738.2,293.1,738.2,298.4z M753.4,308h-0.9v-18.8h0.9V308z"/>
		<path class="st1" d="M773.5,308.3v-10.7h-7.9v-1.4h7.9v-7.3h1.5v19.4H773.5z M758.4,306.9v-17.3h1.5v15.8h5.9
			c1.7,0,3.7-0.4,4.7-0.9l0.4-0.2v1.5l-0.2,0.1c-1.1,0.6-3.1,0.9-5,0.9h-7.3V306.9z"/>
		<path class="st1" d="M765.8,305.8c1.8,0,3.7-0.4,4.9-0.9v0.9c-1.1,0.6-3.1,0.9-4.9,0.9h-7.1V290h0.9v15.8H765.8z M774.7,289.2V308
			h-0.9v-10.7h-7.9v-0.9h7.9v-7.3h0.9V289.2z"/>
		<polygon class="st1" points="778.3,307.2 778.3,305.7 787.1,305.7 787.1,301.6 779.8,301.6 779.8,295 794.6,295 794.6,291.2 
			779.8,291.2 779.8,289.8 796.1,289.8 796.1,296.4 781.3,296.4 781.3,300.1 796.4,300.1 796.4,301.6 788.6,301.6 788.6,305.7 
			797.5,305.7 797.5,307.2 		"/>
		<path class="st1" d="M797.2,306v0.9h-18.6V306h8.8v-4.7h-7.3v-6.1h14.8v-4.3h-14.8V290h15.8v6H781v4.3h15.2v0.9h-7.9v4.7h8.9V306z
			"/>
		<path class="st1" d="M815.8,308.3v-10.5h-5.5v-1.4h5.5V289h1.5v19.4h-1.5V308.3z M806.4,298.8c-1.2,4.9-3.3,7.7-6.3,8.1h-0.3v-1.4
			h0.2c4.2-0.8,5.8-8.7,5.8-15.8v-0.3h1.5v0.3c0,2.7-0.2,5.1-0.6,7.2l6.3,9.3l-1.2,0.9L806.4,298.8z"/>
		<path class="st1" d="M806.5,297l6.2,9.2l-0.7,0.6l-5.7-8.6c-1.1,4.9-3.1,8.1-6.2,8.5v-0.9c4.2-0.8,6-8.1,6.1-16.1h0.9
			C807,292.4,806.9,294.8,806.5,297z M817,289.2V308h-0.9v-10.5h-5.5v-0.9h5.5v-7.4H817z"/>
		<path class="st1" d="M836.9,308.3v-19.4h1.5v19.4H836.9z M820.7,306.9v-1.4h7.3c3.2,0,5.8-0.3,7.1-1l0.4-0.2v1.5l-0.2,0.1
			c-1.4,0.6-4.1,1-7.4,1H820.7z M827.3,301.6c-3.4,0-5.9-2.5-5.9-6s2.5-6,5.9-6s5.9,2.5,5.9,6S830.8,301.6,827.3,301.6z
			 M827.3,290.9c-2.6,0-4.4,1.9-4.4,4.6s1.8,4.6,4.4,4.6s4.4-1.9,4.4-4.6C831.8,292.8,830,290.9,827.3,290.9z"/>
		<path class="st1" d="M827.8,306.7h-6.9v-0.9h7c3.3,0,5.8-0.4,7.2-1v0.9C833.8,306.3,831.2,306.7,827.8,306.7z M833,295.6
			c0,3.3-2.4,5.8-5.7,5.8s-5.7-2.4-5.7-5.8c0-3.3,2.4-5.8,5.7-5.8S833,292.2,833,295.6z M822.6,295.6c0,2.8,1.9,4.9,4.7,4.9
			s4.7-2.1,4.7-4.9s-1.9-4.9-4.7-4.9S822.6,292.8,822.6,295.6z M838.1,308h-0.9v-18.8h0.9V308z"/>
		<path class="st1" d="M864.6,308.3v-9.8h-3.9v9.5h-1.5v-19h1.5v8h3.9v-8.1h1.5v19.4H864.6z M848.3,305.5l0.2-0.1
			c3.8-1.5,4.3-8.4,4.4-15.7v-0.3h1.5v0.3c0,3.3-0.2,5.7-0.4,7.8l4.8,8.4l-1.2,0.8l-3.9-7c-0.8,4-2.4,6.2-4.9,7.1l-0.4,0.1
			L848.3,305.5L848.3,305.5z"/>
		<path class="st1" d="M853.6,297.6l4.8,8.3l-0.8,0.5l-4.2-7.4c-0.7,4.3-2.2,6.7-4.9,7.7v-0.9c3.7-1.5,4.5-7.5,4.6-16h0.9
			C854,292.8,853.9,295.4,853.6,297.6z M865.9,289.2V308H865v-9.8h-4.5v9.5h-0.9v-18.3h0.9v8h4.5v-8.1h0.9V289.2z"/>
		<polygon class="st1" points="869.2,307.2 869.2,305.7 877.9,305.7 877.9,301.6 870.6,301.6 870.6,295 885.4,295 885.4,291.2 
			870.6,291.2 870.6,289.8 886.9,289.8 886.9,296.4 872.1,296.4 872.1,300.1 887.3,300.1 887.3,301.6 879.4,301.6 879.4,305.7 
			888.3,305.7 888.3,307.2 		"/>
		<path class="st1" d="M888,306v0.9h-18.6V306h8.8v-4.7h-7.3v-6.1h14.8v-4.3h-14.8V290h15.8v6h-14.8v4.3H887v0.9h-7.9v4.7h8.9V306z"
			/>
		<path class="st1" d="M891.8,307.8v-5.7h1.5v4.3h15.1v1.4L891.8,307.8L891.8,307.8z M899.1,304.2v-3.8h-8.8V299h19.1v1.4h-8.8v3.8
			L899.1,304.2L899.1,304.2z M899.9,297.3c-3.9,0-8.4-1.1-8.4-4.2s4.5-4.2,8.4-4.2s8.4,1.1,8.4,4.2S903.7,297.3,899.9,297.3z
			 M899.9,290.4c-3.4,0-6.9,0.9-6.9,2.8s3.5,2.8,6.9,2.8s6.9-0.9,6.9-2.8S903.3,290.4,899.9,290.4z"/>
		<path class="st1" d="M909.2,299.3v0.9h-8.8v3.8h-0.9v-3.8h-8.8v-0.9H909.2z M891.8,293.1c0-2.7,3.9-3.9,8.1-3.9s8.1,1.2,8.1,3.9
			c0,2.7-3.9,3.9-8.1,3.9S891.8,295.8,891.8,293.1z M893,306.7h15.1v0.9h-16v-5.1h0.9V306.7z M892.7,293.1c0,2,3.5,3,7.2,3
			s7.2-1,7.2-3s-3.5-3-7.2-3S892.7,291.1,892.7,293.1z"/>
		<path class="st1" d="M933.2,308.3v-19.4h1.5v8.2h3v1.4h-3v9.7L933.2,308.3L933.2,308.3z M924.1,307.2c-3.6,0-5.7-3.3-5.7-8.8
			s2.1-8.8,5.7-8.8s5.7,3.3,5.7,8.8S927.7,307.2,924.1,307.2z M924.1,290.9c-2.6,0-4.2,2.8-4.2,7.4s1.6,7.4,4.2,7.4
			c2.6,0,4.2-2.8,4.2-7.4S926.8,290.9,924.1,290.9z"/>
		<path class="st1" d="M929.6,298.4c0,5.8-2.3,8.6-5.4,8.6c-3.1,0-5.4-2.8-5.4-8.6s2.3-8.6,5.4-8.6S929.6,292.6,929.6,298.4z
			 M928.6,298.4c0-5.2-1.9-7.7-4.5-7.7s-4.5,2.5-4.5,7.7s1.9,7.7,4.5,7.7C926.7,306.1,928.6,303.6,928.6,298.4z M937.4,298.3h-3v9.7
			h-0.9v-18.8h0.9v8.2h3V298.3z"/>
		<path class="st1" d="M954.9,308.3v-19.4h1.5v19.4H954.9z M945.6,307.2c-3.6,0-5.8-3.3-5.8-8.8s2.2-8.8,5.8-8.8s5.8,3.3,5.8,8.8
			S949.2,307.2,945.6,307.2z M945.6,290.9c-2.7,0-4.3,2.8-4.3,7.4s1.6,7.4,4.3,7.4s4.3-2.8,4.3-7.4S948.3,290.9,945.6,290.9z"/>
		<path class="st1" d="M951.1,298.4c0,5.8-2.3,8.6-5.5,8.6s-5.5-2.8-5.5-8.6s2.3-8.6,5.5-8.6S951.1,292.6,951.1,298.4z M941,298.4
			c0,5.2,2,7.7,4.6,7.7s4.6-2.5,4.6-7.7s-2-7.7-4.6-7.7C943,290.7,941,293.1,941,298.4z M956.2,308h-0.9v-18.8h0.9V308z"/>
		<path class="st1" d="M961.8,307.8v-6.2h1.5v4.7h15.5v1.4h-17V307.8z M976.6,303.5v-14.6h1.5v14.6H976.6z M972.2,303.2v-7.7h-5.3
			v-1.4h5.3v-5h1.5v14.2h-1.5V303.2z M960.8,300.6v-11h8.8v1.4h-7.3v8.1h2.5c2.7,0,4.4-0.2,5.7-0.7l0.4-0.2v1.5l-0.2,0.1
			c-1.3,0.5-3.2,0.7-6,0.7h-3.9V300.6z"/>
		<path class="st1" d="M964.6,300.3H961v-10.4h8.2v0.9H962v8.7h2.8c2.4,0,4.4-0.2,5.8-0.7v0.9C969.2,300.1,967.1,300.3,964.6,300.3z
			 M978.5,306.7v0.9h-16.4V302h0.9v4.7H978.5z M972.5,294.3v-5h0.9v13.6h-0.9v-7.7h-5.3v-0.8h5.3V294.3z M977.8,303.2h-0.9v-14.1
			h0.9V303.2z"/>
		<path class="st1" d="M997.3,308.3v-19.4h1.5v19.4H997.3z M982.4,306.9v-17.2H994v1.4h-10.1v6.2h9.7v1.4h-9.7v6.7h6.4
			c1.7,0,3.7-0.4,4.7-0.9l0.4-0.2v1.5l-0.2,0.1c-1.2,0.6-3.1,0.9-5,0.9h-7.8V306.9z"/>
		<path class="st1" d="M990.3,305.8c1.8,0,3.7-0.4,4.9-0.9v0.9c-1.1,0.6-3.1,0.9-4.9,0.9h-7.6v-16.6h11v0.9h-10.1v6.8h9.7v0.9h-9.7
			v7.2L990.3,305.8L990.3,305.8z M998.5,289.2V308h-0.9v-18.8H998.5z"/>
		<path class="st1" d="M1018.4,308.3v-19.4h1.5v19.4H1018.4z M1003.6,306.9v-17.2h11.5v1.4H1005v6.2h9.7v1.4h-9.7v6.7h6.4
			c1.7,0,3.7-0.4,4.7-0.9l0.4-0.2v1.5l-0.2,0.1c-1.2,0.6-3.1,0.9-5,0.9h-7.7V306.9z"/>
		<path class="st1" d="M1011.5,305.8c1.8,0,3.7-0.4,4.9-0.9v0.9c-1.1,0.6-3.1,0.9-4.9,0.9h-7.6v-16.6h11v0.9h-10.1v6.8h9.7v0.9h-9.7
			v7.2L1011.5,305.8L1011.5,305.8z M1019.6,289.2V308h-0.9v-18.8H1019.6z"/>
		<path class="st1" d="M1024.9,307.8v-4.2h14.8v-1.4h-14.8v-1.4h16.3v4.2h-14.8v1.5h15.2v1.4h-16.7V307.8z M1023.5,299.4V298h19.1
			v1.4H1023.5z M1025,296.5v-4.3h14.6v-1.5H1025v-1.4h16.1v4.3h-14.6v1.6h14.9v1.4H1025V296.5z"/>
		<path class="st1" d="M1042.3,299.1h-18.6v-0.8h18.6V299.1z M1040.9,304.7h-14.8v2.1h15.2v0.8h-16.1v-3.7h14.8v-2h-14.8v-0.8h15.7
			L1040.9,304.7L1040.9,304.7z M1040.8,293.3h-14.6v2.1h14.9v0.8h-15.8v-3.8h14.6v-2.1h-14.6v-0.8h15.5V293.3z"/>
		<path class="st1" d="M1050.8,307.2v-1.4h4.9v-4c-2.6-0.8-3.1-2.2-3.1-3.2c0-2.4,2.9-3.8,7.8-3.8s7.8,1.4,7.8,3.8
			c0,1.5-1,2.6-3.1,3.2v4h4.8v1.4H1050.8z M1063.6,305.8v-3.7c-0.9,0.2-2,0.2-3.2,0.2s-2.3-0.1-3.2-0.2v3.7H1063.6z M1060.3,296.1
			c-4,0-6.3,0.9-6.3,2.4s2.3,2.4,6.3,2.4s6.3-0.9,6.3-2.4S1064.4,296.1,1060.3,296.1z M1051.5,293.4V292h8.1v-3.3h1.5v3.3h8.2v1.4
			H1051.5z"/>
		<path class="st1" d="M1069.6,306v0.8H1051V306h4.9v-4.5c-1.9-0.6-3.1-1.5-3.1-3c0-2.5,3.3-3.5,7.5-3.5s7.5,1,7.5,3.5
			c0,1.5-1.2,2.5-3.1,3v4.5H1069.6z M1068.9,293.1h-17.2v-0.9h8.1v-3.3h0.9v3.3h8.2V293.1z M1060.3,301.2c3.7,0,6.6-0.7,6.6-2.7
			c0-1.9-2.9-2.7-6.6-2.7s-6.6,0.7-6.6,2.7C1053.7,300.4,1056.7,301.2,1060.3,301.2z M1056.9,306h7v-4.3c-1.1,0.2-2.2,0.3-3.5,0.3
			s-2.5-0.1-3.5-0.3V306z"/>
		<path class="st1" d="M1087.6,308.3v-19.4h1.5v8.1h2.9v1.4h-2.9v9.9H1087.6z M1071.9,306.9v-1.4h4v-8.9h1.5v8.9h1.2
			c3.5,0,5.8-0.3,7.1-0.8l0.4-0.2v1.5l-0.2,0.1c-1.5,0.6-3.9,0.9-7.2,0.9h-6.8V306.9z M1082.3,302.5v-11.3h-9.5v-1.4h11v12.7
			L1082.3,302.5L1082.3,302.5z"/>
		<path class="st1" d="M1078.7,305.8c3.1,0,5.7-0.2,7.2-0.9v0.9c-1.5,0.6-4,0.8-7.1,0.8h-6.5v-0.9h4v-8.9h0.9v8.9h1.5V305.8z
			 M1082.5,290.9h-9.5V290h10.5v12.1h-0.9L1082.5,290.9L1082.5,290.9z M1091.7,298.1h-2.9v9.9h-0.9v-18.8h0.9v8.1h2.9V298.1z"/>
		<path class="st1" d="M1109.4,308.1v-5h-14.6v-1.4h16.1v6.4H1109.4z M1109.4,301v-6h-4.5v-1.4h4.5v-4.7h1.5V301H1109.4z
			 M1093.5,298.8h0.2c3.5-0.6,5.6-3.4,5.8-7.7h-5.8v-1.4h12.6v1.4h-5.3c-0.1,1.2-0.2,2.2-0.5,3.2l6.4,4.7l-0.9,1.2l-6-4.5
			c-1.2,2.5-3.3,4-6.1,4.5l-0.3,0.1L1093.5,298.8L1093.5,298.8z"/>
		<path class="st1" d="M1093.8,299.9V299c3.7-0.7,5.9-3.5,6-8.3h-5.8v-0.9h12v0.9h-5.3c0,1.3-0.2,2.5-0.6,3.6l6.3,4.6l-0.5,0.7
			l-6.1-4.5C1098.7,297.8,1096.6,299.4,1093.8,299.9z M1095.1,302h15.5v5.8h-0.9v-5h-14.6V302z M1110.6,289.2v11.5h-0.9v-5.9h-4.5
			V294h4.5v-4.7h0.9V289.2z"/>
		<path class="st1" d="M1114.3,307.2v-1.4h19.1v1.4H1114.3z M1123.8,301.6c-5.2,0-8.5-2.4-8.5-6s3.3-6,8.5-6s8.5,2.4,8.5,6
			S1129,301.6,1123.8,301.6z M1123.8,290.9c-4.2,0-7,1.8-7,4.6s2.7,4.6,7,4.6c4.2,0,7-1.8,7-4.6S1128.1,290.9,1123.8,290.9z"/>
		<path class="st1" d="M1133.1,306.9h-18.6V306h18.6V306.9z M1132,295.5c0,3.5-3.2,5.8-8.2,5.8s-8.2-2.2-8.2-5.8s3.2-5.8,8.2-5.8
			C1128.8,289.8,1132,292,1132,295.5z M1116.6,295.5c0,2.9,2.9,4.9,7.3,4.9s7.3-2,7.3-4.9s-2.9-4.9-7.3-4.9
			C1119.4,290.6,1116.6,292.6,1116.6,295.5z"/>
		<polygon class="st1" points="1135.4,307.2 1135.4,305.7 1144.2,305.7 1144.2,301.6 1136.9,301.6 1136.9,295 1151.7,295 
			1151.7,291.2 1136.9,291.2 1136.9,289.8 1153.2,289.8 1153.2,296.4 1138.4,296.4 1138.4,300.1 1153.5,300.1 1153.5,301.6 
			1145.7,301.6 1145.7,305.7 1154.6,305.7 1154.6,307.2 		"/>
		<path class="st1" d="M1154.3,306v0.9h-18.6V306h8.8v-4.7h-7.3v-6.1h14.8v-4.3h-14.8V290h15.8v6h-14.8v4.3h15.2v0.9h-7.9v4.7h8.8
			V306z"/>
		<path class="st1" d="M1162.8,307.2v-1.4h5.2v-4.9h-4.1v-1.4h3.7v-8h-3.5V290h16.6v1.4h-3.5v8h3.7v1.4h-4.1v4.9h5.2v1.4h-19.2
			V307.2z M1175.2,305.7v-4.9h-5.7v4.9H1175.2z M1175.6,299.4v-8h-6.6v8H1175.6z"/>
		<path class="st1" d="M1181.6,306v0.9H1163V306h5.2v-5.5h-4.1v-0.9h3.7v-8.5h-3.5v-0.9h16v0.9h-3.5v8.5h3.7v0.9h-4.1v5.5H1181.6z
			 M1168.8,299.7h7.1v-8.5h-7.1V299.7z M1169.2,306h6.3v-5.5h-6.3V306z"/>
		<path class="st1" d="M1185.8,307.8v-5.6h1.5v4.1h15v1.4h-16.5V307.8z M1200.2,303.6v-4.1h-3.7V298h3.7v-2.8h-3.7v-1.4h3.7v-5h1.5
			v14.7L1200.2,303.6L1200.2,303.6z M1190.6,301.7c-3.3,0-5.6-1.7-5.6-4.1c0-2.5,2.2-4.1,5.6-4.1s5.6,1.7,5.6,4.1
			C1196.2,300.1,1194,301.7,1190.6,301.7z M1190.6,294.9c-2.4,0-4.1,1.1-4.1,2.7s1.6,2.7,4.1,2.7s4.1-1.1,4.1-2.7
			S1193.1,294.9,1190.6,294.9z M1184.1,292.6v-1.4h5.8v-2.6h1.5v2.6h5.3v1.4H1184.1z"/>
		<path class="st1" d="M1196.4,292.4h-12.1v-0.9h5.8v-2.6h0.9v2.6h5.3L1196.4,292.4L1196.4,292.4z M1185.4,297.6
			c0-2.4,2.2-3.8,5.3-3.8c3,0,5.3,1.4,5.3,3.8s-2.2,3.8-5.3,3.8S1185.4,300,1185.4,297.6z M1202.1,306.7v0.9h-16v-5h0.9v4.1H1202.1z
			 M1186.3,297.6c0,1.7,1.6,3,4.4,3c2.7,0,4.4-1.3,4.4-3s-1.6-3-4.4-3S1186.3,295.9,1186.3,297.6z M1200.5,299.2h-3.7v-0.8h3.7V295
			h-3.7v-0.8h3.7v-5h0.9v14.1h-0.9V299.2z"/>
		<path class="st1" d="M1220.7,308.3v-19.4h1.5v8.2h3v1.4h-3v9.7L1220.7,308.3L1220.7,308.3z M1211.9,307.2c-3.1,0-5.3-2.5-5.3-5.9
			s2.2-5.9,5.3-5.9s5.3,2.5,5.3,5.9C1217.2,304.7,1215,307.2,1211.9,307.2z M1211.9,296.7c-1.9,0-3.8,1.6-3.8,4.5s1.9,4.5,3.8,4.5
			s3.8-1.6,3.8-4.5S1213.8,296.7,1211.9,296.7z M1205.5,293.8v-1.4h5.6v-3.5h1.5v3.5h5.6v1.4H1205.5z"/>
		<path class="st1" d="M1212.4,292.6h5.6v0.9h-12.2v-0.9h5.6v-3.5h0.9L1212.4,292.6L1212.4,292.6z M1216.9,301.2
			c0,3.5-2.3,5.7-5,5.7s-5-2.2-5-5.7s2.3-5.7,5-5.7S1216.9,297.7,1216.9,301.2z M1216,301.2c0-2.9-1.9-4.8-4.1-4.8s-4.1,1.8-4.1,4.8
			s1.9,4.8,4.1,4.8S1216,304.2,1216,301.2z M1224.9,298.3h-3v9.7h-0.9v-18.8h0.9v8.2h3V298.3z"/>
		<path class="st1" d="M1226.3,307.2v-1.4h7.7v-9.3h1.5v9.3h9.9v1.4H1226.3z M1242.5,302.7v-11.6h-14.9v-1.4h16.4v13H1242.5z"/>
		<path class="st1" d="M1245.1,306v0.9h-18.6V306h7.7v-9.3h0.9v9.3H1245.1z M1242.8,290.9h-14.9V290h15.8v12.4h-0.9V290.9z"/>
		<path class="st1" d="M1263,308.3v-19.4h1.5v8.2h3v1.4h-3v9.7L1263,308.3L1263,308.3z M1247.7,305.6l0.2-0.1
			c3.4-0.8,5.5-6.3,5.6-14.3h-5.5v-1.4h12.4v1.4h-5.4c0,2.5-0.2,4.7-0.6,6.7l6.7,8l-1.2,0.9l-5.9-7.2c-1.2,4.2-3.2,6.7-6,7.3
			l-0.3,0.1L1247.7,305.6L1247.7,305.6z"/>
		<path class="st1" d="M1254.1,298l6.6,7.9l-0.7,0.5l-6.1-7.4c-1.1,4.3-3.1,7-5.9,7.6v-0.9c3.8-0.9,5.8-7.1,5.9-14.9h-5.5v-0.9h11.8
			v0.9h-5.4C1254.8,293.6,1254.5,295.9,1254.1,298z M1267.2,298.3h-3v9.7h-0.9v-18.8h0.9v8.2h3V298.3z"/>
		<path class="st1" d="M1289.2,304.9c-1.1,1.5-2.8,2.6-4.5,2.9h-0.1l-3.6-2.7c-1.2,1.5-2.8,2.4-4.5,2.7h-0.3v-1.4h0.2
			c2-0.3,4.4-2.5,4.6-5v-0.3l1.5,0.1v0.3c-0.1,0.9-0.4,1.7-0.8,2.4l3.2,2.4c2.1-0.5,3.9-2.7,4.1-5V301l1.5,0.1v0.3
			c-0.1,0.8-0.3,1.5-0.6,2.2l4.5,3.1l-0.9,1.2L1289.2,304.9z M1291.4,301.3v-6h-3.6v5.8h-1.5v-12h1.5v4.8h3.6v-5h1.5v12.4
			L1291.4,301.3L1291.4,301.3z M1279.9,300.8c-2.7,0-4.5-1.5-4.5-3.7s1.9-3.7,4.5-3.7c2.7,0,4.5,1.5,4.5,3.7
			S1282.5,300.8,1279.9,300.8z M1279.9,294.7c-1.8,0-3,0.9-3,2.3s1.2,2.3,3,2.3s3-0.9,3-2.3S1281.7,294.7,1279.9,294.7z
			 M1274.5,292.6v-1.4h4.6v-2.5h1.5v2.5h4.4v1.4H1274.5z"/>
		<path class="st1" d="M1284.7,292.3h-9.9v-0.9h4.6v-2.5h0.9v2.5h4.4V292.3z M1275.6,297.1c0-2.2,1.8-3.5,4.2-3.5s4.2,1.3,4.2,3.5
			s-1.8,3.5-4.2,3.5S1275.6,299.2,1275.6,297.1z M1293.5,307.6l-4.4-3c-1.1,1.6-2.7,2.7-4.5,3l-3.7-2.8c-1.1,1.5-2.8,2.6-4.4,2.8
			v-0.9c2.2-0.4,4.6-2.7,4.8-5.3l0.9,0.1c-0.1,0.9-0.4,1.8-0.8,2.5l3.5,2.6c2.2-0.5,4.2-2.7,4.5-5.2l0.9,0.1
			c-0.1,0.8-0.3,1.6-0.7,2.3l4.5,3L1293.5,307.6z M1276.5,297.1c0,1.5,1.2,2.6,3.3,2.6c2.1,0,3.3-1.2,3.3-2.6s-1.2-2.6-3.3-2.6
			C1277.8,294.4,1276.5,295.6,1276.5,297.1z M1287.5,300.8h-0.9v-11.4h0.9v4.8h4.2v-5h0.9V301h-0.9v-6h-4.2V300.8z"/>
		<path class="st1" d="M1297.4,307.8v-7.5h1.5v2.5h13.2v-2.5h1.5v7.5H1297.4z M1312.1,306.4v-2.2h-13.2v2.2H1312.1z M1295.9,299.1
			v-1.4h19.1v1.4H1295.9z M1305.3,292.5c-2,2.1-5.2,3.6-8.3,3.7h-0.3v-1.4h0.3c3.6-0.1,7.9-2.5,8.7-5.9l0.1-0.3l1.5,0.2l-0.1,0.3
			c-0.2,0.8-0.5,1.6-0.9,2.3l8.1,3.7l-0.6,1.3L1305.3,292.5z"/>
		<path class="st1" d="M1314.8,297.9v0.9h-18.6v-0.9H1314.8z M1297,295.9V295c3.7-0.1,8.1-2.5,9-6.2l0.9,0.2
			c-0.2,0.9-0.5,1.7-1.1,2.4l8.1,3.7l-0.4,0.7l-8.3-3.8C1303.2,294.4,1299.9,295.8,1297,295.9z M1312.4,300.6h0.9v7h-15.6v-7h0.9
			v2.5h13.8L1312.4,300.6L1312.4,300.6z M1312.4,306.7v-2.8h-13.8v2.8H1312.4z"/>
		<path class="st1" d="M1333.2,288.9h1.5v19.3h-1.5V288.9z M1318.4,306.9v-17.3h1.5v15.8h6.4c1.7,0,3.6-0.4,4.7-0.9l0.4-0.2v1.5
			l-0.2,0.1c-1.2,0.6-3.1,1-5,1H1318.4z"/>
		<path class="st1" d="M1319.6,305.8h6.7c1.8,0,3.7-0.4,4.9-0.9v0.9c-1.1,0.6-3.1,0.9-4.9,0.9h-7.6V290h0.9V305.8z M1334.4,308h-0.9
			v-18.8h0.9V308z"/>
		<path class="st1" d="M1353.8,308.3v-19.4h1.5v8.2h3v1.4h-3v9.7L1353.8,308.3L1353.8,308.3z M1339.3,306.9v-17.2h11.3v1.4h-9.9
			v14.3h6.2c1.7,0,3.6-0.4,4.7-0.9l0.4-0.2v1.5l-0.2,0.1c-1.2,0.6-3.1,0.9-5,0.9h-7.5V306.9z"/>
		<path class="st1" d="M1347,305.8c1.8,0,3.7-0.4,4.9-0.9v0.9c-1.1,0.5-3.1,0.9-4.9,0.9h-7.4v-16.6h10.8v0.9h-9.9v14.9L1347,305.8
			L1347,305.8z M1358,298.3h-3v9.7h-0.9v-18.8h0.9v8.2h3V298.3z"/>
		<circle class="st1" cx="1360.7" cy="306.7" r="1.3"/>
		<path class="st1" d="M1361.8,306.7c0,0.6-0.5,1-1,1s-1-0.5-1-1s0.5-1,1-1S1361.8,306.2,1361.8,306.7z"/>
	</g>
</g>
</svg>
