<?xml version="1.0" encoding="utf-8"?>
<!-- Generator: Adobe Illustrator 26.0.2, SVG Export Plug-In . SVG Version: 6.00 Build 0)  -->
<svg version="1.1" id="레이어_1" xmlns="http://www.w3.org/2000/svg" xmlns:xlink="http://www.w3.org/1999/xlink" x="0px"
	 y="0px" viewBox="0 0 1993 790" style="enable-background:new 0 0 1993 790;" xml:space="preserve">
<style type="text/css">
	.st0{opacity:0;fill:#FFFFFF;}
	.st1{fill:#FFFFFF;}
</style>
<g>
	<rect class="st0" width="1993" height="790"/>
	<path class="st1" d="M693.4,223.1v-1.4h19.1v1.4H693.4z M702.7,211.2c-2.3,3.8-5.5,6-8.7,6h-0.3v-1.4h0.3c4.4,0,8.1-5.3,9.3-10.4
		l0.1-0.3l1.6,0.4l-0.1,0.3c-0.3,1.4-0.8,2.9-1.5,4.2l8.6,6.3l-0.9,1.1L702.7,211.2z"/>
	<path class="st1" d="M712.3,222v0.9h-18.6V222H712.3z M694.1,216.9V216c4.4,0,8.3-5.1,9.5-10.6l1,0.2c-0.3,1.5-0.9,3-1.6,4.3
		l8.5,6.3l-0.6,0.7l-8.3-6.2C700.5,214.3,697.4,216.9,694.1,216.9z"/>
	<path class="st1" d="M714.6,223.1v-1.4h19.1v1.4H714.6z M723.9,211.2c-2.3,3.8-5.5,6-8.7,6h-0.3v-1.4h0.3c4.4,0,8.1-5.3,9.3-10.4
		l0.1-0.3l1.6,0.4l-0.1,0.3c-0.3,1.4-0.8,2.9-1.5,4.2l8.6,6.3l-0.9,1.1L723.9,211.2z"/>
	<path class="st1" d="M733.4,222v0.9h-18.6V222H733.4z M715.2,216.9V216c4.4,0,8.3-5.1,9.5-10.6l1,0.2c-0.3,1.5-0.9,3-1.6,4.3
		l8.5,6.3l-0.6,0.7l-8.3-6.2C721.7,214.3,718.5,216.9,715.2,216.9z"/>
	<polygon class="st1" points="735.7,223.1 735.7,221.7 744.5,221.7 744.5,217.6 737.2,217.6 737.2,210.9 752,210.9 752,207.2 
		737.2,207.2 737.2,205.8 753.5,205.8 753.5,212.3 738.7,212.3 738.7,216.1 753.8,216.1 753.8,217.5 746,217.5 746,221.7 
		754.9,221.7 754.9,223.1 	"/>
	<path class="st1" d="M754.6,222v0.9H736V222h8.8v-4.7h-7.3v-6.1h14.8v-4.3h-14.8v-0.9h15.8v6h-14.8v4.3h15.2v0.9h-7.8v4.8H754.6z"
		/>
	<path class="st1" d="M773.5,224.3v-19.4l1.5-0.1v19.4H773.5z M769.1,223.9v-9.2h-2.9c0,5.6-1.5,8.5-4.5,8.5c-3,0-4.5-3-4.5-8.8
		s1.5-8.8,4.5-8.8c2.8,0,4.2,2.5,4.5,7.8h2.9V205h1.5v18.9H769.1z M761.8,206.9c-2,0-3,2.5-3,7.4c0,4.9,1,7.4,3,7.4c2,0,3-2.4,3-7.4
		C764.8,209.4,763.8,206.9,761.8,206.9z"/>
	<path class="st1" d="M769.4,205.3h0.9v18.3h-0.9v-9.2H766c0,5.7-1.5,8.5-4.2,8.5s-4.2-2.8-4.2-8.6s1.5-8.6,4.2-8.6s4,2.5,4.2,7.8
		h3.4V205.3z M765.1,214.3c0-5.2-1.1-7.7-3.3-7.7s-3.3,2.5-3.3,7.7s1.1,7.7,3.3,7.7S765.1,219.6,765.1,214.3L765.1,214.3z
		 M774.8,205.1V224h-0.9v-18.8L774.8,205.1z"/>
	<path class="st1" d="M800.9,224.3v-9.8h-3.7v9.5h-1.5V205h1.5v8h3.7v-8.1l1.5,0v19.4H800.9z M789.6,222.9l-4.6,0v-17.2h8.6v1.4
		h-7.1v14.3l3.4,0c1.4,0,2.8-0.3,4.1-0.8l0.4-0.2v1.5l-0.2,0.1c-1.4,0.5-2.9,0.8-4.4,0.8L789.6,222.9z"/>
	<path class="st1" d="M789.8,221.8c1.5,0,3-0.2,4.4-0.8v0.9c-1.4,0.6-3,0.8-4.5,0.8h-4.3v-16.6h8.1v0.9h-7.1v14.9H789.8z
		 M802.1,205.2V224h-0.9v-9.8h-4.3v9.5h-0.9v-18.4h0.9v8h4.3v-8.1L802.1,205.2z"/>
	<path class="st1" d="M806.9,223.8v-5.2h1.5v3.8h14.8v1.4H806.9z M821,219.6v-14.7h1.5v5.8l3,0v1.4h-3v7.5H821z M812,217.7
		c-3.4,0-5.7-1.7-5.7-4.1c0-2.5,2.3-4.1,5.7-4.1c3.4,0,5.7,1.7,5.7,4.1C817.7,216,815.4,217.7,812,217.7z M812,210.8
		c-2.5,0-4.2,1.1-4.2,2.7s1.7,2.7,4.2,2.7c2.5,0,4.2-1.1,4.2-2.7S814.6,210.8,812,210.8z M805.4,208.5v-1.4h5.9v-2.5h1.5v2.5h5.9
		v1.4H805.4z"/>
	<path class="st1" d="M818.4,208.2h-12.7v-0.9h5.9v-2.5h0.9v2.5h5.9V208.2z M806.7,213.6c0-2.4,2.3-3.8,5.4-3.8s5.4,1.4,5.4,3.8
		s-2.3,3.8-5.4,3.8S806.7,215.9,806.7,213.6z M808.1,222.7h14.8v0.9h-15.7v-4.6h0.9V222.7z M807.6,213.6c0,1.8,1.7,3,4.5,3
		s4.5-1.2,4.5-3s-1.7-3-4.5-3S807.6,211.8,807.6,213.6L807.6,213.6z M825.2,210.9v0.9h-3v7.5h-0.9v-14.1h0.9v5.8L825.2,210.9z"/>
	<path class="st1" d="M834.2,223.8v-5.4h1.5l0,4h15.1v1.4H834.2z M841.5,220.3v-3.5h-8.8v-1.4l19.1-0.1v1.4H843v3.5H841.5z
		 M834.2,213.4v-8.3h1.5v3h13.1v-3h1.4v8.3H834.2z M848.8,212v-2.5h-13.1v2.5H848.8z"/>
	<path class="st1" d="M851.6,215.6v0.9h-8.8v3.5h-0.9v-3.5H833v-0.9L851.6,215.6z M835.4,222.7h15.1v0.9h-16v-4.9h0.9L835.4,222.7z
		 M850,213.1h-15.5v-7.7h0.9v3h13.7v-3h0.9V213.1z M849.1,212.2v-3.1h-13.6v3.1H849.1z"/>
	<path class="st1" d="M870.2,224.1v-4.9h-14.6v-1.4h16.1v6.4H870.2z M870.2,216.9v-6.3h-5.4v-1.4h5.5v-4.4h1.5v12H870.2z M854,214.8
		l0.2,0c4.1-0.9,5.9-5.3,5.9-9.3v-0.3h1.5l0,0.3c0,1.6-0.3,3.2-0.8,4.7l6.4,4.9l-1,1.1l-6-4.5c-1.2,2.3-3.4,4-5.9,4.6l-0.3,0.1
		V214.8z"/>
	<path class="st1" d="M854.3,215.9V215c4-0.9,6.1-5.1,6.1-9.6h0.9c0,1.6-0.3,3.3-0.8,4.8l6.3,4.8l-0.6,0.7l-6.1-4.6
		C859.1,213.5,856.9,215.3,854.3,215.9z M855.8,218h15.5v5.8h-0.9v-4.9h-14.6V218z M871.4,205.2v11.5h-0.9v-6.3H865v-0.8h5.5v-4.4
		H871.4z"/>
	<path class="st1" d="M890.7,224.3v-19.4h1.5v8.1h2.9l-0.1,1.4h-2.9v9.9H890.7z M882.9,222.9c-0.3,0-0.7,0-1,0l-6.8,0v-1.4h4v-8.9
		h1.5v8.9h1.3c3.5,0,5.8-0.3,7.1-0.8l0.4-0.2v1.5l-0.2,0.1C887,222.7,885,222.9,882.9,222.9z M885.4,218.5v-11.3h-9.5v-1.4h11v12.7
		H885.4z"/>
	<path class="st1" d="M881.8,221.8c3.1,0,5.7-0.2,7.2-0.9v0.9c-2.3,0.7-4.7,1-7.1,0.8h-6.5v-0.9h4v-8.9h0.9v8.9H881.8z M885.6,206.9
		h-9.5v-0.9h10.5v12.1h-0.9V206.9z M894.8,214.1h-2.9v9.9H891v-18.8h0.9v8.1h2.9L894.8,214.1z"/>
	<path class="st1" d="M912.3,224.1c-5.1,0-8-1.4-8-3.7s2.9-3.7,8-3.7c5.1,0,8,1.4,8,3.7S917.4,224.1,912.3,224.1z M912.2,218.1
		c-3.9,0-6.5,0.9-6.5,2.3c0,1.4,2.5,2.3,6.5,2.3c3.8,0,6.3-0.8,6.5-2.1l0-0.2C918.7,219,916.2,218.1,912.2,218.1z M918.7,216.4v-4.1
		H915v-1.4h3.6v-2.1H915v-1.4h3.6v-2.5h1.5v11.5H918.7z M909.3,215.2c-0.3,0-0.7,0-1,0l-5.7,0v-1.5h2.7v-6.8h-2.7v-1.4h12.6v1.4
		h-2.8v6.6c1-0.1,2.1-0.3,3.1-0.7l0.4-0.1v1.5l-0.2,0.1C913.6,214.9,911.4,215.2,909.3,215.2z M908.4,213.7c0.9,0,1.8,0,2.5-0.1
		v-6.7h-4.2v6.8H908.4z"/>
	<path class="st1" d="M908.2,214.9h-5.5V214h2.7v-7.3h-2.7v-0.9h12.1v0.9h-2.8v7.2c1.2-0.1,2.3-0.3,3.5-0.7v0.9
		C913.2,214.7,910.7,215,908.2,214.9z M920,220.4c0,2.4-3.4,3.4-7.7,3.4s-7.8-1-7.8-3.4s3.4-3.4,7.8-3.4S920,217.9,920,220.4z
		 M919,220.4c0-1.7-2.9-2.6-6.8-2.6s-6.8,0.8-6.8,2.6s3,2.6,6.8,2.6S919,222.1,919,220.4L919,220.4z M906.5,214h1.9c1,0,2,0,2.8-0.1
		v-7.3h-4.7V214z M918.9,212h-3.7v-0.8h3.7v-2.7h-3.7v-0.8h3.7v-2.5h0.9v10.9h-0.9V212z"/>
	<path class="st1" d="M939.1,224.3v-19.4h1.5v8.2h3v1.4h-3v9.8H939.1z M924.4,222.8v-1.4h0.3c5.4,0,8.7-4.3,8.7-11.2v-3h-9v-1.4
		h10.4v4.4c0,7.8-3.9,12.7-10.2,12.7H924.4z"/>
	<path class="st1" d="M924.6,206.1h9.9v4.1c0,7.4-3.6,12.4-9.9,12.4v-0.9c5.6,0,9-4.5,9-11.5v-3.3h-9V206.1z M943.3,214.2h-3v9.8
		h-0.9v-18.8h0.9v8.2h3V214.2z"/>
	<path class="st1" d="M946.1,223.8v-4.2h14.8v-1.4h-14.8v-1.4h16.3v4.2h-14.8v1.5h15.2v1.4H946.1z M944.7,215.4v-1.4h19.1l-0.1,1.4
		H944.7z M946.2,212.5v-4.3h14.6v-1.5h-14.6v-1.4h16.1v4.3h-14.6v1.6h14.9v1.4H946.2z"/>
	<path class="st1" d="M963.5,215.1H945v-0.8h18.6L963.5,215.1z M962.1,220.7h-14.8v2.1h15.2v0.8h-16.1v-3.7h14.8v-2h-14.8V217h15.7
		V220.7z M962.1,209.3h-14.6v2.1h14.9v0.8h-15.8v-3.8h14.6v-2.1h-14.6v-0.8h15.5L962.1,209.3z"/>
	<path class="st1" d="M981.5,224.1c-2.5,0-8.3-0.3-8.3-3.2c0-2.9,5.8-3.2,8.3-3.2s8.3,0.3,8.3,3.2
		C989.8,223.8,984,224.1,981.5,224.1z M981.6,219.2c-3.9,0-6.7,0.7-6.7,1.8c0,1,2.8,1.8,6.7,1.8s6.7-0.8,6.7-1.8
		C988.3,219.9,985.5,219.2,981.6,219.2z M972,216.4V215h8.8v-1.8h-7.3v-7.9h16.3v1.4h-14.8v1.9h14.4v1.4h-14.4v1.9H990v1.4h-7.7v1.8
		h8.9v1.4H972z"/>
	<path class="st1" d="M990.9,215.3v0.8h-18.6v-0.8h8.8v-2.4h-7.3v-7.3h15.7v0.8h-14.8v2.4h14.5v0.8h-14.5v2.5h14.9v0.8H982v2.4
		L990.9,215.3z M989.5,220.9c0,2.2-4,2.9-8,2.9s-8-0.8-8-2.9s4-2.9,8-2.9S989.5,218.8,989.5,220.9L989.5,220.9z M988.6,220.9
		c0-1.5-3.7-2.1-7-2.1s-7,0.6-7,2.1s3.7,2.1,7,2.1S988.6,222.4,988.6,220.9L988.6,220.9z"/>
	<path class="st1" d="M1009.8,224.3v-9.8h-3.7v9.5h-1.4V205h1.5v8h3.7v-8.1h1.4v19.4H1009.8z M998.2,223.1c-2.7,0-4.5-2.3-4.5-6
		s1.8-6,4.5-6c2.7,0,4.5,2.3,4.5,6S1000.9,223.1,998.2,223.1z M998.1,212.6c-1.8,0-3,1.8-3,4.5s1.2,4.5,3,4.5c1.8,0,2.9-1.7,3-4.3
		l0-0.3C1001.1,214.4,999.9,212.6,998.1,212.6z M992.8,209.7v-1.4h4.5v-3.5h1.5l0,3.5h4.5v1.4H992.8z"/>
	<path class="st1" d="M998.5,208.6h4.5v0.9h-10v-0.9h4.5v-3.4h0.9L998.5,208.6z M1002.4,217.2c0,3.6-1.7,5.7-4.2,5.7
		s-4.2-2.1-4.2-5.7s1.7-5.7,4.2-5.7S1002.4,213.6,1002.4,217.2L1002.4,217.2z M1001.4,217.2c0-3.1-1.4-4.8-3.2-4.8s-3.2,1.8-3.2,4.8
		s1.4,4.8,3.2,4.8S1001.4,220.2,1001.4,217.2L1001.4,217.2z M1011,205.2V224h-0.9v-9.8h-4.2v9.5h-0.8v-18.4h0.9v8h4.2v-8.1H1011z"/>
	<path class="st1" d="M1036.6,224.3v-19.4h1.5v19.4H1036.6z M1021.5,222.9v-1.4h0.3c4.5,0,7.7-2.6,8.7-7.1h-8.9v-1.4h9.2
		c0.1-0.6,0.1-1.3,0.1-1.9v-3.8h-9.3v-1.5h10.8v5.3c0,7.2-4.1,11.8-10.5,11.8H1021.5z"/>
	<path class="st1" d="M1021.8,206.1h10.3v5c0,7.3-4.3,11.5-10.3,11.5v-0.9c4.7,0,8.1-2.7,9-7.7h-9v-0.9h9.2c0.1-0.7,0.1-1.4,0.1-2.2
		v-4.1h-9.3L1021.8,206.1z M1037.8,205.2V224h-0.9v-18.8H1037.8z"/>
	<path class="st1" d="M1058,224.3v-3.1h-6.4v-1.4h6.4v-14.8h1.5v19.4H1058z M1047.6,224.3v-6.6h-5.8v-1.4h7.3c0.4,0,0.8,0,1.1,0
		c2,0,4-0.3,6-0.8l0.4-0.1v1.5l-0.2,0.1c-2,0.5-4.1,0.8-6.1,0.8c-0.4,0-0.7,0-1.1,0h0v6.6H1047.6z M1048.5,214.7
		c-3.4,0-5.8-1.9-5.8-4.7v-0.4l0.1,0c0.2-2.5,2.5-4.3,5.7-4.3c3.4,0,5.7,1.9,5.7,4.7C1054.2,212.8,1051.9,214.7,1048.5,214.7z
		 M1044.3,210c0,1.9,1.7,3.2,4.2,3.2s4.2-1.3,4.2-3.2s-1.7-3.2-4.2-3.2c-2.5,0-4.2,1.3-4.2,3.1L1044.3,210z"/>
	<path class="st1" d="M1049.1,217.4h-0.3v6.6h-0.9v-6.6h-5.8v-0.9h7c2.4,0.1,4.9-0.1,7.2-0.8v0.9
		C1053.9,217.2,1051.5,217.5,1049.1,217.4z M1043.1,210c0-2.6,2.3-4.4,5.4-4.4s5.4,1.7,5.4,4.4s-2.3,4.4-5.4,4.4
		S1043,212.7,1043.1,210L1043.1,210z M1044,210c0,2.1,1.8,3.5,4.5,3.5s4.5-1.4,4.5-3.5s-1.8-3.5-4.5-3.5S1044,207.9,1044,210
		L1044,210z M1059.2,205.2V224h-0.9v-3.1h-6.4V220h6.4v-14.8H1059.2z"/>
	<path class="st1" d="M1062.8,223.1v-1.4h19.1v1.4H1062.8z M1064.2,216.9v-11.2h16.3l0.1,1.4h-14.9v8.4h15v1.4H1064.2z"/>
	<path class="st1" d="M1081.7,222.9h-18.6V222h18.6V222.9z M1080.3,206.9h-14.8v8.9h15v0.9h-16v-10.6h15.8L1080.3,206.9z"/>
	<path class="st1" d="M1085.4,223.8v-4.2h14.8v-1.4h-14.8v-1.4h16.3v4.2h-14.8v1.5h15.2v1.4H1085.4z M1084,215.4v-1.4h19.1v1.4H1084
		z M1085.6,212.5v-4.3h14.6v-1.5h-14.6v-1.4h16.1v4.3h-14.6v1.6h14.9v1.4H1085.6z"/>
	<path class="st1" d="M1102.8,215.1h-18.6v-0.8h18.6V215.1z M1101.4,220.7h-14.8v2.1h15.2v0.8h-16.1v-3.7h14.8v-2h-14.8V217h15.7
		V220.7z M1101.4,209.3h-14.6v2.1h14.9v0.8h-15.8v-3.8h14.6v-2.1h-14.6v-0.8h15.5V209.3z"/>
	<path class="st1" d="M1113.3,223.8V219h14.3v-2h-14.4v-1.4h15.8v4.8h-14.3v2h15v1.4H1113.3z M1127.6,214.9v-5h-5.5v-1.4h5.5v-3.5
		h1.5v10H1127.6z M1111.5,213.1l0.2,0c3.6-0.8,6-4,5.9-7.6l0-0.3h1.5l0,0.3c0,1.3-0.2,2.5-0.7,3.6l6.3,4l-0.8,1.2l-6.2-3.9
		c-1.3,2.2-3.5,3.6-6,4.1l-0.3,0.1V213.1z"/>
	<path class="st1" d="M1111.8,214.2v-0.9c3.7-0.8,6.3-4.1,6.1-7.9h0.9c0,1.3-0.2,2.6-0.7,3.8l6.3,4l-0.5,0.7l-6.2-3.9
		C1116.4,212.2,1114.3,213.7,1111.8,214.2z M1129.5,222.7v0.8h-15.9v-4.2h14.3v-2.6h-14.3v-0.8h15.3v4.2h-14.3v2.6L1129.5,222.7z
		 M1127.9,209.6h-5.5v-0.8h5.5v-3.5h0.9v9.4h-0.9V209.6z"/>
	<path class="st1" d="M1142.4,224.1c-5.1,0-8-1.4-8-3.8c0-2.4,2.9-3.9,8-3.9c5,0,7.8,1.3,8,3.7l0,0l0,0.2
		C1150.5,222.7,1147.5,224.1,1142.4,224.1z M1142.4,217.8c-4,0-6.5,1-6.5,2.4c0,1.5,2.6,2.4,6.5,2.4c3.9,0,6.5-1,6.5-2.4l0,0
		C1148.9,218.8,1146.3,217.8,1142.4,217.8z M1148.8,216.1v-5.7h-4.5V209h4.5v-4.1h1.5v11.2H1148.8z M1132.9,213.9l0.2,0
		c3.5-0.6,5.5-3,5.8-6.8h-5.8v-1.4h12.6v1.4h-5.3c-0.1,0.9-0.2,1.8-0.5,2.7l6.5,4.4l-0.9,1.2l-6.2-4.2c-1.2,2.3-3.5,3.9-6.1,4.2
		l-0.3,0V213.9z"/>
	<path class="st1" d="M1133.2,215v-0.9c3.6-0.7,5.8-3.2,6-7.4h-5.8v-0.9h12v0.9h-5.3c0,1-0.2,2.1-0.6,3.1l6.4,4.3l-0.5,0.7l-6.2-4.2
		C1138.1,213,1135.8,214.7,1133.2,215z M1150.2,220.2c0,2.5-3.4,3.6-7.7,3.6s-7.8-1.1-7.8-3.6s3.4-3.6,7.8-3.6
		S1150.1,217.7,1150.2,220.2L1150.2,220.2z M1149.2,220.2c0-1.8-3-2.7-6.8-2.7s-6.8,0.9-6.8,2.7s3,2.7,6.8,2.7
		S1149.2,222,1149.2,220.2L1149.2,220.2z M1149.1,209.2v-4.1h0.9v10.6h-0.9v-5.7h-4.6v-0.8H1149.1z"/>
	<path class="st1" d="M1168.1,220.9c-1.1,1.5-2.7,2.6-4.5,2.9l-0.1,0l-3.6-2.7c-1.1,1.4-2.7,2.4-4.5,2.7l-0.3,0.1v-1.4l0.2,0
		c2.4-0.5,4.3-2.6,4.6-5l0-0.3l1.5,0.1l0,0.3c-0.1,0.8-0.4,1.7-0.8,2.4l3.2,2.4c2.2-0.7,3.9-2.6,4.2-5l0-0.3l1.5,0.1l0,0.3
		c-0.1,0.8-0.3,1.5-0.6,2.2l4.5,3l-0.8,1.2L1168.1,220.9z M1170.3,217.3v-6h-3.6v5.7h-1.5v-12h1.5v4.8h3.6v-5h1.5v12.4H1170.3z
		 M1158.8,216.8c-2.7,0-4.5-1.5-4.5-3.7v0c0-2.2,1.9-3.7,4.5-3.7c2.7,0,4.5,1.5,4.5,3.7C1163.3,215.2,1161.4,216.8,1158.8,216.8z
		 M1155.7,213.1c0.1,1.3,1.3,2.2,3,2.2c1.8,0,3-0.9,3-2.3c0-1.4-1.2-2.3-3-2.3c-1.8,0-3,0.9-3,2.3L1155.7,213.1L1155.7,213.1z
		 M1153.4,208.6v-1.4h4.6v-2.5h1.5v2.5h4.4v1.4H1153.4z"/>
	<path class="st1" d="M1163.6,208.3h-9.9v-0.9h4.6v-2.5h0.9v2.5h4.4V208.3z M1154.5,213c0-2.1,1.8-3.4,4.2-3.4s4.2,1.3,4.2,3.4
		s-1.8,3.5-4.2,3.5S1154.5,215.2,1154.5,213L1154.5,213z M1172.4,223.5l-4.4-3c-1,1.6-2.6,2.7-4.5,3l-3.7-2.8
		c-1.1,1.5-2.7,2.5-4.4,2.8v-0.9c2.6-0.6,4.5-2.7,4.8-5.3l0.9,0.1c-0.1,0.9-0.4,1.8-0.8,2.5l3.5,2.6c2.4-0.7,4.2-2.8,4.5-5.2
		l0.9,0.1c-0.1,0.8-0.3,1.6-0.7,2.3l4.5,3L1172.4,223.5z M1155.4,213c0,1.5,1.2,2.6,3.3,2.6s3.3-1.2,3.3-2.6s-1.2-2.6-3.3-2.6
		S1155.4,211.6,1155.4,213L1155.4,213z M1166.4,216.7h-0.9v-11.4h0.9v4.8h4.2v-5h0.9V217h-0.9v-6h-4.2V216.7z"/>
	<path class="st1" d="M1176.3,223.8v-7.5h1.5v2.5h13.2v-2.5h1.5v7.5H1176.3z M1191,222.4v-2.2h-13.2v2.2H1191z M1174.8,215v-1.4
		h19.1v1.4H1174.8z M1184.2,208.5c-2.2,2.2-5.1,3.5-8.3,3.6l-0.3,0v-1.4l0.3,0c3.6-0.1,7.9-2.5,8.7-5.9l0.1-0.3l1.5,0.3l-0.1,0.3
		c-0.2,0.8-0.5,1.6-0.9,2.3l8.1,3.7l-0.6,1.3L1184.2,208.5z"/>
	<path class="st1" d="M1193.7,213.9v0.9h-18.6v-0.9H1193.7z M1175.9,211.8V211c3.7-0.1,8.1-2.5,8.9-6.2l0.9,0.2
		c-0.2,0.9-0.5,1.7-1.1,2.4l8.1,3.7l-0.4,0.8l-8.3-3.8C1182,210.4,1179,211.7,1175.9,211.8L1175.9,211.8z M1191.3,216.6h0.9v6.9
		h-15.6v-6.9h0.9v2.5h13.8L1191.3,216.6z M1191.3,222.7v-2.8h-13.8v2.8H1191.3z"/>
	<path class="st1" d="M1212.1,224.2v-19.4h1.5v19.4H1212.1z M1197.3,222.9v-17.3h1.5v15.8l6.6,0c1.6,0,3.1-0.3,4.6-0.9l0.4-0.2v1.5
		l-0.2,0.1c-1.5,0.6-3.1,1-4.7,1L1197.3,222.9z"/>
	<path class="st1" d="M1198.5,221.8h6.7c1.7,0,3.3-0.3,4.9-0.9v0.9c-1.5,0.6-3.2,1-4.9,0.9h-7.6v-16.7h0.9V221.8z M1213.3,224h-0.9
		v-18.8h0.9V224z"/>
	<path class="st1" d="M1232.7,224.3v-19.4h1.5v8.2h3l0,1.4h-3v9.8H1232.7z M1218.2,222.9v-17.2h11.3v1.4h-9.8v14.3c0,0,6.2,0,6.2,0
		c1.7,0,3.3-0.3,4.7-0.9l0.4-0.2v1.5l-0.2,0.1c-1.5,0.6-3.1,0.9-4.8,0.9L1218.2,222.9z"/>
	<path class="st1" d="M1225.9,221.8c1.7,0,3.3-0.3,4.9-0.9v0.9c-1.5,0.6-3.2,0.9-4.9,0.9h-7.4v-16.6h10.8v0.9h-9.8v14.9H1225.9z
		 M1236.9,214.2h-3v9.8h-0.9v-18.8h0.9v8.2h3L1236.9,214.2z"/>
	<circle class="st1" cx="1239.7" cy="222.7" r="1.3"/>
	<path class="st1" d="M1240.7,222.7c0,0.6-0.4,1-1,1s-1-0.4-1-1s0.4-1,1-1S1240.7,222.1,1240.7,222.7z"/>
	<path class="st1" d="M705.7,553.1h-11.4v-8.9h2.2v2.5h7v-2.5h2.2L705.7,553.1z M696.9,561.3h6.8v1.7h-8.9v-4.9h6.1v-1.5h-6.1v-1.7
		h8.2v4.9h-6.1L696.9,561.3z M703.5,551.2v-2.8h-7v2.8H703.5z M704,554.9h7.2v8.1H709v-6.3h-5L704,554.9z M714,549.4h-2.7v4.4H709
		v-10h2.2v3.5h2.8L714,549.4z"/>
	<path class="st1" d="M735,560.2v2.1h-19.4v-2.1h7.2v-8.7h2.3v8.7H735z M731.4,546.6h-14.6v-2.1h17v12.8h-2.3L731.4,546.6z"/>
	<path class="st1" d="M743.8,551.8h19.4v1.9h-19.4V551.8z M745,559.4c0-2.9,3.9-3.9,8.5-3.9s8.5,1,8.5,3.9s-3.9,3.9-8.5,3.9
		S745,562.3,745,559.4z M759.6,546h-14.4v-1.9h16.7v6.5h-2.3V546z M759.7,559.4c0-1.5-3-2.1-6.2-2.1s-6.2,0.6-6.2,2.1s3,2.1,6.2,2.1
		S759.7,560.9,759.7,559.4L759.7,559.4z"/>
	<path class="st1" d="M766.2,554.2v-2c3-0.3,5.4-2.8,5.5-5.9h-5.2v-1.9h12.4v1.9h-4.9c0,0.8-0.2,1.5-0.4,2.3l6,3.8l-1.1,1.6
		l-5.7-3.7C771.2,552.6,768.8,554,766.2,554.2z M784.2,559.4c0,2.8-3.7,3.9-8.4,3.9s-8.4-1.1-8.4-3.9s3.7-3.9,8.4-3.9
		S784.2,556.5,784.2,559.4L784.2,559.4z M781.9,559.4c0-1.4-2.7-2.1-6-2.1s-6,0.7-6,2.1s2.7,2.1,6,2.1S781.9,560.8,781.9,559.4
		L781.9,559.4z M781.9,547.5v-3.7h2.3v10.9h-2.3v-5.3h-3.8v-2L781.9,547.5z"/>
	<path class="st1" d="M788.1,555.1v-2c3.2-0.5,5.3-3.1,5.5-6.8h-5.2v-1.9h12.4v1.9h-4.9c0,1-0.2,2-0.5,2.9l6,4.1l-1.2,1.7l-5.6-4
		C793.2,553.3,790.8,554.9,788.1,555.1z M789.3,556.8H806v6.5h-2.3v-4.6h-14.4V556.8z M806,543.8v11.8h-2.2v-5.4H800v-2h3.8v-4.5
		L806,543.8z"/>
	<path class="st1" d="M809.8,549.7c0-3.3,2.4-5.7,6.2-5.7s6.2,2.4,6.2,5.7s-2.3,5.7-6.2,5.7S809.8,553,809.8,549.7z M811.5,556.7
		h2.3v4.3h14.5v2h-16.8V556.7z M819.9,549.7c0.1-2.2-1.6-4-3.7-4.1c-2.2-0.1-4,1.6-4.1,3.7c-0.1,2.2,1.6,4,3.7,4.1
		c0.1,0,0.1,0,0.2,0c2,0.2,3.7-1.3,3.9-3.3C819.9,550,819.9,549.8,819.9,549.7z M825.5,543.8h2.2v14.4h-2.2V543.8z"/>
	<path class="st1" d="M838.7,553.3c0-6.2,2.4-9,5.9-9s5.9,2.9,5.9,9s-2.4,9-5.9,9S838.7,559.5,838.7,553.3z M848.2,553.3
		c0-4.9-1.6-7-3.6-7s-3.6,2-3.6,7s1.6,7,3.6,7S848.2,558.3,848.2,553.3z M853.8,543.8h2.3v19.5h-2.3V543.8z"/>
	<path class="st1" d="M860.9,544.5h11v17.6h-11V544.5z M869.7,560v-13.3h-6.5V560H869.7z M875.7,543.8h2.3v19.5h-2.3L875.7,543.8z"
		/>
	<path class="st1" d="M889.4,552.8l6.3,7.9L894,562l-5.2-6.7c-1.3,4.1-3.7,6.5-6.6,6.8v-2.3c3.5-0.6,5.5-6.1,5.6-13.3h-5.1v-2.1H895
		v2.1h-5C890,548.7,889.8,550.7,889.4,552.8z M899.9,543.8v19.5h-2.2v-19.5H899.9z"/>
	<circle class="st1" cx="797.4" cy="434.5" r="43.1"/>
	<path class="st1" d="M1411.1,402.1c3.7-3.7,8.1-6.7,12.8-8.9c-9.8,21.7-0.1,47.2,21.7,57c11.2,5,24.1,5,35.3,0
		c-9.8,21.7-35.3,31.4-57,21.7c-21.7-9.8-31.4-35.3-21.7-57C1404.4,410.1,1407.4,405.8,1411.1,402.1L1411.1,402.1z"/>
	<path class="st1" d="M1344.6,560.1c1.7,0,3.4-0.3,5-0.9v2c-1.6,0.7-3.4,1-5.2,0.9h-7.6v-17.6h11.2v2h-8.9v13.5L1344.6,560.1z
		 M1356.3,553.9h-2.7v9.4h-2.2v-19.4h2.2v7.9h2.7V553.9z"/>
	<path class="st1" d="M1364,553.9c-3.7,0-6-2-6-4.9s2.3-5,6-5s6,2,6,5S1367.6,553.9,1364,553.9z M1375.8,559.3c0,2.9-3.6,4-8.2,4
		s-8.2-1.1-8.2-4s3.6-4,8.2-4S1375.8,556.3,1375.8,559.3L1375.8,559.3z M1364,552.1c2.2,0,3.7-1.1,3.7-3.1s-1.5-3.1-3.7-3.1
		s-3.8,1.1-3.8,3.1S1361.7,552.1,1364,552.1z M1373.4,559.3c0-1.5-2.6-2.2-5.8-2.2s-5.8,0.7-5.8,2.2s2.6,2.2,5.8,2.2
		S1373.4,560.8,1373.4,559.3L1373.4,559.3z M1375.5,547.6v2.7h2.7v1.9h-2.7v2.3h-2.3v-10.7h2.3v1.9h2.7v1.9H1375.5z"/>
	<path class="st1" d="M1392.9,547.5h-13.2v-1.8h5.5v-2.2h2.3v2.2h5.5V547.5z M1380.6,552.6c0-2.5,2.5-4,5.8-4s5.8,1.4,5.8,4
		s-2.5,4-5.8,4S1380.6,555.2,1380.6,552.6L1380.6,552.6z M1383.4,561h14.5v2h-16.8v-5.3h2.3V561z M1382.8,552.6
		c0,1.3,1.4,2.2,3.6,2.2s3.6-0.9,3.6-2.2s-1.4-2.3-3.6-2.3S1382.8,551.3,1382.8,552.6L1382.8,552.6z M1400.1,549.2v2.2h-2.7v7.1
		h-2.3v-14.6h2.3v5.3H1400.1z"/>
	<path class="st1" d="M1408.1,552.6h19.4v1.8h-19.4V552.6z M1409.2,559.8c0-2.7,3.9-3.5,8.6-3.5s8.5,0.9,8.5,3.5s-3.9,3.6-8.5,3.6
		S1409.2,562.4,1409.2,559.8z M1409.5,543.8h2.3v5h14.6v1.8h-16.9V543.8z M1424,559.8c0-1.3-3-1.8-6.2-1.8s-6.2,0.5-6.2,1.8
		s3,1.8,6.2,1.8S1424,561.1,1424,559.8z"/>
	<path class="st1" d="M1438.9,548.8v-2.6h-8.2v-1.9h10.4v6.3h-8.2v2.6h4.4c2.1,0.1,4.1-0.2,6.1-0.8v1.9c-2,0.6-4.2,0.8-6.3,0.8h-6.4
		v-6.4H1438.9z M1431.6,557.1h16.7v6.2h-2.3V559h-14.4V557.1z M1448.3,543.8V556h-2.2v-4.5h-3.6v-1.9h3.6v-1.8h-3.6V546h3.6v-2.1
		L1448.3,543.8z"/>
	<path class="st1" d="M1451.9,552.1h19.4v1.8h-19.4V552.1z M1453.1,547.3c0-2.6,3.8-3.5,8.5-3.5s8.5,1,8.5,3.5s-3.8,3.5-8.5,3.5
		S1453.1,549.9,1453.1,547.3L1453.1,547.3z M1453.3,558.4h14.5V557h-14.6v-1.7h16.8v4.6h-14.5v1.4h14.9v1.7h-17.1L1453.3,558.4z
		 M1467.9,547.3c0-1.3-2.8-1.8-6.2-1.8s-6.2,0.5-6.2,1.8s2.8,1.8,6.2,1.8S1467.8,548.6,1467.9,547.3L1467.9,547.3z"/>
	<path class="st1" d="M1480.7,553.9v-2c5.5,0,8.9-1.6,8.9-5.1v-0.6h-8.9v-1.9h11.2v2.1C1491.9,551.7,1487.5,553.9,1480.7,553.9z
		 M1490.7,558.8l7.9,2.6l-0.6,1.9l-8.5-3c-2.3,1.9-5.2,2.8-8.1,2.7v-2c3.5,0,6.7-1.4,7.6-3.7h-7.4v-1.9h16.6v1.9h-6.8
		C1491.2,557.8,1491,558.3,1490.7,558.8L1490.7,558.8z M1500.6,547.8v2.2h-2.7v4.4h-2.2v-10.6h2.2v4L1500.6,547.8z"/>
	<path class="st1" d="M1521.6,558.5h-8.6v5.2h-2.3v-5.2h-8.5v-2.1h19.4L1521.6,558.5z M1502.8,554.5v-2.1c4.1-0.3,7.1-2.2,7.9-4.8
		h-7.4v-2h7.4v-2.2h2.4v2.2h7.5v2h-7.4c-0.1,0.6-0.3,1.2-0.6,1.7l8.5,3.1l-0.8,2l-8.9-3.4C1509.5,553.1,1506.5,554.3,1502.8,554.5
		L1502.8,554.5z"/>
	<path class="st1" d="M1525,559.9c5.3,0,8.5-4.1,8.5-10.7v-2.7h-8.5v-2.1h10.8v4.7c0,7.8-4.2,12.8-10.8,12.8V559.9z M1540,543.8h2.2
		v19.5h-2.2V543.8z"/>
	<path class="st1" d="M1390.9,583.3c2.1,0.1,4.3-0.2,6.4-0.8v2c-2.1,0.6-4.2,0.8-6.3,0.8h-0.2v5.3h-2.3v-5.3h-5.5v-2H1390.9z
		 M1383.9,576.5c0-2.9,2.4-5,5.8-5s5.8,2,5.8,5s-2.4,5-5.8,5S1383.9,579.5,1383.9,576.5L1383.9,576.5z M1386.1,576.5
		c0,1.8,1.4,3.1,3.6,3.1s3.6-1.3,3.6-3.1s-1.4-3.1-3.6-3.1S1386.1,574.7,1386.1,576.5L1386.1,576.5z M1401.2,571.2v19.5h-2.2v-19.5
		H1401.2z"/>
	<path class="st1" d="M1410.8,574.2h4.1v2h-10.4v-2h4.1v-3.1h2.2L1410.8,574.2z M1414.3,583.7c0,3.9-1.9,6-4.5,6s-4.5-2.1-4.5-6
		s1.9-6,4.5-6S1414.3,579.9,1414.3,583.7L1414.3,583.7z M1412.2,583.7c0-2.5-1-4-2.5-4s-2.4,1.4-2.4,4s1,4,2.4,4
		S1412.2,586.3,1412.2,583.7L1412.2,583.7z M1423.6,571.2v19.5h-2.1v-9.5h-3.1v9.2h-2.1v-19h2.1v7.7h3.1v-7.8L1423.6,571.2z"/>
	<path class="st1" d="M1452.6,587.6v2.1h-19.4v-2.1h8.6v-5.1h-7.3v-10.9h2.3v8.8h14.6v2.1h-7.3v5.1H1452.6z"/>
	<path class="st1" d="M1464.1,576.1v-2.6h-8.2v-1.9h10.4v6.3h-8.1v2.6h4.4c2.1,0.1,4.1-0.2,6.1-0.8v1.9c-2,0.6-4.2,0.8-6.3,0.8h-6.4
		v-6.4L1464.1,576.1z M1456.7,584.4h16.7v6.2h-2.3v-4.3h-14.4L1456.7,584.4z M1473.4,571.2v12.2h-2.2v-4.5h-3.6V577h3.6v-1.8h-3.6
		v-2h3.6v-2.1L1473.4,571.2z"/>
	<path class="st1" d="M1490.2,574.6H1477v-1.8h5.5v-2h2.3v2h5.5L1490.2,574.6z M1477.9,579.2c0-2.2,2.5-3.5,5.7-3.5s5.7,1.3,5.7,3.5
		s-2.5,3.5-5.7,3.5S1477.8,581.3,1477.9,579.2L1477.9,579.2z M1478.4,583.8h16.3v6.5h-16.3V583.8z M1480,579.2c0,1,1.4,1.8,3.6,1.8
		s3.6-0.8,3.6-1.8s-1.4-1.9-3.6-1.9S1480,578.1,1480,579.2L1480,579.2z M1480.6,588.6h11.8v-2.9h-11.8V588.6z M1497.4,578h-2.7v4.7
		h-2.2v-11.6h2.2v4.7h2.7V578z"/>
	<path class="st1" d="M986.1,555.4h-7.3v-1.9h3.8v-4.6h2.2v4.6h1.4c2.2,0.1,4.3-0.1,6.4-0.8v1.9
		C990.4,555.3,988.2,555.5,986.1,555.4z M988.4,546.1h-8.7v-2h11v7.5h-2.3L988.4,546.1z M982.4,561.1h14.5v2h-16.8v-5.7h2.3
		L982.4,561.1z M999.1,549.1v2.1h-2.7v7.4h-2.2v-14.8h2.2v5.3L999.1,549.1z"/>
	<path class="st1" d="M1000.9,553.5v-1.8c2.9-0.4,4.9-2,5.3-4.3h-5.1v-1.8h5.2v-2h2.3v2h5.1v1.8h-5.1c-0.1,0.5-0.2,1-0.4,1.4
		l5.8,2.9l-0.9,1.6l-5.8-3C1005.7,552.1,1003.4,553.3,1000.9,553.5z M1004.2,561.3h14.5v1.7H1002v-5h14v-1.6h-14v-1.8h16.3v5h-14
		L1004.2,561.3z M1021,547.4v2h-2.7v4.2h-2.3v-9.8h2.2v3.6H1021z"/>
	<path class="st1" d="M1030.4,546.9h5.2v2H1023v-2h5.2v-3.1h2.3L1030.4,546.9z M1034.7,556.4c0,3.6-2.2,6-5.4,6s-5.4-2.4-5.4-6
		s2.3-5.9,5.4-5.9S1034.7,552.8,1034.7,556.4z M1032.5,556.4c0-2.5-1.4-4-3.2-4s-3.2,1.5-3.2,4s1.4,4,3.2,4
		S1032.5,558.9,1032.5,556.4L1032.5,556.4z M1042.9,553.9h-2.7v9.4h-2.3v-19.4h2.3v7.9h2.7V553.9z"/>
	<path class="st1" d="M1063.9,560.2v2.1h-19.4v-2.1h7.2v-8.7h2.3v8.7H1063.9z M1060.3,546.6h-14.6v-2.1h16.9v12.8h-2.3V546.6z"/>
	<path class="st1" d="M1080.4,554.5h-7v-10.2h11.9v1.8h-9.6v2.3h9.3v1.8h-9.2v2.4h4.9c2.1,0.1,4.2-0.2,6.1-0.9v1.8
		C1084.7,554.3,1082.6,554.6,1080.4,554.5z M1074.1,556.3h16.3v6.7h-16.3V556.3z M1076.4,561.2h11.8v-3.1h-11.8V561.2z
		 M1093.1,550.3h-2.7v4.9h-2.2v-11.4h2.2v4.3h2.7V550.3z"/>
	<path class="st1" d="M1114.1,556.9h-8.7v6.8h-2.3v-6.8h-8.4v-2.1h19.4V556.9z M1110.4,546.4H1096v-2.1h16.8v8.9h-2.3L1110.4,546.4z
		"/>
	<path class="st1" d="M1124.5,546.9h5.2v2h-12.6v-2h5.2v-3.1h2.3L1124.5,546.9z M1128.8,556.4c0,3.6-2.2,6-5.4,6s-5.4-2.4-5.4-6
		s2.2-5.9,5.4-5.9S1128.8,552.8,1128.8,556.4z M1126.6,556.4c0-2.5-1.4-4-3.2-4s-3.2,1.5-3.2,4s1.4,4,3.2,4
		S1126.6,558.9,1126.6,556.4L1126.6,556.4z M1137,553.9h-2.7v9.4h-2.2v-19.4h2.3v7.9h2.7L1137,553.9z"/>
	<path class="st1" d="M1138.5,553.5h19.5v2h-19.4L1138.5,553.5z M1139.9,557.3h2.3v3.8h14.8v2h-17.1L1139.9,557.3z M1139.9,543.8
		h2.3v5.5h14.6v2h-16.8L1139.9,543.8z"/>
	<path class="st1" d="M1167.4,555.2v-2c5.4,0,8.9-2,8.9-6v-0.9h-8.9v-2h11.2v2.6c0,0.6,0,1.1-0.2,1.7h4.4v-4.8h2.3v13.3h-2.3v-6.5
		h-5.1C1176.2,553.8,1172.4,555.2,1167.4,555.2z M1185.1,563.2l-8.4-3.7c-2.2,2.2-5.2,3.5-8.3,3.5v-2.1c3.6,0,7.2-2,8.1-5.5l2.3,0.4
		c-0.2,0.7-0.4,1.4-0.8,2.1l8.1,3.3L1185.1,563.2z"/>
	<path class="st1" d="M1188.8,552.1h19.4v1.8h-19.4V552.1z M1189.9,547.3c0-2.6,3.8-3.5,8.5-3.5s8.6,1,8.6,3.5s-3.8,3.5-8.6,3.5
		S1189.9,549.9,1189.9,547.3z M1190.1,558.4h14.5V557h-14.6v-1.7h16.8v4.6h-14.5v1.4h14.9v1.7h-17.1V558.4z M1204.7,547.3
		c0-1.3-2.8-1.8-6.2-1.8s-6.2,0.5-6.2,1.8s2.8,1.8,6.2,1.8S1204.7,548.6,1204.7,547.3z"/>
	<path class="st1" d="M1217.1,555.6v-2.1c3.7-0.7,5.8-4.8,5.8-9.4l2.3,0.1c0,1.7-0.3,3.3-0.8,4.9l6,4.8l-1.4,1.6l-5.5-4.5
		C1222.2,553.4,1219.8,555.1,1217.1,555.6z M1235.8,561v2h-17v-6.2h2.3v4.2L1235.8,561z M1233.1,549.6h-4.7v-2h4.7v-3.7h2.2v14.5
		h-2.2V549.6z"/>
	<path class="st1" d="M1258.4,560.3v2H1239v-2h8.6v-3c-4-0.2-7-1.3-7-3.8c0-2.8,3.5-3.9,8.1-3.9s8.1,1.1,8.1,3.9c0,2.5-3,3.6-7,3.8
		v3H1258.4z M1257.7,548.3h-18v-2h7.8v-2.7h2.3v2.7h7.9L1257.7,548.3z M1248.7,555.5c3.3,0,5.8-0.5,5.8-2s-2.5-2-5.8-2
		s-5.8,0.5-5.8,2S1245.4,555.5,1248.7,555.5L1248.7,555.5z"/>
	<path class="st1" d="M1118.6,478.1c-24.1,0-43.6-19.5-43.6-43.6s19.5-43.6,43.6-43.6s43.6,19.5,43.6,43.6l0,0
		C1162.1,458.5,1142.6,478,1118.6,478.1z M1118.6,391.8c-23.5,0-42.6,19.1-42.6,42.6c0,23.5,19.1,42.6,42.6,42.6
		s42.6-19.1,42.6-42.6l0,0C1161.1,410.9,1142.1,391.9,1118.6,391.8L1118.6,391.8z"/>
</g>
</svg>
