<svg xmlns="http://www.w3.org/2000/svg" viewBox="0 0 1920 5317.9"><defs><style>.cls-1{opacity:0;}.cls-2{fill:#fff;}</style></defs><g id="레이어_2" data-name="레이어 2"><g id="레이어_1-2" data-name="레이어 1"><rect class="cls-1" width="1920" height="5317.9"/><path class="cls-2" d="M243.2,1303.28l0-9.57v-1.28h1.28l8.13,0a6.63,6.63,0,0,1,4.32,1.54,5.73,5.73,0,0,1,.74,8.41,6.43,6.43,0,0,1-5.06,2.21h-6.88v9.6H243.2v-10.88Zm9.44-1.28a4.49,4.49,0,0,0,2.21-.57,3.26,3.26,0,0,0,1.09-4.93,3.92,3.92,0,0,0-3.3-1.54h-6.88V1302Z"/><path class="cls-2" d="M274.75,1311.15a7,7,0,0,1-5.95,3,6.65,6.65,0,0,1-4.61-1.85,7.64,7.64,0,0,1-2.43-5.83,7.91,7.91,0,0,1,1.82-5.18,6.64,6.64,0,0,1,9.8-.64,7.56,7.56,0,0,1,2.46,5.82v1.28H264.45a5.37,5.37,0,0,0,.77,1.79,4.09,4.09,0,0,0,3.58,2,4.72,4.72,0,0,0,3.9-2Zm-1.47-6a3.34,3.34,0,0,0-.86-2,4.55,4.55,0,0,0-3.62-1.83,4,4,0,0,0-1.89.48,4.73,4.73,0,0,0-2.46,3.36Z"/><path class="cls-2" d="M286.34,1298.8h1.28v2.56h-1.28a3.85,3.85,0,0,0-1.92.48q-2.15,1.19-2.18,4.45v7.87h-2.56V1298.8h2.56v1.35A6.62,6.62,0,0,1,286.34,1298.8Z"/><path class="cls-2" d="M298.08,1303.25a1.4,1.4,0,0,0-.35-.9,3.11,3.11,0,0,0-2.56-1,4.77,4.77,0,0,0-1.31.19c-1.07.35-1.6.91-1.6,1.7a.83.83,0,0,0,.19.51,7.62,7.62,0,0,0,2.94,1.31c1.07.32,1.86.59,2.37.8q3.39,1.38,3.36,3.84a3.76,3.76,0,0,1-1,2.44,6.22,6.22,0,0,1-5,2,7.05,7.05,0,0,1-4-1.12,3.94,3.94,0,0,1-1.95-3.33h2.56a1.29,1.29,0,0,0,.38.9,3.91,3.91,0,0,0,3,1,5.7,5.7,0,0,0,1.47-.19c1.28-.32,1.92-.88,1.92-1.7a.94.94,0,0,0-.16-.48,7.53,7.53,0,0,0-2.91-1.28c-1.05-.32-1.84-.58-2.37-.8q-3.39-1.37-3.42-3.9a3.94,3.94,0,0,1,1-2.53,5.54,5.54,0,0,1,4.51-1.92,6.07,6.07,0,0,1,3.55,1.06,4,4,0,0,1,1.92,3.39Z"/><path class="cls-2" d="M305.57,1301.27a6.59,6.59,0,0,1,9.73-.61,7.56,7.56,0,0,1,2.46,5.82,7.76,7.76,0,0,1-1.89,5.22,6.47,6.47,0,0,1-5.15,2.46,6.54,6.54,0,0,1-4.58-1.85,7.59,7.59,0,0,1-2.46-5.83A7.76,7.76,0,0,1,305.57,1301.27Zm1.6,8.32a4.09,4.09,0,0,0,3.55,2,4,4,0,0,0,2.69-1,5.2,5.2,0,0,0,1.79-4.1,5.51,5.51,0,0,0-.93-3.1,4.08,4.08,0,0,0-3.55-2,4,4,0,0,0-2.69,1,5.18,5.18,0,0,0-1.79,4.09A5.54,5.54,0,0,0,307.17,1309.59Z"/><path class="cls-2" d="M333.79,1314.19h-2.53l0-1.28,0-7.48a4.51,4.51,0,0,0-.61-2.31,3.25,3.25,0,0,0-2.91-1.76,3.1,3.1,0,0,0-2,.71,4,4,0,0,0-1.54,3.36v8.73H321.6V1298.8h2.56V1300a5.84,5.84,0,0,1,3.52-1.22,5.59,5.59,0,0,1,3.81,1.47,6.48,6.48,0,0,1,2.27,5.16v7.45Z"/><path class="cls-2" d="M339.49,1301.27a6.45,6.45,0,0,1,5.15-2.47,6.59,6.59,0,0,1,4.48,1.76v-1.76h2.56v15.36h-2.56v-1.76a6.69,6.69,0,0,1-4.48,1.76,6.54,6.54,0,0,1-4.58-1.85,7.59,7.59,0,0,1-2.46-5.83A7.76,7.76,0,0,1,339.49,1301.27Zm1.6,8.32a4.09,4.09,0,0,0,3.55,2,4,4,0,0,0,2.69-1,5.2,5.2,0,0,0,1.79-4.1,5.51,5.51,0,0,0-.93-3.1,4.08,4.08,0,0,0-3.55-2,4,4,0,0,0-2.69,1,5.18,5.18,0,0,0-1.79,4.09A5.54,5.54,0,0,0,341.09,1309.59Z"/><path class="cls-2" d="M356.8,1291.12h2.56v23H356.8v-23Z"/><path class="cls-2" d="M257,1341.91a5.73,5.73,0,0,1,.74,8.41,6.36,6.36,0,0,1-5,2.24H243.2v-10.88l0-9.57v-1.28h1.28l7,0a6.67,6.67,0,0,1,4.35,1.54,5.73,5.73,0,0,1,2.21,4.54,5.9,5.9,0,0,1-2.05,4.39A7,7,0,0,1,257,1341.91Zm-5.47-1.51a4.26,4.26,0,0,0,2.27-.64,3.23,3.23,0,0,0,1.73-2.88,3.18,3.18,0,0,0-.74-2,4,4,0,0,0-3.26-1.51h-5.73v7.07Zm-5.7,9.63,6.88,0a4.11,4.11,0,0,0,2.24-.64,3.25,3.25,0,0,0,1-4.89,3.92,3.92,0,0,0-3.27-1.51h-6.88Z"/><path class="cls-2" d="M269.7,1337.2H271v2.56H269.7a3.85,3.85,0,0,0-1.92.48q-2.14,1.18-2.18,4.45v7.87H263V1337.2h2.56v1.35A6.62,6.62,0,0,1,269.7,1337.2Z"/><path class="cls-2" d="M274.46,1339.67a6.48,6.48,0,0,1,5.16-2.47,6.61,6.61,0,0,1,4.48,1.76v-1.76h2.56v15.36H284.1v-1.76a6.73,6.73,0,0,1-4.48,1.76,6.53,6.53,0,0,1-4.58-1.85,7.59,7.59,0,0,1-2.46-5.83A7.8,7.8,0,0,1,274.46,1339.67Zm1.6,8.32a4.11,4.11,0,0,0,3.56,2,4,4,0,0,0,2.68-1,5.18,5.18,0,0,0,1.8-4.1,5.51,5.51,0,0,0-.93-3.1,4.09,4.09,0,0,0-3.55-2,4,4,0,0,0-2.69,1,5.15,5.15,0,0,0-1.79,4.09A5.61,5.61,0,0,0,276.06,1348Z"/><path class="cls-2" d="M304,1352.59h-2.53l0-1.28,0-7.48a4.61,4.61,0,0,0-.61-2.31,3.27,3.27,0,0,0-2.91-1.76,3.15,3.15,0,0,0-2,.71,4.05,4.05,0,0,0-1.53,3.36v8.73h-2.56V1337.2h2.56v1.22a5.82,5.82,0,0,1,3.52-1.22,5.55,5.55,0,0,1,3.8,1.47,6.47,6.47,0,0,1,2.28,5.16v7.45Z"/><path class="cls-2" d="M309.66,1339.67a6.48,6.48,0,0,1,5.16-2.47,6.61,6.61,0,0,1,4.48,1.76v-9.44h2.56v23H319.3v-1.76a6.73,6.73,0,0,1-4.48,1.76,6.53,6.53,0,0,1-4.58-1.85,7.59,7.59,0,0,1-2.46-5.83A7.8,7.8,0,0,1,309.66,1339.67Zm1.6,8.32a4.11,4.11,0,0,0,3.56,2,4,4,0,0,0,2.68-1,5.18,5.18,0,0,0,1.8-4.1,5.51,5.51,0,0,0-.93-3.1,4.09,4.09,0,0,0-3.55-2,4,4,0,0,0-2.69,1,5.15,5.15,0,0,0-1.79,4.09A5.61,5.61,0,0,0,311.26,1348Z"/><path class="cls-2" d="M326.5,1335.25v-2.56h2.59v2.56H326.5Zm0,2h2.56v15.36H326.5V1337.2Z"/><path class="cls-2" d="M345.57,1352.59H343l0-1.28,0-7.48a4.61,4.61,0,0,0-.61-2.31,3.27,3.27,0,0,0-2.91-1.76,3.15,3.15,0,0,0-2,.71,4.05,4.05,0,0,0-1.53,3.36v8.73h-2.56V1337.2h2.56v1.22a5.82,5.82,0,0,1,3.52-1.22,5.55,5.55,0,0,1,3.8,1.47,6.47,6.47,0,0,1,2.28,5.16v7.45Z"/><path class="cls-2" d="M351.26,1339.67a6.48,6.48,0,0,1,5.16-2.47,6.61,6.61,0,0,1,4.48,1.76v-.48l0-1.25h2.59l0,1.28,0,12.77a7.51,7.51,0,0,1-.32,2.11,9.08,9.08,0,0,1-.95,2.12,9.64,9.64,0,0,1-1.45,1.84,6.66,6.66,0,0,1-2,1.31,5.66,5.66,0,0,1-2.33.49h-1.28v-2.56h1.28a4,4,0,0,0,3-1.56,5.65,5.65,0,0,0,1.41-3.75v-.48a6.71,6.71,0,0,1-4.48,1.76,6.53,6.53,0,0,1-4.58-1.85,7.59,7.59,0,0,1-2.46-5.83A7.8,7.8,0,0,1,351.26,1339.67Zm1.6,8.32a4.11,4.11,0,0,0,3.56,2,4,4,0,0,0,2.68-1,5.18,5.18,0,0,0,1.8-4.1,5.51,5.51,0,0,0-.93-3.1,4.09,4.09,0,0,0-3.55-2,4,4,0,0,0-2.69,1,5.15,5.15,0,0,0-1.79,4.09A5.61,5.61,0,0,0,352.86,1348Z"/><path class="cls-2" d="M259.14,1749.79l.51,1.64H257l-.26-.93a41.41,41.41,0,0,0-1.92-5.35,8.73,8.73,0,0,0-2.59-3.32h-6.43v9.6H243.2v-10.88l0-9.57v-1.28h1.28l8.1,0a6.64,6.64,0,0,1,4.35,1.53,5.72,5.72,0,0,1,1.86,6.59,6,6,0,0,1-3.43,3.49Q257.25,1743.46,259.14,1749.79Zm-10.6-10.52h4.1a4.5,4.5,0,0,0,2.21-.58,3.2,3.2,0,0,0,1.79-2.91,3.26,3.26,0,0,0-.7-2,4,4,0,0,0-3.33-1.53h-6.85v7.07h2.82Z"/><path class="cls-2" d="M275.39,1748.42a7.07,7.07,0,0,1-5.95,3,6.62,6.62,0,0,1-4.61-1.86,7.61,7.61,0,0,1-2.43-5.82,7.92,7.92,0,0,1,1.82-5.19,6.59,6.59,0,0,1,5.22-2.49,6.5,6.5,0,0,1,4.58,1.85,7.59,7.59,0,0,1,2.46,5.83V1745H265.09a5.46,5.46,0,0,0,.77,1.79,4.11,4.11,0,0,0,3.58,2,4.71,4.71,0,0,0,3.9-2Zm-1.47-6a3.39,3.39,0,0,0-.86-2,4.54,4.54,0,0,0-3.62-1.82,4,4,0,0,0-1.89.48,4.73,4.73,0,0,0-2.46,3.36Z"/><path class="cls-2" d="M287.9,1740.51a1.32,1.32,0,0,0-.35-.89,3.1,3.1,0,0,0-2.56-1,4.47,4.47,0,0,0-1.31.19c-1.07.34-1.6.9-1.6,1.69a.86.86,0,0,0,.19.52,7.61,7.61,0,0,0,3,1.31c1.06.32,1.85.59,2.36.8q3.39,1.38,3.36,3.84a3.75,3.75,0,0,1-1,2.43,6.22,6.22,0,0,1-5,2,7.16,7.16,0,0,1-4-1.12A4,4,0,0,1,279,1747h2.56a1.3,1.3,0,0,0,.38.89,3.87,3.87,0,0,0,3,1,5.72,5.72,0,0,0,1.47-.2c1.28-.32,1.92-.88,1.92-1.69a.88.88,0,0,0-.16-.48,7.38,7.38,0,0,0-2.91-1.28c-1-.32-1.83-.59-2.37-.8q-3.39-1.38-3.42-3.91a3.94,3.94,0,0,1,1-2.52,5.55,5.55,0,0,1,4.51-1.92,6.11,6.11,0,0,1,3.55,1,4,4,0,0,1,1.92,3.39Z"/><path class="cls-2" d="M306.5,1748.42a7.09,7.09,0,0,1-6,3,6.59,6.59,0,0,1-4.6-1.86,7.59,7.59,0,0,1-2.44-5.82,7.87,7.87,0,0,1,1.83-5.19,6.57,6.57,0,0,1,5.21-2.49,6.48,6.48,0,0,1,4.58,1.85,7.59,7.59,0,0,1,2.46,5.83V1745H296.19a5.68,5.68,0,0,0,.77,1.79,4.12,4.12,0,0,0,3.58,2,4.74,4.74,0,0,0,3.91-2Zm-1.48-6a3.33,3.33,0,0,0-.86-2,4.53,4.53,0,0,0-3.62-1.82,3.89,3.89,0,0,0-1.88.48,4.74,4.74,0,0,0-2.47,3.36Z"/><path class="cls-2" d="M312,1738.53a6.6,6.6,0,0,1,9.63-.7v-1.76h2.56v15.36h-2.56v-1.76a6.74,6.74,0,0,1-4.48,1.76,6.49,6.49,0,0,1-4.57-1.86,7.54,7.54,0,0,1-2.47-5.82A7.76,7.76,0,0,1,312,1738.53Zm1.6,8.32a4.11,4.11,0,0,0,3.55,2,4,4,0,0,0,2.69-1,5.15,5.15,0,0,0,1.79-4.09,5.61,5.61,0,0,0-.92-3.11,4.11,4.11,0,0,0-3.56-2,4,4,0,0,0-2.68,1,5.18,5.18,0,0,0-1.8,4.1A5.51,5.51,0,0,0,313.63,1746.85Z"/><path class="cls-2" d="M336,1736.07h1.28v2.56H336a3.91,3.91,0,0,0-1.92.48q-2.15,1.19-2.18,4.44v7.88h-2.56v-15.36h2.56v1.34A6.67,6.67,0,0,1,336,1736.07Z"/><path class="cls-2" d="M351.42,1748.48a6.64,6.64,0,0,1-5.66,3,6.33,6.33,0,0,1-4.45-1.83,7.64,7.64,0,0,1-2.43-5.85,8,8,0,0,1,1.82-5.22,6.34,6.34,0,0,1,5.06-2.46,6.66,6.66,0,0,1,5.7,2.75l-2.12,1.47a4.08,4.08,0,0,0-3.58-1.66,3.72,3.72,0,0,0-2.59,1,5.16,5.16,0,0,0-1.73,4.1,5.81,5.81,0,0,0,.83,3,3.94,3.94,0,0,0,3.49,2.08,4.54,4.54,0,0,0,3.62-1.86Z"/><path class="cls-2" d="M361.6,1736.07a5.59,5.59,0,0,1,3.81,1.47,6.47,6.47,0,0,1,2.27,5.15v7.46l0,1.31h-2.53l0-1.28,0-7.49a4.47,4.47,0,0,0-.61-2.3,3.23,3.23,0,0,0-2.91-1.76,3.09,3.09,0,0,0-2,.7,4,4,0,0,0-1.54,3.36v8.74h-2.56v-21h2.56v6.85A5.83,5.83,0,0,1,361.6,1736.07Z"/><path class="cls-2" d="M257,2492.54a5.73,5.73,0,0,1,.74,8.41,6.36,6.36,0,0,1-5,2.24H243.2v-10.88l0-9.56v-1.28h1.28l7,0a6.73,6.73,0,0,1,4.35,1.54,5.73,5.73,0,0,1,2.21,4.54,5.9,5.9,0,0,1-2.05,4.39A7,7,0,0,1,257,2492.54Zm-5.47-1.51a4.26,4.26,0,0,0,2.27-.64,3.23,3.23,0,0,0,1.73-2.88,3.18,3.18,0,0,0-.74-2,4,4,0,0,0-3.26-1.51h-5.73v7.08Zm-5.7,9.64,6.88,0a4.12,4.12,0,0,0,2.24-.65,3.25,3.25,0,0,0,1-4.89,3.94,3.94,0,0,0-3.27-1.51h-6.88Z"/><path class="cls-2" d="M269.7,2487.83H271v2.56H269.7a3.85,3.85,0,0,0-1.92.48c-1.43.79-2.16,2.28-2.18,4.45v7.87H263v-15.36h2.56v1.35A6.68,6.68,0,0,1,269.7,2487.83Z"/><path class="cls-2" d="M274.46,2490.3a6.51,6.51,0,0,1,5.16-2.47,6.61,6.61,0,0,1,4.48,1.76v-1.76h2.56v15.36H284.1v-1.76a6.68,6.68,0,0,1-4.48,1.76,6.48,6.48,0,0,1-4.58-1.85,7.59,7.59,0,0,1-2.46-5.83A7.8,7.8,0,0,1,274.46,2490.3Zm1.6,8.32a4.12,4.12,0,0,0,3.56,2,4,4,0,0,0,2.68-1,5.17,5.17,0,0,0,1.8-4.1,5.51,5.51,0,0,0-.93-3.1,4.11,4.11,0,0,0-3.55-2,4,4,0,0,0-2.69,1,5.15,5.15,0,0,0-1.79,4.09A5.58,5.58,0,0,0,276.06,2498.62Z"/><path class="cls-2" d="M304,2503.23h-2.53l0-1.28,0-7.49a4.64,4.64,0,0,0-.61-2.31,3.27,3.27,0,0,0-2.91-1.76,3.15,3.15,0,0,0-2,.71,4.05,4.05,0,0,0-1.53,3.36v8.73h-2.56v-15.36h2.56v1.22a5.89,5.89,0,0,1,3.52-1.22,5.56,5.56,0,0,1,3.8,1.48,6.45,6.45,0,0,1,2.28,5.15v7.45Z"/><path class="cls-2" d="M309.66,2490.3a6.51,6.51,0,0,1,5.16-2.47,6.61,6.61,0,0,1,4.48,1.76v-9.44h2.56v23H319.3v-1.76a6.68,6.68,0,0,1-4.48,1.76,6.48,6.48,0,0,1-4.58-1.85,7.59,7.59,0,0,1-2.46-5.83A7.8,7.8,0,0,1,309.66,2490.3Zm1.6,8.32a4.12,4.12,0,0,0,3.56,2,4,4,0,0,0,2.68-1,5.17,5.17,0,0,0,1.8-4.1,5.51,5.51,0,0,0-.93-3.1,4.11,4.11,0,0,0-3.55-2,4,4,0,0,0-2.69,1,5.15,5.15,0,0,0-1.79,4.09A5.58,5.58,0,0,0,311.26,2498.62Z"/><path class="cls-2" d="M259,2537a8.64,8.64,0,0,1-1.86,2.17,9.6,9.6,0,0,1-6.33,2.43,8.83,8.83,0,0,1-6.63-3,11.9,11.9,0,0,1,0-15.71,8.64,8.64,0,0,1,6.59-3,9.44,9.44,0,0,1,4.25,1.06,8.61,8.61,0,0,1,3.91,3.65l-2.31,1.15a5.25,5.25,0,0,0-1.18-1.5,6.88,6.88,0,0,0-4.67-1.8,6.48,6.48,0,0,0-4.71,2.15,8.78,8.78,0,0,0-2.3,6.18,9.09,9.09,0,0,0,1.82,5.59,6.3,6.3,0,0,0,5.19,2.73,6.84,6.84,0,0,0,2.62-.55,6.51,6.51,0,0,0,3.33-2.78Z"/><path class="cls-2" d="M263.65,2528.7a6.59,6.59,0,0,1,9.73-.61,7.59,7.59,0,0,1,2.46,5.83,7.76,7.76,0,0,1-1.89,5.21,6.61,6.61,0,0,1-9.73.61,7.58,7.58,0,0,1-2.46-5.82A7.76,7.76,0,0,1,263.65,2528.7Zm1.6,8.32a4.1,4.1,0,0,0,3.55,2,4,4,0,0,0,2.69-1,5.18,5.18,0,0,0,1.79-4.09,5.51,5.51,0,0,0-.93-3.11,4.09,4.09,0,0,0-3.55-2,4,4,0,0,0-2.69,1,5.19,5.19,0,0,0-1.79,4.1A5.51,5.51,0,0,0,265.25,2537Z"/><path class="cls-2" d="M291.87,2541.63h-2.53l0-1.28,0-7.49a4.54,4.54,0,0,0-.61-2.31,3.24,3.24,0,0,0-2.91-1.75,3.09,3.09,0,0,0-2,.7,4,4,0,0,0-1.54,3.36v8.73h-2.56v-15.36h2.56v1.22a5.91,5.91,0,0,1,3.52-1.22,5.6,5.6,0,0,1,3.81,1.48,6.47,6.47,0,0,1,2.27,5.15v7.45Z"/><path class="cls-2" d="M308.22,2538.65a6.61,6.61,0,0,1-5.66,2.94,6.32,6.32,0,0,1-4.45-1.82,7.65,7.65,0,0,1-2.43-5.85,8,8,0,0,1,1.82-5.22,6.35,6.35,0,0,1,5.06-2.47,6.67,6.67,0,0,1,5.7,2.76l-2.12,1.47a4.08,4.08,0,0,0-3.58-1.66,3.72,3.72,0,0,0-2.59,1,5.16,5.16,0,0,0-1.73,4.1,5.84,5.84,0,0,0,.83,3,3.94,3.94,0,0,0,3.49,2.08,4.57,4.57,0,0,0,3.62-1.86Z"/><path class="cls-2" d="M324,2538.59a7.06,7.06,0,0,1-5.95,3,6.61,6.61,0,0,1-4.61-1.85,7.63,7.63,0,0,1-2.43-5.82,7.92,7.92,0,0,1,1.82-5.19,6.6,6.6,0,0,1,5.22-2.5,6.51,6.51,0,0,1,4.58,1.86,7.59,7.59,0,0,1,2.46,5.83v1.27H313.73a5.42,5.42,0,0,0,.77,1.8,4.11,4.11,0,0,0,3.58,2.05,4.73,4.73,0,0,0,3.9-2Zm-1.47-6a3.37,3.37,0,0,0-.86-2,4.54,4.54,0,0,0-3.62-1.82,4,4,0,0,0-1.89.47,4.77,4.77,0,0,0-2.46,3.37Z"/><path class="cls-2" d="M329,2527.51v-1.28h2.56V2528a6.56,6.56,0,0,1,4.51-1.76,6.48,6.48,0,0,1,4.55,1.86,7.59,7.59,0,0,1,2.46,5.83,7.76,7.76,0,0,1-1.89,5.21,6.48,6.48,0,0,1-5.15,2.46,6.58,6.58,0,0,1-4.48-1.75v8.35H329v-20.68Zm3.49,9.51a4.1,4.1,0,0,0,3.55,2,4,4,0,0,0,2.69-1,5.18,5.18,0,0,0,1.79-4.09,5.51,5.51,0,0,0-.93-3.11,4.07,4.07,0,0,0-3.52-2,4.16,4.16,0,0,0-2.69,1,5.39,5.39,0,0,0-1.82,4.13A5.51,5.51,0,0,0,332.45,2537Z"/><path class="cls-2" d="M349.66,2537.08c0,1.26.8,1.91,2.34,2h1.28v2.55H352a7.2,7.2,0,0,1-1.7-.19q-3.19-.74-3.2-4.29v-8.31H345v-2.57h2.14v-3.36l0-1.24h2.59l0,1.28v3.32h3.58v2.57H349.7Z"/><path class="cls-2" d="M243.2,4195.19h2.56v19.2H256V4217H243.2v-21.76Z"/><path class="cls-2" d="M259.81,4204.06a6.59,6.59,0,0,1,9.73-.61,7.56,7.56,0,0,1,2.46,5.82,7.76,7.76,0,0,1-1.89,5.22,6.61,6.61,0,0,1-9.73.61,7.59,7.59,0,0,1-2.46-5.83A7.76,7.76,0,0,1,259.81,4204.06Zm1.6,8.32a4.09,4.09,0,0,0,3.55,2,4,4,0,0,0,2.69-1,5.2,5.2,0,0,0,1.79-4.1,5.51,5.51,0,0,0-.93-3.1,4.08,4.08,0,0,0-3.55-2,4,4,0,0,0-2.69,1,5.18,5.18,0,0,0-1.79,4.09A5.54,5.54,0,0,0,261.41,4212.38Z"/><path class="cls-2" d="M276.45,4204.06a6.45,6.45,0,0,1,5.15-2.47,6.59,6.59,0,0,1,4.48,1.76v-.48l0-1.25h2.59l0,1.28,0,12.77a7.51,7.51,0,0,1-.32,2.11,9,9,0,0,1-.94,2.12,10.1,10.1,0,0,1-1.46,1.84,6.75,6.75,0,0,1-1.95,1.31,5.75,5.75,0,0,1-2.34.49h-1.28V4221h1.28a4,4,0,0,0,3-1.56,5.65,5.65,0,0,0,1.41-3.75v-.48a6.71,6.71,0,0,1-4.48,1.76,6.54,6.54,0,0,1-4.58-1.85,7.59,7.59,0,0,1-2.46-5.83A7.76,7.76,0,0,1,276.45,4204.06Zm1.6,8.32a4.09,4.09,0,0,0,3.55,2,4,4,0,0,0,2.69-1,5.2,5.2,0,0,0,1.79-4.1,5.51,5.51,0,0,0-.93-3.1,4.08,4.08,0,0,0-3.55-2,4,4,0,0,0-2.69,1,5.18,5.18,0,0,0-1.79,4.09A5.54,5.54,0,0,0,278.05,4212.38Z"/><path class="cls-2" d="M294.37,4204.06a6.59,6.59,0,0,1,9.73-.61,7.56,7.56,0,0,1,2.46,5.82,7.76,7.76,0,0,1-1.89,5.22,6.61,6.61,0,0,1-9.73.61,7.59,7.59,0,0,1-2.46-5.83A7.76,7.76,0,0,1,294.37,4204.06Zm1.6,8.32a4.09,4.09,0,0,0,3.55,2,4,4,0,0,0,2.69-1,5.2,5.2,0,0,0,1.79-4.1,5.51,5.51,0,0,0-.93-3.1,4.08,4.08,0,0,0-3.55-2,4,4,0,0,0-2.69,1,5.18,5.18,0,0,0-1.79,4.09A5.54,5.54,0,0,0,296,4212.38Z"/><path class="cls-2" d="M243.2,4255.35v-21.76h8.45a8.57,8.57,0,0,1,6,3.3,10.13,10.13,0,0,1,2.24,7.58,10.52,10.52,0,0,1-2.14,7.49,8.44,8.44,0,0,1-6,3.39H243.2Zm8.26-2.56a5.77,5.77,0,0,0,4.06-2.27,8.16,8.16,0,0,0,1.76-6.05v-.09a8.48,8.48,0,0,0-1.28-5.32,5.84,5.84,0,0,0-4.54-2.91h-5.7v16.64Z"/><path class="cls-2" d="M276,4252.34a7,7,0,0,1-5.95,3,6.65,6.65,0,0,1-4.61-1.85,7.64,7.64,0,0,1-2.43-5.83,7.91,7.91,0,0,1,1.82-5.18,6.64,6.64,0,0,1,9.8-.64,7.56,7.56,0,0,1,2.46,5.82V4249H265.73a5.37,5.37,0,0,0,.77,1.79,4.09,4.09,0,0,0,3.58,2.05,4.72,4.72,0,0,0,3.9-2Zm-1.47-5.95a3.34,3.34,0,0,0-.86-2,4.55,4.55,0,0,0-3.62-1.83,4,4,0,0,0-1.89.48,4.73,4.73,0,0,0-2.46,3.36Z"/><path class="cls-2" d="M288.54,4244.44a1.35,1.35,0,0,0-.35-.9,3.09,3.09,0,0,0-2.56-1,4.82,4.82,0,0,0-1.31.19c-1.07.35-1.6.91-1.6,1.7a.83.83,0,0,0,.19.51,7.46,7.46,0,0,0,2.95,1.31c1.06.32,1.85.59,2.36.8q3.39,1.38,3.36,3.84a3.76,3.76,0,0,1-1,2.44,6.21,6.21,0,0,1-5,2,7.08,7.08,0,0,1-4-1.12,3.94,3.94,0,0,1-1.95-3.33h2.56a1.34,1.34,0,0,0,.38.9,3.91,3.91,0,0,0,3,1,5.7,5.7,0,0,0,1.47-.19c1.28-.32,1.92-.88,1.92-1.7a.88.88,0,0,0-.16-.47,7.34,7.34,0,0,0-2.91-1.29c-1-.32-1.83-.58-2.37-.8q-3.39-1.36-3.42-3.9a3.94,3.94,0,0,1,1-2.53,5.55,5.55,0,0,1,4.51-1.92,6,6,0,0,1,3.55,1.06,4,4,0,0,1,1.92,3.39Z"/><path class="cls-2" d="M294.94,4238v-2.56h2.6V4238h-2.6Zm0,1.95h2.56v15.36h-2.56V4240Z"/><path class="cls-2" d="M302.43,4242.46a6.48,6.48,0,0,1,5.15-2.47,6.57,6.57,0,0,1,4.48,1.76v-.48l0-1.25h2.59l0,1.28,0,12.77a7.16,7.16,0,0,1-.32,2.11,8.65,8.65,0,0,1-.94,2.12,9.69,9.69,0,0,1-1.46,1.84,6.49,6.49,0,0,1-1.95,1.31,5.7,5.7,0,0,1-2.33.49h-1.28v-2.55h1.28a4.07,4.07,0,0,0,3-1.57,5.69,5.69,0,0,0,1.4-3.75v-.48a6.69,6.69,0,0,1-4.48,1.76,6.52,6.52,0,0,1-4.57-1.85,7.6,7.6,0,0,1-2.47-5.83A7.76,7.76,0,0,1,302.43,4242.46Zm1.6,8.32a4.1,4.1,0,0,0,3.55,2,4,4,0,0,0,2.69-1,5.17,5.17,0,0,0,1.79-4.1,5.58,5.58,0,0,0-.92-3.1,4.1,4.1,0,0,0-3.56-2,3.94,3.94,0,0,0-2.68,1,5.16,5.16,0,0,0-1.8,4.09A5.54,5.54,0,0,0,304,4250.78Z"/><path class="cls-2" d="M331.94,4255.39h-2.53l0-1.29,0-7.48a4.6,4.6,0,0,0-.6-2.31,3.27,3.27,0,0,0-2.92-1.76,3.14,3.14,0,0,0-2,.71,4.06,4.06,0,0,0-1.54,3.36v8.73h-2.56V4240h2.56v1.22a5.87,5.87,0,0,1,3.52-1.22,5.56,5.56,0,0,1,3.81,1.48,6.43,6.43,0,0,1,2.27,5.15v7.45Z"/><path class="cls-2" d="M253.5,3508.41a2.93,2.93,0,0,0-.8-2,4.81,4.81,0,0,0-3.74-1.5,5.43,5.43,0,0,0-2.59.64,3.15,3.15,0,0,0-2,2.88,1.59,1.59,0,0,0,.16.67c.36.7,1.56,1.45,3.61,2.24q3.81,1.5,4.58,1.86,3.87,2,3.87,4.83a5.42,5.42,0,0,1-1.73,3.77,8.11,8.11,0,0,1-5.95,2.31,8.61,8.61,0,0,1-5.41-1.76,5.43,5.43,0,0,1-2.27-4.32h2.56a2.94,2.94,0,0,0,1,2,5.8,5.8,0,0,0,4.16,1.48,6.7,6.7,0,0,0,3-.71,3.16,3.16,0,0,0,2.08-2.81,1.46,1.46,0,0,0-.19-.71c-.36-.72-1.58-1.49-3.65-2.3q-3.78-1.47-4.51-1.82c-2.58-1.29-3.87-2.87-3.87-4.77a5.51,5.51,0,0,1,1.53-3.78,7.19,7.19,0,0,1,5.57-2.3,7.57,7.57,0,0,1,4.8,1.6,5.5,5.5,0,0,1,2.3,4.48Z"/><path class="cls-2" d="M260.48,3501.05H263v23h-2.56v-23Z"/><path class="cls-2" d="M267.26,3511.19a6.61,6.61,0,0,1,9.73-.61,7.6,7.6,0,0,1,2.47,5.83,7.76,7.76,0,0,1-1.89,5.21,6.59,6.59,0,0,1-9.73.61,7.57,7.57,0,0,1-2.46-5.82A7.8,7.8,0,0,1,267.26,3511.19Zm1.6,8.32a4.12,4.12,0,0,0,3.56,2,4,4,0,0,0,2.68-1,5.16,5.16,0,0,0,1.8-4.09,5.54,5.54,0,0,0-.93-3.11,4.1,4.1,0,0,0-3.55-2,4,4,0,0,0-2.69,1,5.17,5.17,0,0,0-1.79,4.1A5.5,5.5,0,0,0,268.86,3519.51Z"/><path class="cls-2" d="M283.9,3511.19a6.61,6.61,0,0,1,9.64-.7V3510l0-1.25h2.59l0,1.28,0,12.77a7.62,7.62,0,0,1-.32,2.11,9,9,0,0,1-.95,2.11,9.34,9.34,0,0,1-1.45,1.84,6.47,6.47,0,0,1-2,1.31,5.67,5.67,0,0,1-2.33.5h-1.28v-2.56h1.28a4,4,0,0,0,3-1.57,5.64,5.64,0,0,0,1.41-3.74v-.48a6.73,6.73,0,0,1-4.48,1.76,6.49,6.49,0,0,1-4.58-1.86,7.57,7.57,0,0,1-2.46-5.82A7.75,7.75,0,0,1,283.9,3511.19Zm1.6,8.32a4.12,4.12,0,0,0,3.56,2,4,4,0,0,0,2.68-1,5.16,5.16,0,0,0,1.8-4.09,5.54,5.54,0,0,0-.93-3.11,4.1,4.1,0,0,0-3.55-2,4,4,0,0,0-2.69,1,5.17,5.17,0,0,0-1.79,4.1A5.5,5.5,0,0,0,285.5,3519.51Z"/><path class="cls-2" d="M301.82,3511.19a6.61,6.61,0,0,1,9.64-.7v-1.76H314v15.36h-2.56v-1.76a6.73,6.73,0,0,1-4.48,1.76,6.49,6.49,0,0,1-4.58-1.86,7.57,7.57,0,0,1-2.46-5.82A7.8,7.8,0,0,1,301.82,3511.19Zm1.6,8.32a4.12,4.12,0,0,0,3.56,2,4,4,0,0,0,2.68-1,5.16,5.16,0,0,0,1.8-4.09,5.54,5.54,0,0,0-.93-3.11,4.1,4.1,0,0,0-3.55-2,4,4,0,0,0-2.69,1,5.17,5.17,0,0,0-1.79,4.1A5.58,5.58,0,0,0,303.42,3519.51Z"/><path class="cls-2" d="M331.33,3524.12H328.8l0-1.28,0-7.49a4.57,4.57,0,0,0-.61-2.3,3.25,3.25,0,0,0-2.91-1.76,3.14,3.14,0,0,0-2,.7,4.05,4.05,0,0,0-1.53,3.36v8.74h-2.56v-15.36h2.56v1.21a5.81,5.81,0,0,1,3.52-1.21,5.57,5.57,0,0,1,3.8,1.47,6.45,6.45,0,0,1,2.28,5.15v7.46Z"/></g></g></svg>