<?xml version="1.0" encoding="utf-8"?>
<!-- Generator: Adobe Illustrator 26.0.2, SVG Export Plug-In . SVG Version: 6.00 Build 0)  -->
<svg version="1.1" id="레이어_1" xmlns="http://www.w3.org/2000/svg" xmlns:xlink="http://www.w3.org/1999/xlink" x="0px"
	 y="0px" viewBox="0 0 1993 1052" style="enable-background:new 0 0 1993 1052;" xml:space="preserve">
<style type="text/css">
	.st0{opacity:0;fill:#FFFFFF;}
	.st1{fill:#FFFFFF;}
	.st2{opacity:0.2;}
	.st3{opacity:0.6;}
</style>
<rect x="0" class="st0" width="1993" height="1052"/>
<path class="st1" d="M694.9,258.6v-4.9H709v-2h-14.1v-1.4h15.6v4.9h-14l0,2h14.7v1.4H694.9z M709,249.5v-9.8h1.5v4l3,0v1.4h-3v4.4
	H709z M694.3,248.5v-8.2h12v1.4h-10.5v5.3h4.5c0.3,0,0.7,0,1,0c2.1,0,4.1-0.3,6.1-1l0.4-0.1v1.5l-0.2,0.1c-1.4,0.6-4.1,1-7.4,1
	H694.3z"/>
<path class="st1" d="M700.2,248.2h-5.6v-7.6H706v0.9h-10.5v5.9h4.8c2.4,0.1,4.9-0.2,7.2-1v0.9C706.2,247.8,703.6,248.2,700.2,248.2z
	 M696.2,257.4h14.7v0.9h-15.7V254h14.1v-2.6h-14.1v-0.9h15v4.3h-14L696.2,257.4z M713.2,244v0.9h-3v4.4h-0.9v-9.3h0.9v4L713.2,244z"
	/>
<path class="st1" d="M716.1,258.6v-5.7h1.5l0,4.3h15.1v1.4H716.1z M714.6,251.3v-1.4h19.1v1.4H714.6z M724.1,248.1
	c-3.9,0-8.4-1.1-8.4-4.2s4.5-4.2,8.4-4.2c3.9,0,8.4,1.1,8.4,4.2c0,0,0,0,0,0C732.5,247,728,248.1,724.1,248.1z M724.2,241.1
	c-3.4,0-6.9,1-6.9,2.8c0,1.8,3.5,2.8,6.9,2.8c3.4,0,6.9-1,6.9-2.8S727.6,241.1,724.2,241.1z"/>
<path class="st1" d="M733.4,251h-18.6v-0.9h18.6V251z M732.2,243.9c0,2.7-3.9,3.9-8.1,3.9s-8.1-1.3-8.1-3.9s3.9-3.9,8.1-3.9
	S732.2,241.2,732.2,243.9L732.2,243.9z M717.2,257.4h15.1v0.9h-16v-5.1h0.9L717.2,257.4z M717,243.9c0,2,3.5,3.1,7.2,3.1
	s7.2-1.1,7.2-3.1s-3.5-3.1-7.2-3.1S717,241.9,717,243.9z"/>
<path class="st1" d="M743.4,258.6v-7h15.6v7H743.4z M757.4,257.2V253h-12.5l-0.1,4.2H757.4z M757.4,250.8v-11.2h1.5v4.6h3v1.5h-3
	v5.1H757.4z M742.8,249.6v-9.5h1.5v3.4h8.2v-3.4h1.5l0,9.5H742.8z M752.4,248.2v-3.3h-8.1v3.3H752.4z"/>
<path class="st1" d="M753.6,249.3H743v-8.9h1v3.4h8.7v-3.4h0.9L753.6,249.3z M743.6,251.8h15v6.5h-15V251.8z M752.6,248.5v-3.9H744
	v3.9L752.6,248.5z M744.5,257.5h13.2v-4.8h-13.1L744.5,257.5z M761.6,245.4h-3v5.1h-0.9v-10.6h0.9v4.6h3V245.4z"/>
<path class="st1" d="M784.8,259v-19.3h1.5v8.2h3v1.4h-3v9.7H784.8z M776.1,257.9c-3.1,0-5.3-2.5-5.3-5.9c0-3.4,2.2-5.9,5.3-5.9
	c3.1,0,5.3,2.5,5.3,5.9c0,0,0,0,0,0C781.3,255.4,779.1,257.9,776.1,257.9z M776,247.5c-1.9,0-3.8,1.6-3.8,4.5c0,3,1.9,4.5,3.8,4.5
	c1.9,0,3.8-1.5,3.8-4.5C779.8,249,777.9,247.5,776,247.5z M769.7,244.5v-1.4h5.6v-3.5h1.5l0,3.5h5.6v1.4H769.7z"/>
<path class="st1" d="M776.5,243.4h5.6v0.9H770v-0.9h5.6v-3.5h0.9L776.5,243.4z M781.1,252c0,3.5-2.3,5.7-5,5.7s-5-2.2-5-5.7
	s2.3-5.6,5-5.6S781.1,248.5,781.1,252L781.1,252z M780.1,252c0-2.9-1.9-4.8-4.1-4.8s-4.1,1.9-4.1,4.8s1.9,4.8,4.1,4.8
	S780.1,254.9,780.1,252L780.1,252z M789,249h-3v9.7h-0.9v-18.8h0.9v8.2h3V249z"/>
<path class="st1" d="M791.8,258.6V254h14.8v-1.6h-14.8V251h16.3v4.5h-14.8v1.7h15.2v1.4H791.8z M790.4,249.3v-1.4h19.1v1.4H790.4z
	 M791.9,246.1v-6.4h1.5v5h14.9v1.4H791.9z"/>
<path class="st1" d="M809.2,249h-18.6v-0.9h18.6V249z M807.8,255.1H793v2.3h15.2v0.8h-16.1v-4h14.8v-2.2h-14.8v-0.8h15.7V255.1z
	 M793.1,245H808v0.9h-15.8V240h0.9V245z"/>
<path class="st1" d="M813,258.6v-4.5h14.7v-1.6h-14.8v-1.4h16.3v4.4h-14.8v1.7h15.2v1.4H813z M811.5,249.4V248h19.1v1.4H811.5z
	 M821.1,246.9c-5.3,0-8.3-1.3-8.3-3.6c0-2.3,3-3.6,8.3-3.6c5.2,0,8.3,1.3,8.3,3.6C829.4,245.6,826.4,246.9,821.1,246.9z
	 M821.1,241.2c-4.2,0-6.8,0.8-6.8,2.2c0,1.3,2.6,2.2,6.8,2.2c4.2,0,6.8-0.8,6.8-2.2C827.9,242,825.2,241.2,821.1,241.2z"/>
<path class="st1" d="M830.4,249.1h-18.6v-0.8h18.6V249.1z M829.1,243.3c0,2.4-3.8,3.3-8,3.3s-8-0.9-8-3.3s3.8-3.3,8-3.3
	S829.1,241,829.1,243.3L829.1,243.3z M829,255.2h-14.8v2.2h15.2v0.8h-16.1v-3.9H828v-2.2h-14.8v-0.8H829V255.2z M814,243.4
	c0,1.8,3.4,2.4,7.1,2.4s7.1-0.7,7.1-2.4s-3.4-2.4-7.1-2.4S814,241.6,814,243.4z"/>
<path class="st1" d="M855,259.1v-19.4l1.5,0.1v19.3H855z M840.2,257.7v-17.4h1.5v7.2h7.8v-7.2h1.5v17.4H840.2z M849.5,256.3V249
	h-7.8v7.3H849.5z"/>
<path class="st1" d="M849.8,240.6h0.9v16.8h-10.2v-16.8h0.9v7.2h8.4V240.6z M849.8,256.6v-7.9h-8.4v7.9H849.8z M856.2,240v18.8h-0.9
	v-18.8L856.2,240z"/>
<path class="st1" d="M868.8,259.5v-6H860v-1.4h19.1l0.1,1.4h-8.9v6H868.8z M860.6,248.9l0.3,0c4.2-0.4,7.2-2.6,7.9-5.7h-7.6v-1.4
	h7.6v-2.5h1.5v2.5h7.8v1.4h-7.7c-0.1,0.6-0.3,1.2-0.6,1.8l8.8,3.8l-0.7,1.3l-8.8-3.9c-1.6,2.3-4.5,3.7-8.1,4l-0.3,0V248.9z"/>
<path class="st1" d="M878.9,253.2H870v6h-0.9v-6h-8.8v-0.9h18.6L878.9,253.2z M860.9,250v-0.9c4.8-0.5,7.7-3.1,8.3-6.3h-7.7V242h7.6
	v-2.5h0.9v2.5h7.8v0.9h-7.7c-0.1,0.8-0.4,1.6-0.7,2.3l8.8,3.8l-0.4,0.8l-8.8-3.9C867.5,248.1,864.7,249.6,860.9,250L860.9,250z"/>
<path class="st1" d="M882.7,258.6v-6h1.5l0,4.6h15.1v1.4H882.7z M881.2,251v-1.4h19.1v1.4H881.2z M882.7,247.3v-7.6h1.5l0,6.1H899
	v1.4H882.7z"/>
<path class="st1" d="M900,250.7h-18.6v-0.9H900V250.7z M883.9,257.5H899v0.9h-16v-5.4h0.9L883.9,257.5z M883.9,246.1h14.8v0.9H883
	v-7h0.9L883.9,246.1z"/>
<path class="st1" d="M924.6,259v-19.4h1.5V259H924.6z M909,256.3l0.2-0.1c3.4-0.8,5.6-6.3,5.7-14.3h-5.6v-1.4h12.6v1.4h-5.5
	c0,2.2-0.2,4.5-0.6,6.7l6.8,8.1l-1.2,0.9l-6-7.2c-1.2,4.2-3.3,6.8-6.1,7.4l-0.3,0.1V256.3z"/>
<path class="st1" d="M915.5,248.7l6.7,8l-0.7,0.5l-6.2-7.5c-1.1,4.4-3.2,7.1-6,7.7v-0.9c3.8-0.9,5.9-7.1,5.9-14.9h-5.6v-0.9h12v0.9
	h-5.5C916.2,244,916,246.4,915.5,248.7z M925.9,239.9v18.8h-0.9v-18.8H925.9z"/>
<path class="st1" d="M938.4,259.5V252h-8.7v-1.5h19.1l-0.1,1.5h-8.9v7.4H938.4z M945.8,249.2l0-7.4h-14.7v-1.4h16.2v8.9H945.8z"/>
<path class="st1" d="M948.5,251.8h-8.9v7.4h-0.9v-7.4H930v-0.9h18.6L948.5,251.8z M946.1,241.4h-14.7v-0.9H947v8.3h-0.9L946.1,241.4
	z"/>
<path class="st1" d="M965.8,259.5v-6.1H957v-1.4h19.1l0,1.4h-8.9v6.1H965.8z M957.6,248.5l0.3,0c4.4-0.5,7.5-3.1,8.2-6.7h-7.9v-1.4
	H975v1.4h-7.5c-0.1,0.8-0.4,1.6-0.7,2.4l8.8,4.4l-0.8,1.3l-8.8-4.4c-2,2.6-4.9,4.2-8.2,4.5l-0.3,0V248.5z"/>
<path class="st1" d="M975.9,253.1H967v6.1h-0.9v-6.1h-8.8v-0.9h18.6L975.9,253.1z M957.9,249.6v-0.9c4.5-0.5,7.9-3.2,8.5-7.2h-7.9
	v-0.9h16.3v0.9h-7.5c-0.1,1-0.4,1.9-0.9,2.8l8.8,4.4l-0.5,0.8l-8.8-4.4C964.1,247.7,961.1,249.4,957.9,249.6L957.9,249.6z"/>
<path class="st1" d="M994.4,259.1v-19.4l1.5,0.1v19.3H994.4z M984.1,259v-5.7h-5.9v-1.4h7.3c0.4,0,0.8,0,1.1,0c0,0,0,0,0,0
	c2,0,4-0.3,6-0.8l0.4-0.1v1.5l-0.2,0.1c-2,0.5-4.1,0.8-6.2,0.8c-0.3,0-0.6,0-0.9,0v5.7H984.1z M984.9,250.1c-3.3,0-5.7-2.1-5.7-5
	l0,0c0-2.9,2.4-4.9,5.7-4.9c3.3,0,5.7,2.1,5.7,5C990.6,248.1,988.2,250.1,984.9,250.1z M984.9,241.6c-2.5,0-4.2,1.4-4.2,3.5
	c0,2.2,1.7,3.6,4.2,3.6c2.5,0,4.2-1.5,4.2-3.5C989.1,243.1,987.3,241.6,984.9,241.6z"/>
<path class="st1" d="M985.5,252.1c2.4,0.1,4.9-0.1,7.2-0.8v0.9c-2.3,0.6-4.7,0.9-7.1,0.8h-0.2v5.7h-0.9V253h-5.9v-0.9H985.5z
	 M979.5,245.1c0-2.8,2.2-4.7,5.4-4.7s5.4,1.9,5.4,4.7s-2.2,4.7-5.4,4.7S979.4,247.9,979.5,245.1L979.5,245.1z M980.4,245.1
	c0,2.2,1.8,3.8,4.5,3.8s4.5-1.6,4.5-3.8s-1.8-3.8-4.5-3.8S980.4,242.9,980.4,245.1L980.4,245.1z M995.6,240v18.8h-0.9v-18.8
	L995.6,240z"/>
<path class="st1" d="M1000.8,258.6v-4.2h14.8v-1.4h-14.9v-1.4h16.3l0,4.2h-14.8v1.5h15.2v1.4H1000.8z M999.3,250.1v-1.4h19.1v1.4
	H999.3z M1000.9,247.3V243h14.6v-1.5h-14.6v-1.4h16.1l0.1,4.3h-14.6v1.6h14.9v1.4H1000.9z"/>
<path class="st1" d="M1018.2,249.8h-18.6V249h18.6V249.8z M1016.8,255.4H1002v2.1h15.2v0.8h-16.1v-3.7h14.8v-2H1001v-0.8h15.7
	L1016.8,255.4z M1016.8,244h-14.6v2.1h14.9v0.8h-15.8v-3.8h14.6v-2.1h-14.6v-0.8h15.5L1016.8,244z"/>
<path class="st1" d="M1036.2,258.9c-4,0-8.3-1-8.3-3.7c0-2.7,4.3-3.7,8.3-3.7s8.3,1,8.3,3.7C1044.5,257.9,1040.2,258.9,1036.2,258.9
	z M1036.2,252.8c-3.1,0-6.8,0.6-6.8,2.3c0,1.7,3.7,2.3,6.8,2.3c3.3,0,6.8-0.8,6.8-2.3C1043,253.6,1039.6,252.8,1036.2,252.8z
	 M1026.7,249.6v-1.4h7.7v-4.4h1.5v4.4h9.9v1.4H1026.7z M1042.8,247l0-5.5H1028v-1.4h16.2v7H1042.8z"/>
<path class="st1" d="M1045.5,248.4v0.9h-18.6v-0.9h7.7v-4.4h0.9v4.4H1045.5z M1044.2,255.1c0,2.5-4,3.4-8,3.4s-8-1-8-3.4
	s4-3.4,8-3.4S1044.2,252.7,1044.2,255.1z M1043.1,241.2h-14.7v-0.9h15.7v6.4h-0.9L1043.1,241.2z M1043.3,255.1
	c0-1.8-3.8-2.6-7.1-2.6s-7.1,0.6-7.1,2.6s3.8,2.6,7.1,2.6S1043.3,256.9,1043.3,255.1L1043.3,255.1z"/>
<path class="st1" d="M1049.7,258.6v-6h1.5v4.6h14.9v1.4H1049.7z M1064.1,254.2v-8.4h-4.6v-1.4l4.6,0v-4.8h1.5v14.6H1064.1z
	 M1048.2,249.9l0.2,0c3.5-0.6,5.6-3.5,5.8-8.1h-5.8v-1.4h12.6v1.4h-5.3c0,1.1-0.2,2.2-0.5,3.3l6.3,5l-0.9,1.2l-5.9-4.7
	c-1.1,2.5-3.4,4.4-6.1,4.8l-0.3,0V249.9z"/>
<path class="st1" d="M1048.5,251v-0.9c3.7-0.7,5.9-3.7,6-8.6h-5.8v-0.9h12v0.9h-5.3c0,1.2-0.2,2.5-0.6,3.7l6.2,4.9l-0.5,0.7l-6-4.8
	C1053.6,248.7,1051.3,250.6,1048.5,251z M1065.9,257.4v0.9H1050v-5.5h0.9v4.6H1065.9z M1064.4,244.7v-4.8h0.9v14h-0.9v-8.4h-4.6
	v-0.8L1064.4,244.7z"/>
<path class="st1" d="M1084.6,259v-19.4h1.5v8.2h3v1.4h-3v9.7H1084.6z M1075.8,257.9c-3.1,0-5.3-2.5-5.3-5.9c0-3.4,2.2-5.9,5.3-5.9
	c3.1,0,5.3,2.5,5.3,5.9c0,0,0,0,0,0C1081.1,255.4,1078.9,257.9,1075.8,257.9z M1075.8,247.5c-1.9,0-3.8,1.6-3.8,4.5
	c0,3,1.9,4.5,3.8,4.5c2.2,0,3.8-1.9,3.8-4.5C1079.6,249,1077.7,247.5,1075.8,247.5z M1069.4,244.5v-1.4h5.6v-3.5h1.5v3.5h5.6v1.4
	H1069.4z"/>
<path class="st1" d="M1076.3,243.4h5.6v0.9h-12.2v-0.9h5.6v-3.5h0.9V243.4z M1080.8,252c0,3.5-2.3,5.7-5,5.7s-5-2.2-5-5.7
	s2.3-5.6,5-5.6S1080.8,248.5,1080.8,252L1080.8,252z M1079.9,252c0-2.9-1.9-4.8-4.1-4.8s-4.1,1.9-4.1,4.8s1.9,4.8,4.1,4.8
	S1079.9,254.9,1079.9,252L1079.9,252z M1088.8,249h-3v9.7h-0.9v-18.8h0.9v8.2h3V249z"/>
<path class="st1" d="M1091.7,258.6v-6h1.5l-0.1,4.6h15.1v1.4H1091.7z M1090.1,251v-1.4h19.1v1.4H1090.1z M1091.7,247.3v-7.6h1.5
	l0,6.1h14.8v1.4H1091.7z"/>
<path class="st1" d="M1109,250.7h-18.6v-0.9h18.6V250.7z M1092.8,257.5h15.2v0.9h-16v-5.4h0.9L1092.8,257.5z M1092.9,246.1h14.8v0.9
	H1092v-7h0.9L1092.9,246.1z"/>
<path class="st1" d="M1130,259.5v-6.1h-5.9v6.1h-1.5v-6.1h-5.1v-1.5h19.1v1.5h-5.2v6.1H1130z M1127,250.1c-5.3,0-8.4-1.9-8.4-5v0
	c0-3.1,3.1-5,8.4-5c5.3,0,8.4,1.9,8.4,5S1132.3,250.1,1127,250.1z M1127,241.5c-4.3,0-6.9,1.3-6.9,3.6c0,2.2,2.7,3.6,6.9,3.6
	c4.3,0,6.9-1.4,6.9-3.6C1133.9,242.8,1131.3,241.5,1127,241.5z"/>
<path class="st1" d="M1136.3,253.1h-5.2v6.1h-0.9v-6.1h-6.4v6.1h-0.9v-6.1h-5.2v-0.9h18.6L1136.3,253.1z M1118.9,245.1
	c0-3.1,3.3-4.8,8.1-4.8s8.1,1.6,8.1,4.8s-3.3,4.8-8.1,4.8S1118.9,248.2,1118.9,245.1L1118.9,245.1z M1119.8,245.1
	c0,2.5,2.9,3.9,7.2,3.9s7.2-1.4,7.2-3.9s-2.9-3.9-7.2-3.9S1119.8,242.5,1119.8,245.1L1119.8,245.1z"/>
<path class="st1" d="M1140.7,258.6v-4.9h14.1v-2h-14.1v-1.4h15.6l0,4.9h-14.1v2h14.7v1.4H1140.7z M1154.8,249.5v-9.8h1.5v9.8H1154.8
	z M1145.1,249c-3.5,0-5.9-1.8-5.9-4.5c0-2.7,2.4-4.5,5.9-4.5c3.5,0,5.9,1.8,5.9,4.5C1151,247.2,1148.7,249,1145.1,249z
	 M1145.1,241.4c-2.1,0-4.4,0.8-4.4,3.1s2.3,3.1,4.4,3.1s4.4-0.8,4.4-3.1S1147.3,241.4,1145.1,241.4z"/>
<path class="st1" d="M1150.8,244.5c0,2.4-2.1,4.2-5.6,4.2s-5.6-1.8-5.6-4.2s2.1-4.2,5.6-4.2S1150.8,242.1,1150.8,244.5z
	 M1140.4,244.5c0,2.2,2,3.4,4.7,3.4s4.7-1.2,4.7-3.4s-2-3.4-4.7-3.4S1140.4,242.3,1140.4,244.5z M1156,254.8h-14.1v2.6h14.7v0.9
	H1141V254h14.1v-2.6H1141v-0.9h15L1156,254.8z M1156,249.2h-0.9v-9.3h0.9V249.2z"/>
<path class="st1" d="M1161.3,258.6v-5.2h1.5v3.8h14.8v1.4H1161.3z M1175.4,254.4v-14.7h1.5v5.8l3,0v1.4h-3v7.5H1175.4z
	 M1166.5,252.4c-3.4,0-5.7-1.7-5.7-4.1v0c0-2.5,2.3-4.1,5.7-4.1c3.4,0,5.7,1.7,5.7,4.1S1169.9,252.4,1166.5,252.4z M1166.5,245.6
	c-2.5,0-4.2,1.1-4.2,2.7c0,1.6,1.7,2.7,4.2,2.7c2.5,0,4.2-1.1,4.2-2.7S1169,245.6,1166.5,245.6z M1159.8,243.3v-1.4h5.9v-2.5h1.5
	v2.5h5.9v1.4H1159.8z"/>
<path class="st1" d="M1172.8,243h-12.7v-0.9h5.9v-2.5h0.9v2.5h5.9L1172.8,243z M1161.1,248.3c0-2.4,2.3-3.8,5.4-3.8s5.4,1.4,5.4,3.8
	s-2.3,3.8-5.4,3.8S1161.1,250.7,1161.1,248.3L1161.1,248.3z M1162.5,257.4h14.8v0.9h-15.7v-4.6h0.9L1162.5,257.4z M1162,248.3
	c0,1.8,1.7,3,4.5,3s4.5-1.2,4.5-3s-1.7-3-4.5-3S1162,246.6,1162,248.3L1162,248.3z M1179.6,245.7v0.9h-3v7.5h-0.9v-14.1h0.9v5.8
	L1179.6,245.7z"/>
<path class="st1" d="M1203.3,259.1v-19.4l1.5,0.1v19.3H1203.3z M1193.1,259v-5.7h-5.9v-1.4h7.3c0.4,0,0.8,0,1.1,0c2,0,4-0.3,6-0.8
	l0.4-0.1v1.5l-0.2,0.1c-2,0.5-4.1,0.8-6.2,0.8c-0.3,0-0.6,0-0.9,0v5.7H1193.1z M1193.8,250.1c-3.3,0-5.7-2.1-5.7-5v0
	c0-2.9,2.4-4.9,5.7-4.9c3.4,0,5.7,2,5.7,5C1199.5,248.1,1197.2,250.1,1193.8,250.1z M1193.8,241.6c-2.5,0-4.2,1.4-4.2,3.5
	c0,2.2,1.7,3.6,4.2,3.6c2.5,0,4.2-1.4,4.2-3.5C1198,243.1,1196.3,241.6,1193.8,241.6z"/>
<path class="st1" d="M1194.4,252.1c2.4,0.1,4.9-0.1,7.2-0.8v0.9c-2.3,0.6-4.7,0.9-7.1,0.8h-0.2v5.7h-0.9V253h-5.9v-0.9H1194.4z
	 M1188.4,245.1c0-2.8,2.2-4.7,5.4-4.7s5.4,1.9,5.4,4.7s-2.2,4.7-5.4,4.7S1188.4,247.9,1188.4,245.1L1188.4,245.1z M1189.3,245.1
	c0,2.2,1.8,3.8,4.5,3.8s4.5-1.6,4.5-3.8s-1.8-3.8-4.5-3.8S1189.3,242.9,1189.3,245.1L1189.3,245.1z M1204.5,240v18.8h-0.9v-18.8
	L1204.5,240z"/>
<path class="st1" d="M1218.3,258.8c-5.1,0-8-1.4-8-3.8c0-2.4,2.9-3.9,8-3.9c5.1,0,8,1.4,8,3.9
	C1226.3,257.4,1223.4,258.8,1218.3,258.8z M1218.3,252.6c-4,0-6.5,1-6.5,2.4c0,1.5,2.6,2.4,6.5,2.4c3.9,0,6.5-0.9,6.5-2.4v-0.3h0
	C1224.4,253.4,1222,252.6,1218.3,252.6z M1224.6,250.8V245h-5.5v-1.4h5.5v-4h1.5v11.2H1224.6z M1208.4,248.8l0.2,0
	c3.6-0.8,5.9-4.2,5.9-8.6v-0.3h1.5l0,0.3c0,1.4-0.2,2.9-0.7,4.2l6.3,4.3l-0.9,1.1l-6.1-4.1c-1.2,2.3-3.4,3.9-6,4.5l-0.3,0.1V248.8z"
	/>
<path class="st1" d="M1208.7,249.9V249c4-0.9,6.1-4.7,6.1-8.8h0.9c0,1.5-0.2,3-0.8,4.3l6.3,4.3l-0.6,0.7l-6.1-4.2
	C1213.5,247.7,1211.3,249.4,1208.7,249.9z M1226,255c0,2.5-3.4,3.6-7.7,3.6s-7.8-1.1-7.8-3.6s3.4-3.6,7.8-3.6S1226,252.5,1226,255z
	 M1225.1,255c0-1.8-3-2.7-6.8-2.7s-6.8,0.9-6.8,2.7c0,1.8,3,2.7,6.8,2.7S1225,256.8,1225.1,255L1225.1,255z M1224.9,244.7h-5.4v-0.8
	h5.4v-4h0.9v10.6h-0.9V244.7z"/>
<path class="st1" d="M1231.5,258.6v-8.2h1.5v2.7h12.6l0-2.7h1.5v8.2H1231.5z M1245.6,257.2v-2.6H1233v2.6H1245.6z M1245.6,250v-10.4
	h1.5V250H1245.6z M1235.9,249.6c-3.6,0-6-1.9-6-4.8c0-2.9,2.4-4.8,6-4.8s6,1.9,6,4.8C1241.9,247.7,1239.5,249.6,1235.9,249.6z
	 M1235.9,241.3c-2.7,0-4.5,1.4-4.5,3.5c0,2.1,1.8,3.5,4.5,3.5c2.7,0,4.5-1.4,4.5-3.5C1240.4,242.7,1238.6,241.3,1235.9,241.3z"/>
<path class="st1" d="M1235.9,249.3c-3.6,0-5.7-1.9-5.7-4.5s2.1-4.5,5.7-4.5s5.7,1.9,5.7,4.5S1239.5,249.3,1235.9,249.3z
	 M1235.9,248.5c2.8,0,4.8-1.4,4.8-3.7s-2-3.7-4.8-3.7s-4.8,1.4-4.8,3.7S1233.1,248.5,1235.9,248.5L1235.9,248.5z M1245.9,250.7h0.9
	v7.6h-15v-7.6h0.9v2.7h13.2L1245.9,250.7z M1245.9,257.5v-3.2h-13.2v3.2H1245.9z M1246.8,239.9v9.8h-0.9v-9.8H1246.8z"/>
<path class="st1" d="M1266.7,259v-19.4h1.6V259H1266.7z M1251.9,257.7v-17.3h1.5v15.8l6.6,0c1.6,0,3.1-0.3,4.6-0.9l0.4-0.2v1.5
	l-0.2,0.1c-1.5,0.6-3.1,1-4.7,1L1251.9,257.7z"/>
<path class="st1" d="M1253.1,256.5h6.7c1.7,0,3.3-0.3,4.9-0.9v0.9c-1.5,0.6-3.2,1-4.9,0.9h-7.6v-16.7h0.9V256.5z M1267.9,258.7h-1
	v-18.8h1V258.7z"/>
<path class="st1" d="M1287.3,259v-19.4h1.5v8.2h3v1.4h-3v9.7H1287.3z M1272.9,257.6v-17.1h11.3v1.4h-9.9v14.3h6.2
	c1.6,0,3.2-0.3,4.8-1l0.4-0.2v1.5l-0.2,0.1c-1.5,0.6-3.1,0.9-4.8,0.9L1272.9,257.6z"/>
<path class="st1" d="M1280.6,256.5c1.7,0,3.3-0.3,4.9-1v0.9c-1.5,0.6-3.2,0.9-4.9,0.9h-7.4v-16.5h10.8v0.9h-9.9v14.9L1280.6,256.5z
	 M1291.6,249h-3v9.7h-0.9v-18.8h0.9v8.2h3V249z"/>
<path class="st1" d="M1294.3,258.8c-0.7,0-1.3-0.6-1.3-1.3s0.6-1.3,1.3-1.3s1.3,0.6,1.3,1.3S1295,258.8,1294.3,258.8z"/>
<path class="st1" d="M1295.3,257.5c0,0.6-0.5,1-1,1c-0.6,0-1-0.5-1-1s0.5-1,1-1C1294.9,256.4,1295.3,256.9,1295.3,257.5z"/>
<path class="st1" d="M709,293v-19.4h1.5v8.2h3v1.4h-3v9.7H709z M700.3,284.3c-1.3,4.5-3.4,7-6.3,7.4l-0.3,0v-1.4l0.2,0
	c4.4-0.8,6.1-8.7,6.1-15.8l0-0.3h1.5l0,0.3c0,2.7-0.2,5.4-0.7,8l6.4,8.4l-1.2,0.9L700.3,284.3z"/>
<path class="st1" d="M700.5,282.5l6.3,8.3l-0.7,0.5l-5.8-7.7c-1.1,4.5-3.2,7.4-6.2,7.8v-0.9c4.4-0.8,6.3-8.1,6.3-16.1h0.9
	C701.2,277.2,701,279.9,700.5,282.5z M713.2,283h-3v9.7h-0.9v-18.8h0.9v8.2h3V283z"/>
<path class="st1" d="M724.1,292.9c-3.1,0-8.3-0.5-8.3-3.5c0-2.8,4.5-3.4,8.3-3.4s8.3,0.6,8.3,3.4
	C732.4,292.4,727.2,292.9,724.1,292.9z M724.1,287.4c-3.2,0-6.7,0.5-6.7,2c0,1.5,3.6,2.1,6.7,2.1c3,0,6.5-0.5,6.8-1.9l0-0.2
	C730.8,287.9,727.4,287.4,724.1,287.4z M714.6,284.4V283h4.6v-2.4c-2.2-0.6-3.4-1.7-3.4-3.1c0-2.3,3.1-3.7,8.3-3.7
	c5.2,0,8.3,1.4,8.3,3.7c0,1.5-1.2,2.5-3.4,3.1v2.4h4.6v1.4H714.6z M727.5,283v-2.1c-1.1,0.2-2.3,0.3-3.4,0.3c-1.1,0-2.3-0.1-3.4-0.3
	v2.1H727.5z M724.1,275.1c-3.4,0-6.8,0.7-6.8,2.3c0,1.6,3.4,2.3,6.8,2.3l0,0c3.4,0,6.8-0.7,6.8-2.3
	C730.9,275.8,727.5,275.1,724.1,275.1z"/>
<path class="st1" d="M733.4,283.2v0.9h-18.6v-0.9h4.6v-2.9c-2-0.5-3.4-1.5-3.4-2.9c0-2.4,3.8-3.4,8.1-3.4s8,1,8,3.4
	c0,1.5-1.4,2.4-3.4,2.9v2.9H733.4z M732.1,289.4c0,2.5-4,3.2-8,3.2s-8-0.8-8-3.2s4-3.2,8-3.2S732.1,286.9,732.1,289.4z M724.1,280
	c3.7,0,7.1-0.8,7.1-2.6s-3.5-2.6-7.1-2.6s-7.1,0.8-7.1,2.6S720.5,280,724.1,280L724.1,280z M731.1,289.4c0-1.8-3.7-2.3-7-2.3
	s-7,0.5-7,2.3s3.7,2.4,7,2.4S731.2,291.2,731.1,289.4L731.1,289.4z M720.4,283.2h7.4v-2.7c-2.5,0.4-5,0.4-7.4,0V283.2z"/>
<path class="st1" d="M751.3,293v-19.4h1.5v8.2h3v1.4h-3v9.7H751.3z M736,290.3l0.2-0.1c3.4-0.8,5.5-6.3,5.6-14.3h-5.5v-1.4h12.4v1.4
	h-5.4c0,2.2-0.2,4.5-0.6,6.7l6.7,8.1l-1.2,0.9l-5.9-7.2c-1.1,4.2-3.2,6.7-6,7.3l-0.3,0.1V290.3z"/>
<path class="st1" d="M742.4,282.7l6.6,7.9l-0.7,0.5l-6.1-7.4c-1.1,4.3-3.1,7-5.9,7.6v-0.9c3.8-0.9,5.8-7.1,5.8-14.9h-5.5v-0.9h11.8
	v0.9h-5.4C743.1,278,742.9,280.4,742.4,282.7z M755.5,283h-3v9.7h-0.9v-18.8h0.9v8.2h3V283z"/>
<path class="st1" d="M772.5,293v-19.4h1.5v8.1h2.9v1.4H774v9.9H772.5z M764.7,291.7c-0.3,0-0.7,0-1,0l-6.8,0v-1.4h5.7v-4
	c-3.1-0.4-5.3-3.2-5.1-6.3c0.3-3,2.8-5.4,5.8-5.4c0.2,0,0.3,0,0.5,0c3.2,0.3,5.6,3.1,5.3,6.3c-0.2,2.8-2.4,5-5.1,5.3v4
	c3.2,0,5.4-0.3,6.7-0.8l0.4-0.2v1.5l-0.2,0.1C768.9,291.4,766.8,291.7,764.7,291.7z M763.6,275.7c-2.4,0-4.5,1.9-4.6,4.4
	c0,0.1,0,0.2,0,0.3c-0.1,1.2,0.3,2.3,1,3.1c0.8,0.9,1.8,1.4,2.9,1.5c0.1,0,0.2,0,0.3,0c0,0,0.2,0,0.3,0c2.4,0,4.5-1.9,4.6-4.4
	c0.1-1.2-0.3-2.4-1.2-3.3c-0.8-0.9-2-1.5-3.2-1.5C763.8,275.7,763.7,275.7,763.6,275.7z"/>
<path class="st1" d="M763.8,290.5c3.1,0,5.6-0.2,7.1-0.9v0.9c-2.3,0.7-4.7,1-7.1,0.8h-6.5v-0.9h5.7v-4.5c-3.1-0.3-5.3-3-5.1-6
	c0.3-3.1,3-5.3,6-5.1s5.3,3,5.1,6c-0.2,2.7-2.4,4.9-5.1,5.1L763.8,290.5z M763.3,285.2c2.7,0.2,5-1.9,5.2-4.6c0.2-2.7-1.9-5-4.6-5.2
	s-5,1.9-5.2,4.6c0,0.1,0,0.2,0,0.3c-0.2,2.5,1.7,4.7,4.2,4.9C763.1,285.2,763.2,285.2,763.3,285.2z M776.7,282.9h-2.9v9.9h-0.9
	v-18.8h0.9v8.1h2.9V282.9z"/>
<path class="st1" d="M785.7,292.6v-4.5h14.8v-1.6h-14.9v-1.4h16.3v4.4h-14.8v1.7h15.2v1.4H785.7z M784.2,283.4V282h19.1v1.4H784.2z
	 M800.4,281.3l-0.1-2.3h-14.6v-1.4h14.7v-2.2h-14.7V274h16.2v7.3H800.4z"/>
<path class="st1" d="M803.1,282.3v0.8h-18.6v-0.8H803.1z M786.9,291.5h15.2v0.8H786v-3.9h14.8v-2.2h-14.9v-0.8h15.7v3.9h-14.8V291.5
	z M800.6,278.7H786v-0.8h14.7v-2.8H786v-0.9h15.6v6.8h-0.9L800.6,278.7z"/>
<path class="st1" d="M821,293v-19.4h1.5v8.2h3v1.4h-3v9.7H821z M814.2,291.7l-7.7,0v-9.5h9.3V276h-9.3v-1.4h10.8v9.1H808v6.7l6.4,0
	c1.6,0,3.1-0.3,4.5-0.9l0.4-0.2v1.5l-0.2,0.1c-1.5,0.6-3.1,0.9-4.7,0.9L814.2,291.7z"/>
<path class="st1" d="M814.2,290.5c1.7,0,3.3-0.3,4.9-0.9v0.9c-1.5,0.6-3.2,1-4.9,0.9h-7.4v-8.9h9.3v-6.8h-9.3v-0.9h10.2v8.5h-9.2
	v7.2L814.2,290.5z M825.2,283h-3v9.7h-0.9v-18.8h0.9v8.2h3V283z"/>
<path class="st1" d="M842.7,293v-19.4h1.5l0,19.4H842.7z M833.3,292c-3.6,0-5.8-3.3-5.8-8.8s2.2-8.8,5.8-8.8s5.8,3.3,5.8,8.8
	S837,292,833.3,292z M833.3,275.7c-2.6,0-4.3,2.8-4.3,7.4s1.6,7.4,4.3,7.4c2.6,0,4.3-2.8,4.3-7.4S836,275.7,833.3,275.7z"/>
<path class="st1" d="M838.8,283.1c0,5.8-2.3,8.6-5.5,8.6s-5.5-2.8-5.5-8.6s2.3-8.6,5.5-8.6S838.8,277.3,838.8,283.1z M828.8,283.1
	c0,5.2,2,7.7,4.5,7.7s4.6-2.5,4.6-7.7s-2-7.7-4.6-7.7S828.8,277.9,828.8,283.1L828.8,283.1z M843.9,292.7H843v-18.8h0.9L843.9,292.7
	z"/>
<path class="st1" d="M849.8,292.6v-6.4h1.5v4.9H866v1.4H849.8z M864,288.2v-8.1h-4.1c-0.3,3.1-2.6,5.1-5.9,5.1c-3.6,0-6-2.3-6-5.6
	c0-3.4,2.4-5.6,6-5.6c3.2,0,5.5,1.8,5.9,4.7h4.1v-5.1h1.5v14.6H864z M854,275.4c-2.7,0-4.4,1.7-4.4,4.2c0,2.6,1.7,4.2,4.4,4.2
	s4.4-1.7,4.4-4.2C858.4,277,856.7,275.4,854,275.4z"/>
<path class="st1" d="M854,284.9c-3.6,0-5.7-2.4-5.7-5.3s2-5.3,5.7-5.3c3.4,0,5.4,2.1,5.7,4.7h4.7v-5.1h0.9v14h-0.9v-8.1h-4.6
	C859.5,282.7,857.5,284.9,854,284.9z M854,284.1c2.9,0,4.7-1.8,4.7-4.5s-1.9-4.5-4.7-4.5s-4.7,1.8-4.7,4.5S851.1,284.1,854,284.1z
	 M865.8,291.4v0.9h-15.6v-5.8h0.9v4.9H865.8z"/>
<path class="st1" d="M868.9,291.9v-1.4H888v1.4H868.9z M870.3,286.7v-12.1h16.3v1.4h-14.8v3.9h14.6v1.4h-14.6v3.9H887l0.1,1.4H870.3
	z"/>
<path class="st1" d="M887.7,290.8v0.9h-18.6v-0.9H887.7z M886.7,286.4h-16.1v-11.6h15.7v0.9h-14.8v4.5h14.6v0.8h-14.6v4.5h15.2
	L886.7,286.4z"/>
<path class="st1" d="M896.2,291.9v-1.4h8.8v-5.2h-7.4v-10.8h16.3v10.8h-7.4v5.2l8.8,0v1.4H896.2z M912.4,283.9V276h-13.3v7.9H912.4z
	"/>
<path class="st1" d="M915,290.8v0.9h-18.6v-0.9h8.8V285h-7.4v-10.2h15.7V285h-7.4v5.8L915,290.8z M898.8,284.2h13.9v-8.5h-13.9
	V284.2z"/>
<path class="st1" d="M926.2,293.5v-6.2h-8.8v-1.5h19.1v1.5h-8.8v6.2H926.2z M918.9,283.6v-9.3h16.4v1.4h-14.9v6.4h15.1v1.4H918.9z"
	/>
<path class="st1" d="M936.2,287h-8.8v6.2h-0.9V287h-8.8v-0.9h18.6V287z M935.2,283.3h-16v-8.7H935v0.9h-14.9v7h15.1L935.2,283.3z"/>
<path class="st1" d="M954.2,293v-19.4h1.5v8.1h2.9v1.4h-2.9v9.9H954.2z M946.4,291.7c-0.3,0-0.7,0-1,0l-6.8,0v-1.4h5.7v-4
	c-3.1-0.4-5.3-3.2-5.1-6.3c0.3-3,2.8-5.4,5.8-5.4c0.2,0,0.3,0,0.5,0c3.2,0.3,5.6,3.1,5.3,6.3c-0.2,2.8-2.4,5-5.1,5.3v4
	c3.2,0,5.4-0.3,6.7-0.8l0.4-0.2v1.5l-0.2,0.1C950.5,291.4,948.5,291.7,946.4,291.7z M945.2,284.9c2.4,0,4.5-1.9,4.6-4.4
	c0.1-1.2-0.3-2.4-1.2-3.3c-0.8-0.9-2-1.5-3.2-1.5c-0.1,0-0.2,0-0.3,0c-2.4,0-4.5,1.9-4.6,4.4c0,0.1,0,0.2,0,0.3
	c-0.1,1.2,0.3,2.3,1,3.1c0.8,0.9,1.8,1.4,2.9,1.5c0.1,0,0.2,0,0.3,0h0C945,284.9,945.2,284.9,945.2,284.9z"/>
<path class="st1" d="M945.4,290.5c3.1,0,5.6-0.2,7.1-0.9v0.9c-2.3,0.7-4.7,1-7.1,0.8h-6.5v-0.9h5.7v-4.5c-3.1-0.3-5.3-3-5.1-6
	c0.3-3.1,3-5.3,6-5.1s5.3,3,5.1,6c-0.2,2.7-2.4,4.9-5.1,5.1L945.4,290.5z M944.9,285.2c2.7,0.2,5-1.9,5.2-4.6c0.2-2.7-1.9-5-4.6-5.2
	s-5,1.9-5.2,4.6c0,0.1,0,0.2,0,0.3c-0.2,2.5,1.7,4.7,4.2,4.9C944.7,285.2,944.9,285.2,944.9,285.2L944.9,285.2z M958.3,282.9h-2.9
	v9.9h-0.9v-18.8h0.9v8.1h2.9V282.9z"/>
<path class="st1" d="M975.9,293v-19.4h1.5V293H975.9z M959.7,291.7v-1.4h7.3c3.2,0,5.8-0.3,7.1-1l0.4-0.2v1.5l-0.2,0.1
	c-1.5,0.6-4.2,1-7.5,1H959.7z M966.2,286.2c-3.3-0.1-5.9-2.8-5.8-6.1c0.1-3.2,2.7-5.8,5.9-5.8l0.1,0c3.1,0,5.7,2.5,5.8,5.7
	c0,0.1,0,0.3,0,0.4c-0.1,3.2-2.7,5.8-5.9,5.8L966.2,286.2z M961.9,280.6c0.2,2.2,2.1,3.9,4.4,3.9l0.2,0c2.4-0.1,4.3-2.2,4.2-4.6
	c-0.1-2.4-2-4.2-4.4-4.2c0,0,0,0,0,0c-2.4,0-4.4,1.9-4.4,4.3c0,0.1,0,0.2,0,0.3L961.9,280.6L961.9,280.6z"/>
<path class="st1" d="M966.8,291.4H960v-0.9h7c3.3,0,5.8-0.4,7.2-1v0.9C972.9,291,970.2,291.4,966.8,291.4z M972,280.3
	c-0.1,3.1-2.6,5.6-5.8,5.5c-3.1-0.1-5.6-2.6-5.5-5.8c0.1-3.1,2.6-5.6,5.7-5.5c3-0.1,5.6,2.3,5.7,5.4C972,280.1,972,280.2,972,280.3z
	 M961.6,280.3c0.1,2.6,2.3,4.6,4.9,4.5c2.6-0.1,4.6-2.3,4.5-4.9c-0.1-2.5-2.2-4.5-4.7-4.5c-2.6,0-4.7,2-4.7,4.6
	C961.7,280.1,961.7,280.2,961.6,280.3L961.6,280.3z M977.1,292.7h-0.9v-18.8h0.9V292.7z"/>
<path class="st1" d="M1003.3,293v-9.7h-5.1c-1.1,5.1-4.9,8.3-10,8.3h-0.3v-1.4h0.3c4.4,0,7.6-2.6,8.5-7.1h-8.8v-1.4h9
	c0.1-0.6,0.1-1.2,0.1-1.9v-3.8h-9.2v-1.4h10.6v5.3c0,0.7,0,1.4-0.1,2.1h4.8v-8.2l1.5,0V293H1003.3z"/>
<path class="st1" d="M1004.5,273.9v18.8h-0.9V283H998v-0.1c-1,5.3-4.8,8.4-9.8,8.4v-0.9c4.6,0,8-2.8,8.9-7.7h-8.9v-0.9h9
	c0.1-0.7,0.1-1.4,0.1-2.1v-4.1h-9.2v-0.9h10.1v5c0,0.8-0.1,1.6-0.2,2.4h5.4V274L1004.5,273.9z"/>
<path class="st1" d="M1020.7,293.5v-6.1h-5.9v6.1h-1.5v-6.1h-5.2v-1.5h19.1v1.5h-5.2v6.1H1020.7z M1009.7,283.6v-9.1h16.1l-0.1,9.1
	H1009.7z M1024.3,282.2v-6.3h-13.2v6.3H1024.3z"/>
<path class="st1" d="M1027,287.1h-5.2v6.1h-0.8v-6.1h-6.4v6.1h-0.9v-6.1h-5.2v-0.9h18.5V287.1z M1025.5,283.3H1010v-8.5h15.6
	L1025.5,283.3z M1024.6,275.6h-13.7v6.8h13.7V275.6z"/>
<path class="st1" d="M1045.4,293v-19.4h1.6V293H1045.4z M1030.6,291.7v-17.3h1.5v15.8l6.5,0c1.6,0,3.1-0.3,4.6-0.9l0.4-0.2v1.5
	l-0.2,0.1c-1.5,0.6-3.1,1-4.7,1L1030.6,291.7z"/>
<path class="st1" d="M1031.8,290.5h6.7c1.7,0,3.3-0.3,4.9-0.9v0.9c-1.5,0.6-3.2,1-4.9,0.9h-7.6v-16.7h0.9L1031.8,290.5z
	 M1046.7,292.7h-1v-18.8h1V292.7z"/>
<path class="st1" d="M1067.2,293v-19.4h1.5V293H1067.2z M1062.7,292.7v-9.4h-3.5c-0.7,5-3.6,8.1-7.8,8.3l-0.3,0v-1.4l0.3,0
	c3.5-0.2,5.8-2.8,6.3-7.1h-6.6v-1.4h6.7v-5.7h-6.8v-1.4h8.2v7.4h3.4v-8.1h1.5v18.9H1062.7z"/>
<path class="st1" d="M1063,274.1h0.9v18.3h-0.9V283h-4c-0.6,4.7-3.2,8.1-7.6,8.3v-0.9c4-0.2,6.2-3.4,6.6-7.7h-6.6v-0.9h6.7
	c0-0.3,0-0.7,0-1v-5.3h-6.8v-0.9h7.6v6.2c0,0.4,0,0.8,0,1.2h4V274.1z M1068.4,273.9v18.8h-0.9v-18.8H1068.4z"/>
<path class="st1" d="M1087.8,293v-19.4h1.6V293H1087.8z M1078.5,292c-3.6,0-5.8-3.3-5.8-8.8s2.2-8.8,5.8-8.8s5.8,3.3,5.8,8.8
	S1082.1,292,1078.5,292z M1074.3,283.1c0,4.6,1.6,7.4,4.3,7.4c2.6,0,4.3-2.8,4.3-7.4s-1.6-7.4-4.3-7.4c-2.6,0-4.3,2.7-4.4,7.1
	L1074.3,283.1z"/>
<path class="st1" d="M1084,283.1c0,5.8-2.3,8.6-5.5,8.6s-5.5-2.8-5.5-8.6s2.3-8.6,5.5-8.6S1084,277.3,1084,283.1z M1074,283.1
	c0,5.2,2,7.7,4.6,7.7s4.6-2.5,4.6-7.7s-2-7.7-4.6-7.7S1073.9,277.9,1074,283.1L1074,283.1z M1089.1,292.7h-1v-18.8h1V292.7z"/>
<path class="st1" d="M1094.7,292.6v-6.1h1.5v4.7h15v1.4H1094.7z M1109.1,288.2v-6.7h-4.9v-1.4h4.9v-2.6h-4.9v-1.4h4.9v-2.5h1.5v14.6
	H1109.1z M1093,284.1l0.2,0c4.1-0.9,5.9-5.6,5.9-9.9v-0.3h1.5l0,0.3c0,1.7-0.3,3.4-0.8,5l6.3,5.2l-1,1.2l-5.9-4.9
	c-1.1,2.4-3.3,4.2-5.8,4.8l-0.3,0.1V284.1z"/>
<path class="st1" d="M1093.3,285.2v-0.9c4-0.9,6.1-5.5,6.1-10.2h0.9c0,1.7-0.3,3.5-0.9,5.1l6.3,5.1l-0.6,0.7l-6-4.9
	C1098.1,282.8,1095.9,284.6,1093.3,285.2z M1110.9,291.4v0.9H1095v-5.5h0.9v4.7H1110.9z M1109.4,281.3h-4.9v-0.8h4.9v-3.2h-4.9v-0.8
	h4.9v-2.5h0.9v14h-0.9V281.3z"/>
<path class="st1" d="M1130.2,293v-19.4h1.5V293H1130.2z M1120.8,292c-3.6,0-5.8-3.3-5.8-8.8s2.2-8.8,5.8-8.8s5.8,3.3,5.8,8.8
	S1124.4,292,1120.8,292z M1116.6,283.1c0,4.6,1.6,7.4,4.3,7.4c2.6,0,4.3-2.8,4.3-7.4s-1.6-7.4-4.3-7.4c-2.6,0-4.2,2.7-4.3,7.1
	L1116.6,283.1z"/>
<path class="st1" d="M1126.3,283.1c0,5.8-2.3,8.6-5.5,8.6s-5.5-2.8-5.5-8.6s2.3-8.6,5.5-8.6S1126.3,277.3,1126.3,283.1z
	 M1116.3,283.1c0,5.2,2,7.7,4.6,7.7s4.6-2.5,4.6-7.7s-2-7.7-4.6-7.7S1116.2,277.9,1116.3,283.1L1116.3,283.1z M1131.4,292.7h-0.9
	v-18.8h0.9V292.7z"/>
<path class="st1" d="M1150.9,292.9c-3.1,0-8.3-0.5-8.3-3.5c0-2.2,2.5-3.3,7.5-3.4V284h-8.8v-1.4h19.1v1.4h-8.8v1.9
	c4.9,0.1,7.5,1.3,7.5,3.4C1159.2,291.6,1156.1,292.9,1150.9,292.9z M1150.9,287.4c-4.1,0-6.7,0.8-6.7,2c0,1.5,3.6,2.1,6.7,2.1
	s6.7-0.5,6.7-2.1C1157.6,288.1,1155.1,287.4,1150.9,287.4z M1150.6,278.4c-1.6,1.7-4.5,2.8-7.9,2.9l-0.3,0v-1.5l0.3,0
	c3.6-0.1,7.4-1.6,7.9-4.3h-7.8v-1.4h16.2v1.4h-7c-0.1,0.6-0.2,1.1-0.5,1.6l8.1,2.9l-0.6,1.3L1150.6,278.4z"/>
<path class="st1" d="M1151.3,283.7v2.5c3.8,0.1,7.5,0.8,7.5,3.2s-4,3.2-8,3.2s-8-0.8-8-3.2s3.7-3.1,7.5-3.2v-2.5h-8.8v-0.9h18.6v0.9
	H1151.3z M1142.7,281v-0.9c3.6-0.1,7.9-1.7,8.2-4.9h-7.8v-0.9h15.6v0.9h-6.9c-0.1,0.7-0.3,1.4-0.7,2.1l8.1,2.9l-0.4,0.8l-8.3-3
	C1148.8,280,1145.5,280.9,1142.7,281L1142.7,281z M1150.9,287.1c-3.3,0-7,0.5-7,2.3s3.7,2.4,7,2.4s7-0.5,7-2.4
	S1154.2,287.1,1150.9,287.1L1150.9,287.1z"/>
<path class="st1" d="M1162.5,291.9v-1.4h4.8V285c-2.4-1-3.8-2.7-3.8-5c0-3.6,3.3-5.8,8.5-5.8s8.5,2.2,8.5,5.8c0,2.2-1.3,4-3.7,5v5.5
	h4.8v1.4H1162.5z M1175.3,290.5v-5.1c-1,0.2-2.1,0.3-3.2,0.3l-0.2,0c-1,0-2.1-0.1-3.1-0.3v5.1H1175.3z M1172,275.7
	c-4.2,0-7,1.7-7,4.3s2.7,4.3,7,4.3s7-1.7,7-4.3S1176.3,275.7,1172,275.7z"/>
<path class="st1" d="M1181.3,290.8v0.9h-18.6v-0.9h4.8v-6c-2.4-0.9-3.8-2.5-3.8-4.8c0-3.4,3.2-5.5,8.2-5.5s8.2,2.1,8.2,5.5
	c0,2.2-1.4,3.9-3.7,4.8v6H1181.3z M1172,284.6c4.4,0,7.3-1.8,7.3-4.6s-2.9-4.6-7.3-4.6s-7.3,1.8-7.3,4.6S1167.7,284.6,1172,284.6
	L1172,284.6z M1168.5,290.8h7.1v-5.7c-1.2,0.3-2.3,0.4-3.5,0.4c-1.2,0-2.4-0.1-3.5-0.4V290.8z"/>
<path class="st1" d="M1185.1,292.6v-5.2h1.5l0,3.8h14.8v1.4H1185.1z M1199.2,288.4v-14.7h1.5v5.8l3,0v1.4h-3v7.5H1199.2z
	 M1190.3,286.4c-3.4,0-5.7-1.7-5.7-4.1v0c0-2.5,2.3-4.1,5.7-4.1c3.4,0,5.7,1.7,5.7,4.1S1193.7,286.4,1190.3,286.4z M1190.3,279.6
	c-2.5,0-4.2,1.1-4.2,2.7c0,1.6,1.7,2.7,4.2,2.7c2.5,0,4.2-1.1,4.2-2.7S1192.9,279.6,1190.3,279.6z M1183.7,277.3v-1.4h5.9v-2.5h1.5
	v2.5h5.9l-0.1,1.4H1183.7z"/>
<path class="st1" d="M1196.7,277H1184v-0.9h5.9v-2.5h0.9v2.5h5.9L1196.7,277z M1184.9,282.3c0-2.4,2.3-3.8,5.4-3.8s5.4,1.5,5.4,3.8
	s-2.3,3.8-5.4,3.8S1184.9,284.7,1184.9,282.3L1184.9,282.3z M1186.4,291.4h14.8v0.9h-15.7v-4.6h0.9L1186.4,291.4z M1185.8,282.3
	c0,1.8,1.7,3,4.5,3s4.5-1.2,4.5-3s-1.7-3-4.5-3S1185.8,280.6,1185.8,282.3L1185.8,282.3z M1203.4,279.7v0.9h-3v7.5h-0.9v-14.1h0.9
	v5.8L1203.4,279.7z"/>
<path class="st1" d="M1227,293v-19.4h1.6V293H1227z M1212.3,291.7v-17.2h11.6l-0.1,1.4h-10v14.3l6.5,0c1.6,0,3.2-0.3,4.7-0.9
	l0.4-0.2v1.5l-0.2,0.1c-1.5,0.6-3.1,0.9-4.8,0.9L1212.3,291.7z"/>
<path class="st1" d="M1223.5,275.7h-10v14.9h6.6c1.7,0,3.3-0.3,4.9-1v0.9c-1.5,0.6-3.2,0.9-4.9,0.9h-7.6v-16.6h11L1223.5,275.7z
	 M1228.3,292.7h-1v-18.8h1V292.7z"/>
<path class="st1" d="M1247.7,293v-19.4h1.5v8.2h3l0,1.4h-3v9.7H1247.7z M1232.4,290.3l0.2-0.1c3.4-0.8,5.5-6.3,5.6-14.3h-5.5v-1.4
	h12.4v1.4h-5.4c0,2.2-0.2,4.5-0.6,6.7l6.7,8.1l-1.2,0.9l-5.9-7.2c-1.1,4.2-3.2,6.7-6,7.3l-0.3,0.1V290.3z"/>
<path class="st1" d="M1238.8,282.7l6.6,7.9l-0.7,0.5l-6.1-7.4c-1.1,4.3-3.1,7-5.9,7.6v-0.9c3.8-0.9,5.8-7.1,5.8-14.9h-5.5v-0.9h11.8
	v0.9h-5.4C1239.5,278,1239.3,280.4,1238.8,282.7z M1251.9,283h-3v9.7h-0.9v-18.8h0.9v8.2h3L1251.9,283z"/>
<path class="st1" d="M1269.4,293v-19.4h1.6V293H1269.4z M1260.1,292c-3.6,0-5.8-3.3-5.8-8.8s2.2-8.8,5.8-8.8s5.8,3.3,5.8,8.8
	S1263.7,292,1260.1,292z M1255.9,283.1c0,4.6,1.6,7.4,4.3,7.4c2.6,0,4.3-2.8,4.3-7.4s-1.6-7.4-4.3-7.4c-2.6,0-4.2,2.7-4.3,7.1
	L1255.9,283.1z"/>
<path class="st1" d="M1265.6,283.1c0,5.8-2.3,8.6-5.5,8.6s-5.5-2.8-5.5-8.6s2.3-8.6,5.5-8.6S1265.6,277.3,1265.6,283.1z
	 M1255.6,283.1c0,5.2,2,7.7,4.6,7.7s4.6-2.5,4.6-7.7s-2-7.7-4.6-7.7S1255.5,277.9,1255.6,283.1L1255.6,283.1z M1270.7,292.7h-1
	v-18.8h1V292.7z"/>
<path class="st1" d="M1290.8,293v-10.7h-7.9v-1.4h7.9v-7.3h1.5V293H1290.8z M1283.1,291.7l-7.4,0v-17.3h1.5v15.8l6.1,0
	c1.6,0,3.1-0.3,4.6-0.9l0.4-0.2v1.5l-0.2,0.1c-1.5,0.6-3.1,0.9-4.7,0.9L1283.1,291.7z"/>
<path class="st1" d="M1283.1,290.5c1.7,0,3.3-0.3,4.9-0.9v0.9c-1.5,0.6-3.2,1-4.9,0.9h-7.1v-16.7h0.9v15.8H1283.1z M1292,273.9v18.8
	h-0.9V282h-7.9v-0.9h7.9v-7.3L1292,273.9z"/>
<path class="st1" d="M1311.8,293v-19.4h1.5V293H1311.8z M1295.6,291.7v-1.4h7.3c3.2,0,5.8-0.3,7.1-1l0.4-0.2v1.5l-0.2,0.1
	c-1.4,0.6-4.2,1-7.4,1H1295.6z M1302.2,286.2c-3.3-0.1-5.9-2.8-5.8-6.1c0.1-3.2,2.7-5.8,5.9-5.8l0.2,0c3.2,0,5.7,2.5,5.8,5.6
	c0,0.1,0,0.3,0,0.5l0,0.3h0c-0.2,3.1-2.8,5.6-5.9,5.6L1302.2,286.2z M1302.2,275.7c-2.4,0-4.3,1.9-4.3,4.3c0,0.1,0,0.2,0,0.3
	c0.1,2.4,2,4.2,4.4,4.2l0.2,0c2.4-0.1,4.3-2.2,4.2-4.6C1306.6,277.6,1304.7,275.7,1302.2,275.7v-0.3V275.7z"/>
<path class="st1" d="M1302.8,291.4h-6.9v-0.9h7c3.2,0,5.8-0.4,7.2-1v0.9C1308.8,291,1306.2,291.4,1302.8,291.4z M1308,280.3
	c-0.1,3.1-2.6,5.6-5.8,5.5c-3.1-0.1-5.6-2.6-5.5-5.8c0.1-3.1,2.6-5.5,5.7-5.6c3-0.1,5.6,2.3,5.7,5.3C1308,280,1308,280.2,1308,280.3
	L1308,280.3z M1297.6,280.3c0.1,2.6,2.3,4.6,4.9,4.5c2.6-0.1,4.6-2.3,4.5-4.9c-0.1-2.5-2.2-4.5-4.7-4.5c-2.6,0-4.7,2-4.7,4.5
	C1297.6,280.1,1297.6,280.2,1297.6,280.3z M1313,292.7h-0.9v-18.8h0.9V292.7z"/>
<path class="st1" d="M1339.3,292.8v-5.2h-14.4v-1.4h15.9v6.6H1339.3z M1339.3,285.5v-3h-4.2v-1.4h4.1v-3.4h-4.1v-1.4h4.2v-2.6l1.5,0
	v11.8H1339.3z M1329.2,284.7c-3.5,0-5.9-2.2-5.9-5.4s2.4-5.4,5.9-5.4c3.5,0,5.9,2.2,5.9,5.4S1332.7,284.7,1329.2,284.7z
	 M1329.2,275.4c-2.7,0-4.4,1.6-4.4,4c0,2.4,1.7,4,4.4,4c2.6,0,4.4-1.6,4.4-4C1333.6,276.9,1331.8,275.4,1329.2,275.4z"/>
<path class="st1" d="M1329.2,284.4c-3.5,0-5.6-2.2-5.6-5.1s2.1-5.1,5.6-5.1s5.6,2.2,5.6,5.1S1332.7,284.4,1329.2,284.4z
	 M1329.2,283.6c2.8,0,4.6-1.6,4.6-4.2s-1.9-4.2-4.6-4.2s-4.7,1.6-4.7,4.2S1326.4,283.6,1329.2,283.6z M1325.2,286.5h15.3v6h-0.9
	v-5.2h-14.4V286.5z M1340.5,273.9v11.3h-0.9v-3h-4.2v-0.9h4.1v-4h-4.1v-0.9h4.2v-2.5L1340.5,273.9z"/>
<path class="st1" d="M1345.6,292.6V288h14.1v-1.8h-14.1v-1.4h15.6v4.6h-14.1v1.8h14.7v1.4H1345.6z M1359.7,284.1v-10.4h1.5v4.5h3
	v1.4h-3v4.6H1359.7z M1350.8,283.8c-3.4,0-5.6-1.2-5.6-3.2c0-1.9,2.2-3.2,5.6-3.2c3.5,0,5.6,1.2,5.6,3.2
	C1356.4,282.6,1354.2,283.8,1350.8,283.8z M1350.8,278.8c-2.5,0-4.1,0.7-4.1,1.8s1.7,1.8,4.1,1.8c2.5,0,4.1-0.7,4.1-1.8
	S1353.2,278.8,1350.8,278.8z M1344.2,276.8v-1.4h5.9v-2h1.5v2h5.9l0,1.4H1344.2z"/>
<path class="st1" d="M1357.1,276.5h-12.7v-0.8h5.9v-2h0.9v2h5.9L1357.1,276.5z M1345.5,280.6c0-1.9,2.3-2.9,5.3-2.9s5.3,1,5.3,2.9
	s-2.3,2.9-5.3,2.9S1345.4,282.5,1345.5,280.6L1345.5,280.6z M1346.8,291.4h14.7v0.8h-15.7v-4h14.1v-2.4h-14.1v-0.8h15.1v4h-14.1
	V291.4z M1346.4,280.6c0,1.2,1.7,2.1,4.4,2.1s4.4-0.9,4.4-2.1s-1.7-2.1-4.4-2.1S1346.4,279.4,1346.4,280.6L1346.4,280.6z
	 M1363.9,278.4v0.8h-3v4.6h-0.9v-9.9h0.9v4.5H1363.9z"/>
<path class="st1" d="M1380.9,293v-19.4h1.5v8.1h2.9v1.4h-2.9v9.9H1380.9z M1373.1,291.7c-0.3,0-0.7,0-1,0l-6.8,0v-1.4h4v-8.9h1.5
	v8.9h1.3c3.5,0,5.8-0.3,7.1-0.8l0.4-0.2v1.5l-0.2,0.1C1377.3,291.4,1375.2,291.7,1373.1,291.7z M1375.6,287.2V276h-9.5v-1.4h11v12.7
	H1375.6z"/>
<path class="st1" d="M1372,290.5c3.2,0,5.7-0.2,7.2-0.9v0.9c-2.3,0.7-4.7,1-7.1,0.8h-6.5v-0.9h4v-8.9h0.9v8.9L1372,290.5z
	 M1375.8,275.7h-9.5v-0.9h10.4v12.1h-0.9L1375.8,275.7z M1385,282.8h-2.9v9.9h-0.9v-18.8h0.9v8.1h2.9V282.8z"/>
<path class="st1" d="M1394.1,292.6v-4.9h14.1v-2h-14.1v-1.4h15.6v4.9h-14l0,2h14.7v1.4H1394.1z M1408.2,283.5v-9.8h1.5v4l3,0v1.4h-3
	v4.4H1408.2z M1393.5,282.5v-8.2h12v1.4H1395v5.3h4.5c0.3,0,0.7,0,1,0c2.1,0,4.1-0.3,6.1-1l0.4-0.1v1.5l-0.2,0.1
	c-1.4,0.6-4.1,1-7.4,1H1393.5z"/>
<path class="st1" d="M1399.4,282.2h-5.6v-7.6h11.4v0.9h-10.5v5.9h4.8c2.4,0.1,4.9-0.2,7.2-1v0.9
	C1405.4,281.8,1402.8,282.2,1399.4,282.2z M1395.4,291.4h14.7v0.9h-15.7V288h14.1v-2.6h-14.1v-0.9h15.1v4.3h-14L1395.4,291.4z
	 M1412.4,278v0.9h-3v4.4h-0.9v-9.3h0.9v4L1412.4,278z"/>
<path class="st1" d="M1430,293v-19.4h1.5V293H1430z M1413.8,291.7v-1.4h7.3c3.3,0,5.8-0.3,7.1-1l0.4-0.2v1.5l-0.2,0.1
	c-1.4,0.6-4.2,1-7.5,1H1413.8z M1420.3,286.2c-3.3-0.1-5.9-2.8-5.8-6.1c0.1-3.2,2.7-5.8,5.9-5.8l0.2,0c3.2,0,5.7,2.5,5.8,5.6
	c0,0.1,0,0.3,0,0.4c-0.1,3.2-2.7,5.8-5.9,5.8L1420.3,286.2z M1420.4,275.7c-2.4,0-4.3,1.9-4.3,4.3c0,0.1,0,0.2,0,0.3
	c0.1,2.4,2,4.2,4.4,4.2l0.2,0c2.4-0.1,4.3-2.2,4.2-4.6C1424.8,277.6,1422.8,275.7,1420.4,275.7v-0.3V275.7z"/>
<path class="st1" d="M1420.9,291.4h-6.9v-0.9h7c3.3,0,5.8-0.4,7.2-1v0.9C1426.9,291,1424.3,291.4,1420.9,291.4z M1426.1,280.3
	c-0.1,3.1-2.6,5.6-5.8,5.5c-3.1-0.1-5.6-2.6-5.5-5.8c0.1-3.1,2.6-5.6,5.7-5.5c3-0.1,5.6,2.3,5.7,5.4
	C1426.1,280,1426.1,280.2,1426.1,280.3z M1415.7,280.3c0.1,2.6,2.3,4.6,4.9,4.5c2.6-0.1,4.6-2.3,4.5-4.9c-0.1-2.5-2.2-4.5-4.7-4.5
	c-2.6,0-4.7,2-4.7,4.5C1415.7,280.1,1415.7,280.2,1415.7,280.3z M1431.2,292.7h-0.9v-18.8h0.9V292.7z"/>
<path class="st1" d="M1453.6,293.5v-6.1h-5.9v6.1h-1.5v-6.1h-5.1v-1.5h19.1v1.5h-5.1v6.1H1453.6z M1450.7,284.1
	c-5.3,0-8.4-1.9-8.4-5v0c0-3.1,3.1-5,8.4-5c5.3,0,8.4,1.9,8.4,5S1455.9,284.1,1450.7,284.1z M1450.7,275.5c-4.3,0-6.9,1.3-6.9,3.6
	c0,2.2,2.7,3.6,6.9,3.6c4.3,0,6.9-1.4,6.9-3.6C1457.6,276.8,1454.9,275.5,1450.7,275.5z"/>
<path class="st1" d="M1459.9,287.1h-5.2v6.1h-0.9v-6.1h-6.4v6.1h-0.9v-6.1h-5.2v-0.9h18.6L1459.9,287.1z M1442.5,279.1
	c0-3.1,3.2-4.8,8.1-4.8s8.1,1.6,8.1,4.8s-3.3,4.8-8.1,4.8S1442.5,282.2,1442.5,279.1L1442.5,279.1z M1443.5,279.1
	c0,2.5,2.9,3.9,7.2,3.9s7.2-1.4,7.2-3.9s-2.9-3.9-7.2-3.9S1443.5,276.5,1443.5,279.1L1443.5,279.1z"/>
<path class="st1" d="M1477.8,293v-19.4h1.5v8.2h3v1.4h-3v9.7H1477.8z M1469.2,284.3c-1.3,4.5-3.4,7-6.3,7.4l-0.3,0v-1.4l0.2,0
	c4.4-0.8,6-8.7,6.1-15.8l0-0.3h1.5l0,0.3c0,2.7-0.2,5.4-0.7,8l6.4,8.4l-1.2,0.9L1469.2,284.3z"/>
<path class="st1" d="M1469.3,282.5l6.3,8.3l-0.7,0.5l-5.8-7.7c-1.1,4.5-3.2,7.4-6.2,7.8v-0.9c4.4-0.8,6.3-8.1,6.3-16.1h0.9
	C1470.1,277.2,1469.8,279.9,1469.3,282.5z M1482,283h-3v9.7h-0.9v-18.8h0.9v8.2h3V283z"/>
<path class="st1" d="M1493.3,292.8c-5.1,0-8-1.4-8-3.8c0-2.4,2.9-3.9,8-3.9c5.1,0,8,1.4,8,3.9c0,0,0,0,0,0
	C1501.4,291.4,1498.4,292.8,1493.3,292.8z M1493.3,286.6c-4,0-6.5,1-6.5,2.4c0,1.5,2.6,2.4,6.5,2.4c4,0,6.5-0.9,6.5-2.4
	C1499.8,287.5,1497.3,286.6,1493.3,286.6z M1499.7,284.8V279h-5.5v-1.4h5.5v-4h1.5v11.2H1499.7z M1483.6,282.8l0.2,0
	c3.6-0.8,5.9-4.2,5.9-8.6v-0.3h1.5l0,0.3c0,1.4-0.2,2.9-0.7,4.2l6.3,4.3l-0.9,1.1l-6.1-4.1c-1.2,2.3-3.4,3.9-6,4.5l-0.3,0.1V282.8z"
	/>
<path class="st1" d="M1483.8,283.9V283c4-0.9,6.1-4.7,6.1-8.8h0.9c0,1.5-0.2,3-0.8,4.3l6.3,4.3l-0.6,0.7l-6.1-4.2
	C1488.6,281.7,1486.4,283.4,1483.8,283.9z M1501.1,289c0,2.5-3.4,3.6-7.7,3.6s-7.8-1.1-7.8-3.6s3.4-3.6,7.8-3.6
	S1501.1,286.5,1501.1,289L1501.1,289z M1500.1,289c0-1.8-3-2.7-6.8-2.7s-6.8,0.9-6.8,2.7s3,2.7,6.8,2.7S1500.1,290.8,1500.1,289
	L1500.1,289z M1500,278.7h-5.4v-0.8h5.4v-4h0.9v10.6h-0.9V278.7z"/>
<path class="st1" d="M1506,292.6v-4.5h14.8v-1.6H1506v-1.4h16.3v4.4h-14.8v1.7h15.2v1.4H1506z M1504.6,283.4V282h19.1v1.4H1504.6z
	 M1514.2,280.9c-5.3,0-8.3-1.3-8.3-3.6c0-2.3,3-3.6,8.3-3.6c5.2,0,8.3,1.3,8.3,3.6C1522.5,279.6,1519.4,280.9,1514.2,280.9z
	 M1514.2,275.2c-4.2,0-6.8,0.8-6.8,2.2c0,1.3,2.6,2.2,6.8,2.2c4.2,0,6.8-0.8,6.8-2.2C1520.9,276,1518.3,275.2,1514.2,275.2z"/>
<path class="st1" d="M1523.4,283.1h-18.6v-0.8h18.6V283.1z M1522.2,277.4c0,2.4-3.8,3.3-8,3.3s-8-0.9-8-3.3s3.8-3.3,8-3.3
	S1522.2,275,1522.2,277.4z M1522,289.2h-14.8v2.2h15.2v0.8h-16.1v-3.9h14.8v-2.2h-14.8v-0.8h15.7V289.2z M1507.1,277.4
	c0,1.8,3.4,2.4,7.1,2.4s7.1-0.7,7.1-2.4s-3.4-2.5-7.1-2.5S1507.1,275.6,1507.1,277.4z"/>
<path class="st1" d="M1533.5,292.6v-4h14v-1.3h-14.1v-1.4h15.6v4h-14l0,1.3h14.7v1.4H1533.5z M1547.5,285.2v-11.5h1.5v4.6h2.9v1.4
	h-2.9v5.5H1547.5z M1531.9,284.8v-1.4h5.9v-1.1c-3-0.1-4.8-1.1-4.8-2.7c0-1.6,2.2-2.7,5.5-2.7c3.4,0,5.5,1,5.5,2.7
	c0,1.6-1.8,2.5-4.8,2.7v1.1c0.2,0,0.5,0,0.7,0c2,0,3.9-0.3,5.8-0.8l0.4-0.1v1.4l-0.2,0.1c-1.6,0.7-5.3,0.8-7.4,0.8H1531.9z
	 M1538.6,278.4c-2.8,0-4.1,0.7-4.1,1.3c0,0.6,1.3,1.3,4.1,1.3c2.8,0,4.1-0.7,4.1-1.3C1542.6,279.1,1541.4,278.4,1538.6,278.4z
	 M1532.1,276.5v-1.4h5.7v-2h1.5v2h5.9v1.4H1532.1z"/>
<path class="st1" d="M1538.5,284.6h-6.3v-0.8h5.9v-1.6c-3.1-0.1-4.8-1.1-4.8-2.4s1.8-2.4,5.3-2.4s5.3,1,5.3,2.4s-1.7,2.3-4.8,2.4
	v1.6c2.3,0.1,4.6-0.2,6.8-0.8v0.8C1544.6,284.3,1541.8,284.6,1538.5,284.6z M1544.9,276.2h-12.6v-0.8h5.7v-2h0.9v2h5.9L1544.9,276.2
	z M1534.7,291.5h14.7v0.8h-15.6v-3.5h14V287h-14.1v-0.8h15v3.4h-14L1534.7,291.5z M1538.6,281.3c2.9,0,4.3-0.7,4.3-1.6
	s-1.4-1.6-4.3-1.6s-4.4,0.7-4.4,1.6S1535.7,281.3,1538.6,281.3L1538.6,281.3z M1551.7,278.6v0.9h-2.9v5.5h-0.9v-11h0.9v4.6H1551.7z"
	/>
<path class="st1" d="M1562.6,292.9c-3.1,0-8.3-0.5-8.3-3.5c0-2.8,4.5-3.4,8.3-3.4s8.3,0.6,8.3,3.4
	C1570.9,292.4,1565.7,292.9,1562.6,292.9z M1562.6,287.4c-3.3,0-6.8,0.5-6.8,2c0,1.3,2.7,2.1,6.8,2.1c3.9,0,6.5-0.7,6.8-1.9l0-0.2
	C1569.3,287.9,1565.9,287.4,1562.6,287.4z M1553.1,284.4V283h4.7v-2.4c-2.2-0.6-3.4-1.7-3.4-3.1c0-2.3,3.1-3.7,8.3-3.7
	c5.2,0,8.3,1.4,8.3,3.7c0,1.5-1.2,2.5-3.4,3.1v2.4h4.7v1.4H1553.1z M1566,283v-2.1c-1.1,0.2-2.3,0.3-3.4,0.3c-1.1,0-2.3-0.1-3.4-0.3
	v2.1H1566z M1562.6,275.1c-3.4,0-6.8,0.7-6.8,2.3c0,1.4,2.8,2.3,6.8,2.3l0,0c3.4,0,6.8-0.7,6.8-2.3
	C1569.4,275.8,1566,275.1,1562.6,275.1z"/>
<path class="st1" d="M1571.9,283.2v0.9h-18.6v-0.9h4.6v-2.9c-2-0.5-3.4-1.5-3.4-2.9c0-2.4,3.8-3.4,8.1-3.4s8,1,8,3.4
	c0,1.5-1.4,2.4-3.4,2.9v2.9H1571.9z M1570.6,289.4c0,2.5-4,3.2-8,3.2s-8-0.8-8-3.2s4-3.2,8-3.2S1570.6,286.9,1570.6,289.4z
	 M1562.6,280c3.7,0,7.1-0.8,7.1-2.6s-3.4-2.6-7.1-2.6s-7.1,0.8-7.1,2.6S1559,280,1562.6,280L1562.6,280z M1569.6,289.4
	c0-1.8-3.7-2.3-7-2.3s-7.1,0.5-7.1,2.3s3.7,2.4,7.1,2.4S1569.7,291.2,1569.6,289.4L1569.6,289.4z M1558.9,283.2h7.4v-2.7
	c-2.5,0.4-5,0.4-7.4,0V283.2z"/>
<path class="st1" d="M1589.8,293v-19.3h1.5v8.2h3v1.4h-3v9.7H1589.8z M1581.1,291.9c-3.1,0-5.3-2.5-5.3-5.9c0-3.4,2.2-5.9,5.3-5.9
	c3.1,0,5.3,2.5,5.3,5.9c0,0,0,0,0,0C1586.4,289.4,1584.1,291.9,1581.1,291.9z M1581,281.5c-2.2,0-3.8,1.9-3.8,4.5
	c0,3,1.9,4.5,3.8,4.5c2.2,0,3.8-1.9,3.8-4.5C1584.9,283,1582.9,281.5,1581,281.5z M1574.7,278.5v-1.4h5.6v-3.5h1.5l0,3.5h5.6v1.4
	H1574.7z"/>
<path class="st1" d="M1581.5,277.4h5.6v0.9H1575v-0.9h5.6v-3.5h0.9L1581.5,277.4z M1586.1,286c0,3.5-2.3,5.7-5,5.7s-5-2.2-5-5.7
	s2.3-5.6,5-5.6S1586.1,282.5,1586.1,286L1586.1,286z M1585.1,286c0-3-1.9-4.8-4.1-4.8s-4.1,1.8-4.1,4.8s1.9,4.8,4.1,4.8
	S1585.1,288.9,1585.1,286L1585.1,286z M1594,283h-3v9.7h-0.9v-18.7h0.9v8.2h3V283z"/>
<path class="st1" d="M1611.7,293v-5.8h-4l0.1-1.4h3.9v-5.4h-4l-0.1-1.4h4v-5.3h1.5V293H1611.7z M1602,292c-3.5,0-5.7-3.3-5.7-8.8
	s2.1-8.8,5.7-8.8s5.7,3.3,5.7,8.8S1605.5,292,1602,292z M1602,275.7c-2.6,0-4.1,2.8-4.1,7.4s1.5,7.4,4.1,7.4s4.1-2.8,4.1-7.4
	S1604.6,275.7,1602,275.7z"/>
<path class="st1" d="M1607.3,283.1c0,5.8-2.2,8.6-5.4,8.6s-5.4-2.8-5.4-8.6s2.2-8.6,5.4-8.6S1607.3,277.3,1607.3,283.1z
	 M1606.4,283.1c0-5.2-1.9-7.7-4.4-7.7s-4.4,2.5-4.4,7.7s1.9,7.7,4.4,7.7S1606.4,288.3,1606.4,283.1z M1612.9,273.9v18.8h-0.9v-5.8
	h-4l0.1-0.9h3.9v-5.9h-4l-0.1-0.9h4v-5.3L1612.9,273.9z"/>
<path class="st1" d="M710.1,327v-19.4h1.5V327H710.1z M705.1,326.7v-10.1h-3.5v-1.4h3.5v-7.4h1.5v18.9H705.1z M693.7,324.3l0.2-0.1
	c2.6-0.9,4-5.9,4.1-14.3h-4v-1.4h9.3v1.4h-3.8c0,2.1-0.1,4.2-0.3,6.3l4.9,8.6l-1.3,0.8l-4-7.1c-0.8,4.1-2.4,6.5-4.7,7.2l-0.4,0.1
	V324.3z"/>
<path class="st1" d="M698.8,316.3l4.8,8.4l-0.8,0.5l-4.2-7.5c-0.7,4.5-2.3,7.1-4.6,7.8v-0.9c3-1.1,4.2-6.8,4.3-14.8h-4v-0.9h8.7v0.9
	h-3.8C699.2,311.9,699.1,314.1,698.8,316.3z M705.4,308.1h0.9v18.3h-0.9v-10.1h-3.5v-0.9h3.5V308.1z M711.3,307.9v18.8h-0.9v-18.8
	L711.3,307.9z"/>
<path class="st1" d="M730.1,327v-19.4h1.5v8.2h3v1.4h-3v9.7H730.1z M715.4,325.6v-1.4h0.3c5.3,0,8.7-4.3,8.7-11.2v-3h-9v-1.4h10.4
	v4.4c0,7.8-3.9,12.7-10.2,12.7H715.4z"/>
<path class="st1" d="M715.7,308.8h9.9v4.1c0,7.4-3.6,12.4-9.9,12.4v-0.9c5.6,0,9-4.5,9-11.5v-3.3h-9V308.8z M734.3,317h-3v9.7h-0.9
	v-18.8h0.9v8.2h3V317z"/>
<path class="st1" d="M757.4,327v-19.4h1.5v8.2h3v1.4h-3v9.7H757.4z M742.7,325.6v-1.4h0.3c5.4,0,8.7-4.3,8.7-11.2v-3h-9v-1.4h10.4
	v4.4c0,7.8-3.9,12.7-10.2,12.7H742.7z"/>
<path class="st1" d="M743,308.8h9.9v4.1c0,7.4-3.6,12.4-9.9,12.4v-0.9c5.6,0,9-4.5,9-11.5v-3.3h-9V308.8z M761.7,317h-3v9.7h-0.9
	v-18.8h0.9v8.2h3V317z"/>
<path class="st1" d="M764.8,326.6v-6h1.5v4.6h15.1v1.4H764.8z M779.2,322.2v-14.6h1.5v14.6H779.2z M763.6,317.8l0.2,0
	c3.6-0.6,5.7-3.5,5.8-7.9h-5.9v-1.4h12.8v1.4h-5.4c0,1.1-0.2,2.1-0.5,3.1l6.4,5.1l-0.9,1.2l-6.1-4.8c-1.1,2.5-3.5,4.3-6.2,4.8
	l-0.3,0.1V317.8z"/>
<path class="st1" d="M763.9,318.9V318c3.7-0.7,6-3.6,6.1-8.5h-5.9v-0.9h12.2v0.9h-5.4c0,1.2-0.2,2.4-0.5,3.5l6.3,5l-0.5,0.7
	l-6.1-4.9C769,316.5,766.6,318.4,763.9,318.9z M781.1,325.4v0.9h-16v-5.5h0.9v4.6L781.1,325.4z M780.4,321.9h-0.9v-14h0.9V321.9z"/>
<path class="st1" d="M799.8,326.8c-5.1,0-8-1.5-8-4c0-2.5,2.9-4,8-4c5.1,0,8,1.4,8,4C807.8,325.4,804.9,326.8,799.8,326.8z
	 M799.8,320.3c-3.9,0-6.5,1-6.5,2.6c0,1.6,2.5,2.6,6.5,2.6c4,0,6.5-1,6.5-2.6S803.8,320.3,799.8,320.3z M805.9,318.5v-10.9h1.5v4.4
	h3v1.4h-3v5H805.9z M791,317.9v-1.4h0.3c6.3,0,9.3-2,9.3-6.2v-0.6H791v-1.4h11.1v2c0,5-3.7,7.6-10.8,7.6H791z"/>
<path class="st1" d="M791.3,317.7v-0.9c6,0,9.6-1.9,9.6-6.5v-0.9h-9.6v-0.9h10.5v1.7C801.8,315.4,797.9,317.7,791.3,317.7z
	 M807.5,322.9c0,2.6-3.4,3.7-7.7,3.7s-7.7-1.1-7.7-3.7s3.4-3.7,7.7-3.7S807.5,320.2,807.5,322.9z M806.6,322.9c0-1.9-3-2.8-6.8-2.8
	s-6.8,0.9-6.8,2.8s3,2.8,6.8,2.8S806.6,324.8,806.6,322.9z M810.2,312.4v0.9h-3v5h-0.9v-10.3h0.9v4.4H810.2z"/>
<path class="st1" d="M813.5,326.6v-7.2h15.9v7.2H813.5z M827.8,325.1v-4.3h-12.9v4.3H827.8z M827.8,318.6v-5.5h-4.6v-1.4h4.6v-4.1
	l1.5,0v11H827.8z M812,316.6l0.2,0c3.5-0.6,5.5-3,5.8-6.8h-5.8v-1.4h12.6v1.4h-5.3c-0.1,0.9-0.2,1.8-0.5,2.7l6.5,4.4l-0.9,1.2
	l-6.2-4.2c-1.2,2.3-3.5,3.9-6.1,4.2l-0.3,0V316.6z"/>
<path class="st1" d="M812.2,317.8v-0.9c3.6-0.7,5.8-3.2,6-7.4h-5.8v-0.9h12v0.9h-5.3c0,1-0.2,2.1-0.5,3.1l6.4,4.3l-0.5,0.7l-6.2-4.2
	C817.1,315.8,814.8,317.4,812.2,317.8z M813.7,319.7H829v6.6h-15.3V319.7z M814.7,325.4h13.5v-4.9h-13.5V325.4z M829,307.9v10.4
	h-0.9v-5.5h-4.6V312h4.6v-4.1L829,307.9z"/>
<path class="st1" d="M848.3,327v-19.4h1.5v8.1h2.9v1.4h-2.9v9.9H848.3z M840.5,325.7c-0.3,0-0.7,0-1,0l-6.8,0v-1.4h4v-8.9h1.5v8.9
	h1.3c3.5,0,5.8-0.3,7.1-0.8l0.4-0.2v1.5l-0.2,0.1C844.7,325.4,842.6,325.7,840.5,325.7z M843,321.2V310h-9.5v-1.4h11v12.7H843z"/>
<path class="st1" d="M839.5,324.5c3.1,0,5.7-0.2,7.2-0.9v0.9c-2.3,0.7-4.7,1-7.1,0.8H833v-0.9h4v-8.9h0.9v8.9L839.5,324.5z
	 M843.3,309.7h-9.5v-0.9h10.5v12.1h-0.9V309.7z M852.5,316.8h-2.9v9.9h-0.9v-18.8h0.9v8.1h2.9V316.8z"/>
<path class="st1" d="M876.1,327v-19.4h1.6V327H876.1z M861.4,325.7v-17.2h11.6l-0.1,1.4h-10v14.3l6.5,0c1.6,0,3.2-0.3,4.7-0.9
	l0.4-0.2v1.5l-0.2,0.1c-1.5,0.6-3.1,0.9-4.8,0.9L861.4,325.7z"/>
<path class="st1" d="M872.6,309.7h-10v14.9h6.6c1.7,0,3.3-0.3,4.9-1v0.9c-1.5,0.6-3.2,0.9-4.9,0.9h-7.6v-16.6h11L872.6,309.7z
	 M877.4,326.7h-1v-18.8h1V326.7z"/>
<path class="st1" d="M896.8,327v-19.3h1.5v8.2h3v1.4h-3v9.7H896.8z M881.5,324.3l0.2-0.1c3.4-0.8,5.5-6.3,5.6-14.3h-5.5v-1.4h12.4
	v1.4h-5.4c0,2.2-0.3,4.5-0.7,6.7l6.7,8.1l-1.2,0.9l-5.9-7.2c-1.1,4.2-3.2,6.7-6,7.3l-0.3,0.1V324.3z"/>
<path class="st1" d="M887.9,316.7l6.6,7.9l-0.7,0.5l-6.1-7.4c-1.1,4.3-3.1,7-5.9,7.6v-0.9c3.8-0.9,5.8-7.1,5.9-14.9h-5.5v-0.9H894
	v0.9h-5.4C888.6,312,888.4,314.4,887.9,316.7z M901,317h-3v9.7h-0.9v-18.8h0.9v8.2h3V317z"/>
<path class="st1" d="M918.5,327v-19.4h1.5V327H918.5z M909.1,326c-3.6,0-5.8-3.3-5.8-8.8s2.2-8.8,5.8-8.8s5.8,3.3,5.8,8.8
	S912.8,326,909.1,326z M904.9,317.1c0,4.6,1.6,7.4,4.3,7.4c2.6,0,4.3-2.8,4.3-7.4s-1.6-7.4-4.3-7.4c-2.6,0-4.2,2.7-4.3,7.1
	L904.9,317.1z"/>
<path class="st1" d="M914.7,317.1c0,5.8-2.3,8.6-5.5,8.6s-5.5-2.8-5.5-8.6s2.3-8.6,5.5-8.6S914.7,311.3,914.7,317.1z M904.7,317.1
	c0,5.2,2,7.7,4.5,7.7s4.6-2.5,4.6-7.7s-2-7.7-4.6-7.7S904.6,311.9,904.7,317.1L904.7,317.1z M919.8,326.7h-0.9v-18.8h0.9V326.7z"/>
<path class="st1" d="M939.8,327v-10.7h-7.9v-1.4h7.9v-7.3h1.5V327H939.8z M932.1,325.7l-7.4,0v-17.3h1.5v15.8l6.1,0
	c1.6,0,3.1-0.3,4.6-0.9l0.4-0.2v1.5l-0.2,0.1c-1.5,0.6-3.1,0.9-4.7,0.9L932.1,325.7z"/>
<path class="st1" d="M932.1,324.5c1.7,0,3.3-0.3,4.9-0.9v0.9c-1.5,0.6-3.2,1-4.9,0.9H925v-16.7h0.9v15.8H932.1z M941,307.9v18.8
	h-0.9V316h-7.9v-0.9h7.9v-7.3L941,307.9z"/>
<polygon class="st1" points="944.7,325.9 944.7,324.5 953.5,324.5 953.5,320.3 946.2,320.3 946.2,313.7 961,313.7 961,310 
	946.1,310 946.1,308.5 962.5,308.5 962.5,315.1 947.6,315.1 947.6,318.9 962.8,318.9 962.8,320.3 954.9,320.3 954.9,324.4 
	963.8,324.5 963.8,325.9 "/>
<path class="st1" d="M963.5,324.8v0.9H945v-0.9h8.8V320h-7.3v-6h14.8v-4.3h-14.9v-0.9h15.8v6h-14.8v4.3h15.2v0.8h-7.8v4.7
	L963.5,324.8z"/>
<path class="st1" d="M982.2,327v-10.5h-5.5V315h5.5v-7.4h1.5V327H982.2z M972.8,317.6c-1.1,4.8-3.3,7.7-6.3,8.1l-0.3,0v-1.4l0.2,0
	c4.3-0.8,5.8-8.7,5.8-15.8v-0.3h1.5l0,0.3c0,2.4-0.1,4.8-0.5,7.2l6.3,9.3l-1.2,0.9L972.8,317.6z"/>
<path class="st1" d="M972.8,315.7l6.2,9.2l-0.7,0.5l-5.8-8.6c-1,4.9-3.1,8.1-6.2,8.5v-0.9c4.2-0.8,6-8.1,6-16.1h0.9
	C973.4,310.9,973.2,313.3,972.8,315.7z M983.4,307.9v18.8h-0.9v-10.5h-5.5v-0.9h5.5v-7.4H983.4z"/>
<path class="st1" d="M994.6,326.7v-1.4h3.7v-4.8h-3.4v-1.4h15.8v1.4h-3.4v4.8h3.6v1.4H994.6z M1005.6,325.3v-4.8h-5.9v4.8H1005.6z
	 M1008.8,318.3v-10.6h1.5v4.3l3-0.1v1.4h-3v4.9H1008.8z M999.3,317.6c-3.6,0-5.9-1.9-5.9-4.8c0-2.9,2.4-4.8,5.9-4.8
	c3.5,0,5.9,1.9,5.9,4.8C1005.2,315.7,1002.9,317.6,999.3,317.6z M999.3,309.3c-2.7,0-4.4,1.3-4.4,3.5c0,2.1,1.7,3.4,4.4,3.4
	c2.7,0,4.4-1.3,4.4-3.4C1003.8,310.7,1002,309.3,999.3,309.3z"/>
<path class="st1" d="M993.7,312.8c0-2.6,2.1-4.5,5.6-4.5s5.6,1.9,5.6,4.5s-2.1,4.5-5.6,4.5S993.7,315.4,993.7,312.8z M994.7,312.8
	c0,2.4,1.9,3.7,4.7,3.7s4.7-1.3,4.7-3.7s-1.9-3.7-4.7-3.7S994.7,310.4,994.7,312.8z M1006.9,325.5h3.7v0.9h-15.7v-0.9h3.7v-5.3h-3.4
	v-0.9h15.2v0.9h-3.4L1006.9,325.5z M999.4,325.5h6.5v-5.3h-6.5V325.5z M1013,312.3v0.9h-3v4.9h-0.9v-10h0.9v4.3L1013,312.3z"/>
<path class="st1" d="M1014.3,325.9v-1.4h19.1v1.4H1014.3z M1023.9,320.3c-5.2,0-8.5-2.4-8.5-6.1c0-3.7,3.3-6,8.5-6
	c5.2,0,8.5,2.4,8.5,6C1032.4,318,1029.1,320.3,1023.9,320.3z M1023.9,309.7c-4.2,0-7,1.8-7,4.6c0,2.8,2.7,4.6,7,4.6
	c4.2,0,7-1.9,7-4.6C1030.9,311.5,1028.1,309.7,1023.9,309.7z"/>
<path class="st1" d="M1033.2,325.6h-18.6v-0.9h18.6V325.6z M1032.1,314.3c0,3.5-3.2,5.8-8.2,5.8s-8.2-2.2-8.2-5.8s3.2-5.8,8.2-5.8
	C1028.9,308.5,1032.1,310.8,1032.1,314.3z M1016.6,314.3c0,3,2.9,4.9,7.3,4.9s7.3-2,7.3-4.9s-2.9-4.9-7.3-4.9
	S1016.6,311.4,1016.6,314.3z"/>
<polygon class="st1" points="1035.5,325.9 1035.5,324.5 1044.3,324.5 1044.3,320.3 1037,320.3 1037,313.7 1051.8,313.7 1051.8,310 
	1037,310 1037,308.5 1053.3,308.5 1053.3,315.1 1038.5,315.1 1038.5,318.9 1053.6,318.9 1053.6,320.3 1045.8,320.3 1045.8,324.4 
	1054.6,324.5 1054.6,325.9 "/>
<path class="st1" d="M1054.3,324.8v0.9h-18.6v-0.9h8.8V320h-7.3v-6h14.8v-4.3h-14.8v-0.9h15.8v6h-14.8v4.3h15.2v0.8h-7.9v4.7
	L1054.3,324.8z"/>
<path class="st1" d="M1078.4,327v-19.4h1.5v8.2h3v1.4h-3v9.7H1078.4z M1071.6,325.7l-7.7,0v-17.3h1.5v15.8l6.4,0
	c1.6,0,3.1-0.3,4.6-0.9l0.4-0.2v1.5l-0.2,0.1c-1.5,0.6-3.1,0.9-4.7,0.9L1071.6,325.7z"/>
<path class="st1" d="M1071.6,324.5c1.7,0,3.3-0.3,4.9-0.9v0.9c-1.5,0.6-3.2,1-4.9,0.9h-7.4v-16.7h0.9v15.8H1071.6z M1082.6,317h-3
	v9.7h-0.9v-18.8h0.9v8.2h3V317z"/>
<path class="st1" d="M1099.5,327v-19.4h1.5v8.2h3v1.4h-3v9.7H1099.5z M1090.5,326c-3.6,0-5.7-3.3-5.7-8.8s2.1-8.8,5.7-8.8
	c3.6,0,5.7,3.3,5.7,8.8S1094.1,326,1090.5,326z M1090.5,309.7c-2.6,0-4.2,2.8-4.2,7.4s1.6,7.4,4.2,7.4c2.6,0,4.2-2.7,4.3-7.1
	l-0.1-0.3C1094.6,312.5,1093.1,309.7,1090.5,309.7z"/>
<path class="st1" d="M1095.9,317.1c0,5.8-2.3,8.6-5.4,8.6s-5.4-2.8-5.4-8.6s2.3-8.6,5.4-8.6S1095.9,311.3,1095.9,317.1z
	 M1094.9,317.1c0-5.2-1.9-7.7-4.5-7.7s-4.5,2.5-4.5,7.7s1.9,7.7,4.5,7.7S1095,322.3,1094.9,317.1L1094.9,317.1z M1103.7,317h-3v9.7
	h-0.9v-18.8h0.9v8.2h3V317z"/>
<path class="st1" d="M1120.7,327v-19.4h1.5v8.2h3l0,1.4h-3v9.7H1120.7z M1106,325.6v-1.4h0.3c5.4,0,8.7-4.3,8.7-11.2v-3h-9v-1.4
	h10.4v4.4c0,7.8-3.9,12.7-10.2,12.7H1106z"/>
<path class="st1" d="M1106.3,308.8h9.9v4.1c0,7.4-3.6,12.4-9.9,12.4v-0.9c5.6,0,9-4.5,9-11.5v-3.3h-9V308.8z M1124.9,317h-3v9.7
	h-0.9v-18.8h0.9v8.2h3L1124.9,317z"/>
<path class="st1" d="M1126.3,325.9v-1.4h7.7v-9.3h1.5v9.3h9.9v1.4H1126.3z M1142.5,321.5l0-11.6h-14.9v-1.4h16.4v13H1142.5z"/>
<path class="st1" d="M1145.2,324.8v0.9h-18.6v-0.9h7.7v-9.3h0.9v9.3H1145.2z M1142.8,309.6h-14.9v-0.9h15.8v12.4h-0.9L1142.8,309.6z
	"/>
<path class="st1" d="M1163,327v-19.4h1.5v8.2h3v1.4h-3v9.7H1163z M1147.8,324.3l0.2-0.1c3.4-0.8,5.5-6.3,5.6-14.3h-5.5v-1.4h12.4
	v1.4h-5.4c0,2.2-0.2,4.5-0.6,6.7l6.7,8.1l-1.2,0.9l-5.9-7.2c-1.1,4.1-3.2,6.7-6,7.3l-0.3,0.1V324.3z"/>
<path class="st1" d="M1154.2,316.7l6.6,7.9l-0.7,0.5l-6.1-7.4c-1.1,4.3-3.1,7-5.9,7.6v-0.9c3.8-0.9,5.8-7.1,5.8-14.9h-5.5v-0.9h11.8
	v0.9h-5.4C1154.9,312,1154.6,314.4,1154.2,316.7z M1167.3,317h-3v9.7h-0.9v-18.8h0.9v8.2h3V317z"/>
<path class="st1" d="M1190.3,327v-19.3h1.5v8.2h3v1.4h-3v9.7H1190.3z M1181.7,325.9c-3.1,0-5.3-2.5-5.3-5.9c0-3.4,2.2-5.9,5.3-5.9
	c3.1,0,5.3,2.5,5.3,5.9c0,0,0,0,0,0C1186.9,323.4,1184.7,325.9,1181.7,325.9z M1181.6,315.5c-1.9,0-3.8,1.6-3.8,4.5
	c0,3,1.9,4.5,3.8,4.5c2.2,0,3.8-1.9,3.9-4.3l0-0.2C1185.4,317,1183.5,315.5,1181.6,315.5z M1175.3,312.5v-1.4h5.6v-3.5h1.5v3.5h5.6
	v1.4H1175.3z"/>
<path class="st1" d="M1182.1,311.4h5.6v0.9h-12.2v-0.9h5.6v-3.5h0.9V311.4z M1186.7,320c0,3.5-2.3,5.7-5,5.7s-5-2.2-5-5.7
	s2.3-5.6,5-5.6S1186.7,316.5,1186.7,320L1186.7,320z M1185.7,320c0-3-1.9-4.8-4.1-4.8s-4.1,1.9-4.1,4.8s1.9,4.8,4.1,4.8
	S1185.7,322.9,1185.7,320L1185.7,320z M1194.5,317h-3v9.7h-0.9v-18.7h0.9v8.2h3V317z"/>
<path class="st1" d="M1197.5,326.6v-6h1.5l0,4.6h15.1v1.4H1197.5z M1196,319v-1.4h19.1v1.4H1196z M1197.5,315.3v-7.6h1.5v6.1h14.8
	v1.4H1197.5z"/>
<path class="st1" d="M1214.8,318.7h-18.6v-0.9h18.6V318.7z M1198.7,325.5h15.1v0.9h-16v-5.4h0.9L1198.7,325.5z M1198.7,314.1h14.8
	v0.9h-15.7v-7h0.9L1198.7,314.1z"/>
<path class="st1" d="M1232.7,326.8c-5.1,0-8-1.3-8-3.8s2.8-3.8,8-3.8c5.1,0,8,1.4,8,3.8v0.3h-0.1
	C1240.5,325.6,1237.6,326.8,1232.7,326.8z M1232.7,320.7c-3.9,0-6.5,0.9-6.5,2.4c0,1.4,2.6,2.4,6.5,2.4c3.8,0,6.3-0.8,6.5-2.2l0-0.2
	C1239.2,321.6,1236.7,320.7,1232.7,320.7z M1238.8,319v-11.4h1.5v4.5h3v1.4h-3v5.4H1238.8z M1224.1,317.6v-9.5h1.5v3.4h8.2v-3.4h1.5
	v9.5H1224.1z M1233.8,316.2v-3.3h-8.2v3.3H1233.8z"/>
<path class="st1" d="M1235,317.3h-10.6v-8.9h0.9v3.4h8.7v-3.4h0.9L1235,317.3z M1240.4,323c0,2.5-3.4,3.5-7.7,3.5s-7.7-1-7.7-3.5
	s3.4-3.5,7.7-3.5S1240.4,320.6,1240.4,323L1240.4,323z M1234.1,316.5v-3.9h-8.7v3.9H1234.1z M1239.5,323c0-1.8-3-2.6-6.8-2.6
	s-6.8,0.9-6.8,2.6s3,2.6,6.8,2.6S1239.5,324.8,1239.5,323L1239.5,323z M1243,312.5v0.9h-3v5.4h-0.9v-10.8h0.9v4.5H1243z"/>
<path class="st1" d="M1253.9,326.8c-5.2,0-7.9-1.2-7.9-3.5s2.7-3.5,7.9-3.5c5.1,0,7.9,1.2,7.9,3.5
	C1261.9,325.6,1259.1,326.8,1253.9,326.8z M1253.9,321.3c-4,0-6.4,0.8-6.4,2s2.5,2,6.4,2s6.4-0.8,6.4-2S1257.9,321.3,1253.9,321.3z
	 M1260.1,319.7v-12h1.5v3h3v1.4l-3,0v3.3h3v1.4h-3v3H1260.1z M1251.1,319.2c-3.4,0-5.6-1.4-5.6-3.6c0-2.2,2.3-3.7,5.6-3.7
	c3.4,0,5.6,1.5,5.6,3.7C1256.7,317.8,1254.5,319.2,1251.1,319.2z M1251.1,313.3c-2.4,0-4.1,0.9-4.1,2.3c0,1.3,1.7,2.2,4.1,2.2
	s4.1-0.9,4.1-2.2C1255.3,314.2,1253.6,313.3,1251.1,313.3z M1244.5,311.1v-1.4h5.9v-2.3h1.5v2.3h5.9v1.4H1244.5z"/>
<path class="st1" d="M1257.5,310.8h-12.7v-0.9h5.9v-2.3h0.9v2.3h5.9L1257.5,310.8z M1245.8,315.6c0-2.1,2.2-3.4,5.3-3.4
	s5.3,1.3,5.3,3.4s-2.2,3.3-5.3,3.3S1245.8,317.6,1245.8,315.6z M1261.6,323.4c0,2.3-3.3,3.2-7.7,3.2s-7.7-0.9-7.7-3.2
	s3.3-3.2,7.7-3.2S1261.6,321.1,1261.6,323.4z M1246.7,315.6c0,1.4,1.7,2.4,4.4,2.4s4.4-1,4.4-2.4s-1.7-2.6-4.4-2.6
	S1246.7,314.1,1246.7,315.6z M1260.6,323.4c0-1.6-2.9-2.3-6.7-2.3s-6.7,0.7-6.7,2.3s2.9,2.3,6.7,2.3S1260.6,325,1260.6,323.4
	L1260.6,323.4z M1261.3,311.7v3.8h3v0.8h-3v3h-0.9v-11.5h0.9v3h3v0.8L1261.3,311.7z"/>
<path class="st1" d="M1275.5,326.8c-5.1,0-8-1.4-8-3.8c0-2.4,2.9-3.9,8-3.9c5.1,0,8,1.4,8,3.9c0,0,0,0,0,0
	C1283.6,325.4,1280.6,326.8,1275.5,326.8z M1275.5,320.6c-4,0-6.5,1-6.5,2.4c0,1.5,2.6,2.4,6.5,2.4s6.5-0.9,6.5-2.4
	C1282.1,321.5,1279.5,320.6,1275.5,320.6z M1281.9,318.8V313h-5.5v-1.4h5.5v-4h1.5v11.2H1281.9z M1265.8,316.8l0.2,0
	c3.6-0.8,5.9-4.2,5.9-8.6v-0.3h1.5l0,0.3c0,1.4-0.2,2.9-0.7,4.2l6.3,4.3l-0.9,1.1l-6.1-4.1c-1.2,2.3-3.4,3.9-6,4.5l-0.3,0.1V316.8z"
	/>
<path class="st1" d="M1266.1,317.9V317c4-0.9,6.1-4.7,6.1-8.8h0.9c0,1.5-0.2,3-0.8,4.3l6.3,4.3l-0.6,0.7l-6.1-4.2
	C1270.8,315.7,1268.6,317.4,1266.1,317.9z M1283.3,323c0,2.5-3.4,3.6-7.7,3.6s-7.8-1.1-7.8-3.6s3.4-3.6,7.8-3.6
	S1283.3,320.5,1283.3,323L1283.3,323z M1282.3,323c0-1.8-3-2.7-6.8-2.7s-6.8,0.9-6.8,2.7s3,2.7,6.8,2.7S1282.3,324.8,1282.3,323
	L1282.3,323z M1282.2,312.7h-5.5v-0.8h5.5v-4h0.9v10.6h-0.9V312.7z"/>
<path class="st1" d="M1288.2,326.6v-4.5h14.8v-1.6h-14.8v-1.4h16.3v4.4h-14.8v1.7h15.2v1.4H1288.2z M1286.8,317.4V316h19.1v1.4
	H1286.8z M1296.4,314.9c-5.3,0-8.3-1.3-8.3-3.6c0-2.3,3-3.6,8.3-3.6c5.2,0,8.3,1.3,8.3,3.6C1304.7,313.6,1301.6,314.9,1296.4,314.9z
	 M1289.5,311.6c0.3,1.2,2.9,1.9,6.8,1.9c4.2,0,6.8-0.8,6.8-2.2c0-1.3-2.7-2.2-6.8-2.2c-4.2,0-6.8,0.8-6.8,2.2L1289.5,311.6
	L1289.5,311.6z"/>
<path class="st1" d="M1305.6,317.1h-18.6v-0.8h18.6V317.1z M1304.4,311.4c0,2.4-3.8,3.3-8,3.3s-8-0.9-8-3.3s3.8-3.3,8-3.3
	S1304.4,309,1304.4,311.4z M1304.2,323.2h-14.8v2.2h15.2v0.8h-16.1v-3.9h14.8v-2.2h-14.8v-0.8h15.7V323.2z M1289.2,311.4
	c0,1.8,3.4,2.4,7.1,2.4s7.1-0.7,7.1-2.4s-3.4-2.5-7.1-2.5S1289.3,309.6,1289.2,311.4L1289.2,311.4z"/>
<path class="st1" d="M1314.1,325.9v-1.4h5.2v-4.9h-4.1v-1.4h3.7v-8h-3.5v-1.5h16.6v1.4h-3.5v8h3.7v1.4h-4.1v4.9l5.2,0v1.4H1314.1z
	 M1326.6,324.5v-4.9h-5.7v4.9H1326.6z M1327,318.1v-8h-6.6v8H1327z"/>
<path class="st1" d="M1333,324.8v0.9h-18.6v-0.9h5.2v-5.5h-4.1v-0.9h3.7v-8.5h-3.5V309h16v0.9h-3.5v8.5h3.7v0.9h-4.1v5.5L1333,324.8
	z M1320.2,318.4h7.1v-8.5h-7.1V318.4z M1320.6,324.8h6.3v-5.5h-6.3V324.8z"/>
<path class="st1" d="M1337.1,326.6V321h1.5v4.1h15.1v1.4H1337.1z M1351.6,322.3v-4.1h-3.7v-1.4h3.7V314h-3.7v-1.4h3.7v-5h1.5v14.7
	H1351.6z M1342,320.5c-3.3,0-5.6-1.7-5.6-4.1c0-2.5,2.2-4.1,5.6-4.1c3.3,0,5.6,1.7,5.6,4.1C1347.5,318.8,1345.3,320.5,1342,320.5z
	 M1342,313.6c-2.4,0-4.1,1.1-4.1,2.7s1.6,2.7,4.1,2.7c2.5,0,4.1-1.1,4.1-2.7S1344.5,313.6,1342,313.6z M1335.5,311.4V310h5.8v-2.6
	h1.5v2.6h5.3l-0.1,1.4H1335.5z"/>
<path class="st1" d="M1347.8,311.1h-12v-0.9h5.8v-2.6h0.9v2.6h5.3L1347.8,311.1z M1336.7,316.3c0-2.4,2.2-3.8,5.3-3.8
	s5.3,1.4,5.3,3.8s-2.2,3.8-5.3,3.8S1336.7,318.8,1336.7,316.3z M1353.4,325.4v0.9h-16v-5h0.9v4.1H1353.4z M1337.6,316.3
	c0,1.7,1.6,3,4.4,3s4.3-1.3,4.3-3s-1.6-3-4.3-3S1337.6,314.6,1337.6,316.3L1337.6,316.3z M1351.9,317.9h-3.7v-0.8h3.7v-3.3h-3.7
	v-0.8h3.7v-5h0.9V322h-0.9V317.9z"/>
<path class="st1" d="M1372,327v-19.3h1.5v8.2h3v1.4h-3v9.7H1372z M1363.3,325.9c-3.1,0-5.3-2.5-5.3-5.9c0-3.4,2.2-5.9,5.3-5.9
	c3.1,0,5.3,2.5,5.3,5.9c0,0,0,0,0,0C1368.6,323.4,1366.3,325.9,1363.3,325.9z M1363.2,315.5c-1.9,0-3.8,1.6-3.8,4.5
	c0,3,1.9,4.5,3.8,4.5c2.2,0,3.8-1.9,3.9-4.3l0-0.2C1367,317,1365.1,315.5,1363.2,315.5z M1356.9,312.5v-1.4h5.6v-3.5h1.5v3.5h5.6
	v1.4H1356.9z"/>
<path class="st1" d="M1363.7,311.4h5.6v0.9h-12.2v-0.9h5.6v-3.5h0.9V311.4z M1368.3,320c0,3.5-2.3,5.7-5,5.7s-5-2.2-5-5.7
	s2.3-5.6,5-5.6S1368.3,316.5,1368.3,320L1368.3,320z M1367.3,320c0-3-1.9-4.8-4.1-4.8s-4.1,1.9-4.1,4.8s1.9,4.8,4.1,4.8
	S1367.3,322.9,1367.3,320L1367.3,320z M1376.2,317h-3v9.7h-0.9v-18.7h0.9v8.2h3V317z"/>
<path class="st1" d="M1392.1,323.2c-0.9,1.7-2.5,3-4.4,3.3l-0.1,0l-3.4-3.2c-0.9,1.6-2.5,2.8-4.4,3.2l-0.3,0.1v-1.4l0.2,0
	c2.2-0.3,4.2-3.1,4.3-6.2l0-0.3l1.5,0.1l0,0.3c-0.1,1-0.3,2-0.7,3l3.2,3c2-0.6,3.6-3.2,3.7-6.1l0-0.3l1.5,0.1l0,0.3
	c0,0.9-0.2,1.9-0.5,2.8l4.5,3.8l-1,1L1392.1,323.2z M1393.9,318.7V316h-4.2l0.1-1.4l4.1,0v-3.2h-4.1l-0.1-1.4h4.2v-2.2h1.5v11.1
	H1393.9z M1383.8,318c-3.5,0-5.8-2-5.8-5s2.3-5,5.8-5c3.5,0,5.9,2,5.9,5S1387.3,318,1383.8,318z M1383.8,309.5
	c-2.6,0-4.4,1.4-4.4,3.6s1.7,3.6,4.4,3.6c2.7,0,4.4-1.4,4.4-3.6S1386.5,309.5,1383.8,309.5z"/>
<path class="st1" d="M1383.8,317.7c-3.5,0-5.6-2-5.6-4.7s2-4.7,5.6-4.7s5.6,2,5.6,4.7S1387.4,317.7,1383.8,317.7z M1383.8,316.9
	c2.8,0,4.7-1.5,4.7-3.9s-1.9-3.9-4.7-3.9s-4.6,1.5-4.6,3.9S1381.1,316.9,1383.8,316.9L1383.8,316.9z M1396.1,326.3l-4.1-3.5
	c-0.8,1.8-2.4,3.1-4.4,3.5l-3.5-3.4c-0.8,1.8-2.5,3-4.4,3.4v-0.9c2.3-0.4,4.4-3.2,4.6-6.5l0.9,0.1c-0.1,1.1-0.3,2.1-0.7,3.1l3.5,3.3
	c2.2-0.5,3.9-3.2,4.1-6.4l0.9,0.1c-0.1,1-0.2,2-0.6,2.9l4.4,3.7L1396.1,326.3z M1394.1,314.8V311h-4.1l-0.1-0.9h4.2V308h0.9v10.5
	h-0.9v-2.8h-4.1l0.1-0.9L1394.1,314.8z"/>
<path class="st1" d="M1400.3,326.6v-7.6h1.5v2.5h13.2v-2.5h1.5v7.6H1400.3z M1414.9,325.2V323h-13.2v2.2H1414.9z M1398.7,317.8v-1.4
	h19.2v1.4H1398.7z M1408.3,311.2c-2.2,2.3-5.2,3.6-8.4,3.7l-0.3,0v-1.4l0.3,0c3.5-0.1,7.9-2.4,8.7-5.9l0.1-0.3l1.4,0.2l-0.1,0.3
	c-0.1,0.8-0.4,1.6-0.9,2.3l8.1,3.7l-0.6,1.2L1408.3,311.2z"/>
<path class="st1" d="M1417.6,316.7v0.9H1399v-0.9H1417.6z M1399.9,314.6v-0.9c3.7-0.1,8.1-2.5,9-6.2l0.9,0.1c-0.2,0.9-0.5,1.7-1,2.5
	l8.1,3.7l-0.4,0.7l-8.3-3.8C1406,313.2,1403,314.5,1399.9,314.6z M1415.2,319.4h0.9v7h-15.6v-7h0.9v2.5h13.8L1415.2,319.4z
	 M1415.2,325.5v-2.8h-13.8v2.8H1415.2z"/>
<path class="st1" d="M1436,327v-19.4h1.6V327H1436z M1421.2,325.7v-17.3h1.5v15.8l6.6,0c1.6,0,3.1-0.3,4.6-0.9l0.4-0.2v1.5l-0.2,0.1
	c-1.5,0.6-3.1,1-4.7,1L1421.2,325.7z"/>
<path class="st1" d="M1422.4,324.5h6.7c1.7,0,3.3-0.3,4.9-0.9v0.9c-1.5,0.6-3.2,1-4.9,0.9h-7.6v-16.7h0.9V324.5z M1437.3,326.7h-1
	v-18.8h1V326.7z"/>
<path class="st1" d="M1456.7,327v-19.4h1.5v8.2h3l-0.1,1.4h-3v9.7H1456.7z M1442.2,325.7v-17.2h11.3v1.4h-9.8v14.3l6.3,0
	c1.6,0,3.2-0.3,4.7-0.9l0.4-0.2v1.5l-0.2,0.1c-1.5,0.6-3.1,0.9-4.8,0.9L1442.2,325.7z"/>
<path class="st1" d="M1449.9,324.5c1.7,0,3.3-0.3,4.9-1v0.9c-1.5,0.6-3.2,0.9-4.9,0.9h-7.4v-16.6h10.8v0.9h-9.8v14.9L1449.9,324.5z
	 M1460.9,317h-3v9.7h-0.9v-18.8h0.9v8.2h3L1460.9,317z"/>
<path class="st1" d="M1463.6,326.8c-0.7,0-1.3-0.6-1.3-1.3s0.6-1.3,1.3-1.3c0.7,0,1.3,0.6,1.3,1.3S1464.3,326.8,1463.6,326.8z"/>
<path class="st1" d="M1464.6,325.5c0,0.6-0.5,1-1,1c-0.6,0-1-0.5-1-1s0.5-1,1-1C1464.2,324.4,1464.6,324.9,1464.6,325.5z"/>
<g class="st2">
	<circle class="st1" cx="799.8" cy="543.3" r="107.4"/>
</g>
<g class="st3">
	<path class="st1" d="M799.8,837.9c-59.6,0-107.9-48.3-107.9-107.9c0-59.6,48.3-107.9,107.9-107.9c59.6,0,107.9,48.3,107.9,107.9
		l0,0C907.6,789.6,859.3,837.8,799.8,837.9z M799.8,623.1c-59,0-106.9,47.9-106.9,106.9c0,59,47.9,106.9,106.9,106.9
		c59,0,106.9-47.9,106.9-106.9l0,0C906.6,671,858.8,623.2,799.8,623.1z"/>
</g>
<path class="st1" d="M728.1,518.6l4.6,6.2l-1.4,1l-3.7-5.2c-1,3.2-2.8,5-5,5.2v-1.7c2.9-0.5,4.4-5.5,4.4-11.6l1.7,0.1
	C728.7,514.6,728.5,516.6,728.1,518.6z M737.5,519.6h-2v7h-1.7v-14.5h1.7v5.9h2V519.6z"/>
<path class="st1" d="M753.2,518.9v1.4h-14.5v-1.4h3.2v-1.8c-1.4-0.4-2.3-1.2-2.3-2.3c0-2,2.9-2.8,6.4-2.8s6.4,0.8,6.4,2.8
	c0,1.1-0.9,1.9-2.3,2.3v1.8H753.2z M752.3,524c0,2-2.9,2.7-6.4,2.7s-6.4-0.7-6.4-2.7s2.9-2.6,6.4-2.6S752.3,522,752.3,524L752.3,524
	z M746,516.3c2.5,0,4.6-0.5,4.6-1.5s-2.1-1.4-4.6-1.4s-4.6,0.4-4.6,1.4S743.4,516.3,746,516.3z M750.6,524c0-1-2.3-1.3-4.6-1.3
	s-4.6,0.3-4.6,1.3s2.2,1.3,4.6,1.3S750.6,525,750.6,524L750.6,524z M743.6,518.9h4.8v-1.5c-0.8,0.1-1.6,0.1-2.4,0.1
	c-0.8,0-1.6,0-2.4-0.1L743.6,518.9z"/>
<path class="st1" d="M760.6,518.8l4.7,5.8l-1.3,1l-3.8-5c-1,3-2.7,4.8-4.9,5.1v-1.7c2.6-0.5,4.1-4.5,4.1-9.9h-3.8v-1.5h9.1v1.5H761
	C761,515.7,760.9,517.3,760.6,518.8z M770.2,519.6h-2v7h-1.7v-14.5h1.7v5.9h2V519.6z"/>
<path class="st1" d="M785.5,518.9h-8.6v-6.4h8.6V518.9z M789.8,526.6l-6.4-2.2c-1.7,1.4-3.9,2.1-6.2,2V525c2.5,0,5-0.9,5.7-2.6h-5.6
	V521h5.5v-1.4h1.7v1.4h5.4v1.4h-5.3c-0.1,0.3-0.2,0.6-0.3,0.9l6,1.9L789.8,526.6z M783.8,513.9h-5.3v3.6h5.3V513.9z M789.7,520H788
	v-7.9h1.7V520z"/>
<path class="st1" d="M811.8,518.2v1.3h-14.5v-1.3H811.8z M800,525.2H811v1.2h-12.8V523h10.8v-1h-10.9v-1.2h12.5v3.5H800L800,525.2z
	 M809.1,516.2h-10.8V515h10.8v-1.5h-10.8v-1.3h12.4v5.2h-1.7V516.2z"/>
<path class="st1" d="M820.1,524.2c1.3,0,2.6-0.2,3.8-0.7v1.5c-1.2,0.5-2.5,0.7-3.8,0.7h-5.7v-7.5h6.3v-4.1h-6.4v-1.5h8v7.2H816v4.3
	H820.1z M828.8,519.6h-2v7h-1.7v-14.5h1.7v5.9h2V519.6z"/>
<path class="st1" d="M830.6,519.2c0-4.6,1.8-6.8,4.4-6.8s4.4,2.1,4.4,6.8s-1.8,6.7-4.4,6.7S830.6,523.8,830.6,519.2z M837.7,519.2
	c0-3.7-1.2-5.2-2.7-5.2s-2.7,1.5-2.7,5.2s1.2,5.2,2.7,5.2S837.7,522.9,837.7,519.2z M841.9,512.1h1.7v14.5h-1.7V512.1z"/>
<path class="st1" d="M851,520.7c-2.8,0-4.5-1.8-4.5-4.2s1.7-4.2,4.5-4.2c2.1-0.2,4,1.2,4.4,3.3h2.9v-3.5h1.6v10.8h-1.7v-5.7h-2.9
	C855.2,519.2,853.5,520.7,851,520.7z M860.3,524.9v1.5h-12.5v-4.8h1.7v3.2H860.3z M851,519.3c1.5,0,2.8-1.3,2.7-2.8
	s-1.3-2.8-2.8-2.7c-1.5,0-2.8,1.3-2.7,2.8c-0.1,1.5,1,2.7,2.5,2.8C850.8,519.3,850.9,519.3,851,519.3z"/>
<path class="st1" d="M877.2,524.4v1.5h-14.5v-1.5H877.2z M876.5,521.9h-12.8v-9.3h12.6v1.5h-10.9v2.4h10.7v1.5h-10.7v2.4h11.1
	L876.5,521.9z"/>
<path class="st1" d="M719.3,548.7h-5.5v-1.5h2.8v-3.5h1.7v3.5h1c1.6,0.1,3.2-0.1,4.8-0.6v1.5C722.5,548.6,720.9,548.8,719.3,548.7z
	 M721,541.8h-6.5v-1.5h8.2v5.7H721L721,541.8z M716.5,553h10.8v1.5h-12.5v-4.3h1.7V553z M729,544v1.6h-2v5.5h-1.7v-11h1.7v3.9H729z"
	/>
<path class="st1" d="M730.4,547.3v-1.4c2.2-0.3,3.7-1.5,4-3.2h-3.9v-1.4h3.9v-1.5h1.7v1.5h3.9v1.4h-3.9c0,0.4-0.1,0.7-0.3,1l4.4,2.2
	l-0.7,1.2l-4.4-2.2C734,546.3,732.2,547.2,730.4,547.3z M744.1,553.1v1.3h-12.7v-3.7h10.6v-1.2h-10.7v-1.3h12.3v3.7h-10.6v1.2H744.1
	z M743.7,547.4h-1.7v-7.3h1.7V547.4z"/>
<path class="st1" d="M749.3,548.5h-2v-2h2V548.5z"/>
<path class="st1" d="M757.7,548.1h-5.2v-7.6h8.8v1.4h-7.2v1.8h6.9v1.3h-6.9v1.8h3.7c1.6,0.1,3.1-0.2,4.6-0.7v1.4
	C760.9,547.9,759.3,548.2,757.7,548.1z M753,549.4h12.1v5H753V549.4z M754.7,553.1h8.8v-2.3h-8.8V553.1z M767.2,544.9h-2v3.7h-1.7
	v-8.5h1.7v3.2h2V544.9z"/>
<path class="st1" d="M782.9,549.9h-6.5v5.1h-1.7v-5.1h-6.3v-1.6h14.5L782.9,549.9z M780.1,542h-10.8v-1.6h12.5v6.6h-1.8V542z"/>
<path class="st1" d="M790.6,542.4h3.9v1.5H785v-1.5h3.8v-2.3h1.7L790.6,542.4z M793.8,549.5c0,2.7-1.7,4.4-4,4.4s-4-1.8-4-4.4
	s1.7-4.4,4-4.4S793.8,546.8,793.8,549.5L793.8,549.5z M792.1,549.5c0-1.8-1-3-2.4-3s-2.4,1.1-2.4,3s1.1,3,2.4,3
	S792.1,551.3,792.1,549.5L792.1,549.5z M799.9,547.6h-2v7h-1.7v-14.5h1.7v5.9h2V547.6z"/>
<path class="st1" d="M810.2,547.2c0,4.6-1.8,6.7-4.3,6.7s-4.3-2.1-4.3-6.7s1.8-6.8,4.3-6.8S810.2,542.6,810.2,547.2z M808.5,547.2
	c0-3.7-1.1-5.2-2.6-5.2s-2.6,1.5-2.6,5.2s1.1,5.2,2.6,5.2S808.5,550.9,808.5,547.2z M814.7,540.1v14.5h-1.7v-4h-2.5l0.1-1.6h2.3
	v-3.7h-2.3l-0.1-1.6h2.5v-3.6L814.7,540.1z"/>
<path class="st1" d="M822.8,547.2c0-4.6,1.8-6.8,4.4-6.8s4.4,2.1,4.4,6.8s-1.8,6.7-4.4,6.7S822.8,551.8,822.8,547.2z M829.9,547.2
	c0-3.7-1.2-5.2-2.7-5.2s-2.7,1.5-2.7,5.2s1.2,5.2,2.7,5.2S829.9,550.9,829.9,547.2L829.9,547.2z M834,540.1h1.7v14.5H834V540.1z"/>
<path class="st1" d="M842.9,542.4h3.1v1.5h-7.8v-1.5h3v-2.3h1.7L842.9,542.4z M845.5,549.5c0,2.9-1.4,4.5-3.4,4.5s-3.4-1.6-3.4-4.5
	s1.4-4.5,3.4-4.5S845.5,546.6,845.5,549.5z M844,549.5c0-1.9-0.8-3-1.8-3s-1.8,1.1-1.8,3s0.8,3,1.8,3S844,551.4,844,549.5L844,549.5
	z M852.5,540.1v14.5h-1.6v-7.1h-2.3v6.8H847v-14.2h1.6v5.8h2.3v-5.8L852.5,540.1z"/>
<path class="st1" d="M860.8,542.4h3.9v1.5h-9.4v-1.5h3.8v-2.3h1.7V542.4z M864,549.5c0,2.7-1.7,4.4-4,4.4s-4-1.8-4-4.4
	s1.7-4.4,4-4.4S864,546.8,864,549.5L864,549.5z M862.3,549.5c0-1.8-1-3-2.4-3s-2.4,1.1-2.4,3s1,3,2.4,3S862.3,551.3,862.3,549.5
	L862.3,549.5z M870.1,547.6h-2v7h-1.7v-14.5h1.6v5.9h2L870.1,547.6z"/>
<path class="st1" d="M885.8,552.3v1.6h-14.5v-1.6h5.4v-6.5h1.7v6.5H885.8z M883,542.2h-10.9v-1.6h12.7v9.6H883V542.2z"/>
<path class="st1" d="M720.6,568.5h8.6v6.9h-8.6V568.5z M721.2,576.9h12.3v1.4h-10.6v2.7h10.8v1.4h-12.5L721.2,576.9z M727.6,574
	v-4.1h-5.3v4.1L727.6,574z M731.9,568.1h1.7v8h-1.7V568.1z"/>
<path class="st1" d="M736.3,574.2h14.5v1.3h-14.5V574.2z M737.2,570.7c0-1.9,2.9-2.6,6.4-2.6s6.4,0.7,6.4,2.6s-2.9,2.7-6.4,2.7
	S737.2,572.6,737.2,570.7z M737.3,579h10.8v-1h-10.9v-1.3h12.5v3.5H739v1h11.1v1.2h-12.8V579z M748.2,570.7c0-1-2.1-1.4-4.6-1.4
	s-4.6,0.4-4.6,1.4s2.1,1.4,4.6,1.4S748.2,571.7,748.2,570.7L748.2,570.7z"/>
<path class="st1" d="M772,578.9h-6.4v4.1h-1.7v-4.1h-6.4v-1.6H772V578.9z M757.8,575.8v-1.6c3.1,0,6.1-2.8,6.7-6.2l1.7,0.3
	c-0.2,0.9-0.5,1.8-0.9,2.7l6.2,3.5l-0.8,1.4l-6.2-3.6C763,574.4,760.5,575.8,757.8,575.8L757.8,575.8z"/>
<path class="st1" d="M783.3,575.8c-2.8,0-4.5-1.5-4.5-3.8s1.8-3.8,4.5-3.8s4.5,1.5,4.5,3.8S786.1,575.8,783.3,575.8z M792.3,582.5
	l-2.8-2.3c-0.8,1.3-2.1,2.1-3.6,2.3l-2.5-2.2c-0.8,1.2-2.1,2-3.6,2.2v-1.5c1.6-0.2,3-2,3.2-4.3l1.6,0.2c-0.1,0.7-0.3,1.5-0.5,2.1
	l2.2,1.8c1.4-0.4,2.5-2.2,2.7-4.2l1.6,0.2c-0.1,0.7-0.2,1.4-0.5,2l3.1,2.4L792.3,582.5z M783.3,574.4c1.7,0,2.9-0.9,2.9-2.4
	s-1.2-2.4-2.9-2.4s-2.9,0.9-2.9,2.4S781.6,574.4,783.3,574.4L783.3,574.4z M792.1,576.2h-1.7v-8.1h1.7V576.2z"/>
<path class="st1" d="M794.9,575.3h14.5v1.5h-14.5V575.3z M795.9,578.1h1.7v2.9h11v1.5h-12.7V578.1z M795.9,568.1h1.7v4.1h10.9v1.5
	H796L795.9,568.1z"/>
<path class="st1" d="M816.9,568.6h8.5v1.5h-6.8v10h4.2c1.3,0,2.6-0.2,3.8-0.7v1.5c-1.2,0.5-2.5,0.7-3.8,0.7h-5.9V568.6z
	 M827.9,568.1h1.7v14.5h-1.7V568.1z"/>
<path class="st1" d="M837.9,574.8l4.7,5.8l-1.3,1l-3.8-5c-1,3-2.7,4.8-4.9,5.1v-1.7c2.6-0.5,4.1-4.5,4.1-9.9h-3.8v-1.5h9.1v1.5h-3.7
	C838.4,571.7,838.2,573.3,837.9,574.8z M847.6,575.6h-2v7h-1.7v-14.5h1.7v5.9h2V575.6z"/>
<path class="st1" d="M849.3,575.2c0-4.6,1.8-6.8,4.4-6.8s4.4,2.1,4.4,6.8s-1.8,6.7-4.4,6.7S849.3,579.8,849.3,575.2z M856.5,575.2
	c0-3.7-1.2-5.2-2.7-5.2s-2.7,1.5-2.7,5.2s1.2,5.2,2.7,5.2S856.5,578.9,856.5,575.2L856.5,575.2z M860.6,568.1h1.7v14.5h-1.7V568.1z"
	/>
<path class="st1" d="M871.4,580.2c1.3,0,2.6-0.2,3.8-0.7v1.5c-1.2,0.5-2.5,0.7-3.8,0.7h-5.5v-13.2h1.7v11.6H871.4z M878.8,568.1
	v14.5h-1.7v-7.8h-5.4v-1.6h5.4v-5.2H878.8z"/>
<path class="st1" d="M748.5,701.3h-9.9V700h4.1v-1.5h1.7v1.5h4.1L748.5,701.3z M739.3,704.8c0-1.7,1.8-2.7,4.3-2.7s4.2,0.9,4.2,2.7
	s-1.8,2.6-4.2,2.6S739.3,706.4,739.3,704.8L739.3,704.8z M752.1,710.7c0,1.9-2.7,2.6-6.2,2.6s-6.2-0.7-6.2-2.6s2.7-2.6,6.2-2.6
	S752.1,708.8,752.1,710.7L752.1,710.7z M740.9,704.8c0,0.8,1,1.3,2.7,1.3s2.7-0.5,2.7-1.3s-1-1.4-2.7-1.4S740.9,704,740.9,704.8
	L740.9,704.8z M750.3,710.7c0-0.9-1.9-1.3-4.4-1.3s-4.4,0.4-4.4,1.3s1.9,1.3,4.4,1.3S750.3,711.6,750.3,710.7L750.3,710.7z
	 M753.9,702.3v1.6h-2v3.7h-1.7v-8.8h1.7v3.5H753.9z"/>
<path class="st1" d="M755.1,706.5V705c2.8-0.5,4.4-3,4.4-6.1l1.7,0.1c0,1-0.2,2-0.5,3l4.5,2.9l-0.9,1.2l-4.3-2.8
	C758.9,705.1,757.1,706.3,755.1,706.5z M768.4,710.3c0,2.2-2.7,3-6.2,3s-6.2-0.8-6.2-3s2.8-3,6.2-3S768.4,708.2,768.4,710.3z
	 M766.6,710.3c0-1.1-1.9-1.6-4.4-1.6s-4.4,0.5-4.4,1.6s2,1.6,4.4,1.6S766.6,711.5,766.6,710.3z M770.2,701.6v1.6h-2v3.7h-1.7v-8h1.7
	v2.8L770.2,701.6z"/>
<path class="st1" d="M781.9,705.5l4.7,5.9l-1.3,1l-3.9-5c-1,3-2.7,4.8-4.9,5.1v-1.6c2.6-0.5,4.1-4.5,4.2-9.9h-3.8v-1.5h9.3v1.5h-3.7
	C782.4,702.4,782.2,704,781.9,705.5z M789.7,698.8v14.5H788v-14.5H789.7z"/>
<path class="st1" d="M807,708.6h-6.5v5.1h-1.7v-5.1h-6.3V707H807V708.6z M804.2,700.7h-10.7v-1.6H806v6.6h-1.8L804.2,700.7z"/>
<path class="st1" d="M828.2,709.6h-6.4v4.1H820v-4.1h-6.4V708h14.5L828.2,709.6z M814.2,706.5v-1.6c3-0.2,5.4-1.8,6-4.2h-5.7v-1.5
	h12.8v1.5H822c-0.1,0.5-0.3,1-0.5,1.5l6.3,2.8l-0.7,1.4l-6.5-2.9C819,705.4,816.6,706.4,814.2,706.5L814.2,706.5z"/>
<path class="st1" d="M835.9,707.9c1.6,0.1,3.2-0.1,4.8-0.6v1.5c-1.5,0.4-3.1,0.6-4.8,0.6h-0.1v3.9h-1.7v-3.9H830v-1.5H835.9z
	 M830.7,702.8c0-2.2,1.8-3.7,4.3-3.7s4.3,1.5,4.3,3.7s-1.8,3.7-4.3,3.7S830.7,705,830.7,702.8z M832.3,702.8c-0.2,1.5,0.8,2.8,2.3,3
	s2.8-0.8,3-2.3c0.2-1.5-0.8-2.8-2.3-3c-0.1,0-0.2,0-0.4,0c-1.3-0.1-2.5,0.8-2.7,2.1C832.3,702.7,832.3,702.7,832.3,702.8z
	 M843.6,698.8v14.5h-1.7v-14.5L843.6,698.8z"/>
<path class="st1" d="M846.4,705.5h14.5v1.2h-14.5V705.5z M847.4,709.9h10.9V709h-10.9v-1.2h12.5v3.2H849v1h11.1v1.2h-12.8V709.9z
	 M847.4,701.2h10.8v-1h-10.7V699h12.4v3.3H849v1h11v1.2h-12.6L847.4,701.2z"/>
<path class="st1" d="M782.5,732.9v1.4H768v-1.4h5.4v-2.8h1.7v2.8H782.5z M781.6,738.5c0,2-2.9,2.8-6.4,2.8s-6.4-0.8-6.4-2.8
	s2.9-2.8,6.4-2.8S781.6,736.5,781.6,738.5z M779.8,728.4H769V727h12.5v4.9h-1.7L779.8,728.4z M779.8,738.5c0-1-2.3-1.5-4.6-1.5
	s-4.6,0.4-4.6,1.5s2.3,1.5,4.6,1.5S779.8,739.5,779.8,738.5z"/>
<path class="st1" d="M784.7,735.5V734c2.4-0.3,3.9-2.4,4.1-5.3h-3.9v-1.5h9.3v1.5h-3.7c0,0.8-0.2,1.5-0.4,2.2l4.5,3.3l-1,1.2
	l-4.1-3.1C788.5,734.1,786.7,735.3,784.7,735.5z M798.3,739.6v1.5h-12.7v-4.6h1.7v3.1H798.3z M796.3,730.2v-3.4h1.7v10.8h-1.7v-5.9
	h-2.8v-1.5H796.3z"/>
<path class="st1" d="M806.6,729.1h3.8v1.5H801v-1.5h3.8v-2.3h1.7L806.6,729.1z M809.8,736.2c0,2.7-1.7,4.4-4,4.4s-4-1.8-4-4.4
	s1.7-4.4,4-4.4S809.8,733.5,809.8,736.2L809.8,736.2z M808.1,736.2c0-1.8-1-3-2.4-3s-2.4,1.1-2.4,3s1.1,3,2.4,3
	S808.1,738.1,808.1,736.2L808.1,736.2z M815.9,734.3h-2v7h-1.7v-14.5h1.7v5.9h2V734.3z"/>
<path class="st1" d="M817.1,734h14.5v1.5h-14.5V734z M818.1,736.8h1.7v2.8h11v1.5h-12.7V736.8z M818.1,726.8h1.7v4.2h10.9v1.5h-12.5
	L818.1,726.8z"/>
<path class="st1" d="M755.6,765.6H752v4.1h-1.7v-4.1h-4v4.1h-1.7v-4.1h-3.6V764h14.5L755.6,765.6z M741.9,758.8
	c0-2.4,2.6-3.8,6.5-3.8s6.5,1.4,6.5,3.8s-2.6,3.8-6.5,3.8S741.9,761.2,741.9,758.8L741.9,758.8z M743.6,758.8c0,1.5,2,2.3,4.7,2.3
	s4.7-0.8,4.7-2.3s-2-2.3-4.7-2.3S743.6,757.3,743.6,758.8L743.6,758.8z"/>
<path class="st1" d="M757.7,758.4c0-2,1.8-3.4,4.5-3.4s4.5,1.4,4.5,3.4s-1.8,3.4-4.5,3.4S757.7,760.3,757.7,758.4z M758.9,765.3
	h10.5V764h-10.5v-1.3H771v3.8h-10.5v1.2h10.8v1.3h-12.5L758.9,765.3z M765,758.4c0-1.2-1.2-2-2.8-2s-2.8,0.8-2.8,2s1.2,2,2.8,2
	S765,759.6,765,758.4L765,758.4z M769.3,754.8h1.7v7.1h-1.7L769.3,754.8z"/>
<path class="st1" d="M783.6,757.6h-9.9v-1.4h4.1v-1.6h1.7v1.6h4.1L783.6,757.6z M774.4,761.4c0-1.9,1.9-3,4.3-3s4.3,1.1,4.3,3
	s-1.9,3-4.3,3S774.4,763.3,774.4,761.4z M776.5,767.6h10.8v1.5h-12.5v-4h1.7V767.6z M776,761.4c0,1,1,1.7,2.7,1.7s2.7-0.7,2.7-1.7
	s-1-1.7-2.7-1.7S776,760.4,776,761.4L776,761.4z M789,758.8v1.6h-2v5.3h-1.7v-10.9h1.7v4L789,758.8z"/>
<path class="st1" d="M800.5,761.5l4.7,5.8l-1.3,1l-3.8-5c-1,3-2.7,4.8-4.9,5.1v-1.6c2.6-0.5,4.1-4.5,4.1-9.9h-3.8v-1.5h9.1v1.5h-3.6
	C800.9,758.4,800.7,760,800.5,761.5z M810.1,762.3h-2v7h-1.7v-14.5h1.7v5.9h2V762.3z"/>
<path class="st1" d="M815.9,763.4c-2.8,0-4.5-1.8-4.5-4.2s1.7-4.2,4.5-4.2s4.5,1.8,4.5,4.2S818.7,763.4,815.9,763.4z M825.2,767.6
	v1.5h-12.5v-4.7h1.7v3.2H825.2z M815.9,762c1.5,0,2.8-1.3,2.8-2.8c0-1.5-1.3-2.8-2.8-2.8c-1.5,0-2.8,1.3-2.8,2.8
	c-0.1,1.4,1,2.7,2.4,2.8C815.6,762,815.7,762,815.9,762z M823.3,760.4V758h-2.5l-0.1-1.5h2.6v-1.7h1.7v10.8h-1.7v-3.7h-2.6l0.1-1.5
	L823.3,760.4z"/>
<path class="st1" d="M833.6,763.9c1.6,0.1,3.2-0.1,4.8-0.6v1.5c-1.5,0.4-3.1,0.6-4.8,0.6h-0.1v3.9h-1.7v-3.9h-4.1v-1.5H833.6z
	 M828.3,758.8c0-2.2,1.8-3.7,4.3-3.7s4.3,1.5,4.3,3.7s-1.8,3.7-4.3,3.7S828.3,761,828.3,758.8z M829.9,758.8c-0.2,1.5,0.8,2.8,2.3,3
	s2.8-0.8,3-2.3c0.2-1.5-0.8-2.8-2.3-3c-0.1,0-0.2,0-0.4,0c-1.3-0.1-2.5,0.8-2.7,2.1C829.9,758.7,829.9,758.7,829.9,758.8z
	 M841.2,754.8v14.5h-1.7v-14.5L841.2,754.8z"/>
<path class="st1" d="M844,762.7v-1.5c2.7-0.5,4.3-3.1,4.3-6.2l1.7,0.1c0,1.1-0.2,2.1-0.5,3.1l4.4,3l-0.9,1.2l-4.2-2.8
	C847.8,761.3,846,762.4,844,762.7z M857.8,766.4c0,2.1-2.8,2.9-6.3,2.9s-6.3-0.8-6.3-2.9s2.8-2.9,6.3-2.9S857.8,764.3,857.8,766.4
	L857.8,766.4z M856,766.4c0-1.1-2-1.6-4.5-1.6s-4.5,0.5-4.5,1.6s2,1.6,4.5,1.6S856,767.5,856,766.4L856,766.4z M856,758.7h-3.5v-1.5
	h3.5v-2.4h1.7v8.2H856L856,758.7z"/>
<g class="st2">
	<circle class="st1" cx="1194.3" cy="543.3" r="107.4"/>
</g>
<g class="st3">
	<path class="st1" d="M1194.3,837.9c-59.6,0-107.9-48.3-107.9-107.9s48.3-107.9,107.9-107.9c59.6,0,107.9,48.3,107.9,107.9
		C1302.1,789.6,1253.8,837.8,1194.3,837.9z M1194.3,623.1c-59,0-106.9,47.9-106.9,106.9c0,59,47.9,106.9,106.9,106.9
		S1301.2,789,1301.2,730C1301.1,671,1253.3,623.2,1194.3,623.1z"/>
</g>
<path class="st1" d="M1150.1,529.2v1.4h-14.5v-1.4H1150.1z M1140.5,525.1h-4v-1.4h5.7v4.6h-1.7L1140.5,525.1z M1138.2,536.5h3.8v1.4
	h-5.4V532h1.7L1138.2,536.5z M1146.7,532.6h3v1.3h-7.7v-1.3h3v-1.1h1.7L1146.7,532.6z M1149.2,536.3c0,1.3-1.5,1.9-3.3,1.9
	s-3.3-0.6-3.3-1.9s1.5-1.9,3.3-1.9S1149.2,535,1149.2,536.3L1149.2,536.3z M1147.4,525.1h-4.4v-1.4h6.1v4.6h-1.7V525.1z
	 M1147.7,536.3c0-0.5-0.9-0.7-1.8-0.7s-1.8,0.2-1.8,0.7s0.9,0.7,1.8,0.7S1147.7,536.7,1147.7,536.3z"/>
<path class="st1" d="M1152.1,527.3c0-2.2,1.8-3.7,4.6-3.7s4.5,1.5,4.5,3.7s-1.8,3.7-4.5,3.7S1152.1,529.5,1152.1,527.3z
	 M1153.3,532.2h12.1v5.7h-12.1V532.2z M1159.6,527.3c0-1.4-1.2-2.3-2.9-2.3s-2.9,0.9-2.9,2.3s1.2,2.3,2.9,2.3
	S1159.6,528.8,1159.6,527.3L1159.6,527.3z M1163.8,536.4v-2.8h-8.8v2.8H1163.8z M1163.8,523.5h1.7v7.9h-1.7V523.5z"/>
<path class="st1" d="M1172.9,530.8c-2.8,0-4.5-1.5-4.5-3.6s1.7-3.6,4.5-3.6c2.3,0,4,1.1,4.4,2.7h3v-2.9h1.7v7.5h-1.7V528h-3
	C1177,529.7,1175.3,530.8,1172.9,530.8z M1174.1,531.7h1.5v6.2h-6.1v-6.2h1.5v1.7h3L1174.1,531.7z M1172.9,529.5
	c1.7,0,2.8-0.8,2.8-2.2s-1.1-2.2-2.8-2.2s-2.8,0.8-2.8,2.2S1171.2,529.5,1172.9,529.5z M1174.1,536.5v-1.8h-3v1.8H1174.1z
	 M1182.4,537.8l-2.6-2.4c-0.7,1.3-2,2.2-3.6,2.4v-1.5c1.5-0.2,2.8-1.9,3-4.7l1.6,0.1c0,0.8-0.2,1.6-0.5,2.4l3,2.6L1182.4,537.8z"/>
<path class="st1" d="M1184.7,530.7h14.5v1.5h-14.5V530.7z M1185.7,533.5h1.7v2.8h11v1.5h-12.8L1185.7,533.5z M1185.7,523.5h1.7v4.1
	h10.9v1.5h-12.6V523.5z"/>
<path class="st1" d="M1214.8,530.3h-8.5v-6.5h1.7v1.8h5.2v-1.8h1.7L1214.8,530.3z M1208.4,536.5h10.8v1.3h-12.5v-3.8h10.4v-1.2
	h-10.5v-1.3h12.2v3.7h-10.4L1208.4,536.5z M1213.1,528.9v-2h-5.2v2H1213.1z M1220.9,526.1v1.5h-2v3.1h-1.7v-7.3h1.7v2.6
	L1220.9,526.1z"/>
<path class="st1" d="M1222.4,532.2v-1.5c2.4-0.3,3.9-2.4,4.1-5.3h-3.9v-1.5h9.3v1.5h-3.7c0,0.8-0.2,1.5-0.4,2.2l4.4,3.3l-1,1.2
	l-4.1-3.1C1226.2,530.8,1224.4,532,1222.4,532.2z M1236.1,536.3v1.5h-12.7v-4.6h1.7v3.1H1236.1z M1234.1,526.9v-3.4h1.7v10.8h-1.7
	v-5.9h-2.8v-1.5L1234.1,526.9z"/>
<path class="st1" d="M1238.5,529.6h14.5v1.4h-14.5L1238.5,529.6z M1239.3,526.1c0-1.9,2.9-2.6,6.4-2.6s6.4,0.7,6.4,2.6
	s-2.9,2.7-6.4,2.7S1239.3,528,1239.3,526.1z M1239.5,534.4h10.8v-1h-10.9v-1.3h12.6v3.5h-10.8v1h11.1v1.2h-12.8L1239.5,534.4z
	 M1250.3,526.1c0-1-2.1-1.4-4.6-1.4s-4.6,0.4-4.6,1.4s2.1,1.4,4.6,1.4S1250.3,527.1,1250.3,526.1z"/>
<path class="st1" d="M1137.2,559v1.3h-14.5V559h6.4v-1.3h-5.4v-6h12.5v1.3h-10.8v1.1h10.6v1.2h-10.6v1.1h10.9v1.3h-5.6v1.3H1137.2z
	 M1136.3,563.7c0,1.8-2.9,2.4-6.4,2.4s-6.4-0.7-6.4-2.4s2.9-2.4,6.4-2.4S1136.3,561.9,1136.3,563.7L1136.3,563.7z M1134.5,563.7
	c0-0.8-2.2-1.2-4.6-1.2s-4.6,0.3-4.6,1.2s2.2,1.2,4.6,1.2S1134.5,564.5,1134.5,563.7L1134.5,563.7z"/>
<path class="st1" d="M1143.4,553.8h3v1.5h-7.8v-1.5h3v-2.3h1.7L1143.4,553.8z M1146,560.9c0,2.9-1.4,4.5-3.4,4.5s-3.4-1.6-3.4-4.5
	s1.4-4.5,3.4-4.5S1146,558,1146,560.9L1146,560.9z M1144.5,560.9c0-1.9-0.8-3-1.8-3s-1.8,1.1-1.8,3s0.8,3,1.8,3
	S1144.5,562.8,1144.5,560.9z M1153,551.5V566h-1.6v-7.1h-2.3v6.8h-1.6v-14.2h1.6v5.8h2.3v-5.8L1153,551.5z"/>
<path class="st1" d="M1169.1,558.4h-8.5v-6.6h1.7v1.9h5.2v-1.9h1.7L1169.1,558.4z M1162.6,564.6h5.1v1.3h-6.6v-3.7h4.5V561h-4.5
	v-1.3h6.1v3.7h-4.5L1162.6,564.6z M1167.5,557v-2h-5.2v2L1167.5,557z M1167.9,559.8h5.4v6.1h-1.7v-4.7h-3.7V559.8z M1175.3,555.7h-2
	v3.3h-1.7v-7.4h1.7v2.6h2V555.7z"/>
<path class="st1" d="M1176.5,559.1h14.5v1.4h-14.5L1176.5,559.1z M1177.3,554.6c0-2.1,2.9-3.2,6.4-3.2s6.4,1,6.4,3.2
	s-2.9,3.2-6.4,3.2S1177.3,556.7,1177.3,554.6z M1177.5,561.7h1.7v2.7h11v1.4h-12.8L1177.5,561.7z M1188.4,554.6
	c0-1.2-2.1-1.8-4.7-1.8s-4.7,0.6-4.7,1.8s2.1,1.8,4.7,1.8S1188.4,555.8,1188.4,554.6z"/>
<path class="st1" d="M1198.4,552h8.2v13.1h-8.2V552z M1205,563.5v-10h-4.9v10H1205z M1209.5,551.5h1.7V566h-1.7V551.5z"/>
<path class="st1" d="M1217.1,563.7c1.4,0.1,2.9-0.2,4.2-0.7v1.5c-1.4,0.5-2.8,0.7-4.2,0.7h-2.7v-7.4h4.3v-4.2h-4.3V552h5.9v7.2h-4.3
	v4.4L1217.1,563.7z M1227.9,551.5V566h-1.6v-7.1h-2.4v6.8h-1.6v-14.2h1.6v5.8h2.4v-5.8L1227.9,551.5z"/>
<path class="st1" d="M1235.4,552h6.1v3.9c0,5.6-2.5,9.2-6.1,9.2v-1.6c2.7-0.1,4.4-3,4.4-7.5v-2.5h-4.4V552z M1249,551.5V566h-1.6
	v-7.1h-2.5v6.8h-1.6v-14.2h1.6v5.8h2.5v-5.8L1249,551.5z"/>
<path class="st1" d="M1251.7,560.2v-1.5c2.2-0.3,3.9-2.1,4-4.3h-3.9V553h3.8v-1.8h1.7v1.8h3.8v1.4h-3.8c0,0.5-0.2,1.1-0.3,1.6
	l4.4,2.9l-0.8,1.3l-4.2-2.8C1255.4,559,1253.6,560.1,1251.7,560.2z M1252.6,561.4h12.5v4.6h-1.7v-3.2h-10.8V561.4z M1265.1,551.5
	v9.1h-1.7v-3.7h-2.8v-1.5h2.8v-3.9H1265.1z"/>
<path class="st1" d="M1150.4,717.7h-8.5v-7.2h1.7v2.1h5.2v-2.1h1.7V717.7z M1142.4,719.1h12.1v5.4h-12.1V719.1z M1148.7,716.2v-2.3
	h-5.2v2.3H1148.7z M1144.1,723.1h8.8v-2.6h-8.8V723.1z M1156.5,714.8h-2v3.5h-1.7v-8.1h1.7v3h2V714.8z"/>
<path class="st1" d="M1168.4,712.5h3.9v1.5h-9.4v-1.5h3.8v-2.3h1.7L1168.4,712.5z M1171.6,719.6c0,2.7-1.7,4.4-4,4.4s-4-1.8-4-4.4
	s1.7-4.4,4-4.4S1171.6,716.9,1171.6,719.6L1171.6,719.6z M1169.9,719.6c0-1.8-1.1-3-2.4-3s-2.4,1.1-2.4,3s1.1,3,2.4,3
	S1169.9,721.5,1169.9,719.6L1169.9,719.6z M1177.7,717.7h-2v7h-1.7v-14.5h1.7v5.9h2L1177.7,717.7z"/>
<path class="st1" d="M1178.8,716.2h14.5v1.3h-14.5V716.2z M1179.8,721h10.8v-1h-10.9v-1.3h12.5v3.5h-10.8v1h11.1v1.3h-12.8V721z
	 M1179.8,710.2h1.7v3.5h10.9v1.3h-12.6L1179.8,710.2z"/>
<path class="st1" d="M1195.2,716.4h14.5v1.3h-14.5V716.4z M1196.1,712.8c0-1.9,2.9-2.6,6.4-2.6s6.4,0.7,6.4,2.6s-2.9,2.7-6.4,2.7
	S1196.1,714.7,1196.1,712.8z M1196.2,721.1h10.8v-1h-10.9v-1.3h12.5v3.5h-10.8v1h11.1v1.3h-12.8L1196.2,721.1z M1207.1,712.8
	c0-1-2.1-1.4-4.6-1.4s-4.6,0.4-4.6,1.4s2.1,1.4,4.6,1.4S1207.1,713.8,1207.1,712.8z"/>
<path class="st1" d="M1225.3,717.1h-8.5v-6.6h1.7v1.9h5.2v-1.9h1.7L1225.3,717.1z M1218.8,723.3h5.1v1.3h-6.7v-3.7h4.5v-1.1h-4.6
	v-1.3h6.1v3.7h-4.5L1218.8,723.3z M1223.7,715.7v-2.1h-5.2v2.1H1223.7z M1224.1,718.5h5.4v6.1h-1.7v-4.7h-3.7V718.5z M1231.5,714.4
	h-2v3.3h-1.7v-7.5h1.7v2.6h2V714.4z"/>
<path class="st1" d="M1241.4,710.3h1.6v14.2h-1.6v-6.8h-2.6c-0.7,3.8-2.9,6.1-5.8,6.2v-1.6c2.7-0.1,4.4-3,4.4-7.5v-2.5h-4.4v-1.5
	h6.1v3.9c0,0.5,0,1,0,1.4h2.4L1241.4,710.3z M1246.6,710.2v14.5h-1.6v-14.5H1246.6z"/>
<path class="st1" d="M1186.2,738.6h1.7v13.2h-8.2v-13.2h1.7v5h4.9L1186.2,738.6z M1186.2,750.3v-5.1h-4.9v5.1H1186.2z M1192.4,738.2
	v14.5h-1.7v-14.5L1192.4,738.2z"/>
<path class="st1" d="M1203.3,746.5v1.5h5.4v4.6h-12.5V748h5.4v-1.5h-6.4v-1.3h14.5v1.3L1203.3,746.5z M1202.1,742.3
	c-1.9,1.2-4.1,1.8-6.3,1.8v-1.3c2.4-0.1,5.2-0.8,5.9-2.4h-5.7v-1.3h5.6v-1.4h1.7v1.4h5.5v1.3h-5.4c-0.1,0.3-0.2,0.6-0.4,0.8l6.1,1.6
	l-0.4,1.3L1202.1,742.3z M1207.1,749.3h-9.1v1.9h9.1L1207.1,749.3z"/>
<g class="st2">
	<circle class="st1" cx="1588.8" cy="543.3" r="107.4"/>
</g>
<g class="st3">
	<path class="st1" d="M1588.8,837.9c-59.6,0-107.9-48.3-107.9-107.9s48.3-107.9,107.9-107.9c59.6,0,107.9,48.3,107.9,107.9
		C1696.6,789.6,1648.3,837.8,1588.8,837.9z M1588.8,623.1c-59,0-106.9,47.9-106.9,106.9c0,59,47.9,106.9,106.9,106.9
		S1695.7,789,1695.7,730C1695.6,671,1647.8,623.2,1588.8,623.1z"/>
</g>
<path class="st1" d="M1517.8,535.6c1.3,0,2.6-0.2,3.8-0.7v1.5c-1.2,0.5-2.5,0.7-3.8,0.7h-5.7V524h8.4v1.5h-6.7v10.1L1517.8,535.6z
	 M1526.5,531h-2v7h-1.7v-14.5h1.7v5.9h2V531z"/>
<path class="st1" d="M1532.2,531c-2.8,0-4.5-1.5-4.5-3.7s1.7-3.7,4.5-3.7s4.5,1.5,4.5,3.7S1535,531,1532.2,531z M1541.1,535
	c0,2.2-2.7,3-6.1,3s-6.1-0.8-6.1-3s2.7-3,6.1-3S1541.1,532.8,1541.1,535L1541.1,535z M1532.2,529.6c1.7,0,2.8-0.8,2.8-2.3
	s-1.1-2.3-2.8-2.3s-2.8,0.9-2.8,2.3S1530.6,529.6,1532.2,529.6L1532.2,529.6z M1539.2,535c0-1.1-1.9-1.6-4.3-1.6s-4.3,0.5-4.3,1.6
	s1.9,1.6,4.3,1.6S1539.3,536.1,1539.2,535L1539.2,535z M1540.8,526.3v2h2v1.4h-2v1.7h-1.7v-8h1.7v1.4h2v1.5L1540.8,526.3z"/>
<path class="st1" d="M1553.9,526.3h-9.9v-1.4h4.1v-1.6h1.7v1.6h4.1L1553.9,526.3z M1544.6,530c0-1.9,1.9-3,4.3-3s4.3,1.1,4.3,3
	s-1.9,3-4.3,3S1544.6,532,1544.6,530z M1546.8,536.3h10.8v1.5H1545v-4h1.7L1546.8,536.3z M1546.3,530c0,1,1,1.7,2.7,1.7
	s2.7-0.7,2.7-1.7s-1-1.7-2.7-1.7S1546.3,529.1,1546.3,530z M1559.3,527.5v1.6h-2v5.3h-1.7v-10.9h1.7v4L1559.3,527.5z"/>
<path class="st1" d="M1575,526.2h-9.9v-1.3h4.1v-1.6h1.7v1.6h4.1V526.2z M1565.8,529.8c0-1.8,1.9-2.8,4.3-2.8s4.3,1,4.3,2.8
	s-1.9,2.8-4.3,2.8S1565.7,531.5,1565.8,529.8L1565.8,529.8z M1566.1,533.5h12.3v4.5h-1.7v-3H1566L1566.1,533.5z M1567.4,529.8
	c0,0.9,1,1.5,2.7,1.5s2.7-0.7,2.7-1.5s-1-1.5-2.7-1.5S1567.4,528.9,1567.4,529.8L1567.4,529.8z M1580.4,528.8h-2v3.9h-1.7v-9.3h1.7
	v3.7h2V528.8z"/>
<path class="st1" d="M1596,531v1.4h-6.4v2.5h-1.7v-2.5h-6.4V531H1596z M1584.2,536.5h11v1.4h-12.8v-4.2h1.7L1584.2,536.5z
	 M1594.9,529.5h-12.4v-5.8h12.5L1594.9,529.5z M1593.3,525.1h-9v3h9V525.1z"/>
<path class="st1" d="M1612.4,526.2h-9.9v-1.3h4.1v-1.6h1.7v1.6h4.1L1612.4,526.2z M1603.2,529.8c0-1.8,1.9-2.8,4.3-2.8
	s4.3,1,4.3,2.8s-1.9,2.8-4.3,2.8S1603.2,531.5,1603.2,529.8z M1603.5,533.5h12.3v4.5h-1.7v-3h-10.6V533.5z M1604.8,529.8
	c0,0.9,1,1.5,2.7,1.5s2.7-0.7,2.7-1.5s-1-1.5-2.7-1.5S1604.8,528.9,1604.8,529.8z M1617.8,528.8h-2v3.9h-1.7v-9.3h1.7v3.7h2V528.8z"
	/>
<path class="st1" d="M1633.5,529.9v1.3H1619v-1.3H1633.5z M1626.1,526.2c-1.8,1.6-4.2,2.5-6.6,2.5v-1.4c2.8-0.1,5.9-1.7,6.5-4.2
	l1.7,0.3c-0.1,0.6-0.4,1.2-0.7,1.7l6,2.4l-0.6,1.3L1626.1,526.2z M1630.8,532.3h1.7v5.5H1620v-5.5h1.7v1.4h9.2L1630.8,532.3z
	 M1630.8,536.5V535h-9.2v1.5H1630.8z"/>
<path class="st1" d="M1635.3,535.8h14.5v1.6h-14.5V535.8z M1636,528.4c0-2.8,2.6-4.6,6.5-4.6s6.5,1.8,6.5,4.6s-2.6,4.6-6.5,4.6
	S1636.1,531.2,1636,528.4L1636,528.4z M1647.3,528.4c0-1.8-1.9-3.1-4.8-3.1s-4.8,1.2-4.8,3.1s1.9,3.1,4.8,3.1
	S1647.3,530.3,1647.3,528.4z"/>
<path class="st1" d="M1666.2,535.8v1.5h-14.5v-1.5h6.4V533h-5.4v-5.2h10.9v-2.3h-10.9V524h12.6v5.2h-10.9v2.3h11.1v1.5h-5.7v2.7
	L1666.2,535.8z"/>
<path class="st1" d="M1528.6,552h8.5v1.5h-6.8v10h4.2c1.3,0,2.6-0.2,3.8-0.7v1.5c-1.2,0.5-2.5,0.7-3.8,0.7h-5.9V552z M1539.6,551.5
	h1.7V566h-1.7V551.5z"/>
<path class="st1" d="M1549.6,558.2l4.7,5.8l-1.3,1l-3.8-5c-1,3-2.7,4.8-4.9,5.1v-1.7c2.6-0.5,4.1-4.5,4.1-9.9h-3.8V552h9.1v1.5h-3.7
	C1550,555.1,1549.9,556.7,1549.6,558.2z M1559.2,559h-2v7h-1.7v-14.5h1.7v5.9h2V559z"/>
<path class="st1" d="M1560.5,555.9c0-2.4,1.8-4.2,4.6-4.2s4.6,1.8,4.6,4.2s-1.8,4.2-4.6,4.2S1560.5,558.3,1560.5,555.9z
	 M1561.8,561.1h1.7v3.2h10.8v1.5h-12.5V561.1z M1568.1,555.9c0.1-1.6-1.2-3-2.8-3.1s-3,1.2-3.1,2.8s1.2,3,2.8,3.1c0.1,0,0.1,0,0.2,0
	c1.5,0.1,2.8-1,2.9-2.5C1568.1,556.1,1568.1,556,1568.1,555.9z M1572.3,551.5h1.7v10.8h-1.7L1572.3,551.5z"/>
<path class="st1" d="M1576.8,563.6h5.9c1.6,0.1,3.2-0.2,4.8-0.7v1.6c-1.6,0.5-3.2,0.8-4.9,0.7h-5.8L1576.8,563.6z M1577.2,556.4
	c0-2.5,2.1-4.5,4.6-4.4s4.5,2.1,4.4,4.6c0,2.4-2,4.4-4.5,4.4c-2.4,0.1-4.4-1.8-4.5-4.2C1577.2,556.6,1577.2,556.5,1577.2,556.4z
	 M1584.6,556.4c-0.1-1.6-1.4-2.8-3-2.7c-1.6,0.1-2.8,1.4-2.7,3c0.1,1.5,1.3,2.7,2.9,2.7c1.6,0,2.8-1.3,2.8-2.8
	C1584.6,556.5,1584.6,556.5,1584.6,556.4z M1588.7,551.5h1.7V566h-1.7V551.5z"/>
<path class="st1" d="M1598.2,558.5v-1.4c2.1-0.1,3.9-1.7,4.2-3.8h-4v-1.4h9.4v1.4h-3.8c0,0.5-0.2,1-0.3,1.5l4.6,2.3l-0.8,1.2
	l-4.5-2.3C1601.8,557.4,1600.1,558.3,1598.2,558.5z M1611.8,564.5v1.3h-12.7V562h10.6v-1.3h-10.7v-1.3h12.3v3.8h-10.6v1.3
	L1611.8,564.5z M1611.4,558.6h-1.7v-7.1h1.7V558.6z"/>
<path class="st1" d="M1628.8,554h-9.8v-1.3h4.1v-1.5h1.7v1.5h4.1L1628.8,554z M1619.6,557.4c0-1.7,1.8-2.7,4.3-2.7s4.2,0.9,4.2,2.7
	s-1.8,2.6-4.2,2.6S1619.6,559.1,1619.6,557.4L1619.6,557.4z M1632.3,563.3c0,1.9-2.7,2.6-6.2,2.6s-6.2-0.7-6.2-2.6s2.7-2.6,6.2-2.6
	S1632.3,561.4,1632.3,563.3L1632.3,563.3z M1621.2,557.4c0,0.8,1,1.3,2.7,1.3s2.7-0.5,2.7-1.3s-1-1.4-2.7-1.4
	S1621.2,556.6,1621.2,557.4L1621.2,557.4z M1630.6,563.3c0-0.9-1.9-1.3-4.4-1.3s-4.4,0.4-4.4,1.3s1.9,1.3,4.4,1.3
	S1630.6,564.3,1630.6,563.3L1630.6,563.3z M1632.1,554.7v1.8h2v1.5h-2v2.4h-1.7v-8.8h1.7v1.8h2v1.5L1632.1,554.7z"/>
<path class="st1" d="M1635.4,559.2v-1.5c2.8-0.5,4.4-3,4.4-6.1l1.7,0.1c0,1-0.2,2-0.5,3l4.5,2.9l-0.9,1.2l-4.3-2.8
	C1639.2,557.8,1637.4,559,1635.4,559.2z M1648.7,563c0,2.2-2.7,3-6.2,3s-6.2-0.8-6.2-3s2.8-3,6.2-3S1648.7,560.8,1648.7,563z
	 M1646.9,563c0-1.1-1.9-1.6-4.4-1.6s-4.4,0.5-4.4,1.6s2,1.6,4.4,1.6S1646.9,564.1,1646.9,563L1646.9,563z M1650.5,554.3v1.6h-2v3.7
	h-1.7v-8h1.7v2.8L1650.5,554.3z"/>
<path class="st1" d="M1560.3,728.2h-5.2V722h8.9v1.4h-7.2v3.4h3.6c1.5,0.1,3.1-0.2,4.6-0.6v1.4
	C1563.5,728.1,1561.9,728.3,1560.3,728.2z M1557.3,734.6h10.8v1.4h-12.5v-3.8h10.4v-1.3h-10.5v-1.3h12.2v3.8h-10.5L1557.3,734.6z
	 M1569.8,724.2v1.5h-2v3h-1.7v-7.1h1.7v2.6L1569.8,724.2z"/>
<path class="st1" d="M1571,733.7h5.9c1.6,0.1,3.2-0.2,4.8-0.7v1.6c-1.6,0.5-3.2,0.8-4.9,0.7h-5.8V733.7z M1571.5,726.5
	c0-2.5,2.1-4.5,4.6-4.4c2.5,0,4.5,2.1,4.4,4.6c0,2.5-2,4.4-4.5,4.4c-2.4,0.1-4.4-1.8-4.5-4.1
	C1571.5,726.8,1571.5,726.6,1571.5,726.5L1571.5,726.5z M1578.8,726.5c-0.1-1.6-1.4-2.8-3-2.7c-1.6,0.1-2.8,1.4-2.7,3
	c0.1,1.5,1.3,2.7,2.9,2.7c1.6,0,2.8-1.3,2.8-2.9C1578.8,726.6,1578.8,726.5,1578.8,726.5L1578.8,726.5z M1582.9,721.6h1.7v14.5h-1.7
	V721.6z"/>
<path class="st1" d="M1598,730.7c1.6,0.1,3.2-0.1,4.8-0.6v1.5c-1.5,0.4-3.1,0.6-4.7,0.6h-0.1v3.9h-1.7v-3.9h-4.1v-1.5H1598z
	 M1592.8,725.6c0-2.2,1.8-3.7,4.3-3.7s4.3,1.5,4.3,3.7s-1.8,3.7-4.3,3.7S1592.8,727.8,1592.8,725.6L1592.8,725.6z M1594.4,725.6
	c-0.2,1.5,0.8,2.9,2.3,3.1c1.5,0.2,2.9-0.8,3.1-2.3s-0.8-2.9-2.3-3.1c-0.1,0-0.2,0-0.4,0c-1.3-0.1-2.5,0.8-2.7,2.1
	C1594.4,725.5,1594.4,725.5,1594.4,725.6L1594.4,725.6z M1605.7,721.6v14.5h-1.7v-14.5L1605.7,721.6z"/>
<path class="st1" d="M1608.5,729.3v-1.5c2.8-0.5,4.4-3,4.4-6.1l1.7,0.1c0,1-0.2,2-0.5,3l4.5,2.9l-0.9,1.2l-4.3-2.8
	C1612.3,727.9,1610.5,729.1,1608.5,729.3z M1621.8,733.1c0,2.2-2.7,3-6.2,3s-6.2-0.8-6.2-3s2.8-3,6.2-3S1621.8,731,1621.8,733.1
	L1621.8,733.1z M1620,733.1c0-1.1-1.9-1.6-4.4-1.6s-4.4,0.5-4.4,1.6s1.9,1.6,4.4,1.6S1620,734.2,1620,733.1L1620,733.1z
	 M1623.6,724.4v1.6h-2v3.7h-1.7v-8h1.7v2.8L1623.6,724.4z"/>
</svg>
