<?xml version="1.0" encoding="utf-8"?>
<!-- Generator: Adobe Illustrator 26.0.2, SVG Export Plug-In . SVG Version: 6.00 Build 0)  -->
<svg version="1.1" id="레이어_1" xmlns="http://www.w3.org/2000/svg" xmlns:xlink="http://www.w3.org/1999/xlink" x="0px"
	 y="0px" viewBox="0 0 1993 803" style="enable-background:new 0 0 1993 803;" xml:space="preserve">
<style type="text/css">
	.st0{opacity:0;fill:#FFFFFF;}
	.st1{fill:#FFFFFF;}
</style>
<rect class="st0" width="1993" height="803"/>
<path class="st1" d="M692.9,286.4v-1.8c0-1.6,1.1-3,2.8-3.2l0.3,0v1.3l-0.2,0c-0.7,0.1-1.3,0.7-1.5,1.4h0.9v2.3H692.9z"/>
<path class="st1" d="M693.1,284.6c0-1.5,1.1-2.8,2.5-2.9v0.8c-1,0.2-1.7,1-1.7,2h0.9v1.7h-1.7L693.1,284.6z"/>
<polygon class="st1" points="703.7,300.3 703.7,283.8 697,283.8 697,282.3 712,282.3 711.9,283.8 705.2,283.8 705.2,300.3 "/>
<path class="st1" d="M711.6,283.5h-6.7V300H704v-16.5h-6.7v-0.9h14.4L711.6,283.5z"/>
<path class="st1" d="M724.4,300.3v-7.4c0-2.8-1.4-4.4-3.8-4.4c-2.6,0-4.6,2.7-4.6,5.1v6.7h-1.5v-18.5h1.5v7.8c1-1.6,2.8-2.5,4.7-2.5
	l0.1,0c3,0,5.1,2.3,5.1,5.6v7.5H724.4z"/>
<path class="st1" d="M714.7,282.1h0.9v8.6c0.8-2.1,2.9-3.4,5.1-3.4c2.8,0,4.9,2.1,4.9,5.4v7.3h-0.9v-7.1c0-3-1.6-4.6-4.1-4.6
	c-2.8,0-4.9,2.8-4.9,5.4v6.4h-0.9V282.1z"/>
<path class="st1" d="M734.9,300.6c-0.1,0-0.2,0-0.3,0c0,0,0,0,0,0c-3.6,0-6.3-2.9-6.3-6.8s2.7-6.8,6.3-6.8s6.3,2.9,6.3,6.8
	c0,0.1,0,0.3,0,0.4l0,0.3h-11c0.3,2.7,2.2,4.6,4.7,4.6c0.1,0,0.2,0,0.3,0c1.6,0,3.1-0.9,3.8-2.4l0.1-0.2h1.6l-0.2,0.4
	C739.4,299.2,737.3,300.6,734.9,300.6z M739.3,293.1c-0.3-2.7-2.2-4.6-4.7-4.6c-2.5,0-4.5,1.9-4.7,4.6H739.3z"/>
<path class="st1" d="M728.6,293.9c0-3.7,2.5-6.5,6-6.5s6,2.8,6,6.5c0,0.1,0,0.3,0,0.4h-11c0.2,3,2.2,5.2,5,5.2
	c1.9,0.1,3.6-0.9,4.4-2.5h1c-0.9,2.2-3.1,3.5-5.4,3.4C731.2,300.3,728.6,297.5,728.6,293.9z M739.6,293.4c-0.2-3-2.2-5.2-5-5.2
	s-4.9,2.2-5,5.2H739.6z"/>
<path class="st1" d="M757.9,293.5c-0.5,0.1-1,0.1-1.6,0.1h-5v6.7h-1.6v-17.9h6.4c4.5,0,7.3,2.2,7.3,5.6c0,2.5-1.5,4.4-4,5.2l4.7,7.1
	l-1.8,0L757.9,293.5z M756.1,292.2c3.8,0,5.9-1.5,5.9-4.2c0-2.7-2.1-4.2-5.9-4.2h-4.7v8.4H756.1z"/>
<path class="st1" d="M762.6,300l-4.5-6.8c-0.6,0.1-1.2,0.1-1.8,0.1h-5.2v6.7h-1v-17.4h6.1c4.4,0,7,2.1,7,5.4c0,2.5-1.5,4.3-4.2,5
	l4.7,7L762.6,300z M762.3,288c0-2.9-2.3-4.5-6.2-4.5h-5v8.9h5C759.9,292.5,762.3,290.9,762.3,288z"/>
<path class="st1" d="M772.2,300.6c-0.1,0-0.2,0-0.3,0c0,0,0,0,0,0c-3.6,0-6.3-2.9-6.3-6.8s2.7-6.8,6.3-6.8s6.3,2.9,6.3,6.8
	c0,0.1,0,0.3,0,0.4l0,0.3h-11c0.3,2.7,2.2,4.6,4.7,4.6c0.1,0,0.2,0,0.3,0c1.6,0,3.1-0.9,3.8-2.4l0.1-0.2h1.6l-0.2,0.4
	C776.7,299.2,774.6,300.6,772.2,300.6z M776.6,293.1c-0.3-2.7-2.2-4.6-4.7-4.6c-2.6,0-4.5,1.9-4.7,4.6H776.6z"/>
<path class="st1" d="M765.9,293.9c0-3.7,2.5-6.5,6-6.5s6,2.8,6,6.5c0,0.1,0,0.3,0,0.4h-11c0.2,3,2.2,5.2,5,5.2
	c1.9,0.1,3.6-0.9,4.4-2.5h1c-0.9,2.2-3.1,3.5-5.4,3.4C768.4,300.3,765.9,297.5,765.9,293.9z M776.9,293.4c-0.2-3-2.2-5.2-5-5.2
	s-4.9,2.2-5,5.2H776.9z"/>
<polygon class="st1" points="785.4,300.3 779.5,287.4 781.1,287.4 786.1,298.4 791,287.4 792.6,287.4 786.8,300.3 "/>
<path class="st1" d="M792.2,287.7l-5.6,12.3h-1l-5.6-12.3h1l5.1,11.4l5.1-11.4L792.2,287.7z"/>
<path class="st1" d="M800.4,299.9c-0.1,0-0.2,0-0.4,0c-3.5-0.2-6.2-3.2-6-6.8c0.2-3.4,3-6.1,6.4-6.1c1.7,0,3.3,0.7,4.5,1.9
	c1.2,1.2,1.9,2.8,1.9,4.6c0,0.1,0,0.2,0,0.3C806.6,297.3,803.8,299.9,800.4,299.9z M800.4,288.5c-2.8,0-4.9,2.2-4.9,5.3
	s2.1,5.3,4.9,5.3s4.9-2.2,4.9-5.3S803.3,288.5,800.4,288.5z"/>
<path class="st1" d="M806.5,293.9c-0.2,3.4-3.1,6-6.5,5.8c-3.4-0.2-6-3.1-5.8-6.5c0.2-3.2,2.9-5.8,6.1-5.8c3.4,0,6.1,2.8,6.1,6.2
	C806.6,293.7,806.6,293.8,806.5,293.9z M795.2,293.9c0,3.2,2.1,5.6,5.2,5.6s5.2-2.4,5.2-5.6s-2.1-5.6-5.2-5.6
	S795.2,290.7,795.2,293.9z"/>
<rect x="809.6" y="281.8" class="st1" width="1.5" height="18.5"/>
<path class="st1" d="M810.9,300h-0.9v-17.9h0.9V300z"/>
<path class="st1" d="M819.4,300.6c-3,0-5.1-2.4-5.1-5.6v-7.6h1.5v7.4c0,2.8,1.4,4.4,3.8,4.4c2.6,0,4.6-2.7,4.6-5.1v-6.7h1.5v12.9
	h-1.5v-2.1c-1,1.5-2.8,2.5-4.6,2.5L819.4,300.6z"/>
<path class="st1" d="M814.5,295v-7.3h0.9v7.1c0,3,1.6,4.6,4.1,4.6c2.7,0,4.9-2.8,4.9-5.3v-6.4h0.9V300h-0.9v-3
	c-0.8,2.1-2.8,3.4-5.1,3.4C816.6,300.3,814.5,298.2,814.5,295z"/>
<polygon class="st1" points="830.8,300.3 830.8,288.8 827.8,288.8 827.8,287.4 830.8,287.4 830.8,283.6 832.3,283.6 832.3,287.4 
	835.3,287.4 835.3,288.8 832.3,288.8 832.3,300.3 "/>
<path class="st1" d="M835,288.6h-3V300h-0.9v-11.4h-3v-0.9h3v-3.8h0.9v3.8h3V288.6z"/>
<path class="st1" d="M837.4,300.3v-12.9h1.5v12.9H837.4z M838.1,284.1c-0.6,0-1.1-0.5-1.1-1.1s0.5-1.1,1.1-1.1h0c0.6,0,1,0.4,1.1,1
	C839.2,283.6,838.7,284.1,838.1,284.1z"/>
<path class="st1" d="M838.9,283c0,0.4-0.3,0.8-0.8,0.8c-0.4,0-0.8-0.3-0.8-0.8s0.3-0.8,0.8-0.8C838.6,282.2,838.9,282.5,838.9,283
	C838.9,283,838.9,283,838.9,283z M838.6,300h-0.9v-12.3h0.9V300z"/>
<path class="st1" d="M848.1,299.9c-0.1,0-0.2,0-0.4,0c-3.5-0.2-6.2-3.2-6-6.8c0.2-3.4,3-6,6.4-6c1.7,0,3.3,0.7,4.5,1.9
	s1.9,2.8,1.9,4.6c0,0.1,0,0.2,0,0.3C854.3,297.3,851.5,299.9,848.1,299.9z M848.1,288.5c-2.8,0-4.9,2.2-4.9,5.3s2.1,5.3,4.9,5.3
	c2.8,0,4.9-2.2,4.9-5.3S850.9,288.5,848.1,288.5z"/>
<path class="st1" d="M854.2,293.9c-0.2,3.4-3.1,6-6.5,5.8s-6-3.1-5.8-6.5c0.2-3.2,2.9-5.8,6.1-5.8c3.4,0,6.1,2.8,6.1,6.2
	C854.2,293.7,854.2,293.8,854.2,293.9z M842.9,293.9c0,3.2,2.1,5.6,5.2,5.6s5.2-2.4,5.2-5.6s-2.1-5.6-5.2-5.6
	S842.9,290.7,842.9,293.9z"/>
<path class="st1" d="M867.2,300.3v-7.4c0-2.8-1.4-4.4-3.8-4.4c-2.6,0-4.6,2.7-4.6,5.1v6.7h-1.5v-12.9h1.5v2.2c1-1.6,2.8-2.5,4.7-2.5
	c3.1,0,5.2,2.3,5.2,5.6v7.5H867.2z"/>
<path class="st1" d="M857.6,287.7h0.9v3.1c0.8-2.1,2.8-3.4,5.1-3.4c2.8,0,4.8,2.1,4.8,5.4v7.3h-0.9v-7.1c0-3-1.6-4.6-4.1-4.6
	c-2.7,0-4.9,2.8-4.9,5.4v6.4h-0.9L857.6,287.7z"/>
<path class="st1" d="M883.7,299.9c-0.1,0-0.2,0-0.4,0c-3.5-0.2-6.2-3.2-6-6.8c0.2-3.4,3-6.1,6.4-6.1c1.7,0,3.3,0.7,4.5,1.9
	c1.2,1.2,1.9,2.8,1.9,4.6c0,0.1,0,0.2,0,0.3C889.9,297.3,887.1,299.9,883.7,299.9z M883.7,288.5c-2.8,0-4.9,2.2-4.9,5.3
	s2.1,5.3,4.9,5.3s4.9-2.2,4.9-5.3S886.6,288.5,883.7,288.5z"/>
<path class="st1" d="M889.8,293.9c-0.2,3.4-3.1,6-6.5,5.8c-3.4-0.2-6-3.1-5.8-6.5c0.2-3.2,2.9-5.8,6.1-5.8c3.4,0,6.1,2.8,6.1,6.2
	C889.8,293.7,889.8,293.8,889.8,293.9z M878.5,293.9c0,3.2,2.1,5.6,5.2,5.6s5.2-2.4,5.2-5.6s-2.1-5.6-5.2-5.6
	S878.5,290.7,878.5,293.9z"/>
<path class="st1" d="M894.3,300.3v-11.4h-2.8v-1.4h2.8v-2.6c0-1.9,1.1-3.1,2.8-3.1c0,0,0,0,0,0c0.5,0,0.9,0.1,1.3,0.1l0.2,0.1v1.4
	l-0.3-0.1c-0.3-0.1-0.6-0.1-1-0.1l-0.1,0c-1.2,0-1.4,1.1-1.4,1.7v2.6h3.1v1.3h-3.1v11.4H894.3z"/>
<path class="st1" d="M898.6,288.6h-3.1V300h-0.9v-11.4h-2.8v-0.9h2.8v-2.8c0-1.7,0.9-2.9,2.6-2.9c0.4,0,0.8,0,1.2,0.1v0.9
	c-0.4-0.1-0.8-0.1-1.1-0.1c-1.1,0-1.7,0.7-1.7,2v2.9h3.1V288.6z"/>
<polygon class="st1" points="908.7,300.3 908.7,288.8 905.7,288.8 905.7,287.4 908.7,287.4 908.7,283.6 910.2,283.6 910.2,287.4 
	913.2,287.4 913.2,288.8 910.2,288.8 910.2,300.3 "/>
<path class="st1" d="M912.9,288.6h-3V300H909v-11.4h-3v-0.9h3v-3.8h0.9v3.8h3L912.9,288.6z"/>
<path class="st1" d="M925.3,300.3v-7.4c0-2.8-1.4-4.4-3.9-4.4c-2.6,0-4.6,2.7-4.6,5.1v6.7h-1.5v-18.5h1.5v7.8c1-1.6,2.8-2.5,4.7-2.5
	l0.1,0c3,0,5.1,2.3,5.1,5.6v7.5H925.3z"/>
<path class="st1" d="M915.6,282.1h0.9v8.6c0.8-2.1,2.9-3.4,5.1-3.4c2.8,0,4.9,2.1,4.9,5.4v7.3h-0.9v-7.1c0-3-1.6-4.6-4.1-4.6
	c-2.8,0-4.9,2.8-4.9,5.4v6.4h-0.9V282.1z"/>
<path class="st1" d="M935.8,300.6c-0.1,0-0.2,0-0.3,0c0,0,0,0,0,0c-3.6,0-6.3-2.9-6.3-6.8s2.7-6.8,6.3-6.8s6.3,2.9,6.3,6.8
	c0,0.1,0,0.3,0,0.4l0,0.3h-11c0.3,2.7,2.2,4.6,4.7,4.6c0.1,0,0.2,0,0.3,0c1.6,0,3.1-0.9,3.8-2.4l0.1-0.2h1.6l-0.2,0.4
	C940.3,299.2,938.2,300.6,935.8,300.6z M940.2,293.1c-0.3-2.7-2.2-4.6-4.7-4.6c-2.5,0-4.4,1.9-4.7,4.6H940.2z"/>
<path class="st1" d="M929.5,293.9c0-3.7,2.5-6.5,6-6.5s6,2.8,6,6.5c0,0.1,0,0.3,0,0.4h-11c0.2,3,2.2,5.2,5,5.2
	c1.9,0.1,3.6-0.9,4.4-2.5h1c-0.9,2.2-3.1,3.5-5.4,3.4C932,300.3,929.5,297.5,929.5,293.9z M940.5,293.4c-0.2-3-2.2-5.2-5-5.2
	s-4.9,2.2-5,5.2H940.5z"/>
<polygon class="st1" points="966.5,300.3 966.5,285.5 960.2,297.3 958.8,297.3 952.3,285.4 952.3,300.3 950.8,300.3 950.8,282.4 
	952.3,282.4 959.5,295.5 966.6,282.4 968.1,282.4 968.1,300.3 "/>
<path class="st1" d="M951.1,282.6h1.1l7.3,13.5l7.3-13.5h1.1V300h-1v-15.7L960,297h-1.1l-6.9-12.7V300h-1L951.1,282.6z"/>
<path class="st1" d="M977.4,299.9c-0.1,0-0.2,0-0.4,0c-1.7-0.1-3.3-0.9-4.4-2.1c-1.1-1.3-1.7-2.9-1.6-4.6c0.2-3.4,3-6.1,6.4-6.1
	c1.7,0,3.3,0.7,4.5,1.9s1.9,2.8,1.9,4.6c0,0.1,0,0.2,0,0.3C983.7,297.3,980.8,299.9,977.4,299.9z M977.4,288.5
	c-2.8,0-4.9,2.2-4.9,5.3s2.1,5.3,4.9,5.3s4.9-2.2,4.9-5.3S980.3,288.5,977.4,288.5z"/>
<path class="st1" d="M983.6,293.9c-0.2,3.4-3.1,6-6.5,5.8c-3.4-0.2-6-3.1-5.8-6.5c0.2-3.2,2.9-5.8,6.1-5.8c3.4,0,6.1,2.8,6.1,6.2
	C983.6,293.7,983.6,293.8,983.6,293.9z M972.2,293.9c0,3.2,2.1,5.6,5.2,5.6s5.2-2.4,5.2-5.6s-2.1-5.6-5.2-5.6
	S972.2,290.7,972.2,293.9z"/>
<path class="st1" d="M992.4,299.9c-0.1,0-0.2,0-0.4,0c-3.5-0.2-6.2-3.2-6-6.8c0.2-3.4,3-6.1,6.4-6.1c1.7,0,3.3,0.7,4.5,1.9
	s1.9,2.8,1.9,4.6c0,0.1,0,0.2,0,0.3C998.6,297.3,995.8,299.9,992.4,299.9z M992.4,288.5c-2.8,0-4.9,2.2-4.9,5.3s2.1,5.3,4.9,5.3
	s4.9-2.2,4.9-5.3S995.2,288.5,992.4,288.5z"/>
<path class="st1" d="M998.5,293.9c-0.2,3.4-3.1,6-6.5,5.8c-3.4-0.2-6-3.1-5.8-6.5c0.2-3.2,2.9-5.8,6.1-5.8c3.4,0,6.1,2.8,6.1,6.2
	C998.5,293.7,998.5,293.8,998.5,293.9z M987.2,293.9c0,3.2,2.1,5.6,5.2,5.6s5.2-2.4,5.2-5.6s-2.1-5.6-5.2-5.6
	S987.2,290.7,987.2,293.9z"/>
<path class="st1" d="M1011.5,300.3v-7.4c0-2.8-1.4-4.4-3.8-4.4c-2.6,0-4.6,2.7-4.6,5.1v6.7h-1.5v-12.9h1.5v2.2
	c1-1.6,2.8-2.5,4.7-2.5c3.1,0,5.2,2.3,5.2,5.6v7.5H1011.5z"/>
<path class="st1" d="M1001.9,287.7h0.9v3.1c0.8-2.1,2.8-3.4,5.1-3.4c2.8,0,4.8,2.1,4.8,5.4v7.3h-0.9v-7.1c0-3-1.6-4.6-4.1-4.6
	c-2.7,0-4.9,2.8-4.9,5.4v6.4h-0.9V287.7z"/>
<path class="st1" d="M1014.6,285.3l0.2,0c0.7-0.1,1.3-0.7,1.5-1.4h-0.9v-2.3h2.3v1.8c0,1.6-1.1,3-2.8,3.2l-0.3,0V285.3z"/>
<path class="st1" d="M1017.4,283.4c0,1.5-1.1,2.8-2.5,2.9v-0.8c1-0.2,1.7-1,1.7-2h-0.9v-1.7h1.7L1017.4,283.4z"/>
<path class="st1" d="M1026.8,300.5v-5.7h1.5l0,4.3h15.1v1.4H1026.8z M1025.3,293.2v-1.4h19.1v1.4H1025.3z M1034.9,290
	c-3.9,0-8.4-1.1-8.4-4.2s4.5-4.2,8.4-4.2c3.9,0,8.4,1.1,8.4,4.2S1038.8,290,1034.9,290z M1028,286.1c0.3,1.6,3.7,2.5,6.8,2.5
	c3.4,0,6.9-1,6.9-2.8s-3.5-2.8-6.9-2.8c-3.4,0-6.8,1-6.8,2.8L1028,286.1L1028,286.1z"/>
<path class="st1" d="M1044.2,292.9h-18.6v-0.9h18.6V292.9z M1043,285.8c0,2.7-3.9,3.9-8.1,3.9s-8.1-1.3-8.1-3.9s3.9-3.9,8.1-3.9
	S1043,283.1,1043,285.8L1043,285.8z M1028,299.3h15.1v0.9h-16v-5.1h0.9L1028,299.3z M1027.7,285.8c0,2,3.5,3.1,7.2,3.1
	s7.2-1.1,7.2-3.1s-3.5-3.1-7.2-3.1S1027.8,283.8,1027.7,285.8L1027.7,285.8z"/>
<path class="st1" d="M1054.2,300.5v-4.9h14.1v-2h-14.1v-1.4h15.6v4.9h-14l0,2h14.7v1.4H1054.2z M1068.2,291.4v-9.8h1.5v4l3,0v1.4h-3
	v4.4H1068.2z M1053.5,290.4v-8.2h12v1.4H1055v5.3h4.5c0.3,0,0.7,0,1,0c2.1,0,4.1-0.3,6.1-1l0.4-0.1v1.5l-0.2,0.1
	c-1.4,0.6-4.1,1-7.5,1H1053.5z"/>
<path class="st1" d="M1059.4,290.1h-5.6v-7.6h11.4v0.9h-10.5v5.9h4.8c2.4,0.1,4.9-0.2,7.2-1v0.9
	C1065.5,289.7,1062.8,290.1,1059.4,290.1z M1055.4,299.3h14.7v0.9h-15.7v-4.3h14.1v-2.6h-14.1v-0.9h15v4.3h-14L1055.4,299.3z
	 M1072.4,285.9v0.9h-3v4.4h-0.9v-9.3h0.9v4L1072.4,285.9z"/>
<path class="st1" d="M1090,300.9v-19.4h1.5v19.4H1090z M1073.9,299.6v-1.4h7.3c3.2,0,5.8-0.3,7.1-1l0.4-0.2v1.5l-0.2,0.1
	c-1.4,0.6-4.1,1-7.5,1H1073.9z M1080.4,294c-3.3-0.1-5.9-2.8-5.8-6.1c0.1-3.2,2.7-5.8,5.9-5.8l0.1,0c3.1,0,5.7,2.5,5.8,5.7
	c0,0,0,0.1,0,0.1l0,0.3c-0.1,3.2-2.7,5.8-5.9,5.8L1080.4,294z M1076.1,288.2c0.1,2.4,2,4.2,4.4,4.2l0.2,0c1.2-0.1,2.3-0.6,3.1-1.4
	c0.8-0.9,1.2-2,1.2-3.2c-0.1-2.4-2-4.2-4.4-4.2l-0.1,0c-2.4,0-4.3,1.9-4.3,4.2c0,0,0,0.1,0,0.1L1076.1,288.2z"/>
<path class="st1" d="M1081,299.3h-6.9v-0.9h7c3.3,0,5.8-0.4,7.2-1v0.9C1087,298.9,1084.4,299.3,1081,299.3z M1086.2,288.2
	c-0.1,3.1-2.6,5.6-5.8,5.5c-3.1-0.1-5.6-2.6-5.5-5.8c0.1-3.1,2.6-5.6,5.7-5.5c3-0.1,5.6,2.4,5.6,5.4
	C1086.2,288,1086.2,288.1,1086.2,288.2L1086.2,288.2z M1075.8,288.2c0.1,2.6,2.3,4.6,4.9,4.5c2.6-0.1,4.6-2.3,4.5-4.9
	c-0.1-2.5-2.2-4.5-4.7-4.5c-2.6-0.1-4.7,2-4.7,4.5C1075.8,287.9,1075.8,288.1,1075.8,288.2L1075.8,288.2z M1091.3,300.6h-0.9v-18.8
	h0.9V300.6z"/>
<path class="st1" d="M1110.7,300.7c-4,0-8.3-1-8.3-3.7c0-2.7,4.3-3.7,8.3-3.7s8.3,1,8.3,3.7C1119,299.8,1114.7,300.7,1110.7,300.7z
	 M1110.7,294.7c-3.1,0-6.8,0.6-6.8,2.3c0,1.7,3.7,2.3,6.8,2.3c3.4,0,6.8-0.8,6.8-2.3C1117.5,295.5,1114.1,294.7,1110.7,294.7z
	 M1101.1,291.5v-1.4h7.8v-4.3h1.5v4.4l9.9,0v1.4H1101.1z M1117.3,288.9v-5.5h-14.7V282h16.2v7H1117.3z"/>
<path class="st1" d="M1120,290.3v0.9h-18.6v-0.9h7.8V286h0.9v4.4L1120,290.3z M1118.7,297c0,2.5-4,3.4-8,3.4s-8-1-8-3.4s4-3.4,8-3.4
	S1118.7,294.6,1118.7,297L1118.7,297z M1117.6,283.1h-14.7v-0.9h15.7v6.4h-0.9V283.1z M1117.8,297c0-1.8-3.8-2.6-7.1-2.6
	s-7.1,0.6-7.1,2.6s3.8,2.6,7.1,2.6S1117.8,298.8,1117.8,297L1117.8,297z"/>
<path class="st1" d="M1124.2,300.5v-6h1.5v4.6h14.9v1.4H1124.2z M1138.6,296.1v-8.4h-4.6v-1.4l4.6,0v-4.8h1.5v14.6H1138.6z
	 M1122.7,291.8l0.2,0c3.5-0.6,5.6-3.5,5.8-8.1h-5.8v-1.4h12.6v1.4h-5.3c0,1.1-0.2,2.2-0.5,3.3l6.3,5.1l-0.9,1.2l-5.9-4.7
	c-1.1,2.5-3.4,4.3-6.1,4.8l-0.3,0.1V291.8z"/>
<path class="st1" d="M1123,292.9V292c3.7-0.7,5.9-3.7,6-8.6h-5.8v-0.9h12v0.9h-5.3c0,1.3-0.2,2.5-0.6,3.7l6.2,5l-0.5,0.7l-6-4.8
	C1128.1,290.6,1125.8,292.5,1123,292.9z M1140.3,299.3v0.9h-15.8v-5.5h0.9v4.6H1140.3z M1138.9,286.6v-4.8h0.9v14h-0.9v-8.4h-4.6
	v-0.8L1138.9,286.6z"/>
<path class="st1" d="M1159.7,300.9v-19.4h1.5v19.4H1159.7z M1150.3,299.8c-3.6,0-5.8-3.3-5.8-8.8s2.2-8.8,5.8-8.8s5.8,3.3,5.8,8.8
	S1153.9,299.8,1150.3,299.8z M1146.1,291c0,4.6,1.6,7.4,4.3,7.4c2.6,0,4.3-2.8,4.3-7.4s-1.6-7.4-4.3-7.4c-2.6,0-4.3,2.7-4.3,7.1
	L1146.1,291z"/>
<path class="st1" d="M1155.8,291c0,5.8-2.3,8.6-5.5,8.6s-5.5-2.8-5.5-8.6s2.3-8.6,5.5-8.6S1155.8,285.2,1155.8,291z M1145.8,291
	c0,5.2,2,7.7,4.6,7.7s4.6-2.5,4.6-7.7s-2-7.7-4.6-7.7S1145.7,285.8,1145.8,291L1145.8,291z M1160.9,300.6h-0.9v-18.8h0.9V300.6z"/>
<path class="st1" d="M1180.2,300.9v-19.4h1.5v8.2h3v1.4h-3v9.7H1180.2z M1173.4,299.6l-7.7,0v-9.5h9.2v-6.2h-9.2v-1.4h10.7v9.1h-9.2
	v6.7l6.4,0c1.6,0,3.1-0.3,4.5-0.9l0.4-0.2v1.5l-0.2,0.1c-1.5,0.6-3.1,0.9-4.7,0.9L1173.4,299.6z"/>
<path class="st1" d="M1173.4,298.4c1.7,0,3.3-0.3,4.9-0.9v0.9c-1.5,0.6-3.2,0.9-4.9,0.9h-7.4v-8.9h9.2v-6.8h-9.2v-0.9h10.2v8.5h-9.2
	v7.2L1173.4,298.4z M1184.4,290.9h-3v9.7h-0.9v-18.8h0.9v8.2h3V290.9z"/>
<path class="st1" d="M1187.3,300.5v-6h1.5l0,4.5h15.1v1.4H1187.3z M1185.8,292.9v-1.4h19.1v1.4H1185.8z M1187.3,289.2v-7.5h1.5v6.1
	h14.8v1.4H1187.3z"/>
<path class="st1" d="M1204.7,292.6h-18.6v-0.9h18.6V292.6z M1188.5,299.3h15.1v0.9h-16v-5.4h0.9L1188.5,299.3z M1188.5,288h14.8v0.9
	h-15.7v-6.9h0.9L1188.5,288z"/>
<path class="st1" d="M1229.3,300.9v-19.4h1.5v19.4H1229.3z M1213.1,299.6v-1.4h7.3c3.2,0,5.8-0.3,7.1-1l0.4-0.2v1.5l-0.2,0.1
	c-1.4,0.6-4.1,1-7.4,1H1213.1z M1219.7,294c-1.6,0-3.1-0.7-4.2-1.8s-1.7-2.6-1.7-4.2c0.1-3.2,2.7-5.8,5.9-5.8l0.1,0
	c3.2,0,5.7,2.5,5.8,5.7c0,0.1,0,0.3,0,0.4c-0.1,3.2-2.7,5.8-5.9,5.8L1219.7,294z M1219.7,283.6c-2.4,0-4.3,1.9-4.3,4.3
	c0,0.1,0,0.2,0,0.3c0.1,2.4,2,4.2,4.4,4.2l0.2,0c2.4-0.1,4.3-2.2,4.2-4.6C1224.1,285.4,1222.2,283.6,1219.7,283.6v-0.3V283.6z"/>
<path class="st1" d="M1220.3,299.3h-6.9v-0.9h7c3.2,0,5.8-0.4,7.2-1v0.9C1226.3,298.9,1223.7,299.3,1220.3,299.3z M1225.5,288.2
	c-0.1,3.1-2.6,5.6-5.8,5.5c-3.1-0.1-5.6-2.6-5.5-5.8c0.1-3.1,2.6-5.5,5.7-5.6c3-0.1,5.6,2.3,5.7,5.4
	C1225.5,287.9,1225.5,288.1,1225.5,288.2z M1215.1,288.2c0.1,2.6,2.3,4.6,4.9,4.5c2.6-0.1,4.6-2.3,4.5-4.9c-0.1-2.5-2.2-4.5-4.7-4.5
	c-2.6,0-4.7,2-4.7,4.5C1215.1,288,1215.1,288.1,1215.1,288.2z M1230.5,300.6h-0.9v-18.8h0.9V300.6z"/>
<path class="st1" d="M1250.4,300.9v-19.4h1.5v19.4H1250.4z M1235.6,299.6v-17.2h10.8v17.2H1235.6z M1244.9,298.2v-14.3h-7.8v14.3
	H1244.9z"/>
<path class="st1" d="M1246.1,299.3h-10.2v-16.6h10.2V299.3z M1245.2,298.4v-14.9h-8.4v14.9H1245.2z M1251.6,300.6h-0.9v-18.8h0.9
	V300.6z"/>
<path class="st1" d="M1256.9,300.5v-4.2h14.8v-1.4h-14.8v-1.4h16.3l0,4.2h-14.8v1.5h15.2v1.4H1256.9z M1255.5,292v-1.4h19.1v1.4
	H1255.5z M1257,289.2v-4.3h14.6v-1.5H1257V282h16.1v4.3h-14.6v1.6h14.9v1.4H1257z"/>
<path class="st1" d="M1274.3,291.7h-18.6v-0.8h18.6V291.7z M1272.9,297.3h-14.8v2.1h15.2v0.8h-16.1v-3.7h14.8v-2h-14.8v-0.8h15.7
	L1272.9,297.3z M1272.8,285.9h-14.6v2.1h14.9v0.8h-15.8v-3.8h14.6v-2.1h-14.6v-0.8h15.5L1272.8,285.9z"/>
<path class="st1" d="M1298.4,300.9v-19.4h1.5v8.2h3v1.4h-3v9.7H1298.4z M1283.6,299.5V298h0.3c5.3,0,8.7-4.3,8.7-11.2v-3h-8.9v-1.4
	h10.4v4.4c0,7.8-3.9,12.7-10.2,12.7H1283.6z"/>
<path class="st1" d="M1283.9,282.7h9.9v4.1c0,7.4-3.6,12.4-9.9,12.4v-0.9c5.6,0,8.9-4.5,8.9-11.5v-3.3h-8.9V282.7z M1302.6,290.9h-3
	v9.7h-0.9v-18.8h0.9v8.2h3V290.9z"/>
<path class="st1" d="M1320.1,300.9v-19.4h1.5v19.4H1320.1z M1304.4,298.2l0.2-0.1c3.4-0.8,5.6-6.3,5.7-14.3h-5.6v-1.4h12.6v1.4h-5.5
	c0,2.2-0.2,4.5-0.6,6.6l6.8,8.1l-1.2,0.9l-6-7.2c-1.2,4.2-3.3,6.8-6.1,7.4l-0.3,0.1V298.2z"/>
<path class="st1" d="M1310.9,290.6l6.7,8l-0.7,0.5l-6.2-7.5c-1.1,4.4-3.2,7.1-6,7.7v-0.9c3.8-0.9,5.9-7.1,5.9-14.9h-5.6v-0.9h12v0.9
	h-5.5C1311.6,285.9,1311.4,288.3,1310.9,290.6z M1321.3,281.8v18.8h-0.9v-18.8H1321.3z"/>
<path class="st1" d="M1325.1,299.8v-1.4h7.7v-9.3h1.5v9.3h9.9v1.4H1325.1z M1341.4,295.4v-11.6h-14.9v-1.4h16.4v13H1341.4z"/>
<path class="st1" d="M1344,298.7v0.9h-18.6v-0.9h7.7v-9.3h0.9v9.3H1344z M1341.6,283.5h-14.9v-0.9h15.8v12.4h-0.9L1341.6,283.5z"/>
<path class="st1" d="M1366.9,297.1c-0.9,1.7-2.5,3-4.4,3.3l-0.1,0l-3.4-3.2c-0.9,1.7-2.5,2.8-4.4,3.2l-0.3,0.1v-1.4l0.2,0
	c2.2-0.3,4.1-3.1,4.3-6.2l0-0.3l1.5,0.1l0,0.3c-0.1,1-0.3,2-0.7,3l3.2,3c2-0.6,3.6-3.2,3.8-6.1l0-0.3l1.5,0.1l0,0.3
	c-0.1,1-0.3,1.9-0.6,2.8l4.4,3.7l-1,1L1366.9,297.1z M1368.6,292.6v-11.1h1.5v11.1H1368.6z M1358.9,291.9c-3.6,0-6-2-6-5s2.4-5,6-5
	c3.6,0,6,2,6,5S1362.5,291.9,1358.9,291.9z M1358.9,283.3c-2.7,0-4.5,1.4-4.5,3.7c0,2.3,1.7,3.7,4.5,3.7c2.8,0,4.5-1.4,4.5-3.7
	S1361.7,283.3,1358.9,283.3z"/>
<path class="st1" d="M1358.9,291.7c-3.6,0-5.7-2-5.7-4.8s2.1-4.8,5.7-4.8s5.7,2,5.7,4.8S1362.5,291.7,1358.9,291.7z M1358.9,290.9
	c2.8,0,4.8-1.4,4.8-3.9s-2-3.9-4.8-3.9s-4.8,1.4-4.8,3.9S1356.1,290.9,1358.9,290.9z M1370.8,300.2l-4-3.5c-0.8,1.8-2.4,3.1-4.4,3.5
	l-3.6-3.4c-0.8,1.8-2.4,3-4.3,3.4v-0.9c2.3-0.4,4.4-3.2,4.5-6.5l0.9,0.1c-0.1,1.1-0.3,2.1-0.7,3.1l3.5,3.3c2.2-0.5,4-3.3,4.1-6.4
	l0.9,0.1c-0.1,1-0.3,2-0.6,2.9l4.3,3.7L1370.8,300.2z M1369.8,292.3h-0.9v-10.5h0.9V292.3z"/>
<path class="st1" d="M1375.1,300.5V293h1.5v2.5h13.2V293h1.5v7.5H1375.1z M1389.8,299.1v-2.2h-13.2v2.2H1389.8z M1373.6,291.7v-1.4
	h19.1v1.4H1373.6z M1383,285.1c-2.2,2.3-5.2,3.6-8.3,3.7l-0.3,0v-1.5l0.3,0c3.5-0.1,7.9-2.4,8.7-5.9l0.1-0.3l1.5,0.3l-0.1,0.3
	c-0.2,0.8-0.5,1.6-0.9,2.3l8.1,3.7l-0.6,1.3L1383,285.1z"/>
<path class="st1" d="M1392.4,290.6v0.9h-18.6v-0.9H1392.4z M1374.7,288.5v-0.9c3.7-0.1,8.1-2.5,9-6.2l0.9,0.2
	c-0.2,0.9-0.5,1.7-1.1,2.4l8.1,3.7l-0.4,0.8l-8.3-3.8C1380.8,287,1377.8,288.4,1374.7,288.5z M1390,293.2h0.9v7h-15.6v-7h0.9v2.5
	h13.8L1390,293.2z M1390,299.3v-2.8h-13.7v2.8H1390z"/>
<path class="st1" d="M1410.9,300.9v-19.4h1.5v19.4H1410.9z M1404,299.6l-7.9,0v-17.3h1.5l-0.1,15.8l6.6,0c1.6,0,3.1-0.3,4.6-0.9
	l0.4-0.2v1.5l-0.2,0.1c-1.5,0.6-3.1,1-4.7,1L1404,299.6z"/>
<path class="st1" d="M1397.3,298.4h6.7c1.7,0,3.3-0.3,4.9-0.9v0.9c-1.5,0.7-3.2,1-4.9,0.9h-7.6v-16.7h0.9L1397.3,298.4z
	 M1412.1,300.6h-0.9v-18.8h0.9V300.6z"/>
<path class="st1" d="M1431.5,300.9v-19.4h1.5v8.2h3v1.4h-3v9.7H1431.5z M1417,299.6v-17.2h11.3v1.4h-9.8v14.3l6.3,0
	c1.6,0,3.2-0.3,4.6-0.9l0.4-0.2v1.5l-0.2,0.1c-1.5,0.6-3.1,0.9-4.7,0.9L1417,299.6z"/>
<path class="st1" d="M1424.7,298.4c1.7,0,3.3-0.3,4.9-1v0.9c-1.5,0.6-3.2,0.9-4.9,0.9h-7.4v-16.6h10.8v0.9h-9.8v14.9L1424.7,298.4z
	 M1435.7,290.9h-3v9.7h-0.9v-18.8h0.9v8.2h3V290.9z"/>
<circle class="st1" cx="1438.5" cy="299.4" r="1.3"/>
<path class="st1" d="M1439.5,299.4c0,0.6-0.4,1-1,1s-1-0.4-1-1s0.4-1,1-1S1439.5,298.8,1439.5,299.4z"/>
<path class="st1" d="M693.4,333.8v-1.4h19.1v1.4H693.4z M709.6,330v-12.2h-14.9v-1.4h16.4l0,13.6H709.6z"/>
<path class="st1" d="M712.3,333.5h-18.6v-0.9h18.6V333.5z M710.8,329.7h-0.9v-12.2H695v-0.9h15.8L710.8,329.7z"/>
<path class="st1" d="M730.8,334.9v-9.6h-4.3v-1.4h4.3v-8.3h1.6v19.4H730.8z M723.2,333.6l-7.5,0v-9.4h8.3v-6.3h-8.3v-1.4h9.8v9.2
	h-8.2v6.6l6.1,0c1.6,0,3.1-0.3,4.5-0.9l0.4-0.2v1.5l-0.2,0.1c-1.5,0.6-3.1,0.9-4.7,0.9L723.2,333.6z"/>
<path class="st1" d="M723.2,332.4c1.7,0,3.3-0.3,4.9-0.9v0.9c-1.5,0.6-3.2,0.9-4.9,0.9H716v-8.9h8.3v-6.9H716v-0.9h9.2v8.6H717v7.1
	H723.2z M732.1,315.8v18.8h-1V325h-4.3v-0.9h4.3v-8.3L732.1,315.8z"/>
<path class="st1" d="M751.3,334.9v-19.4h1.5v8.2h3v1.4h-3v9.7H751.3z M744.5,333.6l-7.7,0v-17.3h1.5v15.8l6.4,0
	c1.6,0,3.1-0.3,4.5-0.9l0.4-0.2v1.5l-0.2,0.1c-1.5,0.6-3.1,0.9-4.7,0.9L744.5,333.6z"/>
<path class="st1" d="M744.5,332.4c1.7,0,3.3-0.3,4.9-0.9v0.9c-1.5,0.6-3.2,0.9-4.9,0.9h-7.4v-16.7h0.9v15.8H744.5z M755.5,324.9h-3
	v9.7h-0.9v-18.8h0.9v8.2h3V324.9z"/>
<polygon class="st1" points="756.9,337 757.6,332.1 759.2,332.1 758.3,337 "/>
<path class="st1" d="M758.1,336.7h-0.8l0.6-4.3h1L758.1,336.7z"/>
<path class="st1" d="M776.2,327.5c-0.5,0.1-1,0.1-1.6,0.1h-5v6.7h-1.5v-17.9h6.4c4.5,0,7.3,2.2,7.3,5.6c0,2.5-1.5,4.4-4,5.2l4.7,7.1
	l-1.8,0L776.2,327.5z M774.4,326.2c3.8,0,5.9-1.5,5.9-4.2c0-2.7-2.1-4.2-5.9-4.2h-4.7v8.4H774.4z"/>
<path class="st1" d="M780.9,334l-4.5-6.8c-0.6,0.1-1.2,0.1-1.8,0.1h-5.2v6.7h-0.9v-17.4h6.1c4.4,0,7,2.1,7,5.4c0,2.5-1.5,4.3-4.2,5
	l4.7,7L780.9,334z M780.6,322c0-2.9-2.3-4.5-6.2-4.5h-5v8.9h5C778.3,326.5,780.6,324.9,780.6,322L780.6,322z"/>
<path class="st1" d="M790.5,334.6c-0.1,0-0.2,0-0.3,0c0,0,0,0,0,0c-3.6,0-6.3-2.9-6.3-6.8s2.7-6.8,6.3-6.8s6.3,2.9,6.3,6.8
	c0,0.1,0,0.3,0,0.5l0,0.3h-10.9c0.3,2.7,2.2,4.6,4.7,4.6c0.1,0,0.2,0,0.3,0c1.6,0,3.1-0.9,3.8-2.4l0.1-0.2h1.6l-0.2,0.4
	C795,333.2,792.9,334.6,790.5,334.6z M794.9,327.1c-0.3-2.7-2.2-4.6-4.7-4.6c-2.5,0-4.4,1.9-4.7,4.6H794.9z"/>
<path class="st1" d="M784.2,327.9c0-3.7,2.5-6.5,6-6.5s6,2.8,6,6.5c0,0.1,0,0.3,0,0.4h-11c0.2,3,2.2,5.2,5,5.2
	c1.9,0.1,3.6-0.9,4.4-2.5h1c-0.9,2.2-3.1,3.5-5.4,3.4C786.8,334.3,784.2,331.5,784.2,327.9z M795.2,327.4c-0.2-3-2.2-5.2-5-5.2
	s-4.9,2.2-5,5.2H795.2z"/>
<polygon class="st1" points="803.7,334.3 797.8,321.4 799.5,321.4 804.4,332.4 809.4,321.4 810.9,321.4 805.1,334.3 "/>
<path class="st1" d="M810.5,321.7l-5.6,12.3h-1l-5.6-12.3h1l5.1,11.4l5.1-11.4L810.5,321.7z"/>
<path class="st1" d="M818.8,333.9c-0.1,0-0.2,0-0.4,0c-3.5-0.2-6.2-3.2-6-6.8c0.2-3.4,3-6,6.4-6c1.7,0,3.3,0.7,4.5,1.9
	c1.2,1.2,1.9,2.8,1.9,4.5c0,0.1,0,0.2,0,0.3C825,331.3,822.2,333.9,818.8,333.9z M818.8,322.5c-2.8,0-4.9,2.2-4.9,5.3
	s2.1,5.3,4.9,5.3c2.8,0,4.9-2.2,4.9-5.3S821.6,322.5,818.8,322.5z"/>
<path class="st1" d="M824.9,327.9c-0.2,3.4-3.1,6-6.5,5.8s-6-3.1-5.8-6.5c0.2-3.2,2.9-5.8,6.1-5.8c3.4,0,6.1,2.8,6.1,6.2
	C824.9,327.7,824.9,327.8,824.9,327.9z M813.6,327.9c0,3.2,2.1,5.6,5.2,5.6s5.2-2.4,5.2-5.6s-2.1-5.6-5.2-5.6
	S813.6,324.7,813.6,327.9z"/>
<rect x="828" y="315.8" class="st1" width="1.5" height="18.5"/>
<path class="st1" d="M829.2,334h-0.9v-17.9h0.9V334z"/>
<path class="st1" d="M837.7,334.6c-3,0-5.1-2.3-5.1-5.6v-7.6h1.5v7.4c0,2.8,1.4,4.4,3.8,4.4c2.6,0,4.6-2.7,4.6-5.1v-6.7h1.5v12.9
	h-1.5v-2.1c-1,1.5-2.7,2.5-4.6,2.5L837.7,334.6z"/>
<path class="st1" d="M832.9,329v-7.3h0.9v7.1c0,3,1.6,4.6,4.1,4.6c2.7,0,4.9-2.8,4.9-5.3v-6.4h0.9V334h-0.9v-3
	c-0.8,2.1-2.8,3.4-5.1,3.4C834.9,334.3,832.9,332.2,832.9,329z"/>
<polygon class="st1" points="849.1,334.3 849.1,322.8 846.1,322.8 846.1,321.4 849.1,321.4 849.1,317.6 850.6,317.6 850.6,321.4 
	853.6,321.4 853.6,322.8 850.6,322.8 850.6,334.3 "/>
<path class="st1" d="M853.3,322.6h-3V334h-0.9v-11.4h-3v-0.9h3v-3.8h0.9v3.8h3V322.6z"/>
<path class="st1" d="M855.7,334.3v-12.9h1.5v12.9H855.7z M856.5,318.1c-0.6,0-1.1-0.5-1.1-1.1s0.5-1.1,1.1-1.1h0c0.6,0,1,0.4,1.1,1
	C857.5,317.6,857,318.1,856.5,318.1z"/>
<path class="st1" d="M857.2,317c0,0.4-0.3,0.8-0.8,0.8c-0.4,0-0.8-0.3-0.8-0.8s0.3-0.8,0.8-0.8C856.9,316.2,857.2,316.5,857.2,317
	C857.2,317,857.2,317,857.2,317z M856.9,334H856v-12.3h0.9V334z"/>
<path class="st1" d="M866.4,333.9c-0.1,0-0.2,0-0.4,0c-3.5-0.2-6.2-3.2-6-6.8c0.2-3.4,3-6.1,6.4-6.1c1.7,0,3.3,0.7,4.5,1.9
	c1.2,1.2,1.9,2.8,1.9,4.6c0,0.1,0,0.2,0,0.3C872.6,331.3,869.8,333.9,866.4,333.9z M866.4,322.5c-2.8,0-4.9,2.2-4.9,5.3
	s2.1,5.3,4.9,5.3s4.9-2.2,4.9-5.3S869.3,322.5,866.4,322.5z"/>
<path class="st1" d="M872.5,327.9c-0.2,3.4-3.1,6-6.5,5.8c-3.4-0.2-6-3.1-5.8-6.5c0.2-3.2,2.9-5.8,6.1-5.8c3.4,0,6.1,2.8,6.1,6.2
	C872.6,327.7,872.6,327.8,872.5,327.9z M861.2,327.9c0,3.2,2.1,5.6,5.2,5.6s5.2-2.4,5.2-5.6s-2.1-5.6-5.2-5.6
	S861.2,324.7,861.2,327.9z"/>
<path class="st1" d="M885.5,334.3v-7.4c0-2.8-1.4-4.4-3.8-4.4c-2.6,0-4.6,2.7-4.6,5.1v6.7h-1.5v-12.9h1.5v2.2c1-1.6,2.8-2.5,4.7-2.5
	c3.1,0,5.2,2.3,5.2,5.6v7.5H885.5z"/>
<path class="st1" d="M875.9,321.7h0.9v3.1c0.8-2.1,2.8-3.4,5.1-3.4c2.8,0,4.8,2.1,4.8,5.4v7.3h-0.9v-7.1c0-3-1.6-4.6-4.1-4.6
	c-2.7,0-4.9,2.8-4.9,5.4v6.4h-0.9V321.7z"/>
<path class="st1" d="M890.9,334.5v-5.7h1.5l0,4.3h15.1v1.4H890.9z M889.4,327.2v-1.4h19.1v1.4H889.4z M899,324
	c-3.9,0-8.4-1.1-8.4-4.2s4.5-4.2,8.4-4.2s8.4,1.1,8.4,4.2S902.9,324,899,324z M892.1,320.1c0.3,1.6,3.7,2.5,6.8,2.5
	c3.4,0,6.9-1,6.9-2.8s-3.5-2.8-6.9-2.8c-3.4,0-6.8,1-6.8,2.8L892.1,320.1z"/>
<path class="st1" d="M908.3,326.9h-18.6v-0.9h18.6V326.9z M907.1,319.8c0,2.7-3.9,3.9-8.1,3.9s-8.1-1.3-8.1-3.9s3.9-3.9,8.1-3.9
	S907.1,317.1,907.1,319.8L907.1,319.8z M892.1,333.3h15.1v0.9h-16v-5.1h0.9L892.1,333.3z M891.8,319.8c0,2,3.5,3.1,7.2,3.1
	s7.2-1.1,7.2-3.1s-3.5-3.1-7.2-3.1S891.8,317.8,891.8,319.8L891.8,319.8z"/>
<path class="st1" d="M926.3,334.7c-4,0-8.3-1-8.3-3.7s4.3-3.7,8.3-3.7s8.3,1,8.3,3.7S930.3,334.7,926.3,334.7z M926.3,328.7
	c-3.1,0-6.8,0.6-6.8,2.3c0,1.7,3.7,2.3,6.8,2.3c3.4,0,6.8-0.8,6.8-2.3C933.1,329.5,929.6,328.7,926.3,328.7z M916.7,325.5v-1.4h7.7
	v-4.3h1.5v4.4l9.9,0v1.4H916.7z M932.9,322.9v-5.6h-14.8v-1.4h16.2v7H932.9z"/>
<path class="st1" d="M935.6,324.3v0.9H917v-0.9h7.7V320h0.9v4.4L935.6,324.3z M934.3,331c0,2.5-4,3.4-8,3.4s-8-1-8-3.4s4-3.4,8-3.4
	S934.3,328.6,934.3,331z M933.2,317.1h-14.8v-0.9h15.7v6.4h-0.9V317.1z M933.4,331c0-1.8-3.8-2.6-7.1-2.6s-7.1,0.6-7.1,2.6
	s3.8,2.6,7.1,2.6S933.4,332.8,933.4,331L933.4,331z"/>
<path class="st1" d="M939.8,334.5v-6h1.5v4.6h15v1.4H939.8z M954.2,330.1v-8.4h-4.6v-1.4l4.6,0v-4.8h1.5v14.6H954.2z M938.3,325.8
	l0.2,0c3.5-0.6,5.6-3.5,5.8-8.1h-5.8v-1.4h12.6v1.4h-5.3c0,1.1-0.2,2.2-0.5,3.3l6.3,5.1l-0.9,1.2l-5.9-4.7c-1.1,2.5-3.4,4.3-6.1,4.8
	l-0.3,0.1V325.8z"/>
<path class="st1" d="M938.6,326.9V326c3.7-0.7,5.9-3.7,6-8.6h-5.8v-0.9h12v0.9h-5.3c0,1.3-0.2,2.5-0.5,3.7l6.2,5l-0.5,0.7l-6-4.8
	C943.7,324.6,941.4,326.5,938.6,326.9z M956,333.3v0.9h-15.8v-5.5h0.9v4.6H956z M954.5,320.6v-4.8h0.9v14h-0.9v-8.4h-4.6v-0.8
	L954.5,320.6z"/>
<path class="st1" d="M975.2,334.9v-19.4h1.5v19.4H975.2z M965.9,333.8c-3.6,0-5.8-3.3-5.8-8.8s2.2-8.8,5.8-8.8s5.8,3.3,5.8,8.8
	S969.5,333.8,965.9,333.8z M965.9,317.6c-2.6,0-4.3,2.8-4.3,7.4s1.6,7.4,4.3,7.4c2.7,0,4.3-2.8,4.3-7.4
	C970.1,320.4,968.5,317.6,965.9,317.6z"/>
<path class="st1" d="M971.4,325c0,5.8-2.3,8.6-5.5,8.6s-5.5-2.8-5.5-8.6s2.3-8.6,5.5-8.6S971.4,319.2,971.4,325z M961.3,325
	c0,5.2,2,7.7,4.6,7.7s4.5-2.5,4.5-7.7s-2-7.7-4.5-7.7S961.3,319.8,961.3,325z M976.4,334.6h-1v-18.8h1V334.6z"/>
<path class="st1" d="M995.8,334.9v-19.4h1.5v8.2h3v1.4h-3v9.7H995.8z M989,333.6l-7.7,0v-9.5h9.2v-6.2h-9.3v-1.4H992v9.1h-9.2v6.7
	l6.4,0c1.6,0,3.1-0.3,4.6-0.9l0.4-0.2v1.5l-0.2,0.1c-1.5,0.6-3.1,0.9-4.7,0.9L989,333.6z"/>
<path class="st1" d="M989,332.4c1.7,0,3.3-0.3,4.9-0.9v0.9c-1.5,0.6-3.2,0.9-4.9,0.9h-7.4v-8.9h9.2v-6.8h-9.3v-0.9h10.2v8.5h-9.2
	v7.2L989,332.4z M1000,324.9h-3v9.7h-0.9v-18.8h0.9v8.2h3V324.9z"/>
<path class="st1" d="M1002.9,334.5v-6h1.5l0,4.5h15.1v1.4H1002.9z M1001.4,326.9v-1.4h19.1v1.4H1001.4z M1003,323.2v-7.5h1.5
	l-0.1,6.1h14.9v1.4H1003z"/>
<path class="st1" d="M1020.2,326.6h-18.6v-0.9h18.6V326.6z M1004.1,333.3h15.1v0.9h-16v-5.4h0.9L1004.1,333.3z M1004.1,322h14.9v0.9
	h-15.7v-6.9h0.9L1004.1,322z"/>
<path class="st1" d="M1037.9,331.3c-2,2-4.8,3.2-7.7,3.2l-0.5,0V333h0.3c3.4,0,7.3-1.8,8-5.2l0.1-0.3l1.5,0.2l-0.1,0.3
	c-0.1,0.7-0.4,1.4-0.8,2l8.3,3.3l-0.6,1.3L1037.9,331.3z M1028.7,326.6v-1.4h19.1v1.4H1028.7z M1038.6,323.1V316h7.8v1.4h-6.3v4.3
	h6.5l0,1.4H1038.6z M1030.1,323.1V316h7.7v1.4h-6.2v4.3h6.2l0,1.4H1030.1z"/>
<path class="st1" d="M1047.6,325.5v0.9H1029v-0.9H1047.6z M1038.4,330.2l8.3,3.4l-0.3,0.8l-8.5-3.5c-2,2.1-4.9,3.3-7.8,3.3v-0.9
	c3.7,0,7.6-2,8.3-5.4l0.9,0.1C1039.1,328.8,1038.8,329.6,1038.4,330.2L1038.4,330.2z M1037.5,322.9h-7.1v-6.6h7.2v0.9h-6.2v4.9h6.2
	L1037.5,322.9z M1046.3,322.9h-7.4v-6.6h7.2v0.9h-6.3v4.9h6.5L1046.3,322.9z"/>
<polygon class="st1" points="1049.9,333.8 1049.9,332.4 1058.7,332.4 1058.7,327.2 1051.4,327.2 1051.4,316.4 1067.7,316.4 
	1067.7,317.9 1052.9,317.9 1052.9,325.8 1067.9,325.8 1067.9,327.2 1060.2,327.2 1060.2,332.4 1069,332.4 1069,333.8 "/>
<path class="st1" d="M1068.7,332.7v0.9h-18.6v-0.9h8.8v-5.7h-7.3v-10.2h15.8v0.9h-14.8v8.5h15.1v0.9h-7.7v5.7L1068.7,332.7z"/>
<path class="st1" d="M1093.4,334.9v-19.4h1.5v19.4H1093.4z M1085.6,333.6c-0.3,0-0.7,0-1,0l-7.3,0v-1.4h6v-5.4h-4.7v-10.4h11.3v1.4
	h-9.8v7.5h10v1.4h-5.3v5.4c3.4,0,5.6-0.3,6.9-0.8l0.4-0.2v1.5l-0.2,0.1C1089.8,333.3,1087.7,333.6,1085.6,333.6z"/>
<path class="st1" d="M1084.5,332.4c3.2,0,5.7-0.2,7.2-0.9v0.9c-2.3,0.7-4.7,1-7.1,0.8h-7.1v-0.9h6v-5.9h-4.7v-9.8h10.7v0.9h-9.8v8.1
	h10v0.9h-5.3L1084.5,332.4L1084.5,332.4z M1094.6,315.8v18.8h-0.9v-18.8L1094.6,315.8z"/>
<path class="st1" d="M1114.5,334.9v-19.4h1.5v19.4H1114.5z M1098.8,332.2l0.2-0.1c3.4-0.8,5.6-6.3,5.7-14.3h-5.6v-1.4h12.6v1.4h-5.5
	c0,2.2-0.2,4.5-0.6,6.6l6.8,8.1l-1.2,0.9l-6-7.2c-1.2,4.2-3.3,6.8-6.1,7.4l-0.3,0.1V332.2z"/>
<path class="st1" d="M1105.4,324.6l6.7,8l-0.7,0.5l-6.2-7.5c-1.1,4.4-3.2,7.1-6,7.7v-0.9c3.8-0.9,5.9-7.1,5.9-14.9h-5.6v-0.9h12v0.9
	h-5.5C1106,319.9,1105.8,322.3,1105.4,324.6z M1115.7,315.8v18.8h-0.9v-18.8H1115.7z"/>
<path class="st1" d="M1121.1,334.5v-6.3h1.5v4.8h14.8v1.4H1121.1z M1135.2,330.1v-14.6h1.5v5.1l3,0v1.4h-3v8.1H1135.2z
	 M1120.4,326.5v-10.3h11.2v10.3H1120.4z M1130.1,325v-7.4h-8.2v7.4H1130.1z"/>
<path class="st1" d="M1131.3,326.2h-10.6v-9.7h10.6L1131.3,326.2z M1122.3,333.3h14.8v0.9h-15.7v-5.7h0.9L1122.3,333.3z
	 M1130.4,317.3h-8.7v8h8.7V317.3z M1139.4,320.9v0.9h-3v8.1h-0.9v-14h0.9v5.1L1139.4,320.9z"/>
<path class="st1" d="M1163.1,334.7v-4.4h-14.5v-1.4h16v5.8H1163.1z M1163.2,328.1v-3h-3.7v-1.4h3.7v-2.4h-3.7v-1.4h3.7v-4.3l1.5,0
	v12.6H1163.2z M1153.6,327.8c-3.4,0-5.6-1.6-5.6-3.9c0-2.3,2.3-3.9,5.6-3.9c3.4,0,5.6,1.6,5.6,3.9
	C1159.3,326.2,1157,327.8,1153.6,327.8z M1153.6,321.4c-2.4,0-4.1,1-4.1,2.5s1.7,2.5,4.1,2.5c2.4,0,4.1-1,4.1-2.5
	S1156.1,321.4,1153.6,321.4z M1147,319.2v-1.4h5.9v-2.5h1.5v2.5h5.3v1.4H1147z"/>
<path class="st1" d="M1159.4,318.9h-12.1v-0.9h5.9v-2.6h0.9v2.5h5.3L1159.4,318.9z M1148.3,323.9c0-2.3,2.3-3.6,5.3-3.6
	s5.3,1.3,5.3,3.6s-2.3,3.6-5.3,3.6S1148.3,326.1,1148.3,323.9L1148.3,323.9z M1148.8,329.2h15.5v5.3h-0.9V330h-14.5L1148.8,329.2z
	 M1149.2,323.9c0,1.6,1.7,2.8,4.4,2.8s4.4-1.2,4.4-2.8s-1.7-2.8-4.4-2.8S1149.2,322.3,1149.2,323.9L1149.2,323.9z M1164.4,315.9v12
	h-0.9v-3h-3.7V324h3.7v-3h-3.7v-0.8h3.7v-4.3L1164.4,315.9z"/>
<path class="st1" d="M1178,334.7c-5.1,0-8-1.4-8-3.9s2.9-3.9,8-3.9c5.1,0,8,1.4,8,3.9S1183.1,334.7,1178,334.7z M1178,328.3
	c-4,0-6.5,1-6.5,2.5s2.6,2.5,6.5,2.5s6.5-1,6.5-2.5S1181.9,328.3,1178,328.3z M1184.3,326.5v-2.9h-4v-1.4h4v-3h-4v-1.4h4v-2.2h1.5
	v11H1184.3z M1169,325.2v-9h10.6v9H1169z M1178.2,323.7v-6.1h-7.6v6.1H1178.2z"/>
<path class="st1" d="M1179.4,324.9h-10.1v-8.4h10.1V324.9z M1185.7,330.8c0,2.6-3.4,3.6-7.8,3.6s-7.8-1.1-7.8-3.6s3.4-3.6,7.8-3.6
	S1185.7,328.2,1185.7,330.8z M1178.4,317.4h-8.2v6.6h8.2V317.4z M1184.8,330.8c0-1.9-3-2.8-6.8-2.8s-6.8,0.9-6.8,2.8s3,2.8,6.8,2.8
	S1184.8,332.7,1184.8,330.8z M1184.6,323.3h-4v-0.9h4v-3.6h-4V318h4v-2.2h0.9v10.4h-0.9V323.3z"/>
<path class="st1" d="M1205.3,334.9v-19.4h1.6v19.4H1205.3z M1196,333.8c-3.6,0-5.8-3.3-5.8-8.8s2.2-8.8,5.8-8.8s5.8,3.3,5.8,8.8
	S1199.6,333.8,1196,333.8z M1196,317.6c-2.6,0-4.3,2.8-4.3,7.4s1.6,7.4,4.3,7.4c2.7,0,4.3-2.8,4.3-7.4
	C1200.3,320.4,1198.6,317.6,1196,317.6z"/>
<path class="st1" d="M1201.5,325c0,5.8-2.3,8.6-5.5,8.6s-5.5-2.8-5.5-8.6s2.3-8.6,5.5-8.6S1201.5,319.2,1201.5,325z M1191.4,325
	c0,5.2,2,7.7,4.6,7.7s4.6-2.5,4.6-7.7s-2-7.7-4.6-7.7S1191.4,319.8,1191.4,325L1191.4,325z M1206.5,334.6h-1v-18.8h1V334.6z"/>
<path class="st1" d="M1225.9,334.9v-19.4h1.5v8.2h3v1.4h-3v9.7H1225.9z M1219.1,333.6l-7.7,0v-9.5h9.2v-6.2h-9.3v-1.4h10.8v9.1h-9.2
	v6.7l6.4,0c1.6,0,3.1-0.3,4.5-0.9l0.4-0.2v1.5l-0.2,0.1c-1.5,0.6-3.1,0.9-4.7,0.9L1219.1,333.6z"/>
<path class="st1" d="M1219.1,332.4c1.7,0,3.3-0.3,4.9-0.9v0.9c-1.5,0.6-3.2,0.9-4.9,0.9h-7.4v-8.9h9.2v-6.8h-9.3v-0.9h10.2v8.5h-9.2
	v7.2L1219.1,332.4z M1230.1,324.9h-3v9.7h-0.9v-18.8h0.9v8.2h3V324.9z"/>
<path class="st1" d="M1233.1,334.5v-6h1.5l0,4.5h15.1v1.4H1233.1z M1231.5,326.9v-1.4h19.1v1.4H1231.5z M1233,323.2v-7.5h1.5v6.1
	h14.8v1.4H1233z"/>
<path class="st1" d="M1250.4,326.6h-18.6v-0.9h18.6V326.6z M1234.2,333.3h15.1v0.9h-16v-5.4h0.9L1234.2,333.3z M1234.2,322h14.8v0.9
	h-15.7v-6.9h0.9L1234.2,322z"/>
<path class="st1" d="M1268.1,331.3c-2,2-4.8,3.2-7.7,3.2l-0.5,0V333h0.3c3.4,0,7.3-1.8,8-5.2l0.1-0.3l1.5,0.2l-0.1,0.3
	c-0.1,0.7-0.4,1.4-0.8,2l8.3,3.3l-0.6,1.3L1268.1,331.3z M1258.8,326.6v-1.4h19.1v1.4H1258.8z M1268.7,323.1V316h7.8v1.4h-6.3v4.3
	h6.5v1.4H1268.7z M1260.2,323.1V316h7.7v1.4h-6.2v4.3h6.2v1.4H1260.2z"/>
<path class="st1" d="M1277.7,325.5v0.9h-18.6v-0.9H1277.7z M1268.5,330.2l8.3,3.4l-0.3,0.8l-8.5-3.5c-2,2.1-4.9,3.3-7.8,3.3v-0.9
	c3.7,0,7.6-2,8.3-5.4l0.9,0.1C1269.3,328.8,1269,329.6,1268.5,330.2L1268.5,330.2z M1267.6,322.9h-7.1v-6.6h7.2v0.9h-6.2v4.9h6.2
	L1267.6,322.9z M1276.4,322.9h-7.4v-6.6h7.2v0.9h-6.3v4.9h6.5L1276.4,322.9z"/>
<polygon class="st1" points="1280,333.8 1280,332.4 1288.8,332.4 1288.8,327.2 1281.4,327.2 1281.4,316.4 1297.8,316.4 
	1297.8,317.9 1282.9,317.9 1282.9,325.8 1297.9,325.8 1297.9,327.2 1290.3,327.2 1290.3,332.4 1299.1,332.4 1299.1,333.8 "/>
<path class="st1" d="M1298.9,332.7v0.9h-18.6v-0.9h8.8v-5.7h-7.3v-10.2h15.8v0.9h-14.8v8.5h15v0.9h-7.6v5.7L1298.9,332.7z"/>
<path class="st1" d="M1309.2,334.5v-7.2h1.5v2.4h12.8v-2.4h1.5v7.2H1309.2z M1323.5,333.1v-2h-12.8v2H1323.5z M1323.5,327.1v-11.6
	h1.5v11.6H1323.5z M1307.3,326.5v-1.4h6.1v-2.3h-4.8v-6.7h11.3v1.4h-9.8v3.9h10v1.4h-5.2v2.3c3.4,0,5.6-0.3,6.8-0.8l0.4-0.2v1.5
	l-0.2,0.1c-1.5,0.7-4.9,0.8-7.4,0.8H1307.3z"/>
<path class="st1" d="M1314.5,326.2h-6.9v-0.9h6.1v-2.8h-4.8v-6.2h10.7v0.9h-9.8v4.4h10v0.9h-5.2v2.8c3.2,0,5.8-0.2,7.2-0.8v0.9
	C1320.6,326,1317.9,326.2,1314.5,326.2z M1323.8,327.6h0.9v6.6h-15.2v-6.6h0.9v2.4h13.4L1323.8,327.6z M1323.8,333.4v-2.5h-13.4v2.5
	H1323.8z M1324.7,315.8v11h-0.9v-11H1324.7z"/>
<path class="st1" d="M1344.6,334.9v-19.4h1.5v19.4H1344.6z M1329.8,333.6v-17.3h1.5v15.8l6.6,0c1.6,0,3.1-0.3,4.6-0.9l0.4-0.2v1.5
	l-0.2,0.1c-1.5,0.6-3.1,1-4.7,1L1329.8,333.6z"/>
<path class="st1" d="M1331,332.4h6.7c1.7,0,3.3-0.3,4.9-0.9v0.9c-1.5,0.6-3.2,1-4.9,0.9h-7.6v-16.7h0.9V332.4z M1345.8,334.6h-0.9
	v-18.8h0.9V334.6z"/>
<path class="st1" d="M1365.2,334.9v-19.4h1.5v8.2h3v1.4h-3v9.7H1365.2z M1350.7,333.6v-17.2h11.3v1.4h-9.8v14.3c0,0,6.1,0,6.1,0
	c1.7,0,3.3-0.3,4.8-0.9l0.4-0.2v1.5l-0.2,0.1c-1.5,0.6-3.1,0.9-4.8,0.9L1350.7,333.6z"/>
<path class="st1" d="M1358.4,332.4c1.7,0,3.3-0.3,4.9-1v0.9c-1.5,0.6-3.2,0.9-4.9,0.9h-7.4v-16.6h10.8v0.9h-9.8v14.9L1358.4,332.4z
	 M1369.4,324.9h-3v9.7h-0.9v-18.8h0.9v8.2h3V324.9z"/>
<circle class="st1" cx="1372.2" cy="333.4" r="1.3"/>
<path class="st1" d="M1373.2,333.4c0,0.6-0.4,1-1,1s-1-0.4-1-1s0.4-1,1-1S1373.2,332.8,1373.2,333.4z"/>
<path class="st1" d="M709.5,368.9v-19.4h1.6v19.4H709.5z M700.2,367.8c-3.6,0-5.8-3.3-5.8-8.8s2.2-8.8,5.8-8.8s5.8,3.3,5.8,8.8
	S703.8,367.8,700.2,367.8z M700.2,351.6c-2.6,0-4.3,2.8-4.3,7.4s1.6,7.4,4.3,7.4c2.7,0,4.3-2.8,4.3-7.4
	C704.5,354.4,702.8,351.6,700.2,351.6z"/>
<path class="st1" d="M705.7,359c0,5.8-2.3,8.6-5.5,8.6s-5.5-2.8-5.5-8.6s2.3-8.6,5.5-8.6S705.7,353.2,705.7,359z M695.6,359
	c0,5.2,2,7.7,4.6,7.7s4.5-2.5,4.5-7.7s-2-7.7-4.5-7.7S695.6,353.8,695.6,359z M710.8,368.6h-1v-18.8h1V368.6z"/>
<path class="st1" d="M716,368.5v-4.2h14.8v-1.4H716v-1.4h16.3v4.2h-14.8v1.5h15.2v1.4H716z M714.6,360v-1.4h19.1v1.4H714.6z
	 M716.1,357.2v-4.3h14.6v-1.5h-14.6V350h16.2v4.3h-14.7v1.6h14.9v1.4H716.1z"/>
<path class="st1" d="M733.4,359.7h-18.6v-0.8h18.6V359.7z M732,365.3h-14.8v2.1h15.2v0.8h-16.1v-3.7h14.8v-2h-14.8v-0.8H732V365.3z
	 M732,353.9h-14.7v2.1h14.9v0.8h-15.8v-3.8H731v-2.1h-14.6v-0.8H732V353.9z"/>
<path class="st1" d="M758,368.9v-19.4h1.6v19.4H758z M748.7,367.8c-3.6,0-5.8-3.3-5.8-8.8s2.2-8.8,5.8-8.8s5.8,3.3,5.8,8.8
	S752.3,367.8,748.7,367.8z M748.7,351.6c-2.6,0-4.3,2.8-4.3,7.4s1.6,7.4,4.3,7.4c2.7,0,4.3-2.8,4.3-7.4
	C753,354.4,751.3,351.6,748.7,351.6z"/>
<path class="st1" d="M754.2,359c0,5.8-2.3,8.6-5.5,8.6s-5.5-2.8-5.5-8.6s2.3-8.6,5.5-8.6S754.2,353.2,754.2,359z M744.1,359
	c0,5.2,2,7.7,4.6,7.7s4.5-2.5,4.5-7.7s-2-7.7-4.5-7.7S744.1,353.8,744.1,359z M759.2,368.6h-1v-18.8h1V368.6z"/>
<path class="st1" d="M772.6,368.8c-3.1,0-8.3-0.5-8.3-3.5c0-2.2,2.9-3.5,8.3-3.5c3.8,0,8.3,0.6,8.3,3.5
	C780.9,368.3,775.7,368.8,772.6,368.8z M772.6,363.3c-3.2,0-6.7,0.5-6.7,2c0,1.5,3.5,2.1,6.7,2.1c3,0,6.5-0.5,6.7-1.9l0-0.2
	C779.3,363.8,775.9,363.3,772.6,363.3z M763.1,360.3v-1.4h4.7v-2.4c-2.2-0.6-3.4-1.7-3.4-3.1c0-2.3,3.1-3.7,8.3-3.7
	c4,0,8.3,1,8.3,3.7c0,1.5-1.2,2.5-3.4,3.1v2.4l4.7,0v1.4H763.1z M776,358.8v-2.1c-1.1,0.2-2.3,0.3-3.4,0.3s-2.3-0.1-3.4-0.3v2.1H776
	z M772.6,351c-3.4,0-6.8,0.7-6.8,2.3c0,1.6,3.4,2.3,6.8,2.3c3.4,0,6.8-0.7,6.8-2.3C779.4,351.7,776,351,772.6,351z"/>
<path class="st1" d="M781.9,359.1v0.9h-18.6v-0.9h4.7v-2.9c-2-0.5-3.4-1.5-3.4-2.9c0-2.4,3.8-3.4,8-3.4s8.1,1,8.1,3.4
	c0,1.5-1.4,2.4-3.4,2.9v2.9L781.9,359.1z M780.6,365.3c0,2.5-4,3.2-8,3.2s-8-0.8-8-3.2s4-3.2,8-3.2S780.6,362.8,780.6,365.3
	L780.6,365.3z M772.6,355.9c3.7,0,7.1-0.8,7.1-2.6s-3.5-2.6-7.1-2.6s-7.1,0.8-7.1,2.6S769,355.9,772.6,355.9L772.6,355.9z
	 M779.6,365.3c0-1.8-3.7-2.3-7-2.3s-7,0.5-7,2.3s3.7,2.4,7,2.4S779.7,367.1,779.6,365.3L779.6,365.3z M768.8,359.1h7.4v-2.7
	c-2.5,0.4-5,0.4-7.4,0V359.1z"/>
<path class="st1" d="M799.7,368.9v-19.4h1.5v8.2h3l-0.1,1.4h-3v9.7H799.7z M791.1,367.8c-3.1,0-5.3-2.5-5.3-5.9
	c0-3.4,2.2-5.9,5.3-5.9s5.3,2.5,5.3,5.9C796.4,365.3,794.1,367.8,791.1,367.8z M791,357.4c-1.9,0-3.8,1.5-3.8,4.5
	c0,3,1.9,4.5,3.8,4.5c1.9,0,3.7-1.5,3.9-4.3l0-0.3C794.8,358.9,792.9,357.4,791,357.4z M784.7,354.4V353h5.6v-3.5h1.5l0,3.5h5.6v1.4
	H784.7z"/>
<path class="st1" d="M791.5,353.3h5.6v0.9H785v-0.9h5.6v-3.5h0.9L791.5,353.3z M796.1,361.9c0,3.5-2.3,5.7-5,5.7s-5-2.2-5-5.7
	s2.3-5.6,5-5.6S796.1,358.4,796.1,361.9z M795.1,361.9c0-2.9-1.9-4.8-4.1-4.8s-4.1,1.9-4.1,4.8s1.9,4.8,4.1,4.8
	S795.1,364.8,795.1,361.9L795.1,361.9z M804,358.9h-3v9.7H800v-18.8h1v8.2h3L804,358.9z"/>
<path class="st1" d="M821.7,368.9v-5.8h-4l0.1-1.4h3.9v-5.4h-4l-0.1-1.4h4v-5.3l1.5,0v19.4H821.7z M812,367.8
	c-3.5,0-5.7-3.3-5.7-8.8s2.1-8.8,5.7-8.8s5.7,3.3,5.7,8.8S815.5,367.8,812,367.8z M811.9,351.6c-2.6,0-4.1,2.8-4.1,7.4
	s1.5,7.4,4.1,7.4c2.6,0,4.1-2.7,4.2-7.1l0-0.3C816,354.4,814.5,351.6,811.9,351.6z"/>
<path class="st1" d="M817.3,359c0,5.8-2.2,8.6-5.4,8.6s-5.4-2.8-5.4-8.6s2.2-8.6,5.4-8.6S817.3,353.2,817.3,359z M816.3,359
	c0-5.2-1.9-7.7-4.4-7.7s-4.4,2.5-4.4,7.7s1.9,7.7,4.4,7.7S816.4,364.2,816.3,359L816.3,359z M822.8,349.8v18.8H822v-5.8h-4l0.1-0.9
	h3.9V356h-4l-0.1-0.9h4v-5.3L822.8,349.8z"/>
<path class="st1" d="M832.2,354.4v-1.8c0-1.6,1.1-3,2.8-3.2l0.3,0v1.3l-0.2,0c-0.7,0.1-1.3,0.7-1.5,1.4h0.9v2.3H832.2z"/>
<path class="st1" d="M832.4,352.6c0-1.5,1.1-2.8,2.5-2.9v0.8c-1,0.2-1.7,1-1.7,2h0.9v1.7h-1.7L832.4,352.6z"/>
<path class="st1" d="M853.1,368.9v-9.8h-3.9v9.5h-1.5v-18.9h1.5v8h3.9v-8.1l1.5-0.1v19.4H853.1z M836.8,366.2l0.2-0.1
	c3.8-1.5,4.3-8.4,4.4-15.7l0-0.3h1.5l0,0.3c0,2.6-0.1,5.2-0.4,7.8l4.8,8.4l-1.2,0.8l-3.9-7c-0.8,4-2.3,6.2-4.9,7.1l-0.4,0.1V366.2z"
	/>
<path class="st1" d="M842.1,358.2l4.8,8.3l-0.8,0.5l-4.2-7.4c-0.7,4.3-2.2,6.7-4.9,7.7v-0.9c3.7-1.5,4.5-7.5,4.6-16h0.9
	C842.6,353,842.4,355.6,842.1,358.2z M854.4,349.8v18.8h-0.9v-9.8h-4.5v9.5H848V350h0.9v8h4.5v-8.1L854.4,349.8z"/>
<polygon class="st1" points="857.7,367.8 857.7,366.4 866.4,366.4 866.4,362.2 859.1,362.2 859.1,355.6 873.9,355.6 873.9,351.9 
	859.1,351.9 859.1,350.4 875.4,350.4 875.4,357 860.6,357 860.6,360.8 875.8,360.8 875.8,362.2 867.9,362.2 867.9,366.3 
	876.8,366.4 876.8,367.8 "/>
<path class="st1" d="M876.5,366.7v0.9h-18.6v-0.9h8.8v-4.7h-7.3v-6h14.8v-4.3h-14.8v-0.9h15.8v6h-14.8v4.3h15.2v0.9h-7.8v4.7
	L876.5,366.7z"/>
<path class="st1" d="M880.4,368.5v-5.7h1.5l0,4.3h15.1v1.4H880.4z M887.6,364.9v-3.8h-8.8v-1.4H898v1.4h-8.8v3.8H887.6z
	 M888.4,357.9c-3.9,0-8.4-1.1-8.4-4.2c0-3.1,4.5-4.2,8.4-4.2c3.9,0,8.4,1.1,8.4,4.2C896.8,356.9,892.3,357.9,888.4,357.9z
	 M888.4,351.1c-3.3,0-6.9,0.9-6.9,2.7c0,1.8,3.5,2.7,6.9,2.7c3.4,0,6.9-0.9,6.9-2.7S891.8,351.1,888.4,351.1z"/>
<path class="st1" d="M897.7,359.9v0.9h-8.8v3.8h-0.9v-3.8h-8.8v-0.9H897.7z M880.3,353.8c0-2.7,3.9-3.9,8.1-3.9s8.1,1.2,8.1,3.9
	s-3.9,3.9-8.1,3.9S880.3,356.4,880.3,353.8z M881.5,367.3h15.1v0.9h-16V363h0.9L881.5,367.3z M881.2,353.8c0,2,3.5,3,7.2,3
	s7.2-1,7.2-3s-3.5-3-7.2-3S881.2,351.7,881.2,353.8z"/>
<path class="st1" d="M922.4,368.7v-4.4h-14.5v-1.4h16v5.8H922.4z M922.4,362.1v-3h-3.6v-1.4h3.6v-2.4h-3.6v-1.4h3.6v-4.3l1.5,0v12.6
	H922.4z M912.9,361.8c-3.4,0-5.6-1.6-5.6-3.9c0-2.3,2.3-3.9,5.6-3.9c3.4,0,5.6,1.6,5.6,3.9C918.5,360.2,916.3,361.8,912.9,361.8z
	 M912.9,355.4c-2.4,0-4.1,1-4.1,2.5s1.7,2.5,4.1,2.5c2.4,0,4.1-1,4.1-2.5S915.4,355.4,912.9,355.4z M906.3,353.2v-1.4h5.9v-2.5h1.5
	v2.5h5.3v1.4H906.3z"/>
<path class="st1" d="M918.6,352.9h-12.1v-0.9h5.9v-2.6h0.9v2.5h5.3V352.9z M907.6,357.9c0-2.3,2.3-3.6,5.3-3.6s5.3,1.3,5.3,3.6
	s-2.3,3.6-5.3,3.6S907.6,360.1,907.6,357.9L907.6,357.9z M908.1,363.2h15.5v5.3h-0.9V364h-14.5L908.1,363.2z M908.5,357.9
	c0,1.6,1.7,2.8,4.4,2.8s4.4-1.2,4.4-2.8s-1.7-2.8-4.4-2.8S908.5,356.3,908.5,357.9L908.5,357.9z M923.7,349.9v12h-0.9v-3h-3.7V358
	h3.7v-3h-3.7v-0.8h3.7v-4.3L923.7,349.9z"/>
<path class="st1" d="M937.2,368.7c-5.1,0-8-1.4-8-3.9s2.9-3.9,8-3.9c5.1,0,8.1,1.4,8.1,3.9v0.3h0C945,367.4,942.1,368.7,937.2,368.7
	z M937.2,362.3c-4,0-6.5,1-6.5,2.5s2.6,2.5,6.5,2.5c4,0,6.5-1,6.5-2.5S941.2,362.3,937.2,362.3z M943.6,360.5v-2.9h-4v-1.4h4v-3h-4
	v-1.4h4v-2.2h1.5v11H943.6z M928.3,359.2v-9h10.6v9H928.3z M937.4,357.7v-6.1h-7.6v6.1H937.4z"/>
<path class="st1" d="M938.7,358.9h-10.1v-8.4h10.1V358.9z M945,364.8c0,2.6-3.4,3.6-7.8,3.6s-7.8-1.1-7.8-3.6s3.4-3.6,7.8-3.6
	S945,362.2,945,364.8L945,364.8z M937.7,351.4h-8.2v6.6h8.2V351.4z M944,364.8c0-1.9-3-2.8-6.8-2.8s-6.8,0.9-6.8,2.8s3,2.8,6.8,2.8
	S944,366.7,944,364.8z M943.9,357.3h-4v-0.9h4v-3.6h-4V352h4v-2.2h0.9v10.4h-0.9V357.3z"/>
<path class="st1" d="M964.7,368.9v-19.4h1.5l-0.1,19.4H964.7z M948.5,367.6v-1.4h7.3c3.2,0,5.8-0.3,7.1-1l0.4-0.2v1.5l-0.2,0.1
	c-1.4,0.6-4.1,1-7.4,1H948.5z M955,362c-1.6,0-3.1-0.7-4.2-1.8s-1.7-2.6-1.7-4.2c0.1-3.2,2.7-5.8,5.9-5.8l0.1,0
	c3.2,0,5.7,2.5,5.8,5.7c0,0.1,0,0.3,0,0.4c-0.1,3.2-2.7,5.8-5.9,5.8L955,362z M955.1,351.6c-2.4,0-4.3,1.9-4.3,4.3
	c0,0.1,0,0.2,0,0.3c0.1,2.4,2,4.2,4.4,4.2l0.2,0c1.2-0.1,2.3-0.6,3.1-1.4c0.8-0.9,1.2-2,1.2-3.2
	C959.5,353.4,957.5,351.6,955.1,351.6L955.1,351.6z"/>
<path class="st1" d="M955.6,367.3h-6.9v-0.9h7c3.3,0,5.8-0.4,7.2-1v0.9C961.7,366.9,959,367.3,955.6,367.3z M960.8,356.2
	c-0.1,3.1-2.6,5.6-5.8,5.5c-3.1-0.1-5.6-2.6-5.5-5.8c0.1-3.1,2.6-5.5,5.7-5.6c3-0.1,5.6,2.3,5.7,5.4
	C960.8,355.9,960.8,356.1,960.8,356.2z M950.5,356.2c0.1,2.6,2.3,4.6,4.9,4.5c2.6-0.1,4.6-2.3,4.5-4.9c-0.1-2.5-2.2-4.5-4.7-4.5
	c-2.6,0-4.7,2-4.7,4.6C950.4,356,950.4,356.1,950.5,356.2z M965.9,368.6H965v-18.8h0.9L965.9,368.6z"/>
<path class="st1" d="M977.6,368.5v-4.9h14.3v-2h-14.3v-1.4h15.8v4.9h-14.3v2h14.9v1.4H977.6z M991.9,359.4v-9.8h1.5v9.8H991.9z
	 M976.6,358.8v-1.4h0.3c6.5,0,9.5-1.7,9.5-5.4v-0.3h-9.8v-1.4h11.3v1.8c0,4.6-3.6,6.8-11,6.8H976.6z"/>
<path class="st1" d="M987.6,352c0,4.8-4.2,6.5-10.7,6.5v-0.9c6,0,9.8-1.5,9.8-5.7v-0.6h-9.8v-0.9h10.7V352z M993.1,364.7h-14.3v2.6
	h14.9v0.9h-15.9v-4.3h14.3v-2.6h-14.3v-0.9h15.3V364.7z M993.1,359.1h-0.9v-9.3h0.9V359.1z"/>
<path class="st1" d="M998.4,368.5V364h14.8v-1.6h-14.8V361h16.3v4.4h-14.8v1.7h15.2v1.4H998.4z M997,359.3v-1.4h19.1v1.4H997z
	 M1006.6,356.8c-5.3,0-8.3-1.3-8.3-3.6s3-3.6,8.3-3.6s8.3,1.3,8.3,3.6S1011.8,356.8,1006.6,356.8z M1006.5,351.1
	c-4.2,0-6.8,0.8-6.8,2.2c0,1.3,2.6,2.2,6.8,2.2c4.2,0,6.8-0.8,6.8-2.2C1013.3,351.9,1010.7,351.1,1006.5,351.1z"/>
<path class="st1" d="M1015.8,359h-18.6v-0.8h18.6V359z M1014.6,353.2c0,2.4-3.8,3.3-8,3.3s-8-0.9-8-3.3s3.8-3.3,8-3.3
	S1014.6,350.8,1014.6,353.2z M1014.4,365.1h-14.8v2.2h15.2v0.8h-16.1v-3.9h14.8v-2.2h-14.8v-0.8h15.7V365.1z M999.4,353.2
	c0,1.8,3.4,2.4,7.1,2.4s7.1-0.7,7.1-2.4s-3.4-2.4-7.1-2.4S999.4,351.5,999.4,353.2z"/>
<path class="st1" d="M1040.4,368.9v-19.4h1.5v19.4H1040.4z M1025.6,367.6v-17.4h1.6v7.2h7.8l-0.1-7.2h1.5v17.4H1025.6z
	 M1034.9,366.2v-7.3h-7.8v7.3H1034.9z"/>
<path class="st1" d="M1035.2,350.5h0.9v16.8h-10.3v-16.8h1v7.2h8.4L1035.2,350.5z M1035.2,366.4v-7.9h-8.4v7.9H1035.2z
	 M1041.6,349.8v18.8h-0.9v-18.8L1041.6,349.8z"/>
<path class="st1" d="M1047,368.5v-5.4h1.5l0,4h15.1v1.4H1047z M1054.3,364.9v-3.5h-8.8V360h19.1v1.4h-8.8v3.5H1054.3z M1054.4,355.4
	c-2.1,2.1-5.5,3-7.9,3.1l-0.3,0v-1.4l0.3,0c2.8-0.1,7-1.5,7.8-4.5h-7.7v-1.4h7.6v-2.4h1.5v2.4h7.6v1.4h-7.5
	c-0.1,0.6-0.3,1.1-0.6,1.7l8.5,3l-0.6,1.3L1054.4,355.4z"/>
<path class="st1" d="M1064.3,360.3v0.9h-8.8v3.5h-0.9v-3.5h-8.8v-0.9H1064.3z M1046.6,358.2v-0.8c3.2-0.1,7.5-1.8,8.2-5.1h-7.7v-0.8
	h7.6v-2.4h0.9v2.4h7.6v0.8h-7.4c-0.1,0.7-0.4,1.5-0.8,2.1l8.6,3l-0.3,0.8l-8.8-3.1C1052.5,357.1,1049.2,358.1,1046.6,358.2
	L1046.6,358.2z M1048.2,367.4h15.1v0.8h-16v-4.9h0.9L1048.2,367.4z"/>
<path class="st1" d="M1082.2,368.9v-19.4h1.5v8.2h3v1.4h-3v9.7H1082.2z M1067.7,367.6v-17.2h11.3v1.4h-9.9v14.3l6.3,0
	c1.6,0,3.2-0.3,4.7-0.9l0.4-0.2v1.5l-0.2,0.1c-1.5,0.6-3.1,0.9-4.8,0.9L1067.7,367.6z"/>
<path class="st1" d="M1075.4,366.4c1.7,0,3.3-0.3,4.9-1v0.9c-1.5,0.6-3.2,0.9-4.9,0.9h-7.4v-16.6h10.8v0.9h-9.8v14.9L1075.4,366.4z
	 M1086.4,358.9h-3v9.7h-0.9v-18.8h0.9v8.2h3V358.9z"/>
<path class="st1" d="M1087,353.3l0.2,0c0.7-0.1,1.3-0.7,1.5-1.4h-0.9v-2.3h2.3v1.8c0,1.6-1.1,3-2.8,3.2l-0.3,0V353.3z"/>
<path class="st1" d="M1089.8,351.4c0,1.5-1.1,2.8-2.5,2.9v-0.8c1-0.2,1.7-1,1.7-2h-0.9v-1.7h1.7L1089.8,351.4z"/>
<path class="st1" d="M1113.3,368.9v-19.4h1.5v8.2h3v1.4h-3v9.7H1113.3z M1106.5,367.6l-7.7,0v-9.5h9.2v-6.2h-9.3v-1.4h10.8v9.1h-9.2
	v6.7l6.4,0c1.6,0,3.1-0.3,4.5-0.9l0.4-0.2v1.5l-0.2,0.1c-1.5,0.6-3.1,0.9-4.7,0.9L1106.5,367.6z"/>
<path class="st1" d="M1106.5,366.4c1.7,0,3.3-0.3,4.9-0.9v0.9c-1.5,0.6-3.2,0.9-4.9,0.9h-7.4v-8.9h9.2v-6.8h-9.3v-0.9h10.2v8.5h-9.2
	v7.2L1106.5,366.4z M1117.5,358.9h-3v9.7h-0.9v-18.8h0.9v8.2h3V358.9z"/>
<path class="st1" d="M1120.4,368.5v-6h1.5l0,4.5h15.1v1.4H1120.4z M1118.9,360.9v-1.4h19.1v1.4H1118.9z M1120.4,357.2v-7.5h1.5v6.1
	h14.8v1.4H1120.4z"/>
<path class="st1" d="M1137.7,360.6h-18.6v-0.9h18.6V360.6z M1121.6,367.3h15.1v0.9h-16v-5.4h0.9L1121.6,367.3z M1121.6,356h14.8v0.9
	h-15.7v-6.9h0.9V356z"/>
<path class="st1" d="M1147.6,368.4V364h14.8v-1.6h-14.8V361h16.3v4.4h-14.8l0,1.7h15.1v1.4H1147.6z M1146.2,359.3v-1.4h19.1v1.4
	H1146.2z M1155.7,352.9c-2.2,2.2-5.2,3.5-8.4,3.6l-0.3,0v-1.5l0.3,0c3.5-0.1,7.9-2.3,8.7-5.7l0.1-0.3l1.5,0.3l-0.1,0.3
	c-0.2,0.7-0.5,1.4-0.9,2.1l8,3.7l-0.6,1.3L1155.7,352.9z"/>
<path class="st1" d="M1165.1,358.2v0.8h-18.6v-0.8H1165.1z M1147.3,356.2v-0.9c3.7-0.1,8.1-2.4,9-5.9l0.9,0.2
	c-0.2,0.8-0.5,1.6-1,2.3l8.1,3.7l-0.3,0.8l-8.3-3.7C1153.4,354.8,1150.4,356.1,1147.3,356.2L1147.3,356.2z M1148.9,367.3h15.1v0.8
	h-16.1v-3.9h14.8v-2.2h-14.8v-0.8h15.7v3.8h-14.8L1148.9,367.3z"/>
<polygon class="st1" points="1167.4,367.8 1167.4,366.4 1176.1,366.4 1176.1,362.2 1168.8,362.2 1168.8,355.6 1183.6,355.6 
	1183.6,351.9 1168.8,351.9 1168.8,350.4 1185.1,350.4 1185.1,357 1170.3,357 1170.3,360.8 1185.4,360.8 1185.4,362.2 1177.6,362.2 
	1177.6,366.3 1186.5,366.4 1186.5,367.8 "/>
<path class="st1" d="M1186.2,366.7v0.9h-18.6v-0.9h8.8v-4.7h-7.3v-6h14.8v-4.3h-14.8v-0.9h15.8v6H1170v4.3h15.2v0.9h-7.9v4.7
	L1186.2,366.7z"/>
<path class="st1" d="M1190.4,368.5v-6h1.5v4.6h14.9v1.4H1190.4z M1204.8,364.1v-8.2h-5.2c-1.4,3.2-5,4.9-10.1,4.9h-0.3v-1.4h0.3
	c5.9,0,9.3-2.5,9.3-6.8v-1h-9.6v-1.4h11.1v2.4c0,0.7-0.1,1.3-0.2,1.9h4.7v-5h1.5v14.6H1204.8z"/>
<path class="st1" d="M1189.6,360.6v-0.9c6,0,9.6-2.5,9.6-7.1v-1.2h-9.6v-0.9h10.5v2.1c0,0.8-0.1,1.5-0.3,2.2h5.3v-5h0.9v14h-0.9
	v-8.2h-5.6C1198.1,358.9,1194.5,360.6,1189.6,360.6z M1206.6,367.3v0.9h-15.8v-5.5h0.9v4.6L1206.6,367.3z"/>
<path class="st1" d="M1209.7,367.8v-1.4h19.1l0,1.4H1209.7z M1219.3,362.2c-5.2,0-8.5-2.4-8.5-6c0-3.7,3.3-6.1,8.5-6.1
	c5.2,0,8.5,2.4,8.5,6.1C1227.8,359.9,1224.4,362.2,1219.3,362.2z M1219.3,351.6c-4.2,0-7,1.8-7,4.6c0,2.8,2.7,4.6,7,4.6
	c4.2,0,7-1.9,7-4.6C1226.2,353.4,1223.4,351.6,1219.3,351.6z"/>
<path class="st1" d="M1228.6,367.5H1210v-0.9h18.6L1228.6,367.5z M1227.5,356.2c0,3.5-3.2,5.8-8.2,5.8s-8.2-2.2-8.2-5.8
	s3.2-5.8,8.2-5.8S1227.5,352.7,1227.5,356.2L1227.5,356.2z M1212,356.2c0,2.9,2.9,4.9,7.3,4.9s7.3-2,7.3-4.9s-2.9-4.9-7.3-4.9
	S1212,353.2,1212,356.2L1212,356.2z"/>
<polygon class="st1" points="1230.9,367.8 1230.9,366.4 1239.6,366.4 1239.6,362.2 1232.3,362.2 1232.3,355.6 1247.1,355.6 
	1247.1,351.9 1232.3,351.9 1232.3,350.4 1248.6,350.4 1248.6,357 1233.8,357 1233.8,360.8 1249,360.8 1249,362.2 1241.1,362.2 
	1241.1,366.3 1250,366.4 1250,367.8 "/>
<path class="st1" d="M1249.7,366.7v0.9h-18.6v-0.9h8.8v-4.7h-7.3v-6h14.8v-4.3h-14.8v-0.9h15.8v6h-14.8v4.3h15.2v0.9h-7.9v4.7
	L1249.7,366.7z"/>
<path class="st1" d="M1274.8,368.9v-9.8h-3.7v9.5h-1.5v-18.9h1.5v8h3.7v-8.1l1.5-0.1v19.4H1274.8z M1258.5,366.2l0.2-0.1
	c2.6-0.9,4-5.9,4.1-14.3h-4v-1.4h9.4v1.4h-3.8c0,2.1-0.2,4.2-0.4,6.3l4.8,8.6l-1.3,0.8l-4-7.1c-0.8,4.1-2.4,6.5-4.7,7.2l-0.4,0.1
	V366.2z"/>
<path class="st1" d="M1263.6,358.2l4.8,8.4l-0.8,0.5l-4.2-7.5c-0.7,4.5-2.3,7.1-4.6,7.8v-0.9c3-1.1,4.2-6.9,4.3-14.8h-4v-0.9h8.8
	v0.9h-3.8C1264,353.8,1263.8,356,1263.6,358.2z M1276,349.8v18.8h-0.9v-9.8h-4.3v9.5h-0.9V350h0.9v8h4.3v-8.1L1276,349.8z"/>
<path class="st1" d="M1280.8,368.5v-5.6h1.5v4.1h14.8v1.4H1280.8z M1294.9,364.2v-14.6h1.5v5.5l3,0v1.4h-3v7.7H1294.9z
	 M1280.2,361.3v-11.1h12v1.4h-10.5v3.4h10.1v1.4h-10.1v3.4h4.5c0.3,0,0.7,0,1,0c2.1,0,4.1-0.3,6.1-1l0.4-0.1v1.4l-0.2,0.1
	c-1.3,0.7-4.1,1-7.5,1H1280.2z"/>
<path class="st1" d="M1286.1,361h-5.6v-10.5h11.4v0.8h-10.5v4h10.1v0.8h-10.1v4h4.8c2.4,0.1,4.9-0.2,7.2-1v0.9
	C1292.2,360.6,1289.5,361,1286.1,361z M1282.1,367.3h14.8v0.9h-15.7v-5h0.9L1282.1,367.3z M1299.1,355.3v0.9h-3v7.7h-0.9v-14.1h0.9
	v5.5L1299.1,355.3z"/>
<path class="st1" d="M1310.7,368.7c-5.3,0-8.3-1.4-8.3-3.8c0-2.4,3-3.8,8.3-3.8c5.3,0,8.3,1.3,8.3,3.8c0,0,0,0,0,0
	C1319,367.4,1316,368.7,1310.7,368.7z M1310.7,362.6c-3.1,0-6.8,0.6-6.8,2.3c0,1.7,3.7,2.3,6.8,2.3c3.1,0,6.8-0.6,6.8-2.3
	C1317.5,363.2,1313.8,362.6,1310.7,362.6z M1317.2,361.2V355h-3.9v5.5h-1.5v-10.8h1.5v3.9h3.9v-4h1.5v11.6H1317.2z M1300.6,359
	l0.2-0.1c3.9-1.3,4.4-5.2,4.4-8.8v-0.3h1.5l0,0.3c0,1.4-0.1,2.8-0.4,4.1l4.9,4.6l-1,1.1l-4.3-4.1c-0.8,2.2-2.6,3.9-4.9,4.5l-0.4,0.1
	V359z"/>
<path class="st1" d="M1300.8,360.1v-0.9c3.8-1.3,4.6-5,4.6-9.1h0.9c0,1.4-0.1,2.8-0.4,4.2l4.8,4.5l-0.6,0.7l-4.4-4.2
	C1305,357.6,1303.2,359.5,1300.8,360.1z M1318.7,365c0,2.6-3.9,3.5-8,3.5s-8.1-0.9-8.1-3.5s3.9-3.5,8.1-3.5S1318.7,362.4,1318.7,365
	L1318.7,365z M1317.8,365c0-1.9-3.6-2.6-7.1-2.6s-7.1,0.7-7.1,2.6s3.6,2.6,7.1,2.6S1317.8,366.9,1317.8,365L1317.8,365z M1313,360.2
	h-0.9V350h0.9v3.9h4.4v-4h0.9v11h-0.9v-6.1h-4.4V360.2z"/>
<path class="st1" d="M1344,368.9v-19.4h1.5v19.4H1344z M1335.1,360c-1.3,4.5-3.5,7.1-6.4,7.5l-0.3,0v-1.4l0.2,0
	c3.7-0.7,6.1-6.9,6.2-15.8l0-0.3h1.5l0,0.3c0,2.6-0.2,5.3-0.8,7.9l6.6,8.5l-1.2,0.9L1335.1,360z"/>
<path class="st1" d="M1335.2,358.3l6.5,8.4l-0.7,0.5l-6-7.8c-1.2,4.6-3.3,7.5-6.3,7.9v-0.9c4.4-0.8,6.4-8.1,6.4-16.1h0.9
	C1336,353.1,1335.7,355.7,1335.2,358.3z M1345.2,349.8v18.8h-0.9v-18.8H1345.2z"/>
<path class="st1" d="M1363.4,365.2c-0.9,1.7-2.6,2.9-4.5,3.2l-0.1,0l-3.3-3.2c-0.9,1.6-2.6,2.8-4.5,3.1l-0.3,0.1v-1.4l0.2,0
	c2.3-0.3,4.2-3,4.4-6l0-0.3l1.5,0.2l0,0.3c-0.1,1-0.3,1.9-0.6,2.8l3.2,3c2-0.6,3.6-3.1,3.8-5.9l0-0.3l1.5,0.2l0,0.3
	c-0.1,0.9-0.2,1.8-0.5,2.7l4.3,3.8l-1,1.1L1363.4,365.2z M1365.3,360.8v-2.9h-4.5v-1.4h4.5v-3h-3.8V352h3.8v-2.4h1.5v11.2H1365.3z
	 M1349.7,360.3v-1.4h0.3c4.5,0,7.5-1.1,8.8-3.1h-9.1v-1.4h9.7c0.1-0.4,0.1-0.9,0.1-1.3v-1.4h-9.8v-1.4h11.3v2.6c0,2-0.6,3.6-1.8,4.8
	c-1.8,1.8-4.9,2.7-9.2,2.7H1349.7z"/>
<path class="st1" d="M1350,360v-0.9c4.7,0,8-1.1,9.3-3.7h-9.3v-0.9h9.6c0.1-0.5,0.2-1,0.2-1.6v-1.6h-9.8v-0.9h10.7v2.3
	C1360.8,358,1356.6,360,1350,360z M1367.2,368.4l-3.9-3.6c-0.8,1.8-2.5,3.1-4.5,3.4l-3.5-3.3c-0.9,1.7-2.5,3-4.4,3.3v-0.8
	c2.3-0.4,4.4-3.1,4.6-6.3l0.9,0.1c-0.1,1-0.3,2-0.7,2.9l3.4,3.3c2.1-0.6,3.9-3.1,4.1-6.2l0.9,0.1c-0.1,1-0.3,1.9-0.6,2.8l4.2,3.7
	L1367.2,368.4z M1365.6,357.6h-4.5v-0.9h4.5v-3.6h-3.8v-0.9h3.8v-2.4h0.9v10.7h-0.9V357.6z"/>
<path class="st1" d="M1371.6,368.5V361h1.5v2.5h13.2V361h1.5v7.5H1371.6z M1386.3,367.1v-2.2h-13.2v2.2H1386.3z M1370.1,359.7v-1.4
	h19.1v1.4H1370.1z M1379.6,353.1c-2.2,2.3-5.2,3.6-8.3,3.7l-0.3,0l0-0.3v-1.2l0.3,0c3.5-0.1,7.9-2.4,8.7-5.9l0.1-0.3l1.5,0.3
	l-0.1,0.3c-0.2,0.8-0.5,1.6-0.9,2.3l8.1,3.7l-0.6,1.3L1379.6,353.1z"/>
<path class="st1" d="M1389,358.6v0.9h-18.6v-0.9H1389z M1371.2,356.5v-0.9c3.7-0.1,8.1-2.5,9-6.2l0.9,0.2c-0.2,0.9-0.5,1.7-1.1,2.4
	l8.1,3.7l-0.4,0.8l-8.3-3.8C1377.4,355,1374.4,356.4,1371.2,356.5L1371.2,356.5z M1386.6,361.2h0.9v7h-15.6v-7h0.9v2.5h13.8
	L1386.6,361.2z M1386.6,367.3v-2.8h-13.8v2.8H1386.6z"/>
<path class="st1" d="M1407.4,368.9v-19.4h1.6v19.4H1407.4z M1392.6,367.6v-17.3h1.5v15.8l6.6,0c1.6,0,3.1-0.3,4.6-0.9l0.4-0.2v1.5
	l-0.2,0.1c-1.5,0.6-3.1,1-4.7,1L1392.6,367.6z"/>
<path class="st1" d="M1393.8,366.4h6.7c1.7,0,3.3-0.3,4.9-0.9v0.9c-1.5,0.6-3.2,1-4.9,0.9h-7.6v-16.7h0.9V366.4z M1408.7,368.6h-1
	v-18.8h1V368.6z"/>
<path class="st1" d="M1428,368.9v-19.4h1.5v8.2h3v1.4h-3v9.7H1428z M1413.6,367.6v-17.2h11.3v1.4h-9.9v14.3l6.3,0
	c1.6,0,3.2-0.3,4.7-0.9l0.4-0.2v1.5l-0.2,0.1c-1.5,0.6-3.1,0.9-4.8,0.9L1413.6,367.6z"/>
<path class="st1" d="M1421.3,366.4c1.7,0,3.3-0.3,4.9-1v0.9c-1.5,0.6-3.2,0.9-4.9,0.9h-7.4v-16.6h10.8v0.9h-9.8v14.9L1421.3,366.4z
	 M1432.3,358.9h-3v9.7h-0.9v-18.8h0.9v8.2h3V358.9z"/>
<path class="st1" d="M1436,367.4c0,0.6-0.5,1-1,1c-0.6,0-1-0.5-1-1s0.5-1,1-1C1435.5,366.3,1436,366.8,1436,367.4z"/>
<path class="st1" d="M725,473.6h2.6v5.2h-14.3V518h-5.2v-39.2h-14.4v-5.2H725z"/>
<path class="st1" d="M746.6,486.6c2.9,0,5.6,1.1,7.8,3c3.1,2.6,4.8,6.5,4.7,10.5v15.2v2.6h-5.2l-0.1-2.6l-0.1-15.3
	c0-1.6-0.4-3.3-1.2-4.7c-1.1-2.2-3.4-3.6-5.9-3.6c-1.5,0-2.9,0.5-4,1.4c-2.1,1.6-3.3,4.2-3.1,6.9V518h-5.2v-42.9h5.2v14
	C741.5,487.5,744,486.7,746.6,486.6z"/>
<path class="st1" d="M793.3,511.8c-2.8,4-7.3,6.3-12.1,6.2c-3.5,0-6.9-1.3-9.4-3.8c-3.3-3-5.1-7.4-5-11.9c-0.1-3.9,1.3-7.6,3.7-10.6
	c2.6-3.2,6.5-5.1,10.6-5.1c3.5,0,6.8,1.3,9.3,3.8c3.3,3,5.1,7.4,5,11.9v2.6h-23.2c0.3,1.3,0.8,2.5,1.6,3.7c1.5,2.6,4.3,4.2,7.3,4.2
	c3.2,0,6.2-1.5,8-4L793.3,511.8z M790.3,499.7c-0.1-1.5-0.7-3-1.8-4.1c-1.7-2.3-4.5-3.7-7.4-3.7c-1.3,0-2.7,0.4-3.8,1
	c-2.6,1.4-4.5,3.9-5,6.9L790.3,499.7z"/>
<path class="st1" d="M837.8,472.3h6.1l-2.4,4c-1,1.7-1.9,3.2-2.6,4.6c-3.2,6.4-4.9,13.5-4.8,20.7c0,10.2,2.4,18.6,7.3,25.2l3.1,4.2
	h-6.5l-0.8-1c-5.6-7.5-8.4-16.9-8.4-28.3c0-3.6,0.4-7.2,1-10.8c1.3-6.2,3.7-12.1,7.2-17.4L837.8,472.3z"/>
<path class="st1" d="M883.5,514.6l1,3.3H879l-0.5-1.9c-1.1-3.7-2.4-7.4-3.9-10.9c-1.2-2.7-3-5-5.3-6.8h-13.1V518H851v-22.2l0.1-19.5
	v-2.6h2.6l16.5-0.1c3.2-0.1,6.4,1.1,8.9,3.1c2.9,2.2,4.6,5.7,4.6,9.3c0,1.4-0.3,2.8-0.8,4.1c-1.2,3.3-3.8,5.9-7,7.1
	C878.4,500.2,880.9,506,883.5,514.6z M861.9,493.2h8.3c1.6,0,3.1-0.4,4.5-1.2c2.3-1.1,3.7-3.4,3.7-5.9c0-1.5-0.5-2.9-1.4-4.1
	c-1.6-2.1-4.2-3.3-6.8-3.1h-14v14.4h5.8L861.9,493.2z"/>
<path class="st1" d="M916.6,511.8c-2.8,4-7.3,6.3-12.1,6.2c-3.5,0-6.9-1.3-9.4-3.8c-3.3-3-5.1-7.4-5-11.9c-0.1-3.9,1.3-7.6,3.7-10.6
	c2.6-3.2,6.5-5.1,10.6-5.1c3.5,0,6.8,1.3,9.3,3.8c3.3,3,5.1,7.4,5,11.9v2.6h-23.2c0.3,1.3,0.8,2.5,1.6,3.7c1.5,2.6,4.3,4.2,7.3,4.2
	c3.2,0,6.2-1.5,8-4L916.6,511.8z M913.6,499.7c-0.1-1.5-0.7-3-1.8-4.1c-1.7-2.3-4.5-3.7-7.4-3.7c-1.3,0-2.7,0.4-3.8,1
	c-2.6,1.4-4.5,3.9-5,6.9L913.6,499.7z"/>
<path class="st1" d="M922.8,486.6h5.6l0.7,1.6l8.1,20l8-20l0.7-1.6h5.6l-1.5,3.6l-10.4,26.1L939,518h-3.5l-0.7-1.6l-10.5-26.1
	L922.8,486.6z"/>
<path class="st1" d="M959.2,491.6c4.7-5.8,13.1-6.7,18.9-2c0.3,0.3,0.6,0.5,0.9,0.8c3.3,3,5.1,7.4,5,11.9c0.1,3.9-1.3,7.7-3.8,10.6
	c-4.6,5.8-13.1,6.7-18.9,2.1c-0.3-0.3-0.6-0.5-0.9-0.8c-3.3-3-5.1-7.4-5-11.9C955.3,498.4,956.7,494.6,959.2,491.6z M962.5,508.6
	c1.5,2.6,4.3,4.1,7.2,4.1c2,0,4-0.7,5.5-2.1c2.4-2.1,3.8-5.2,3.7-8.4c0-2.2-0.7-4.4-1.9-6.3c-1.5-2.6-4.3-4.1-7.2-4.1
	c-2,0-4,0.7-5.5,2.1c-2.4,2.1-3.8,5.2-3.7,8.4C960.6,504.6,961.3,506.8,962.5,508.6L962.5,508.6z"/>
<path class="st1" d="M992,471h5.2v47H992V471z"/>
<path class="st1" d="M1003.3,486.7h5.3l-0.1,2.6l-0.1,16.7c0,1.3,0.4,2.6,1.2,3.7c1.4,2,3.8,3.1,6.2,3c1.4,0,2.8-0.4,4-1.1
	c2.1-1.1,3.4-3.3,3.3-5.6v-16.8l0.1-2.5h5.3l-0.1,2.6l-0.1,16.7c0,2.7-1,5.4-2.7,7.4c-2.4,3-6,4.6-9.9,4.5c-3,0-5.8-1-8.2-2.8
	c-2.9-2.1-4.6-5.5-4.5-9.1v-16.8L1003.3,486.7z"/>
<path class="st1" d="M1043.3,508.8c0,2.6,1.6,3.9,4.8,4h2.6v5.2h-2.6c-1.2,0-2.3-0.1-3.5-0.4c-4.3-1-6.5-3.9-6.5-8.7v-17h-4.4v-5.2
	h4.4v-6.9l0.1-2.5h5.3l-0.1,2.6v6.8h7.3v5.2h-7.3L1043.3,508.8z"/>
<path class="st1" d="M1056.2,482.6v-5.2h5.3v5.2H1056.2z M1056.2,486.6h5.2V518h-5.2V486.6L1056.2,486.6z"/>
<path class="st1" d="M1071.5,491.6c4.7-5.8,13.1-6.7,18.9-2c0.3,0.3,0.6,0.5,0.9,0.8c3.3,3,5.1,7.4,5,11.9c0.1,3.9-1.3,7.7-3.9,10.6
	c-4.6,5.8-13.1,6.7-18.9,2.1c-0.3-0.3-0.6-0.5-0.9-0.8c-3.3-3-5.1-7.4-5-11.9C1067.6,498.4,1069,494.6,1071.5,491.6z M1074.8,508.6
	c1.5,2.6,4.3,4.1,7.2,4.1c2,0,4-0.7,5.5-2.1c2.4-2.1,3.8-5.2,3.7-8.4c0-2.3-0.6-4.5-1.9-6.3c-1.5-2.6-4.3-4.1-7.2-4.1
	c-2,0-4,0.7-5.5,2.1c-2.4,2.1-3.8,5.2-3.7,8.4C1072.9,504.6,1073.5,506.8,1074.8,508.6L1074.8,508.6z"/>
<path class="st1" d="M1129.1,518h-5.2l-0.1-2.6l-0.1-15.3c0-1.6-0.4-3.3-1.2-4.7c-1.1-2.2-3.4-3.6-5.9-3.6c-1.5,0-2.9,0.5-4,1.4
	c-2.1,1.6-3.3,4.2-3.1,6.9V518h-5.2v-31.4h5.2v2.5c2.1-1.6,4.6-2.5,7.2-2.5c2.9,0,5.6,1.1,7.8,3c3.1,2.6,4.8,6.5,4.6,10.5v15.2
	L1129.1,518z"/>
<path class="st1" d="M1134.8,472.3h6.1l0.8,1.2c5.3,8.4,8.1,18.2,8.2,28.1c0,2.3-0.2,4.7-0.5,7c-1,7.5-3.6,14.8-7.7,21.2l-0.8,1.2
	h-6.3l2.6-4c0.5-0.8,1-1.7,1.5-2.5c3.9-7,5.9-14.8,5.9-22.8c-0.1-9-2.7-17.8-7.4-25.4L1134.8,472.3z"/>
<path class="st1" d="M1187,491.6c4.7-5.8,13.1-6.7,18.9-2c0.3,0.3,0.6,0.5,0.9,0.8c3.3,3,5.1,7.4,5,11.9c0.1,3.9-1.3,7.7-3.8,10.6
	c-4.6,5.8-13.1,6.7-18.9,2.1c-0.3-0.3-0.6-0.5-0.9-0.8c-3.3-3-5.1-7.4-5-11.9C1183.1,498.4,1184.5,494.6,1187,491.6z M1190.3,508.6
	c1.5,2.6,4.3,4.1,7.2,4.1c2,0,4-0.7,5.5-2.1c2.4-2.1,3.8-5.2,3.7-8.4c0-2.3-0.6-4.5-1.9-6.3c-1.5-2.6-4.3-4.1-7.2-4.1
	c-2,0-4,0.7-5.5,2.1c-2.4,2.1-3.8,5.2-3.7,8.4C1188.4,504.6,1189,506.8,1190.3,508.6L1190.3,508.6z"/>
<path class="st1" d="M1230.2,486.6h2.6v5.2h-7.4V518h-5.2v-26.1h-4.3v-5.2h4.4c0.1-1.8,0.4-3.7,0.8-5.5c1.4-6,4.5-8.9,9.2-8.9h2.6
	v5.2h-2.6c-2.7,0-4.3,3.1-4.7,9.2H1230.2z"/>
<path class="st1" d="M1273,508.8c0,2.6,1.6,3.9,4.8,4h2.6v5.2h-2.6c-1.2,0-2.3-0.1-3.5-0.4c-4.3-1-6.5-3.9-6.5-8.7v-17h-4.4v-5.2
	h4.4v-6.9l0.1-2.5h5.3l-0.1,2.6v6.8h7.3v5.2h-7.3L1273,508.8z"/>
<path class="st1" d="M1299.3,486.6c2.9,0,5.6,1.1,7.8,3c3.1,2.6,4.8,6.5,4.6,10.5v15.2l0.1,2.7h-5.2l-0.1-2.6l-0.1-15.3
	c0-1.6-0.4-3.3-1.2-4.7c-1.1-2.2-3.4-3.6-5.9-3.6c-1.5,0-2.9,0.5-4,1.4c-2.1,1.6-3.3,4.2-3.1,6.9V518h-5.2v-42.9h5.2v14
	C1294.3,487.6,1296.8,486.7,1299.3,486.6z"/>
<path class="st1" d="M1346.1,511.8c-2.8,3.9-7.3,6.3-12.1,6.1c-3.5,0-6.9-1.3-9.4-3.8c-3.3-3-5.1-7.4-5-11.9
	c-0.1-3.9,1.3-7.6,3.7-10.6c2.6-3.2,6.5-5.1,10.6-5.1c3.5,0,6.8,1.3,9.3,3.8c3.3,3,5.1,7.4,5,11.9v2.6H1325c0.3,1.3,0.8,2.5,1.6,3.7
	c1.5,2.6,4.3,4.2,7.3,4.2c3.2,0,6.2-1.5,8-4L1346.1,511.8z M1343.1,499.7c-0.1-1.5-0.7-3-1.8-4.1c-1.7-2.3-4.5-3.7-7.4-3.7
	c-1.3,0-2.7,0.3-3.8,1c-2.6,1.4-4.5,3.9-5,6.9L1343.1,499.7z"/>
<path class="st1" d="M1390.7,518h-5.2v-44.4h4.3l0.7,1.6l15.3,33.9l15.2-33.8l0.7-1.6h4.3v2.6l0.1,39.2v2.6h-5.2v-2.6l-0.1-27
	l-12.6,28.1l-0.7,1.6h-3.4l-0.7-1.6l-12.7-28.1L1390.7,518L1390.7,518z"/>
<path class="st1" d="M1439,491.6c4.7-5.8,13.1-6.7,18.9-2c0.3,0.3,0.6,0.5,0.9,0.8c3.3,3,5.1,7.4,5,11.9c0.1,3.9-1.3,7.7-3.8,10.6
	c-4.6,5.8-13.1,6.7-18.9,2.1c-0.3-0.3-0.6-0.5-0.9-0.8c-3.3-3-5.1-7.4-5-11.9C1435.1,498.4,1436.5,494.6,1439,491.6z M1442.3,508.6
	c1.5,2.6,4.3,4.1,7.2,4.1c2,0,4-0.7,5.5-2.1c2.4-2.1,3.8-5.2,3.7-8.4c0-2.3-0.6-4.5-1.9-6.3c-1.5-2.6-4.3-4.1-7.2-4.1
	c-2,0-4,0.7-5.5,2.1c-2.4,2.1-3.8,5.2-3.7,8.4C1440.3,504.6,1441,506.7,1442.3,508.6L1442.3,508.6z"/>
<path class="st1" d="M1472.9,491.6c4.7-5.8,13.1-6.7,18.9-2c0.3,0.3,0.6,0.5,0.9,0.8c3.3,3,5.1,7.4,5,11.9c0.1,3.9-1.3,7.7-3.8,10.6
	c-4.6,5.8-13.1,6.7-18.9,2.1c-0.3-0.3-0.6-0.5-0.9-0.8c-3.3-3-5.1-7.4-5-11.9C1469,498.4,1470.3,494.6,1472.9,491.6z M1476.2,508.6
	c1.5,2.6,4.3,4.1,7.2,4.1c2,0,4-0.7,5.5-2.1c2.4-2.1,3.8-5.2,3.7-8.4c0-2.3-0.6-4.5-1.9-6.3c-1.5-2.6-4.3-4.1-7.2-4.1
	c-2,0-4,0.7-5.5,2.1c-2.4,2.1-3.8,5.2-3.7,8.4C1474.2,504.6,1474.9,506.8,1476.2,508.6L1476.2,508.6z"/>
<path class="st1" d="M1530.4,518h-5.2l-0.1-2.6l-0.1-15.3c0-1.6-0.4-3.3-1.2-4.7c-1.1-2.2-3.4-3.6-5.9-3.6c-1.5,0-2.9,0.5-4,1.4
	c-2.1,1.6-3.3,4.2-3.1,6.9V518h-5.2v-31.4h5.2v2.5c2.1-1.6,4.6-2.5,7.2-2.5c2.9,0,5.7,1.1,7.8,3c3.1,2.6,4.8,6.5,4.6,10.5v15.2
	L1530.4,518z"/>
</svg>
