<?xml version="1.0" encoding="utf-8"?>
<!-- Generator: Adobe Illustrator 26.0.2, SVG Export Plug-In . SVG Version: 6.00 Build 0)  -->
<svg version="1.1" id="레이어_1" xmlns="http://www.w3.org/2000/svg" xmlns:xlink="http://www.w3.org/1999/xlink" x="0px"
	 y="0px" viewBox="0 0 1993 883" style="enable-background:new 0 0 1993 883;" xml:space="preserve">
<style type="text/css">
	.st0{opacity:0;fill:#FFFFFF;}
	.st1{fill:#FFFFFF;}
</style>
<g>
	<rect class="st0" width="1993" height="883"/>
	<path class="st1" d="M694.9,263.3v-4.9H709v-2h-14.1V255h15.6v4.9h-14l0,2.1h14.7v1.3H694.9z M709,254.3v-9.9h1.5v4l3,0v1.4h-3v4.4
		H709z M694.3,253.3v-8.2h12v1.4h-10.5v5.3h4.5c0.3,0,0.7,0,1,0c2.1,0,4.1-0.3,6.1-1l0.4-0.1v1.4l-0.2,0.1c-1.4,0.6-4.2,1-7.4,1
		H694.3z"/>
	<path class="st1" d="M700.2,253h-5.6v-7.6H706v0.9h-10.5v5.9h4.8c2.4,0.1,4.9-0.2,7.2-1v0.9C706.2,252.6,703.6,253,700.2,253z
		 M696.2,262.2h14.7v0.8h-15.7v-4.3h14.1v-2.6h-14.1v-0.9h15v4.3h-14L696.2,262.2z M713.2,248.8v0.9h-3v4.4h-0.9v-9.3h0.9v4
		L713.2,248.8z"/>
	<path class="st1" d="M730.7,263.8v-19.4h1.6v19.4H730.7z M714.6,262.4V261h7.3c3.2,0,5.8-0.4,7.1-1l0.4-0.2v1.5l-0.2,0.1
		c-1.4,0.6-4.1,1-7.4,1H714.6z M721.1,256.9c-3.3-0.1-5.9-2.8-5.8-6c0.1-3.2,2.7-5.8,5.9-5.8l0.1,0c3.2,0,5.7,2.5,5.8,5.7
		c0,0.1,0,0.3,0,0.4c-0.1,3.2-2.7,5.8-5.9,5.8L721.1,256.9z M721.2,246.5c-2.4,0-4.3,1.9-4.3,4.3c0,0.1,0,0.2,0,0.3
		c0.1,2.4,2,4.3,4.4,4.3l0.2,0c2.4-0.1,4.3-2.2,4.2-4.6C725.6,248.3,723.6,246.5,721.2,246.5v-0.3V246.5z"/>
	<path class="st1" d="M721.7,262.2h-6.9v-0.9h7c3.2,0,5.8-0.4,7.2-1v0.9C727.7,261.8,725.1,262.2,721.7,262.2z M726.9,251.1
		c-0.1,3.1-2.6,5.6-5.8,5.6c-3.1-0.1-5.6-2.6-5.6-5.8c0.1-3.1,2.6-5.6,5.7-5.6c3-0.1,5.6,2.3,5.7,5.4
		C726.9,250.8,726.9,250.9,726.9,251.1L726.9,251.1z M716.5,251.1c0.1,2.6,2.3,4.6,4.9,4.5c2.6-0.1,4.6-2.3,4.5-4.9
		c-0.1-2.5-2.2-4.5-4.7-4.5c-2.6,0-4.7,2-4.7,4.5C716.5,250.8,716.5,251,716.5,251.1L716.5,251.1z M732,263.5h-1v-18.8h1V263.5z"/>
	<path class="st1" d="M751.9,263.6c-5.2,0-8.1-1.2-8.1-3.5s2.9-3.5,8.1-3.5c4.9,0,7.8,1.1,8,3.2h0l0,0.3
		C760,262.4,757.1,263.6,751.9,263.6z M751.9,258.1c-4,0-6.5,0.8-6.5,2s2.5,2,6.5,2c4,0,6.5-0.8,6.5-2v-0.2
		C758.1,258.8,755.7,258.1,751.9,258.1z M758.2,256.5v-2.9h-3.7v-1.4h3.7v-2.4h-3.7v-1.4h3.7v-4h1.5v12.1H758.2z M748.6,256
		c-3.4,0-5.6-1.4-5.6-3.6V252h0c0.2-2.1,2.2-3.4,5.5-3.4c3.4,0,5.5,1.4,5.5,3.7C754.2,254.6,752,256,748.6,256z M744.6,252.3
		c0,1.4,1.6,2.2,4,2.2c2.4,0,4-0.9,4-2.2s-1.6-2.2-4-2.2c-2.3,0-3.9,0.8-4,2.1L744.6,252.3z M742,247.8v-1.4h5.8v-2.3h1.5v2.3h5.3
		v1.4H742z"/>
	<path class="st1" d="M754.4,247.5h-12.1v-0.9h5.8v-2.3h0.9v2.3h5.3V247.5z M743.4,252.3c0-2.1,2-3.4,5.2-3.4s5.2,1.3,5.2,3.4
		s-2,3.4-5.2,3.4S743.4,254.4,743.4,252.3L743.4,252.3z M759.7,260.1c0,2.3-3.4,3.2-7.8,3.2s-7.8-0.9-7.8-3.2s3.4-3.2,7.8-3.2
		S759.6,257.9,759.7,260.1L759.7,260.1z M744.3,252.3c0,1.4,1.4,2.5,4.3,2.5s4.3-1.1,4.3-2.5s-1.4-2.5-4.3-2.5
		S744.3,250.9,744.3,252.3L744.3,252.3z M758.7,260.1c0-1.6-3-2.3-6.8-2.3s-6.8,0.7-6.8,2.3s3,2.3,6.8,2.3S758.7,261.8,758.7,260.1
		L758.7,260.1z M758.5,253.3h-3.7v-0.8h3.7v-3h-3.7v-0.8h3.7v-4h0.9v11.6h-0.9V253.3z"/>
	<path class="st1" d="M779.7,263.8V254H776v9.5h-1.5v-18.9h1.5v8h3.7v-8.1l1.5,0v19.4H779.7z M767.5,262.5c-0.3,0-0.5,0-0.8,0
		l-2.9,0v-17.2h8.7v1.4h-7.2v6.2h7v1.4h-7v6.7h1.3c0.3,0,0.6,0,0.9,0c1.8,0,3.6-0.4,5.3-1.1l0.4-0.2v1.5l-0.2,0.1
		C771.3,262.1,769.5,262.5,767.5,262.5z"/>
	<path class="st1" d="M766.7,261.3c2.2,0.1,4.3-0.2,6.3-1.1v0.9c-2,0.8-4.1,1.1-6.2,1h-2.6v-16.6h8.1v0.9h-7.2v6.8h7v0.9h-7v7.2
		H766.7z M780.9,244.7v18.8H780v-9.8h-4.3v9.5h-0.9v-18.3h0.9v8h4.3v-8.1L780.9,244.7z"/>
	<path class="st1" d="M799.9,263.8v-19.4h1.5v8.1h2.9v1.4h-2.9v9.9H799.9z M792.1,262.5c-0.4,0-0.7,0-1.1,0l-6.8,0V261h5.7v-4
		c-1.5-0.2-2.8-0.9-3.7-2c-1-1.2-1.5-2.7-1.4-4.3c0.2-3,2.8-5.4,5.8-5.4c0.2,0,0.3,0,0.5,0c3.2,0.3,5.6,3.1,5.4,6.3
		c-0.2,2.8-2.4,5-5.1,5.3v4c3.2,0,5.4-0.3,6.7-0.8l0.4-0.2v1.5l-0.2,0.1C796.2,262.2,794.2,262.5,792.1,262.5z M790.9,246.5
		c-2.4,0-4.5,1.9-4.6,4.4c0,0.1,0,0.2,0,0.3c-0.2,2.4,1.6,4.5,4,4.6c0,0,0.1,0,0.1,0v0l0.3,0c0.1,0,0.2,0,0.3,0
		c2.4,0,4.5-1.9,4.6-4.4c0.1-1.2-0.3-2.4-1.2-3.3c-0.8-0.9-2-1.5-3.2-1.5C791.1,246.5,791,246.5,790.9,246.5z"/>
	<path class="st1" d="M791.1,261.3c3.1,0,5.6-0.2,7.1-0.9v0.9c-2.3,0.7-4.7,0.9-7.1,0.8h-6.5v-0.9h5.7v-4.5c-3.1-0.3-5.3-2.9-5.1-6
		c0.3-3.1,2.9-5.3,6-5.1s5.3,2.9,5.1,6c-0.2,2.7-2.4,4.9-5.1,5.1V261.3z M790.6,256c2.7,0.2,5-1.9,5.2-4.6s-1.9-5-4.6-5.2
		c-2.7-0.2-5,1.9-5.2,4.6c0,0.1,0,0.2,0,0.3c-0.2,2.5,1.7,4.7,4.2,4.9C790.4,256,790.5,256,790.6,256L790.6,256z M804,253.6h-2.9
		v9.9h-0.9v-18.8h0.9v8.1h2.9V253.6z"/>
	<path class="st1" d="M813,263.3v-4.5h14.7v-1.6h-14.8v-1.4h16.3v4.4h-14.8v1.6h15.2v1.4H813z M811.5,254.2v-1.4h19.1v1.4H811.5z
		 M821,247.8c-2.2,2.2-5.2,3.5-8.4,3.6l-0.3,0v-1.5l0.3,0c3.5-0.1,7.9-2.4,8.7-5.7l0.1-0.3l1.5,0.3l-0.1,0.3
		c-0.2,0.7-0.5,1.4-0.9,2.1l8,3.7l-0.6,1.3L821,247.8z"/>
	<path class="st1" d="M830.4,253.1v0.8h-18.6v-0.8H830.4z M812.6,251.1v-0.9c3.7-0.1,8.1-2.4,9-5.9l0.9,0.2c-0.2,0.8-0.5,1.6-1,2.3
		l8.1,3.7l-0.3,0.7l-8.3-3.7C818.8,249.7,815.8,251,812.6,251.1L812.6,251.1z M814.2,262.2h15.2v0.8h-16.1v-3.9H828V257h-14.8v-0.8
		H829v3.8h-14.8V262.2z"/>
	<polygon class="st1" points="832.7,262.7 832.7,261.2 841.5,261.2 841.5,257.1 834.2,257.1 834.2,250.5 849,250.5 849,246.7 
		834.2,246.7 834.2,245.3 850.5,245.3 850.5,251.9 835.7,251.9 835.7,255.6 850.8,255.6 850.8,257 843,257 843,261.2 851.8,261.2 
		851.8,262.7 	"/>
	<path class="st1" d="M851.6,261.5v0.9H833v-0.9h8.8v-4.7h-7.3v-6.1h14.8v-4.3h-14.8v-0.9h15.8v6h-14.8v4.3h15.2v0.9h-7.9v4.7
		L851.6,261.5z"/>
	<path class="st1" d="M855.8,263.3v-6h1.5v4.6l14.9,0v1.4H855.8z M870.2,259v-8.2H865c-1.4,3.2-5,4.9-10.1,4.9h-0.3v-1.4h0.3
		c5.9,0,9.3-2.5,9.3-6.8v-1h-9.6v-1.4h11.1v2.4c0,0.7-0.1,1.3-0.2,1.9h4.7v-5h1.5V259H870.2z"/>
	<path class="st1" d="M854.9,255.5v-0.9c6,0,9.6-2.6,9.6-7.1v-1.2h-9.6v-0.9h10.5v2.1c0,0.8-0.1,1.5-0.3,2.2h5.3v-5h0.9v14h-0.9
		v-8.2h-5.6C863.5,253.7,859.9,255.5,854.9,255.5z M871.9,262.2v0.8h-15.8v-5.5h0.9v4.6L871.9,262.2z"/>
	<path class="st1" d="M876.5,263.4v-4.5h14.8v-1.6h-14.8v-1.4h16.3v4.4H878v1.7h15.2v1.4H876.5z M875,254.2v-1.4h19.1v1.4H875z
		 M884.6,251.7c-5.3,0-8.3-1.3-8.3-3.6c0-2.3,3-3.6,8.3-3.6s8.3,1.3,8.3,3.6C892.9,250.4,889.9,251.7,884.6,251.7z M884.6,245.9
		c-4.2,0-6.8,0.8-6.8,2.2c0,1.3,2.6,2.2,6.8,2.2c4.2,0,6.8-0.8,6.8-2.2C891.4,246.8,888.8,245.9,884.6,245.9z"/>
	<path class="st1" d="M893.9,253.9h-18.6v-0.8h18.6V253.9z M892.6,248.1c0,2.4-3.8,3.3-8,3.3s-8-0.9-8-3.3s3.8-3.3,8-3.3
		S892.6,245.7,892.6,248.1z M892.5,260h-14.8v2.2h15.2v0.8h-16.1v-3.9h14.8V257h-14.8v-0.8h15.7V260z M877.5,248.1
		c0,1.8,3.4,2.4,7.1,2.4s7.1-0.7,7.1-2.4s-3.4-2.4-7.1-2.4S877.5,246.3,877.5,248.1z"/>
	<path class="st1" d="M903.9,263.3V256h1.5v2.4H918l0-2.3h1.5v7.2H903.9z M918,261.9v-2.1h-12.6v2.1H918z M917.9,255.7v-11.3h1.5
		v4.5h3v1.4h-3v5.4H917.9z M909,255.7c-3.3,0-5.6-1.5-5.6-3.6s2.3-3.6,5.6-3.6s5.6,1.5,5.6,3.6S912.3,255.7,909,255.7z M909,250
		c-2.4,0-4.1,0.9-4.1,2.2s1.7,2.2,4.1,2.2s4.1-0.9,4.1-2.2S911.4,250,909,250z M902.4,247.8v-1.4h5.9v-2.3h1.5v2.3h5.9v1.4H902.4z"
		/>
	<path class="st1" d="M915.4,247.5h-12.7v-0.9h5.9v-2.3h0.9v2.3h5.9V247.5z M903.7,252.1c0-1.9,2.2-3.3,5.3-3.3s5.3,1.3,5.3,3.3
		s-2.2,3.3-5.3,3.3S903.7,254.1,903.7,252.1z M918.2,256.4h0.9v6.6h-15v-6.7h0.9v2.4h13.2L918.2,256.4z M904.6,252.1
		c0,1.3,1.7,2.4,4.4,2.4s4.4-1.1,4.4-2.4s-1.7-2.4-4.4-2.4S904.6,250.8,904.6,252.1z M918.2,262.2v-2.7h-13.2v2.7H918.2z
		 M922.1,250.1h-3v5.4h-0.9v-10.8h0.9v4.5h3V250.1z"/>
	<path class="st1" d="M939.8,263.8v-7.1h-4.3v-1.4h4.3V252h-4.3v-1.4h4.3v-6.2h1.5v19.4H939.8z M930.2,255.6c-1.2,3.9-3.2,6.3-6,6.9
		l-0.3,0.1v-1.5l0.2-0.1c3.1-0.7,5.3-5.3,5.6-11.8H924v-1.4h5.7v-3.4h1.6v3.4h5.3v1.4h-5.4c-0.1,1.5-0.3,3-0.6,4.5l6.6,7.8l-1.1,1
		L930.2,255.6z"/>
	<path class="st1" d="M930.4,253.9l6.5,7.7l-0.7,0.6l-6.1-7.2c-1.1,4-3.1,6.6-5.9,7.2v-0.9c3.5-0.8,5.5-6,5.8-12.3h-5.7v-0.9h5.7
		v-3.4h1v3.4h5.3v0.9H931C930.9,250.6,930.7,252.3,930.4,253.9z M941,244.7v18.8h-0.9v-7.1h-4.3v-0.9h4.3v-3.7h-4.3v-0.9h4.3v-6.2
		L941,244.7z"/>
	<polygon class="st1" points="950.8,262.7 950.8,261.2 959.6,261.2 959.6,257.1 952.3,257.1 952.3,250.5 967.1,250.5 967.1,246.7 
		952.3,246.7 952.3,245.3 968.6,245.3 968.6,251.9 953.8,251.9 953.8,255.6 968.9,255.6 968.9,257 961.1,257 961.1,261.2 970,261.2 
		970,262.7 	"/>
	<path class="st1" d="M969.7,261.5v0.9h-18.6v-0.9h8.8v-4.7h-7.3v-6.1h14.8v-4.3h-14.8v-0.9h15.8v6h-14.8v4.3h15.2v0.9h-7.8v4.7
		L969.7,261.5z"/>
	<path class="st1" d="M972,262.7v-1.4h7.7V252h1.5v9.3h9.9v1.4H972z M988.2,258.3l0-11.6h-14.9v-1.4h16.4v13H988.2z"/>
	<path class="st1" d="M990.9,261.5v0.9h-18.6v-0.9h7.7v-9.3h0.9v9.3H990.9z M988.5,246.4h-14.9v-0.9h15.8V258h-0.9L988.5,246.4z"/>
	<path class="st1" d="M994.6,263.4v-4.2h14.8v-1.4h-14.8v-1.4h16.3l0,4.2h-14.8v1.5h15.2v1.4H994.6z M993.2,254.9v-1.4h19.1v1.4
		H993.2z M994.7,252v-4.3h14.6v-1.5h-14.6v-1.4h16.1l0,4.3h-14.6v1.6h14.9v1.4H994.7z"/>
	<path class="st1" d="M1012,254.6h-18.5v-0.8h18.5V254.6z M1010.6,260.2h-14.8v2.1h15.2v0.8h-16.1v-3.7h14.8v-2h-14.8v-0.8h15.7
		L1010.6,260.2z M1010.5,248.8h-14.6v2.1h14.9v0.8H995V248h14.6v-2.1H995v-0.8h15.5L1010.5,248.8z"/>
	<path class="st1" d="M1037.2,263.7v-19.3l1.5,0v19.4H1037.2z M1032.2,263.4v-10h-3.5V252h3.5l0-7.5h1.5v18.9H1032.2z M1020.8,261
		l0.2-0.1c2.6-0.9,4-5.9,4.1-14.3h-4v-1.4h9.4v1.4h-3.9c0,2.1-0.1,4.2-0.4,6.3l4.8,8.6l-1.3,0.8l-4-7.1c-0.8,4.1-2.4,6.5-4.7,7.2
		l-0.4,0.1V261z"/>
	<path class="st1" d="M1025.9,253l4.8,8.4l-0.8,0.5l-4.2-7.6c-0.7,4.5-2.3,7.1-4.6,7.8v-0.9c3-1.1,4.2-6.8,4.3-14.8h-4v-0.9h8.8v0.9
		h-3.8C1026.3,248.6,1026.2,250.8,1025.9,253z M1032.5,244.8h0.9v18.3h-0.9v-10h-3.5v-0.9h3.4L1032.5,244.8z M1038.4,244.7v18.8
		h-0.9v-18.8L1038.4,244.7z"/>
	<path class="st1" d="M1057.3,263.6v-5.2H1043V257h15.8v6.6H1057.3z M1057.3,256.3v-11.9h1.5v4.6h3v1.4h-3v5.9H1057.3z M1042,254.1
		l0.2,0c3.5-0.6,5.6-3.3,5.8-7.4h-5.8v-1.4h12.6v1.4h-5.3c0,1-0.2,2.1-0.5,3.1l6.4,4.6l-0.9,1.2l-6.1-4.4c-1.2,2.4-3.4,4-6.1,4.4
		l-0.3,0V254.1z"/>
	<path class="st1" d="M1042.2,255.2v-0.9c3.7-0.7,5.9-3.4,6-8h-5.8v-0.9h12v0.9h-5.3c0,1.2-0.2,2.4-0.6,3.5l6.3,4.6l-0.5,0.7
		l-6.1-4.4C1047.2,253.1,1044.9,254.8,1042.2,255.2z M1043.2,257.3h15.2v6h-0.9v-5.2h-14.3V257.3z M1061.5,250.1h-3v5.9h-0.9v-11.3
		h0.9v4.6h3V250.1z"/>
	<path class="st1" d="M1078.3,263.7v-19.3h1.5v8.2h3v1.4h-3v9.7H1078.3z M1069.7,262.7c-3.1,0-5.3-2.5-5.3-5.9
		c0-3.4,2.2-5.9,5.3-5.9s5.3,2.5,5.3,5.9C1075,260.2,1072.7,262.7,1069.7,262.7z M1069.6,252.2c-1.9,0-3.8,1.6-3.8,4.5
		s1.9,4.5,3.8,4.5c1.9,0,3.7-1.5,3.9-4.3l0-0.3C1073.4,253.8,1071.5,252.2,1069.6,252.2z M1063.3,249.3v-1.4h5.6v-3.5h1.5v3.5h5.6
		v1.4H1063.3z"/>
	<path class="st1" d="M1070.1,248.1h5.6v0.9h-12.2v-0.9h5.6v-3.5h0.9V248.1z M1074.7,256.7c0,3.5-2.3,5.6-5,5.6s-5-2.2-5-5.6
		s2.3-5.7,5-5.7S1074.7,253.2,1074.7,256.7L1074.7,256.7z M1073.7,256.7c0-3-1.9-4.8-4.1-4.8s-4.1,1.9-4.1,4.8c0,3,1.9,4.8,4.1,4.8
		S1073.7,259.7,1073.7,256.7L1073.7,256.7z M1082.5,253.7h-3v9.7h-0.9v-18.7h0.9v8.2h3V253.7z"/>
	<path class="st1" d="M1098.5,260c-0.9,1.7-2.5,3-4.5,3.3l-0.1,0l-3.4-3.2c-0.9,1.6-2.5,2.8-4.4,3.2l-0.3,0.1v-1.4l0.2,0
		c2.2-0.3,4.2-3.1,4.3-6.2l0-0.3l1.5,0.1l0,0.3c-0.1,1-0.3,2-0.7,3l3.2,3c2-0.6,3.6-3.2,3.7-6.1l0-0.3l1.5,0.1l0,0.3
		c0,0.9-0.2,1.9-0.5,2.8l4.5,3.8l-1,1.1L1098.5,260z M1100.2,255.5v-2.8h-4.2l0.1-1.4h4.1V248h-4.1l-0.1-1.4h4.2v-2.2h1.5v11.1
		H1100.2z M1090.2,254.8c-3.5,0-5.8-2-5.8-5c0-3,2.3-5,5.8-5c3.6,0,5.9,2,5.9,5C1096.1,252.8,1093.7,254.8,1090.2,254.8z
		 M1090.2,246.2c-2.6,0-4.4,1.4-4.4,3.6c0,2.2,1.7,3.6,4.4,3.6c2.7,0,4.4-1.4,4.4-3.6C1094.6,247.6,1092.9,246.2,1090.2,246.2z"/>
	<path class="st1" d="M1090.2,254.5c-3.5,0-5.6-2-5.6-4.7s2-4.7,5.6-4.7s5.6,2,5.6,4.7S1093.8,254.5,1090.2,254.5z M1090.2,253.6
		c2.8,0,4.7-1.5,4.7-3.9s-1.9-3.9-4.7-3.9s-4.6,1.5-4.6,3.9S1087.5,253.6,1090.2,253.6L1090.2,253.6z M1102.5,263l-4.1-3.5
		c-0.8,1.8-2.4,3.1-4.4,3.5l-3.5-3.4c-0.8,1.8-2.5,3-4.4,3.4v-0.9c2.3-0.4,4.4-3.2,4.6-6.4l0.9,0.1c-0.1,1.1-0.3,2.1-0.7,3.1
		l3.5,3.3c2.2-0.5,3.9-3.3,4.1-6.4l0.9,0.1c-0.1,1-0.2,2-0.6,2.9l4.4,3.7L1102.5,263z M1100.5,251.5v-3.8h-4.1l-0.1-0.9h4.2v-2.2
		h0.9v10.5h-0.9v-2.8h-4.2l0.1-0.9H1100.5z"/>
	<path class="st1" d="M1106.6,263.4v-7.6h1.5v2.5h13.2v-2.5h1.5v7.6H1106.6z M1121.3,261.9v-2.2h-13.2v2.2H1121.3z M1105.1,254.6
		v-1.4h19.1v1.4H1105.1z M1114.6,248c-2.2,2.3-5.2,3.6-8.3,3.7l-0.3,0l0-0.3v-1.2l0.3,0c3.5-0.1,7.9-2.4,8.7-5.9l0.1-0.3l1.5,0.2
		l-0.1,0.3c-0.2,0.8-0.5,1.6-0.9,2.3l8.1,3.7l-0.6,1.3L1114.6,248z"/>
	<path class="st1" d="M1124,253.4v0.9h-18.6v-0.9H1124z M1106.2,251.4v-0.9c3.7-0.1,8.1-2.5,9-6.2l0.9,0.1c-0.2,0.9-0.5,1.7-1.1,2.4
		l8.1,3.7l-0.4,0.8l-8.3-3.8C1112.4,249.9,1109.4,251.3,1106.2,251.4L1106.2,251.4z M1121.6,256.1h0.9v7h-15.6v-7h0.9v2.5h13.8
		L1121.6,256.1z M1121.6,262.2v-2.8h-13.8v2.8H1121.6z"/>
	<path class="st1" d="M1142.4,263.8v-19.4h1.6v19.4H1142.4z M1127.6,262.4v-17.3h1.5V261l6.6,0c1.6,0,3.1-0.3,4.6-0.9l0.4-0.2v1.5
		l-0.2,0.1c-1.5,0.6-3.1,0.9-4.7,0.9L1127.6,262.4z"/>
	<path class="st1" d="M1128.8,261.3h6.7c1.7,0,3.3-0.3,4.9-0.9v0.9c-1.5,0.6-3.2,1-4.9,0.9h-7.6v-16.7h0.9V261.3z M1143.6,263.5h-1
		v-18.8h1V263.5z"/>
	<path class="st1" d="M1163,263.8v-19.4h1.5v8.2h3v1.4h-3v9.7H1163z M1148.6,262.4v-17.2h11.3v1.4h-9.8V261l6.3,0
		c1.6,0,3.2-0.3,4.7-0.9l0.4-0.2v1.5l-0.2,0.1c-1.5,0.6-3.1,0.9-4.8,0.9L1148.6,262.4z"/>
	<path class="st1" d="M1156.2,261.3c1.7,0,3.3-0.3,4.9-1v0.9c-1.5,0.6-3.2,0.9-4.9,0.9h-7.4v-16.6h10.8v0.9h-9.8v14.9H1156.2z
		 M1167.2,253.8h-3v9.7h-0.9v-18.8h0.9v8.2h3V253.8z"/>
	<circle class="st1" cx="1170" cy="262.2" r="1.3"/>
	<path class="st1" d="M1171,262.2c0,0.6-0.4,1-1,1s-1-0.4-1-1s0.4-1,1-1S1171,261.7,1171,262.2z"/>
	<path class="st1" d="M1577.9,611.5v17.1h10.6v0.9H1577v-18L1577.9,611.5z"/>
	<path class="st1" d="M1591,620.4c0-5.1,4.3-9.3,9.4-9.2c5.1,0,9.3,4.3,9.2,9.4c0,5.1-4.2,9.2-9.3,9.2c-5,0.2-9.1-3.7-9.3-8.7
		C1591,620.9,1591,620.7,1591,620.4z M1608.6,620.4c-0.1-4.6-3.9-8.2-8.5-8.2c-4.6,0.1-8.2,3.9-8.2,8.5c0.1,4.5,3.8,8.2,8.3,8.2
		c4.5,0.1,8.2-3.4,8.3-7.9C1608.6,620.8,1608.6,620.6,1608.6,620.4z"/>
	<path class="st1" d="M1630.6,617.3h-1c-0.8-3.1-4-5.3-7.8-5.3c-4.9,0-8.3,3.6-8.3,8.5s3.4,8.5,8.4,8.5c4.4,0,7.9-3,8-7.5h-8.6v-0.9
		h9.6v0.6c0,5.2-4,8.7-9.1,8.7c-5.2-0.2-9.2-4.5-9.1-9.7c0.2-4.9,4.1-8.9,9.1-9.1C1626.3,611.1,1629.8,613.8,1630.6,617.3z"/>
	<path class="st1" d="M1633.8,620.4c0-5.1,4.3-9.3,9.4-9.2c5.1,0,9.3,4.3,9.2,9.4c0,5.1-4.2,9.2-9.3,9.2c-5,0.2-9.1-3.7-9.3-8.7
		C1633.8,620.9,1633.8,620.7,1633.8,620.4z M1651.4,620.4c-0.1-4.6-3.9-8.2-8.5-8.2c-4.6,0.1-8.2,3.9-8.2,8.5
		c0.1,4.5,3.8,8.2,8.3,8.2c4.5,0.1,8.2-3.4,8.3-7.9C1651.4,620.8,1651.4,620.6,1651.4,620.4z"/>
	<path class="st1" d="M1684.6,441.2c0,25.4-17,47.6-41.4,54.4c8.2-30.1-9.5-61.1-39.6-69.3c-9.7-2.6-20-2.6-29.7,0
		c8.2-30,39.2-47.7,69.2-39.5C1667.6,393.5,1684.6,415.8,1684.6,441.2z"/>
	<path class="st1" d="M1588.8,537.4c-31.3,0-56.6-25.4-56.6-56.7c0-31.3,25.4-56.6,56.7-56.6c31.3,0,56.6,25.4,56.6,56.7
		c0,5-0.7,10-2,14.8C1636.7,520.3,1614.3,537.4,1588.8,537.4z M1588.8,424.7c-30.9,0-56,25.1-56,56s25.1,56,56,56s56-25.1,56-56
		C1644.6,449.9,1619.6,424.9,1588.8,424.7L1588.8,424.7z"/>
	<path class="st1" d="M1556.9,426.2l0.3,0.1c2.1,0.2,3.4-1,4-3.8l0.2-0.7l1.5,0.3l-0.2,0.7c-0.1,0.4-0.2,0.8-0.3,1.2
		c-1,3.1-2.9,4.3-5.8,3.7l-11.5-2.5l-0.5,2.3l-0.2,0.7l-1.5-0.3l0.2-0.7l0.5-2.3l-3.9-0.8l-0.7-0.2l0.3-1.5l0.7,0.2l3.9,0.8l1-4.4
		l0.2-0.7l1.5,0.3l-0.2,0.8l-1,4.4L1556.9,426.2z"/>
	<path class="st1" d="M1549.7,412.4c-1.1-1.9-1.1-4.1-0.2-6.1c0.7-1.6,1.9-2.8,3.5-3.5c2.1-1,4.5-1,6.5,0l8.9,4l0.7,0.3l-0.6,1.4
		l-0.7-0.3l-9-3.9c-1.2-0.6-2.6-0.7-3.9-0.5c-1.8,0.3-3.3,1.5-4.1,3.1c-0.5,1.2-0.6,2.5-0.3,3.7c0.5,1.8,1.8,3.3,3.6,4l0.7,0.3
		l8.2,3.7l0.7,0.3l-0.6,1.4l-0.7-0.3l-8.2-3.7l-0.7-0.3l-11.8-5.2l-0.7-0.3l0.6-1.4l0.7,0.3l7.4,3.3
		C1549.8,412.6,1549.8,412.5,1549.7,412.4z"/>
	<path class="st1" d="M1577.1,390.6c0.8,2.8,0.2,5.7-1.7,7.9c-1.3,1.6-3.1,2.6-5.2,2.9c-2.6,0.4-5.2-0.4-7.2-2.1
		c-1.8-1.4-3-3.3-3.4-5.5c-0.6-2.4,0-4.8,1.6-6.7c1.3-1.6,3.2-2.6,5.2-2.9c2.6-0.4,5.2,0.4,7.2,2.1l0.6,0.5l-0.5,0.6l-9,11.2
		c1.2,0.8,2.7,1.3,4.2,1.4c2.1,0.2,4.1-0.7,5.4-2.4c1.5-1.8,2-4.3,1.4-6.6L1577.1,390.6z M1572,387c-1.2-1-2.8-1.5-4.3-1.4
		c-2.1-0.1-4,0.8-5.3,2.5c-0.9,1.1-1.4,2.5-1.4,4c0,2.2,0.9,4.3,2.5,5.7L1572,387z"/>
	<path class="st1" d="M1589,368.2c0.4-2.7,2.2-5,4.8-6.1l0.7-0.4l0.7,1.4l-0.7,0.3c-1.2,0.6-2.2,1.4-2.9,2.5
		c-1.4,2.1-1.5,4.5-0.1,7.2l0.2,0.3l0.3,0.7l3.4,6.8l0.3,0.7l-1.3,0.7l-0.3-0.7l-3.4-6.8l-0.3-0.7c0-0.1-0.1-0.2-0.2-0.3l-3.6-7.1
		l-0.3-0.7l1.4-0.7l0.3,0.7l1.2,2.4C1589,368.3,1589,368.3,1589,368.2z"/>
	<path class="st1" d="M1616.7,370.2c-1,2.7-3.2,4.7-6,5.4c-2,0.5-4.1,0.3-5.9-0.7c-2.3-1.2-4-3.4-4.6-5.9c-0.6-2.1-0.4-4.4,0.5-6.5
		c0.9-2.2,2.9-3.9,5.2-4.5c2-0.5,4.1-0.3,5.9,0.8c2.3,1.2,3.9,3.4,4.5,5.9l0.2,0.7l-0.7,0.2l-13.9,3.7c0.5,1.4,1.4,2.6,2.5,3.6
		c1.6,1.4,3.8,1.8,5.8,1.3c2.3-0.6,4.2-2.3,5-4.5L1616.7,370.2z M1614.7,364.3c-0.4-1.5-1.4-2.8-2.7-3.7c-1.6-1.3-3.7-1.7-5.7-1.1
		c-1.4,0.4-2.6,1.2-3.4,2.3c-1.3,1.7-1.8,3.9-1.4,6.1L1614.7,364.3z"/>
	<path class="st1" d="M1618.9,355.2h1.6l0.2,0.5l6.4,14.9l5.8-15.1l0.2-0.5h1.6l-0.4,1.1l-6.5,16.8l-0.2,0.5h-1l-0.2-0.5l-7.2-16.6
		L1618.9,355.2z"/>
	<path class="st1" d="M1641.3,358.8c3.5-2.7,8.4-2,11.1,1.4c0.1,0.2,0.3,0.4,0.4,0.6c1.4,2.2,1.9,4.8,1.2,7.4
		c-0.5,2.2-1.7,4.2-3.6,5.5c-3.5,2.7-8.5,2-11.1-1.4c-0.1-0.2-0.3-0.4-0.4-0.6c-1.4-2.2-1.9-4.8-1.2-7.4
		C1638.2,362.1,1639.5,360.1,1641.3,358.8z M1639.6,369.8c1.3,3.3,5.1,4.8,8.4,3.5c0.3-0.1,0.5-0.2,0.8-0.4c2-1.1,3.3-3,3.8-5.2
		c0.4-1.7,0.3-3.5-0.4-5.1c-1.3-3.3-5.1-4.8-8.3-3.5c-0.3,0.1-0.5,0.2-0.8,0.4c-2,1.1-3.3,3-3.8,5.2
		C1638.8,366.3,1638.9,368.2,1639.6,369.8L1639.6,369.8z"/>
	<path class="st1" d="M1664.7,354l1.4,0.6l-0.3,0.7l-9.8,23.1l-0.3,0.7l-1.4-0.6l0.3-0.7l9.8-23.1L1664.7,354z"/>
	<path class="st1" d="M1668.7,364.8l1.3,0.8l-0.4,0.6l-5.8,9c-0.6,1-0.9,2.1-0.7,3.2c0.2,1.8,1.2,3.4,2.8,4.4c1,0.7,2.3,1,3.5,1
		c1.7,0,3.3-0.8,4.2-2.3l5.8-9l0.4-0.6l1.3,0.8l-0.4,0.6l-5.8,9c-0.8,1.3-2.1,2.3-3.6,2.7c-2.1,0.6-4.4,0.3-6.2-1
		c-1.5-0.9-2.6-2.3-3.1-4c-0.7-1.9-0.5-4,0.6-5.7l5.8-9L1668.7,364.8z"/>
	<path class="st1" d="M1678.7,388.6l-0.2,0.2c-1.3,1.6-0.9,3.4,1.1,5.4l0.6,0.5l-1.1,1.1l-0.6-0.5c-0.3-0.3-0.6-0.6-0.8-0.9
		c-2.1-2.4-2.1-4.7-0.1-6.9l8.2-8.5l-1.7-1.6l-0.5-0.5l1-1.1l0.6,0.5l1.7,1.6l2.8-2.9l0.5-0.5l1.1,1.1l-0.5,0.5l-2.8,2.9l3.2,3.1
		l0.6,0.5l-1,1.1l-0.6-0.5l-3.3-3.1L1678.7,388.6z"/>
	<path class="st1" d="M1694.7,386.3l1,1.2l-0.6,0.5l-13,10.6l-0.6,0.5l-1-1.2l0.6-0.5l13-10.6L1694.7,386.3z M1697.1,384.4l1.2-1
		l0.5,0.6l0,0l0.5,0.6l-1.2,1l-0.5-0.6l0,0L1697.1,384.4z"/>
	<path class="st1" d="M1697.9,395.2c4.3,0.8,7.2,4.9,6.4,9.2c0,0.2-0.1,0.5-0.2,0.7c-0.6,2.5-2.3,4.6-4.6,5.8
		c-2,1.1-4.3,1.5-6.5,1.1c-4.3-0.8-7.2-4.9-6.4-9.2c0-0.2,0.1-0.5,0.2-0.7c0.6-2.5,2.3-4.6,4.6-5.8
		C1693.4,395.2,1695.7,394.8,1697.9,395.2z M1688.7,401.4c-1.5,3.2-0.2,7,3,8.6c0.2,0.1,0.5,0.2,0.8,0.3c2.1,0.7,4.4,0.5,6.4-0.7
		c1.5-0.8,2.8-2.2,3.5-3.8c1.5-3.2,0.2-7-3-8.5c-0.2-0.1-0.5-0.2-0.8-0.3c-2.1-0.7-4.4-0.5-6.4,0.7
		C1690.6,398.5,1689.4,399.8,1688.7,401.4L1688.7,401.4z"/>
	<path class="st1" d="M1695.8,431.6l-0.4-1.4l0.7-0.2l9.5-2.4c1.3-0.3,2.5-1,3.4-2.1c1.3-1.3,1.7-3.2,1.2-5c-0.3-1.2-1-2.3-2.1-3
		c-1.5-1.2-3.5-1.5-5.3-1l-0.7,0.2l-8.7,2.2l-0.7,0.2l-0.4-1.5l0.7-0.2l8.7-2.2l0.7-0.2l6.8-1.7l0.7-0.2l0.4,1.5l-0.7,0.2l-2.1,0.5
		c0.1,0,0.2,0.1,0.3,0.2c2,0.8,3.5,2.5,4,4.6c0.4,1.6,0.2,3.4-0.6,4.9c-1,2-2.9,3.5-5.2,4l-9.5,2.4L1695.8,431.6z"/>
	<path class="st1" d="M1710.8,453.7c2.7,3.4,2.1,8.4-1.3,11.1c-0.2,0.1-0.4,0.3-0.6,0.4c-2.2,1.4-4.8,1.9-7.3,1.3
		c-2.2-0.5-4.2-1.7-5.5-3.5c-2.7-3.4-2.1-8.4,1.4-11.1c0.2-0.1,0.4-0.3,0.6-0.4c2.2-1.4,4.8-1.9,7.3-1.3
		C1707.5,450.7,1709.4,451.9,1710.8,453.7z M1699.8,452.1c-3.3,1.4-4.8,5.1-3.5,8.4c0.1,0.3,0.2,0.5,0.4,0.8c1.1,2,3,3.3,5.2,3.8
		c1.7,0.4,3.5,0.3,5.1-0.5c3.3-1.4,4.8-5.1,3.5-8.4c-0.1-0.3-0.2-0.5-0.4-0.8c-1.1-2-3-3.3-5.2-3.8
		C1703.2,451.2,1701.4,451.4,1699.8,452.1L1699.8,452.1z"/>
	<path class="st1" d="M1705.1,480.5l-0.3,0.7l-1.4-0.6l0.3-0.7l1.9-4.2l-14.6-6.6l-0.7-0.3l0.6-1.4l0.7,0.3l14.6,6.6l0.9-2.1
		l0.3-0.7l1.4,0.6l-0.3,0.7l-1,2.1c1.2,0.6,2.2,1.3,3.2,2.2c1.9,1.6,2.4,4.2,1.3,6.4l-0.3,0.7l-1.4-0.6l0.3-0.7
		c0.2-0.4,0.3-0.9,0.3-1.4c0.1-2-1.2-3.7-4.1-5.2L1705.1,480.5z"/>
	<path class="st1" d="M1680.4,492.1l-0.2-0.2c-1.6-1.3-3.4-1-5.4,1l-0.5,0.5l-1.1-1.1l0.5-0.5c0.3-0.3,0.6-0.6,0.9-0.8
		c2.5-2,4.8-2,6.9,0l8.4,8.2l1.6-1.6l0.5-0.5l1.1,1.1l-0.5,0.5l-1.6,1.6l2.8,2.8l0.6,0.5l-1.1,1.1l-0.5-0.5l-2.8-2.8l-3.2,3.2
		l-0.5,0.5l-1.1-1.1l0.5-0.5l3.2-3.2L1680.4,492.1z"/>
	<path class="st1" d="M1679.1,507.6c-0.1,2.1-1.3,4.1-3.1,5.3c-1.4,0.9-3.1,1.3-4.8,1.1c-2.3-0.3-4.3-1.6-5.5-3.5l-5.4-8.1l-0.5-0.6
		l1.2-0.8l0.4,0.6l5.5,8.1c0.7,1.1,1.8,2,3.1,2.5c1.7,0.7,3.6,0.6,5.1-0.5c1.1-0.7,1.8-1.8,2.2-3c0.6-1.8,0.2-3.8-0.9-5.4l-0.4-0.6
		l-5-7.5l-0.4-0.6l1.3-0.8l0.4,0.6l5,7.5l0.4,0.6l7.1,10.7l0.4,0.6l-1.3,0.8l-0.4-0.6l-4.5-6.8
		C1679.1,507.4,1679.1,507.5,1679.1,507.6z"/>
	<path class="st1" d="M1644.3,511.3c0.8-2.7,2.9-4.9,5.7-5.8c1.9-0.7,4-0.5,5.9,0.3c2.4,1.1,4.2,3.1,4.9,5.6
		c0.7,2.1,0.7,4.4-0.1,6.5c-0.8,2.3-2.6,4.1-4.9,4.8c-2,0.7-4.1,0.5-5.9-0.4c-2.4-1.1-4.1-3.1-4.9-5.6l-0.2-0.7l0.7-0.2l13.7-4.6
		c-0.6-1.4-1.6-2.5-2.8-3.4c-1.7-1.3-3.9-1.6-5.9-0.9c-2.3,0.7-4,2.5-4.7,4.8L1644.3,511.3z M1646.7,517.1c1.3,3.5,5.1,5.4,8.7,4.3
		c1.3-0.5,2.5-1.3,3.3-2.5c1.2-1.8,1.6-4.1,1-6.2L1646.7,517.1z"/>
	<path class="st1" d="M1610.1,522.8c-1.4,1.3-3.4,1.9-5.3,1.5c-1.4-0.3-2.7-1.1-3.6-2.3c-1.3-1.7-1.7-3.9-1.2-6l2.2-10.1l0.1-0.8
		l1.4,0.3l-0.1,0.8l-2.1,10.2c-0.3,1.2-0.2,2.4,0.2,3.5c0.5,1.5,1.8,2.7,3.4,3c1,0.2,2.1,0.1,3-0.5c1.5-0.8,2.6-2.3,2.9-4l0.2-0.7
		l2-9.4l0.1-0.8l1.5,0.3l-0.1,0.8l-2,9.5l-0.2,0.8c-0.3,1.2-0.2,2.4,0.2,3.5c0.5,1.5,1.8,2.7,3.4,3c1,0.2,2.1,0.1,3-0.5
		c1.5-0.8,2.6-2.3,2.9-4l0.2-0.7l2-9.4l0.2-0.7l1.5,0.3l-0.2,0.8l-2,9.4l-0.2,0.7l-1.3,6.2l-0.2,0.8l-1.5-0.3l0.2-0.7l0.4-1.7
		c-1.4,1.3-3.4,1.8-5.3,1.4c-0.5-0.1-1-0.3-1.5-0.5c-1.7-0.9-2.9-2.4-3.3-4.3C1610.8,522.2,1610.5,522.5,1610.1,522.8z"/>
	<path class="st1" d="M1591,515.9c-4.1,1.5-8.7-0.6-10.2-4.7c-0.1-0.2-0.1-0.4-0.2-0.7c-0.7-2.5-0.3-5.2,1.1-7.4
		c1.1-2,2.9-3.4,5.1-4.2c4.1-1.5,8.6,0.6,10.2,4.7c0.1,0.2,0.2,0.5,0.2,0.7c0.7,2.5,0.3,5.2-1.1,7.4
		C1594.9,513.7,1593.1,515.2,1591,515.9z M1595.9,505.9c-0.3-3.5-3.4-6.2-6.9-5.9c-0.3,0-0.6,0.1-0.8,0.1c-2.2,0.4-4.1,1.8-5.2,3.8
		c-0.9,1.5-1.3,3.3-1.1,5c0.2,2.1,1.3,3.9,3.1,5c1.4,0.8,3,1.1,4.6,0.7c2.2-0.4,4.1-1.8,5.2-3.8
		C1595.7,509.4,1596.1,507.6,1595.9,505.9L1595.9,505.9z"/>
	<path class="st1" d="M1573.3,504c-4.4,0.4-8.2-2.8-8.7-7.1c0-0.2,0-0.5,0-0.7c-0.1-2.6,1-5.1,2.9-6.9c1.6-1.6,3.7-2.6,6-2.8
		c4.3-0.4,8.2,2.7,8.6,7.1c0,0.2,0,0.5,0,0.7c0.1,2.6-1,5.1-2.9,6.9C1577.7,502.8,1575.6,503.8,1573.3,504z M1580.6,495.5
		c0.6-3.5-1.7-6.8-5.2-7.4c-0.3,0-0.6-0.1-0.8-0.1c-2.2-0.1-4.4,0.7-6,2.4c-1.3,1.2-2.1,2.8-2.4,4.6c-0.6,3.5,1.7,6.8,5.2,7.4
		c0.3,0,0.5,0.1,0.8,0.1c2.3,0.1,4.5-0.7,6-2.4C1579.5,498.9,1580.3,497.3,1580.6,495.5L1580.6,495.5z"/>
	<path class="st1" d="M1565.7,468.4l0.7,1.3l-0.6,0.4l-8.5,4.9c-1.2,0.7-2.1,1.7-2.7,2.9c-0.9,1.6-0.8,3.6,0.1,5.1
		c0.6,1.1,1.6,1.9,2.8,2.4c1.8,0.7,3.8,0.5,5.4-0.5l0.7-0.4l7.8-4.4l0.7-0.4l0.8,1.3l-0.7,0.4l-7.8,4.5l-0.7,0.4l-6,3.4l-0.7,0.4
		l-0.8-1.3l0.7-0.4l1.9-1.1c-0.1,0-0.2,0-0.3-0.1c-2.1-0.3-4-1.6-5-3.4c-0.8-1.5-1.1-3.2-0.8-4.9c0.4-2.2,1.9-4.2,3.9-5.2l8.5-4.8
		L1565.7,468.4z"/>
	<path class="st1" d="M1185.2,619.3v0.9h-19.2v-0.9H1185.2z M1166.8,617.3v-0.9c3.8-0.1,8.4-2.5,9.3-6.1l0.9,0.2
		c-0.2,0.8-0.5,1.6-1,2.3l8.4,3.8l-0.4,0.8l-8.6-3.8C1173.1,615.8,1170,617.1,1166.8,617.3L1166.8,617.3z M1168.4,628.8h15.7v0.9
		h-16.7v-4h15.3v-2.2h-15.3v-0.9h16.3v4h-15.3V628.8z"/>
	<path class="st1" d="M1207.1,628v0.9h-19.2V628h9.1v-4.9h-7.6v-6.3h15.3v-4.4h-15.3v-0.9h16.3v6.2h-15.4v4.5h15.7v0.9h-8.1v4.9
		H1207.1z"/>
	<path class="st1" d="M1210.6,621.8v-0.9c6.2,0,9.9-2.6,9.9-7.4v-1.3h-9.9v-0.9h10.9v2.2c0,0.8-0.1,1.6-0.3,2.3h5.5v-5.2h1v14.5h-1
		v-8.5h-5.8C1219.4,620,1215.7,621.8,1210.6,621.8z M1228.2,628.7v0.9h-16.4v-5.7h1v4.8L1228.2,628.7z"/>
	<path class="st1" d="M1130.2,435.2l0.3,0.1c2,0.4,3.3-0.7,4.1-3.3l0.2-0.7l1.4,0.4l-0.2,0.7c-0.1,0.4-0.2,0.7-0.4,1.1
		c-1.2,2.8-3.1,3.9-5.9,3.1l-10.8-3.3l-0.6,2.1l-0.2,0.7l-1.4-0.4l0.2-0.7l0.7-2.1l-3.7-1.1l-0.7-0.2l0.4-1.4l0.7,0.2l3.7,1.1
		l1.3-4.2l0.2-0.7l1.4,0.4l-0.2,0.7l-1.3,4.2L1130.2,435.2z"/>
	<path class="st1" d="M1124.4,421.3c-0.9-1.9-0.8-4.1,0.2-5.9c0.8-1.4,2.1-2.5,3.6-3.1c2.1-0.8,4.4-0.6,6.2,0.5l8.3,4.5l0.7,0.3
		l-0.7,1.3l-0.7-0.3l-8.3-4.5c-1.1-0.6-2.4-0.9-3.7-0.7c-1.8,0.1-3.3,1.1-4.2,2.7c-0.6,1.1-0.8,2.3-0.5,3.5c0.3,1.8,1.5,3.4,3.1,4.2
		l0.6,0.4l7.6,4.1l0.6,0.4l-0.7,1.3l-0.6-0.4l-7.6-4.2l-0.6-0.4l-10.8-5.9l-0.6-0.4l0.7-1.3l0.6,0.4l6.9,3.8
		C1124.5,421.5,1124.4,421.4,1124.4,421.3z"/>
	<path class="st1" d="M1152.3,402.6c0.5,2.7-0.3,5.5-2.2,7.5c-1.4,1.4-3.2,2.3-5.2,2.4c-2.5,0.2-5-0.8-6.8-2.6
		c-1.6-1.5-2.6-3.4-2.8-5.6c-0.4-2.3,0.4-4.6,2-6.3c1.4-1.4,3.2-2.3,5.2-2.4c2.5-0.1,4.9,0.8,6.7,2.6l0.5,0.5l-0.5,0.5l-9.6,10.1
		c1.1,0.9,2.5,1.5,3.9,1.7c2,0.3,4-0.4,5.4-1.9c1.6-1.6,2.3-4,1.8-6.2L1152.3,402.6z M1147.8,398.8c-1.1-1-2.5-1.6-4-1.7
		c-2-0.2-3.9,0.5-5.3,2c-0.9,1-1.5,2.3-1.7,3.6c-0.2,2.1,0.5,4.2,1.9,5.7L1147.8,398.8z"/>
	<path class="st1" d="M1165.6,382.1c0.6-2.6,2.5-4.7,5.1-5.5l0.7-0.3l0.6,1.4l-0.7,0.3c-1.2,0.5-2.2,1.2-3,2.2
		c-1.5,1.9-1.8,4.2-0.7,6.9l0.1,0.3l0.3,0.7l2.8,6.8l0.3,0.7l-1.4,0.5l-0.3-0.7l-2.8-6.8l-0.3-0.7c-0.1-0.1-0.1-0.2-0.1-0.3
		l-2.9-7.1l-0.3-0.7l1.3-0.6l0.3,0.7l1,2.4C1165.6,382.2,1165.6,382.1,1165.6,382.1z"/>
	<path class="st1" d="M1191.9,386.2c-1.2,2.5-3.5,4.3-6.2,4.7c-1.9,0.4-3.9,0-5.6-1.1c-2.1-1.4-3.5-3.6-3.9-6
		c-0.4-2.1-0.1-4.3,1-6.2c1.1-2.1,3.1-3.5,5.3-3.9c2-0.4,4,0.1,5.6,1.2c2.1,1.4,3.5,3.5,3.9,6l0.1,0.7l-0.7,0.1l-13.7,2.5
		c0.4,1.4,1.1,2.6,2.2,3.6c1.4,1.4,3.5,2.1,5.5,1.7c2.3-0.4,4.2-1.8,5.2-3.9L1191.9,386.2z M1190.5,380.4c-0.3-1.5-1.1-2.8-2.2-3.8
		c-1.5-1.3-3.5-1.9-5.4-1.5c-1.3,0.2-2.6,0.9-3.5,1.9c-1.4,1.6-2,3.6-1.8,5.7L1190.5,380.4z"/>
	<path class="st1" d="M1195.2,371.9l1.6,0.1l0.2,0.5l5,14.8l6.8-14l0.2-0.4l1.6,0.1l-0.5,1l-7.6,15.7l-0.2,0.4l-1-0.1l-0.2-0.5
		l-5.5-16.5L1195.2,371.9z"/>
	<path class="st1" d="M1216.3,377.1c3.5-2.3,8.3-1.3,10.6,2.2c0.1,0.2,0.2,0.4,0.3,0.6c1.2,2.2,1.4,4.8,0.6,7.1
		c-0.6,2.1-2,3.8-3.8,5c-3.5,2.3-8.3,1.3-10.6-2.2c-0.1-0.2-0.2-0.4-0.3-0.6c-1.2-2.2-1.4-4.8-0.6-7.1
		C1213.1,380,1214.5,378.2,1216.3,377.1z M1213.9,387.5c1,3.2,4.5,5,7.8,4c0.3-0.1,0.5-0.2,0.7-0.3c2-0.9,3.4-2.6,4-4.7
		c0.5-1.6,0.5-3.4,0-5c-1-3.2-4.5-5-7.8-4c-0.3,0.1-0.5,0.2-0.7,0.3c-2,0.9-3.4,2.6-4,4.7C1213.4,384.1,1213.4,385.9,1213.9,387.5
		L1213.9,387.5z"/>
	<path class="st1" d="M1239.3,374.3l1.3,0.7l-0.3,0.6L1229,397l-0.3,0.6l-1.3-0.7l0.3-0.6l11.2-21.3L1239.3,374.3z"/>
	<path class="st1" d="M1242.2,385l1.2,0.9l-0.5,0.6l-6.3,8.1c-0.7,0.9-1,1.9-1,3c0.1,1.7,0.9,3.4,2.4,4.4c0.9,0.7,2.1,1.2,3.3,1.2
		c1.6,0.2,3.2-0.5,4.2-1.8l6.3-8.2l0.5-0.5l1.2,0.9l-0.5,0.6l-6.3,8.1c-0.9,1.2-2.2,2-3.7,2.3c-2.1,0.4-4.2-0.1-5.9-1.4
		c-1.3-1-2.3-2.4-2.7-4c-0.6-1.9-0.2-3.9,1-5.4l6.3-8.2L1242.2,385z"/>
	<path class="st1" d="M1250,408.6l-0.2,0.2c-1.4,1.5-1.2,3.2,0.6,5.3l0.5,0.5l-1.1,1l-0.5-0.5c-0.3-0.3-0.5-0.6-0.7-0.9
		c-1.8-2.5-1.6-4.7,0.5-6.6l8.5-7.5l-1.5-1.7l-0.5-0.5l1.1-1l0.5,0.5l1.5,1.7l2.9-2.5l0.6-0.5l1,1.1l-0.6,0.5l-2.9,2.5l2.9,3.3
		l0.5,0.5l-1.1,1l-0.5-0.5l-2.9-3.3L1250,408.6z"/>
	<path class="st1" d="M1265.5,407.6l0.8,1.2l-0.6,0.4l-13.3,9.1l-0.6,0.4l-0.8-1.2l0.6-0.4l13.3-9.1L1265.5,407.6z M1267.9,406
		l1.2-0.8l0.4,0.6l0,0l0.4,0.6l-1.2,0.8l-0.4-0.6l0,0L1267.9,406z"/>
	<path class="st1" d="M1267.9,416.5c4.1,1.1,6.5,5.2,5.5,9.3c-0.1,0.2-0.1,0.4-0.2,0.6c-0.8,2.4-2.6,4.3-4.9,5.2
		c-2,0.9-4.2,1.1-6.3,0.5c-4.1-1.1-6.5-5.2-5.5-9.3c0.1-0.2,0.1-0.4,0.2-0.6c0.8-2.4,2.6-4.3,4.9-5.2
		C1263.5,416.1,1265.8,415.9,1267.9,416.5z M1258.5,421.7c-1.7,3-0.7,6.7,2.3,8.4c0.2,0.1,0.5,0.3,0.7,0.4c2,0.9,4.2,0.8,6.2-0.2
		c1.6-0.7,2.8-1.9,3.7-3.4c1.7-2.9,0.7-6.7-2.2-8.4c-0.2-0.1-0.5-0.3-0.8-0.4c-2-0.9-4.2-0.8-6.2,0.1
		C1260.6,419,1259.3,420.2,1258.5,421.7L1258.5,421.7z"/>
	<path class="st1" d="M1263,451.2l-0.2-1.4l0.7-0.2l9.3-1.6c1.3-0.2,2.5-0.8,3.4-1.7c1.3-1.2,1.9-3,1.6-4.7
		c-0.2-1.2-0.8-2.3-1.7-3.1c-1.4-1.2-3.3-1.7-5.1-1.3l-0.7,0.1l-8.6,1.4l-0.7,0.1l-0.2-1.4l0.7-0.1l8.6-1.4l0.7-0.1l6.6-1.1l0.7-0.1
		l0.2,1.5l-0.7,0.1l-2.1,0.4l0.3,0.2c1.8,1,3.1,2.7,3.4,4.8c0.3,1.6-0.1,3.3-0.9,4.6c-1.1,1.9-3.1,3.1-5.2,3.4l-9.3,1.6L1263,451.2z
		"/>
	<path class="st1" d="M1275.7,473.5c2.3,3.5,1.4,8.2-2.1,10.6c-0.2,0.1-0.4,0.2-0.6,0.4c-2.2,1.2-4.8,1.4-7.1,0.6
		c-2.1-0.6-3.9-2-5.1-3.8c-2.3-3.5-1.4-8.2,2.1-10.6c0.2-0.1,0.4-0.2,0.6-0.3c2.2-1.2,4.8-1.5,7.1-0.6
		C1272.7,470.3,1274.5,471.6,1275.7,473.5z M1265.2,471.1c-3.2,1-5,4.5-4,7.8c0.1,0.3,0.2,0.5,0.3,0.8c0.9,2,2.6,3.4,4.7,4
		c1.6,0.5,3.4,0.5,5-0.1c3.2-1,5-4.5,4-7.8c-0.1-0.3-0.2-0.5-0.3-0.8c-0.9-2-2.6-3.4-4.7-4C1268.6,470.5,1266.9,470.6,1265.2,471.1z
		"/>
	<path class="st1" d="M1268.2,498.8l-0.3,0.6l-1.3-0.7l0.3-0.6l2.1-3.8l-13.5-7.4l-0.6-0.4l0.7-1.3l0.6,0.4l13.5,7.4l1.1-1.9
		l0.3-0.6l1.3,0.7l-0.4,0.6l-1.1,2c1.1,0.6,2,1.4,2.9,2.4c1.7,1.7,2,4.3,0.8,6.3l-0.3,0.6l-1.3-0.7l0.3-0.6c0.2-0.4,0.4-0.9,0.4-1.3
		c0.3-1.9-0.9-3.7-3.5-5.3L1268.2,498.8z"/>
	<path class="st1" d="M1243.6,508l-0.2-0.2c-1.4-1.4-3.2-1.2-5.2,0.6l-0.6,0.5l-1-1.1l0.6-0.5c0.3-0.3,0.6-0.5,0.9-0.7
		c2.5-1.8,4.7-1.6,6.6,0.5l7.4,8.5l1.7-1.5l0.6-0.5l1,1.1l-0.6,0.5l-1.7,1.5l2.5,2.9l0.5,0.5l-1.1,1l-0.5-0.5l-2.5-2.9l-3.3,2.9
		l-0.6,0.5l-1-1.1l0.6-0.5l3.3-2.8L1243.6,508z"/>
	<path class="st1" d="M1241.2,522.8c-0.3,2.1-1.5,3.8-3.3,4.8c-1.4,0.8-3.1,1-4.7,0.7c-2.2-0.4-4-1.8-5-3.8l-4.6-8.2l-0.4-0.7
		l1.2-0.7l0.4,0.6l4.6,8.2c0.6,1.1,1.6,2.1,2.8,2.6c1.5,0.8,3.4,0.8,4.9-0.1c1.1-0.6,1.9-1.5,2.3-2.7c0.7-1.7,0.5-3.6-0.4-5.2
		l-0.3-0.6l-4.2-7.6l-0.4-0.6l1.3-0.7l0.4,0.6l4.2,7.6l0.3,0.6l6,10.8l0.3,0.6l-1.3,0.7l-0.3-0.6l-3.8-6.8
		C1241.2,522.6,1241.2,522.7,1241.2,522.8z"/>
	<path class="st1" d="M1207.5,523.7c1-2.6,3.2-4.5,5.9-5.1c1.9-0.5,3.9-0.2,5.6,0.8c2.2,1.2,3.8,3.3,4.3,5.8
		c0.6,2.1,0.3,4.3-0.6,6.2c-0.9,2.1-2.8,3.7-5.1,4.2c-1.9,0.5-4,0.2-5.7-0.8c-2.2-1.2-3.7-3.3-4.3-5.8l-0.2-0.7l0.7-0.2l13.5-3.4
		c-0.5-1.4-1.3-2.6-2.4-3.5c-1.5-1.3-3.6-1.8-5.6-1.3c-2.2,0.5-4.1,2.1-4.9,4.2L1207.5,523.7z M1209.3,529.4c1,3.5,4.5,5.6,8,4.8
		c1.3-0.3,2.5-1.1,3.3-2.2c1.3-1.6,1.8-3.8,1.4-5.8L1209.3,529.4z"/>
	<path class="st1" d="M1173.8,532.1c-2.5,2-6.1,1.6-8.1-0.9c-0.1-0.2-0.3-0.4-0.4-0.6c-1.1-1.7-1.4-3.9-0.7-5.8l2.8-9.6l0.2-0.7
		l1.4,0.4l-0.2,0.7l-2.8,9.6c-0.3,1.1-0.3,2.3,0,3.3c0.4,1.5,1.5,2.7,3,3.1c1,0.3,2,0.2,2.9-0.2c1.5-0.7,2.7-2,3.1-3.6l0.2-0.7
		l2.6-8.9l0.2-0.8l1.4,0.4l-0.2,0.7l-2.6,8.9l-0.2,0.7c-0.3,1.1-0.3,2.3,0,3.3c0.4,1.5,1.5,2.7,3,3.1c1,0.3,2,0.2,2.9-0.2
		c1.5-0.7,2.7-2,3.1-3.6l0.2-0.7l2.6-8.9l0.2-0.7l1.4,0.4l-0.2,0.7l-2.6,8.9l-0.2,0.7l-1.7,5.9l-0.2,0.7l-1.4-0.4l0.2-0.7l0.5-1.6
		c-1.5,1.2-3.4,1.5-5.2,1c-0.5-0.1-1-0.4-1.4-0.6c-1.5-1-2.6-2.5-2.8-4.3C1174.6,531.6,1174.2,531.9,1173.8,532.1z"/>
	<path class="st1" d="M1156.1,524c-4.1,1.1-8.3-1.3-9.4-5.3c-0.1-0.2-0.1-0.4-0.1-0.6c-0.5-2.5,0.1-5,1.6-7c1.2-1.8,3.1-3.1,5.2-3.6
		c4-1.1,8.2,1.2,9.4,5.3c0.1,0.2,0.1,0.5,0.2,0.7c0.5,2.5-0.1,5-1.6,7C1160,522.2,1158.2,523.4,1156.1,524z M1161.5,514.8
		c0-3.4-2.8-6.2-6.2-6.2c-0.3,0-0.6,0-0.8,0.1c-2.1,0.3-4.1,1.4-5.2,3.2c-1,1.4-1.5,3-1.5,4.7c0,2,1,3.9,2.6,5
		c1.3,0.9,2.8,1.3,4.4,1.1c2.1-0.3,4.1-1.4,5.2-3.2C1161,518.1,1161.5,516.5,1161.5,514.8L1161.5,514.8z"/>
	<path class="st1" d="M1140,511.3c-4.2,0.1-7.7-3.3-7.8-7.5c0-0.2,0-0.5,0-0.7c0.1-2.5,1.3-4.8,3.3-6.4c1.6-1.4,3.8-2.2,5.9-2.2
		c4.2-0.1,7.7,3.3,7.8,7.5c0,0.2,0,0.5,0,0.7c-0.1,2.5-1.3,4.8-3.3,6.4C1144.3,510.5,1142.2,511.3,1140,511.3z M1147.6,503.8
		c0.9-3.3-1.1-6.7-4.4-7.5c-0.3-0.1-0.5-0.1-0.8-0.2c-2.1-0.3-4.3,0.4-5.9,1.8c-1.3,1.1-2.2,2.6-2.6,4.2c-0.5,1.9,0,4,1.3,5.5
		c1,1.2,2.4,2,3.9,2.1c2.1,0.3,4.3-0.3,5.9-1.8C1146.3,506.9,1147.2,505.4,1147.6,503.8L1147.6,503.8z"/>
	<path class="st1" d="M1135.4,476.6l0.6,1.3l-0.6,0.3l-8.6,4c-1.2,0.5-2.2,1.4-2.8,2.6c-0.9,1.5-1,3.4-0.3,4.9
		c0.5,1.1,1.4,2,2.5,2.5c1.7,0.8,3.6,0.8,5.2,0l0.7-0.3l7.9-3.7l0.7-0.3l0.6,1.3l-0.7,0.3l-7.9,3.7l-0.7,0.3l-6.1,2.8l-0.7,0.3
		l-0.6-1.3l0.7-0.3l1.9-0.9c-0.1,0-0.2,0-0.3-0.1c-2-0.4-3.7-1.8-4.6-3.7c-0.7-1.5-0.8-3.2-0.3-4.7c0.6-2.1,2.1-3.9,4.1-4.7l8.5-4
		L1135.4,476.6z"/>
	<rect x="692.4" y="372.3" class="st1" width="176.5" height="0.8"/>
	<path class="st1" d="M814.6,484.1l0.2-0.8c8.1-29.8-9.4-60.5-39.2-68.6c-4.8-1.3-9.8-2-14.7-2c-5,0-9.9,0.7-14.7,2l-0.8,0.2
		l0.2-0.9c8.3-30.3,39.6-48.1,69.9-39.8c30.3,8.3,48.1,39.6,39.8,69.9c-5.3,19.4-20.4,34.5-39.8,39.8L814.6,484.1z M760.9,411.7
		c31.4,0,56.9,25.5,56.9,56.9c0,4.8-0.6,9.5-1.8,14.1c29.6-8.6,46.7-39.6,38-69.2c-8.6-29.6-39.6-46.7-69.2-38
		c-18.3,5.3-32.7,19.7-38,38C751.4,412.2,756.1,411.6,760.9,411.7L760.9,411.7z"/>
	<path class="st1" d="M760.9,525.4c-31.4,0-56.8-25.5-56.8-56.9s25.5-56.8,56.9-56.8c31.4,0,56.8,25.5,56.8,56.9
		c0,5-0.7,10.1-2,14.9C809,508.2,786.5,525.3,760.9,525.4z M760.9,412.6c-30.9,0-55.9,25-55.8,55.9s25,55.9,55.9,55.8
		c25.2,0,47.2-16.8,53.9-41.1c8.1-29.8-9.4-60.5-39.2-68.6C770.8,413.3,765.9,412.7,760.9,412.6L760.9,412.6z"/>
	<path class="st1" d="M814.6,484.1l0.2-0.8c8.1-29.8-9.4-60.5-39.2-68.6c-4.8-1.3-9.8-2-14.7-2c-5,0-9.9,0.7-14.7,2l-0.8,0.2
		l0.2-0.9c8.3-30.3,39.6-48.1,69.9-39.8c30.3,8.3,48.1,39.6,39.8,69.9c-5.3,19.4-20.4,34.5-39.8,39.8L814.6,484.1z M760.9,411.7
		c31.4,0,56.9,25.5,56.9,56.9c0,4.8-0.6,9.5-1.8,14.1c29.6-8.6,46.7-39.6,38-69.2c-8.6-29.6-39.6-46.7-69.2-38
		c-18.3,5.3-32.7,19.7-38,38C751.4,412.2,756.1,411.6,760.9,411.7L760.9,411.7z"/>
	<path class="st1" d="M760.9,525.2c-31.3,0-56.6-25.4-56.6-56.7s25.4-56.6,56.7-56.6s56.6,25.4,56.6,56.7c0,5-0.7,10-2,14.8
		C808.9,508.1,786.5,525.2,760.9,525.2z M760.9,412.5c-30.9,0-56,25.1-56,56s25.1,56,56,56s56-25.1,56-56l0,0
		c0.1-30.8-24.8-55.9-55.6-56C761.2,412.5,761,412.5,760.9,412.5z"/>
	<rect x="704.2" y="360.5" class="st1" width="0.8" height="176.5"/>
	<rect x="692.4" y="524.5" class="st1" width="176.5" height="0.8"/>
	<rect x="856.4" y="360.5" class="st1" width="0.8" height="176.5"/>
	
		<rect x="780.3" y="341.2" transform="matrix(0.7071 -0.7071 0.7071 0.7071 -88.6767 683.452)" class="st1" width="0.8" height="215.2"/>
	
		<rect x="673" y="448.4" transform="matrix(0.7071 -0.7071 0.7071 0.7071 -88.6768 683.452)" class="st1" width="215.2" height="0.8"/>
	<path class="st1" d="M992.3,463.4v2.6h-5.3v-9.9h-9.9v-5.3h9.9v-10h5.3v10h9.9v5.3h-9.9V463.4z"/>
	<path class="st1" d="M1391.3,449.7v-5.3h30.3v5.3H1391.3z M1391.3,464.1v-5.3h30.3v5.3H1391.3z"/>
	<g>
		<path class="st1" d="M768.4,614.4v0.9h-19.2v-0.9h9.1v-5.5h-7.6v-11.2h1v4.3h14.4v-4.3h1v11.2h-7.7v5.5H768.4z M751.6,607.9h14.4
			v-5.1h-14.4V607.9z"/>
		<path class="st1" d="M790.3,608.2H771v-0.9h19.2V608.2z M788.7,616h-16.2v-5.5h16.2V616z M788.7,601.6h-15.2v2.6h15.5v0.9h-16.4
			v-4.3h15.1v-2.5h-15.1v-0.9h16.1V601.6z M787.8,615.1v-3.7h-14.2v3.7H787.8z"/>
		<path class="st1" d="M799.7,605.5h-5.8v-7.9h11.8v0.9h-10.8v6.1h5c3.4,0,6-0.4,7.5-1v0.9C805.9,605.1,803.2,605.5,799.7,605.5z
			 M795.5,615.1h15.2v0.9h-16.2v-4.4h14.6v-2.7h-14.6v-0.9h15.6v4.4h-14.5V615.1z M813.1,601.1v0.9h-3.1v4.6h-1v-9.6h1v4.2H813.1z"
			/>
		<path class="st1" d="M755.9,633.9l6.7,7.8l-0.7,0.6l-6.3-7.4c-1.2,4.1-3.3,6.8-6.2,7.4v-0.9c3.7-0.9,5.9-6.2,6.2-12.7h-5.9v-0.9
			h5.9v-3.6h1v3.6h5.6v0.9h-5.6C756.5,630.6,756.3,632.3,755.9,633.9z M769.3,633.7h-3.1v10h-1v-19.5h1v8.5h3.1V633.7z"/>
		<path class="st1" d="M790.3,641.7v0.9H771v-0.9h9.1v-5.3c-4.9-0.1-8-2.3-8-5.7c0-3.5,3.3-5.7,8.5-5.7c5.2,0,8.5,2.2,8.5,5.7
			c0,3.4-3.1,5.6-8,5.7v5.3H790.3z M780.7,635.5c4.6,0,7.5-1.9,7.5-4.9s-3-4.9-7.5-4.9s-7.5,1.9-7.5,4.9S776.1,635.5,780.7,635.5z"
			/>
		<path class="st1" d="M812.2,642.6H793v-0.9h19.2V642.6z M810.8,631.6h-15.4v4.7h15.7v0.9h-16.7v-6.4h15.4v-4.6h-15.4v-0.9h16.3
			V631.6z"/>
		<path class="st1" d="M834.1,635.4h-19.2v-0.9h19.2V635.4z M817.4,642.4H833v0.9h-16.6v-5.6h1V642.4z M817.4,630.7h15.3v0.9h-16.3
			v-7.2h1V630.7z"/>
		<path class="st1" d="M849.9,632.8h-5.8V625h11.8v0.9H845v6.1h5c3.4,0,6-0.4,7.5-1v0.9C856.1,632.5,853.4,632.8,849.9,632.8z
			 M845.8,642.4H861v0.9h-16.2v-4.4h14.6v-2.7h-14.6v-0.9h15.6v4.4h-14.5V642.4z M863.4,628.4v0.9h-3.1v4.6h-1v-9.6h1v4.2H863.4z"/>
	</g>
</g>
</svg>
