<svg xmlns="http://www.w3.org/2000/svg" viewBox="0 0 423.8 59.79"><defs><style>.cls-1{fill:#fff;}</style></defs><g id="레이어_2" data-name="레이어 2"><g id="레이어_1-2" data-name="레이어 1"><path class="cls-1" d="M37.81,30.51a15.75,15.75,0,0,1,2,23.12A17.46,17.46,0,0,1,26,59.79H0V29.89L.09,3.6V.09H3.6L22.77,0a18.42,18.42,0,0,1,12,4.22A15.71,15.71,0,0,1,40.8,16.71a16.16,16.16,0,0,1-5.63,12A21.25,21.25,0,0,1,37.81,30.51Zm-15-4.13A11.89,11.89,0,0,0,29,24.62q4.74-2.91,4.74-7.91a8.71,8.71,0,0,0-2-5.54,10.94,10.94,0,0,0-9-4.14H7V26.47ZM7.12,52.84,26,52.76A11.42,11.42,0,0,0,32.18,51q4.76-2.91,4.75-7.92A9,9,0,0,0,35,37.54a10.77,10.77,0,0,0-9-4.13H7.12Z"/><path class="cls-1" d="M100.06,55.31l1.41,4.48H94.08l-.7-2.55A118.24,118.24,0,0,0,88.1,42.56,24.25,24.25,0,0,0,81,33.41H63.31V59.79h-7V29.89L56.36,3.6V.09h3.52L82.12,0a18.21,18.21,0,0,1,12,4.22,15.57,15.57,0,0,1,6.16,12.57,15.27,15.27,0,0,1-1.06,5.54,16.48,16.48,0,0,1-9.41,9.59Q94.87,37.89,100.06,55.31ZM71,26.38H82.21a12.15,12.15,0,0,0,6.07-1.59q4.92-2.8,4.92-8a9,9,0,0,0-1.93-5.54A10.9,10.9,0,0,0,82.12,7H63.31V26.47H71Z"/><path class="cls-1" d="M113.07,59.79h-7.65l2.11-4.92L130.39,2.11l1-2.11h4.57l1,2.11,22.86,52.76,2.11,4.92h-7.65l-1-2.11L133.65,12.4,114,57.68Z"/><path class="cls-1" d="M177.61,59.79h-7V0h5.37L177,1.49l30.43,43.62.08-41.59V0h7V3.52l-.09,52.75v3.52h-5.36L208,58.29,177.61,14.68V59.79Z"/><path class="cls-1" d="M232.12,59.79V0h23.21a23.48,23.48,0,0,1,16.36,9.06,27.86,27.86,0,0,1,6.15,20.83A28.74,28.74,0,0,1,272,50.47q-6.68,8.45-16.62,9.32H232.12Zm22.69-7A15.92,15.92,0,0,0,266,46.51a22.48,22.48,0,0,0,4.84-16.62v-.26A23.17,23.17,0,0,0,267.29,15q-4.65-7.3-12.48-8H239.16V52.76Z"/><path class="cls-1" d="M290.68,0h7V59.79h-7V0Z"/><path class="cls-1" d="M320.05,59.79h-7V0h5.37l1.05,1.49,30.42,43.62.09-41.59V0h7V3.52l-.09,52.75v3.52h-5.37l-1-1.5L320.05,14.68V59.79Z"/><path class="cls-1" d="M397.6,26.38h26.2v3.51a30.78,30.78,0,0,1-8.18,21.63q-7.65,8.26-18.11,8.27t-18.38-8.35A30.67,30.67,0,0,1,371,29.89a31.53,31.53,0,0,1,8.18-21.63Q387,0,397.51,0a26.16,26.16,0,0,1,11.78,2.9q7.47,3.78,10.64,10l-6.33,3.16A17.11,17.11,0,0,0,410.35,12,18.49,18.49,0,0,0,397.51,7a17.74,17.74,0,0,0-13,5.9q-6.42,6.77-6.42,17a24.7,24.7,0,0,0,5,15.39q5.81,7.47,14.42,7.48,7.83-.09,13.8-6.51,5.46-6,5.45-12.84H397.6Z"/></g></g></svg>