<svg xmlns="http://www.w3.org/2000/svg" viewBox="0 0 273.21 96.92"><defs><style>.cls-1{fill:#fff;}</style></defs><g id="레이어_2" data-name="레이어 2"><g id="레이어_1-2" data-name="레이어 1"><path class="cls-1" d="M60.87,76.28c0,4.84-3,9.5-6.49,12.7-6.11,5.42-14.74,7.94-22.88,7.94C13.38,96.92.1,83.65.1,65.52c0-2.71-.1-5.33-.1-7.95a53.59,53.59,0,0,1,.19-5.52C1.55,35.47,15,24,31.4,24,41.77,24,53.7,28.21,59,37.7a13.65,13.65,0,0,1,1.84,6.69A12.4,12.4,0,0,1,48.66,56.51,12.65,12.65,0,0,1,36.15,44.1a12.43,12.43,0,0,1,8-11.63,3.6,3.6,0,0,0,2.13-1.16,3,3,0,0,0,.49-1.55,2.88,2.88,0,0,0-1.65-2.52c-3.39-1.85-9.89-2.52-13.76-2.52s-6.21,2.71-6.4,6.3c-.29,4.26-.1,8.72-.1,13V79.77c0,3.29-.09,6.69.1,10,.19,3.88,2.52,6.5,6.59,6.5a41.58,41.58,0,0,0,10.37-1.56c1.75-.48,3.88-.77,4.75-2.71a2.32,2.32,0,0,0,.1-.87c0-1.55-1.55-2.23-2.72-2.72A12.36,12.36,0,0,1,36.15,77,12.58,12.58,0,0,1,48.56,64.45C55.05,64.45,60.87,69.69,60.87,76.28Z"/><path class="cls-1" d="M99.34,96.92H63.29v-.77a5.62,5.62,0,0,0,5.62-5.62V6.4A5.62,5.62,0,0,0,63.29.78V0H93.72V90.53a5.62,5.62,0,0,0,5.62,5.62Z"/><path class="cls-1" d="M135.39,96.92h-36v-.77A5.62,5.62,0,0,0,105,90.53V41a5.62,5.62,0,0,0-5.62-5.62V34.6h30.43V90.53a5.62,5.62,0,0,0,5.62,5.62Zm-18-72.11a12.41,12.41,0,1,1,0-24.81,12.41,12.41,0,0,1,0,24.81Z"/><path class="cls-1" d="M198.68,76.28c0,4.84-3,9.5-6.49,12.7-6.11,5.42-14.73,7.94-22.88,7.94-18.12,0-31.4-13.27-31.4-31.4,0-2.71-.1-5.33-.1-7.95a50.92,50.92,0,0,1,.2-5.52c1.36-16.58,14.83-28,31.21-28,10.37,0,22.29,4.17,27.62,13.66a13.65,13.65,0,0,1,1.84,6.69,12.4,12.4,0,0,1-12.21,12.12A12.64,12.64,0,0,1,174,44.1a12.43,12.43,0,0,1,7.95-11.63,3.63,3.63,0,0,0,2.13-1.16,3,3,0,0,0,.48-1.55,2.88,2.88,0,0,0-1.65-2.52c-3.39-1.85-9.88-2.52-13.76-2.52s-6.2,2.71-6.4,6.3c-.29,4.26-.09,8.72-.09,13V79.77c0,3.29-.1,6.69.09,10,.2,3.88,2.52,6.5,6.59,6.5a41.66,41.66,0,0,0,10.38-1.56c1.74-.48,3.87-.77,4.74-2.71a2.32,2.32,0,0,0,.1-.87c0-1.55-1.55-2.23-2.71-2.72A12.36,12.36,0,0,1,174,77a12.58,12.58,0,0,1,12.4-12.51C192.87,64.45,198.68,69.69,198.68,76.28Z"/><path class="cls-1" d="M273.21,96.92H242.78V55.54a2.61,2.61,0,0,0-2.62-2.62,2.45,2.45,0,0,0-1.94.87l-6.69,6.4V90.53a5.63,5.63,0,0,0,5.63,5.62v.77H201.1v-.77a5.62,5.62,0,0,0,5.62-5.62V6.4A5.62,5.62,0,0,0,201.1.78V0h30.43V59.12l11.25-10.85V24h26.36l-25.2,24.23a30.38,30.38,0,0,1,23.65,29.66v12.6a5.62,5.62,0,0,0,5.62,5.62Z"/></g></g></svg>