<svg xmlns="http://www.w3.org/2000/svg" viewBox="0 0 696.84 100.49"><defs><style>.cls-1{fill:#72a2ff;}.cls-2{fill:#ff985c;}</style></defs><g id="레이어_2" data-name="레이어 2"><g id="레이어_1-2" data-name="레이어 1"><path class="cls-1" d="M72.6,41.38c0,22.08-18.84,39-44.72,39H0v-.78c1.67-1,2.45-2.68,2.45-6.58V9.81c0-3.9-.78-5.57-2.45-6.58V2.34H27.88C53.76,2.34,72.6,19.41,72.6,41.38Zm-8.81,0c0-20.52-13.6-38.15-35.91-38.15H11.26v76.4H27.88C50.19,79.63,63.79,62,63.79,41.38Z"/><path class="cls-1" d="M137.4,51.53c0,17.84-15.28,29.55-30.22,29.55S79.3,71.93,79.3,56.32c0-18.4,15.28-29.55,30.22-29.55S137.4,36.13,137.4,51.53ZM128,48c-3.91-13.39-14.39-22.87-27.1-19.19S84.76,46.4,88.67,59.89s14.38,23,27.1,19.18S131.94,61.45,128,48Z"/><path class="cls-1" d="M221.16,26.77v.89c-4.46,4.24-7.58,9-11.15,17.51l-9.93,26,3.57,9.26h-8.81S181.12,44.5,180.57,43.05l-9.15,29.44,3.35,7.92H166L152.13,47.84c-4.69-10.92-7-15.72-12.49-20.18v-.89h17.17v.89c-2.9,3-1.89,6,.67,12.27l13.38,31.45,9.26-29.45c-2.79-6.91-4.79-10.7-9.14-14.27v-.89h17.17v.89c-3.34,3.46-1.9,7,1.12,15.17L199.75,70,208,48.18c4-10.37,5-16.51,0-20.52v-.89Z"/><path class="cls-1" d="M281.83,79.63v.78H268v-.78c1.78-1,2.23-2.9,1.89-6.58s-2-22.53-2.56-28.33c-.78-8.36-4.91-17.84-14.5-15.95C240.35,31.23,238,54.54,238,63.9v9.15c0,3.9.78,5.58,2.56,6.58v.78H226.74v-.78c1.67-1,2.46-2.68,2.46-6.58V35.35c0-3.9-.34-5-2.46-5.35v-.78l10.48-2.45H238V54.42c1.45-12.49,5.24-27.65,19.74-27.65,9.14,0,16.95,6.24,18.29,19.63,1.11,10.81,2.23,22.52,2.67,26.65S280.16,78.63,281.83,79.63Z"/><path class="cls-2" d="M330.35,40.93v.89H287.41v-.89Z"/><path class="cls-2" d="M353,79.63v.78H339.28v-.78c1.67-1,2.45-2.68,2.45-6.58V8.59c0-3.91-.34-5-2.45-5.36V2.34L349.76,0h.78V73.05C350.54,77,351.32,78.63,353,79.63Z"/><path class="cls-2" d="M418.91,51.53c0,17.84-15.28,29.55-30.23,29.55S360.8,71.93,360.8,56.32c0-18.4,15.28-29.55,30.22-29.55S418.91,36.13,418.91,51.53ZM409.54,48c-3.91-13.39-14.39-22.87-27.1-19.19S366.27,46.4,370.17,59.89s14.39,23,27.1,19.18S413.44,61.45,409.54,48Z"/><path class="cls-2" d="M476.46,80.41H465.19V64.8c-2.9,9.81-9,16.28-19.74,16.28-9.14,0-18.07-4.35-19.52-12.38-1.89-11.38,4.91-18.07,13.5-21.64-2.9-6.46.56-20.29,15.5-20.29,9.26,0,19.07,4.9,19.07,18.62V73.05c0,3.9.78,5.58,2.46,6.58ZM465.19,62.79V45.61a21.41,21.41,0,0,0-6.69-1c-12.16,0-28.66,6-23.87,25.65,1.45,6,7.92,9.7,13.5,9.37C457.83,79.07,463,70.82,465.19,62.79ZM440.54,46.62a53.7,53.7,0,0,1,18-3,23.33,23.33,0,0,1,6.69,1v-.78c0-8.48-3.34-15.95-11.26-15.95A14,14,0,0,0,440.54,46.62Z"/><path class="cls-2" d="M539.69,80.41H528.43V50.52c-2.12,12.94-7.81,30.56-23.42,30.56-9,0-20.19-7.81-20.63-22.08-.67-27.55,25-32.23,37.36-32.23a23.44,23.44,0,0,1,6.69,1V8.59c0-3.91-.34-5-2.57-5.36V2.34L536.46,0h.78V73.05c0,3.9.78,5.58,2.45,6.58ZM528.43,43.94V28.33a24.53,24.53,0,0,0-6.69-1c-10.82.23-30.23,4.91-28.67,33.35.56,9.7,7.37,20.19,17,18.4C522.52,76.62,528.43,53.31,528.43,43.94Z"/><path class="cls-2" d="M561.33,79.63v.78H547.5v-.78c1.67-1,2.46-2.68,2.46-6.58V35.35c0-3.9-.34-5-2.46-5.35v-.78L558,26.77h.79V73.05C558.77,77,559.55,78.63,561.33,79.63ZM548.84,12.49a5.24,5.24,0,1,1,5.24,5.24A5.23,5.23,0,0,1,548.84,12.49Z"/><path class="cls-2" d="M624.23,79.63v.78H610.4v-.78c1.79-1,2.23-2.9,1.9-6.58s-2-22.53-2.57-28.33c-.78-8.36-4.9-17.84-14.5-15.95C582.74,31.23,580.4,54.54,580.4,63.9v9.15c0,3.9.78,5.58,2.57,6.58v.78H569.14v-.78c1.67-1,2.45-2.68,2.45-6.58V35.35c0-3.9-.33-5-2.45-5.35v-.78l10.48-2.45h.78V54.42c1.45-12.49,5.24-27.65,19.74-27.65,9.15,0,17,6.24,18.29,19.63,1.12,10.81,2.23,22.52,2.68,26.65S622.56,78.63,624.23,79.63Z"/><path class="cls-2" d="M696.84,86c0,8.81-11.16,14.5-20.64,14.5-8,0-11.93-4.35-14.61-8-5.13,3.12-10.7,6-15.94,6.35-5.92.45-10.38-1.67-10.49-6.8-.22-6.8,10.49-10.48,18.29-11.26-13.05-1.57-23.64-10.27-23.64-24.43,0-18.4,15.39-29.55,30.33-29.55a32.79,32.79,0,0,1,12.49,2.45l19.08-5.58.67,5.58-18,.78c8,3.9,13.61,11.38,13.61,21.53,0,17.84-15.28,29.55-30.34,29.55a4.2,4.2,0,0,1-1.11-.11c-7.37.33-16,2.9-15.4,9.59.23,3.68,2.12,6.36,6.25,6.36,5.69.11,12.16-4.24,19.29-8.59,8.26-4.91,15.17-10.71,20.86-10.93C694.27,77.29,696.84,81.08,696.84,86Zm-30.45-6.92C679,75.39,682.56,61.45,678.66,48s-14.39-22.87-27.1-19.19S635.38,46.4,639.29,59.89,653.68,82.86,666.39,79.07Zm18.07.56c-3.46.45-10.6,5.24-17.07,9.26l-5,3c2.12,3.12,5.58,7.69,13.83,7.8,8.59.12,13.39-4.46,13.83-11.82C690.26,82.75,688.92,79,684.46,79.63Z"/></g></g></svg>