<svg xmlns="http://www.w3.org/2000/svg" viewBox="0 0 1395.17 480.7"><defs><style>.cls-1{fill:#fff;}.cls-2{opacity:0.1;}</style></defs><g id="레이어_2" data-name="레이어 2"><g id="레이어_1-2" data-name="레이어 1"><path class="cls-1" d="M578.67,302.69q0-8-6.3-14.7-9.63-9.81-25.21-9.81a37.31,37.31,0,0,0-19.78,5.43q-11.73,7.35-11.73,19.08a11.81,11.81,0,0,0,2.1,6.66q4.72,7,24.69,14.7,22.21,8.76,26.61,10.86,20.12,10,20.13,23.8-.18,10.69-9.46,19.61-12.78,11.91-32.56,11.91-16.8,0-29.06-8.75-13-9.47-13-22.77h7q.17,8.24,7.18,14.89,10.67,9.61,27.83,9.63a43.91,43.91,0,0,0,22.41-5.78q12.6-7.53,12.6-18.74a12.25,12.25,0,0,0-2.27-7q-4.73-7-24.69-14.88-22.23-8.58-26.43-10.68-20.13-9.79-20.13-23.46,0-10.85,8.23-19.43,11.55-12.08,30.28-12.08,14.88,0,25.91,8.23,12.61,9.29,12.61,23.28Z"/><path class="cls-1" d="M613.34,319.67q11.55-13.47,28.36-13.47,14.35,0,25.38,10.33,13.14,12.6,13.13,31.68a43.39,43.39,0,0,1-10.15,28.54q-11.55,13.47-28.36,13.48-14.37,0-25.39-10.33-13.12-12.6-13.13-31.69A43.37,43.37,0,0,1,613.34,319.67Zm4.2,51.12q9.45,12.43,24.16,12.44a29,29,0,0,0,19.95-7.88q11.57-10.52,11.56-27.14a37.11,37.11,0,0,0-7.35-22.58q-9.47-12.44-24.16-12.43a29,29,0,0,0-20,7.88q-11.57,10.5-11.56,27.13A37.12,37.12,0,0,0,617.54,370.79Z"/><path class="cls-1" d="M759.87,317.92q8.93-11.71,22.58-11.72a27.45,27.45,0,0,1,18.21,7q11.21,9.81,11.2,25.73v47.8l.18,3.67h-6.83l-.18-3.5-.17-48a28.47,28.47,0,0,0-4.38-15.4q-6.83-10.33-18-10.33a20.16,20.16,0,0,0-13.13,4.9Q760,325.81,760,338.93v47.8l.18,3.67h-6.83l-.18-3.5L753,342.43v-3.5a28.47,28.47,0,0,0-4.38-15.4q-6.82-10.33-18-10.33a20.16,20.16,0,0,0-13.13,4.9q-9.29,7.71-9.28,20.83v51.3h-7v-84h7v11.55q8.76-11.38,22.41-11.55a24.9,24.9,0,0,1,7.18,1.05q12.6,3.5,18.73,16.1A37.18,37.18,0,0,1,759.87,317.92Z"/><path class="cls-1" d="M904.65,373.42q-12.61,16.8-33.27,16.81-14.18,0-25.21-10.16-13.3-12.6-13.3-31.86a42.88,42.88,0,0,1,10-28.18q11.37-13.83,28.53-13.83,14.36,0,25.39,10.33,13.13,12.6,13.13,31.68v3.5H840.05a38.81,38.81,0,0,0,7,18.91q9.45,12.6,24.33,12.61,17,0,27.66-14Zm-1.76-28.71q0-10.5-7.35-19.61-9.79-11.89-24.16-11.9a29.57,29.57,0,0,0-18,6.12q-11.91,9.29-13.3,25.39Z"/><path class="cls-1" d="M941.58,367.29v1.58q1.39,14.36,20.83,14.36h3.51v7h-3.51a45.88,45.88,0,0,1-5.6-.35q-22-2.28-22.23-22.59V313.2H920.4v-7h14.18V284.31h7V306.2h24.34v7H941.58Z"/><path class="cls-1" d="M991.47,318.63q10-12.44,25.21-12.43a31.86,31.86,0,0,1,21.19,8.05q12.08,10.68,12.07,27.48v45l.18,3.67h-6.83l-.17-3.5-.18-45.17a29.45,29.45,0,0,0-5.42-17.33q-7.89-11.2-20.84-11.2a24.77,24.77,0,0,0-15.93,5.78q-10.34,8.56-10.33,22.75v48.5h-7V278.89h7v41A9,9,0,0,1,991.47,318.63Z"/><path class="cls-1" d="M1078.83,292v-7H1086v7h-7.18Zm0,14.19h7v84h-7v-84Z"/><path class="cls-1" d="M1179.67,390.4h-6.83l-.17-3.5-.18-45.17a29.45,29.45,0,0,0-5.42-17.33q-7.89-11.2-20.84-11.2A24.75,24.75,0,0,0,1130.3,319Q1120,327.54,1120,341.73v48.5h-7v-84h7v13.65a8.34,8.34,0,0,1,1-1.22q10-12.44,25.21-12.43a31.86,31.86,0,0,1,21.19,8.05q12.07,10.68,12.07,27.48v45Z"/><path class="cls-1" d="M1210.66,319.67q11.55-13.47,28.36-13.47a37.19,37.19,0,0,1,6.12.52q15.93,2.8,25.39,17.33V306.37h7.35l-.17,3.5-.18,76.86q0,10.84-8.4,21.35-11.73,14.54-29.94,14.71h-3.5v-7h3.5a31.39,31.39,0,0,0,22.24-9.46q9.09-9.1,9.1-19.6V372.37q-1.41,2.1-3.15,4.38-11.55,13.47-28.36,13.48-14.37,0-25.39-10.33-13.12-12.6-13.13-31.69A43.37,43.37,0,0,1,1210.66,319.67Zm4.2,51.12q9.45,12.43,24.16,12.44a29,29,0,0,0,20-7.88q11.57-10.52,11.56-27.14a37.11,37.11,0,0,0-7.35-22.58q-9.47-12.44-24.16-12.43a29,29,0,0,0-20,7.88q-11.57,10.5-11.56,27.13A37.12,37.12,0,0,0,1214.86,370.79Z"/><path class="cls-1" d="M1353.68,328.78a12.22,12.22,0,0,0-3.5-8.4q-6.83-7.19-19.08-7.18a30.09,30.09,0,0,0-12.6,2.62q-10,4.74-10,13a7.88,7.88,0,0,0,.52,2.8q2.1,5.61,17.51,10.85,18.9,6.31,20.31,7,16.8,7,16.8,18.21,0,6.64-5.42,12.42-9.63,10.15-27.14,10.16a40.77,40.77,0,0,1-21.53-5.61q-11-6.83-11-17h7a13,13,0,0,0,4,8.57q7.52,7,21.53,7a37,37,0,0,0,14.53-2.81q11-4.55,11-12.77a8,8,0,0,0-.52-2.81q-2.12-5.59-17.34-10.68-18.9-6.3-20.3-7-17-7-17-18.38a18.77,18.77,0,0,1,5.08-12.61q8.92-10,24.51-10a34.4,34.4,0,0,1,18.91,5.25q10.66,6.82,10.68,17.33Z"/><path class="cls-1" d="M1388.17,271.18h7v91h-7v-91Zm0,112.22h7v7.18h-7V383.4Z"/><path class="cls-1" d="M69.51,105.5q4.42,17-6.48,30.58a30.92,30.92,0,0,1-20.31,11.39q-15.43,2.24-28.42-8.2A37,37,0,0,1,.71,117.38Q-2.21,102.34,6.9,91A30.47,30.47,0,0,1,27.11,79.72q15.54-2.34,28.52,8.09l4.68,3.76-3.76,4.68L26.87,133.2a26.07,26.07,0,0,0,8.8,2.45q11.43,1.11,18-7.08,6.95-8.66,4.21-20.09ZM43.44,93.41q-3.39-2.73-9.91-2.76-11.07.13-17.28,7.86a18.47,18.47,0,0,0-3.78,8.31q-2,9.93,5,18.87Z"/><path class="cls-1" d="M91.65,78.93q5.53,6.9,14.26.52l4.74-3.68L118,85.26l-4.74,3.67a33.22,33.22,0,0,1-6.84,4.16q-14,6.47-24.17-6.69l-.09-.12L58.36,55.57l-3.2,2.48-4.74,3.68-7.35-9.48,4.74-3.68L51,46.09,41.36,33.64l-3.47-4.71,9.61-7.45,3.55,4.84,9.56,12.33L69.15,32l4.74-3.68,7.35,9.49L76.5,41.51,68,48.13Z"/><path class="cls-1" d="M167.9,45.11Q165,61.54,149.64,68.81q-10.6,4.93-22.51,1Q112.31,65,105.23,49.76A37.14,37.14,0,0,1,102.67,24Q106.51,9.47,119.3,3.52q16-7.26,29.65.45L142.88,14.4q-8-4.72-18.53,0a17.45,17.45,0,0,0-9,9.48q-4.38,9.81.75,20.82A27,27,0,0,0,125.65,56q9.56,6.32,18.94,2,9.18-4.43,11.7-15Z"/><path class="cls-1" d="M246.78,480.7C138,480.7,49.57,392.23,49.57,283.49S138,86.27,246.78,86.27,444,174.74,444,283.49,355.52,480.7,246.78,480.7Zm0-393.43c-108.19,0-196.21,88-196.21,196.22s88,196.21,196.21,196.21S443,391.68,443,283.49,355,87.27,246.78,87.27Z"/><g class="cls-2"><circle class="cls-1" cx="436.33" cy="283.49" r="196.71"/></g></g></g></svg>