<svg xmlns="http://www.w3.org/2000/svg" viewBox="0 0 50.11 50.96"><defs><style>.cls-1{fill:#fff;}</style></defs><g id="레이어_2" data-name="레이어 2"><g id="레이어_1-2" data-name="레이어 1"><path class="cls-1" d="M42.36,24.24a15.67,15.67,0,0,1-11.51,15.1A15.67,15.67,0,0,0,11.61,20.11a15.65,15.65,0,0,1,30.75,4.13Z"/><path class="cls-1" d="M26.71,40a15.78,15.78,0,0,1-15.2-19.91l0-.06h.06A15.77,15.77,0,0,1,31,39.36l0,.06-.06,0A15.74,15.74,0,0,1,26.71,40Zm-15-19.8A15.54,15.54,0,0,0,30.76,39.25a15.21,15.21,0,0,0,.53-4A15.56,15.56,0,0,0,15.75,19.66,15.8,15.8,0,0,0,11.7,20.19Z"/><path class="cls-1" d="M15.75,51A15.72,15.72,0,1,1,31,39.36,15.77,15.77,0,0,1,15.75,51Zm0-31.3a15.84,15.84,0,0,0-4.11.55,15.55,15.55,0,1,0,4.11-.55Z"/><path class="cls-1" d="M6.89,20.05l.09,0q.87.09,1.11-1.05l.05-.21.41.09,0,.21-.09.32a1.3,1.3,0,0,1-1.62,1l-3.19-.68-.13.63,0,.2L3,20.52l0-.2.13-.63-1.08-.23-.21-.05L2,19l.21,0,1.08.23.26-1.22.05-.21.41.09,0,.2L3.7,19.36Z"/><path class="cls-1" d="M4.9,16.21a1.86,1.86,0,0,1-.07-1.7,1.93,1.93,0,0,1,1-1,2.12,2.12,0,0,1,1.81,0l2.48,1.1.21.08-.17.38L9.92,15,7.43,13.94a1.79,1.79,0,0,0-1.09-.13,1.47,1.47,0,0,0-1.13.88,1.54,1.54,0,0,0-.07,1,1.71,1.71,0,0,0,1,1.12l.2.09,2.28,1,.2.09-.18.38-.19-.08-2.29-1L6,17.22,2.7,15.76l-.19-.08.17-.39.19.09,2.07.92A.36.36,0,0,1,4.9,16.21Z"/><path class="cls-1" d="M12.49,10.18a2.39,2.39,0,0,1-.47,2.2,2.22,2.22,0,0,1-1.43.8,2.55,2.55,0,0,1-2-.58,2.65,2.65,0,0,1-1-1.54A2.19,2.19,0,0,1,9.52,8.4a2.54,2.54,0,0,1,2,.58l.17.13-.13.17L9,12.39a2.26,2.26,0,0,0,1.15.39,1.75,1.75,0,0,0,1.51-.67,2,2,0,0,0,.39-1.83Zm-1.42-1a1.81,1.81,0,0,0-1.2-.4,1.84,1.84,0,0,0-1.47.68A1.74,1.74,0,0,0,8,10.54a2.08,2.08,0,0,0,.69,1.59Z"/><path class="cls-1" d="M15.8,4a2.27,2.27,0,0,1,1.33-1.7l.19-.1.19.38-.19.09a2.17,2.17,0,0,0-.82.7,1.89,1.89,0,0,0,0,2l0,.08.09.19,1,1.88.1.19-.38.19-.09-.19-1-1.88-.1-.19,0-.08-1-2L15,3.34l.38-.19.1.18.33.67A.07.07,0,0,0,15.8,4Z"/><path class="cls-1" d="M23.49,4.51A2.39,2.39,0,0,1,21.81,6a2.15,2.15,0,0,1-1.62-.2,2.53,2.53,0,0,1-1.28-1.65,2.57,2.57,0,0,1,.15-1.79A2.11,2.11,0,0,1,20.5,1.12a2.19,2.19,0,0,1,1.64.2A2.56,2.56,0,0,1,23.4,3l.06.21-.21.05-3.86,1a2.39,2.39,0,0,0,.7,1,1.74,1.74,0,0,0,1.61.35,2,2,0,0,0,1.4-1.24Zm-.55-1.64a1.85,1.85,0,0,0-.73-1,1.87,1.87,0,0,0-1.6-.32,1.82,1.82,0,0,0-.95.64,2.09,2.09,0,0,0-.38,1.69Z"/><path class="cls-1" d="M24.1.34h.45l.05.13L26.4,4.6,28,.4l.06-.13h.46l-.11.29L26.61,5.24l-.06.13h-.28l-.05-.12-2-4.62Z"/><path class="cls-1" d="M30.31,1.33A2.15,2.15,0,0,1,32.16.92a2.21,2.21,0,0,1,1.35,1,2.5,2.5,0,0,1,.33,2,2.57,2.57,0,0,1-1,1.54,2.19,2.19,0,0,1-1.85.4,2.15,2.15,0,0,1-1.35-1,2.55,2.55,0,0,1-.34-2A2.61,2.61,0,0,1,30.31,1.33Zm-.46,3.06A1.79,1.79,0,0,0,31.1,5.45a1.75,1.75,0,0,0,1.28-.19,2.12,2.12,0,0,0,1-1.44,2.16,2.16,0,0,0-.12-1.42,1.73,1.73,0,0,0-1.25-1.06,1.75,1.75,0,0,0-1.28.18A2.12,2.12,0,0,0,29.73,3,2.33,2.33,0,0,0,29.85,4.39Z"/><path class="cls-1" d="M36.82,0l.39.17-.08.19L34.4,6.77,34.32,7l-.39-.16L34,6.6,36.74.19Z"/><path class="cls-1" d="M37.93,3l.37.23-.13.18L36.56,5.9a1.34,1.34,0,0,0-.2.9A1.62,1.62,0,0,0,37.14,8a1.77,1.77,0,0,0,1,.28,1.33,1.33,0,0,0,1.17-.63l1.62-2.5L41,5l.37.24-.13.17L39.64,7.89a1.78,1.78,0,0,1-1,.74,2,2,0,0,1-1.72-.27A2.06,2.06,0,0,1,36,7.26a1.77,1.77,0,0,1,.16-1.59l1.62-2.5Z"/><path class="cls-1" d="M40.7,9.6l-.06.07q-.54.67.3,1.5l.15.14-.29.31-.16-.15a2.62,2.62,0,0,1-.22-.25,1.28,1.28,0,0,1,0-1.91L42.67,7l-.47-.44-.15-.15.29-.3.16.14.46.45.77-.8.15-.15.3.29L44,6.16,43.26,7l.91.88.15.14-.3.31-.15-.15L43,7.26Z"/><path class="cls-1" d="M45.15,9l.26.33-.16.13-3.6,2.93-.17.14-.26-.33.16-.13L45,9.11Zm.66-.54.33-.27.13.17h0l.13.16-.33.27L46,8.61h0Z"/><path class="cls-1" d="M46,11.46a2.18,2.18,0,0,1,1.55,1.1,2.21,2.21,0,0,1,.2,1.64,2.72,2.72,0,0,1-3.09,1.92A2.2,2.2,0,0,1,43,13.38a2.5,2.5,0,0,1,1.28-1.62A2.58,2.58,0,0,1,46,11.46Zm-2.57,1.72a1.74,1.74,0,0,0,.06,1.63,1.76,1.76,0,0,0,1,.83,2.14,2.14,0,0,0,1.77-.19,2.29,2.29,0,0,0,1-1,1.77,1.77,0,0,0-1.05-2.46,2.1,2.1,0,0,0-1.77.19A2.17,2.17,0,0,0,43.47,13.18Z"/><path class="cls-1" d="M45.45,21.55l-.1-.4.2-.06,2.64-.68a1.73,1.73,0,0,0,.94-.57,1.48,1.48,0,0,0,.34-1.38,1.45,1.45,0,0,0-.57-.85,1.69,1.69,0,0,0-1.48-.27l-.21.05L44.79,18l-.21,0-.1-.41.2,0L47.11,17l.2-.05,1.88-.47.2-.05.11.41-.21.05L48.7,17l.08,0a1.92,1.92,0,0,1,.94,2.65,2.06,2.06,0,0,1-1.42,1.11l-2.64.67Z"/><path class="cls-1" d="M49.61,27.69a2.21,2.21,0,0,1-.53,3.2,2.56,2.56,0,0,1-2,.35,2.64,2.64,0,0,1-1.55-1,2.19,2.19,0,0,1-.41-1.85,2.16,2.16,0,0,1,1-1.35,2.55,2.55,0,0,1,2-.35A2.65,2.65,0,0,1,49.61,27.69Zm-3.06-.44a1.78,1.78,0,0,0-.86,2.54,2.14,2.14,0,0,0,1.44,1,2.27,2.27,0,0,0,1.43-.13,1.78,1.78,0,0,0,.85-2.54,2.14,2.14,0,0,0-1.44-1A2.23,2.23,0,0,0,46.55,27.25Z"/><path class="cls-1" d="M48,35.12l-.08.19-.39-.17.09-.19.52-1.16-4-1.82-.19-.09.17-.38.19.08,4.05,1.83.26-.58.08-.19.39.17L49,33l-.26.59a3.53,3.53,0,0,1,.87.62A1.48,1.48,0,0,1,50,36l-.09.2L49.49,36l.08-.19a1.12,1.12,0,0,0,.1-.39c0-.55-.34-1-1.13-1.45Z"/><path class="cls-1" d="M41.18,38.36l-.07-.07c-.45-.36-1-.27-1.5.29l-.15.15-.3-.3.15-.15.25-.22a1.29,1.29,0,0,1,1.92,0l2.32,2.29.45-.46.15-.15.3.29-.15.15-.45.46.79.78.15.15-.3.3-.15-.15-.79-.78-.88.9-.15.15-.3-.3.15-.15.88-.89Z"/><path class="cls-1" d="M40.81,42.66A1.88,1.88,0,0,1,40,44.13a1.92,1.92,0,0,1-1.33.3,2.12,2.12,0,0,1-1.53-1l-1.5-2.26L35.47,41l.34-.23.13.17,1.52,2.26a1.75,1.75,0,0,0,.85.69,1.48,1.48,0,0,0,2-1,1.65,1.65,0,0,0-.24-1.48L40,41.29l-1.39-2.08L38.47,39l.36-.23.11.17,1.39,2.09.11.17,2,3,.11.18-.35.23-.12-.17-1.25-1.88A.34.34,0,0,1,40.81,42.66Z"/><path class="cls-1" d="M31.16,43.67a2.4,2.4,0,0,1,1.57-1.6,2.18,2.18,0,0,1,1.64.1,2.51,2.51,0,0,1,1.37,1.56,2.62,2.62,0,0,1,0,1.81,2.19,2.19,0,0,1-3,1.23,2.56,2.56,0,0,1-1.36-1.55l-.07-.2.2-.07,3.8-1.28a2.29,2.29,0,0,0-.77-.94,1.75,1.75,0,0,0-1.63-.26,2,2,0,0,0-1.31,1.34Zm.65,1.61a2,2,0,0,0,2.41,1.2,1.83,1.83,0,0,0,.91-.7,2.12,2.12,0,0,0,.27-1.71Z"/><path class="cls-1" d="M21.66,46.88a1.65,1.65,0,0,1-1.48.41,1.69,1.69,0,0,1-1-.64A2,2,0,0,1,18.85,45l.6-2.82,0-.22.4.09,0,.21-.59,2.83a1.74,1.74,0,0,0,.06,1,1.28,1.28,0,0,0,.94.84,1.22,1.22,0,0,0,.83-.13,1.53,1.53,0,0,0,.81-1.11l0-.21.56-2.61,0-.22.41.09,0,.2-.54,2.63-.05.21a1.74,1.74,0,0,0,.07,1,1.25,1.25,0,0,0,1.77.71A1.56,1.56,0,0,0,25,46.29l0-.21.55-2.61.05-.21.41.09,0,.21-.56,2.61,0,.2L25,48.1l0,.21-.41-.09,0-.21.1-.47a1.69,1.69,0,0,1-1.46.4,1.34,1.34,0,0,1-.41-.15,1.77,1.77,0,0,1-.91-1.19A2.27,2.27,0,0,1,21.66,46.88Z"/><path class="cls-1" d="M16.36,45a2.2,2.2,0,0,1-2.88-1.5,2.51,2.51,0,0,1,.29-2,2.7,2.7,0,0,1,1.41-1.17,2.2,2.2,0,0,1,2.88,1.5,2.51,2.51,0,0,1-.29,2A2.65,2.65,0,0,1,16.36,45Zm1.36-2.78a1.79,1.79,0,0,0-2.15-1.6,2.14,2.14,0,0,0-1.43,1.05,2.24,2.24,0,0,0-.32,1.4A1.79,1.79,0,0,0,16,44.63a2.14,2.14,0,0,0,1.43-1.05A2.24,2.24,0,0,0,17.72,42.18Z"/><path class="cls-1" d="M11.44,41.66A2.18,2.18,0,0,1,9.66,41,2.21,2.21,0,0,1,9,39.49a2.51,2.51,0,0,1,.81-1.9,2.61,2.61,0,0,1,1.65-.78,2.17,2.17,0,0,1,1.78.65A2.13,2.13,0,0,1,13.9,39a2.55,2.55,0,0,1-.8,1.9A2.6,2.6,0,0,1,11.44,41.66Zm2-2.34A1.76,1.76,0,0,0,13,37.76a1.73,1.73,0,0,0-1.18-.53,2.14,2.14,0,0,0-1.66.66,2.24,2.24,0,0,0-.66,1.27A1.79,1.79,0,0,0,10,40.72a1.74,1.74,0,0,0,1.19.52,2.08,2.08,0,0,0,1.65-.65A2.27,2.27,0,0,0,13.46,39.32Z"/><path class="cls-1" d="M9.32,31.78l.2.36-.17.11L7,33.6a1.87,1.87,0,0,0-.75.8A1.51,1.51,0,0,0,7,36.49a1.7,1.7,0,0,0,1.5-.13l.19-.11L10.9,35l.19-.1.21.36-.19.11L8.94,36.62l-.19.1-1.68,1-.18.1-.21-.37.18-.1L7.4,37l-.1,0a1.86,1.86,0,0,1-1.4-1,2,2,0,0,1-.21-1.35,2.14,2.14,0,0,1,1.08-1.46L9.13,31.9Z"/></g></g></svg>