<svg xmlns="http://www.w3.org/2000/svg" viewBox="0 0 25.92 11.27"><defs><style>.cls-1{fill:#fff;}</style></defs><g id="레이어_2" data-name="레이어 2"><g id="레이어_1-2" data-name="레이어 1"><path class="cls-1" d="M7.31,9.54A4,4,0,0,1,4,11.23a3.73,3.73,0,0,1-2.59-1A4.3,4.3,0,0,1,0,6.91,4.39,4.39,0,0,1,1,4,3.69,3.69,0,0,1,4,2.59,3.63,3.63,0,0,1,6.53,3.64,4.23,4.23,0,0,1,7.92,6.91v.72H1.51a3.35,3.35,0,0,0,.43,1A2.32,2.32,0,0,0,4,9.79a2.68,2.68,0,0,0,2.2-1.11ZM6.48,6.19A1.84,1.84,0,0,0,6,5.06,2.53,2.53,0,0,0,4,4,2.2,2.2,0,0,0,2.9,4.3,2.68,2.68,0,0,0,1.51,6.19Z"/><path class="cls-1" d="M11.65,8.69c0,.71.45,1.08,1.31,1.1h.72v1.44H13a3.64,3.64,0,0,1-1-.11,2.19,2.19,0,0,1-1.8-2.41V4H9V2.59h1.21V0h1.46l0,.72V2.59h2V4h-2Z"/><path class="cls-1" d="M21.82,9.58a3.73,3.73,0,0,1-3.19,1.65,3.56,3.56,0,0,1-2.5-1,4.33,4.33,0,0,1-1.37-3.3,4.42,4.42,0,0,1,1-2.93,3.53,3.53,0,0,1,2.84-1.39,3.73,3.73,0,0,1,3.2,1.55L20.65,5a2.32,2.32,0,0,0-2-.94,2.08,2.08,0,0,0-1.46.58,2.88,2.88,0,0,0-1,2.3,3.23,3.23,0,0,0,.47,1.71,2.2,2.2,0,0,0,2,1.17,2.53,2.53,0,0,0,2-1Z"/><path class="cls-1" d="M24.48,9.81h1.44v1.46H24.48V9.81Z"/></g></g></svg>