<svg xmlns="http://www.w3.org/2000/svg" viewBox="0 0 57.26 12.24"><defs><style>.cls-1{fill:#fff;}</style></defs><g id="레이어_2" data-name="레이어 2"><g id="레이어_1-2" data-name="레이어 1"><path class="cls-1" d="M1.57,12.24H0l.43-1L5.11.43,5.31,0h.94l.19.43,4.68,10.8.44,1H10l-.2-.43-4-9.27-4,9.27Z"/><path class="cls-1" d="M21.08,6.25A3.21,3.21,0,0,1,21.49,11a3.56,3.56,0,0,1-2.82,1.26H13.34V6.12l0-5.38V0h.72L18,0a3.81,3.81,0,0,1,2.45.86,3.22,3.22,0,0,1,1.24,2.56,3.33,3.33,0,0,1-1.15,2.47A3.17,3.17,0,0,1,21.08,6.25ZM18,5.4A2.43,2.43,0,0,0,19.28,5a1.84,1.84,0,0,0,1-1.62,1.74,1.74,0,0,0-.42-1.13A2.2,2.2,0,0,0,18,1.44H14.78v4Zm-3.21,5.42,3.88,0a2.3,2.3,0,0,0,1.25-.36,1.82,1.82,0,0,0,.58-2.75,2.18,2.18,0,0,0-1.83-.85H14.79Z"/><path class="cls-1" d="M25.81,1.69A4.92,4.92,0,0,1,29.54,0a5,5,0,0,1,3.74,1.71,6.25,6.25,0,0,1,1.66,4.41,6.29,6.29,0,0,1-1.68,4.43,4.88,4.88,0,0,1-3.72,1.69,5,5,0,0,1-3.75-1.71,6.29,6.29,0,0,1-1.65-4.41A6.32,6.32,0,0,1,25.81,1.69Zm.81,7.6a3.53,3.53,0,0,0,5.56.3A4.86,4.86,0,0,0,33.5,6.12a5.06,5.06,0,0,0-1-3.17,3.54,3.54,0,0,0-2.91-1.51,3.59,3.59,0,0,0-2.65,1.21,4.89,4.89,0,0,0-1.31,3.47A5.11,5.11,0,0,0,26.62,9.29Z"/><path class="cls-1" d="M37.48,0h1.45V.74l0,7.41a2.5,2.5,0,0,0,.59,1.61,2.84,2.84,0,0,0,2.29,1,3,3,0,0,0,1.76-.56,2.43,2.43,0,0,0,1.12-2.09V.72l0-.7h1.45V.74l0,7.41A3.9,3.9,0,0,1,45,10.85a4.46,4.46,0,0,1-6.19.27,3.77,3.77,0,0,1-1.37-3V.72Z"/><path class="cls-1" d="M56.54,0h.72V1.44H53.32v10.8H51.88V1.44h-4V0h8.64Z"/></g></g></svg>