<svg xmlns="http://www.w3.org/2000/svg" viewBox="0 0 86.76 12.24"><defs><style>.cls-1{fill:#fff;}</style></defs><g id="레이어_2" data-name="레이어 2"><g id="레이어_1-2" data-name="레이어 1"><path class="cls-1" d="M7.74,6.25A3.21,3.21,0,0,1,8.15,11a3.56,3.56,0,0,1-2.82,1.26H0V6.12L0,.74V0H.74L4.66,0A3.79,3.79,0,0,1,7.11.86,3.22,3.22,0,0,1,8.35,3.42,3.3,3.3,0,0,1,7.2,5.89,3.17,3.17,0,0,1,7.74,6.25ZM4.66,5.4A2.43,2.43,0,0,0,5.94,5a1.82,1.82,0,0,0,1-1.62A1.79,1.79,0,0,0,6.5,2.29a2.24,2.24,0,0,0-1.84-.85H1.44v4Zm-3.2,5.42,3.87,0a2.36,2.36,0,0,0,1.26-.36,1.82,1.82,0,0,0,1-1.62,1.78,1.78,0,0,0-.4-1.13,2.18,2.18,0,0,0-1.83-.85H1.46Z"/><path class="cls-1" d="M20.48,11.32l.29.92H19.26l-.14-.52a25.59,25.59,0,0,0-1.08-3,5,5,0,0,0-1.46-1.87H13v5.4H11.52V6.12l0-5.38V0h.72l4.55,0a3.76,3.76,0,0,1,2.45.86,3.21,3.21,0,0,1,1.26,2.58,3,3,0,0,1-.22,1.13,3.31,3.31,0,0,1-1.92,2A14.37,14.37,0,0,1,20.48,11.32Zm-6-5.92h2.3a2.54,2.54,0,0,0,1.24-.32,1.83,1.83,0,0,0,.61-2.78,2.22,2.22,0,0,0-1.87-.86H13v4h1.58Z"/><path class="cls-1" d="M23.15,12.24H21.58l.43-1L26.69.43l.2-.43h.94l.2.43,4.68,10.8.43,1H31.57l-.2-.43-4-9.27-4,9.27Z"/><path class="cls-1" d="M36.36,12.24H34.92V0H36l.21.31,6.23,8.92,0-8.51V0h1.44V.72l0,10.8v.72H42.8l-.21-.31L36.36,3v9.23Z"/><path class="cls-1" d="M47.52,12.24V0h4.75a4.82,4.82,0,0,1,3.35,1.85,5.77,5.77,0,0,1,1.26,4.27,5.88,5.88,0,0,1-1.21,4.21,4.74,4.74,0,0,1-3.4,1.91H47.52Zm4.64-1.44a3.24,3.24,0,0,0,2.29-1.28,4.58,4.58,0,0,0,1-3.4v0a4.8,4.8,0,0,0-.72-3,3.3,3.3,0,0,0-2.56-1.64H49V10.8Z"/><path class="cls-1" d="M59.51,0H61V12.24H59.51V0Z"/><path class="cls-1" d="M65.52,12.24H64.08V0h1.1l.21.31,6.23,8.92,0-8.51V0h1.44V.72l0,10.8v.72H72l-.21-.31L65.52,3v9.23Z"/><path class="cls-1" d="M81.4,5.4h5.36v.72a6.32,6.32,0,0,1-1.67,4.43,4.89,4.89,0,0,1-3.71,1.69,5.05,5.05,0,0,1-3.76-1.71A6.25,6.25,0,0,1,76,6.12a6.47,6.47,0,0,1,1.67-4.43A5,5,0,0,1,81.38,0a5.42,5.42,0,0,1,2.41.59A4.71,4.71,0,0,1,86,2.65l-1.3.64A3.52,3.52,0,0,0,84,2.45a3.77,3.77,0,0,0-2.63-1,3.62,3.62,0,0,0-2.67,1.21A4.86,4.86,0,0,0,77.4,6.12a5,5,0,0,0,1,3.15,3.59,3.59,0,0,0,2.95,1.53A3.81,3.81,0,0,0,84.2,9.47a3.83,3.83,0,0,0,1.12-2.63H81.4Z"/></g></g></svg>