<?xml version="1.0" encoding="utf-8"?>
<!-- Generator: Adobe Illustrator 26.0.2, SVG Export Plug-In . SVG Version: 6.00 Build 0)  -->
<svg version="1.1" id="레이어_1" xmlns="http://www.w3.org/2000/svg" xmlns:xlink="http://www.w3.org/1999/xlink" x="0px"
	 y="0px" viewBox="0 0 51.9 52.8" style="enable-background:new 0 0 51.9 52.8;" xml:space="preserve">
<style type="text/css">
	.st0{fill:#FFFFFF;}
</style>
<g>
	<path class="st0" d="M43.1,25.2c0,7-4.7,13.2-11.5,15.1c2.3-8.4-2.7-17-11-19.2c-2.7-0.7-5.5-0.7-8.2,0c2.3-8.3,10.9-13.3,19.2-11
		C38.4,12,43.1,18.2,43.1,25.2z"/>
	<path class="st0" d="M27.5,41c-8.7,0-15.8-7.1-15.8-15.8c0-1.4,0.2-2.8,0.6-4.1V21h0.1c8.4-2.3,17.1,2.6,19.4,11
		c0.8,2.7,0.8,5.6,0,8.3v0.1h-0.1C30.3,40.8,28.9,41,27.5,41z M12.5,21.2c-2.2,8.3,2.7,16.8,11,19c2.6,0.7,5.4,0.7,8.1,0
		c0.4-1.3,0.5-2.6,0.5-4c0-8.6-6.9-15.6-15.5-15.6c0,0,0,0,0,0C15.1,20.6,13.8,20.8,12.5,21.2L12.5,21.2z"/>
	<path class="st0" d="M16.5,52c-8.7,0-15.7-7.1-15.7-15.8S8,20.5,16.6,20.5c8.7,0,15.7,7.1,15.7,15.8c0,1.4-0.2,2.7-0.5,4
		C29.9,47.2,23.6,52,16.5,52z M16.5,20.7c-1.4,0-2.8,0.2-4.1,0.5C4.1,23.5-0.8,32,1.5,40.3s10.8,13.2,19.1,10.9
		c8.3-2.3,13.2-10.8,10.9-19.1C29.6,25.4,23.5,20.7,16.5,20.7z"/>
	<path class="st0" d="M3.6,21.6v-0.3l0.1-0.5l-0.9-0.2l-0.4-0.1l0.3-0.7H3l1,0.2L4.2,19l0.1-0.3l0.7,0.1v0.3l-0.3,1.2l3,0.7
		c0.1,0,0.1,0,0.2,0c0.4,0,0.7-0.3,0.8-0.9l0.1-0.3l0.7,0.1v0.3l-0.1,0.4c-0.1,0.7-0.7,1.2-1.4,1.2c-0.1,0-0.2,0-0.3,0l-3.1-0.7
		l-0.1,0.5l0,0.3L3.6,21.6z"/>
	<path class="st0" d="M7.6,21L7.6,21c0.7,0.1,1-0.3,1.2-1l0.1-0.2l0.4,0.1v0.2l-0.1,0.3c-0.1,0.7-0.8,1.2-1.5,1c0,0-0.1,0-0.1,0
		l-3.2-0.7l-0.1,0.6v0.2l-0.5,0v-0.2l0.1-0.6l-1.1-0.2l-0.2,0L2.7,20H3L4,20.2L4.3,19l0.1-0.2l0.4,0.1v0.2l-0.3,1.3L7.6,21z"/>
	<path class="st0" d="M9.1,19.4l-2.5-1.1l-3.3-1.5l-0.3-0.1l0.3-0.7l0.3,0.2L5.4,17c-0.2-0.5-0.2-1.1,0.1-1.6
		c0.2-0.5,0.6-0.9,1.1-1.1c0.3-0.1,0.6-0.2,1-0.2s0.7,0.1,1,0.2l2.5,1.1l0.3,0.1L11,16.2l-0.4-0.1L8.1,15c-0.2-0.1-0.5-0.2-0.7-0.2
		c-0.1,0-0.2,0-0.3,0c-0.5,0.1-0.8,0.4-1,0.8C6,16,5.9,16.3,6,16.6c0.1,0.5,0.5,0.8,0.9,1l2.8,1.2l-0.3,0.6L9.1,19.4z"/>
	<path class="st0" d="M5.6,17.2c-0.3-0.5-0.3-1.2-0.1-1.7c0.2-0.4,0.6-0.8,1-1c0.6-0.3,1.2-0.3,1.8,0l2.5,1.1l0.2,0.1L10.9,16
		L10.7,16l-2.5-1.1c-0.3-0.2-0.7-0.2-1.1-0.1c-0.5,0.1-0.9,0.4-1.1,0.9c-0.1,0.3-0.2,0.7-0.1,1c0.1,0.5,0.5,0.9,1,1.1l0.2,0.1l2.3,1
		L9.6,19l-0.2,0.4l-0.2-0.1l-2.3-1l-0.2-0.1l-3.3-1.5l-0.2-0.1l0.2-0.4l0.2,0.1L5.6,17.2C5.7,17.3,5.7,17.2,5.6,17.2z"/>
	<path class="st0" d="M11,14.3c-0.6,0-1.3-0.2-1.7-0.6c-0.5-0.4-0.9-1-1-1.6C7.9,10.8,8.7,9.6,10,9.3c0.1,0,0.2,0,0.3,0
		c0.1,0,0.2,0,0.4,0c0.6,0,1.3,0.2,1.7,0.6l0.3,0.2l-0.2,0.3l-2.5,3c0.3,0.2,0.6,0.3,0.9,0.3l0.1,0c0.5,0,1-0.2,1.3-0.6
		c0.4-0.5,0.5-1.1,0.4-1.7l0-0.1l0.7-0.2l0,0.1c0.2,0.8,0,1.7-0.5,2.3c-0.4,0.5-0.9,0.8-1.5,0.8C11.2,14.3,11.1,14.3,11,14.3z
		 M10.6,9.9c-0.5,0-1,0.2-1.3,0.6c-0.2,0.3-0.4,0.6-0.4,1c0,0.5,0.2,1,0.5,1.4l2.2-2.7C11.3,10,11,9.9,10.7,9.9L10.6,9.9z"/>
	<path class="st0" d="M13.2,11.2c0.2,0.8,0,1.6-0.5,2.2c-0.4,0.4-0.9,0.7-1.4,0.8c-0.7,0.1-1.4-0.1-2-0.6c-0.5-0.4-0.9-0.9-1-1.5
		C8.1,10.9,8.8,9.7,10,9.4c0.1,0,0.2,0,0.3,0c0.7-0.1,1.4,0.1,2,0.6l0.2,0.1l-0.1,0.2l-2.6,3.1c0.3,0.2,0.7,0.4,1.1,0.4
		c0.6,0,1.2-0.2,1.5-0.7c0.4-0.5,0.6-1.2,0.4-1.8L13.2,11.2z M11.8,10.2c-0.3-0.3-0.8-0.4-1.2-0.4c-0.6,0-1.1,0.2-1.5,0.7
		c-0.3,0.3-0.4,0.7-0.4,1.1c0,0.6,0.2,1.2,0.7,1.6L11.8,10.2z"/>
	<path class="st0" d="M17.8,8.7l-1.1-2.1V6.5l-1-1.9l-0.2-0.3l0.6-0.3l0.2,0.3l0.2,0.3c0.2-0.6,0.7-1.1,1.3-1.4L18.1,3l0.3,0.6
		l-0.3,0.2c-0.3,0.1-0.6,0.4-0.8,0.7C17,5,17,5.7,17.4,6.3l0,0v0.1l0.1,0.1l1.2,2.2L18,9.1L17.8,8.7z"/>
	<path class="st0" d="M16.5,5c0.1-0.8,0.6-1.4,1.3-1.7l0.2-0.1l0.2,0.4l-0.2,0.1c-0.3,0.2-0.6,0.4-0.8,0.7c-0.4,0.6-0.4,1.4,0,2v0.1
		l0.1,0.2l1,1.9l0.1,0.2l-0.4,0.2L18,8.7l-1-1.9l-0.1-0.2V6.5l-1-2l-0.1-0.2l0.4-0.2l0.1,0.2L16.5,5C16.6,5,16.6,5,16.5,5z"/>
	<path class="st0" d="M22,7.2c-0.4,0-0.8-0.1-1.1-0.3c-0.7-0.4-1.2-1-1.3-1.7c-0.2-0.6-0.1-1.3,0.2-1.9C20,2.6,20.5,2.1,21.2,2
		c0.2-0.1,0.4-0.1,0.6-0.1c0.4,0,0.8,0.1,1.1,0.3c0.7,0.4,1.2,1,1.3,1.8l0.1,0.3L24,4.4l-3.7,1c0.1,0.3,0.3,0.6,0.6,0.8
		c0.3,0.2,0.7,0.4,1,0.4c0.1,0,0.3,0,0.4-0.1c0.6-0.1,1.1-0.6,1.3-1.2l0-0.1l0.7,0.2l-0.1,0.1c-0.3,0.8-1,1.4-1.8,1.6
		C22.4,7.2,22.2,7.2,22,7.2z M21.8,2.6c-0.1,0-0.3,0-0.4,0.1c-0.3,0.1-0.7,0.3-0.9,0.6c-0.3,0.4-0.4,0.9-0.4,1.4l3.4-0.9
		c-0.1-0.3-0.3-0.6-0.6-0.8C22.6,2.7,22.2,2.6,21.8,2.6z"/>
	<path class="st0" d="M24.2,5.5C24,6.2,23.3,6.8,22.6,7c-0.5,0.1-1.1,0.1-1.6-0.2c-0.6-0.3-1.1-0.9-1.3-1.7
		c-0.2-0.6-0.1-1.2,0.1-1.8c0.3-0.6,0.8-1.1,1.4-1.2c0.6-0.2,1.1-0.1,1.6,0.2c0.6,0.4,1.1,1,1.3,1.7l0.1,0.2l-0.2,0l-3.9,1
		c0.1,0.4,0.4,0.7,0.7,1c0.4,0.4,1,0.5,1.6,0.3c0.6-0.2,1.2-0.6,1.4-1.2L24.2,5.5z M23.7,3.8c-0.1-0.4-0.4-0.8-0.7-1
		c-0.5-0.3-1-0.5-1.6-0.3c-0.4,0.1-0.7,0.3-1,0.6C20,3.6,19.9,4.3,20,4.9L23.7,3.8z"/>
	<polygon class="st0" points="26.9,6.5 26.8,6.3 24.8,1.7 24.6,1.2 25.4,1.2 25.5,1.4 27.1,5.2 28.6,1.3 28.7,1.1 29.5,1.1 
		27.5,6.3 27.4,6.5 	"/>
	<path class="st0" d="M24.8,1.3h0.5l0,0.1l1.8,4.1l1.6-4.2l0.1-0.1h0.5l-0.1,0.3l-1.8,4.7l-0.1,0.1H27l0-0.1l-2-4.6L24.8,1.3z"/>
	<path class="st0" d="M32.2,7c-0.2,0-0.4,0-0.5-0.1c-0.6-0.1-1.1-0.5-1.4-1.1c-0.4-0.6-0.5-1.4-0.4-2.1c0.1-0.6,0.5-1.2,1.1-1.6
		c0.4-0.3,0.9-0.5,1.4-0.5c0.2,0,0.4,0,0.5,0.1c0.6,0.2,1.1,0.5,1.4,1.1c0.4,0.6,0.5,1.4,0.3,2.1c-0.1,0.6-0.5,1.2-1.1,1.6
		C33.3,6.9,32.8,7,32.2,7z M32.3,2.4c-0.3,0-0.6,0.1-0.8,0.2c-0.5,0.3-0.8,0.8-0.9,1.4c-0.1,0.4-0.1,0.9,0.1,1.3
		c0.2,0.5,0.6,0.9,1.2,1c0.1,0,0.2,0,0.4,0l0,0c0.3,0,0.6-0.1,0.8-0.2c0.5-0.3,0.8-0.8,0.9-1.3c0.1-0.5,0.1-0.9-0.1-1.3
		c-0.2-0.5-0.6-0.9-1.2-1C32.6,2.4,32.5,2.4,32.3,2.4z"/>
	<path class="st0" d="M31.1,2.3c0.5-0.4,1.2-0.6,1.9-0.4c0.6,0.1,1,0.5,1.3,1c0.4,0.6,0.5,1.3,0.3,2c-0.1,0.6-0.5,1.2-1,1.5
		c-0.5,0.4-1.2,0.6-1.9,0.4c-0.6-0.1-1.1-0.5-1.4-1c-0.4-0.6-0.5-1.3-0.3-2C30.2,3.2,30.5,2.7,31.1,2.3z M30.6,5.4
		c0.2,0.5,0.7,0.9,1.2,1.1c0.4,0.1,0.9,0,1.3-0.2c0.5-0.3,0.9-0.8,1-1.4c0.1-0.5,0.1-1-0.1-1.4c-0.2-0.5-0.7-0.9-1.2-1.1
		c-0.4-0.1-0.9,0-1.3,0.2c-0.5,0.3-0.9,0.9-1,1.5C30.4,4.4,30.4,4.9,30.6,5.4z"/>
	<polygon class="st0" points="34.5,7.9 34.6,7.5 37.5,0.8 38.1,1.1 35.3,7.8 35.2,8.2 	"/>
	<path class="st0" d="M37.6,1L38,1.1l-0.1,0.2l-2.7,6.4L35.1,8l-0.4-0.2l0.1-0.2l2.7-6.4L37.6,1z"/>
	<path class="st0" d="M38.8,9.8c-0.4,0-0.9-0.1-1.2-0.4c-0.4-0.3-0.8-0.7-1-1.2c-0.2-0.6-0.2-1.2,0.2-1.7l1.6-2.5l0.2-0.3l0.6,0.4
		L39,4.5L37.4,7c-0.2,0.2-0.2,0.5-0.2,0.8c0.1,0.5,0.3,0.9,0.7,1.1c0.3,0.2,0.6,0.3,0.9,0.3l0,0c0.5,0,0.9-0.2,1.1-0.6l1.6-2.5
		l0.1-0.3l0.6,0.4l-0.2,0.3l-1.6,2.5c-0.3,0.4-0.6,0.7-1.1,0.8C39.2,9.8,39,9.8,38.8,9.8z"/>
	<path class="st0" d="M38.7,4L39,4.2l-0.1,0.2l-1.6,2.5c-0.2,0.3-0.2,0.6-0.2,0.9c0.1,0.5,0.3,0.9,0.8,1.2c0.3,0.2,0.6,0.3,1,0.3
		c0.5,0,0.9-0.2,1.2-0.6l1.6-2.5L41.7,6l0.4,0.2L42,6.4l-1.6,2.5c-0.2,0.4-0.6,0.6-1,0.7c-0.6,0.2-1.2,0.1-1.7-0.3
		c-0.4-0.2-0.8-0.6-0.9-1.1c-0.2-0.5-0.1-1.1,0.2-1.6l1.6-2.5L38.7,4z"/>
	<path class="st0" d="M41.3,12.6c-0.1-0.1-0.2-0.2-0.2-0.3c-0.6-0.5-0.6-1.4-0.1-2c0,0,0.1-0.1,0.1-0.1L43.2,8l-0.4-0.3l-0.3-0.3
		l0.5-0.5l0.3,0.2l0.4,0.4l0.9-0.9L45.2,7l-0.3,0.2L44.2,8l1.1,1l-0.5,0.5l-0.3-0.3l-0.8-0.8l-2.2,2.2c-0.4,0.4-0.3,0.9,0.2,1.4
		l0.2,0.2l-0.5,0.5L41.3,12.6z"/>
	<path class="st0" d="M41.4,10.6L41.4,10.6c-0.4,0.5-0.3,1,0.2,1.6l0.2,0.1l-0.3,0.3l-0.2-0.1c-0.1-0.1-0.2-0.2-0.2-0.2
		c-0.5-0.5-0.6-1.3-0.1-1.8c0,0,0.1-0.1,0.1-0.1L43.4,8l-0.5-0.4l-0.2-0.2l0.3-0.3l0.2,0.1l0.5,0.4l0.8-0.8l0.2-0.2L44.9,7l-0.2,0.1
		L44,8l0.9,0.9L45.1,9l-0.3,0.3l-0.2-0.1l-0.9-0.9L41.4,10.6z"/>
	<path class="st0" d="M41.8,13.2l3.9-3.2l0.3-0.2l0.4,0.5l-4.1,3.4L41.8,13.2z M46.6,9.6l-0.1-0.1l-0.1-0.1L46.9,9l0.2,0.3l0.2,0.3
		L46.8,10L46.6,9.6z"/>
	<path class="st0" d="M45.9,10l0.3,0.3L46,10.4l-3.6,2.9l-0.2,0.1L42,13.2l0.2-0.1l3.6-3L45.9,10z M46.6,9.4l0.3-0.3L47,9.3l0,0
		l0.1,0.2l-0.3,0.3l-0.1-0.2l0,0L46.6,9.4z"/>
	<path class="st0" d="M45.9,17.3c-0.2,0-0.3,0-0.5,0c-0.6-0.1-1.1-0.5-1.5-1c-0.3-0.5-0.5-1.2-0.3-1.8l0-0.1
		c0.2-0.7,0.7-1.4,1.4-1.7c0.4-0.2,0.9-0.4,1.3-0.4c0.2,0,0.3,0,0.5,0c0.7,0.1,1.3,0.5,1.6,1.2c0.3,0.5,0.4,1.2,0.2,1.7
		C48.3,16.4,47.2,17.3,45.9,17.3z M44.3,14.3c-0.2,0.5-0.2,1,0.1,1.4c0.2,0.4,0.5,0.6,0.9,0.8c0.2,0.1,0.4,0.1,0.6,0.1
		c0.4,0,0.7-0.1,1-0.3c0.4-0.2,0.7-0.5,0.9-0.9c0.4-0.8,0.1-1.8-0.8-2.2c-0.1,0-0.1-0.1-0.2-0.1C46.7,13,46.5,13,46.3,13
		c-0.4,0-0.7,0.1-1,0.3C44.9,13.5,44.5,13.8,44.3,14.3L44.3,14.3L44.3,14.3z"/>
	<path class="st0" d="M46.7,12.4c0.7,0.1,1.2,0.5,1.5,1.1c0.3,0.5,0.3,1.1,0.2,1.6c-0.4,1.3-1.7,2.2-3.1,1.9
		c-1.2-0.3-1.9-1.4-1.7-2.6c0,0,0-0.1,0-0.1c0.2-0.7,0.6-1.3,1.3-1.6C45.5,12.4,46.2,12.3,46.7,12.4z M44.2,14.2
		c-0.3,0.5-0.2,1.1,0.1,1.6c0.2,0.4,0.6,0.7,1,0.8c0.6,0.2,1.2,0.1,1.8-0.2c0.4-0.2,0.8-0.6,1-1c0.4-0.9,0.1-1.9-0.8-2.4
		C47.1,13,47,13,47,13c-0.6-0.2-1.2-0.1-1.8,0.2C44.8,13.4,44.4,13.7,44.2,14.2L44.2,14.2z"/>
	<path class="st0" d="M45.9,22l0.3-0.1l2.6-0.7c0.3-0.1,0.6-0.3,0.9-0.5c0.3-0.3,0.4-0.8,0.3-1.3c-0.1-0.3-0.3-0.6-0.5-0.8
		c-0.3-0.2-0.6-0.3-0.9-0.3c-0.1,0-0.3,0-0.4,0.1l-2.6,0.7l-0.4,0L45,18.4h0.4l2.6-0.6l2.2-0.6l0.2,0.7L50.1,18l-0.1,0
		c0.3,0.2,0.6,0.6,0.8,0.9c0.2,0.5,0.2,1.1,0,1.6c0,0,0,0.1-0.1,0.1c-0.3,0.6-0.9,1-1.5,1.2l-2.6,0.7l-0.3,0.2L45.9,22z"/>
	<path class="st0" d="M46.2,22.5l-0.1-0.4l0.2-0.1l2.6-0.7c0.4-0.1,0.7-0.3,0.9-0.6c0.3-0.4,0.5-0.9,0.3-1.4
		c-0.1-0.3-0.3-0.6-0.6-0.9c-0.4-0.3-1-0.4-1.5-0.3l-0.2,0L45.5,19h-0.2l-0.1-0.4h0.2l2.4-0.6l0.2,0l1.9-0.5l0.2,0l0.1,0.4l-0.2,0
		L49.4,18h0.1c1,0.4,1.4,1.6,1,2.5c0,0,0,0.1-0.1,0.1c-0.3,0.6-0.8,1-1.4,1.1l-2.6,0.7L46.2,22.5z"/>
	<path class="st0" d="M48.4,32.4c-0.2,0-0.4,0-0.6-0.1c-0.7-0.1-1.2-0.5-1.6-1.1c-0.4-0.6-0.6-1.3-0.4-2c0.1-0.6,0.5-1.1,1.1-1.4
		c0.4-0.3,0.9-0.4,1.5-0.4c0.2,0,0.4,0,0.6,0.1c0.6,0.2,1.2,0.5,1.6,1.1c0.8,1,0.6,2.5-0.4,3.3c0,0-0.1,0.1-0.1,0.1
		C49.5,32.3,49,32.4,48.4,32.4z M48.2,28.2c-0.3,0-0.6,0.1-0.8,0.2c-0.8,0.3-1.2,1.3-0.9,2.1c0,0.1,0.1,0.1,0.1,0.2
		c0.3,0.5,0.8,0.8,1.3,0.9c0.2,0,0.3,0.1,0.5,0.1c0.3,0,0.6-0.1,0.9-0.2c0.4-0.2,0.7-0.5,0.9-0.9c0.2-0.4,0.2-0.8,0-1.3
		c0-0.1-0.1-0.1-0.1-0.2c-0.3-0.5-0.8-0.8-1.3-0.9C48.5,28.2,48.4,28.2,48.2,28.2z"/>
	<path class="st0" d="M50.4,28.7c0.7,1,0.6,2.4-0.4,3.1c0,0-0.1,0.1-0.1,0.1c-0.6,0.4-1.3,0.5-2,0.4c-0.6-0.1-1.2-0.5-1.5-1
		c-0.4-0.5-0.6-1.2-0.4-1.9c0.1-0.6,0.5-1.1,1-1.4c0.6-0.4,1.3-0.5,2-0.4C49.5,27.8,50,28.2,50.4,28.7z M47.3,28.2
		c-0.9,0.4-1.3,1.4-1,2.3c0,0.1,0.1,0.1,0.1,0.2c0.3,0.5,0.8,0.9,1.4,1c0.5,0.1,1,0.1,1.4-0.1c0.9-0.4,1.3-1.4,1-2.3
		c0-0.1-0.1-0.1-0.1-0.2c-0.3-0.5-0.8-0.9-1.4-1C48.2,28,47.7,28,47.3,28.2z"/>
	<path class="st0" d="M50.1,37l0.1-0.3c0.1-0.1,0.1-0.2,0.1-0.3c0-0.5-0.3-0.8-0.9-1.2l-0.5,1l-0.1,0.3l-0.7-0.3l0.2-0.3l0.5-1
		l-3.9-1.8l-0.3-0.2l0.3-0.6l0.3,0.1l3.9,1.8l0.2-0.5l0.1-0.3l0.7,0.3L49.9,34l-0.2,0.5c0.3,0.2,0.6,0.4,0.8,0.6
		c0.6,0.5,0.7,1.3,0.4,2l-0.1,0.3L50.1,37z"/>
	<path class="st0" d="M48.7,36.1l-0.1,0.2l-0.4-0.2l0.1-0.2l0.5-1.2l-4-1.8l-0.2-0.1l0.2-0.4l0.2,0.1l4,1.8l0.3-0.6l0.1-0.2l0.4,0.2
		L49.7,34l-0.3,0.6c0.3,0.2,0.6,0.4,0.9,0.6c0.5,0.4,0.7,1.2,0.4,1.8l-0.1,0.2L50.2,37l0.1-0.2c0.1-0.1,0.1-0.3,0.1-0.4
		c0-0.5-0.3-1-1.1-1.5L48.7,36.1z"/>
	<path class="st0" d="M43,42.7l1-1l-2.3-2.3c-0.1-0.1-0.3-0.2-0.5-0.2c-0.3,0-0.6,0.2-0.8,0.5l-0.3,0.3l-0.5-0.5l0.2-0.2l0.3-0.2
		c0.3-0.3,0.6-0.5,1.1-0.5c0.4,0,0.7,0.1,1,0.4c0,0,2.3,2.3,2.3,2.3l0.6-0.6l0.5,0.5L45,41.6l0.9,0.9L45.5,43l-0.9-0.9l-1,1L43,42.7
		z"/>
	<path class="st0" d="M41.9,39.3L41.9,39.3c-0.5-0.4-1.1-0.3-1.6,0.2l-0.2,0.2l-0.3-0.3l0.2-0.2l0.2-0.2c0.5-0.5,1.3-0.6,1.8-0.1
		c0,0,0.1,0.1,0.1,0.1l2.3,2.3l0.5-0.5l0.2-0.2l0.3,0.3l-0.2,0.2l-0.5,0.5l0.8,0.8l0.2,0.2l-0.3,0.3l-0.2-0.2l-0.8-0.8l-0.9,0.9
		L43.5,43l-0.3-0.3l0.2-0.2l0.9-0.9L41.9,39.3z"/>
	<path class="st0" d="M42.7,45.5l-1-1.6c-0.1,0.5-0.4,1-0.8,1.3c-0.3,0.2-0.7,0.3-1.1,0.3c-0.1,0-0.2,0-0.3,0
		c-0.7-0.1-1.3-0.5-1.6-1.1l-1.5-2.3L36,42l0.6-0.4l0.2,0.3l1.5,2.3c0.2,0.3,0.5,0.5,0.8,0.6c0.2,0.1,0.3,0.1,0.5,0.1
		c0.5,0,1-0.3,1.2-0.8c0-0.1,0-0.1,0.1-0.2c0.2-0.5,0.1-1-0.2-1.4l-0.1-0.1L39,39.9l0.6-0.4l1.7,2.5l2,3l0.2,0.3l-0.6,0.4L42.7,45.5
		z"/>
	<path class="st0" d="M41.6,43.6c0,0.6-0.3,1.1-0.8,1.5c-0.4,0.3-0.9,0.4-1.3,0.3c-0.6-0.1-1.2-0.5-1.5-1l-1.5-2.3L36.2,42l0.3-0.2
		l0.1,0.2l1.5,2.3c0.2,0.3,0.5,0.6,0.8,0.7c0.8,0.3,1.6,0,1.9-0.8c0-0.1,0-0.1,0.1-0.2c0.2-0.5,0.1-1.1-0.2-1.5l-0.1-0.1l-1.4-2.1
		L39.2,40l0.4-0.2l0.1,0.2l1.4,2.1l0.1,0.2l2,3l0.1,0.2l-0.3,0.2l-0.1-0.2l-1.2-1.9C41.6,43.6,41.6,43.6,41.6,43.6z"/>
	<path class="st0" d="M34.4,48.1c-0.3,0-0.5,0-0.8-0.1c-0.1,0-0.1-0.1-0.2-0.1c-0.7-0.3-1.2-0.9-1.4-1.6l-0.1-0.3l0.3-0.1l3.6-1.2
		c-0.2-0.3-0.4-0.5-0.7-0.7c-0.3-0.2-0.6-0.3-1-0.3c-0.2,0-0.4,0-0.5,0.1c-0.6,0.2-1,0.7-1.2,1.2l0,0.1l-0.7-0.2l0-0.1
		c0.2-0.8,0.9-1.4,1.7-1.7c0.2-0.1,0.5-0.1,0.7-0.1c0.3,0,0.7,0.1,1,0.2c0.7,0.3,1.2,0.9,1.4,1.6c0.2,0.6,0.2,1.3,0,1.9
		C36.3,47.5,35.4,48.1,34.4,48.1z M32.7,46.3c0.3,0.6,1,1,1.7,1l0,0c0.2,0,0.3,0,0.5-0.1c0.3-0.1,0.6-0.3,0.8-0.6
		c0.3-0.4,0.4-0.9,0.3-1.4L32.7,46.3z"/>
	<path class="st0" d="M31.9,44.6c0.2-0.8,0.8-1.4,1.6-1.6c0.5-0.2,1.1-0.1,1.6,0.1c0.7,0.3,1.2,0.9,1.4,1.6c0.2,0.6,0.2,1.2,0,1.8
		c-0.4,1.1-1.7,1.7-2.8,1.3c-0.1,0-0.1-0.1-0.2-0.1c-0.7-0.3-1.1-0.9-1.4-1.5L32.1,46l0.2-0.1l3.8-1.3c-0.2-0.4-0.4-0.7-0.8-0.9
		c-0.5-0.4-1.1-0.5-1.6-0.3c-0.6,0.2-1.1,0.7-1.3,1.3L31.9,44.6z M32.6,46.3c0.4,1,1.4,1.5,2.4,1.2c0.4-0.1,0.7-0.4,0.9-0.7
		c0.3-0.5,0.4-1.1,0.3-1.7L32.6,46.3z"/>
	<path class="st0" d="M25.2,49.3V49l0-0.1c-0.3,0.2-0.6,0.2-0.9,0.2c-0.1,0-0.2,0-0.4,0c-0.2,0-0.3-0.1-0.5-0.2
		c-0.4-0.2-0.7-0.6-0.9-1c0,0-0.1,0.1-0.1,0.1c-0.3,0.3-0.8,0.5-1.2,0.5c-0.1,0-0.3,0-0.4,0c-0.4-0.1-0.8-0.3-1.1-0.7
		c-0.4-0.5-0.5-1.2-0.4-1.8l0.6-2.8l0-0.4l0.7,0.2v0.3l-0.6,2.9c-0.1,0.3-0.1,0.6,0.1,0.9c0.1,0.4,0.4,0.7,0.8,0.8
		c0.1,0,0.1,0,0.2,0c0.2,0,0.4,0,0.5-0.1c0.4-0.2,0.7-0.6,0.7-1l0-0.2l0.6-2.6l0-0.4l0.7,0.2v0.3l-0.5,2.7l-0.1,0.2
		c-0.1,0.3,0,0.6,0.1,0.9c0.2,0.5,0.6,0.8,1.1,0.8c0.1,0,0.2,0,0.4-0.1c0.1,0,0.1,0,0.2-0.1c0.4-0.2,0.7-0.6,0.8-1.1l0-0.2l0.6-2.6
		l0.1-0.3l0.7,0.1v0.3l-0.6,2.6l0,0.2l-0.5,1.8l0,0.3L25.2,49.3z"/>
	<path class="st0" d="M22.4,47.9c-0.4,0.4-0.9,0.5-1.5,0.4c-0.4-0.1-0.8-0.3-1-0.6c-0.3-0.5-0.5-1.1-0.3-1.7l0.6-2.8v-0.2l0.4,0.1
		v0.2L20,46.1c-0.1,0.3-0.1,0.7,0.1,1c0.1,0.4,0.5,0.7,0.9,0.8c0.3,0.1,0.6,0,0.8-0.1c0.4-0.2,0.7-0.6,0.8-1.1v-0.2l0.6-2.6v-0.2
		l0.4,0.1v0.2l-0.5,2.6l0,0.2c-0.1,0.3-0.1,0.7,0.1,1c0.2,0.7,0.9,1,1.6,0.8c0.1,0,0.1,0,0.2-0.1c0.5-0.2,0.8-0.7,0.9-1.2v-0.2
		l0.5-2.6l0-0.2l0.4,0.1v0.2l-0.6,2.6v0.2l-0.4,1.7v0.2l-0.4-0.1V49l0.1-0.5C25,48.9,24.5,49,24,48.9c-0.1,0-0.3-0.1-0.4-0.2
		c-0.5-0.2-0.8-0.7-0.9-1.2C22.6,47.7,22.5,47.8,22.4,47.9z"/>
	<path class="st0" d="M16.4,46.3c-1,0-1.9-0.6-2.2-1.5c0-0.1,0-0.1-0.1-0.2c-0.2-0.7-0.1-1.5,0.3-2.1c0.3-0.6,0.9-1,1.5-1.2
		c0.3-0.1,0.5-0.1,0.8-0.1c1,0,1.9,0.6,2.2,1.5c0,0.1,0,0.1,0.1,0.2c0.2,0.7,0.1,1.5-0.3,2.1c-0.3,0.6-0.9,1-1.5,1.2
		C16.9,46.2,16.6,46.3,16.4,46.3z M16.5,41.7c-0.1,0-0.1,0-0.2,0c-0.6,0.1-1.1,0.5-1.3,1c-0.2,0.4-0.3,0.9-0.3,1.3
		c0.1,0.8,0.8,1.5,1.6,1.5c0.1,0,0.1,0,0.2,0c0.1,0,0.1,0,0.2,0c0.6-0.1,1.1-0.5,1.3-1c0.2-0.4,0.3-0.8,0.3-1.3h0
		c-0.1-0.8-0.8-1.5-1.6-1.5C16.6,41.7,16.6,41.7,16.5,41.7z"/>
	<path class="st0" d="M17.1,46c-1.1,0.4-2.4-0.2-2.8-1.3c0-0.1,0-0.1-0.1-0.2c-0.2-0.7-0.1-1.4,0.3-2c0.3-0.5,0.8-1,1.4-1.2
		c1.1-0.4,2.4,0.2,2.8,1.3c0,0.1,0,0.1,0.1,0.2c0.2,0.7,0.1,1.4-0.3,2C18.2,45.4,17.7,45.8,17.1,46z M18.5,43.2
		c-0.1-1-1-1.7-1.9-1.6c-0.1,0-0.1,0-0.2,0c-0.6,0.1-1.1,0.5-1.4,1c-0.3,0.4-0.4,0.9-0.3,1.4c0.1,1,1,1.7,2,1.6c0.1,0,0.1,0,0.2,0
		c0.6-0.1,1.1-0.5,1.4-1C18.4,44.1,18.5,43.6,18.5,43.2L18.5,43.2z"/>
	<path class="st0" d="M12,42.8c-0.6,0-1.2-0.3-1.7-0.7c-0.4-0.4-0.7-1-0.7-1.6c0-0.8,0.3-1.5,0.9-2c0.5-0.5,1.1-0.8,1.7-0.8
		c0.1,0,0.2,0,0.2,0c0.6,0,1.2,0.3,1.7,0.7c0.4,0.4,0.7,1,0.7,1.6c0,0.8-0.3,1.5-0.8,2c-0.5,0.5-1.1,0.8-1.7,0.8
		C12.1,42.8,12.1,42.8,12,42.8z M12.5,38.3c-0.5,0-1.1,0.2-1.4,0.6c-0.3,0.3-0.6,0.7-0.6,1.2c-0.1,0.5,0.1,1.1,0.5,1.4
		c0.3,0.3,0.7,0.5,1.1,0.5l0.1,0c0.5,0,1-0.2,1.4-0.6c0.3-0.3,0.5-0.6,0.6-1h0l0-0.2c0.1-0.5,0-1.1-0.4-1.4
		c-0.3-0.3-0.7-0.5-1.1-0.5L12.5,38.3z"/>
	<path class="st0" d="M12.2,42.6c-0.7,0.1-1.3-0.2-1.8-0.7C10,41.6,9.8,41,9.7,40.5c0-0.7,0.3-1.4,0.8-1.9c0.4-0.5,1-0.7,1.6-0.8
		c0.7-0.1,1.3,0.2,1.8,0.7c0.4,0.4,0.7,1,0.7,1.5c0,0.7-0.3,1.4-0.8,1.9C13.4,42.3,12.8,42.6,12.2,42.6z M14.2,40.3
		c0.1-0.6,0-1.1-0.4-1.6c-0.3-0.3-0.7-0.5-1.2-0.5c-0.6,0-1.2,0.2-1.7,0.7c-0.4,0.3-0.6,0.8-0.7,1.3c-0.1,0.6,0.1,1.2,0.5,1.6
		c0.3,0.3,0.7,0.5,1.2,0.5c0.6,0,1.2-0.2,1.6-0.7C13.9,41.2,14.1,40.8,14.2,40.3L14.2,40.3z"/>
	<path class="st0" d="M7.2,38.4l0.3-0.2l0.2-0.1c-0.5-0.2-1-0.5-1.2-1c-0.2-0.4-0.3-0.9-0.2-1.4c0.1-0.7,0.6-1.2,1.2-1.6l2.4-1.3
		l0.3-0.2l0.3,0.6l-0.3,0.2l-2.4,1.4c-0.3,0.2-0.5,0.4-0.7,0.7c-0.4,0.7-0.1,1.5,0.6,1.8l0.1,0c0.2,0.1,0.4,0.1,0.6,0.1
		c0.3,0,0.6-0.1,0.8-0.2l2.4-1.4l0.3-0.2l0.4,0.6l-2.5,1.4l-0.2,0.1l-1.7,1L7.6,39L7.2,38.4z"/>
	<path class="st0" d="M10.1,32.8l0.2,0.4l-0.2,0.1l-2.3,1.3C7.4,34.8,7.2,35,7,35.4c-0.4,0.7-0.1,1.7,0.6,2c0,0,0.1,0,0.1,0.1
		c0.5,0.2,1,0.1,1.5-0.1l0.2-0.1l2.2-1.2l0.2-0.1l0.2,0.4l-0.2,0.1l-2.2,1.2l-0.2,0.1l-1.7,1l-0.2,0.1l-0.2-0.4l0.2-0.1L8.1,38H8
		c-0.6-0.1-1.1-0.5-1.4-1c-0.2-0.4-0.3-0.9-0.2-1.3C6.6,35,7,34.5,7.5,34.2l2.4-1.3L10.1,32.8z"/>
</g>
</svg>
