<svg xmlns="http://www.w3.org/2000/svg" viewBox="0 0 51.25 12.24"><defs><style>.cls-1{fill:#fff;}</style></defs><g id="레이어_2" data-name="레이어 2"><g id="레이어_1-2" data-name="레이어 1"><path class="cls-1" d="M0,0H1.48L1.6.56,3.46,9,6.71.47,6.88,0h1l.17.47L11.3,9,13.16.56,13.28,0h1.48l-.2.88-2.37,10.8-.13.56H11l-.16-.47-3.44-9-3.44,9-.16.47H2.7l-.13-.56L.2.88Z"/><path class="cls-1" d="M17.69,1.69A4.92,4.92,0,0,1,21.42,0a5,5,0,0,1,3.74,1.71,6.25,6.25,0,0,1,1.66,4.41,6.32,6.32,0,0,1-1.67,4.43,4.92,4.92,0,0,1-3.73,1.69,5,5,0,0,1-3.74-1.71A6.25,6.25,0,0,1,16,6.12,6.32,6.32,0,0,1,17.69,1.69Zm.81,7.6a3.54,3.54,0,0,0,5.57.3,4.89,4.89,0,0,0,1.31-3.47,5.11,5.11,0,0,0-1-3.17,3.54,3.54,0,0,0-5.57-.3,4.89,4.89,0,0,0-1.31,3.47A5.11,5.11,0,0,0,18.5,9.29Z"/><path class="cls-1" d="M38.66,11.32l.29.92H37.44l-.14-.52a25.59,25.59,0,0,0-1.08-3,5,5,0,0,0-1.46-1.87H31.14v5.4H29.7V6.12l0-5.38V0h.72L35,0a3.76,3.76,0,0,1,2.45.86A3.21,3.21,0,0,1,38.7,3.44a3,3,0,0,1-.22,1.13,3.31,3.31,0,0,1-1.92,2A14.37,14.37,0,0,1,38.66,11.32ZM32.71,5.4H35a2.54,2.54,0,0,0,1.24-.32,1.83,1.83,0,0,0,.61-2.78A2.22,2.22,0,0,0,35,1.44H31.14v4h1.58Z"/><path class="cls-1" d="M43,6.84v5.4H41.58V0H43V5.4h.79L49,.22,49.19,0h2.06L50,1.22l-4.87,4.9L50,11l1.25,1.22H49.19L49,12,43.81,6.84Z"/></g></g></svg>