<svg xmlns="http://www.w3.org/2000/svg" viewBox="0 0 50.19 51.19"><defs><style>.cls-1{fill:#fff;}</style></defs><g id="레이어_2" data-name="레이어 2"><g id="레이어_1-2" data-name="레이어 1"><path class="cls-1" d="M42.26,24.43a15.66,15.66,0,0,1-11.51,15.1A15.67,15.67,0,0,0,11.51,20.3a15.65,15.65,0,0,1,30.75,4.13Z"/><path class="cls-1" d="M26.61,40.19a15.78,15.78,0,0,1-15.2-19.91v-.06h.06A15.77,15.77,0,0,1,30.9,39.55v.06h-.06A15.93,15.93,0,0,1,26.61,40.19Zm-15-19.8a15.54,15.54,0,0,0,19.05,19,15.56,15.56,0,0,0-15-19.59h0a15.8,15.8,0,0,0-4.05.53Z"/><path class="cls-1" d="M15.65,51.19A15.72,15.72,0,1,1,31.44,35.54a16,16,0,0,1-.54,4A15.78,15.78,0,0,1,15.65,51.19Zm0-31.3a15.55,15.55,0,1,0,15,11.45A15.42,15.42,0,0,0,15.65,19.89Z"/><path class="cls-1" d="M2.76,20.84v-.33l.1-.52-.94-.2-.37-.09.25-.65h.31l1,.2.23-1.08.09-.35.65.14v.32l-.28,1.16,3.05.66H7c.43,0,.71-.31.84-.94l.09-.35.65.14v.33l-.09.36a1.45,1.45,0,0,1-1.41,1.15,1.27,1.27,0,0,1-.28,0l-3.15-.67-.1.49v.32Z"/><path class="cls-1" d="M6.79,20.24h.09q.87.09,1.11-1L8,19l.41.09v.21l-.09.32a1.3,1.3,0,0,1-1.53,1l-.09,0-3.19-.68-.13.63v.2l-.52,0v-.2L3,19.88,2,19.65l-.21,0,.16-.41h.21l1.08.23.26-1.22,0-.21.41.09v.2L3.6,19.55Z"/><path class="cls-1" d="M8.3,18.61,5.84,17.54l-3.3-1.46-.32-.14.29-.65.32.15,1.72.76a2,2,0,0,1,0-1.56,2.07,2.07,0,0,1,1.07-1.07,2.23,2.23,0,0,1,1.93,0l2.48,1.1.34.13-.28.63-.36-.11-2.5-1.06a1.69,1.69,0,0,0-.7-.15,1.63,1.63,0,0,0-.31,0,1.34,1.34,0,0,0-1,.79,1.42,1.42,0,0,0-.06.91,1.55,1.55,0,0,0,.92,1l2.81,1.24-.3.63Z"/><path class="cls-1" d="M4.8,16.4a1.89,1.89,0,0,1-.07-1.7,1.92,1.92,0,0,1,1-1,2.12,2.12,0,0,1,1.81,0L10,14.8l.21.08-.17.38-.24-.07L7.33,14.13A1.78,1.78,0,0,0,6.24,14a1.48,1.48,0,0,0-1.13.88,1.56,1.56,0,0,0-.07,1A1.69,1.69,0,0,0,6,17l.2.09,2.28,1,.2.09-.18.38-.19-.08-2.29-1-.16-.07L2.6,16l-.19-.08.17-.39.19.09,2.07.92A.36.36,0,0,1,4.8,16.4Z"/><path class="cls-1" d="M10.14,13.53A2.7,2.7,0,0,1,8.4,12.9a2.82,2.82,0,0,1-1.05-1.62A2.34,2.34,0,0,1,9.12,8.49l.29,0a2.22,2.22,0,0,1,.37,0,2.68,2.68,0,0,1,1.73.64l.28.21-.22.28-2.46,3a2.15,2.15,0,0,0,1,.29h.12a1.62,1.62,0,0,0,1.27-.62,1.84,1.84,0,0,0,.36-1.7l0-.15.72-.16,0,.13a2.55,2.55,0,0,1-.5,2.33,2.34,2.34,0,0,1-1.52.85A2.3,2.3,0,0,1,10.14,13.53ZM9.73,9.11a1.71,1.71,0,0,0-1.32.63,1.63,1.63,0,0,0-.37,1,2,2,0,0,0,.54,1.38l2.19-2.72a1.73,1.73,0,0,0-.94-.28Z"/><path class="cls-1" d="M12.39,10.37a2.4,2.4,0,0,1-.47,2.2,2.25,2.25,0,0,1-1.43.8,2.55,2.55,0,0,1-2-.58,2.71,2.71,0,0,1-1-1.54A2.2,2.2,0,0,1,9.15,8.63l.27,0a2.54,2.54,0,0,1,2,.58l.17.13-.13.17L8.9,12.58a2.36,2.36,0,0,0,1.15.39,1.76,1.76,0,0,0,1.51-.67A2,2,0,0,0,12,10.47ZM11,9.37A1.75,1.75,0,0,0,9.77,9a1.82,1.82,0,0,0-1.47.68,1.75,1.75,0,0,0-.4,1.08,2.11,2.11,0,0,0,.69,1.59Z"/><path class="cls-1" d="M17,8l-1.11-2.1V5.75l-1-1.94-.18-.34.63-.32.17.3.15.32A2.4,2.4,0,0,1,17,2.36l.31-.17.32.64L17.28,3a1.91,1.91,0,0,0-.76.65,1.74,1.74,0,0,0,0,1.84l0,0v.12l.08.13L17.78,8l-.63.32Z"/><path class="cls-1" d="M15.7,4.19A2.26,2.26,0,0,1,17,2.49l.19-.1.19.38-.19.09a2.14,2.14,0,0,0-.82.7,1.9,1.9,0,0,0,0,2v.08l.09.19,1,1.88.1.19-.38.19-.09-.19L16.12,6,16,5.83V5.75l-1-2-.12-.22.38-.19.1.18.33.67Z"/><path class="cls-1" d="M21.15,6.41A2.33,2.33,0,0,1,20,6.11a2.67,2.67,0,0,1-1.35-1.74,2.77,2.77,0,0,1,.16-1.88,2.27,2.27,0,0,1,1.54-1.32A2.43,2.43,0,0,1,21,1.09a2.38,2.38,0,0,1,1.13.29,2.71,2.71,0,0,1,1.33,1.78l.1.34-.36.08-3.7,1a2.37,2.37,0,0,0,.6.8,1.59,1.59,0,0,0,1,.38,1.61,1.61,0,0,0,.44-.06,1.88,1.88,0,0,0,1.31-1.15l.05-.13.65.23-.05.14a2.53,2.53,0,0,1-1.78,1.58A2.33,2.33,0,0,1,21.15,6.41ZM21,1.82a2,2,0,0,0-.43.05,1.73,1.73,0,0,0-.88.59,2,2,0,0,0-.38,1.43L22.66,3A1.81,1.81,0,0,0,22,2.17,1.72,1.72,0,0,0,21,1.82Z"/><path class="cls-1" d="M23.39,4.7a2.42,2.42,0,0,1-1.68,1.49A2.18,2.18,0,0,1,20.09,6a2.54,2.54,0,0,1-1.28-1.65A2.57,2.57,0,0,1,19,2.55,2.11,2.11,0,0,1,20.4,1.31a2.18,2.18,0,0,1,1.64.2A2.54,2.54,0,0,1,23.3,3.19l.06.21-.21.05-3.86,1a2.43,2.43,0,0,0,.7,1,1.75,1.75,0,0,0,1.61.35A2,2,0,0,0,23,4.56Zm-.55-1.64a1.84,1.84,0,0,0-.73-1,1.83,1.83,0,0,0-1.6-.32,1.78,1.78,0,0,0-1,.64,2.12,2.12,0,0,0-.38,1.69Z"/><polygon class="cls-1" points="26.08 5.7 25.99 5.49 23.99 0.87 23.79 0.39 24.55 0.39 24.63 0.61 26.29 4.41 27.77 0.54 27.87 0.32 28.63 0.32 26.64 5.48 26.54 5.7 26.08 5.7"/><path class="cls-1" d="M24,.53h.45l.05.13,1.8,4.13L27.9.59,28,.46h.46l-.11.29-1.8,4.68-.06.13h-.28l-.05-.12-2-4.62Z"/><path class="cls-1" d="M31.4,6.25a2.48,2.48,0,0,1-.54-.06,2.33,2.33,0,0,1-1.44-1.07A2.75,2.75,0,0,1,29.06,3,2.78,2.78,0,0,1,30.13,1.4,2.3,2.3,0,0,1,31.55.9a2.35,2.35,0,0,1,.54.07A2.32,2.32,0,0,1,33.53,2a2.62,2.62,0,0,1,.35,2.11,2.66,2.66,0,0,1-1.06,1.62A2.29,2.29,0,0,1,31.4,6.25Zm.1-4.63a1.59,1.59,0,0,0-.8.21,2,2,0,0,0-.93,1.38,2.17,2.17,0,0,0,.11,1.31A1.69,1.69,0,0,0,31,5.5a1.55,1.55,0,0,0,.37,0h0a1.54,1.54,0,0,0,.81-.22A2,2,0,0,0,33.14,4,2,2,0,0,0,33,2.65a1.56,1.56,0,0,0-1.15-1A1.24,1.24,0,0,0,31.5,1.62Z"/><path class="cls-1" d="M30.21,1.52a2.13,2.13,0,0,1,1.85-.41,2.18,2.18,0,0,1,1.35,1,2.48,2.48,0,0,1,.33,2,2.59,2.59,0,0,1-1,1.54,2.22,2.22,0,0,1-1.85.4,2.18,2.18,0,0,1-1.35-1,2.57,2.57,0,0,1-.34-2A2.59,2.59,0,0,1,30.21,1.52Zm-.46,3.06A1.8,1.8,0,0,0,31,5.64a1.78,1.78,0,0,0,1.28-.19,2.12,2.12,0,0,0,1-1.44,2.16,2.16,0,0,0-.12-1.42,1.79,1.79,0,0,0-2.53-.88,2.13,2.13,0,0,0-1,1.48A2.36,2.36,0,0,0,29.75,4.58Z"/><polygon class="cls-1" points="33.66 7.11 33.77 6.75 36.65 0 37.3 0.28 34.43 7.01 34.31 7.38 33.66 7.11"/><path class="cls-1" d="M36.72.19l.39.17L37,.55,34.3,7l-.08.23L33.83,7l.07-.24L36.64.38Z"/><path class="cls-1" d="M38,9.05a2.13,2.13,0,0,1-1.22-.39,2.12,2.12,0,0,1-1-1.17,1.92,1.92,0,0,1,.17-1.71l1.62-2.5L37.8,3l.61.38-.22.3L36.58,6.16A1.22,1.22,0,0,0,36.4,7a1.53,1.53,0,0,0,.71,1.1,1.65,1.65,0,0,0,.89.26h0a1.23,1.23,0,0,0,1.09-.57l1.62-2.5L40.84,5l.64.41-.23.29L39.66,8.15a1.89,1.89,0,0,1-1.08.8A2.17,2.17,0,0,1,38,9.05Z"/><path class="cls-1" d="M37.83,3.19l.37.23-.13.18L36.46,6.09a1.34,1.34,0,0,0-.2.9A1.63,1.63,0,0,0,37,8.19a1.78,1.78,0,0,0,1,.28,1.34,1.34,0,0,0,1.17-.63l1.62-2.5.07-.15.37.24-.13.17-1.6,2.48a1.78,1.78,0,0,1-1,.74,2,2,0,0,1-1.72-.27,2.11,2.11,0,0,1-.92-1.1,1.79,1.79,0,0,1,.16-1.59l1.62-2.5Z"/><path class="cls-1" d="M40.44,11.76a3,3,0,0,1-.23-.27,1.4,1.4,0,0,1-.1-2l.12-.12,2.14-2.2L42,6.85l-.25-.25.48-.5.27.23.36.36.92-1,.53.51L44,6.47l-.62.71,1.06,1-.5.52-.25-.25-.77-.82L40.7,9.89c-.36.44-.26.87.24,1.37l.25.23-.48.52Z"/><path class="cls-1" d="M40.6,9.79l-.06.07q-.54.66.3,1.5l.15.14-.29.31-.16-.15a2.62,2.62,0,0,1-.22-.25,1.28,1.28,0,0,1-.1-1.81l.1-.1,2.25-2.31-.47-.44L42,6.6l.29-.3.16.14.46.45.77-.8.15-.15.3.29-.18.12-.74.84.91.88.15.14-.3.31-.15-.15-.87-.92Z"/><path class="cls-1" d="M40.92,12.37l3.89-3.18.27-.2.43.55-4.15,3.38Zm4.85-3.52-.15-.09-.14-.11.58-.48.22.29.22.27-.59.48Z"/><path class="cls-1" d="M45.05,9.19l.26.33-.16.13-3.6,2.93-.17.14-.26-.33.16-.13,3.62-3Zm.66-.54L46,8.38l.13.17h0l.13.16L46,9,45.9,8.8h0Z"/><path class="cls-1" d="M45,16.49a2.81,2.81,0,0,1-.5,0,2.35,2.35,0,0,1-1.81-2.78l0-.14a2.66,2.66,0,0,1,1.36-1.71,2.71,2.71,0,0,1,1.34-.35,2.56,2.56,0,0,1,.47,0,2.33,2.33,0,0,1,1.86,2.91A2.88,2.88,0,0,1,45,16.49Zm-1.62-3a1.61,1.61,0,0,0,.09,1.42,1.64,1.64,0,0,0,.93.76,1.9,1.9,0,0,0,.63.11,2,2,0,0,0,1-.28,2.23,2.23,0,0,0,.95-.95,1.63,1.63,0,0,0-.76-2.17,1.89,1.89,0,0,0-.21-.09,2,2,0,0,0-.64-.1,1.88,1.88,0,0,0-1,.28,2,2,0,0,0-.92.94l0,.08Z"/><path class="cls-1" d="M45.9,11.65a2.16,2.16,0,0,1,1.55,1.1,2.18,2.18,0,0,1,.2,1.64,2.73,2.73,0,0,1-3.09,1.92,2.21,2.21,0,0,1-1.69-2.61l0-.13A2.49,2.49,0,0,1,44.18,12,2.52,2.52,0,0,1,45.9,11.65Zm-2.57,1.72A1.74,1.74,0,0,0,43.39,15a1.79,1.79,0,0,0,1,.83,2.19,2.19,0,0,0,1.77-.19,2.3,2.3,0,0,0,1-1,1.77,1.77,0,0,0-.82-2.37.92.92,0,0,0-.23-.09,2.08,2.08,0,0,0-1.77.19,2.23,2.23,0,0,0-1,1Z"/><path class="cls-1" d="M45.08,21.24l.33-.1,2.65-.68a1.64,1.64,0,0,0,.86-.52,1.33,1.33,0,0,0,.31-1.26,1.31,1.31,0,0,0-.51-.77,1.57,1.57,0,0,0-.93-.31,1.54,1.54,0,0,0-.43.06l-2.63.66h-.36l-.17-.69h.38l2.6-.64,2.21-.55.19.68-.36.09-.14,0a2.1,2.1,0,0,1,.76,1,2.06,2.06,0,0,1,0,1.58l-.06.13a2.22,2.22,0,0,1-1.52,1.19l-2.63.66-.34.2Z"/><path class="cls-1" d="M45.35,21.74l-.1-.4.2-.06,2.64-.68A1.8,1.8,0,0,0,49,20a1.48,1.48,0,0,0,.34-1.38,1.4,1.4,0,0,0-.57-.85,1.67,1.67,0,0,0-1.48-.27l-.21,0-2.42.61h-.21l-.1-.41h.2L47,17.19l.2-.05,1.88-.47.2-.05.11.41-.21,0-.59.11h.08a1.92,1.92,0,0,1,1,2.52l-.06.13A2.05,2.05,0,0,1,48.2,21l-2.64.67Z"/><path class="cls-1" d="M47.58,31.64a2.65,2.65,0,0,1-.63-.08,2.75,2.75,0,0,1-1.63-1,2.31,2.31,0,0,1-.44-2A2.35,2.35,0,0,1,46,27.1a2.71,2.71,0,0,1,1.47-.43,2.59,2.59,0,0,1,.63.07,2.85,2.85,0,0,1,1.58,1.05,2.36,2.36,0,0,1-.42,3.3l-.15.11A2.67,2.67,0,0,1,47.58,31.64Zm-.23-4.25a2,2,0,0,0-.84.18,1.63,1.63,0,0,0-.89,2.14,1.11,1.11,0,0,0,.09.19,2.17,2.17,0,0,0,2.69.82,1.65,1.65,0,0,0,.89-.89,1.62,1.62,0,0,0,0-1.26l-.1-.19a2,2,0,0,0-1.35-.93A2,2,0,0,0,47.35,27.39Z"/><path class="cls-1" d="M49.51,27.88a2.21,2.21,0,0,1-.39,3.1l-.14.1a2.61,2.61,0,0,1-2,.35,2.65,2.65,0,0,1-1.55-1A2.2,2.2,0,0,1,45,28.58a2.15,2.15,0,0,1,1-1.35,2.52,2.52,0,0,1,2-.35A2.61,2.61,0,0,1,49.51,27.88Zm-3.06-.44a1.78,1.78,0,0,0-1,2.32c0,.08.07.15.11.22A2.16,2.16,0,0,0,47,31a2.34,2.34,0,0,0,1.43-.13,1.78,1.78,0,0,0,1-2.33,2.12,2.12,0,0,0-1.55-1.21A2.17,2.17,0,0,0,46.45,27.44Z"/><path class="cls-1" d="M49.21,36.26l.13-.32a1,1,0,0,0,.09-.34c0-.46-.29-.85-.93-1.24l-.47,1-.13.32-.66-.29.15-.32.46-1L44,32.29l-.31-.15L44,31.5l.32.14,3.92,1.77.2-.45.14-.32.65.29-.15.32-.21.46a3.54,3.54,0,0,1,.79.59,1.61,1.61,0,0,1,.42,2l-.15.33Z"/><path class="cls-1" d="M47.9,35.31l-.08.19-.39-.17.09-.19L48,34l-4-1.82-.19-.09.17-.38.19.08,4,1.83.26-.58.08-.19L49,33l-.09.19-.26.59a3.54,3.54,0,0,1,.87.62,1.47,1.47,0,0,1,.39,1.79l-.09.2-.42-.2.08-.19a1.12,1.12,0,0,0,.1-.39c0-.55-.34-1-1.13-1.45Z"/><path class="cls-1" d="M42.17,41.88l1-1-2.29-2.26a.77.77,0,0,0-.47-.18,1.14,1.14,0,0,0-.82.46l-.26.26-.5-.5.25-.25.26-.23a1.42,1.42,0,0,1,1.05-.46,1.47,1.47,0,0,1,1,.36l2.32,2.3.6-.61.5.49-.6.61.94.93-.5.5-.94-.93-1,1.05Z"/><path class="cls-1" d="M41.08,38.55,41,38.48c-.45-.36-1-.27-1.5.29l-.15.15-.3-.3.15-.15.25-.22a1.28,1.28,0,0,1,1.82-.1l.1.1,2.32,2.29.45-.46.15-.15.3.29-.15.15-.45.46.79.78.15.15-.3.3-.15-.15-.79-.78-.88.9-.15.15-.3-.3.15-.15.88-.89Z"/><path class="cls-1" d="M41.87,44.71l-1-1.57a2,2,0,0,1-2,1.64l-.29,0a2.25,2.25,0,0,1-1.63-1.07l-1.5-2.25-.27-.27.59-.4L36,41l1.53,2.27a1.61,1.61,0,0,0,.78.63,1.35,1.35,0,0,0,.52.11A1.33,1.33,0,0,0,40,43.22a.64.64,0,0,0,.06-.18,1.53,1.53,0,0,0-.21-1.36l-.08-.13-1.61-2.4.6-.39,1.69,2.55,2,3,.18.3-.58.38Z"/><path class="cls-1" d="M40.71,42.85a1.86,1.86,0,0,1-.81,1.47,1.94,1.94,0,0,1-1.33.3,2.16,2.16,0,0,1-1.53-1l-1.5-2.26-.17-.17.34-.23.13.17,1.52,2.26a1.81,1.81,0,0,0,.85.69,1.49,1.49,0,0,0,1.94-.8l.06-.2A1.66,1.66,0,0,0,40,41.6l-.07-.12L38.51,39.4l-.14-.21.36-.23.11.17,1.39,2.09.11.17,2,3,.11.18-.35.23L42,44.63l-1.25-1.88A.36.36,0,0,1,40.71,42.85Z"/><path class="cls-1" d="M33.58,47.31a2.12,2.12,0,0,1-.79-.14l-.21-.08a2.7,2.7,0,0,1-1.43-1.64L31,45.12l.33-.12L35,43.77a2.19,2.19,0,0,0-.65-.74,1.65,1.65,0,0,0-1-.33,1.54,1.54,0,0,0-.52.09A1.86,1.86,0,0,0,31.64,44l0,.14L30.89,44l0-.13a2.54,2.54,0,0,1,1.66-1.7,2.31,2.31,0,0,1,1.74.11,2.62,2.62,0,0,1,1.45,1.65,2.76,2.76,0,0,1,0,1.9A2.34,2.34,0,0,1,33.58,47.31ZM31.9,45.55a1.88,1.88,0,0,0,1.68,1.05h0a1.68,1.68,0,0,0,.5-.07,1.65,1.65,0,0,0,.83-.64,2,2,0,0,0,.29-1.45Z"/><path class="cls-1" d="M31.06,43.86a2.42,2.42,0,0,1,1.57-1.6,2.17,2.17,0,0,1,1.64.1,2.5,2.5,0,0,1,1.37,1.56,2.56,2.56,0,0,1,0,1.81A2.19,2.19,0,0,1,32.84,47l-.2-.08a2.61,2.61,0,0,1-1.36-1.55l-.07-.2.2-.07,3.8-1.28a2.28,2.28,0,0,0-.77-.94,1.73,1.73,0,0,0-1.63-.26A2,2,0,0,0,31.5,44Zm.65,1.61a2,2,0,0,0,2.41,1.2A1.86,1.86,0,0,0,35,46a2.11,2.11,0,0,0,.27-1.71Z"/><path class="cls-1" d="M24.35,48.52V48.2l0-.14a1.83,1.83,0,0,1-.92.24l-.36,0a1.54,1.54,0,0,1-.45-.17,1.88,1.88,0,0,1-.9-1l-.09.09a1.82,1.82,0,0,1-1.23.49,2.45,2.45,0,0,1-.38,0,1.84,1.84,0,0,1-1.08-.7,2.15,2.15,0,0,1-.36-1.77l.6-2.81V42l.68.15v.33l-.59,2.86a1.69,1.69,0,0,0,.05.92,1.14,1.14,0,0,0,.84.75l.21,0a1.07,1.07,0,0,0,.52-.14,1.37,1.37,0,0,0,.74-1v-.18L22.22,43v-.37l.69.15v.32l-.54,2.66-.05.21a1.61,1.61,0,0,0,.06.92,1.12,1.12,0,0,0,1.06.76,1.07,1.07,0,0,0,.35-.06l.17-.07a1.39,1.39,0,0,0,.8-1.09v-.19l.55-2.64.09-.35.65.14v.33l-.56,2.64v.17L25,48.32v.35Z"/><path class="cls-1" d="M21.56,47.07a1.67,1.67,0,0,1-1.48.41,1.76,1.76,0,0,1-1-.64,2,2,0,0,1-.33-1.65l.6-2.82v-.22l.4.09v.21l-.59,2.83a1.71,1.71,0,0,0,.06,1,1.31,1.31,0,0,0,.94.84A1.26,1.26,0,0,0,21,47a1.54,1.54,0,0,0,.81-1.11v-.21l.56-2.61v-.22l.41.09v.2l-.54,2.63-.05.21a1.8,1.8,0,0,0,.07,1,1.25,1.25,0,0,0,1.58.79l.19-.08a1.56,1.56,0,0,0,.88-1.2v-.21l.55-2.61.05-.21.41.09v.21l-.56,2.61v.2l-.45,1.73v.21l-.41-.09V48.2l.1-.47a1.73,1.73,0,0,1-1.46.4,1.56,1.56,0,0,1-.41-.15,1.78,1.78,0,0,1-.91-1.19A2.18,2.18,0,0,1,21.56,47.07Z"/><path class="cls-1" d="M15.51,45.46a2.35,2.35,0,0,1-2.2-1.54,1.18,1.18,0,0,1-.07-.2,2.7,2.7,0,0,1,.31-2.11A2.89,2.89,0,0,1,15,40.38a2.45,2.45,0,0,1,.8-.14A2.37,2.37,0,0,1,18,41.78l.06.2a2.66,2.66,0,0,1-.31,2.11,2.8,2.8,0,0,1-1.48,1.23A2.45,2.45,0,0,1,15.51,45.46Zm.19-4.54a.64.64,0,0,0-.2,0,1.93,1.93,0,0,0-1.33,1,2.1,2.1,0,0,0-.31,1.31,1.64,1.64,0,0,0,1.64,1.48h.17l.2,0a2,2,0,0,0,1.34-1,2.13,2.13,0,0,0,.27-1.28h0a1.65,1.65,0,0,0-1.64-1.51Z"/><path class="cls-1" d="M16.26,45.19a2.21,2.21,0,0,1-2.82-1.31l-.06-.19a2.51,2.51,0,0,1,.29-2,2.7,2.7,0,0,1,1.41-1.17,2.19,2.19,0,0,1,2.82,1.31L18,42a2.51,2.51,0,0,1-.29,2A2.63,2.63,0,0,1,16.26,45.19Zm1.36-2.78a1.78,1.78,0,0,0-1.93-1.63.78.78,0,0,0-.22,0,2.13,2.13,0,0,0-1.43,1,2.22,2.22,0,0,0-.32,1.4,1.78,1.78,0,0,0,2,1.59l.21,0a2.14,2.14,0,0,0,1.43-1,2.22,2.22,0,0,0,.29-1.4Z"/><path class="cls-1" d="M11.13,42a2.34,2.34,0,0,1-1.67-.71,2.38,2.38,0,0,1-.7-1.61,2.66,2.66,0,0,1,.86-2,2.68,2.68,0,0,1,1.73-.81l.23,0a2.3,2.3,0,0,1,1.66.71,2.24,2.24,0,0,1,.7,1.64,2.67,2.67,0,0,1-.84,2,2.76,2.76,0,0,1-1.75.8Zm.48-4.44a2,2,0,0,0-1.45.62,2.12,2.12,0,0,0-.62,1.19,1.65,1.65,0,0,0,1.56,1.92h.13a2,2,0,0,0,1.41-.61,2.08,2.08,0,0,0,.55-1h0v-.17a1.57,1.57,0,0,0-1.48-1.92Z"/><path class="cls-1" d="M11.34,41.85A2.27,2.27,0,0,1,8.9,39.68a2.53,2.53,0,0,1,.81-1.9A2.61,2.61,0,0,1,11.36,37a2.16,2.16,0,0,1,1.78.65,2.13,2.13,0,0,1,.66,1.54,2.58,2.58,0,0,1-.8,1.9A2.64,2.64,0,0,1,11.34,41.85Zm2-2.34A1.76,1.76,0,0,0,12.9,38a1.66,1.66,0,0,0-1.18-.53,2.12,2.12,0,0,0-1.66.66,2.27,2.27,0,0,0-.66,1.27,1.8,1.8,0,0,0,.5,1.56,1.78,1.78,0,0,0,1.19.52,2.08,2.08,0,0,0,1.65-.65,2.21,2.21,0,0,0,.62-1.27Z"/><path class="cls-1" d="M6.39,37.58l.3-.17.23-.14a2,2,0,0,1-1.25-1,2.24,2.24,0,0,1-.22-1.44A2.33,2.33,0,0,1,6.6,33.25L9,32l.31-.19.34.6-.28.19L7,33.91a1.7,1.7,0,0,0-.69.74,1.37,1.37,0,0,0,.58,1.85l.1,0a1.5,1.5,0,0,0,.56.1,1.67,1.67,0,0,0,.81-.22l2.4-1.37.32-.16.35.6L8.91,36.93l-.19.1L7,38l-.3.17Z"/><path class="cls-1" d="M9.22,32l.2.36-.17.11L6.9,33.79a1.87,1.87,0,0,0-.75.8,1.52,1.52,0,0,0,.64,2l.11,0a1.72,1.72,0,0,0,1.5-.13l.19-.11,2.21-1.25.19-.1.21.36-.19.11L8.84,36.81l-.19.1L7,37.91l-.18.1-.21-.37.18-.1.54-.35H7.2a1.89,1.89,0,0,1-1.4-1,2,2,0,0,1-.21-1.35,2.13,2.13,0,0,1,1.08-1.46L9,32.09Z"/></g></g></svg>