<svg xmlns="http://www.w3.org/2000/svg" viewBox="0 0 980.01 76.2"><defs><style>.cls-1{fill:#fff;}</style></defs><g id="레이어_2" data-name="레이어 2"><g id="레이어_1-2" data-name="레이어 1"><path class="cls-1" d="M13.14.4h1.18V16.17l-1.18,0ZM1,15.09v-14h9.37v1.1H2.22V14H7.46a10,10,0,0,0,3.89-.75l.29-.14v1.18l-.12.05a10.28,10.28,0,0,1-4.06.76Z"/><path class="cls-1" d="M10.21,2H2V14.19H7.46a10.17,10.17,0,0,0,4-.77v.73a10.16,10.16,0,0,1-4,.74H1.25V1.32h9Zm3.91,14-.78,0V.6h.78Z"/><path class="cls-1" d="M30.05,16.17V.4H31.2V7.13h2.43v1.1H31.2v7.94ZM17.53,14l.16,0c2.77-.66,4.54-5.16,4.63-11.76H17.84V1.12H27.89v1.1H23.48A30.84,30.84,0,0,1,23,7.73l5.46,6.57L27.5,15,22.65,9.08c-.94,3.45-2.62,5.53-4.87,6l-.25.05Z"/><path class="cls-1" d="M22.74,7.78l5.38,6.48-.59.45-5-6.07c-.88,3.55-2.54,5.77-4.83,6.25v-.72c3.12-.74,4.74-5.79,4.79-12.15H18v-.7h9.65V2H23.28A30.58,30.58,0,0,1,22.74,7.78ZM33.43,8H31V16h-.75V.6H31V7.33h2.43Z"/><path class="cls-1" d="M36.25,15.81V10.68h1.16v4H49.53v1.1Zm11.54-3.56V.4H49V12.25ZM39.84,9.78c-2.94,0-4.92-1.83-4.92-4.56S36.9.67,39.84.67s4.92,1.83,4.92,4.55S42.78,9.78,39.84,9.78Zm0-8c-2.28,0-3.74,1.37-3.74,3.49s1.46,3.49,3.74,3.49,3.74-1.37,3.74-3.49S42.11,1.73,39.84,1.73Z"/><path class="cls-1" d="M44.56,5.22c0,2.42-1.72,4.36-4.72,4.36s-4.72-1.94-4.72-4.36S36.83.87,39.84.87,44.56,2.81,44.56,5.22Zm-8.66,0a3.61,3.61,0,0,0,3.94,3.7,3.61,3.61,0,0,0,3.94-3.7,3.61,3.61,0,0,0-3.94-3.69A3.6,3.6,0,0,0,35.9,5.22Zm1.31,9.69H49.33v.7H36.45V10.88h.76Zm11.54-2.86H48V.6h.75Z"/><polygon class="cls-1" points="51.95 17.87 52.52 13.97 53.76 13.97 53.02 17.87 51.95 17.87"/><path class="cls-1" d="M52.85,17.67h-.67l.51-3.5h.83Z"/><path class="cls-1" d="M60.5,15.27v-1.1H76.09v1.1Zm13.27-3.11V2.2H61.56V1.1H74.92V12.16Z"/><path class="cls-1" d="M75.89,15.07H60.7v-.7H75.89ZM74.72,12H74V2H61.76V1.3h13Z"/><path class="cls-1" d="M79.29,15.81V10.52H92.17v5.29ZM91,14.71V11.62H80.45v3.09Zm0-4.87V.4h1.16V9.84ZM78.7,9.06V4.45h8.12V2H78.66V.94H88V5.53H79.85V8h3.93a15.7,15.7,0,0,0,5.8-.81L89.86,7V8.18l-.11.05a16.35,16.35,0,0,1-6.08.83Z"/><path class="cls-1" d="M87.77,5.33H79.65V8.18h4.13a15.67,15.67,0,0,0,5.88-.83v.7a16.27,16.27,0,0,1-6,.81H78.9V4.65H87V1.82H78.86V1.14h8.91ZM92,15.61H79.49V10.72H92Zm-.76-.7V11.42h-11v3.49ZM92,9.64h-.76V.6H92Z"/><path class="cls-1" d="M100.17,15.27v-1.1h15.6v1.1Zm13.27-3.11V2.2H101.23V1.1H114.6V12.16Z"/><path class="cls-1" d="M115.57,15.07h-15.2v-.7h15.2ZM114.4,12h-.76V2H101.43V1.3h13Z"/><path class="cls-1" d="M130.68,16.17V.4h1.16V16.17Zm-12.15-1.08V7.38h7.71V2.22h-7.75V1.12h8.9V8.49h-7.68V14H125a10,10,0,0,0,3.89-.72l.29-.14v1.15l-.11.05a9.91,9.91,0,0,1-4.07.76Z"/><path class="cls-1" d="M127.19,8.29H119.5v5.9H125a10.2,10.2,0,0,0,4-.74v.7a9.82,9.82,0,0,1-4,.74h-6.25V7.58h7.71V2h-7.75v-.7h8.5ZM131.64,16h-.76V.6h.76Z"/><path class="cls-1" d="M148,16.17V.4h1.16V16.17ZM135.65,15V13.9h.2c4.49,0,7.29-3.52,7.29-9.18V2.22h-7.49V1.12h8.64V4.65C144.29,11,141,15,135.85,15Z"/><path class="cls-1" d="M144.09,4.65c0,6.1-3.11,10.17-8.24,10.17V14.1c4.57,0,7.49-3.64,7.49-9.38V2h-7.49v-.7h8.24ZM149,16h-.76V.6H149Z"/><polygon class="cls-1" points="152.16 17.87 152.72 13.97 153.96 13.97 153.22 17.87 152.16 17.87"/><path class="cls-1" d="M153.06,17.67h-.67l.5-3.5h.83Z"/><path class="cls-1" d="M173.47,16.17V.4h1.15V7.13h2.44v1.1h-2.44v7.94ZM161.6,15.09v-14h9.23v1.1h-8.07V14h5.09a10,10,0,0,0,3.9-.75l.28-.14v1.18l-.11.05a10.36,10.36,0,0,1-4.07.76Z"/><path class="cls-1" d="M167.85,14.19a10.14,10.14,0,0,0,4-.77v.73a10.09,10.09,0,0,1-4,.74h-6V1.32h8.83V2h-8.07V14.19Zm9-6.16h-2.44V16h-.75V.6h.75V7.33h2.44Z"/><path class="cls-1" d="M191.22,16.17V.4h1.17V16.17Zm-7.67-.86c-2.94,0-4.7-2.69-4.7-7.21s1.76-7.2,4.7-7.2,4.7,2.69,4.7,7.2S186.49,15.31,183.55,15.31Zm0-13.31C181.34,2,180,4.28,180,8.1s1.32,6.11,3.53,6.11,3.53-2.29,3.53-6.11S185.76,2,183.55,2Z"/><path class="cls-1" d="M188.05,8.1c0,4.74-1.91,7-4.5,7s-4.5-2.27-4.5-7,1.91-7,4.5-7S188.05,3.37,188.05,8.1Zm-8.23,0c0,4.27,1.6,6.31,3.73,6.31s3.73-2,3.73-6.31-1.62-6.3-3.73-6.3S179.82,3.84,179.82,8.1ZM192.19,16h-.77V.6h.77Z"/><path class="cls-1" d="M208.68,16.17V8.36h-3.33c-.07,4.35-1.79,7-4.63,7s-4.63-2.69-4.63-7.21S197.82.9,200.72.9c2.69,0,4.4,2.37,4.6,6.36h3.36V.4h1.15V16.17ZM200.72,2c-2.16,0-3.45,2.28-3.45,6.1s1.29,6.11,3.45,6.11,3.45-2.29,3.45-6.11S202.88,2,200.72,2Z"/><path class="cls-1" d="M209.63.6V16h-.75V8.16h-3.73c0,4.7-1.89,7-4.43,7s-4.43-2.27-4.43-7,1.87-7,4.43-7,4.25,2.05,4.41,6.36h3.75V.6Zm-5.25,7.5c0-4.26-1.57-6.3-3.66-6.3s-3.65,2-3.65,6.3,1.56,6.31,3.65,6.31S204.38,12.37,204.38,8.1Z"/><path class="cls-1" d="M225.85,16.17V.4H227V16.17Zm-12.16-1.08V7.38h7.71V2.22h-7.74V1.12h8.9V8.49h-7.69V14h5.27a10.09,10.09,0,0,0,3.9-.72l.28-.14v1.15l-.11.05a9.84,9.84,0,0,1-4.07.76Z"/><path class="cls-1" d="M222.36,8.29h-7.69v5.9h5.47a10.16,10.16,0,0,0,4-.74v.7a9.75,9.75,0,0,1-4,.74h-6.25V7.58h7.71V2h-7.74v-.7h8.5ZM226.8,16h-.75V.6h.75Z"/><path class="cls-1" d="M235,15.27v-1.1H250.6v1.1Zm.21-6,.14-.05c3-1.09,3.63-4.68,3.81-8.4V.56l1.15.19V.93a24.41,24.41,0,0,1-.52,4L242.64,9c2.68-1.27,3.21-4.7,3.39-8.24V.56l1.15.19V.93a24.06,24.06,0,0,1-.54,4.17l3.71,4.5-.92.69-3.17-3.92a5.85,5.85,0,0,1-3.92,3.92l-.14.05-2.79-4a5.86,5.86,0,0,1-3.93,4l-.26.08Z"/><path class="cls-1" d="M250.4,14.37v.7H235.21v-.7Zm-15-4.27V9.38c3-1.06,3.75-4.37,4-8.59l.75.13A23.34,23.34,0,0,1,239.58,5l3,4.27C245.31,8.1,246,4.86,246.23.79l.75.13a23.08,23.08,0,0,1-.56,4.23l3.64,4.41-.59.45-3.28-4a5.78,5.78,0,0,1-3.91,4.14l-2.93-4.21A5.82,5.82,0,0,1,235.42,10.1Z"/><path class="cls-1" d="M265.52,16.17V.4h1.16V16.17ZM253.17,15V13.9h.2c4.5,0,7.29-3.52,7.29-9.18V2.22h-7.49V1.12h8.64V4.65c0,6.3-3.31,10.37-8.44,10.37Z"/><path class="cls-1" d="M261.61,4.65c0,6.1-3.11,10.17-8.24,10.17V14.1c4.57,0,7.49-3.64,7.49-9.38V2h-7.49v-.7h8.24ZM266.48,16h-.76V.6h.76Z"/><polygon class="cls-1" points="269.68 17.87 270.24 13.97 271.49 13.97 270.74 17.87 269.68 17.87"/><path class="cls-1" d="M270.58,17.67h-.67l.51-3.5h.82Z"/><path class="cls-1" d="M291.42,16.17V.4h1.16V16.17Zm-12.13-1.08v-14h8.79v14Zm7.63-1.1V2.22h-6.48V14Z"/><path class="cls-1" d="M287.88,14.89h-8.39V1.32h8.39Zm-.76-.7V2h-6.88V14.19ZM292.38,16h-.76V.6h.76Z"/><path class="cls-1" d="M303.59,16c-4.19,0-6.59-1.16-6.59-3.19s2.4-3.19,6.59-3.19,6.59,1.16,6.59,3.19S307.78,16,303.59,16Zm0-5.28c-3.29,0-5.42.82-5.42,2.09s2.13,2.09,5.42,2.09,5.42-.82,5.42-2.09S306.88,10.75,303.59,10.75Zm5.15-1.42V.4h1.15V9.33ZM295.81,7.57l.16,0A6.52,6.52,0,0,0,301,.81V.6l1.16.06V.85a8.63,8.63,0,0,1-.59,3.2L307,7.62l-.65.92-5.22-3.46a7.4,7.4,0,0,1-5.07,3.56l-.24,0Z"/><path class="cls-1" d="M296,8.45V7.73A6.76,6.76,0,0,0,301.23.81l.76,0a8.52,8.52,0,0,1-.63,3.28l5.34,3.54-.41.6-5.24-3.48A7.18,7.18,0,0,1,296,8.45Zm14,4.39c0,2.11-2.82,3-6.39,3s-6.39-.88-6.39-3,2.82-3,6.39-3S310,10.73,310,12.84Zm-.77,0c0-1.55-2.49-2.29-5.62-2.29s-5.62.74-5.62,2.29,2.49,2.29,5.62,2.29S309.21,14.39,309.21,12.84Zm.48-3.71h-.75V.6h.75Z"/><polygon class="cls-1" points="312.9 17.87 313.46 13.97 314.7 13.97 313.96 17.87 312.9 17.87"/><path class="cls-1" d="M313.79,17.67h-.66l.5-3.5h.83Z"/><path class="cls-1" d="M322.94,15.81V12h11.7V10.34H322.9V9.25h12.9v3.81H324.09v1.67h12.25v1.08Zm11.7-7.23V.4h1.16V8.58Zm-13-.83V6.66h2.43V2h-2.43V.94h11.13V2h-2.43V6.53a9.2,9.2,0,0,0,3-.73l.29-.14v1.2l-.11.06a15.35,15.35,0,0,1-5.9.83Zm5.87-1.09c.61,0,1.16,0,1.67,0V2h-3.95V6.66Z"/><path class="cls-1" d="M327.57,7.55h-5.73V6.86h2.43v-5h-2.43V1.14h10.73v.68h-2.43V6.75A9.28,9.28,0,0,0,333.38,6v.76A15.09,15.09,0,0,1,327.57,7.55Zm8.57,7.38v.68h-13V12.19h11.7v-2H323.1V9.46h12.5v3.4H323.89v2.07Zm-8.63-8.07c.69,0,1.3,0,1.87-.05v-5H325v5Zm8.09,1.52h-.76V.6h.76Z"/><path class="cls-1" d="M351.52,16.17V.4h1.16V7.13h2.43v1.1h-2.43v7.94ZM344.39,9c-1,3.68-2.8,5.79-5.15,6.12l-.23,0V14l.16,0c3.64-.68,5-7.13,5-12.94V.84l1.15,0v.2a33.69,33.69,0,0,1-.6,6.52L350,14.44l-.91.7Z"/><path class="cls-1" d="M344.52,7.64l5.17,6.77-.6.45-4.78-6.34c-.94,3.67-2.65,6-5.1,6.37v-.7c3.56-.67,5.13-6.66,5.17-13.14h.75A33.19,33.19,0,0,1,344.52,7.64ZM354.91,8h-2.43V16h-.76V.6h.76V7.33h2.43Z"/><path class="cls-1" d="M368.84,16.17V.4H370V7.13h2.44v1.1H370v7.94Zm-7.22-.9c-2.5,0-4.32-2-4.32-4.82s1.82-4.83,4.32-4.83,4.32,2,4.32,4.83S364.12,15.27,361.62,15.27Zm0-8.55c-1.56,0-3.15,1.28-3.15,3.73s1.59,3.72,3.15,3.72,3.15-1.28,3.15-3.72S363.19,6.72,361.62,6.72Zm-5.17-2.39V3.22H361V.36h1.16V3.22h4.61V4.33Z"/><path class="cls-1" d="M362,3.42h4.61v.71h-10V3.42h4.59V.56H362Zm3.74,7c0,2.84-1.85,4.62-4.12,4.62s-4.12-1.78-4.12-4.62,1.85-4.63,4.12-4.63S365.74,7.6,365.74,10.45Zm-.77,0c0-2.42-1.55-3.93-3.35-3.93s-3.35,1.51-3.35,3.93,1.55,3.92,3.35,3.92S365,12.86,365,10.45ZM372.23,8h-2.44V16H369V.6h.75V7.33h2.44Z"/><path class="cls-1" d="M386.59,16.17V.4h1.15V16.17ZM374.23,15V13.9h.2c4.5,0,7.29-3.52,7.29-9.18V2.22h-7.49V1.12h8.65V4.65c0,6.3-3.31,10.37-8.45,10.37Z"/><path class="cls-1" d="M382.68,4.65c0,6.1-3.11,10.17-8.25,10.17V14.1c4.58,0,7.49-3.64,7.49-9.38V2h-7.49v-.7h8.25ZM387.54,16h-.75V.6h.75Z"/><path class="cls-1" d="M403.51,16.17V.4h1.15V7h2.4v1.1h-2.4v8.08Zm-12.8-1.08V14h4.64V10.7a4.67,4.67,0,0,1-4.18-4.88,4.76,4.76,0,1,1,9.51,0,4.66,4.66,0,0,1-4.17,4.88V14a15.58,15.58,0,0,0,5.49-.68l.29-.13v1.17l-.13.05a18.06,18.06,0,0,1-5.91.69ZM395.93,2a3.54,3.54,0,0,0-3.58,3.82,3.59,3.59,0,1,0,7.16,0A3.54,3.54,0,0,0,395.93,2Z"/><path class="cls-1" d="M396.31,14.19a16.31,16.31,0,0,0,5.77-.7v.72a17.89,17.89,0,0,1-5.83.68h-5.34v-.7h4.64V10.52a4.47,4.47,0,0,1-4.18-4.7,4.56,4.56,0,1,1,9.11,0,4.47,4.47,0,0,1-4.17,4.7Zm-.38-4.36a3.75,3.75,0,0,0,3.78-4,3.79,3.79,0,1,0-7.56,0A3.74,3.74,0,0,0,395.93,9.83Zm10.93-1.94h-2.4V16h-.75V.6h.75V7.19h2.4Z"/><path class="cls-1" d="M414.3,15.81V9.08H427v1.1H415.46v1.69h11.31V13H415.46v1.76h11.68v1.1Zm11.53-7.42V.4H427V3.69h2.43v1.1H427v3.6Zm-12.25-.48V6.81h.2c5.22,0,7.65-1.42,7.65-4.45V2h-7.85V.94h9V2.36c0,3.73-2.88,5.55-8.81,5.55Z"/><path class="cls-1" d="M413.78,7.71V7c4.88,0,7.85-1.25,7.85-4.65V1.84h-7.85v-.7h8.61V2.36C422.39,6.21,419.15,7.71,413.78,7.71Zm1.48,7.2h11.68v.7H414.5V9.28h12.28V10H415.26v2.09h11.31v.68H415.26Zm13.95-11v.7h-2.43v3.6H426V.6h.75V3.89Z"/><path class="cls-1" d="M431.6,15.83V11.22h1.16v3.51h12.37v1.1Zm-1.22-6V8.77H446v1.1Zm7.79-2.59c-3.14,0-6.82-.9-6.82-3.42S435,.43,438.17.43s6.83.9,6.83,3.43S441.32,7.28,438.17,7.28Zm0-5.74c-2.8,0-5.65.79-5.65,2.32s2.85,2.32,5.65,2.32,5.66-.8,5.66-2.32S441,1.54,438.17,1.54Z"/><path class="cls-1" d="M445.77,9.67H430.58V9h15.19Zm-1-5.81c0,2.17-3.17,3.22-6.63,3.22s-6.62-1-6.62-3.22S434.72.63,438.17.63,444.8,1.68,444.8,3.86ZM432.56,14.93h12.37v.7H431.8V11.42h.76Zm-.24-11.07c0,1.65,2.87,2.52,5.85,2.52S444,5.51,444,3.86s-2.87-2.53-5.86-2.53S432.32,2.2,432.32,3.86Z"/><path class="cls-1" d="M461,16c-2.54,0-6.79-.4-6.79-3.05s4.25-3,6.79-3,6.79.39,6.79,3S463.55,16,461,16Zm0-5c-2.59,0-5.62.51-5.62,1.94s3,1.95,5.62,1.95,5.61-.51,5.61-1.95S463.61,11,461,11Zm5.34-1.22v-5h-3.24v4.5H462V.5h1.15V3.71h3.24V.4h1.16V9.82ZM452.77,8.1l.14,0c3.21-1.05,3.62-4.42,3.62-7.25V.61l1.16,0V.83a15.92,15.92,0,0,1-.31,3.39l4,3.75-.8.83L457,5.46a5.7,5.7,0,0,1-4,3.7l-.25.07Z"/><path class="cls-1" d="M453,9V8.25c3.15-1,3.76-4.12,3.76-7.44l.76,0a15.7,15.7,0,0,1-.33,3.46L461.05,8l-.52.54L457,5.1A5.6,5.6,0,0,1,453,9Zm14.64,4c0,2.13-3.17,2.85-6.59,2.85s-6.59-.72-6.59-2.85,3.16-2.84,6.59-2.84S467.61,10.86,467.61,13Zm-.78,0c0-1.58-3-2.14-5.81-2.14s-5.82.56-5.82,2.14,3,2.15,5.82,2.15S466.83,14.57,466.83,13Zm-3.91-3.87h-.75V.7h.75V3.91h3.64V.6h.76v9h-.76v-5h-3.64Z"/><path class="cls-1" d="M471.27,15.81V10.93h1.16v3.78h12.11v1.1Zm11.54-3.56V.4H484v4h2.43v1.1H484v6.77Zm-12.69-3.6.16,0c3.43-.75,5-4.45,5-7.8V.6l1.16.06V.85a11.34,11.34,0,0,1-.65,3.89l5.31,4-.74.91-5-3.85a7.12,7.12,0,0,1-4.93,3.87l-.24,0Z"/><path class="cls-1" d="M470.32,9.53V8.81c3.31-.72,5.13-4.27,5.13-8l.76,0a11.24,11.24,0,0,1-.69,4l5.26,4-.49.59-5.07-3.87A7,7,0,0,1,470.32,9.53Zm1.91,5.38h12.11v.7H471.47V11.13h.76Zm14-10.33v.7h-2.43v6.77H483V.6h.76v4Z"/><path class="cls-1" d="M500.69,16V12h-12v-1.1h13.11V16Zm0-5.83V5.33H497V4.25h3.71V.4h1.15v9.8Zm-13-1.74.16,0c2.91-.52,4.59-2.78,4.74-6.35h-4.73V1h10.24V2.08h-4.35a11.29,11.29,0,0,1-.43,2.67l5.2,3.83-.67.92-4.95-3.66a6.47,6.47,0,0,1-5,3.7l-.23,0Z"/><path class="cls-1" d="M487.91,9.35V8.63c3-.54,4.8-2.9,4.91-6.75h-4.74V1.17h9.84v.71h-4.34a11.46,11.46,0,0,1-.47,3l5.15,3.8-.43.59-5-3.69A6.32,6.32,0,0,1,487.91,9.35Zm1,1.73h12.71v4.75h-.75V11.78h-12ZM501.64.6V10h-.75V5.13h-3.71V4.45h3.71V.6Z"/><path class="cls-1" d="M506.34,15.81V10.68h1.15v4h12.12v1.1Zm11.54-3.56V.4H519V12.25Zm-8-2.47C507,9.78,505,8,505,5.22s2-4.55,4.92-4.55,4.92,1.83,4.92,4.55S512.86,9.78,509.92,9.78Zm0-8c-2.27,0-3.74,1.37-3.74,3.49s1.47,3.49,3.74,3.49,3.74-1.37,3.74-3.49S512.2,1.73,509.92,1.73Z"/><path class="cls-1" d="M514.64,5.22c0,2.42-1.71,4.36-4.72,4.36s-4.72-1.94-4.72-4.36S506.91.87,509.92.87,514.64,2.81,514.64,5.22Zm-8.66,0a3.95,3.95,0,0,0,7.88,0,3.95,3.95,0,0,0-7.88,0Zm1.31,9.69h12.12v.7H506.54V10.88h.75Zm11.54-2.86h-.75V.6h.75Z"/><path class="cls-1" d="M528.37,15.81V12.59h11.49V11.51H528.33V10.44H541v3.19H529.51v1.12h12v1.06Zm11.47-6.05V.4H541V4.18h2.4v1.1H541V9.76ZM527,9.49V8.43h4.82V7.49c-2.45-.11-3.91-.91-3.91-2.16s1.69-2.16,4.51-2.16S537,4,537,5.33,535.49,7.38,533,7.49v.93a16,16,0,0,0,5.32-.63l.28-.12V8.79l-.12.06c-1.29.56-4.36.64-6.08.64Zm5.42-5.27c-2.31,0-3.37.57-3.37,1.11s1.06,1.12,3.37,1.12,3.36-.58,3.36-1.12S534.77,4.22,532.46,4.22Zm-5.28-1.53V1.62h4.68V0H533V1.62h4.84V2.69Z"/><path class="cls-1" d="M532.42,9.29h-5.18V8.63h4.82V7.29c-2.54-.07-3.91-.86-3.91-2s1.52-2,4.31-2,4.3.81,4.3,2-1.39,1.89-3.94,2V8.63a17.49,17.49,0,0,0,5.6-.65v.68A19.2,19.2,0,0,1,532.42,9.29Zm5.24-6.8H527.38V1.82h4.68V.2h.76V1.82h4.84ZM529.31,15h12v.66H528.57V12.79h11.49V11.31H528.53v-.67h12.26v2.79H529.31Zm3.15-8.3c2.37,0,3.56-.6,3.56-1.32S534.83,4,532.46,4s-3.57.59-3.57,1.31S530.08,6.65,532.46,6.65Zm10.73-2.27v.7h-2.4V9.56H540V.6h.75V4.38Z"/><path class="cls-1" d="M552.15,16.08c-2.52,0-6.74-.37-6.74-2.83s4.22-2.82,6.74-2.82,6.73.36,6.73,2.82S554.67,16.08,552.15,16.08Zm0-4.55c-2.7,0-5.58.45-5.58,1.72S549.45,15,552.15,15s5.58-.45,5.58-1.73S554.85,11.53,552.15,11.53ZM544.35,9V7.89h7.22V6.09h-6V.74h13.13v1.1h-12V5h12.15v1.1h-6.19v1.8H560V9Z"/><path class="cls-1" d="M559.75,8.09v.7h-15.2v-.7h7.22V5.89h-6V.94h12.73v.7h-12V5.19h12.15v.7h-6.19v2.2Zm-1.07,5.16c0,2-3.25,2.63-6.53,2.63s-6.54-.61-6.54-2.63,3.26-2.62,6.54-2.62S558.68,11.24,558.68,13.25Zm-.75,0c0-1.47-3.08-1.92-5.78-1.92s-5.78.45-5.78,1.92,3.08,1.93,5.78,1.93S557.93,14.73,557.93,13.25Z"/><path class="cls-1" d="M574.47,16.17V.4h1.15V7H578v1.1h-2.4v8.08Zm-12.8-1.08V14H565V6.68h1.16V14h1A16.23,16.23,0,0,0,573,13.3l.28-.12v1.17l-.13.05a18.06,18.06,0,0,1-5.91.69Zm8.44-3.65V2.22h-7.8V1.12h9V11.44Z"/><path class="cls-1" d="M567.16,14.19a17,17,0,0,0,5.89-.7v.72a18,18,0,0,1-5.84.68h-5.34v-.7h3.29V6.88h.76v7.31ZM570.31,2h-7.8v-.7h8.56v9.92h-.76Zm7.51,5.87h-2.4V16h-.75V.6h.75V7.19h2.4Z"/><path class="cls-1" d="M597.65,16V12.27H585.36V11.16h13.45V16Zm0-5.55v-5h-3.13v4.81h-1.15V.5h1.15V4.41h3.13V.4h1.16V10.48Zm-13.37-1.7.15,0c2.13-.52,3.24-2.29,3.38-5.42h-3.37V2.21h3.38V.14H589V2.21h3.28V3.32H589a12.64,12.64,0,0,1-.25,1.95l3.83,3.79-.8.82-3.4-3.36a5.15,5.15,0,0,1-3.85,3.33l-.24.05Z"/><path class="cls-1" d="M584.48,9.65V8.93c2.23-.54,3.43-2.37,3.54-5.81h-3.38v-.7H588V.34h.76V2.42h3.28v.7H588.8a14.06,14.06,0,0,1-.27,2.21l3.76,3.73-.52.54-3.48-3.44A5,5,0,0,1,584.48,9.65Zm1.08,1.71h13.05v4.47h-.76V12.07H585.56ZM598.61.6v9.68h-.76v-5h-3.53v4.81h-.75V.7h.75V4.61h3.53V.6Z"/><path class="cls-1" d="M602.53,15.83V12.24h12.08V10.86H602.49V9.78h13.28v3.53H603.68v1.44h12.43v1.08Zm-1.19-7.49V7.26h15.6V8.34Zm7.8-2.07c-4.31,0-6.77-1-6.77-2.88S604.83.5,609.14.5s6.77,1.05,6.77,2.89S613.44,6.27,609.14,6.27Zm0-4.68c-3.46,0-5.6.69-5.6,1.8s2.14,1.8,5.6,1.8,5.59-.69,5.59-1.8S612.59,1.59,609.14,1.59Z"/><path class="cls-1" d="M616.74,8.14h-15.2V7.46h15.2Zm-1-4.75c0,2-3.12,2.68-6.57,2.68s-6.57-.72-6.57-2.68S605.68.7,609.14.7,615.71,1.42,615.71,3.39Zm-.14,9.72H603.48V15h12.43v.68H602.73V12.44h12.08V10.66H602.69V10h12.88ZM603.34,3.39c0,1.46,2.81,2,5.8,2s5.79-.54,5.79-2-2.8-2-5.79-2S603.34,1.93,603.34,3.39Z"/><path class="cls-1" d="M636.89,15.81V10.34H632.3V9.25h5.75v6.56Zm-11.68,0V12h5.27V10.34h-5.31V9.25h6.47v3.81h-5.28v1.67h6v1.08Zm11.68-7.23V.4h1.16V8.58ZM629,8.2c-2.88,0-4.81-1.52-4.81-3.77S626.09.67,629,.67s4.81,1.51,4.81,3.76S631.85,8.2,629,8.2Zm0-6.45c-2.25,0-3.65,1-3.65,2.68s1.4,2.68,3.65,2.68,3.65-1,3.65-2.68S631.23,1.75,629,1.75Z"/><path class="cls-1" d="M633.58,4.43c0,2-1.73,3.57-4.61,3.57s-4.61-1.53-4.61-3.57S626.09.87,629,.87,633.58,2.4,633.58,4.43Zm-8.46,0c0,1.89,1.62,2.88,3.85,2.88s3.86-1,3.86-2.88S631.2,1.55,629,1.55,625.12,2.54,625.12,4.43Zm6.32,8.43h-5.28v2.07h6.05v.68h-6.8V12.19h5.27v-2h-5.31V9.46h6.07Zm6.41,2.75h-.76V10.14H632.5V9.46h5.35Zm0-7.23h-.76V.6h.76Z"/><path class="cls-1" d="M641,15.27v-1.1h15.6v1.1Zm7.8-4.55c-4.2,0-6.92-1.93-6.92-4.92S644.61.88,648.81.88s6.91,1.93,6.91,4.92S653,10.72,648.81,10.72Zm0-8.73c-3.49,0-5.74,1.49-5.74,3.81s2.25,3.82,5.74,3.82,5.74-1.5,5.74-3.82S652.3,2,648.81,2Z"/><path class="cls-1" d="M656.41,15.07h-15.2v-.7h15.2Zm-.89-9.27c0,2.88-2.62,4.72-6.71,4.72s-6.72-1.84-6.72-4.72,2.63-4.72,6.72-4.72S655.52,2.92,655.52,5.8Zm-12.65,0c0,2.41,2.34,4,5.94,4s5.94-1.61,5.94-4-2.34-4-5.94-4S642.87,3.39,642.87,5.8Z"/><path class="cls-1" d="M671.67,16.17V11h-3.35V9.88h3.35V5.77h-3.35V4.66h3.35V.4h1.15V16.17ZM659.3,15.09v-14h8.46v14Zm7.31-1.1V2.22h-6.15V14Z"/><path class="cls-1" d="M659.5,1.32h8.06V14.89H659.5Zm.75,12.87h6.56V2h-6.56ZM672.62.6V16h-.75V10.79h-3.35v-.71h3.35V5.57h-3.35V4.86h3.35V.6Z"/><path class="cls-1" d="M688.39,16c-4.13,0-6.5-1.16-6.5-3.19s2.37-3.19,6.5-3.19,6.5,1.16,6.5,3.19S692.52,16,688.39,16Zm0-5.28c-3.29,0-5.33.8-5.33,2.09s2,2.09,5.33,2.09,5.33-.8,5.33-2.09S691.68,10.75,688.39,10.75Zm5.06-1.42V.4h1.15V3.8H697V4.9H694.6V9.33Zm-12.7-1.58.16,0c3-.66,5-3.36,5-6.9V.6L687,.66V.85a9.28,9.28,0,0,1-.57,3.31l5.3,3.48-.64.92L686,5.19a7.14,7.14,0,0,1-5,3.63l-.24,0Z"/><path class="cls-1" d="M681,8.63V7.91c3.32-.72,5.13-3.71,5.13-7.1l.76,0a9,9,0,0,1-.61,3.38l5.26,3.46-.42.6L685.94,4.9A6.94,6.94,0,0,1,681,8.63Zm13.74,4.21c0,2.11-2.77,3-6.3,3s-6.3-.88-6.3-3,2.77-3,6.3-3S694.69,10.73,694.69,12.84Zm-.77,0c0-1.55-2.43-2.29-5.53-2.29s-5.53.74-5.53,2.29,2.43,2.29,5.53,2.29S693.92,14.39,693.92,12.84ZM696.83,4v.7H694.4V9.13h-.75V.6h.75V4Z"/><path class="cls-1" d="M705.71,16c-4.14,0-6.51-1.16-6.51-3.19s2.37-3.19,6.51-3.19,6.5,1.16,6.5,3.19S709.84,16,705.71,16Zm0-5.28c-3.29,0-5.33.8-5.33,2.09s2,2.09,5.33,2.09,5.32-.8,5.32-2.09S709,10.75,705.71,10.75Zm5-1.42V.4h1.16V3.8h2.43V4.9h-2.43V9.33ZM698.07,7.75l.16,0c3-.66,5-3.36,5-6.9V.6l1.16.06V.85a9.28,9.28,0,0,1-.57,3.31l5.29,3.48-.64.92-5.11-3.37a7.1,7.1,0,0,1-5,3.63l-.24,0Z"/><path class="cls-1" d="M698.27,8.63V7.91c3.31-.72,5.13-3.71,5.13-7.1l.76,0a9,9,0,0,1-.61,3.38l5.25,3.46-.41.6L703.26,4.9A7,7,0,0,1,698.27,8.63ZM712,12.84c0,2.11-2.77,3-6.3,3s-6.31-.88-6.31-3,2.78-3,6.31-3S712,10.73,712,12.84Zm-.78,0c0-1.55-2.43-2.29-5.52-2.29s-5.53.74-5.53,2.29,2.43,2.29,5.53,2.29S711.23,14.39,711.23,12.84ZM714.15,4v.7h-2.43V9.13H711V.6h.76V4Z"/><path class="cls-1" d="M728.56,16.17V.4h1.16V16.17Zm-13.25-1.08V14h5.93a15.16,15.16,0,0,0,5.8-.81l.29-.14v1.17l-.12,0a16.35,16.35,0,0,1-6.08.83Zm5.44-4.35a4.71,4.71,0,0,1-4.82-4.92,4.83,4.83,0,1,1,9.65,0A4.72,4.72,0,0,1,720.75,10.74Zm0-8.74a3.58,3.58,0,0,0-3.65,3.82,3.66,3.66,0,1,0,7.31,0A3.58,3.58,0,0,0,720.75,2Z"/><path class="cls-1" d="M721.13,14.89h-5.62v-.7h5.73a15.36,15.36,0,0,0,5.89-.83v.72A16.15,16.15,0,0,1,721.13,14.89Zm4.25-9.07a4.63,4.63,0,1,1-9.25,0,4.63,4.63,0,1,1,9.25,0Zm-8.48,0a3.86,3.86,0,1,0,7.71,0,3.86,3.86,0,1,0-7.71,0ZM729.52,16h-.76V.6h.76Z"/><path class="cls-1" d="M750.44,16.17V.4h1.15V7.13H754v1.1h-2.43v7.94Zm-11.87-1.08V1h1.16V14h5.09a10,10,0,0,0,3.89-.72l.29-.13v1.16l-.11.05a9.91,9.91,0,0,1-4.07.76Z"/><path class="cls-1" d="M744.82,14.17a10.2,10.2,0,0,0,4-.74v.72a9.78,9.78,0,0,1-4,.74h-6.05V1.23h.76V14.17Zm9-6.14h-2.43V16h-.75V.6h.75V7.33h2.43Z"/><path class="cls-1" d="M768.62,16.17v-8h-3.13V15.9h-1.16V.5h1.16V7h3.13V.4h1.15V16.17Zm-13-1.08V7.38h5.11V2.22h-5.11V1.12h6.26V8.49h-5.11V14h1.15a11.5,11.5,0,0,0,5.08-.86l.29-.13v1.21l-.12,0a12.53,12.53,0,0,1-5.19.83Z"/><path class="cls-1" d="M757.92,14.19a11.7,11.7,0,0,0,5.17-.88v.77a12.27,12.27,0,0,1-5.11.81h-2.16V7.58h5.11V2h-5.11v-.7h5.86v7h-5.11v5.9ZM769.57.6V16h-.75v-8h-3.53V15.7h-.76V.7h.76V7.24h3.53V.6Z"/><path class="cls-1" d="M773.49,15.83V12.42h12.1V11.2H773.45V10.14h13.28v3.33h-12.1v1.29h12.44v1.07ZM772.3,8.9V7.81h15.6V8.9Zm1.28-2.32V3.1h12V1.8h-12V.74h13.11V4.16h-12V5.51h12.22V6.58Z"/><path class="cls-1" d="M787.7,8.7H772.5V8h15.2Zm-1.17,4.57h-12.1V15h12.44v.67H773.69v-3h12.1V11H773.65v-.66h12.88Zm0-9.31h-12V5.71h12.22v.67h-13V3.3h12V1.6h-12V.94h12.71Z"/><path class="cls-1" d="M796.29,15.81V12.12H808V10.61H796.26V9.53h12.89v3.65H797.49v1.55H809.7v1.08Zm11.71-7V5.93h-3V4.86h3V3.32h-3V2.25h3V.4h1.15V8.84Zm-13.22-.66V7.09H797V2h-2.24V.94h10.29V2H802.8V6.93a11.72,11.72,0,0,0,2.56-.56l.27-.1V7.4l-.13,0a18.64,18.64,0,0,1-6,.73Zm4.78-1.09c.83,0,1.5,0,2.08,0V2h-3.47V7.09Z"/><path class="cls-1" d="M799.45,8H795V7.29h2.24V1.82H795V1.14h9.89v.68H802.6V7.15a11.85,11.85,0,0,0,2.83-.59v.7A18.17,18.17,0,0,1,799.45,8Zm10,7v.68h-13V12.32h11.68V10.41H796.46V9.73H809V13H797.29v1.95ZM798,7.29h1.59c.84,0,1.6,0,2.28-.07V1.82H798ZM808.2,5.73h-3V5.06h3V3.12h-3V2.45h3V.6H809v8h-.75Z"/><path class="cls-1" d="M825.17,16.17V.4h1.16V16.17Zm-7.54-6.74c-1,3.16-2.74,5.16-5,5.66l-.24.05V14l.15,0c2.63-.62,4.49-4.4,4.77-9.65h-4.71V3.22h4.74V.38h1.16V3.22H823V4.33h-4.53A23,23,0,0,1,818,8.12l5.46,6.26-.81.79Z"/><path class="cls-1" d="M817.75,8.18l5.41,6.19-.53.51L817.54,9c-.92,3.3-2.67,5.37-5,5.87v-.72c2.92-.68,4.7-4.88,4.93-10h-4.72V3.42h4.74V.58h.76V3.42h4.5v.71h-4.52A23.31,23.31,0,0,1,817.75,8.18ZM826.13.6V16h-.76V.6Z"/><path class="cls-1" d="M830.51,15.83V11h1.16v3.73H844v1.1Zm-1.22-6.25V8.48h15.59v1.1Zm1.26-3V.49h1.16v5h12.11v1.1Z"/><path class="cls-1" d="M844.68,9.38H829.49v-.7h15.19Zm-13.21,5.55h12.37v.7H830.71V11.2h.76Zm0-9.27h12.12v.7H830.75V.69h.75Z"/><path class="cls-1" d="M859.68,12.52a8.45,8.45,0,0,1-6.45,3.29H853V14.7h.2a7,7,0,0,0,6.58-5.21l0-.19,1.16.22,0,.2a6.79,6.79,0,0,1-.68,1.88l6.64,3.54-.64.94ZM865,11.37V5.73h-4.3c-1.16,2.55-4,3.89-8.23,3.89h-.2V8.48h.2c3.49,0,7.65-1,7.65-5.61V2h-7.85V.94h9V2.85a7.9,7.9,0,0,1-.19,1.78H865V.4h1.15v11Z"/><path class="cls-1" d="M852.46,9.42V8.68c4.87,0,7.85-1.85,7.85-5.81v-1h-7.85v-.7h8.6V2.85a7.66,7.66,0,0,1-.25,2h4.38V.6h.75V11.17h-.75V5.53h-4.63C859.44,8.14,856.56,9.42,852.46,9.42Zm13.77,6.39-6.61-3.55a8.23,8.23,0,0,1-6.39,3.35v-.72A7.18,7.18,0,0,0,860,9.53l.77.14a6.45,6.45,0,0,1-.75,2l6.62,3.53Z"/><path class="cls-1" d="M870.15,15.83V12.24h12.08V10.86H870.11V9.78h13.28v3.53H871.3v1.44h12.43v1.08ZM869,8.34V7.26h15.6V8.34Zm7.8-2.07c-4.31,0-6.77-1-6.77-2.88S872.45.5,876.76.5s6.77,1.05,6.77,2.89S881.06,6.27,876.76,6.27Zm0-4.68c-3.46,0-5.6.69-5.6,1.8s2.14,1.8,5.6,1.8,5.6-.69,5.6-1.8S880.21,1.59,876.76,1.59Z"/><path class="cls-1" d="M884.36,8.14h-15.2V7.46h15.2Zm-1-4.75c0,2-3.12,2.68-6.57,2.68s-6.57-.72-6.57-2.68S873.3.7,876.76.7,883.33,1.42,883.33,3.39Zm-.14,9.72H871.1V15h12.43v.68H870.35V12.44h12.08V10.66H870.31V10h12.88ZM871,3.39c0,1.46,2.81,2,5.8,2s5.8-.54,5.8-2-2.81-2-5.8-2S871,1.93,871,3.39Z"/><path class="cls-1" d="M899.1,16.17c-4.14,0-6.14-.73-6.14-2.23s2.06-2.25,6.14-2.25,6.14.75,6.14,2.25S903.23,16.17,899.1,16.17Zm0-3.4c-3.45,0-5,.59-5,1.17s1.54,1.15,5,1.15,5-.58,5-1.15S902.54,12.77,899.1,12.77Zm-7-1.64V10.05h6.4V8.62h1.17v1.43h6.36v1.08Zm-.8-2.92V7.13h7.22V5.22h1.15V7.13h7.22V8.21Zm7.54-4.49C897.28,5.26,894.5,5.88,892.4,6h-.2V4.85h.19c2.76-.08,5.77-1.14,6.41-3h-6.28V.74h13.2v1.1H900a3.48,3.48,0,0,1-.37.93L906.26,5l-.44,1.08Z"/><path class="cls-1" d="M906.71,7.33V8H891.52V7.33h7.22V5.42h.75V7.33Zm-7.22,2.92h6.36v.68H892.33v-.68h6.39V8.83h.77Zm-7.09-4.5V5c2.83-.09,6.17-1.2,6.66-3.4h-6.34V.94h12.8v.7h-5.7a3.46,3.46,0,0,1-.51,1.24L906,5.12l-.29.7L898.81,3.5C897.37,5,894.7,5.67,892.4,5.75ZM905,13.94c0,1.24-1.7,2-5.94,2s-5.94-.79-5.94-2,1.69-2,5.94-2S905,12.7,905,13.94Zm-.76,0c0-.85-1.94-1.37-5.18-1.37s-5.19.52-5.19,1.37,1.94,1.35,5.19,1.35S904.28,14.79,904.28,13.94Z"/><path class="cls-1" d="M921.4,16.17V.4h1.15V7.13H925v1.1h-2.43v7.94Zm-7.47-.86c-2.9,0-4.63-2.69-4.63-7.21S911,.9,913.93.9s4.63,2.69,4.63,7.2S916.83,15.31,913.93,15.31Zm0-13.31c-2.17,0-3.46,2.28-3.46,6.1s1.29,6.11,3.46,6.11,3.45-2.29,3.45-6.11S916.09,2,913.93,2Z"/><path class="cls-1" d="M918.36,8.1c0,4.74-1.88,7-4.43,7s-4.43-2.27-4.43-7,1.87-7,4.43-7S918.36,3.37,918.36,8.1Zm-.78,0c0-4.26-1.57-6.3-3.65-6.3s-3.66,2-3.66,6.3,1.57,6.31,3.66,6.31S917.58,12.37,917.58,8.1Zm7.2-.07h-2.43V16h-.75V.6h.75V7.33h2.43Z"/><path class="cls-1" d="M927.17,15.81V9.94h1.16v1.93h10.38V9.94h1.16v5.87Zm11.54-1.08v-1.8H928.33v1.8Zm0-5.13V.4h1.16V4.11h2.43v1.1h-2.43V9.6Zm-7.34,0c-2.7,0-4.58-1.19-4.58-2.89s1.88-2.88,4.58-2.88S936,5,936,6.68,934.06,9.57,931.37,9.57Zm0-4.69c-2,0-3.42.76-3.42,1.8s1.44,1.8,3.42,1.8,3.42-.76,3.42-1.8S933.35,4.88,931.37,4.88ZM926,3.08V2h4.81V.13H932V2h4.82v1.1Z"/><path class="cls-1" d="M936.57,2.88H926.18v-.7H931V.33h.76V2.18h4.82ZM927,6.68C927,5.1,928.81,4,931.37,4s4.38,1.1,4.38,2.68-1.82,2.69-4.38,2.69S927,8.27,927,6.68Zm11.92,3.46h.76v5.47h-12.3V10.14h.76v1.93h10.78ZM927.75,6.68c0,1.1,1.39,2,3.62,2s3.62-.9,3.62-2-1.39-2-3.62-2S927.75,5.58,927.75,6.68Zm11.16,8.25v-2.2H928.13v2.2ZM942.1,5h-2.43V9.4h-.76V.6h.76V4.31h2.43Z"/><path class="cls-1" d="M956.44.4h1.18V16.17l-1.18,0ZM944.33,15.09V1h1.15V14h5.27a10,10,0,0,0,3.9-.73l.29-.14v1.16l-.12.06a10,10,0,0,1-4.07.77Z"/><path class="cls-1" d="M945.28,14.17h5.47a10.24,10.24,0,0,0,4-.75v.72a10,10,0,0,1-4,.75h-6.22V1.23h.75ZM957.42,16l-.78,0V.6h.78Z"/><path class="cls-1" d="M973.34,16.17V.4h1.16V7.13h2.43v1.1H974.5v7.94Zm-11.86-1.08v-14h9.22v1.1h-8.07V14h5.1a10,10,0,0,0,3.89-.75l.29-.14v1.18l-.12.05a10.28,10.28,0,0,1-4.06.76Z"/><path class="cls-1" d="M967.73,14.19a10.17,10.17,0,0,0,4-.77v.73a10.13,10.13,0,0,1-4,.74h-6.05V1.32h8.82V2h-8.07V14.19Zm9-6.16H974.3V16h-.76V.6h.76V7.33h2.43Z"/><path class="cls-1" d="M979,16a1,1,0,1,1,1-1A1,1,0,0,1,979,16Z"/><path class="cls-1" d="M979.81,15a.85.85,0,0,1-1.7,0,.85.85,0,1,1,1.7,0Z"/><path class="cls-1" d="M7.69,46c-4.17,0-6.47-1-6.47-2.79s2.3-2.8,6.47-2.8,6.47,1,6.47,2.8S11.86,46,7.69,46Zm0-4.5c-3.26,0-5.29.65-5.29,1.71s2,1.7,5.29,1.7S13,44.29,13,43.24,11,41.53,7.69,41.53Zm5-1.33V30.4h1.16v4.23h2.43v1.1H13.89V40.2Zm-7.34-.45c-2.74,0-4.58-1.16-4.58-2.89s1.84-3,4.58-3,4.57,1.2,4.57,3S8.12,39.75,5.39,39.75Zm0-4.79c-2,0-3.42.78-3.42,1.9s1.37,1.8,3.42,1.8,3.41-.72,3.41-1.8S7.4,35,5.39,35ZM0,33.12V32H4.81V30.13H6V32h4.83v1.1Z"/><path class="cls-1" d="M10.59,32.92H.2v-.7H5V30.33h.75v1.89h4.83ZM1,36.86c0-1.71,1.82-2.79,4.38-2.79s4.37,1.08,4.37,2.79-1.82,2.68-4.37,2.68S1,38.5,1,36.86Zm13,6.38c0,1.87-2.72,2.59-6.27,2.59s-6.27-.72-6.27-2.59,2.72-2.6,6.27-2.6S14,41.36,14,43.24ZM1.77,36.86c0,1.15,1.38,2,3.62,2S9,38,9,36.86s-1.38-2.1-3.61-2.1S1.77,35.66,1.77,36.86Zm11.41,6.38c0-1.32-2.37-1.91-5.49-1.91s-5.49.59-5.49,1.91,2.38,1.9,5.49,1.9S13.18,44.55,13.18,43.24Zm2.94-8.41v.7H13.69V40h-.76V30.6h.76v4.23Z"/><path class="cls-1" d="M25,46c-4.13,0-6.5-1.16-6.5-3.19s2.37-3.19,6.5-3.19,6.5,1.16,6.5,3.19S29.12,46,25,46Zm0-5.28c-3.29,0-5.33.8-5.33,2.09s2,2.09,5.33,2.09,5.33-.8,5.33-2.09S28.28,40.75,25,40.75Zm5.06-1.42V30.4H31.2v3.4h2.43v1.1H31.2v4.43Zm-12.7-1.58.16,0c3-.66,5-3.36,5-6.9V30.6l1.16.06v.19a9.28,9.28,0,0,1-.57,3.31l5.3,3.48-.65.92-5.11-3.37a7.1,7.1,0,0,1-5,3.63l-.24,0Z"/><path class="cls-1" d="M17.55,38.63v-.72c3.32-.72,5.13-3.71,5.13-7.1l.76,0a9,9,0,0,1-.61,3.38l5.26,3.46-.42.6L22.54,34.9A6.94,6.94,0,0,1,17.55,38.63Zm13.74,4.21c0,2.11-2.77,3-6.3,3s-6.3-.88-6.3-3,2.77-3,6.3-3S31.29,40.73,31.29,42.84Zm-.77,0c0-1.55-2.43-2.29-5.53-2.29s-5.53.74-5.53,2.29,2.43,2.29,5.53,2.29S30.52,44.39,30.52,42.84ZM33.43,34v.7H31v4.43h-.75V30.6H31V34Z"/><path class="cls-1" d="M40.88,45.81V41.16H42v3.55H54.17v1.1Zm11.54-3.29V30.4h1.17v4.77H56v1.1h-2.4v6.25ZM39.64,39.67v-1.1h3.74V34.25h1.16v4.32h.59c3,0,4.8-.2,5.81-.63l.28-.12V39L51.1,39c-1.21.55-4,.66-6,.66Zm8.49-2.48V31.88H40.52V30.77h8.77v6.42Z"/><path class="cls-1" d="M45.06,39.47H39.84v-.7h3.74V34.45h.76v4.32h.79A17.43,17.43,0,0,0,51,38.12v.71A18.21,18.21,0,0,1,45.06,39.47Zm3.27-7.79H40.72V31h8.37v6h-.76Zm-6.5,13.23H54v.7H41.08V41.36h.75Zm14-9.54v.7h-2.4v6.25h-.77V30.6h.77v4.77Z"/><path class="cls-1" d="M58.19,45.81V42H69.72V40.36H58.16V39.27H70.88v3.81H59.35v1.65H71.41v1.08Zm11.53-7.22V30.4h1.16v3.27H73.3v1.11H70.88v3.81ZM57.2,37.17l.17,0c2.64-.51,4.2-1.92,4.52-4.1H57.35v-1.1H62v-1.8h1.15v1.8h4.52V33H63.07a5.59,5.59,0,0,1-.27,1.22l5.07,2.9-.54.94-5-2.84a6.86,6.86,0,0,1-4.9,3l-.24,0Z"/><path class="cls-1" d="M57.4,38.05v-.72c2.7-.52,4.45-2,4.72-4.5H57.55v-.7h4.63v-1.8h.75v1.8h4.52v.7H62.9a6.06,6.06,0,0,1-.35,1.51l5,2.88-.34.6-5-2.85A6.55,6.55,0,0,1,57.4,38.05Zm1.75,6.88H71.21v.68H58.39v-3.4H69.92V40.16H58.36v-.69H70.67v3.41H59.15ZM73.1,33.87v.71H70.67v3.81h-.75V30.6h.75v3.27Z"/><path class="cls-1" d="M87,46.17V30.4h1.16v6.73h2.43v1.1H88.19v7.94Zm-7.21-.9c-2.51,0-4.33-2-4.33-4.82s1.82-4.83,4.33-4.83,4.32,2,4.32,4.83S82.32,45.27,79.82,45.27Zm0-8.55c-1.57,0-3.15,1.28-3.15,3.73s1.58,3.72,3.15,3.72S83,42.89,83,40.45,81.38,36.72,79.82,36.72Zm-5.17-2.39V33.22h4.59V30.36h1.15v2.86H85v1.11Z"/><path class="cls-1" d="M80.19,33.42H84.8v.71h-10v-.71h4.59V30.56h.75Zm3.75,7c0,2.84-1.86,4.62-4.12,4.62s-4.13-1.78-4.13-4.62,1.86-4.63,4.13-4.63S83.94,37.6,83.94,40.45Zm-.77,0c0-2.42-1.55-3.93-3.35-3.93S76.47,38,76.47,40.45s1.54,3.92,3.35,3.92S83.17,42.86,83.17,40.45ZM90.42,38H88V46h-.76V30.6H88v6.73h2.43Z"/><path class="cls-1" d="M91.58,45.27v-1.1H97.9V36.59h1.16v7.58h8.12v1.1Zm13.27-3.62V32.2H92.65V31.1H106V41.65Z"/><path class="cls-1" d="M107,44.37v.7H91.78v-.7H98.1V36.79h.76v7.58ZM105.05,32H92.85v-.7h13V41.45h-.76Z"/><path class="cls-1" d="M127.14,46.17V30.4h1.15V46.17ZM114.79,45V43.9h.2c4.49,0,7.29-3.52,7.29-9.18v-2.5h-7.49v-1.1h8.64v3.53C123.43,41,120.12,45,115,45Z"/><path class="cls-1" d="M123.23,34.65c0,6.1-3.11,10.17-8.24,10.17V44.1c4.57,0,7.49-3.64,7.49-9.38V32H115v-.7h8.24ZM128.09,46h-.75V30.6h.75Z"/><path class="cls-1" d="M144.49,46.05V43H132.3v-1.1h13.35v4.18Zm-13.23-5.73V39.24h7.21V37.57h-5.94v-4h12V31.82h-12V30.74h13.12v3.93h-12v1.81H145.9v1.09h-6.27v1.67h7.22v1.08Z"/><path class="cls-1" d="M146.65,39.44v.68H131.46v-.68h7.21V37.37h-5.94V33.8h12V31.62h-12v-.68h12.72v3.53h-12v2.21H145.7v.69h-6.27v2.07ZM132.5,42.07h12.95v3.78h-.76V42.77H132.5Z"/><path class="cls-1" d="M161.34,46.17V30.4h1.15v6.73h2.43v1.1h-2.43v7.94Zm-7.22-.9c-2.51,0-4.33-2-4.33-4.82s1.82-4.83,4.33-4.83,4.32,2,4.32,4.83S156.62,45.27,154.12,45.27Zm0-8.55c-1.57,0-3.15,1.28-3.15,3.73s1.58,3.72,3.15,3.72,3.15-1.28,3.15-3.72S155.68,36.72,154.12,36.72ZM149,34.33V33.22h4.59V30.36h1.16v2.86h4.61v1.11Z"/><path class="cls-1" d="M154.5,33.42h4.61v.71h-10v-.71h4.59V30.56h.76Zm3.74,7c0,2.84-1.85,4.62-4.12,4.62S150,43.29,150,40.45s1.85-4.63,4.12-4.63S158.24,37.6,158.24,40.45Zm-.77,0c0-2.42-1.55-3.93-3.35-3.93s-3.35,1.51-3.35,3.93,1.55,3.92,3.35,3.92S157.47,42.86,157.47,40.45ZM164.72,38h-2.43V46h-.75V30.6h.75v6.73h2.43Z"/><path class="cls-1" d="M167.11,45.83V41h1.16v3.73h12.37v1.1Zm-1.22-6.25v-1.1h15.59v1.1Zm1.26-3V30.49h1.15v5h12.12v1.1Z"/><path class="cls-1" d="M181.28,39.38H166.09v-.7h15.19Zm-13.21,5.55h12.37v.7H167.31V41.2h.76Zm0-9.27h12.12v.7H167.35V30.69h.75Z"/><path class="cls-1" d="M196.28,42.52a8.45,8.45,0,0,1-6.45,3.29h-.2V44.7h.2a7,7,0,0,0,6.57-5.21l0-.19,1.16.22,0,.2a6.79,6.79,0,0,1-.68,1.88l6.64,3.54-.64.94Zm5.3-1.15V35.73h-4.29c-1.16,2.55-4,3.89-8.23,3.89h-.2V38.48h.2c3.48,0,7.65-1,7.65-5.61V32h-7.85v-1.1h9v1.91a7.9,7.9,0,0,1-.19,1.78h3.91V30.4h1.16v11Z"/><path class="cls-1" d="M189.06,39.42v-.74c4.87,0,7.85-1.85,7.85-5.81v-1h-7.85v-.7h8.6v1.71a7.66,7.66,0,0,1-.25,2h4.38V30.6h.75V41.17h-.75V35.53h-4.63C196,38.14,193.16,39.42,189.06,39.42Zm13.77,6.39-6.61-3.55a8.23,8.23,0,0,1-6.39,3.35v-.72a7.18,7.18,0,0,0,6.77-5.36l.77.14a6.45,6.45,0,0,1-.75,2l6.62,3.53Z"/><path class="cls-1" d="M206.75,45.83V42.24h12.08V40.86H206.71V39.78H220v3.53H207.9v1.44h12.43v1.08Zm-1.19-7.49V37.26h15.6v1.08Zm7.8-2.07c-4.31,0-6.77-1.05-6.77-2.88s2.46-2.89,6.77-2.89,6.77,1.05,6.77,2.89S217.66,36.27,213.36,36.27Zm0-4.68c-3.46,0-5.6.69-5.6,1.8s2.14,1.8,5.6,1.8,5.6-.69,5.6-1.8S216.81,31.59,213.36,31.59Z"/><path class="cls-1" d="M221,38.14h-15.2v-.68H221Zm-1-4.75c0,2-3.12,2.68-6.57,2.68s-6.57-.72-6.57-2.68,3.11-2.69,6.57-2.69S219.93,31.42,219.93,33.39Zm-.14,9.72H207.7V45h12.43v.68H207V42.44H219V40.66H206.91V40h12.88Zm-12.23-9.72c0,1.46,2.81,2,5.8,2s5.8-.54,5.8-2-2.81-2-5.8-2S207.56,31.93,207.56,33.39Z"/><path class="cls-1" d="M229.1,45.83V42.24h12.08V40.86H229.07V39.78h13.27v3.53H230.26v1.44h12.42v1.08Zm-1.19-7.49V37.26h15.6v1.08ZM235.46,34c-1.31,1.28-3.71,2.09-6.46,2.17h-.2v-1.1H229c2.92-.09,6-1.12,6.47-3.22h-6.34v-1.1h13.2v1.1h-5.71a3.66,3.66,0,0,1-.4,1.18l6.63,2.19-.44,1.07Z"/><path class="cls-1" d="M243.31,37.46v.68h-15.2v-.68ZM229,36v-.7c2.9-.09,6.37-1.17,6.69-3.62h-6.37v-.7h12.8v.7h-5.69a3.44,3.44,0,0,1-.52,1.5l6.66,2.19-.29.7-6.87-2.26C234,35.24,231.3,35.89,229,36Zm1.06,9h12.42v.68H229.3V42.44h12.08V40.66H229.27V40h12.87v3.13H230.06Z"/><path class="cls-1" d="M246.71,45.81V39.2h1.15v2.23h10.57V39.2h1.15v6.61Zm11.72-1.08V42.52H247.86v2.21Zm0-5.9V30.4h1.13v8.43Zm-12.54-.47V37.24h.2c5.33,0,7.82-1.52,7.82-4.79V32h-8v-1.1h9.17v1.51c0,4-2.93,5.91-9,5.91Z"/><path class="cls-1" d="M246.11,38.16v-.72c4.88,0,8-1.26,8-5v-.61h-8v-.7h8.77v1.31C254.88,36.63,251.48,38.16,246.11,38.16Zm12.52,1.24h.75v6.21H246.91V39.4h.75v2.23h11Zm0,5.53V42.32h-11v2.61Zm.75-14.33v8h-.73v-8Z"/><path class="cls-1" d="M275.73,30.4h1.17V46.17l-1.17,0ZM263.61,45.09V31h1.16V44H270a10,10,0,0,0,3.89-.73l.29-.14v1.16l-.11.06a10.11,10.11,0,0,1-4.07.77Z"/><path class="cls-1" d="M264.57,44.17H270a10.19,10.19,0,0,0,4-.75v.72a10,10,0,0,1-4,.75h-6.23V31.23h.76ZM276.7,46l-.77,0V30.6h.77Z"/><path class="cls-1" d="M292.63,46.17V30.4h1.16v6.73h2.42v1.1h-2.42v7.94Zm-11.87-1.08v-14H290v1.1h-8.07V44H287a9.94,9.94,0,0,0,3.89-.75l.29-.14v1.18l-.11,0a10.33,10.33,0,0,1-4.07.76Z"/><path class="cls-1" d="M287,44.19a10.14,10.14,0,0,0,4-.77v.73a10.09,10.09,0,0,1-4,.74H281V31.32h8.83V32h-8.07V44.19ZM296,38h-2.43V46h-.75V30.6h.75v6.73H296Z"/><path class="cls-1" d="M298.24,46a1,1,0,1,1,1.05-1A1,1,0,0,1,298.24,46Z"/><path class="cls-1" d="M299.09,45a.84.84,0,0,1-.85.84.83.83,0,0,1-.84-.84.84.84,0,0,1,.84-.85A.85.85,0,0,1,299.09,45Z"/><path class="cls-1" d="M319.41,46.17V37.71h-4.36v-1.1h4.36V30.4h1.16V46.17ZM306.32,44l.16,0c2.77-.66,4.54-5.16,4.63-11.76h-4.48v-1.1h10.1v1.1h-4.46a31.61,31.61,0,0,1-.51,5.42l5.53,6.66-.91.69-4.92-6c-.93,3.5-2.62,5.6-4.89,6.1l-.25,0Z"/><path class="cls-1" d="M311.55,37.69,317,44.26l-.59.45-5-6.16c-.89,3.61-2.54,5.84-4.85,6.34v-.72c3.12-.74,4.74-5.79,4.79-12.15h-4.48v-.7h9.7V32h-4.46A31.68,31.68,0,0,1,311.55,37.69Zm8.82-7.09V46h-.76V37.51h-4.36v-.7h4.36V30.6Z"/><path class="cls-1" d="M324.61,45.83V41h1.16v3.73h12.37v1.1Zm-1.22-6.25v-1.1H339v1.1Zm1.26-3V30.49h1.15v5h12.12v1.1Z"/><path class="cls-1" d="M338.78,39.38H323.59v-.7h15.19Zm-13.21,5.55h12.37v.7H324.81V41.2h.76Zm0-9.27h12.12v.7H324.85V30.69h.75Z"/><path class="cls-1" d="M359.37,46.17v-8H356.1V45.9h-1.16V30.5h1.16V37h3.27V30.4h1.16V46.17ZM346,44l.13,0c3.11-1.22,3.57-6.92,3.6-12.9v-.21l1.16,0v.2a54,54,0,0,1-.34,6.35l3.95,6.87-1,.63-3.25-5.74c-.67,3.32-1.92,5.15-4,5.9l-.27.1Z"/><path class="cls-1" d="M350.33,37.46l3.89,6.77-.63.41-3.42-6c-.61,3.49-1.82,5.51-4,6.28v-.75c3-1.19,3.69-6.13,3.73-13.09h.76A52.93,52.93,0,0,1,350.33,37.46Zm10-6.86V46h-.76v-8H355.9V45.7h-.76v-15h.76v6.54h3.67V30.6Z"/><polygon class="cls-1" points="363.06 45.27 363.06 44.17 370.22 44.17 370.22 40.7 364.25 40.7 364.25 35.35 376.38 35.35 376.38 32.22 364.25 32.22 364.25 31.12 377.54 31.12 377.54 36.45 365.4 36.45 365.4 39.6 377.81 39.6 377.81 40.7 371.38 40.7 371.38 44.17 378.65 44.17 378.65 45.27 363.06 45.27"/><path class="cls-1" d="M378.45,44.37v.7H363.26v-.7h7.16V40.5h-6v-5h12.13V32H364.45v-.7h12.89v4.93H365.2V39.8h12.41v.7h-6.43v3.87Z"/><path class="cls-1" d="M381.6,45.83V41.22h1.15v3.51h12.37v1.1Zm6-2.95V39.76h-7.22v-1.1H396v1.1h-7.22v3.12Zm.58-5.67c-3.15,0-6.82-.89-6.82-3.39s3.67-3.39,6.82-3.39,6.83.89,6.83,3.39S391.32,37.21,388.17,37.21Zm0-5.67c-2.81,0-5.65.78-5.65,2.28s2.84,2.28,5.65,2.28,5.65-.78,5.65-2.28S391,31.54,388.17,31.54Z"/><path class="cls-1" d="M395.77,38.86v.7h-7.22v3.12h-.76V39.56h-7.22v-.7Zm-14.22-5c0-2.18,3.16-3.19,6.62-3.19s6.63,1,6.63,3.19S391.63,37,388.17,37,381.55,36,381.55,33.82Zm1,11.11h12.37v.7H381.8V41.42h.75Zm-.23-11.11c0,1.66,2.86,2.48,5.85,2.48s5.85-.82,5.85-2.48-2.86-2.49-5.85-2.49S382.32,32.16,382.32,33.82Z"/><path class="cls-1" d="M410.77,42.52a8.45,8.45,0,0,1-6.45,3.29h-.2V44.7h.19a7,7,0,0,0,6.58-5.21l0-.18,1.17.21,0,.2a6.79,6.79,0,0,1-.68,1.88L418,45.13l-.64.94Zm5.3-1.15V35.73h-4.3c-1.15,2.55-4,3.89-8.23,3.89h-.2V38.48h.2c3.49,0,7.65-1,7.65-5.61V32h-7.85v-1.1h9v1.91a7.89,7.89,0,0,1-.2,1.78h3.92V30.4h1.16v11Z"/><path class="cls-1" d="M403.54,39.42v-.74c4.88,0,7.85-1.85,7.85-5.81v-1h-7.85v-.7h8.61v1.71a7.66,7.66,0,0,1-.25,2h4.37V30.6H417V41.17h-.76V35.53h-4.63C410.53,38.14,407.65,39.42,403.54,39.42Zm13.78,6.39-6.61-3.55a8.23,8.23,0,0,1-6.39,3.35v-.72a7.18,7.18,0,0,0,6.76-5.36l.78.14a6.47,6.47,0,0,1-.76,2l6.63,3.53Z"/><path class="cls-1" d="M421.23,45.83V42.24h12.08V40.86H421.2V39.78h13.27v3.53H422.39v1.44h12.42v1.08ZM420,38.34V37.26h15.6v1.08Zm7.8-2.07c-4.3,0-6.77-1.05-6.77-2.88s2.47-2.89,6.77-2.89,6.78,1.05,6.78,2.89S432.15,36.27,427.84,36.27Zm0-4.68c-3.45,0-5.59.69-5.59,1.8s2.14,1.8,5.59,1.8,5.6-.69,5.6-1.8S431.29,31.59,427.84,31.59Z"/><path class="cls-1" d="M435.44,38.14H420.25v-.68h15.19Zm-1-4.75c0,2-3.12,2.68-6.58,2.68s-6.57-.72-6.57-2.68,3.12-2.69,6.57-2.69S434.42,31.42,434.42,33.39Zm-.15,9.72H422.19V45h12.42v.68H421.43V42.44h12.08V40.66H421.4V40h12.87Zm-12.22-9.72c0,1.46,2.8,2,5.79,2s5.8-.54,5.8-2-2.81-2-5.8-2S422.05,31.93,422.05,33.39Z"/><path class="cls-1" d="M443.62,45.81V40.52h12.7v5.29Zm11.55-1.1V41.62H444.78v3.09Zm0-4.87V30.4h1.15v3.87h2.43v1.1h-2.43v4.47Zm-12.05-.78V30.94h9.73V32h-8.57v2.43h8.26v1.08h-8.26V38H448a15.7,15.7,0,0,0,5.8-.81l.29-.14v1.15l-.11,0a16.41,16.41,0,0,1-6.09.83Z"/><path class="cls-1" d="M447.91,38.86h-4.59V31.14h9.33v.68h-8.57v2.83h8.26v.68h-8.26v2.85H448a15.76,15.76,0,0,0,5.89-.83v.7A16.33,16.33,0,0,1,447.91,38.86Zm-4.08,1.86h12.29v4.89H443.83Zm.75,4.19h10.79V41.42H444.58Zm14-9.74h-2.43v4.47h-.75v-9h.75v3.87h2.43Z"/><path class="cls-1" d="M466.85,46.53V40.47h-7.13V39.31h15.59v1.16H468v6.06Zm6-8.42V32h-12v-1.1h13.18v7.19Z"/><path class="cls-1" d="M475.11,40.27H467.8v6.06h-.75V40.27h-7.13v-.76h15.19Zm-2-8.45h-12v-.7h12.78v6.79h-.77Z"/><path class="cls-1" d="M489.8,46.17V30.4H491v6.73h2.43v1.1H491v7.94Zm-7.22-.9c-2.51,0-4.32-2-4.32-4.82s1.81-4.83,4.32-4.83,4.32,2,4.32,4.83S485.08,45.27,482.58,45.27Zm0-8.55c-1.57,0-3.15,1.28-3.15,3.73s1.58,3.72,3.15,3.72,3.15-1.28,3.15-3.72S484.14,36.72,482.58,36.72Zm-5.17-2.39V33.22H482V30.36h1.16v2.86h4.61v1.11Z"/><path class="cls-1" d="M483,33.42h4.61v.71h-10v-.71h4.59V30.56H483Zm3.74,7c0,2.84-1.85,4.62-4.12,4.62s-4.12-1.78-4.12-4.62,1.85-4.63,4.12-4.63S486.7,37.6,486.7,40.45Zm-.77,0c0-2.42-1.55-3.93-3.35-3.93s-3.35,1.51-3.35,3.93,1.55,3.92,3.35,3.92S485.93,42.86,485.93,40.45ZM493.18,38h-2.43V46H490V30.6h.75v6.73h2.43Z"/><path class="cls-1" d="M494.35,45.27v-1.1h6.32V36.59h1.15v7.58H510v1.1Zm13.27-3.62V32.2H495.41V31.1h13.37V41.65Z"/><path class="cls-1" d="M509.75,44.37v.7h-15.2v-.7h6.32V36.79h.75v7.58ZM507.82,32H495.61v-.7h13V41.45h-.76Z"/><path class="cls-1" d="M530.33,46.17V38.12h-3.12V45.9h-1.16V30.5h1.16V37h3.12V30.4h1.16V46.17Zm-13-1.08V30.94h1.16v6h4.35v-6H524V45.09Zm5.51-1.1V38h-4.35v6Z"/><path class="cls-1" d="M523.06,31.14h.76V44.89h-6.27V31.14h.76v6h4.75Zm0,13V37.8h-4.75v6.39Zm8.23-13.59V46h-.76v-8H527V45.7h-.75v-15H527v6.54h3.53V30.6Z"/><path class="cls-1" d="M541.22,46.53v-5H534v-1.1h15.6v1.1h-7.24v5Zm.6-7.54C537.6,39,535,37.4,535,34.85s2.63-4.15,6.85-4.15,6.84,1.59,6.84,4.15S546,39,541.82,39Zm0-7.19c-3.51,0-5.69,1.17-5.69,3.05s2.18,3,5.69,3,5.69-1.17,5.69-3S545.33,31.8,541.82,31.8Z"/><path class="cls-1" d="M549.42,41.33h-7.24v5h-.76v-5h-7.2v-.7h15.2Zm-14.25-6.48c0-2.54,2.67-4,6.65-4s6.64,1.41,6.64,4-2.66,3.94-6.64,3.94S535.17,37.38,535.17,34.85Zm.76,0c0,2.07,2.4,3.24,5.89,3.24s5.89-1.17,5.89-3.24-2.4-3.25-5.89-3.25S535.93,32.78,535.93,34.85Z"/><path class="cls-1" d="M552.56,45.83V41h1.16v3.73h12.37v1.1Zm-1.22-6.25v-1.1h15.59v1.1Zm1.26-3V30.49h1.15v5h12.12v1.1Z"/><path class="cls-1" d="M566.73,39.38H551.54v-.7h15.19Zm-13.21,5.55h12.37v.7H552.76V41.2h.76Zm0-9.27h12.12v.7H552.8V30.69h.75Z"/><path class="cls-1" d="M575.33,45.81V41.9H587V40.18H575.29v-1.1h12.9V43h-11.7v1.72h12.24v1.1ZM587,38.39V34.9h-4.32c-1.14,2-3.83,3-8.21,3h-.2v-1.1h.2c5.22,0,7.65-1.42,7.65-4.45V32H574.3v-1.1h9v1.42a5.8,5.8,0,0,1-.17,1.44H587V30.4h1.16v8Z"/><path class="cls-1" d="M574.5,37.71V37c4.88,0,7.85-1.25,7.85-4.65v-.52H574.5v-.7h8.61v1.22a5.29,5.29,0,0,1-.23,1.64h4.35V30.6H588v7.59h-.76V34.7h-4.64C581.47,36.83,578.61,37.71,574.5,37.71Zm14,7.2v.7h-13V42.1h11.7V40H575.49v-.7H588v3.51h-11.7v2.12Z"/><path class="cls-1" d="M603.83,46.17c-4.14,0-6.14-.73-6.14-2.23s2.06-2.25,6.14-2.25,6.14.75,6.14,2.25S608,46.17,603.83,46.17Zm0-3.4c-3.45,0-5,.59-5,1.17s1.54,1.15,5,1.15,5-.58,5-1.15S607.27,42.77,603.83,42.77Zm-7-1.64V40.05h6.39V38.62h1.17v1.43h6.36v1.08Zm-.81-2.92V37.13h7.22V35.22h1.15v1.91h7.22v1.08Zm7.54-4.49c-1.58,1.54-4.35,2.16-6.45,2.23h-.21v-1.1h.19c2.76-.08,5.77-1.14,6.41-3h-6.28v-1.1h13.21v1.1h-5.75a3.46,3.46,0,0,1-.36.93L611,35l-.44,1.08Z"/><path class="cls-1" d="M611.44,37.33V38H596.25v-.68h7.22V35.42h.75v1.91Zm-7.22,2.92h6.36v.68H597.06v-.68h6.39V38.83h.77Zm-7.09-4.5V35c2.83-.09,6.18-1.2,6.66-3.4h-6.34v-.7h12.8v.7h-5.7a3.29,3.29,0,0,1-.51,1.24l6.68,2.24-.28.7-6.9-2.32C602.1,35,599.43,35.67,597.13,35.75Zm12.64,8.19c0,1.24-1.69,2-5.94,2s-5.94-.79-5.94-2,1.69-2,5.94-2S609.77,42.7,609.77,43.94Zm-.76,0c0-.85-1.94-1.37-5.18-1.37s-5.19.52-5.19,1.37,2,1.35,5.19,1.35S609,44.79,609,43.94Z"/><path class="cls-1" d="M626.13,46.17V30.4h1.16v6.73h2.42v1.1h-2.42v7.94Zm-7.47-.86c-2.9,0-4.63-2.69-4.63-7.21s1.73-7.2,4.63-7.2,4.63,2.69,4.63,7.2S621.56,45.31,618.66,45.31Zm0-13.31c-2.16,0-3.46,2.28-3.46,6.1s1.3,6.11,3.46,6.11,3.45-2.29,3.45-6.11S620.82,32,618.66,32Z"/><path class="cls-1" d="M623.09,38.1c0,4.74-1.87,7-4.43,7s-4.43-2.27-4.43-7,1.87-7,4.43-7S623.09,33.37,623.09,38.1Zm-.78,0c0-4.26-1.56-6.3-3.65-6.3s-3.66,2-3.66,6.3,1.57,6.31,3.66,6.31S622.31,42.37,622.31,38.1Zm7.2-.07h-2.43V46h-.75V30.6h.75v6.73h2.43Z"/><path class="cls-1" d="M643.44,46.17V30.4h1.16v6.73H647v1.1H644.6v7.94Zm-7.21-.9c-2.51,0-4.33-2-4.33-4.82s1.82-4.83,4.33-4.83,4.32,2,4.32,4.83S638.73,45.27,636.23,45.27Zm0-8.55c-1.57,0-3.15,1.28-3.15,3.73s1.58,3.72,3.15,3.72,3.15-1.28,3.15-3.72S637.79,36.72,636.23,36.72Zm-5.17-2.39V33.22h4.59V30.36h1.15v2.86h4.61v1.11Z"/><path class="cls-1" d="M636.6,33.42h4.61v.71h-10v-.71h4.59V30.56h.75Zm3.75,7c0,2.84-1.85,4.62-4.12,4.62s-4.13-1.78-4.13-4.62,1.86-4.63,4.13-4.63S640.35,37.6,640.35,40.45Zm-.77,0c0-2.42-1.55-3.93-3.35-3.93s-3.35,1.51-3.35,3.93,1.54,3.92,3.35,3.92S639.58,42.86,639.58,40.45ZM646.83,38H644.4V46h-.76V30.6h.76v6.73h2.43Z"/><path class="cls-1" d="M649.22,45.83V41h1.16v3.73h12.36v1.1ZM648,39.58v-1.1h15.6v1.1Zm1.26-3V30.49h1.16v5h12.12v1.1Z"/><path class="cls-1" d="M663.39,39.38h-15.2v-.7h15.2Zm-13.22,5.55h12.37v.7H649.42V41.2h.75Zm0-9.27h12.12v.7H649.45V30.69h.76Z"/><path class="cls-1" d="M683.12,46.17V30.4h1.15v6.73h2.43v1.1h-2.43v7.94ZM676,39c-1,3.68-2.8,5.79-5.16,6.12l-.23,0V44l.16,0c3.65-.68,5-7.13,5-12.94v-.21l1.16,0v.2a34.5,34.5,0,0,1-.6,6.52l5.23,6.85-.91.7Z"/><path class="cls-1" d="M676.11,37.64l5.17,6.77-.59.45-4.79-6.34c-.94,3.67-2.65,6-5.1,6.37v-.7c3.57-.67,5.13-6.66,5.17-13.14h.76A33.91,33.91,0,0,1,676.11,37.64ZM686.5,38h-2.43V46h-.75V30.6h.75v6.73h2.43Z"/><path class="cls-1" d="M688.89,45.81V40.52h12.7v5.29Zm11.54-1.1V41.62H690.05v3.09Zm0-4.87V30.4h1.16v3.87H704v1.1h-2.43v4.47Zm-12-.78V34.45h8V32h-8V30.94h9.15v4.59h-8V38h3.75a15.7,15.7,0,0,0,5.8-.81l.29-.14v1.15l-.12,0a16.35,16.35,0,0,1-6.08.83Z"/><path class="cls-1" d="M696.56,34.65V31.82h-8v-.68h8.75v4.19h-8v2.85h3.95a15.67,15.67,0,0,0,5.88-.83v.7a16.27,16.27,0,0,1-6,.81h-4.59V34.65Zm-7.47,6.07h12.3v4.89h-12.3Zm.76,4.19h10.78V41.42H689.85Zm14-9.74h-2.43v4.47h-.76v-9h.76v3.87h2.43Z"/><path class="cls-1" d="M706.64,45.81V39.2h1.15v2.23h10.39V39.2h1.16v6.61Zm11.54-1.08V42.5H707.79v2.23Zm0-5.9V30.4h1.16v8.43Zm-7.94-.34c-2.91,0-4.86-1.58-4.86-3.91s2-3.91,4.86-3.91,4.87,1.57,4.87,3.91S713.15,38.49,710.24,38.49Zm0-6.78c-2.25,0-3.7,1.13-3.7,2.87s1.45,2.86,3.7,2.86S714,36.31,714,34.58,712.49,31.71,710.24,31.71Z"/><path class="cls-1" d="M710.24,38.29c-2.91,0-4.66-1.57-4.66-3.71s1.75-3.71,4.66-3.71,4.67,1.56,4.67,3.71S713.16,38.29,710.24,38.29Zm0-.65c2.29,0,3.91-1.14,3.91-3.06s-1.62-3.07-3.91-3.07-3.91,1.14-3.91,3.07S708,37.64,710.24,37.64Zm8.14,1.76h.76v6.21h-12.3V39.4h.75v2.23h10.79Zm0,5.53V42.3H707.59v2.63Zm.76-14.33v8h-.76v-8Z"/><path class="cls-1" d="M735.48,30.4h1.17V46.17l-1.17,0ZM723.36,45.09V31h1.16V44h5.27a10,10,0,0,0,3.89-.73l.29-.14v1.16l-.11.06a10.07,10.07,0,0,1-4.07.77Z"/><path class="cls-1" d="M724.32,44.17h5.47a10.19,10.19,0,0,0,4-.75v.72a9.94,9.94,0,0,1-4,.75h-6.23V31.23h.76ZM736.45,46l-.77,0V30.6h.77Z"/><path class="cls-1" d="M752.38,46.17V30.4h1.16v6.73H756v1.1h-2.43v7.94Zm-11.87-1.08v-14h9.23v1.1h-8.07V44h5.09a10,10,0,0,0,3.9-.75l.28-.14v1.18l-.11,0a10.33,10.33,0,0,1-4.07.76Z"/><path class="cls-1" d="M746.76,44.19a10.14,10.14,0,0,0,4-.77v.73a10.09,10.09,0,0,1-4,.74h-6V31.32h8.83V32h-8.07V44.19Zm9-6.16h-2.44V46h-.75V30.6h.75v6.73h2.44Z"/><path class="cls-1" d="M758,46a1,1,0,1,1,1-1A1,1,0,0,1,758,46Z"/><path class="cls-1" d="M758.84,45a.84.84,0,0,1-.85.84.83.83,0,0,1-.84-.84.84.84,0,0,1,.84-.85A.85.85,0,0,1,758.84,45Z"/><path class="cls-1" d="M13.16,76.17V60.4h1.18V76.17ZM5.5,75.31C2.55,75.31.79,72.62.79,68.1s1.76-7.2,4.71-7.2,4.7,2.69,4.7,7.2S8.44,75.31,5.5,75.31ZM5.5,62C3.29,62,2,64.28,2,68.1s1.32,6.11,3.53,6.11S9,71.92,9,68.1,7.7,62,5.5,62Z"/><path class="cls-1" d="M10,68.1c0,4.74-1.91,7-4.5,7S1,72.84,1,68.1s1.91-7,4.51-7S10,63.37,10,68.1Zm-8.23,0c0,4.27,1.6,6.31,3.73,6.31s3.72-2,3.72-6.31S7.6,61.8,5.5,61.8,1.77,63.84,1.77,68.1ZM14.14,76h-.78V60.6h.78Z"/><path class="cls-1" d="M18.85,75.81v-4.5H20v3.38H32.21v1.12ZM30.6,72.3v-7H27.36V64.18H30.6V60.4h1.18V72.3ZM18.09,69.94v-5h7.24V62H18.05V60.94h8.44v5H19.25v2.88h3.52a15.76,15.76,0,0,0,5.81-.81l.28-.13v1.14l-.11,0a16.35,16.35,0,0,1-6.08.83Z"/><path class="cls-1" d="M25.53,65.1V61.82H18.25v-.68h8v4.64H19.05v3.28h3.72a15.69,15.69,0,0,0,5.89-.83v.7a16.05,16.05,0,0,1-6,.81H18.29V65.1ZM32,74.89v.72h-13v-4.1h.79v3.38ZM30.8,65.06H27.56v-.68H30.8V60.6h.78V72.1H30.8Z"/><path class="cls-1" d="M47.72,76c-4.15,0-6.54-1.14-6.54-3.12s2.39-3.12,6.54-3.12,6.54,1.14,6.54,3.12S51.88,76,47.72,76Zm0-5.13c-3.31,0-5.36.77-5.36,2s2,2,5.36,2,5.37-.77,5.37-2S51,70.9,47.72,70.9ZM53,69.48V64.72H48.51V63.64H53V60.4h1.15v9.08ZM39.76,67.89l.16,0c3-.66,4.87-3.42,4.87-7V60.6l1.15.06v.19a10,10,0,0,1-.58,3.47l5.17,3.54-.69.89-5-3.38A7.13,7.13,0,0,1,40,69l-.24,0Z"/><path class="cls-1" d="M40,68.77v-.72c3.26-.72,5-3.82,5-7.24l.75,0a9.7,9.7,0,0,1-.63,3.55l5.13,3.51-.45.57-5-3.4A6.92,6.92,0,0,1,40,68.77Zm14.1,4.14c0,2-2.77,2.92-6.34,2.92s-6.34-.87-6.34-2.92S44.16,70,47.72,70,54.06,70.86,54.06,72.91Zm-.77,0c0-1.49-2.43-2.21-5.57-2.21s-5.56.72-5.56,2.21,2.43,2.22,5.56,2.22S53.29,74.41,53.29,72.91Zm-.11-8.39H48.71v-.68h4.47V60.6h.75v8.68h-.75Z"/><path class="cls-1" d="M64.68,76c-4.17,0-6.47-1-6.47-2.79s2.3-2.8,6.47-2.8,6.46,1,6.46,2.8S68.85,76,64.68,76Zm0-4.5c-3.27,0-5.29.65-5.29,1.71s2,1.7,5.29,1.7S70,74.29,70,73.24,67.94,71.53,64.68,71.53Zm5-1.33V60.4h1.16v2.43H73.3v1.08H70.88v2.73H73.3v1.09H70.88V70.2Zm-7.35-.45c-2.73,0-4.57-1.16-4.57-2.89s1.84-3,4.57-3,4.58,1.2,4.58,3S65.11,69.75,62.37,69.75Zm0-4.79c-2,0-3.41.78-3.41,1.9s1.37,1.8,3.41,1.8,3.42-.72,3.42-1.8S64.39,65,62.37,65ZM57,63.12V62h4.8V60.13H63V62h4.83v1.1Z"/><path class="cls-1" d="M67.58,62.92H57.19v-.7H62V60.33h.75v1.89h4.83ZM58,66.86c0-1.71,1.82-2.79,4.37-2.79s4.38,1.08,4.38,2.79-1.82,2.68-4.38,2.68S58,68.5,58,66.86Zm12.94,6.38c0,1.87-2.71,2.59-6.26,2.59s-6.27-.72-6.27-2.59,2.72-2.6,6.27-2.6S70.94,71.36,70.94,73.24ZM58.75,66.86c0,1.15,1.39,2,3.62,2S66,68,66,66.86s-1.38-2.1-3.62-2.1S58.75,65.66,58.75,66.86Zm11.42,6.38c0-1.32-2.38-1.91-5.49-1.91s-5.49.59-5.49,1.91,2.37,1.9,5.49,1.9S70.17,74.55,70.17,73.24Zm.5-9.53v3.13H73.1v.69H70.67V70h-.75V60.6h.75V63H73.1v.68Z"/><path class="cls-1" d="M87.47,76.17V60.4h1.17V76.17Zm-7.67-.86c-3,0-4.7-2.69-4.7-7.21s1.75-7.2,4.7-7.2,4.7,2.69,4.7,7.2S82.74,75.31,79.8,75.31ZM79.8,62c-2.21,0-3.53,2.28-3.53,6.1s1.32,6.11,3.53,6.11,3.52-2.29,3.52-6.11S82,62,79.8,62Z"/><path class="cls-1" d="M84.3,68.1c0,4.74-1.91,7-4.5,7s-4.5-2.27-4.5-7,1.91-7,4.5-7S84.3,63.37,84.3,68.1Zm-8.23,0c0,4.27,1.6,6.31,3.73,6.31s3.72-2,3.72-6.31-1.62-6.3-3.72-6.3S76.07,63.84,76.07,68.1ZM88.44,76h-.77V60.6h.77Z"/><path class="cls-1" d="M97.76,75.9V74.8h3v-4H97.94v-1.1H110.8v1.1H108v4h3v1.1Zm9.07-1.1v-4H101.9v4ZM109.39,69V60.4h1.16v3.54H113v1.11h-2.43V69Zm-7.74-.54c-2.91,0-4.79-1.52-4.79-3.87s1.92-3.91,4.79-3.91,4.79,1.57,4.79,3.91S104.56,68.45,101.65,68.45Zm0-6.74c-2.21,0-3.64,1.13-3.64,2.87s1.4,2.82,3.64,2.82,3.64-1.08,3.64-2.82S103.86,61.71,101.65,61.71Z"/><path class="cls-1" d="M97.06,64.58c0-2.15,1.71-3.71,4.59-3.71s4.59,1.56,4.59,3.71-1.71,3.67-4.59,3.67S97.06,66.72,97.06,64.58Zm.75,0c0,1.92,1.59,3,3.84,3s3.84-1.1,3.84-3-1.59-3.07-3.84-3.07S97.81,62.65,97.81,64.58Zm10,10.42h3v.7H98V75h3V70.64H98.14v-.7H110.6v.7h-2.81Zm-6.09,0H107V70.64H101.7Zm11.08-10.86v.71h-2.43v3.94h-.76V60.6h.76v3.54Z"/><path class="cls-1" d="M113.94,75.27v-1.1h15.6v1.1Zm7.8-4.55c-4.2,0-6.92-1.93-6.92-4.92s2.72-4.92,6.92-4.92,6.91,1.93,6.91,4.92S125.94,70.72,121.74,70.72Zm0-8.73c-3.49,0-5.74,1.49-5.74,3.81s2.25,3.82,5.74,3.82,5.74-1.5,5.74-3.82S125.23,62,121.74,62Z"/><path class="cls-1" d="M129.34,75.07h-15.2v-.7h15.2Zm-.89-9.27c0,2.88-2.62,4.72-6.71,4.72S115,68.68,115,65.8s2.63-4.72,6.72-4.72S128.45,62.92,128.45,65.8Zm-12.65,0c0,2.41,2.34,4,5.94,4s5.94-1.61,5.94-4-2.34-4-5.94-4S115.8,63.39,115.8,65.8Z"/><polygon class="cls-1" points="131.26 75.27 131.26 74.17 138.42 74.17 138.42 70.7 132.44 70.7 132.44 65.35 144.58 65.35 144.58 62.22 132.44 62.22 132.44 61.12 145.74 61.12 145.74 66.45 133.6 66.45 133.6 69.6 146.01 69.6 146.01 70.7 139.58 70.7 139.58 74.17 146.85 74.17 146.85 75.27 131.26 75.27"/><path class="cls-1" d="M146.65,74.37v.7H131.46v-.7h7.16V70.5h-6v-5h12.14V62H132.64v-.7h12.9v4.93H133.4V69.8h12.41v.7h-6.43v3.87Z"/><path class="cls-1" d="M155.25,75.81V71.9H167V70.18H155.21v-1.1h12.9V73h-11.7v1.72h12.24v1.1ZM167,68.39V64.9h-4.32c-1.14,2-3.83,3-8.21,3h-.2v-1.1h.2c5.22,0,7.65-1.42,7.65-4.45V62h-7.85v-1.1h9v1.42a5.8,5.8,0,0,1-.17,1.44H167V60.4h1.16v8Z"/><path class="cls-1" d="M154.42,67.71V67c4.88,0,7.85-1.25,7.85-4.65v-.52h-7.85v-.7H163v1.22A5.29,5.29,0,0,1,162.8,64h4.35V60.6h.76v7.59h-.76V64.7h-4.64C161.39,66.83,158.53,67.71,154.42,67.71Zm14,7.2v.7h-13V72.1h11.7V70H155.41v-.7h12.5v3.51h-11.7v2.12Z"/><path class="cls-1" d="M184.27,76.17V68.36h-3.33c-.07,4.35-1.79,7-4.63,7s-4.63-2.69-4.63-7.21,1.73-7.2,4.63-7.2c2.69,0,4.4,2.37,4.61,6.36h3.35V60.4h1.16V76.17Zm-8-14.17c-2.16,0-3.45,2.28-3.45,6.1s1.29,6.11,3.45,6.11,3.46-2.29,3.46-6.11S178.48,62,176.31,62Z"/><path class="cls-1" d="M185.23,60.6V76h-.76V68.16h-3.73c0,4.7-1.89,7-4.43,7s-4.43-2.27-4.43-7,1.88-7,4.43-7,4.25,2,4.41,6.36h3.75V60.6ZM180,68.1c0-4.26-1.57-6.3-3.66-6.3s-3.65,2-3.65,6.3,1.56,6.31,3.65,6.31S180,72.37,180,68.1Z"/><path class="cls-1" d="M189.49,75.81V71.9H201V70.18H189.45v-1.1h12.72V73H190.68v1.72h12v1.1ZM201,68.39v-8h1.16v3.18h2.43v1.11h-2.43v3.7Zm-12.24-.48v-1.1h.2c5.21,0,7.65-1.42,7.65-4.45V62h-7.85v-1.1h9v1.42c0,3.73-2.88,5.55-8.8,5.55Z"/><path class="cls-1" d="M189,67.71V67c4.87,0,7.85-1.25,7.85-4.65v-.52H189v-.7h8.6v1.22C197.57,66.21,194.33,67.71,189,67.71Zm1.51,7.2h12v.7H189.69V72.1h11.5V70H189.65v-.7H202v3.51H190.48ZM204.4,63.78v.71H202v3.7h-.76V60.6H202v3.18Z"/><path class="cls-1" d="M223.78,60.4H225V76.17l-1.17,0Zm-12.1,14.69v-14h9.37v1.1h-8.2V74h5.24a10,10,0,0,0,3.89-.75l.29-.14v1.18l-.11,0a10.36,10.36,0,0,1-4.07.76Z"/><path class="cls-1" d="M220.85,62h-8.2V74.19h5.44a10.17,10.17,0,0,0,4-.77v.73a10.13,10.13,0,0,1-4,.74h-6.21V61.32h9ZM224.75,76,224,76V60.6h.77Z"/><path class="cls-1" d="M240.68,76.17V60.4h1.16v6.73h2.43v1.1h-2.43v7.94ZM228.17,74l.15,0c2.77-.66,4.54-5.16,4.63-11.76h-4.48v-1.1h10.05v1.1h-4.41a30.9,30.9,0,0,1-.52,5.51L239,74.3l-.91.69-4.84-5.91c-.94,3.45-2.62,5.53-4.88,6l-.24,0Z"/><path class="cls-1" d="M233.37,67.78l5.39,6.48-.6.45-5-6.07c-.88,3.55-2.54,5.77-4.82,6.25v-.72c3.11-.74,4.73-5.79,4.79-12.15h-4.49v-.7h9.65V62h-4.41A30.58,30.58,0,0,1,233.37,67.78Zm10.7.25h-2.43V76h-.76V60.6h.76v6.73h2.43Z"/><path class="cls-1" d="M258.43,76.17V60.4h1.17V76.17Zm-7.67-.86c-2.94,0-4.7-2.69-4.7-7.21s1.76-7.2,4.7-7.2,4.7,2.69,4.7,7.2S253.7,75.31,250.76,75.31Zm0-13.31c-2.21,0-3.53,2.28-3.53,6.1s1.32,6.11,3.53,6.11,3.53-2.29,3.53-6.11S253,62,250.76,62Z"/><path class="cls-1" d="M255.26,68.1c0,4.74-1.91,7-4.5,7s-4.5-2.27-4.5-7,1.91-7,4.5-7S255.26,63.37,255.26,68.1Zm-8.23,0c0,4.27,1.61,6.31,3.73,6.31s3.73-2,3.73-6.31-1.62-6.3-3.73-6.3S247,63.84,247,68.1ZM259.4,76h-.77V60.6h.77Z"/><path class="cls-1" d="M275.89,76.17V67.44h-6.45v-1.1h6.45V60.4H277V76.17Zm-12.35-1.08V61h1.15V74h4.88a10,10,0,0,0,3.89-.72l.29-.13v1.16l-.11,0a9.91,9.91,0,0,1-4.07.76Z"/><path class="cls-1" d="M269.57,74.17a10.2,10.2,0,0,0,4-.74v.72a9.78,9.78,0,0,1-4,.74h-5.83V61.23h.75V74.17Zm7.27-13.57V76h-.75V67.24h-6.45v-.7h6.45V60.6Z"/><path class="cls-1" d="M286.4,75.81V71.9h11.68V70.18H286.36v-1.1h12.9V73H287.59v1.72H299.8v1.1Zm11.7-7.42v-8h1.16v8Zm-12.51-.48v-1.1h.2c5.33,0,7.81-1.42,7.81-4.45V62h-8v-1.1h9.17v1.42c0,3.73-2.94,5.55-9,5.55Z"/><path class="cls-1" d="M294.56,62.36c0,3.89-3.41,5.35-8.77,5.35V67c4.88,0,8-1.21,8-4.65v-.52h-8v-.7h8.77Zm4.5,10.43H287.39v2.12H299.6v.7h-13V72.1h11.68V70H286.56v-.7h12.5Zm0-4.6h-.76V60.6h.76Z"/><path class="cls-1" d="M315.85,76.17V60.4H317V76.17Zm-3.6-.27V68.36h-2.41c0,4.61-1.27,7-3.62,7s-3.62-2.43-3.62-7.21,1.21-7.2,3.62-7.2c2.26,0,3.47,2.14,3.61,6.36h2.42V60.5h1.15V75.9Zm-6-13.9c-1.64,0-2.47,2.06-2.47,6.1s.83,6.11,2.47,6.11,2.46-2.06,2.46-6.11S307.85,62,306.22,62Z"/><path class="cls-1" d="M312.45,60.7h.75v15h-.75V68.16h-2.81c0,4.7-1.19,7-3.42,7s-3.42-2.27-3.42-7,1.18-7,3.42-7,3.31,2,3.42,6.36h2.81Zm-3.57,7.4c0-4.26-.9-6.3-2.66-6.3s-2.67,2-2.67,6.3.9,6.31,2.67,6.31S308.88,72.37,308.88,68.1Zm7.92-7.5V76h-.75V60.6Z"/><path class="cls-1" d="M337.32,75.81V70.48h-4.57V69.4h5.75v6.41Zm-11.67,0V72.06H331V70.48h-5.33V69.4h6.47v3.73h-5.28v1.6h6.05v1.08Zm11.69-7.09V60.4h1.16v3.29h2.43v1.1H338.5v3.93Zm-12-.83V60.76h1.16v2.48h6.75V60.76h1.16v7.13Zm7.91-1.08V64.33h-6.75v2.48Z"/><path class="cls-1" d="M334.16,67.69h-8.67V61h.76v2.48h7.15V61h.76Zm-7.55,7.24h6.05v.68h-6.81V72.26h5.3v-2h-5.33V69.6h6.07v3.33h-5.28ZM333.4,67V64.13h-7.15V67ZM333,69.6h5.35v6h-.78V70.28H333Zm7.78-5H338.3v3.93h-.76V60.6h.76v3.29h2.43Z"/><path class="cls-1" d="M343.11,75.83V71.22h1.16v3.51h12.37v1.1Zm-1.22-6v-1.1h15.6v1.1Zm7.8-2.59c-3.15,0-6.83-.9-6.83-3.42s3.68-3.43,6.83-3.43,6.82.9,6.82,3.43S352.84,67.28,349.69,67.28Zm0-5.74c-2.81,0-5.65.79-5.65,2.32s2.84,2.32,5.65,2.32,5.65-.8,5.65-2.32S352.5,61.54,349.69,61.54Z"/><path class="cls-1" d="M357.29,69.67h-15.2V69h15.2Zm-1-5.81c0,2.17-3.16,3.22-6.62,3.22s-6.63-1-6.63-3.22,3.17-3.23,6.63-3.23S356.31,61.68,356.31,63.86ZM344.07,74.93h12.37v.7H343.31V71.42h.76Zm-.23-11.07c0,1.65,2.86,2.52,5.85,2.52s5.85-.87,5.85-2.52-2.86-2.53-5.85-2.53S343.84,62.2,343.84,63.86Z"/><path class="cls-1" d="M371.89,73.37a8.46,8.46,0,0,1-6.24,2.44h-.2v-1.1h.2c2.51,0,5.44-1.2,6-3.16h-6.11V70.46h6.14V68.52h1.18v1.94H379v1.09h-6.16a4.2,4.2,0,0,1-.31.88l6.79,2.64-.47,1Zm5.55-4v-9h1.16v9Zm-12.31-1.48V60.76h1.16v2.5h6.9v-2.5h1.16v7.15Zm8.06-1.09V64.34h-6.9v2.48Z"/><path class="cls-1" d="M374.15,67.71h-8.82V61h.75v2.5h7.31V61h.76Zm4.57,8.14-6.89-2.72a8.18,8.18,0,0,1-6.18,2.48v-.7c2.83,0,5.85-1.4,6.25-3.56h-6.16v-.69h6.14V68.72h.78v1.94h6.12v.69h-6.12a3.67,3.67,0,0,1-.44,1.18L379,75.18ZM373.39,67V64.14h-7.31V67Zm5,2.17h-.76V60.6h.76Z"/><path class="cls-1" d="M382.75,75.83V72.24h12.08V70.86H382.71V69.78H396v3.53H383.91v1.44h12.42v1.08Zm-1.19-7.49V67.26h15.6v1.08Zm7.8-2.07c-4.3,0-6.77-1-6.77-2.88s2.47-2.89,6.77-2.89,6.77,1,6.77,2.89S393.66,66.27,389.36,66.27Zm0-4.68c-3.45,0-5.6.69-5.6,1.8s2.15,1.8,5.6,1.8,5.6-.69,5.6-1.8S392.81,61.59,389.36,61.59Z"/><path class="cls-1" d="M397,68.14h-15.2v-.68H397Zm-1-4.75c0,2-3.11,2.68-6.57,2.68s-6.57-.72-6.57-2.68,3.11-2.69,6.57-2.69S395.93,61.42,395.93,63.39Zm-.14,9.72H383.71V75h12.42v.68H383V72.44H395V70.66H382.91V70h12.88Zm-12.23-9.72c0,1.46,2.81,2,5.8,2s5.8-.54,5.8-2-2.81-2-5.8-2S383.56,61.93,383.56,63.39Z"/><path class="cls-1" d="M417.12,76.17V60.4h1.15V76.17ZM405,75.09V60.94h1.17v5.92h6.46V60.94h1.16V75.09Zm7.63-1.1V68h-6.46v6Z"/><path class="cls-1" d="M412.81,61.14h.76V74.89h-8.39V61.14H406v5.92h6.86Zm0,13V67.76H406v6.43Zm5.26-13.59V76h-.75V60.6Z"/><path class="cls-1" d="M422.42,75.83V72.41h12.1V71.13H422.38V70.07h6.07V68.54h-7.22V67.45h15.6v1.09h-7.22v1.53h6.05v3.38h-12.1v1.31H436v1.07Zm6.27-11.53c-1.89,1.87-5.48,2.13-6.55,2.17h-.2V65.39h.19c2.71-.07,5.66-1,6.37-2.84h-6.26V61.46h6.23V59.78h1.16v1.68h6.21v1.08h-6.12a3.32,3.32,0,0,1-.32.82l6.81,2.1-.42,1Z"/><path class="cls-1" d="M429.41,68.34v1.93h6v3h-12.1V75H435.8v.67H422.62v-3h12.1V70.93H422.58v-.66h6.07V68.34h-7.22v-.69h15.2v.69Zm-7.27-2.07v-.69c2.61-.07,6-1,6.64-3.24h-6.34v-.68h6.23V60h.76v1.68h6.21v.68h-6.09a3,3,0,0,1-.45,1.14l6.84,2.1-.27.67-7-2.18C427.18,65.6,424.37,66.2,422.14,66.27Z"/><path class="cls-1" d="M451.62,72.52a8.41,8.41,0,0,1-6.44,3.29H445V74.7h.2a7,7,0,0,0,6.58-5.21l0-.18,1.17.21,0,.2a6.79,6.79,0,0,1-.68,1.88l6.64,3.54-.64.94Zm5.31-1.15V65.73h-4.3c-1.16,2.55-4,3.89-8.23,3.89h-.2V68.48h.2c3.49,0,7.65-1,7.65-5.61V62H444.2v-1.1h9v1.91a7.89,7.89,0,0,1-.2,1.78h3.92V60.4h1.16v11Z"/><path class="cls-1" d="M444.4,69.42v-.74c4.88,0,7.85-1.85,7.85-5.81v-1H444.4v-.7H453v1.71a7.24,7.24,0,0,1-.26,2h4.38V60.6h.76V71.17h-.76V65.53H452.5C451.39,68.14,448.5,69.42,444.4,69.42Zm13.77,6.39-6.6-3.55a8.23,8.23,0,0,1-6.4,3.35v-.72a7.18,7.18,0,0,0,6.77-5.36l.78.14a6.47,6.47,0,0,1-.76,2l6.63,3.53Z"/><path class="cls-1" d="M462.56,75.81V69.2h1.16v2.23H474.1V69.2h1.16v6.61Zm11.54-1.08V72.5H463.72v2.23Zm0-5.9V60.4h1.16v8.43Zm-7.93-.34c-2.91,0-4.87-1.58-4.87-3.91s2-3.91,4.87-3.91S471,62.24,471,64.58,469.07,68.49,466.17,68.49Zm0-6.78c-2.26,0-3.71,1.13-3.71,2.87s1.45,2.86,3.71,2.86,3.7-1.13,3.7-2.86S468.42,61.71,466.17,61.71Z"/><path class="cls-1" d="M466.17,68.29c-2.92,0-4.67-1.57-4.67-3.71s1.75-3.71,4.67-3.71,4.66,1.56,4.66,3.71S469.08,68.29,466.17,68.29Zm0-.65c2.28,0,3.9-1.14,3.9-3.06s-1.62-3.07-3.9-3.07-3.91,1.14-3.91,3.07S463.88,67.64,466.17,67.64Zm8.13,1.76h.76v6.21h-12.3V69.4h.76v2.23H474.3Zm0,5.53V72.3H463.52v2.63Zm.76-14.33v8h-.76v-8Z"/><path class="cls-1" d="M491.4,60.4h1.17V76.17l-1.17,0ZM479.28,75.09V61h1.16V74h5.27a10.08,10.08,0,0,0,3.9-.73l.28-.14v1.16l-.11.06a10,10,0,0,1-4.07.77Z"/><path class="cls-1" d="M480.24,74.17h5.47a10.19,10.19,0,0,0,4-.75v.72a9.94,9.94,0,0,1-4,.75h-6.23V61.23h.76ZM492.37,76l-.77,0V60.6h.77Z"/><path class="cls-1" d="M508.3,76.17V60.4h1.16v6.73h2.43v1.1h-2.43v7.94Zm-11.86-1.08v-14h9.22v1.1h-8.07V74h5.1a10,10,0,0,0,3.89-.75l.29-.14v1.18l-.12,0a10.31,10.31,0,0,1-4.06.76Z"/><path class="cls-1" d="M502.69,74.19a10.21,10.21,0,0,0,4-.77v.73a10.16,10.16,0,0,1-4,.74h-6.05V61.32h8.82V62h-8.07V74.19Zm9-6.16h-2.43V76h-.76V60.6h.76v6.73h2.43Z"/><path class="cls-1" d="M513.92,76a1,1,0,1,1,1-1A1,1,0,0,1,513.92,76Z"/><path class="cls-1" d="M514.76,75a.85.85,0,0,1-1.69,0,.85.85,0,1,1,1.69,0Z"/></g></g></svg>