<svg xmlns="http://www.w3.org/2000/svg" viewBox="0 0 1920 1080"><defs><style>.cls-1{fill:#fff;}.cls-2{fill:none;}</style></defs><g id="레이어_2" data-name="레이어 2"><g id="레이어_1-2" data-name="레이어 1"><path class="cls-1" d="M848.86,714.88V842.16h4v.6H833.64v-.6h4V716.57L804.09,825.19l5.42,17.57H798.22L759.29,716.57V822.14a20.07,20.07,0,0,0,18.9,20l0,.6H754.73v-.6h4V714.88h-4v-.6h15.14l33.91,109.89,33.9-109.89h15.14v.6Z"/><path class="cls-1" d="M993.76,778.52a64.19,64.19,0,0,1-63.55,64.24h-1.38a64.24,64.24,0,0,1,0-128.48h1.38a64.17,64.17,0,0,1,63.55,64.24Zm-11.26,0c0-16.87-5.43-32.76-15.31-44.76s-23-18.67-37-18.88h-1.38c-14,.21-27.13,6.92-37,18.89s-15.31,27.88-15.31,44.75,5.43,32.76,15.31,44.75,23,18.67,37,18.88h1.38c14-.21,27.13-6.92,37-18.88S982.5,795.38,982.5,778.52Z"/><path class="cls-1" d="M1134.9,778.52a64.2,64.2,0,0,1-63.55,64.24H1070a64.24,64.24,0,0,1,0-128.48h1.39a64.2,64.2,0,0,1,63.55,64.24Zm-11.26,0c0-16.87-5.44-32.76-15.31-44.76s-23-18.67-37-18.88H1070c-14,.21-27.13,6.92-37,18.89s-15.31,27.88-15.31,44.75,5.44,32.76,15.31,44.75,23,18.67,37,18.88h1.37c14-.21,27.13-6.92,37-18.88S1123.64,795.38,1123.64,778.52Z"/><path class="cls-1" d="M1237.06,714.28v.6h-4V842.76H1222l-69.86-127V822.13a20.06,20.06,0,0,0,18.89,20v.6h-23.45v-.6h4V714.88h-4v-.6h15.1l69.86,127V734.89a20,20,0,0,0-18.9-20l0-.6Z"/><rect class="cls-2" width="1920" height="1080"/></g></g></svg>