<svg xmlns="http://www.w3.org/2000/svg" viewBox="0 0 1920 1080"><defs><style>.cls-1{fill:#fff;}.cls-2{fill:none;}</style></defs><g id="레이어_2" data-name="레이어 2"><g id="레이어_1-2" data-name="레이어 1"><path class="cls-1" d="M298.66,280.47h7.2v14.4H266.44v108H252v-108H212.26v-14.4h86.4Z"/><path class="cls-1" d="M358.06,316.47a31.44,31.44,0,0,1,21.42,8.27q12.78,11,12.78,29v41.94l.18,7.37H378.22l-.18-7.2-.18-42.11a25.56,25.56,0,0,0-3.42-13q-5.94-9.88-16.38-9.89a17.69,17.69,0,0,0-11.16,3.95q-8.64,6.85-8.64,18.91v49.14h-14.4V284.78h14.4V323.3A33,33,0,0,1,358.06,316.47Z"/><path class="cls-1" d="M486.94,386q-12.6,16.92-33.48,16.92-14.58,0-25.92-10.44-13.68-12.78-13.68-32.76a44.39,44.39,0,0,1,10.26-29.17q11.88-14,29.34-14,14.58,0,25.74,10.44,13.86,12.78,13.86,32.76v7.2H429A31.27,31.27,0,0,0,433.3,377q7.56,11.52,20.16,11.52,13.32,0,22-11.17Zm-8.28-33.48q0-5.22-4.86-11.34-8.46-10.28-20.34-10.26a22.17,22.17,0,0,0-10.62,2.69Q432,339.16,429,352.47Z"/><path class="cls-1" d="M240.7,492.87h16.74l-6.66,11q-4.14,6.86-7.2,12.79-13,25.36-13.32,57.24,0,42.3,20.16,69.47l8.64,11.53h-18L238.9,652q-23-30.78-23-78.12a160.78,160.78,0,0,1,2.88-29.7q4.32-22.7,19.8-47.89Z"/><path class="cls-1" d="M366.7,609.69l2.88,9.18H354.46L353,613.65q-5.94-19.62-10.8-30.07-5.76-12-14.58-18.71H291.46v54h-14.4v-61.2l.18-53.83v-7.19h7.2l45.54-.18a37.17,37.17,0,0,1,24.48,8.64q12.6,10.26,12.6,25.73a31.19,31.19,0,0,1-2.16,11.35q-5,13.5-19.26,19.61Q356.08,574.06,366.7,609.69Zm-59.58-59.22h23a24.92,24.92,0,0,0,12.42-3.24q10.08-5.76,10.08-16.39a18.42,18.42,0,0,0-4-11.34Q342,510.86,330,510.87H291.46v39.78H307.3Z"/><path class="cls-1" d="M458.14,602q-12.6,16.92-33.48,16.92-14.58,0-25.92-10.44-13.68-12.78-13.68-32.76a44.39,44.39,0,0,1,10.26-29.17q11.88-14,29.34-14,14.58,0,25.74,10.44,13.86,12.78,13.86,32.76v7.2H400.18A31.27,31.27,0,0,0,404.5,593q7.56,11.52,20.16,11.52,13.32,0,22-11.17Zm-8.28-33.48q0-5.22-4.86-11.34-8.46-10.27-20.34-10.26A22.17,22.17,0,0,0,414,549.56q-10.8,5.6-13.86,18.91Z"/><path class="cls-1" d="M475.24,532.47h15.48l1.8,4.5,22.32,55.26,22-55.26,1.8-4.5h15.48l-4,9.9-28.62,72-1.8,4.5H510l-1.8-4.5-29-72Z"/><path class="cls-1" d="M575.68,546.32q11.7-13.85,29-13.85,14.58,0,25.74,10.44,13.86,12.78,13.86,32.76A43.66,43.66,0,0,1,633.64,605q-11.7,13.88-29,13.87-14.58,0-25.74-10.44Q565,595.65,565.06,575.67A43.7,43.7,0,0,1,575.68,546.32Zm9,46.81q7.56,11.34,20,11.34a22.48,22.48,0,0,0,15.12-5.76q10.08-8.82,10.08-23a31.07,31.07,0,0,0-5.22-17.46q-7.56-11.34-20-11.34a22.44,22.44,0,0,0-15.12,5.76q-10.1,8.82-10.08,23A31,31,0,0,0,584.68,593.13Z"/><path class="cls-1" d="M665.85,489.26h14.4V618.87h-14.4V489.26Z"/><path class="cls-1" d="M697.17,532.65h14.58l-.18,7.19-.18,46.09a17,17,0,0,0,3.42,10.26q6.3,8.28,17.1,8.28a21.71,21.71,0,0,0,11.16-3.06q9.18-5.58,9.18-15.48V539.67l.18-7H767l-.18,7.19-.18,46.09a31,31,0,0,1-7.56,20.52q-10.26,12.42-27.18,12.42a35.08,35.08,0,0,1-22.5-7.74Q697,601.23,697,585.93V539.67Z"/><path class="cls-1" d="M807.51,593.49q.18,10.62,13.14,11h7.2v14.4h-7.2a40.76,40.76,0,0,1-9.54-1.09q-18-4.12-18-24.11v-46.8H781.05v-14.4h12.06V513.56l.18-7h14.58l-.18,7.2v18.73h20.16v14.4H807.69Z"/><path class="cls-1" d="M843.15,521.49V507.08h14.58v14.41H843.15Zm0,11h14.4v86.4h-14.4v-86.4Z"/><path class="cls-1" d="M885.27,546.32q11.7-13.85,29-13.85,14.58,0,25.74,10.44,13.86,12.78,13.86,32.76A43.66,43.66,0,0,1,943.23,605q-11.7,13.88-29,13.87-14.58,0-25.74-10.44-13.86-12.78-13.86-32.76A43.75,43.75,0,0,1,885.27,546.32Zm9,46.81q7.56,11.34,20,11.34a22.48,22.48,0,0,0,15.12-5.76q10.08-8.82,10.08-23a31.07,31.07,0,0,0-5.22-17.46q-7.56-11.34-20-11.34a22.48,22.48,0,0,0-15.12,5.76q-10.08,8.82-10.08,23A31.07,31.07,0,0,0,894.27,593.13Z"/><path class="cls-1" d="M1044,619h-14.22l-.18-7.2-.18-42.11a25.66,25.66,0,0,0-3.42-13q-5.94-9.88-16.38-9.89a17.67,17.67,0,0,0-11.16,4q-8.64,6.85-8.64,18.91v49.14h-14.4v-86.4h14.4v6.83a33,33,0,0,1,19.8-6.83,31.46,31.46,0,0,1,21.42,8.27q12.78,11,12.78,29v41.94Z"/><path class="cls-1" d="M1059.87,492.87h16.74l2.15,3.41q22.5,37.1,22.69,77.59a131.3,131.3,0,0,1-1.45,19.26q-4.68,32.76-21.24,58.5l-2.15,3.24h-17.28l7.2-11.16c1.43-2.17,2.81-4.5,4.14-7a129,129,0,0,0,16.38-62.82q-.19-35.82-20.52-70Z"/><path class="cls-1" d="M226.48,762.32q11.7-13.85,29-13.85,14.58,0,25.74,10.44,13.86,12.78,13.86,32.76A43.66,43.66,0,0,1,284.44,821q-11.7,13.88-29,13.87-14.58,0-25.74-10.44-13.86-12.78-13.86-32.76A43.75,43.75,0,0,1,226.48,762.32Zm9,46.81q7.56,11.34,20,11.34a22.48,22.48,0,0,0,15.12-5.76q10.08-8.82,10.08-23a31.07,31.07,0,0,0-5.22-17.46q-7.56-11.34-20-11.34a22.48,22.48,0,0,0-15.12,5.76q-10.08,8.82-10.08,23A31.07,31.07,0,0,0,235.48,809.13Z"/><path class="cls-1" d="M345.46,748.47h7.2v14.4H332.14v72h-14.4v-72H305.86v-14.4h12.06a91.93,91.93,0,0,1,2.16-15.13q5.94-24.65,25.38-24.65h7.2v14.39h-7.2q-11.16.2-13,25.39Z"/><path class="cls-1" d="M463.71,809.49q.18,10.62,13.15,11h7.2v14.4h-7.2a40.64,40.64,0,0,1-9.54-1.09q-18-4.12-18-24.11v-46.8H437.25v-14.4h12.07V729.56l.18-7h14.58l-.18,7.2v18.73h20.16v14.4H463.9Z"/><path class="cls-1" d="M536.25,748.47a31.44,31.44,0,0,1,21.42,8.27q12.78,11,12.78,29v41.94l.18,7.37H556.41l-.18-7.2-.18-42.11a25.56,25.56,0,0,0-3.42-13q-5.94-9.88-16.38-9.89a17.69,17.69,0,0,0-11.16,4q-8.64,6.85-8.64,18.91v49.14h-14.4V716.78h14.4V755.3A33,33,0,0,1,536.25,748.47Z"/><path class="cls-1" d="M665.13,818q-12.6,16.92-33.48,16.92-14.58,0-25.92-10.44-13.68-12.78-13.68-32.76a44.39,44.39,0,0,1,10.26-29.17q11.88-14,29.34-14,14.58,0,25.74,10.44,13.86,12.78,13.86,32.76v7.2H607.17A31.27,31.27,0,0,0,611.49,809q7.56,11.52,20.16,11.52,13.32,0,22-11.17Zm-8.28-33.48q0-5.22-4.86-11.34-8.46-10.27-20.34-10.26A22.17,22.17,0,0,0,621,765.56q-10.8,5.6-13.86,18.91Z"/><path class="cls-1" d="M752.25,870.87v-14.4h100.8v14.4H752.25Z"/><path class="cls-1" d="M1134.43,476l14,16.6-4,2.77-10.55-19-11.67,18.33-3.82-3,15-15.73-21-5.74,1.73-4.57,19.44,9.69-2.1-21.66h4.87l-2.16,21.66,20.06-8.46,1.48,4.63Z"/><rect class="cls-2" width="1920" height="1080"/></g></g></svg>