<svg xmlns="http://www.w3.org/2000/svg" viewBox="0 0 482.34 128.49"><defs><style>.cls-1{fill:#fff;}</style></defs><g id="레이어_2" data-name="레이어 2"><g id="레이어_1-2" data-name="레이어 1"><path class="cls-1" d="M94.13.6V127.89h4v.6H78.91v-.6h4V2.3L49.36,110.92l5.42,17.57H43.5L4.56,2.3V107.87a20.08,20.08,0,0,0,18.9,20v.6H0v-.61H4V.6H0V0H15.14L49.05,109.89,83,0H98.09V.6Z"/><path class="cls-1" d="M239,64.24a64.19,64.19,0,0,1-63.55,64.24H174.1A64.22,64.22,0,0,1,129.14,19a64,64,0,0,1,45-19h1.38A64.17,64.17,0,0,1,239,64.24Zm-11.25,0c0-16.86-5.44-32.76-15.32-44.75S189.48.82,175.48.6h-1.37c-14,.22-27.14,6.92-37,18.89s-15.31,27.89-15.31,44.75S127.25,97,137.12,109s23,18.68,37,18.89h1.37c14-.21,27.13-6.92,37-18.89S227.78,81.11,227.78,64.24Z"/><path class="cls-1" d="M380.17,64.24a64.2,64.2,0,0,1-63.55,64.24h-1.39a64.2,64.2,0,0,1-63.55-64.24A64.2,64.2,0,0,1,315.23,0h1.39a64.2,64.2,0,0,1,63.55,64.24Zm-11.26,0c0-16.86-5.44-32.76-15.31-44.75S330.61.82,316.61.6h-1.37c-14,.22-27.13,6.92-37,18.89s-15.31,27.89-15.31,44.75S268.38,97,278.25,109s23,18.68,37,18.89h1.37c14-.21,27.13-6.92,37-18.89S368.91,81.11,368.91,64.24Z"/><path class="cls-1" d="M482.34,0V.6h-4V128.49H467.24l-69.86-127V107.86a20.07,20.07,0,0,0,18.9,20l0,.6H392.82v-.61h4V.6h-4V0h15.1l69.86,127V20.62a20.06,20.06,0,0,0-18.9-20l0-.6Z"/></g></g></svg>