<svg xmlns="http://www.w3.org/2000/svg" viewBox="0 0 943.46 590.4"><defs><style>.cls-1{fill:#fff;}</style></defs><g id="레이어_2" data-name="레이어 2"><g id="레이어_1-2" data-name="레이어 1"><path class="cls-1" d="M86.4,0h7.2V14.4H54.18v108H39.78V14.4H0V0H86.4Z"/><path class="cls-1" d="M145.8,36a31.41,31.41,0,0,1,21.42,8.28q12.78,11,12.78,29V115.2l.18,7.38H166l-.18-7.2-.18-42.12a25.52,25.52,0,0,0-3.42-13q-5.94-9.9-16.38-9.9a17.64,17.64,0,0,0-11.16,4Q126,61.2,126,73.26V122.4H111.6V4.32H126V42.84A33,33,0,0,1,145.8,36Z"/><path class="cls-1" d="M274.68,105.48q-12.6,16.92-33.48,16.92-14.58,0-25.92-10.44Q201.6,99.18,201.6,79.2A44.38,44.38,0,0,1,211.86,50q11.88-14,29.34-14,14.58,0,25.74,10.44Q280.8,59.22,280.8,79.2v7.2H216.72A31.27,31.27,0,0,0,221,96.48Q228.6,108,241.2,108q13.32,0,22-11.16ZM266.4,72q0-5.22-4.86-11.34Q253.08,50.4,241.2,50.4a22.18,22.18,0,0,0-10.62,2.7q-10.8,5.58-13.86,18.9Z"/><path class="cls-1" d="M28.44,212.4H45.18l-6.66,11q-4.14,6.84-7.2,12.78Q18.36,261.54,18,293.4q0,42.3,20.16,69.48L46.8,374.4h-18l-2.16-2.88q-23-30.78-23-78.12a160.86,160.86,0,0,1,2.88-29.7Q10.8,241,26.28,215.82Z"/><path class="cls-1" d="M154.44,329.22l2.88,9.18H142.2l-1.44-5.22q-5.94-19.62-10.8-30.06-5.76-12.06-14.58-18.72H79.2v54H64.8V277.2L65,223.38v-7.2h7.2l45.54-.18a37.22,37.22,0,0,1,24.48,8.64q12.6,10.26,12.6,25.74a31.18,31.18,0,0,1-2.16,11.34q-5,13.5-19.26,19.62Q143.82,293.58,154.44,329.22ZM94.86,270h23a24.92,24.92,0,0,0,12.42-3.24Q140.4,261,140.4,250.38a18.38,18.38,0,0,0-4-11.34q-6.66-8.64-18.72-8.64H79.2v39.78H95Z"/><path class="cls-1" d="M245.88,321.48q-12.6,16.92-33.48,16.92-14.58,0-25.92-10.44Q172.8,315.18,172.8,295.2A44.38,44.38,0,0,1,183.06,266q11.88-14,29.34-14,14.58,0,25.74,10.44Q252,275.22,252,295.2v7.2H187.92a31.27,31.27,0,0,0,4.32,10.08Q199.8,324,212.4,324q13.32,0,22-11.16ZM237.6,288q0-5.22-4.86-11.34-8.46-10.26-20.34-10.26a22.18,22.18,0,0,0-10.62,2.7Q191,274.68,187.92,288Z"/><path class="cls-1" d="M263,252h15.48l1.8,4.5,22.32,55.26,22-55.26,1.8-4.5h15.48l-4,9.9-28.62,72-1.8,4.5h-9.72l-1.8-4.5-29-72Z"/><path class="cls-1" d="M363.42,265.86Q375.1,252,392.4,252q14.58,0,25.74,10.44Q432,275.22,432,295.2a43.7,43.7,0,0,1-10.62,29.34q-11.72,13.86-29,13.86-14.58,0-25.74-10.44-13.87-12.78-13.86-32.76A43.65,43.65,0,0,1,363.42,265.86Zm9,46.8Q380,324,392.4,324a22.48,22.48,0,0,0,15.12-5.76q10.07-8.82,10.08-23a31.14,31.14,0,0,0-5.22-17.46q-7.56-11.34-20-11.34a22.44,22.44,0,0,0-15.12,5.76q-10.09,8.82-10.08,23A31,31,0,0,0,372.42,312.66Z"/><path class="cls-1" d="M453.59,208.8H468V338.4h-14.4V208.8Z"/><path class="cls-1" d="M484.91,252.18h14.58l-.18,7.2-.18,46.08a17,17,0,0,0,3.42,10.26q6.3,8.28,17.1,8.28a21.71,21.71,0,0,0,11.16-3.06q9.18-5.58,9.18-15.48V259.2l.18-7h14.58l-.18,7.2-.18,46.08A31,31,0,0,1,546.83,326q-10.26,12.42-27.18,12.42a35.08,35.08,0,0,1-22.5-7.74q-12.42-9.9-12.42-25.2V259.2Z"/><path class="cls-1" d="M595.25,313q.18,10.62,13.14,11h7.2v14.4h-7.2a40.77,40.77,0,0,1-9.54-1.08q-18-4.14-18-24.12V266.4H568.79V252h12.06V233.1l.18-7h14.58l-.18,7.2V252h20.16v14.4H595.43Z"/><path class="cls-1" d="M630.89,241v-14.4h14.58V241H630.89Zm0,11h14.4v86.4h-14.4V252Z"/><path class="cls-1" d="M673,265.86Q684.71,252,702,252q14.58,0,25.74,10.44,13.86,12.78,13.86,32.76A43.7,43.7,0,0,1,731,324.54q-11.7,13.86-29,13.86-14.58,0-25.74-10.44-13.86-12.78-13.86-32.76A43.7,43.7,0,0,1,673,265.86Zm9,46.8Q689.57,324,702,324a22.48,22.48,0,0,0,15.12-5.76q10.08-8.82,10.08-23A31.07,31.07,0,0,0,722,277.74q-7.56-11.34-20-11.34a22.48,22.48,0,0,0-15.12,5.76q-10.08,8.82-10.08,23A31.07,31.07,0,0,0,682,312.66Z"/><path class="cls-1" d="M831.77,338.58H817.54l-.17-7.2-.18-42.12a25.62,25.62,0,0,0-3.42-13q-6-9.9-16.39-9.9a17.59,17.59,0,0,0-11.15,4q-8.65,6.84-8.65,18.9V338.4H763.19V252h14.39v6.84a33,33,0,0,1,19.8-6.84,31.41,31.41,0,0,1,21.42,8.28q12.78,11,12.78,29V331.2Z"/><path class="cls-1" d="M847.6,212.4h16.74l2.16,3.42Q889,252.9,889.18,293.4a131.28,131.28,0,0,1-1.44,19.26q-4.68,32.76-21.24,58.5l-2.16,3.24H847.06l7.2-11.16a77.36,77.36,0,0,0,4.14-7,128.85,128.85,0,0,0,16.38-62.82q-.18-35.82-20.52-70Z"/><path class="cls-1" d="M14.22,481.86Q25.92,468,43.2,468q14.58,0,25.74,10.44Q82.8,491.22,82.8,511.2a43.7,43.7,0,0,1-10.62,29.34q-11.7,13.86-29,13.86-14.58,0-25.74-10.44Q3.6,531.18,3.6,511.2A43.7,43.7,0,0,1,14.22,481.86Zm9,46.8Q30.78,540,43.2,540a22.48,22.48,0,0,0,15.12-5.76q10.08-8.82,10.08-23a31.07,31.07,0,0,0-5.22-17.46q-7.56-11.34-20-11.34a22.48,22.48,0,0,0-15.12,5.76Q18,497,18,511.2A31.07,31.07,0,0,0,23.22,528.66Z"/><path class="cls-1" d="M133.2,468h7.2v14.4H119.88v72h-14.4v-72H93.6V468h12.06a91.64,91.64,0,0,1,2.16-15.12q5.94-24.66,25.38-24.66h7.2v14.4h-7.2q-11.16.18-13,25.38Z"/><path class="cls-1" d="M251.45,529q.18,10.62,13.14,11h7.2v14.4h-7.2a40.77,40.77,0,0,1-9.54-1.08q-18-4.14-18-24.12V482.4H225V468h12.06V449.1l.18-7h14.58l-.18,7.2V468h20.16v14.4H251.63Z"/><path class="cls-1" d="M324,468a31.41,31.41,0,0,1,21.42,8.28q12.78,11,12.78,29V547.2l.18,7.38H344.15l-.18-7.2-.18-42.12a25.52,25.52,0,0,0-3.42-13q-5.94-9.9-16.38-9.9a17.64,17.64,0,0,0-11.16,4q-8.64,6.84-8.64,18.9V554.4h-14.4V436.32h14.4v38.52A33,33,0,0,1,324,468Z"/><path class="cls-1" d="M452.87,537.48q-12.6,16.92-33.48,16.92-14.58,0-25.92-10.44-13.68-12.78-13.68-32.76A44.38,44.38,0,0,1,390.05,482q11.88-14,29.34-14,14.58,0,25.74,10.44Q459,491.22,459,511.2v7.2H394.91a31.27,31.27,0,0,0,4.32,10.08Q406.79,540,419.39,540q13.32,0,22-11.16ZM444.59,504q0-5.22-4.86-11.34-8.46-10.26-20.34-10.26a22.18,22.18,0,0,0-10.62,2.7Q398,490.68,394.91,504Z"/><path class="cls-1" d="M540,590.4V576h100.8v14.4H540Z"/><path class="cls-1" d="M922.17,195.54l14,16.6-4,2.78-10.56-19L910,214.24l-3.82-3,15-15.74-21-5.74,1.73-4.57,19.44,9.69-2.1-21.66h4.87l-2.16,21.66L942,186.47l1.48,4.63Z"/></g></g></svg>