<svg xmlns="http://www.w3.org/2000/svg" viewBox="0 0 447.46 447.46"><defs><style>.cls-1{fill:#72a2ff;}.cls-2{fill:#ff985c;}.cls-3{fill:#fff;}</style></defs><g id="레이어_2" data-name="레이어 2"><g id="레이어_1-2" data-name="레이어 1"><path class="cls-1" d="M147.39,163.24H136.12V133.35c-2.12,12.94-7.8,30.56-23.42,30.56-9,0-20.18-7.81-20.63-22.08-.67-27.55,25-32.23,37.36-32.23a23.33,23.33,0,0,1,6.69,1V91.42c0-3.9-.33-5-2.56-5.35v-.9l10.59-2.34h.78v73.05c0,3.91.79,5.58,2.46,6.58Zm-11.27-36.47V111.16a24.62,24.62,0,0,0-6.69-1c-10.82.22-30.22,4.9-28.66,33.34.56,9.71,7.36,20.19,17,18.4C130.21,159.45,136.12,136.14,136.12,126.77Z"/><path class="cls-1" d="M213.3,134.36c0,17.84-15.28,29.55-30.22,29.55s-27.88-9.14-27.88-24.76c0-18.4,15.28-29.55,30.22-29.55S213.3,119,213.3,134.36Zm-9.37-3.57c-3.9-13.38-14.38-22.87-27.1-19.18s-16.17,17.62-12.27,31.11,14.39,23,27.11,19.18S207.84,144.28,203.93,130.79Z"/><path class="cls-1" d="M297.06,109.6v.89c-4.46,4.24-7.58,9-11.15,17.51L276,154l3.57,9.25h-8.81S257,127.33,256.46,125.88l-9.14,29.44,3.34,7.92h-8.81L228,130.68c-4.68-10.93-7-15.73-12.49-20.19v-.89h17.18v.89c-2.9,3-1.9,6,.67,12.27l13.38,31.45L256,124.77c-2.79-6.92-4.8-10.71-9.15-14.28v-.89h17.18v.89c-3.35,3.46-1.9,7,1.11,15.17l10.49,27.21L283.9,131c4-10.37,5-16.5,0-20.52v-.89Z"/><path class="cls-1" d="M357.73,162.46v.78H343.9v-.78c1.79-1,2.23-2.9,1.9-6.58s-2-22.53-2.57-28.33c-.78-8.36-4.9-17.84-14.49-15.94-12.5,2.45-14.84,25.76-14.84,35.13v9.14c0,3.91.78,5.58,2.57,6.58v.78H302.64v-.78c1.67-1,2.45-2.67,2.45-6.58V118.19c0-3.91-.33-5-2.45-5.36v-.78l10.48-2.45h.78v27.66c1.45-12.49,5.24-27.66,19.74-27.66,9.15,0,17,6.24,18.29,19.63,1.12,10.82,2.23,22.53,2.68,26.65S356.06,161.46,357.73,162.46Z"/><path class="cls-2" d="M60.9,255.46v.78H47.18v-.78c1.67-1,2.45-2.67,2.45-6.58V184.42c0-3.9-.33-5-2.45-5.35v-.9l10.48-2.34h.78v73C58.44,252.79,59.23,254.46,60.9,255.46Z"/><path class="cls-2" d="M126.81,227.36c0,17.84-15.28,29.55-30.22,29.55s-27.88-9.14-27.88-24.76c0-18.4,15.27-29.55,30.22-29.55S126.81,212,126.81,227.36Zm-9.37-3.57c-3.9-13.38-14.38-22.87-27.1-19.18s-16.17,17.62-12.27,31.11,14.39,23,27.1,19.18S121.35,237.28,117.44,223.79Z"/><path class="cls-2" d="M184.36,256.24H173.1V240.63c-2.9,9.81-9,16.28-19.74,16.28-9.15,0-18.07-4.35-19.52-12.38-1.9-11.37,4.91-18.07,13.49-21.63-2.9-6.47.56-20.3,15.51-20.3,9.25,0,19.07,4.91,19.07,18.62v27.66c0,3.91.78,5.58,2.45,6.58ZM173.1,238.62V221.45a21.07,21.07,0,0,0-6.7-1c-12.15,0-28.66,6-23.86,25.65,1.45,6,7.92,9.71,13.49,9.37C165.74,254.9,170.87,246.65,173.1,238.62Zm-24.65-16.17a53.61,53.61,0,0,1,18-3,23.46,23.46,0,0,1,6.7,1v-.78c0-8.47-3.35-15.95-11.27-15.95A14,14,0,0,0,148.45,222.45Z"/><path class="cls-2" d="M247.6,256.24H236.33V226.35c-2.12,12.94-7.8,30.56-23.42,30.56-9,0-20.18-7.81-20.63-22.08-.67-27.55,25-32.23,37.36-32.23a23.33,23.33,0,0,1,6.69,1V184.42c0-3.9-.33-5-2.56-5.35v-.9l10.59-2.34h.78v73c0,3.91.78,5.58,2.46,6.58Zm-11.27-36.47V204.16a24.62,24.62,0,0,0-6.69-1c-10.82.22-30.22,4.9-28.66,33.34.56,9.71,7.36,20.19,17,18.4C230.42,252.45,236.33,229.14,236.33,219.77Z"/><path class="cls-2" d="M269.23,255.46v.78H255.41v-.78c1.67-1,2.45-2.67,2.45-6.58V211.19c0-3.91-.34-5-2.45-5.36v-.78l10.48-2.45h.78v46.28C266.67,252.79,267.45,254.46,269.23,255.46Zm-12.49-67.14a5.25,5.25,0,1,1,5.25,5.24A5.24,5.24,0,0,1,256.74,188.32Z"/><path class="cls-2" d="M332.14,255.46v.78H318.31v-.78c1.78-1,2.23-2.9,1.89-6.58s-2-22.53-2.56-28.33c-.78-8.36-4.91-17.84-14.5-15.94-12.49,2.45-14.83,25.76-14.83,35.13v9.14c0,3.91.78,5.58,2.56,6.58v.78H277v-.78c1.67-1,2.45-2.67,2.45-6.58V211.19c0-3.91-.33-5-2.45-5.36v-.78l10.48-2.45h.79v27.66c1.45-12.49,5.24-27.66,19.74-27.66,9.14,0,16.95,6.24,18.29,19.63,1.11,10.82,2.23,22.53,2.67,26.65S330.46,254.46,332.14,255.46Z"/><path class="cls-2" d="M404.74,261.82c0,8.81-11.15,14.5-20.63,14.5-8,0-11.93-4.35-14.61-8-5.13,3.12-10.71,6-15.95,6.35-5.91.45-10.37-1.67-10.48-6.8-.23-6.8,10.48-10.48,18.29-11.26-13.05-1.56-23.65-10.26-23.65-24.43,0-18.4,15.39-29.55,30.34-29.55a32.83,32.83,0,0,1,12.49,2.45l19.07-5.57.67,5.57-18,.78c8,3.91,13.61,11.38,13.61,21.53,0,17.84-15.28,29.55-30.33,29.55a4.27,4.27,0,0,1-1.12-.11c-7.36.33-16,2.9-15.39,9.59.22,3.68,2.12,6.36,6.24,6.36,5.69.11,12.16-4.24,19.3-8.59,8.25-4.91,15.17-10.71,20.85-10.93C402.18,253.12,404.74,256.91,404.74,261.82Zm-30.45-6.92c12.61-3.68,16.18-17.62,12.27-31.11s-14.38-22.87-27.1-19.18-16.17,17.62-12.27,31.11S361.58,258.7,374.29,254.9Zm18.07.56c-3.46.45-10.59,5.24-17.06,9.26l-5,3c2.12,3.12,5.58,7.69,13.83,7.81,8.59.11,13.38-4.46,13.83-11.83C398.16,258.59,396.82,254.79,392.36,255.46Z"/><path class="cls-2" d="M105.68,329.73c-2.12,10.48-6.81,20.18-18.52,20.18-9.92,0-16.06-6.47-16.06-19.63V296.49H64.52v-.89c9.48,0,10.26-9.93,10.26-15.28h8.81c0,8.59-8.47,14.94-15.16,15.28H93.07v.89H79.91V332c0,9.7,2.68,17.17,12.16,15.94,7.36-1,11-9.81,13.05-18.4Z"/><path class="cls-2" d="M163,348.46v.78H149.28v-.78c1.68-1,2.23-2.9,1.9-6.58s-2-22.53-2.57-28.33c-.89-8.36-5-17.84-14.61-15.94-12.49,2.45-14.72,25.76-14.72,35.13v9.14c0,3.91.78,5.58,2.46,6.58v.78H107.91v-.78c1.78-1,2.56-2.67,2.56-6.58V277.42c0-3.9-.33-5-2.56-5.35v-.9l10.48-2.34h.89v54.43c1.34-12.49,5.24-27.66,19.74-27.66,9,0,16.84,6.24,18.18,19.63,1.23,10.82,2.23,22.53,2.68,26.65S161.33,347.46,163,348.46Z"/><path class="cls-2" d="M222.89,331.51c-.67,7.92-7.69,18.4-23.53,18.4-15.39,0-30.22-7.58-30.67-26-.56-19.3,16.95-27.66,29.22-28.33,9.48-.45,22.53,4.12,24.09,17.62H211.63C218,314.89,223.79,321.36,222.89,331.51Zm-15.83-18.29H178.17a32.24,32.24,0,0,0,.78,17.84c4.13,11.71,12.49,16.84,23.87,16.4,9.59-.45,18-7,19.07-15.73C223.23,320.13,215.53,313.22,207.06,313.22Zm-28.67-.89H214c-1.45-9.71-10.15-17.51-21.08-15.39C185.31,298.39,180.4,304.74,178.39,312.33Z"/><path class="cls-2" d="M270.18,348.46v.78H256.47v-.78c1.67-1,2.45-2.67,2.45-6.58V277.42c0-3.9-.33-5-2.45-5.35v-.9L267,268.83h.78v73.05C267.73,345.79,268.51,347.46,270.18,348.46Z"/><path class="cls-2" d="M291.82,348.46v.78H278v-.78c1.67-1,2.45-2.67,2.45-6.58V304.19c0-3.91-.33-5-2.45-5.36v-.78l10.48-2.45h.79v46.28C289.26,345.79,290,347.46,291.82,348.46Zm-12.49-67.14a5.24,5.24,0,1,1,5.24,5.24A5.23,5.23,0,0,1,279.33,281.32Z"/><path class="cls-2" d="M339,302.74,336.77,313h-.56c-3.46-9.48-10.6-16.4-16.95-16.4-7.59,0-11.83,4.24-12.38,8.81-1.57,14.95,36,10.93,34.79,29.11-.67,8.81-8.92,15.39-21.41,15.39-9,0-15.73-3-21.75-7.47l2.34-11.15h.56c3.79,7.8,12.16,17.06,22.08,17.06,8,0,14.06-4.13,14.73-8.92,2.11-14.61-36.81-8.14-34.13-30,.89-7.25,4.91-13.83,17.06-13.83C327,295.6,334.53,299.28,339,302.74Z"/><path class="cls-2" d="M388.52,329.73c-2.12,10.48-6.81,20.18-18.52,20.18-9.92,0-16.06-6.47-16.06-19.63V296.49h-6.58v-.89c9.48,0,10.26-9.93,10.26-15.28h8.81c0,8.59-8.47,14.94-15.16,15.28h24.64v.89H362.75V332c0,9.7,2.68,17.17,12.16,15.94,7.36-1,11-9.81,13-18.4Z"/><path class="cls-3" d="M223.73,1a222.79,222.79,0,0,1,86.7,428A222.79,222.79,0,0,1,137,18.5,221.42,221.42,0,0,1,223.73,1m0-1C100.17,0,0,100.17,0,223.73S100.17,447.46,223.73,447.46,447.46,347.29,447.46,223.73,347.29,0,223.73,0Z"/></g></g></svg>