<svg xmlns="http://www.w3.org/2000/svg" viewBox="0 0 22.22 16.85"><defs><style>.cls-1{fill:#fff;}</style></defs><g id="레이어_2" data-name="레이어 2"><g id="레이어_1-2" data-name="레이어 1"><path class="cls-1" d="M1.73,2.11A4.12,4.12,0,0,1,5.11,0a4.11,4.11,0,0,1,3.1,1.78A10.56,10.56,0,0,1,10.13,8.4a11,11,0,0,1-1.71,6.34,4,4,0,0,1-3.31,2.08A4.08,4.08,0,0,1,2,15.05,10.41,10.41,0,0,1,0,8.4,10.76,10.76,0,0,1,1.73,2.11Zm.89,10.37c.62,1.62,1.45,2.42,2.49,2.42a2.33,2.33,0,0,0,1.95-1.39A10.09,10.09,0,0,0,8.21,8.4a11.27,11.27,0,0,0-.7-4.1C6.9,2.71,6.1,1.92,5.11,1.92a2.49,2.49,0,0,0-2,1.39A9.76,9.76,0,0,0,1.92,8.4,11.27,11.27,0,0,0,2.62,12.48Z"/><path class="cls-1" d="M13.18,9.36H11.11L11.64,8l3-7.42.24-.6h1.6v16.8H14.54V6L13.42,8.76Z"/><path class="cls-1" d="M20.3,14.9h1.92v2H20.3v-2Z"/></g></g></svg>