<svg xmlns="http://www.w3.org/2000/svg" viewBox="0 0 178.68 17.3"><defs><style>.cls-1{fill:#fff;}</style></defs><g id="레이어_2" data-name="레이어 2"><g id="레이어_1-2" data-name="레이어 1"><path class="cls-1" d="M0,9.12,0,1.94V1H1l6.1,0a5,5,0,0,1,3.24,1.15A4.25,4.25,0,0,1,12,5.54a4.21,4.21,0,0,1-1.13,2.88,4.8,4.8,0,0,1-3.79,1.66H1.92v7.2H0V9.12Zm7.08-1a3.34,3.34,0,0,0,1.66-.43,2.41,2.41,0,0,0,1.34-2.19A2.48,2.48,0,0,0,9.55,4,2.93,2.93,0,0,0,7.08,2.88H1.92v5.3Z"/><path class="cls-1" d="M23.66,15a5.27,5.27,0,0,1-4.46,2.26,5,5,0,0,1-3.46-1.39,5.73,5.73,0,0,1-1.82-4.37,5.94,5.94,0,0,1,1.37-3.89A4.91,4.91,0,0,1,19.2,5.76a4.85,4.85,0,0,1,3.43,1.39,5.69,5.69,0,0,1,1.85,4.37v1H15.94a4.08,4.08,0,0,0,.57,1.34,3.07,3.07,0,0,0,2.69,1.54,3.57,3.57,0,0,0,2.93-1.49Zm-1.1-4.46a2.52,2.52,0,0,0-.65-1.51A3.4,3.4,0,0,0,19.2,7.68,3,3,0,0,0,17.78,8a3.56,3.56,0,0,0-1.84,2.52Z"/><path class="cls-1" d="M32.35,5.76h1V7.68h-1A2.9,2.9,0,0,0,30.91,8a3.52,3.52,0,0,0-1.63,3.34v5.9H27.36V5.76h1.92v1A5,5,0,0,1,32.35,5.76Z"/><path class="cls-1" d="M41.16,9.1a1.07,1.07,0,0,0-.26-.68A2.34,2.34,0,0,0,39,7.68a3.64,3.64,0,0,0-1,.14c-.8.26-1.2.68-1.2,1.28a.64.64,0,0,0,.15.38,5.65,5.65,0,0,0,2.2,1c.8.24,1.4.44,1.78.6q2.55,1,2.52,2.88a2.83,2.83,0,0,1-.72,1.83A4.64,4.64,0,0,1,39,17.28a5.28,5.28,0,0,1-3-.84,3,3,0,0,1-1.47-2.5h1.92a1,1,0,0,0,.29.68,3,3,0,0,0,2.26.74,4.67,4.67,0,0,0,1.1-.14c1-.24,1.44-.67,1.44-1.28a.7.7,0,0,0-.12-.36,5.51,5.51,0,0,0-2.18-1c-.79-.24-1.38-.44-1.78-.6-1.7-.68-2.55-1.66-2.57-2.92a3,3,0,0,1,.72-1.9A4.17,4.17,0,0,1,39,5.76a4.58,4.58,0,0,1,2.66.79A3,3,0,0,1,43.08,9.1Z"/><path class="cls-1" d="M46.78,7.61a4.94,4.94,0,0,1,7.29-.46,5.69,5.69,0,0,1,1.85,4.37,5.8,5.8,0,0,1-1.42,3.91,4.94,4.94,0,0,1-7.29.46,5.69,5.69,0,0,1-1.85-4.37A5.8,5.8,0,0,1,46.78,7.61ZM48,13.85a3.07,3.07,0,0,0,4.68.74A3.9,3.9,0,0,0,54,11.52a4.12,4.12,0,0,0-.7-2.33,3.07,3.07,0,0,0-4.68-.74,3.9,3.9,0,0,0-1.34,3.07A4.12,4.12,0,0,0,48,13.85Z"/><path class="cls-1" d="M67.94,17.3H66.05l0-1,0-5.61A3.34,3.34,0,0,0,65.54,9a2.42,2.42,0,0,0-2.18-1.32,2.38,2.38,0,0,0-1.49.53,3,3,0,0,0-1.15,2.52v6.55H58.8V5.76h1.92v.91a4.42,4.42,0,0,1,2.64-.91,4.24,4.24,0,0,1,2.86,1.1,4.88,4.88,0,0,1,1.7,3.87v5.59Z"/><path class="cls-1" d="M72.22,7.61a4.86,4.86,0,0,1,3.86-1.85,4.92,4.92,0,0,1,3.36,1.32V5.76h1.92V17.28H79.44V16a5.08,5.08,0,0,1-3.36,1.32,4.85,4.85,0,0,1-3.43-1.39,5.69,5.69,0,0,1-1.85-4.37A5.8,5.8,0,0,1,72.22,7.61Zm1.2,6.24a3.07,3.07,0,0,0,4.68.74,3.9,3.9,0,0,0,1.34-3.07,4.12,4.12,0,0,0-.7-2.33,3.07,3.07,0,0,0-4.68-.74,3.9,3.9,0,0,0-1.34,3.07A4.12,4.12,0,0,0,73.42,13.85Z"/><path class="cls-1" d="M85.2,0h1.92V17.28H85.2V0Z"/><path class="cls-1" d="M98.47,1h2l.17.74L103.08,13l4.34-11.38.22-.62H109l.22.62L113.54,13,116,1.7l.16-.74h2l-.26,1.18-3.17,14.4-.17.74h-1.44l-.21-.62-4.59-12-4.58,12-.22.62h-1.44l-.17-.74L98.73,2.14Z"/><path class="cls-1" d="M129.09,15a5.27,5.27,0,0,1-4.46,2.26,5,5,0,0,1-3.46-1.39,5.73,5.73,0,0,1-1.82-4.37,5.94,5.94,0,0,1,1.37-3.89,4.91,4.91,0,0,1,3.91-1.87,4.85,4.85,0,0,1,3.43,1.39,5.69,5.69,0,0,1,1.85,4.37v1h-8.54a4.08,4.08,0,0,0,.57,1.34,3.07,3.07,0,0,0,2.69,1.54,3.57,3.57,0,0,0,2.93-1.49ZM128,10.56a2.52,2.52,0,0,0-.65-1.51,3.4,3.4,0,0,0-2.71-1.37,3,3,0,0,0-1.42.36,3.56,3.56,0,0,0-1.84,2.52Z"/><path class="cls-1" d="M132.79,1V0h1.92V7.08a5.08,5.08,0,0,1,3.36-1.32,4.85,4.85,0,0,1,3.43,1.39,5.69,5.69,0,0,1,1.85,4.37,5.8,5.8,0,0,1-1.42,3.91,4.86,4.86,0,0,1-3.86,1.85A4.92,4.92,0,0,1,134.71,16v1.32h-1.92V1Zm2.59,12.89a3.09,3.09,0,0,0,2.69,1.51,3,3,0,0,0,2-.77,3.9,3.9,0,0,0,1.34-3.07,4.12,4.12,0,0,0-.7-2.33,3.07,3.07,0,0,0-4.68-.74,3.91,3.91,0,0,0-1.34,3.09A4.13,4.13,0,0,0,135.38,13.85Z"/><path class="cls-1" d="M151.92,9.1a1,1,0,0,0-.27-.68,2.34,2.34,0,0,0-1.92-.74,3.63,3.63,0,0,0-1,.14c-.8.26-1.2.68-1.2,1.28a.69.69,0,0,0,.14.38,5.72,5.72,0,0,0,2.21,1c.8.24,1.39.44,1.78.6q2.53,1,2.52,2.88a2.83,2.83,0,0,1-.72,1.83,4.66,4.66,0,0,1-3.75,1.51,5.33,5.33,0,0,1-3-.84,3,3,0,0,1-1.46-2.5h1.92a1,1,0,0,0,.29.68,2.94,2.94,0,0,0,2.25.74,4.69,4.69,0,0,0,1.11-.14c1-.24,1.44-.67,1.44-1.28a.7.7,0,0,0-.12-.36,5.59,5.59,0,0,0-2.19-1q-1.17-.36-1.77-.6c-1.7-.68-2.55-1.66-2.57-2.92a3,3,0,0,1,.72-1.9,4.16,4.16,0,0,1,3.38-1.44,4.59,4.59,0,0,1,2.67.79,3,3,0,0,1,1.44,2.55Z"/><path class="cls-1" d="M156.72,4.3V2.38h1.94V4.3h-1.94Zm0,1.46h1.92V17.28h-1.92V5.76Z"/><path class="cls-1" d="M164,13.9c0,.94.6,1.43,1.75,1.46h1v1.92h-1a5.75,5.75,0,0,1-1.27-.14,2.93,2.93,0,0,1-2.4-3.22V7.68h-1.61V5.76h1.61V3.24l0-.94H164l0,1v2.5h2.69V7.68H164Z"/><path class="cls-1" d="M177.86,15a5.28,5.28,0,0,1-4.46,2.26,5,5,0,0,1-3.46-1.39,5.73,5.73,0,0,1-1.82-4.37,5.89,5.89,0,0,1,1.37-3.89,5,5,0,0,1,7.34-.48,5.69,5.69,0,0,1,1.85,4.37v1h-8.55a4.33,4.33,0,0,0,.58,1.34,3.07,3.07,0,0,0,2.69,1.54,3.57,3.57,0,0,0,2.93-1.49Zm-1.1-4.46a2.52,2.52,0,0,0-.65-1.51,3.42,3.42,0,0,0-2.71-1.37A3,3,0,0,0,172,8a3.6,3.6,0,0,0-1.85,2.52Z"/></g></g></svg>