<svg xmlns="http://www.w3.org/2000/svg" viewBox="0 0 179.8 17.3"><defs><style>.cls-1{fill:#fff;}</style></defs><g id="레이어_2" data-name="레이어 2"><g id="레이어_1-2" data-name="레이어 1"><path class="cls-1" d="M0,1H2l.17.74L4.61,13,9,1.58,9.17,1h1.34l.22.62L15.07,13,17.54,1.7,17.71,1h2l-.26,1.18-3.17,14.4-.17.74H14.64l-.22-.62-4.58-12-4.58,12L5,17.28H3.6l-.17-.74L.26,2.14Z"/><path class="cls-1" d="M30.62,15a5.27,5.27,0,0,1-4.46,2.26,5,5,0,0,1-3.46-1.39,5.73,5.73,0,0,1-1.82-4.37,5.94,5.94,0,0,1,1.37-3.89,4.91,4.91,0,0,1,3.91-1.87,4.85,4.85,0,0,1,3.43,1.39,5.69,5.69,0,0,1,1.85,4.37v1H22.9a4.08,4.08,0,0,0,.57,1.34,3.07,3.07,0,0,0,2.69,1.54,3.57,3.57,0,0,0,2.93-1.49Zm-1.1-4.46a2.52,2.52,0,0,0-.65-1.51,3.4,3.4,0,0,0-2.71-1.37A3,3,0,0,0,24.74,8a3.56,3.56,0,0,0-1.84,2.52Z"/><path class="cls-1" d="M34.32,1V0h1.92V7.08A5.08,5.08,0,0,1,39.6,5.76,4.85,4.85,0,0,1,43,7.15a5.69,5.69,0,0,1,1.85,4.37,5.8,5.8,0,0,1-1.42,3.91,4.86,4.86,0,0,1-3.86,1.85A4.92,4.92,0,0,1,36.24,16v1.32H34.32V1Zm2.59,12.89a3.09,3.09,0,0,0,2.69,1.51,3,3,0,0,0,2-.77A3.9,3.9,0,0,0,43,11.52a4.12,4.12,0,0,0-.7-2.33,3.07,3.07,0,0,0-4.68-.74,3.91,3.91,0,0,0-1.34,3.09A4.13,4.13,0,0,0,36.91,13.85Z"/><path class="cls-1" d="M53.45,9.1a1,1,0,0,0-.27-.68,2.34,2.34,0,0,0-1.92-.74,3.63,3.63,0,0,0-1,.14c-.8.26-1.2.68-1.2,1.28a.69.69,0,0,0,.14.38,5.72,5.72,0,0,0,2.21,1c.8.24,1.39.44,1.78.6q2.53,1,2.52,2.88A2.83,2.83,0,0,1,55,15.77a4.66,4.66,0,0,1-3.75,1.51,5.33,5.33,0,0,1-3-.84,3,3,0,0,1-1.46-2.5h1.92a1,1,0,0,0,.29.68,2.94,2.94,0,0,0,2.25.74,4.69,4.69,0,0,0,1.11-.14c1-.24,1.44-.67,1.44-1.28a.7.7,0,0,0-.12-.36,5.59,5.59,0,0,0-2.19-1q-1.17-.36-1.77-.6c-1.7-.68-2.55-1.66-2.57-2.92a3,3,0,0,1,.72-1.9,4.16,4.16,0,0,1,3.38-1.44,4.59,4.59,0,0,1,2.67.79A3,3,0,0,1,55.37,9.1Z"/><path class="cls-1" d="M58.25,4.3V2.38h1.94V4.3H58.25Zm0,1.46h1.92V17.28H58.25V5.76Z"/><path class="cls-1" d="M65.5,13.9c0,.94.6,1.43,1.75,1.46h1v1.92h-1A5.75,5.75,0,0,1,66,17.14a2.93,2.93,0,0,1-2.4-3.22V7.68H62V5.76h1.61V3.24l0-.94h1.94l0,1v2.5h2.69V7.68H65.52Z"/><path class="cls-1" d="M79.39,15a5.28,5.28,0,0,1-4.46,2.26,5,5,0,0,1-3.46-1.39,5.7,5.7,0,0,1-1.82-4.37A5.89,5.89,0,0,1,71,7.63a5,5,0,0,1,7.34-.48,5.69,5.69,0,0,1,1.85,4.37v1H71.66a4.1,4.1,0,0,0,.58,1.34,3.07,3.07,0,0,0,2.69,1.54,3.54,3.54,0,0,0,2.92-1.49Zm-1.1-4.46a2.52,2.52,0,0,0-.65-1.51,3.42,3.42,0,0,0-2.71-1.37A3,3,0,0,0,73.51,8a3.6,3.6,0,0,0-1.85,2.52Z"/><path class="cls-1" d="M105.84,16.06l.38,1.22h-2l-.2-.7a29.2,29.2,0,0,0-1.44-4,6.58,6.58,0,0,0-1.94-2.5H95.81v7.2H93.89V9.12l0-7.18V1h1l6.07,0a5,5,0,0,1,3.27,1.15,4.28,4.28,0,0,1,1.39,4.95A4.49,4.49,0,0,1,103,9.67C104,10.76,104.89,12.89,105.84,16.06Zm-8-7.9H101a3.28,3.28,0,0,0,1.65-.43A2.4,2.4,0,0,0,104,5.54,2.48,2.48,0,0,0,103.44,4a3,3,0,0,0-2.5-1.15H95.81v5.3h2.11Z"/><path class="cls-1" d="M118,15a5.28,5.28,0,0,1-4.46,2.26,5,5,0,0,1-3.46-1.39,5.7,5.7,0,0,1-1.82-4.37,5.93,5.93,0,0,1,1.36-3.89,4.93,4.93,0,0,1,3.92-1.87A4.87,4.87,0,0,1,117,7.15a5.69,5.69,0,0,1,1.85,4.37v1H110.3a4.1,4.1,0,0,0,.58,1.34,3.07,3.07,0,0,0,2.69,1.54,3.54,3.54,0,0,0,2.92-1.49Zm-1.1-4.46a2.52,2.52,0,0,0-.65-1.51,3.42,3.42,0,0,0-2.71-1.37,3,3,0,0,0-1.42.36,3.57,3.57,0,0,0-1.85,2.52Z"/><path class="cls-1" d="M130.87,17.3H129l0-1,0-5.61A3.44,3.44,0,0,0,128.47,9a2.44,2.44,0,0,0-2.18-1.32,2.36,2.36,0,0,0-1.49.53,3,3,0,0,0-1.15,2.52v6.55h-1.92V5.76h1.92v.91a4.42,4.42,0,0,1,2.64-.91,4.2,4.2,0,0,1,2.85,1.1,4.85,4.85,0,0,1,1.71,3.87v5.59Z"/><path class="cls-1" d="M143.47,15A5.28,5.28,0,0,1,139,17.28a5,5,0,0,1-3.46-1.39,5.7,5.7,0,0,1-1.82-4.37,5.93,5.93,0,0,1,1.36-3.89A4.93,4.93,0,0,1,139,5.76a4.87,4.87,0,0,1,3.43,1.39,5.69,5.69,0,0,1,1.85,4.37v1h-8.55a4.1,4.1,0,0,0,.58,1.34A3.07,3.07,0,0,0,139,15.36a3.54,3.54,0,0,0,2.92-1.49Zm-1.1-4.46a2.52,2.52,0,0,0-.65-1.51A3.42,3.42,0,0,0,139,7.68a3,3,0,0,0-1.42.36,3.57,3.57,0,0,0-1.85,2.52Z"/><path class="cls-1" d="M145.89,5.76h2l.21.7,2,7L153,6.36l.24-.6h1.29l.24.6,3,7.06,1.94-7,.22-.7h2L161.54,7l-2.69,9.6-.21.7h-1.37l-.24-.6-3.14-7.49-3.15,7.49-.24.6h-1.37l-.21-.7L146.23,7Z"/><path class="cls-1" d="M164.9,7.61a4.88,4.88,0,0,1,3.87-1.85,5,5,0,0,1,3.36,1.32V5.76h1.92V17.28h-1.92V16a5.08,5.08,0,0,1-3.36,1.32,4.89,4.89,0,0,1-3.44-1.39,5.68,5.68,0,0,1-1.84-4.37A5.84,5.84,0,0,1,164.9,7.61Zm1.2,6.24a3.07,3.07,0,0,0,2.67,1.51,3,3,0,0,0,2-.77,3.88,3.88,0,0,0,1.35-3.07,4.19,4.19,0,0,0-.7-2.33,3.06,3.06,0,0,0-2.66-1.51,3,3,0,0,0-2,.77,3.87,3.87,0,0,0-1.34,3.07A4.18,4.18,0,0,0,166.1,13.85Z"/><path class="cls-1" d="M177.88,0h1.92V17.28h-1.92V0Z"/></g></g></svg>