<svg xmlns="http://www.w3.org/2000/svg" viewBox="0 0 27.46 16.85"><defs><style>.cls-1{fill:#fff;}</style></defs><g id="레이어_2" data-name="레이어 2"><g id="레이어_1-2" data-name="레이어 1"><path class="cls-1" d="M1.73,2.11A4.12,4.12,0,0,1,5.11,0a4.11,4.11,0,0,1,3.1,1.78A10.56,10.56,0,0,1,10.13,8.4a11,11,0,0,1-1.71,6.34,4,4,0,0,1-3.31,2.08A4.08,4.08,0,0,1,2,15.05,10.41,10.41,0,0,1,0,8.4,10.76,10.76,0,0,1,1.73,2.11Zm.89,10.37c.62,1.62,1.45,2.42,2.49,2.42a2.33,2.33,0,0,0,1.95-1.39A10.09,10.09,0,0,0,8.21,8.4a11.27,11.27,0,0,0-.7-4.1C6.9,2.71,6.1,1.92,5.11,1.92a2.49,2.49,0,0,0-2,1.39A9.76,9.76,0,0,0,1.92,8.4,11.27,11.27,0,0,0,2.62,12.48Z"/><path class="cls-1" d="M14,5.64H12.05v-1a4.33,4.33,0,0,1,1.13-2.95A5,5,0,0,1,17.11,0a5.21,5.21,0,0,1,3.36,1.15,4.41,4.41,0,0,1,1.71,3.53A5.8,5.8,0,0,1,20.69,8.4,20.75,20.75,0,0,1,17,11.54c-.58.42-1,.73-1.25.94C14.58,13.42,14,14.23,14,14.9h8.21v1.92H12.05v-1a5.45,5.45,0,0,1,1.25-3.33,22,22,0,0,1,3.28-3.07l1.59-1.32c1.39-1.27,2.09-2.42,2.09-3.46a2.49,2.49,0,0,0-.58-1.58,3.09,3.09,0,0,0-2.57-1.18,3.57,3.57,0,0,0-1.8.48A2.54,2.54,0,0,0,14,4.68Z"/><path class="cls-1" d="M25.54,14.9h1.92v2H25.54v-2Z"/></g></g></svg>