<svg xmlns="http://www.w3.org/2000/svg" viewBox="0 0 27.41 16.85"><defs><style>.cls-1{fill:#fff;}</style></defs><g id="레이어_2" data-name="레이어 2"><g id="레이어_1-2" data-name="레이어 1"><path class="cls-1" d="M1.73,2.11A4.12,4.12,0,0,1,5.11,0a4.11,4.11,0,0,1,3.1,1.78A10.56,10.56,0,0,1,10.13,8.4a11,11,0,0,1-1.71,6.34,4,4,0,0,1-3.31,2.08A4.08,4.08,0,0,1,2,15.05,10.41,10.41,0,0,1,0,8.4,10.76,10.76,0,0,1,1.73,2.11Zm.89,10.37c.62,1.62,1.45,2.42,2.49,2.42a2.33,2.33,0,0,0,1.95-1.39A10.09,10.09,0,0,0,8.21,8.4a11.27,11.27,0,0,0-.7-4.1C6.9,2.71,6.1,1.92,5.11,1.92a2.49,2.49,0,0,0-2,1.39A9.76,9.76,0,0,0,1.92,8.4,11.27,11.27,0,0,0,2.62,12.48Z"/><path class="cls-1" d="M13.13,1.92V0h8.93l-.87,1.46L18.53,5.9a3.08,3.08,0,0,1,2,1.2,6.13,6.13,0,0,1,1.63,4.18A5.57,5.57,0,0,1,20.76,15a5,5,0,0,1-3.91,1.82A5.38,5.38,0,0,1,13.94,16a4.19,4.19,0,0,1-2-2.93L11.74,12h1.94l.12.79a2.22,2.22,0,0,0,.41.93,3.07,3.07,0,0,0,2.64,1.2,3.13,3.13,0,0,0,2-.74,3.59,3.59,0,0,0,1.32-2.88,3.46,3.46,0,0,0-.65-2,3.18,3.18,0,0,0-2.71-1.42H15.17L16,6.36,18.7,1.92H13.13Z"/><path class="cls-1" d="M25.49,14.9h1.92v2H25.49v-2Z"/></g></g></svg>