<svg xmlns="http://www.w3.org/2000/svg" viewBox="0 0 130.77 17.3"><defs><style>.cls-1{fill:#fff;}</style></defs><g id="레이어_2" data-name="레이어 2"><g id="레이어_1-2" data-name="레이어 1"><path class="cls-1" d="M1.92,17.28H0V1H1.58l.24.58L7.44,14,13,1.54,13.27,1h1.59v1l0,14.4v1H13v-1l0-9.94L8.3,16.7l-.24.58H6.82l-.24-.58L1.92,6.38v10.9Z"/><path class="cls-1" d="M19.66,7.61A4.94,4.94,0,0,1,27,7.15a5.69,5.69,0,0,1,1.85,4.37,5.8,5.8,0,0,1-1.42,3.91,4.94,4.94,0,0,1-7.29.46,5.69,5.69,0,0,1-1.85-4.37A5.8,5.8,0,0,1,19.66,7.61Zm1.2,6.24a3.07,3.07,0,0,0,4.68.74,3.9,3.9,0,0,0,1.34-3.07,4.12,4.12,0,0,0-.7-2.33,3.07,3.07,0,0,0-4.68-.74,3.9,3.9,0,0,0-1.34,3.07A4.12,4.12,0,0,0,20.86,13.85Z"/><path class="cls-1" d="M31.68,1V0H33.6V7.08A5.08,5.08,0,0,1,37,5.76a4.85,4.85,0,0,1,3.43,1.39,5.69,5.69,0,0,1,1.85,4.37,5.8,5.8,0,0,1-1.42,3.91A4.86,4.86,0,0,1,37,17.28,4.92,4.92,0,0,1,33.6,16v1.32H31.68V1Zm2.59,12.89A3.09,3.09,0,0,0,37,15.36a3,3,0,0,0,2-.77,3.9,3.9,0,0,0,1.34-3.07,4.12,4.12,0,0,0-.7-2.33,3.07,3.07,0,0,0-4.68-.74,3.91,3.91,0,0,0-1.34,3.09A4.13,4.13,0,0,0,34.27,13.85Z"/><path class="cls-1" d="M44.76,4.3V2.38H46.7V4.3H44.76Zm0,1.46h1.92V17.28H44.76V5.76Z"/><path class="cls-1" d="M49.92,0h1.92V17.28H49.92V0Z"/><path class="cls-1" d="M63.34,15a5.29,5.29,0,0,1-4.47,2.26,4.93,4.93,0,0,1-3.45-1.39,5.71,5.71,0,0,1-1.83-4.37A5.94,5.94,0,0,1,55,7.63a4.93,4.93,0,0,1,3.91-1.87A4.85,4.85,0,0,1,62.3,7.15a5.65,5.65,0,0,1,1.85,4.37v1H55.61a4.08,4.08,0,0,0,.57,1.34,3.08,3.08,0,0,0,2.69,1.54,3.56,3.56,0,0,0,2.93-1.49Zm-1.11-4.46a2.46,2.46,0,0,0-.65-1.51,3.4,3.4,0,0,0-2.71-1.37A2.93,2.93,0,0,0,57.46,8a3.57,3.57,0,0,0-1.85,2.52Z"/><path class="cls-1" d="M77.38,1h1.94l0,1,0,9.89A3.31,3.31,0,0,0,80.06,14a3.76,3.76,0,0,0,3,1.39,4,4,0,0,0,2.35-.74A3.26,3.26,0,0,0,87,11.83V1.92L87,1h1.94l0,1,0,9.89a5.18,5.18,0,0,1-1.44,3.6,5.67,5.67,0,0,1-4.32,1.85,5.73,5.73,0,0,1-3.93-1.49,5.06,5.06,0,0,1-1.83-4V1.92Z"/><path class="cls-1" d="M101.57,1.37l.28-.41h2.36l-1.06,1.51L98.69,8.81l4.89,7,1.06,1.51h-2.35l-.29-.41-4.49-6.38L93,16.87l-.29.41H90.38l1.06-1.51,4.89-7L91.87,2.47,90.81,1h2.36l.29.41,4.05,5.76Z"/><path class="cls-1" d="M109.27,1h2l-.39,1.22-4.32,14.43-.19.69h-2l.38-1.22,4.32-14.42Z"/><path class="cls-1" d="M113.37,1h1.95l0,1,0,9.89a3.26,3.26,0,0,0,.79,2.14,3.76,3.76,0,0,0,3,1.39,4,4,0,0,0,2.35-.74A3.29,3.29,0,0,0,123,11.83V1.92L123,1h2l0,1,0,9.89a5.18,5.18,0,0,1-1.44,3.6,5.67,5.67,0,0,1-4.32,1.85,5.78,5.78,0,0,1-3.94-1.49,5.08,5.08,0,0,1-1.82-4V1.92Z"/><path class="cls-1" d="M128.85,1h1.92V17.28h-1.92V1Z"/></g></g></svg>