<svg xmlns="http://www.w3.org/2000/svg" viewBox="0 0 27.41 16.85"><defs><style>.cls-1{fill:#fff;}</style></defs><g id="레이어_2" data-name="레이어 2"><g id="레이어_1-2" data-name="레이어 1"><path class="cls-1" d="M1.73,2.11A4.12,4.12,0,0,1,5.11,0a4.11,4.11,0,0,1,3.1,1.78A10.56,10.56,0,0,1,10.13,8.4a11,11,0,0,1-1.71,6.34,4,4,0,0,1-3.31,2.08A4.08,4.08,0,0,1,2,15.05,10.41,10.41,0,0,1,0,8.4,10.76,10.76,0,0,1,1.73,2.11Zm.89,10.37c.62,1.62,1.45,2.42,2.49,2.42a2.33,2.33,0,0,0,1.95-1.39A10.09,10.09,0,0,0,8.21,8.4a11.27,11.27,0,0,0-.7-4.1C6.9,2.71,6.1,1.92,5.11,1.92a2.49,2.49,0,0,0-2,1.39A9.76,9.76,0,0,0,1.92,8.4,11.27,11.27,0,0,0,2.62,12.48Z"/><path class="cls-1" d="M16.22,0h2.07l-.53,1.32-3.84,9.82,4.75,0V3.82h1.92v7.36h1.54V13.1H20.59v3.72H18.67V13.08l-6.14,0H11.14l.5-1.32L16,.6Z"/><path class="cls-1" d="M25.49,14.9h1.92v2H25.49v-2Z"/></g></g></svg>