<svg xmlns="http://www.w3.org/2000/svg" viewBox="0 0 121.2 21.26"><defs><style>.cls-1{fill:#fff;}</style></defs><g id="레이어_2" data-name="레이어 2"><g id="레이어_1-2" data-name="레이어 1"><path class="cls-1" d="M11.52,0V1.92H1.92V7.2h7V9.12h-7V14.4h9.6v1.92H0V0H11.52Z"/><path class="cls-1" d="M13.46,4.8h2.07l.24.6,3,7.37L21.67,5.4l.24-.6H24l-.53,1.32-3.82,9.6-.24.6H18.1l-.24-.6L14,6.12Z"/><path class="cls-1" d="M35.18,14.06a5.27,5.27,0,0,1-4.46,2.26,5,5,0,0,1-3.46-1.39,5.73,5.73,0,0,1-1.82-4.37,5.94,5.94,0,0,1,1.37-3.89A4.91,4.91,0,0,1,30.72,4.8a4.85,4.85,0,0,1,3.43,1.39A5.69,5.69,0,0,1,36,10.56v1H27.46A4.08,4.08,0,0,0,28,12.86a3.07,3.07,0,0,0,2.69,1.54,3.57,3.57,0,0,0,2.93-1.49ZM34.08,9.6a2.52,2.52,0,0,0-.65-1.51,3.4,3.4,0,0,0-2.71-1.37,3,3,0,0,0-1.42.36A3.56,3.56,0,0,0,27.46,9.6Z"/><path class="cls-1" d="M48,16.34H46.13l0-1,0-5.61A3.34,3.34,0,0,0,45.62,8a2.42,2.42,0,0,0-2.18-1.32A2.38,2.38,0,0,0,42,7.25,3,3,0,0,0,40.8,9.77v6.55H38.88V4.8H40.8v.91a4.42,4.42,0,0,1,2.64-.91A4.24,4.24,0,0,1,46.3,5.9,4.88,4.88,0,0,1,48,9.77v5.59Z"/><path class="cls-1" d="M53.93,12.94c0,.94.6,1.43,1.75,1.46h1v1.92h-1a5.75,5.75,0,0,1-1.27-.14A2.93,2.93,0,0,1,52,13V6.72H50.4V4.8H52V2.28l0-.94H54l0,1V4.8h2.69V6.72H54Z"/><path class="cls-1" d="M69.84,8.16l0-7.18V0h1l6.1,0a5,5,0,0,1,3.24,1.15,4.25,4.25,0,0,1,1.68,3.43,4.21,4.21,0,0,1-1.13,2.88,4.81,4.81,0,0,1-3.79,1.66H71.76v7.2H69.84V8.16Zm7.08-1a3.34,3.34,0,0,0,1.66-.43,2.41,2.41,0,0,0,1.34-2.19,2.48,2.48,0,0,0-.53-1.51,2.93,2.93,0,0,0-2.47-1.15H71.76v5.3Z"/><path class="cls-1" d="M85.18,6.65A4.86,4.86,0,0,1,89,4.8,4.92,4.92,0,0,1,92.4,6.12V4.8h1.92V16.32H92.4V15A5.08,5.08,0,0,1,89,16.32a4.85,4.85,0,0,1-3.43-1.39,5.69,5.69,0,0,1-1.85-4.37A5.8,5.8,0,0,1,85.18,6.65Zm1.2,6.24a3.07,3.07,0,0,0,4.68.74,3.9,3.9,0,0,0,1.34-3.07,4.12,4.12,0,0,0-.7-2.33A3.07,3.07,0,0,0,87,7.49a3.9,3.9,0,0,0-1.34,3.07A4.12,4.12,0,0,0,86.38,12.89Z"/><path class="cls-1" d="M98.61,6.65a5,5,0,0,1,7.23-.53V5.76l0-.94h2l0,1,0,9.58a5.56,5.56,0,0,1-.24,1.58,6.62,6.62,0,0,1-.71,1.59,7.37,7.37,0,0,1-1.09,1.38,5,5,0,0,1-1.47,1,4.23,4.23,0,0,1-1.75.37h-1V19.34h1a3,3,0,0,0,2.28-1.17,4.21,4.21,0,0,0,1.06-2.81V15a5.08,5.08,0,0,1-3.36,1.32,4.85,4.85,0,0,1-3.43-1.39,5.65,5.65,0,0,1-1.85-4.37A5.84,5.84,0,0,1,98.61,6.65Zm1.2,6.24a3.09,3.09,0,0,0,2.67,1.51,3,3,0,0,0,2-.77,3.88,3.88,0,0,0,1.35-3.07,4.12,4.12,0,0,0-.7-2.33,3.06,3.06,0,0,0-2.66-1.51,3,3,0,0,0-2,.77,3.9,3.9,0,0,0-1.34,3.07A4.18,4.18,0,0,0,99.81,12.89Z"/><path class="cls-1" d="M120.38,14.06a5.28,5.28,0,0,1-4.46,2.26,5,5,0,0,1-3.46-1.39,5.73,5.73,0,0,1-1.82-4.37A5.94,5.94,0,0,1,112,6.67a4.91,4.91,0,0,1,3.91-1.87,4.85,4.85,0,0,1,3.43,1.39,5.69,5.69,0,0,1,1.85,4.37v1h-8.54a4.08,4.08,0,0,0,.57,1.34,3.07,3.07,0,0,0,2.69,1.54,3.57,3.57,0,0,0,2.93-1.49Zm-1.1-4.46a2.52,2.52,0,0,0-.65-1.51,3.4,3.4,0,0,0-2.71-1.37,3,3,0,0,0-1.42.36,3.56,3.56,0,0,0-1.84,2.52Z"/></g></g></svg>