<svg xmlns="http://www.w3.org/2000/svg" viewBox="0 0 275.01 82.88"><defs><style>.cls-1{fill:#fff;}</style></defs><g id="레이어_2" data-name="레이어 2"><g id="레이어_1-2" data-name="레이어 1"><path class="cls-1" d="M0,31.81C0,20.63.06,15,.09,3.84V.1H3.83c9.51,0,14.26,0,23.77-.1,4.73,0,8.95,2,12.62,6.07A26.13,26.13,0,0,1,46.77,24a22.06,22.06,0,0,1-4.39,13.84c-3.81,4.94-8.74,6.88-14.78,5.73A125.46,125.46,0,0,1,7.48,38.31V65.24c-3-.6-4.49-.93-7.48-1.63V31.81Zm27.6,2.93a9.57,9.57,0,0,0,6.45-1.11c3.49-2,5.24-5.41,5.24-10.11a15.47,15.47,0,0,0-2.06-7.71c-2.31-4-5.52-6.08-9.63-6.3-8-.42-12.07-.68-20.12-1.35V30.44A152,152,0,0,0,27.6,34.74Z"/><path class="cls-1" d="M77.45,25.6l3.75-.09v9.28L77.45,35a10.22,10.22,0,0,0-5.61,1.88c-4.18,2.92-6.3,8.26-6.36,15.47V70.74c-3,0-4.49,0-7.48-.12V25.55c3,.08,4.49.1,7.48.12v5A17.39,17.39,0,0,1,77.45,25.6Z"/><path class="cls-1" d="M91.39,33.85c4.06-5.86,9.07-9.77,15.06-10.59a16.77,16.77,0,0,1,13.38,4c4.76,3.95,7.2,9.25,7.2,16.22a25.28,25.28,0,0,1-5.52,15.92,22.21,22.21,0,0,1-15.06,8.83A19.48,19.48,0,0,1,93.07,65.7c-4.76-3-7.2-7.35-7.2-14.52A30.33,30.33,0,0,1,91.39,33.85Zm4.68,24.48c2.62,3.15,6.08,4.26,10.38,3.53a14.42,14.42,0,0,0,7.86-4.12,17,17,0,0,0,5.24-12.59,14.75,14.75,0,0,0-2.72-8.8c-2.61-3.63-6.08-5.22-10.38-4.49a13.42,13.42,0,0,0-7.86,4.65,20.32,20.32,0,0,0-5.23,13.6A12.43,12.43,0,0,0,96.07,58.33Z"/><path class="cls-1" d="M140.41,18.36,148,17.21c0,1.41,0,2.12-.09,3.55l-.09,37.31c0,7.41-1.16,13.85-3.56,18.54-2.18,4.27-4.86,6.27-7.86,6.27h-3.74V75.74l3.74-.26a1.77,1.77,0,0,0,.47-.13c2.31-.85,3.46-6.24,3.46-16V22Zm-.1-5.4V5.64l3.75-.2h.09l3.74-.21v6.86l-3.74.43h-.09Z"/><path class="cls-1" d="M197,45.7c-4.37,7.21-10.17,10.89-17.4,11.8a16.73,16.73,0,0,1-13.47-4.39C161.39,49,159,43.26,159,36.42a23.87,23.87,0,0,1,5.33-15.34,22.27,22.27,0,0,1,15.25-8.36A19.05,19.05,0,0,1,193,16c4.77,3.25,7.2,7.65,7.2,13.94V34c-1.5.11-2.24.16-3.74.29a230.11,230.11,0,0,0-29.56,4.31,15.16,15.16,0,0,0,2.24,5.1c2.62,3.81,6.12,5.54,10.48,4.88,4.62-.69,8.42-3.16,11.41-7.78C193.41,42.68,194.61,43.66,197,45.7Zm-4.3-18.46q0-2.46-2.53-5a12,12,0,0,0-10.57-3.47,13.94,13.94,0,0,0-5.52,2.07,15.6,15.6,0,0,0-7.2,10.33A230.21,230.21,0,0,1,192.7,27.24Z"/><path class="cls-1" d="M244.33,47.89c-4,6.26-9.55,9.49-16.55,9.14-4.84-.24-9.2-2.76-13-7.31-4.74-5.66-7.11-14.12-7.11-20.26A15.9,15.9,0,0,1,213,17c4-3.56,8.93-5.05,14.78-4.71,7.27.42,12.84,2.86,16.65,7.59-2.47,1-3.71,1.52-6.18,2.58-2.18-2.78-5.7-4.37-10.47-4.71a11.79,11.79,0,0,0-7.58,1.89c-3.37,2.13-5,5.29-5,9.61a26,26,0,0,0,2.43,10.37c2.49,4.94,5.93,7.68,10.2,7.92s7.76-1.73,10.57-5.66C240.74,44.25,241.94,45.46,244.33,47.89Z"/><path class="cls-1" d="M264.44,46.92c.06,4,2.34,6.64,6.83,8.07,1.5.44,2.25.67,3.74,1.14v7.48c-1.49-.35-2.24-.52-3.74-.85a24.05,24.05,0,0,1-5-1.64C260.08,58.31,257,52.89,257,45V21.58l-2.53-.49c-1.49-.29-2.24-.42-3.74-.68v-6l3.74.51,2.53.38V7.16c0-1.19.06-1.78.09-2.95,3,.14,4.55.22,7.58.39,0,1.31-.06,2-.09,3.29v8.66c2.69.5,4,.76,6.73,1.33,1.5.32,2.25.49,3.74.83v7.48c-1.49-.46-2.24-.68-3.74-1.11-2.69-.77-4-1.13-6.73-1.79C264.5,32.05,264.48,36.39,264.44,46.92Z"/></g></g></svg>