<svg xmlns="http://www.w3.org/2000/svg" viewBox="0 0 221.52 96.62"><defs><style>.cls-1{fill:#fff;}</style></defs><g id="레이어_2" data-name="레이어 2"><g id="레이어_1-2" data-name="레이어 1"><path class="cls-1" d="M8.64.72h.72V2.16H5.42V13H4V2.16H0V.72H8.64Z"/><path class="cls-1" d="M14.58,4.32a3.15,3.15,0,0,1,2.14.83A3.64,3.64,0,0,1,18,8.05v4.19L18,13H16.6l0-.72,0-4.21a2.55,2.55,0,0,0-.34-1.3,1.83,1.83,0,0,0-1.64-1,1.75,1.75,0,0,0-1.12.4,2.27,2.27,0,0,0-.86,1.89V13H11.16V1.15H12.6V5A3.32,3.32,0,0,1,14.58,4.32Z"/><path class="cls-1" d="M27.47,11.27A4,4,0,0,1,24.12,13a3.73,3.73,0,0,1-2.59-1,4.32,4.32,0,0,1-1.37-3.28,4.42,4.42,0,0,1,1-2.92,3.71,3.71,0,0,1,2.93-1.4,3.67,3.67,0,0,1,2.57,1,4.26,4.26,0,0,1,1.39,3.28v.72H21.67a3.35,3.35,0,0,0,.43,1,2.32,2.32,0,0,0,2,1.15,2.66,2.66,0,0,0,2.2-1.12Zm-.83-3.35a1.82,1.82,0,0,0-.49-1.13,2.53,2.53,0,0,0-2-1A2.2,2.2,0,0,0,23.06,6a2.68,2.68,0,0,0-1.39,1.89Z"/><path class="cls-1" d="M47.3,12l.29.92H46.08l-.14-.52a25.59,25.59,0,0,0-1.08-3A5,5,0,0,0,43.4,7.56H39.78V13H38.34V6.84l0-5.38V.74h.72l4.55,0a3.76,3.76,0,0,1,2.45.86,3.21,3.21,0,0,1,1.26,2.58,3,3,0,0,1-.22,1.13,3.31,3.31,0,0,1-1.92,2A14.59,14.59,0,0,1,47.3,12ZM41.35,6.12h2.3a2.54,2.54,0,0,0,1.24-.32A1.83,1.83,0,0,0,45.5,3a2.22,2.22,0,0,0-1.87-.86H39.78v4h1.58Z"/><path class="cls-1" d="M56.45,11.27A4,4,0,0,1,53.1,13a3.73,3.73,0,0,1-2.59-1,4.28,4.28,0,0,1-1.37-3.28,4.42,4.42,0,0,1,1-2.92,3.71,3.71,0,0,1,2.93-1.4,3.67,3.67,0,0,1,2.57,1,4.26,4.26,0,0,1,1.39,3.28v.72H50.65a3.35,3.35,0,0,0,.43,1,2.32,2.32,0,0,0,2,1.15,2.63,2.63,0,0,0,2.19-1.12Zm-.83-3.35a1.82,1.82,0,0,0-.49-1.13,2.53,2.53,0,0,0-2-1A2.2,2.2,0,0,0,52,6a2.68,2.68,0,0,0-1.39,1.89Z"/><path class="cls-1" d="M58.16,4.32h1.55l.17.45,2.24,5.53,2.19-5.53.18-.45H66l-.39,1-2.87,7.2L62.6,13h-1l-.18-.45-2.9-7.2Z"/><path class="cls-1" d="M68.2,5.71a3.71,3.71,0,0,1,5.47-.35,4.26,4.26,0,0,1,1.39,3.28A4.33,4.33,0,0,1,74,11.57,3.64,3.64,0,0,1,71.1,13a3.71,3.71,0,0,1-2.58-1,4.29,4.29,0,0,1-1.38-3.28A4.33,4.33,0,0,1,68.2,5.71Zm.9,4.68a2.31,2.31,0,0,0,2,1.13,2.22,2.22,0,0,0,1.51-.58,2.9,2.9,0,0,0,1-2.3,3.18,3.18,0,0,0-.52-1.75,2.32,2.32,0,0,0-2-1.13,2.2,2.2,0,0,0-1.51.58,2.87,2.87,0,0,0-1,2.3A3.1,3.1,0,0,0,69.1,10.39Z"/><path class="cls-1" d="M77.22,0h1.44V13H77.22V0Z"/><path class="cls-1" d="M80.35,4.34h1.46l0,.72,0,4.61a1.73,1.73,0,0,0,.34,1,2,2,0,0,0,1.71.83,2.13,2.13,0,0,0,1.12-.31,1.72,1.72,0,0,0,.92-1.54V5l0-.7h1.45v.72l0,4.61a3.08,3.08,0,0,1-.76,2.05A3.34,3.34,0,0,1,83.82,13a3.55,3.55,0,0,1-2.25-.77,3.11,3.11,0,0,1-1.24-2.52V5Z"/><path class="cls-1" d="M91.38,10.42c0,.71.45,1.08,1.32,1.1h.72V13H92.7a4.21,4.21,0,0,1-1-.11,2.19,2.19,0,0,1-1.8-2.41V5.76h-1.2V4.32h1.2V2.43l0-.7h1.46l0,.72V4.32h2V5.76h-2Z"/><path class="cls-1" d="M95,3.22V1.78h1.46V3.22H95Zm0,1.1h1.44V13H95V4.32Z"/><path class="cls-1" d="M99.16,5.71a3.71,3.71,0,0,1,5.47-.35A4.26,4.26,0,0,1,106,8.64,4.38,4.38,0,0,1,105,11.57a3.64,3.64,0,0,1-2.9,1.39,3.71,3.71,0,0,1-2.58-1A4.29,4.29,0,0,1,98.1,8.64,4.33,4.33,0,0,1,99.16,5.71Zm.9,4.68a2.31,2.31,0,0,0,2,1.13,2.22,2.22,0,0,0,1.51-.58,2.9,2.9,0,0,0,1-2.3,3.18,3.18,0,0,0-.52-1.75,2.32,2.32,0,0,0-2-1.13,2.2,2.2,0,0,0-1.51.58,2.87,2.87,0,0,0-1,2.3A3.1,3.1,0,0,0,100.06,10.39Z"/><path class="cls-1" d="M115,13h-1.43v-.72l0-4.21a2.65,2.65,0,0,0-.34-1.3,1.84,1.84,0,0,0-1.64-1,1.75,1.75,0,0,0-1.12.4,2.27,2.27,0,0,0-.86,1.89V13h-1.44V4.32h1.44V5a3.32,3.32,0,0,1,2-.68,3.15,3.15,0,0,1,2.14.83A3.64,3.64,0,0,1,115,8.05v4.19Z"/><path class="cls-1" d="M126,5.71a3.71,3.71,0,0,1,5.47-.35,4.26,4.26,0,0,1,1.39,3.28,4.38,4.38,0,0,1-1.06,2.93,3.64,3.64,0,0,1-2.9,1.39,3.71,3.71,0,0,1-2.58-1,4.29,4.29,0,0,1-1.38-3.28A4.33,4.33,0,0,1,126,5.71Zm.9,4.68a2.31,2.31,0,0,0,2,1.13,2.22,2.22,0,0,0,1.51-.58,2.9,2.9,0,0,0,1-2.3,3.18,3.18,0,0,0-.52-1.75,2.32,2.32,0,0,0-2-1.13,2.2,2.2,0,0,0-1.51.58,2.87,2.87,0,0,0-1,2.3A3.1,3.1,0,0,0,126.88,10.39Z"/><path class="cls-1" d="M137.88,4.32h.72V5.76h-2.06V13h-1.43V5.76h-1.19V4.32h1.2a9.27,9.27,0,0,1,.22-1.51c.4-1.65,1.24-2.47,2.54-2.47h.72V1.78h-.72c-.75,0-1.18.86-1.3,2.54Z"/><path class="cls-1" d="M149.7,10.42c0,.71.45,1.08,1.32,1.1h.72V13H151a4.21,4.21,0,0,1-1-.11,2.19,2.19,0,0,1-1.8-2.41V5.76h-1.2V4.32h1.2V2.43l0-.7h1.46l0,.72V4.32h2V5.76h-2Z"/><path class="cls-1" d="M157,4.32a3.17,3.17,0,0,1,2.14.83,3.64,3.64,0,0,1,1.28,2.9V13H159v-.72l0-4.21a2.56,2.56,0,0,0-.35-1.3,1.82,1.82,0,0,0-1.63-1,1.75,1.75,0,0,0-1.12.4A2.25,2.25,0,0,0,155,8.05V13h-1.44V1.15H155V5A3.27,3.27,0,0,1,157,4.32Z"/><path class="cls-1" d="M169.84,11.27A4,4,0,0,1,166.5,13a3.75,3.75,0,0,1-2.6-1,4.31,4.31,0,0,1-1.36-3.28,4.46,4.46,0,0,1,1-2.92,3.71,3.71,0,0,1,2.94-1.4,3.67,3.67,0,0,1,2.57,1,4.3,4.3,0,0,1,1.39,3.28v.72h-6.41a3.11,3.11,0,0,0,.43,1,2.31,2.31,0,0,0,2,1.15,2.64,2.64,0,0,0,2.19-1.12ZM169,7.92a1.88,1.88,0,0,0-.49-1.13,2.53,2.53,0,0,0-2-1,2.24,2.24,0,0,0-1.07.27,2.65,2.65,0,0,0-1.38,1.89Z"/><path class="cls-1" d="M182.16,13h-1.44V.72h1.18l.18.43,4.22,9.33,4.19-9.33.18-.43h1.19v.72l0,10.8V13h-1.44v-.72l0-7.45-3.48,7.74-.18.43h-.93l-.18-.43-3.49-7.74V13Z"/><path class="cls-1" d="M195.46,5.71a3.62,3.62,0,0,1,2.9-1.39,3.67,3.67,0,0,1,2.57,1,4.3,4.3,0,0,1,1.39,3.28,4.34,4.34,0,0,1-1.07,2.93A3.62,3.62,0,0,1,198.36,13a3.69,3.69,0,0,1-2.58-1,4.29,4.29,0,0,1-1.38-3.28A4.33,4.33,0,0,1,195.46,5.71Zm.9,4.68a2.31,2.31,0,0,0,2,1.13,2.24,2.24,0,0,0,1.51-.58,2.9,2.9,0,0,0,1-2.3,3.11,3.11,0,0,0-.53-1.75,2.3,2.3,0,0,0-2-1.13,2.24,2.24,0,0,0-1.52.58,2.89,2.89,0,0,0-1,2.3A3.1,3.1,0,0,0,196.36,10.39Z"/><path class="cls-1" d="M204.82,5.71a3.62,3.62,0,0,1,2.9-1.39,3.67,3.67,0,0,1,2.57,1,4.3,4.3,0,0,1,1.39,3.28,4.34,4.34,0,0,1-1.07,2.93A3.62,3.62,0,0,1,207.72,13a3.69,3.69,0,0,1-2.58-1,4.29,4.29,0,0,1-1.38-3.28A4.33,4.33,0,0,1,204.82,5.71Zm.9,4.68a2.31,2.31,0,0,0,2,1.13,2.24,2.24,0,0,0,1.51-.58,2.9,2.9,0,0,0,1-2.3,3.11,3.11,0,0,0-.53-1.75,2.3,2.3,0,0,0-2-1.13,2.24,2.24,0,0,0-1.52.58,2.89,2.89,0,0,0-1,2.3A3.1,3.1,0,0,0,205.72,10.39Z"/><path class="cls-1" d="M220.69,13h-1.42l0-.72V8.05a2.56,2.56,0,0,0-.35-1.3,1.82,1.82,0,0,0-1.63-1,1.75,1.75,0,0,0-1.12.4,2.25,2.25,0,0,0-.86,1.89V13h-1.44V4.32h1.44V5a3.27,3.27,0,0,1,2-.68,3.17,3.17,0,0,1,2.14.83,3.64,3.64,0,0,1,1.28,2.9V13Z"/><path class="cls-1" d="M156.18,48.55l0-5.38v-.72h.72l4.57,0a3.73,3.73,0,0,1,2.43.87,3.23,3.23,0,0,1,.42,4.73,3.63,3.63,0,0,1-2.85,1.24h-3.87v5.4h-1.44V48.55Zm5.31-.72a2.41,2.41,0,0,0,1.24-.32,1.78,1.78,0,0,0,1-1.64,1.84,1.84,0,0,0-.39-1.13,2.22,2.22,0,0,0-1.86-.86h-3.87v4Z"/><path class="cls-1" d="M173.93,53a4,4,0,0,1-3.35,1.69,3.7,3.7,0,0,1-2.59-1,4.29,4.29,0,0,1-1.37-3.28,4.41,4.41,0,0,1,1-2.91,3.75,3.75,0,0,1,5.51-.36,4.25,4.25,0,0,1,1.38,3.27v.72h-6.41a3.14,3.14,0,0,0,.44,1,2.29,2.29,0,0,0,2,1.15,2.68,2.68,0,0,0,2.2-1.11Zm-.83-3.35a1.91,1.91,0,0,0-.48-1.13,2.59,2.59,0,0,0-2-1,2.23,2.23,0,0,0-1.06.27,2.72,2.72,0,0,0-1.39,1.89Z"/><path class="cls-1" d="M180.45,46h.72v1.43h-.72a2.16,2.16,0,0,0-1.08.27,2.63,2.63,0,0,0-1.23,2.51v4.42H176.7V46h1.44v.75A3.76,3.76,0,0,1,180.45,46Z"/><path class="cls-1" d="M187.05,48.54a.75.75,0,0,0-.2-.51,1.75,1.75,0,0,0-1.44-.56,2.58,2.58,0,0,0-.73.11q-.9.29-.9,1a.46.46,0,0,0,.1.28,4.21,4.21,0,0,0,1.66.74c.6.18,1,.33,1.33.45q1.9.78,1.89,2.16a2.11,2.11,0,0,1-.54,1.37,3.48,3.48,0,0,1-2.81,1.13,4,4,0,0,1-2.25-.63,2.2,2.2,0,0,1-1.09-1.87h1.44a.76.76,0,0,0,.21.51,2.2,2.2,0,0,0,1.69.55,3.31,3.31,0,0,0,.83-.1q1.08-.27,1.08-1a.54.54,0,0,0-.09-.27,4.23,4.23,0,0,0-1.64-.72c-.58-.18-1-.33-1.33-.45-1.27-.51-1.91-1.25-1.92-2.19a2.19,2.19,0,0,1,.54-1.42A3.08,3.08,0,0,1,185.41,46a3.39,3.39,0,0,1,2,.59,2.25,2.25,0,0,1,1.08,1.91Z"/><path class="cls-1" d="M191.26,47.42a3.73,3.73,0,0,1,5.48-.34,4.25,4.25,0,0,1,1.38,3.27,4.37,4.37,0,0,1-1.06,2.94,3.72,3.72,0,0,1-5.47.34,4.23,4.23,0,0,1-1.39-3.28A4.42,4.42,0,0,1,191.26,47.42Zm.9,4.68a2.3,2.3,0,0,0,2,1.13,2.24,2.24,0,0,0,1.51-.57,2.9,2.9,0,0,0,1-2.31,3.09,3.09,0,0,0-.52-1.74,2.3,2.3,0,0,0-2-1.14,2.27,2.27,0,0,0-1.51.58,2.93,2.93,0,0,0-1,2.3A3.18,3.18,0,0,0,192.16,52.1Z"/><path class="cls-1" d="M207.14,54.69h-1.42l0-.72,0-4.21a2.55,2.55,0,0,0-.34-1.3,1.83,1.83,0,0,0-1.64-1,1.76,1.76,0,0,0-1.11.4,2.28,2.28,0,0,0-.87,1.89v4.91h-1.44V46h1.44v.68a3.32,3.32,0,0,1,2-.68,3.14,3.14,0,0,1,2.14.82,3.61,3.61,0,0,1,1.28,2.9V54Z"/><path class="cls-1" d="M210.34,47.42a3.66,3.66,0,0,1,2.9-1.38,3.72,3.72,0,0,1,2.52,1V46h1.44v8.63h-1.44v-1a3.74,3.74,0,0,1-2.52,1,3.62,3.62,0,0,1-2.57-1,4.23,4.23,0,0,1-1.39-3.28A4.37,4.37,0,0,1,210.34,47.42Zm.9,4.68a2.3,2.3,0,0,0,2,1.13,2.24,2.24,0,0,0,1.51-.57,2.94,2.94,0,0,0,1-2.31,3.09,3.09,0,0,0-.52-1.74,2.3,2.3,0,0,0-2-1.14,2.27,2.27,0,0,0-1.51.58,2.93,2.93,0,0,0-1,2.3A3.18,3.18,0,0,0,211.24,52.1Z"/><path class="cls-1" d="M220.08,41.71h1.44v13h-1.44v-13Z"/><path class="cls-1" d="M126,92.91h-1.57l.43-1,4.68-10.8.2-.43h.94l.19.43,4.68,10.8.44,1h-1.57l-.2-.43-4-9.27-4,9.27Z"/><path class="cls-1" d="M137.07,84.29h1.45V85l0,4.61a1.67,1.67,0,0,0,.34,1,2,2,0,0,0,1.71.83,2.21,2.21,0,0,0,1.12-.3,1.74,1.74,0,0,0,.91-1.55V85l0-.7h1.46l0,.72,0,4.61a3.13,3.13,0,0,1-.75,2,3.35,3.35,0,0,1-2.72,1.24,3.55,3.55,0,0,1-2.25-.77,3.08,3.08,0,0,1-1.24-2.52V85Z"/><path class="cls-1" d="M146.88,85.66a3.62,3.62,0,0,1,2.89-1.39,3.68,3.68,0,0,1,2.52,1V85l0-.7h1.46l0,.72,0,7.18a4.19,4.19,0,0,1-.18,1.19,5.18,5.18,0,0,1-1.35,2.22,3.62,3.62,0,0,1-1.09.74,3.16,3.16,0,0,1-1.32.28h-.72V95.18h.72a2.26,2.26,0,0,0,1.71-.88,3.18,3.18,0,0,0,.79-2.11v-.27a3.74,3.74,0,0,1-2.52,1,3.67,3.67,0,0,1-2.57-1,4.28,4.28,0,0,1-1.39-3.28A4.36,4.36,0,0,1,146.88,85.66Zm.9,4.68a2.3,2.3,0,0,0,2,1.13,2.28,2.28,0,0,0,1.52-.57,2.93,2.93,0,0,0,1-2.31,3.07,3.07,0,0,0-.52-1.74,2.3,2.3,0,0,0-2-1.14,2.24,2.24,0,0,0-1.51.58,2.92,2.92,0,0,0-1,2.3A3.11,3.11,0,0,0,147.78,90.34Z"/><path class="cls-1" d="M156.27,84.29h1.46l0,.72,0,4.61a1.68,1.68,0,0,0,.35,1,2,2,0,0,0,1.71.83,2.2,2.2,0,0,0,1.11-.3,1.75,1.75,0,0,0,.92-1.55V85l0-.7h1.46l0,.72,0,4.61a3.08,3.08,0,0,1-.76,2,3.33,3.33,0,0,1-2.71,1.24,3.51,3.51,0,0,1-2.25-.77,3.09,3.09,0,0,1-1.25-2.52V85Z"/><path class="cls-1" d="M170,86.77a.78.78,0,0,0-.2-.5,1.75,1.75,0,0,0-1.44-.56,2.65,2.65,0,0,0-.74.11c-.6.19-.9.51-.9,1a.5.5,0,0,0,.11.29,4.22,4.22,0,0,0,1.65.74c.6.18,1,.33,1.34.45q1.9.78,1.89,2.16a2.11,2.11,0,0,1-.54,1.37,3.52,3.52,0,0,1-2.81,1.13,4,4,0,0,1-2.25-.63,2.22,2.22,0,0,1-1.1-1.87h1.44a.69.69,0,0,0,.22.5,2.15,2.15,0,0,0,1.69.56,3,3,0,0,0,.83-.11c.72-.18,1.08-.49,1.08-1a.54.54,0,0,0-.09-.27,4.31,4.31,0,0,0-1.64-.72c-.59-.18-1-.33-1.33-.45-1.28-.52-1.92-1.25-1.93-2.2a2.21,2.21,0,0,1,.54-1.42,3.13,3.13,0,0,1,2.54-1.08,3.44,3.44,0,0,1,2,.6,2.25,2.25,0,0,1,1.08,1.9Z"/><path class="cls-1" d="M175.44,90.37c0,.71.45,1.08,1.32,1.1h.72v1.44h-.72a3.72,3.72,0,0,1-1-.11,2.19,2.19,0,0,1-1.8-2.41V85.71h-1.2V84.27H174V82.38l0-.7h1.46l0,.72v1.87h2v1.44h-2Z"/><path class="cls-1" d="M180.25,91h1.44l-.07.79a3.73,3.73,0,0,1-1.16,2.54l-.21.17H178l1.51-1.28a2.47,2.47,0,0,0,.65-1.57Z"/><path class="cls-1" d="M192.06,84.54h-1.44v-.72a3.28,3.28,0,0,1,.84-2.21,3.73,3.73,0,0,1,2.95-1.3,3.9,3.9,0,0,1,2.52.87,3.27,3.27,0,0,1,1.28,2.64,4.36,4.36,0,0,1-1.11,2.79A16.1,16.1,0,0,1,194.36,89c-.43.31-.74.55-.94.7-.91.71-1.36,1.32-1.36,1.82h6.15v1.44h-7.59v-.72a4.15,4.15,0,0,1,.93-2.5A17.35,17.35,0,0,1,194,87.4l1.19-1a3.84,3.84,0,0,0,1.56-2.59,1.85,1.85,0,0,0-.43-1.19,2.33,2.33,0,0,0-1.93-.88,2.68,2.68,0,0,0-1.35.36,1.91,1.91,0,0,0-1,1.71Z"/><path class="cls-1" d="M201,81.9a3.1,3.1,0,0,1,2.54-1.59,3.07,3.07,0,0,1,2.32,1.33,8,8,0,0,1,1.44,5A8.24,8.24,0,0,1,206,91.36a3,3,0,0,1-2.48,1.57,3.08,3.08,0,0,1-2.36-1.33,7.76,7.76,0,0,1-1.48-5A8,8,0,0,1,201,81.9Zm.66,7.77c.47,1.21,1.1,1.82,1.88,1.82a1.73,1.73,0,0,0,1.45-1,7.53,7.53,0,0,0,.87-3.84,8.8,8.8,0,0,0-.52-3.08c-.46-1.18-1.06-1.78-1.8-1.78a1.89,1.89,0,0,0-1.52,1,7.47,7.47,0,0,0-.88,3.82A8.69,8.69,0,0,0,201.61,89.67Z"/><path class="cls-1" d="M210.13,84.54h-1.44v-.72a3.28,3.28,0,0,1,.84-2.21,3.73,3.73,0,0,1,3-1.3,3.9,3.9,0,0,1,2.52.87,3.29,3.29,0,0,1,1.27,2.64,4.36,4.36,0,0,1-1.11,2.79A16.1,16.1,0,0,1,212.43,89c-.43.31-.74.55-.93.7-.92.71-1.37,1.32-1.37,1.82h6.15v1.44h-7.59v-.72a4.15,4.15,0,0,1,.93-2.5,17.35,17.35,0,0,1,2.47-2.31c.54-.44.94-.77,1.19-1a3.84,3.84,0,0,0,1.56-2.59,1.85,1.85,0,0,0-.43-1.19,2.32,2.32,0,0,0-1.92-.88,2.68,2.68,0,0,0-1.35.36,1.9,1.9,0,0,0-1,1.71Z"/><path class="cls-1" d="M218.57,87.33H217l.4-1,2.23-5.56.18-.45H221v12.6h-1.45V84.78l-.84,2.1Z"/></g></g></svg>