<svg xmlns="http://www.w3.org/2000/svg" viewBox="0 0 81.32 12.92"><defs><style>.cls-1{fill:#fff;}</style></defs><g id="레이어_2" data-name="레이어 2"><g id="레이어_1-2" data-name="레이어 1"><path class="cls-1" d="M0,6.46,0,.78V0H.78L5.6,0A3.94,3.94,0,0,1,8.17.91,3.36,3.36,0,0,1,9.5,3.63a3.36,3.36,0,0,1-.89,2.28,3.86,3.86,0,0,1-3,1.31H1.52v5.7H0V6.46ZM5.6,5.7a2.65,2.65,0,0,0,1.32-.34A1.92,1.92,0,0,0,8,3.63a2,2,0,0,0-.42-1.2,2.33,2.33,0,0,0-2-.91H1.52v4.2Z"/><path class="cls-1" d="M21.62,12l.31,1h-1.6l-.15-.55A25.65,25.65,0,0,0,19,9.2a5.32,5.32,0,0,0-1.54-2H13.68v5.7H12.16V6.46l0-5.68V0h.76l4.81,0a3.93,3.93,0,0,1,2.58.91,3.36,3.36,0,0,1,1.33,2.72,3.4,3.4,0,0,1-.23,1.2,3.54,3.54,0,0,1-2,2.07A15.17,15.17,0,0,1,21.62,12ZM15.33,5.7h2.43a2.65,2.65,0,0,0,1.32-.34,1.9,1.9,0,0,0,1.06-1.73,2,2,0,0,0-.42-1.2,2.35,2.35,0,0,0-2-.91H13.68v4.2h1.67Z"/><path class="cls-1" d="M25.71,1.79A5.18,5.18,0,0,1,29.64,0a5.28,5.28,0,0,1,4,1.8,6.62,6.62,0,0,1,1.75,4.66,6.63,6.63,0,0,1-1.77,4.67,5.18,5.18,0,0,1-3.93,1.79,5.28,5.28,0,0,1-3.95-1.8,6.62,6.62,0,0,1-1.75-4.66A6.63,6.63,0,0,1,25.71,1.79Zm.85,8a3.74,3.74,0,0,0,3.08,1.6,3.83,3.83,0,0,0,2.79-1.27,5.15,5.15,0,0,0,1.39-3.67,5.36,5.36,0,0,0-1.1-3.34,3.75,3.75,0,0,0-3.08-1.6,3.81,3.81,0,0,0-2.79,1.27,5.15,5.15,0,0,0-1.39,3.67A5.36,5.36,0,0,0,26.56,9.8Z"/><path class="cls-1" d="M47.78,10.18a5,5,0,0,1-1.1,1.3,5.7,5.7,0,0,1-3.76,1.44A5.22,5.22,0,0,1,39,11.12a6.62,6.62,0,0,1-1.75-4.66A6.58,6.58,0,0,1,39,1.79,5.12,5.12,0,0,1,42.92,0a5.6,5.6,0,0,1,2.53.63,5.1,5.1,0,0,1,2.32,2.16l-1.37.69a3.15,3.15,0,0,0-.71-.9,4.12,4.12,0,0,0-2.77-1.06,3.83,3.83,0,0,0-2.79,1.27,5.22,5.22,0,0,0-1.37,3.67,5.44,5.44,0,0,0,1.08,3.33,3.76,3.76,0,0,0,3.08,1.61,4.15,4.15,0,0,0,1.56-.32,3.81,3.81,0,0,0,2-1.66Z"/><path class="cls-1" d="M59.66,0V1.52h-7.6V5.7h5.55V7.22H52.06V11.4h7.6v1.52H50.54V0h9.12Z"/><path class="cls-1" d="M68.82,3.61a1.76,1.76,0,0,0-.48-1.2,2.86,2.86,0,0,0-2.22-.89,3.28,3.28,0,0,0-1.54.38,1.89,1.89,0,0,0-1.16,1.71.88.88,0,0,0,.1.4c.21.42.93.86,2.14,1.33,1.51.59,2.42,1,2.72,1.1,1.53.77,2.3,1.73,2.3,2.87a3.21,3.21,0,0,1-1,2.24,4.82,4.82,0,0,1-3.53,1.37,5.13,5.13,0,0,1-3.21-1,3.23,3.23,0,0,1-1.35-2.57h1.52a1.76,1.76,0,0,0,.57,1.22,3.46,3.46,0,0,0,2.47.87,3.94,3.94,0,0,0,1.8-.42,1.87,1.87,0,0,0,1.24-1.67A.84.84,0,0,0,69,8.89c-.21-.43-.93-.88-2.16-1.37-1.5-.58-2.39-.94-2.68-1.08-1.53-.76-2.3-1.7-2.3-2.83a3.29,3.29,0,0,1,.91-2.24A4.29,4.29,0,0,1,66.12,0,4.51,4.51,0,0,1,69,1a3.29,3.29,0,0,1,1.37,2.66Z"/><path class="cls-1" d="M79.46,3.61A1.76,1.76,0,0,0,79,2.41a2.86,2.86,0,0,0-2.22-.89,3.28,3.28,0,0,0-1.54.38,1.89,1.89,0,0,0-1.16,1.71.88.88,0,0,0,.1.4c.21.42.93.86,2.14,1.33,1.51.59,2.42,1,2.72,1.1,1.53.77,2.3,1.73,2.3,2.87a3.21,3.21,0,0,1-1,2.24,4.82,4.82,0,0,1-3.53,1.37,5.13,5.13,0,0,1-3.21-1A3.23,3.23,0,0,1,72.2,9.31h1.52a1.76,1.76,0,0,0,.57,1.22,3.46,3.46,0,0,0,2.47.87,3.91,3.91,0,0,0,1.8-.42A1.87,1.87,0,0,0,79.8,9.31a.94.94,0,0,0-.11-.42,4.3,4.3,0,0,0-2.17-1.37c-1.5-.58-2.39-.94-2.68-1.08-1.53-.76-2.3-1.7-2.3-2.83a3.29,3.29,0,0,1,.91-2.24A4.29,4.29,0,0,1,76.76,0a4.51,4.51,0,0,1,2.85,1A3.29,3.29,0,0,1,81,3.61Z"/></g></g></svg>