<svg xmlns="http://www.w3.org/2000/svg" viewBox="0 0 127.02 95.9"><defs><style>.cls-1{fill:#fff;}</style></defs><g id="레이어_2" data-name="레이어 2"><g id="레이어_1-2" data-name="레이어 1"><path class="cls-1" d="M16.05,5.4h5.37v.72a6.32,6.32,0,0,1-1.67,4.43A4.91,4.91,0,0,1,16,12.24a5.09,5.09,0,0,1-3.77-1.71,6.29,6.29,0,0,1-1.65-4.41,6.47,6.47,0,0,1,1.67-4.43A5,5,0,0,1,16,0a5.42,5.42,0,0,1,2.41.59,4.76,4.76,0,0,1,2.18,2.06l-1.3.64A3.68,3.68,0,0,0,16,1.44a3.62,3.62,0,0,0-2.67,1.21,4.86,4.86,0,0,0-1.31,3.47,5.08,5.08,0,0,0,1,3.15,3.62,3.62,0,0,0,3,1.53,3.83,3.83,0,0,0,2.82-1.33A3.83,3.83,0,0,0,20,6.84H16.05Z"/><path class="cls-1" d="M33.26,11.32l.29.92H32l-.15-.52a22.38,22.38,0,0,0-1.08-3,5,5,0,0,0-1.45-1.87H25.74v5.4H24.3V6.12l0-5.38V0H25l4.55,0A3.76,3.76,0,0,1,32,.86,3.21,3.21,0,0,1,33.3,3.44a3,3,0,0,1-.22,1.13,3.34,3.34,0,0,1-1.92,2A14.59,14.59,0,0,1,33.26,11.32Zm-6-5.92h2.31a2.54,2.54,0,0,0,1.24-.32,1.83,1.83,0,0,0,.61-2.78,2.24,2.24,0,0,0-1.87-.86H25.74v4h1.58Z"/><path class="cls-1" d="M44.82,0V1.44h-7.2v4h5.25V6.84H37.62v4h7.2v1.44H36.18V0h8.64Z"/><path class="cls-1" d="M56.34,0V1.44h-7.2v4h5.25V6.84H49.14v4h7.2v1.44H47.7V0h8.64Z"/><path class="cls-1" d="M60.66,12.24H59.22V0h1.1l.21.31,6.23,8.92,0-8.51V0h1.44V.72l0,10.8v.72H67.1l-.21-.31L60.66,3v9.23Z"/><path class="cls-1" d="M71.82,6.12l0-5.38V0h.72l4.57,0a3.78,3.78,0,0,1,2.43.86,3.21,3.21,0,0,1,1.26,2.58A3.16,3.16,0,0,1,80,5.6a3.61,3.61,0,0,1-2.84,1.24H73.26v5.4H71.82V6.12Zm5.31-.72a2.54,2.54,0,0,0,1.24-.32A1.83,1.83,0,0,0,79,2.3a2.21,2.21,0,0,0-1.85-.86H73.26v4Z"/><path class="cls-1" d="M92,0V1.44h-7.2v4H90V6.84H84.78v4H92v1.44H83.34V0H92Z"/><path class="cls-1" d="M94.61,12.24H93l.43-1L98.15.43l.2-.43h.94l.19.43,4.68,10.8.44,1H103l-.2-.43-4-9.27-4,9.27Z"/><path class="cls-1" d="M115.29,9.65a4.71,4.71,0,0,1-1.05,1.22,5.4,5.4,0,0,1-3.56,1.37A5,5,0,0,1,107,10.53a6.29,6.29,0,0,1-1.65-4.41A6.29,6.29,0,0,1,107,1.69,4.85,4.85,0,0,1,110.68,0a5.37,5.37,0,0,1,2.39.59,4.81,4.81,0,0,1,2.2,2.06l-1.3.64a2.9,2.9,0,0,0-.66-.84,3.91,3.91,0,0,0-2.63-1A3.59,3.59,0,0,0,108,2.65a4.92,4.92,0,0,0-1.29,3.47,5.12,5.12,0,0,0,1,3.15,3.55,3.55,0,0,0,2.92,1.53,3.78,3.78,0,0,0,1.48-.31A3.71,3.71,0,0,0,114,8.93Z"/><path class="cls-1" d="M126.54,0V1.44h-7.2v4h5.25V6.84h-5.25v4h7.2v1.44H117.9V0h8.64Z"/><path class="cls-1" d="M71.55,53l.29.91H70.33l-.15-.52a23.06,23.06,0,0,0-1.08-3,5,5,0,0,0-1.46-1.88H64V54H62.58V47.83l0-5.38v-.72h.72l4.56,0a3.73,3.73,0,0,1,2.45.87,3.25,3.25,0,0,1,1,3.71,3.38,3.38,0,0,1-1.93,2A14.24,14.24,0,0,1,71.55,53Zm-6-5.93h2.3a2.48,2.48,0,0,0,1.25-.32,1.79,1.79,0,0,0,1-1.64A1.87,1.87,0,0,0,69.75,44a2.22,2.22,0,0,0-1.87-.86H64v4h1.58Z"/><path class="cls-1" d="M80.69,52.26A4,4,0,0,1,77.34,54a3.7,3.7,0,0,1-2.59-1,4.29,4.29,0,0,1-1.37-3.28,4.46,4.46,0,0,1,1-2.91,3.75,3.75,0,0,1,5.51-.36,4.25,4.25,0,0,1,1.38,3.27v.72H74.9a2.91,2.91,0,0,0,.43,1,2.29,2.29,0,0,0,2,1.15,2.68,2.68,0,0,0,2.2-1.11Zm-.82-3.34a1.93,1.93,0,0,0-.49-1.14,2.58,2.58,0,0,0-2-1,2.23,2.23,0,0,0-1.06.27,2.68,2.68,0,0,0-1.38,1.9Z"/><path class="cls-1" d="M90.32,54H88.9l0-.72,0-4.21a2.49,2.49,0,0,0-.34-1.29,1.81,1.81,0,0,0-1.64-1,1.78,1.78,0,0,0-1.11.4A2.28,2.28,0,0,0,84.9,49V54H83.46V45.32H84.9V46a3.32,3.32,0,0,1,2-.68,3.16,3.16,0,0,1,2.15.82A3.63,3.63,0,0,1,90.3,49v4.2Z"/><path class="cls-1" d="M99.77,52.26A4,4,0,0,1,96.42,54a3.7,3.7,0,0,1-2.59-1,4.29,4.29,0,0,1-1.37-3.28,4.46,4.46,0,0,1,1-2.91A3.75,3.75,0,0,1,99,46.36a4.25,4.25,0,0,1,1.38,3.27v.72H94a2.91,2.91,0,0,0,.43,1,2.29,2.29,0,0,0,2,1.15,2.68,2.68,0,0,0,2.2-1.11Zm-.83-3.34a1.91,1.91,0,0,0-.48-1.14,2.58,2.58,0,0,0-2-1,2.23,2.23,0,0,0-1.06.27A2.68,2.68,0,0,0,94,48.92Z"/><path class="cls-1" d="M101.59,45.32h1.49l.17.52,1.45,5.22,2.22-5.3.18-.44h1l.18.44,2.21,5.3,1.46-5.22.16-.52h1.5l-.25.91-2,7.2-.16.52h-1l-.18-.45-2.36-5.61-2.35,5.61-.18.45h-1l-.16-.52-2-7.2Z"/><path class="cls-1" d="M115.85,46.7a3.64,3.64,0,0,1,2.89-1.38,3.72,3.72,0,0,1,2.52,1v-1h1.44V54h-1.44V53a3.74,3.74,0,0,1-2.52,1,3.62,3.62,0,0,1-2.57-1,4.27,4.27,0,0,1-1.39-3.28A4.38,4.38,0,0,1,115.85,46.7Zm.9,4.68a2.32,2.32,0,0,0,3.51.56,2.93,2.93,0,0,0,1-2.31,3.09,3.09,0,0,0-.52-1.74,2.3,2.3,0,0,0-3.51-.56,2.93,2.93,0,0,0-1,2.3A3.11,3.11,0,0,0,116.75,51.38Z"/><path class="cls-1" d="M125.58,41H127V54h-1.44V41Z"/><path class="cls-1" d="M6.88,83.37a1.64,1.64,0,0,0-.45-1.13,2.71,2.71,0,0,0-2.11-.85,3.09,3.09,0,0,0-1.46.36,1.79,1.79,0,0,0-1.1,1.62.92.92,0,0,0,.09.38,4,4,0,0,0,2,1.26c1.43.56,2.28.91,2.57,1,1.45.74,2.18,1.64,2.18,2.72a3.08,3.08,0,0,1-1,2.13,4.58,4.58,0,0,1-3.35,1.29,4.8,4.8,0,0,1-3-1A3,3,0,0,1,0,88.77H1.44A1.64,1.64,0,0,0,2,89.92a3.25,3.25,0,0,0,2.34.83A3.83,3.83,0,0,0,6,90.36,1.79,1.79,0,0,0,7.2,88.77a.82.82,0,0,0-.11-.39c-.2-.41-.89-.84-2-1.3-1.42-.55-2.26-.89-2.54-1C1.05,85.33.32,84.44.32,83.37a3.06,3.06,0,0,1,.87-2.12A4,4,0,0,1,4.32,80a4.27,4.27,0,0,1,2.7.9,3.14,3.14,0,0,1,1.3,2.52Z"/><path class="cls-1" d="M17.39,90.5A4,4,0,0,1,14,92.19a3.73,3.73,0,0,1-2.59-1,4.3,4.3,0,0,1-1.37-3.28,4.39,4.39,0,0,1,1-2.91A3.69,3.69,0,0,1,14,83.55a3.63,3.63,0,0,1,2.57,1A4.23,4.23,0,0,1,18,87.87v.72H11.59a3.35,3.35,0,0,0,.43,1,2.32,2.32,0,0,0,2,1.15,2.68,2.68,0,0,0,2.2-1.11Zm-.83-3.35A1.84,1.84,0,0,0,16.07,86a2.53,2.53,0,0,0-2-1,2.2,2.2,0,0,0-1.06.27,2.68,2.68,0,0,0-1.39,1.89Z"/><path class="cls-1" d="M20.16,84.27v-.72H21.6v1a3.68,3.68,0,0,1,2.54-1,3.6,3.6,0,0,1,2.55,1,4.23,4.23,0,0,1,1.39,3.27A4.37,4.37,0,0,1,27,90.81a3.72,3.72,0,0,1-5.42.39v4.7H20.16V84.27Zm2,5.35a2.32,2.32,0,0,0,2,1.13,2.26,2.26,0,0,0,1.51-.57,2.94,2.94,0,0,0,1-2.31,3.07,3.07,0,0,0-.52-1.74,2.3,2.3,0,0,0-2-1.14,2.34,2.34,0,0,0-1.51.56,3,3,0,0,0-1,2.32A3.1,3.1,0,0,0,22.12,89.62Z"/><path class="cls-1" d="M31.81,89.65c0,.71.45,1.08,1.31,1.1h.72v1.44h-.72a3.64,3.64,0,0,1-.95-.11,2.19,2.19,0,0,1-1.8-2.41V85H29.16V83.55h1.21V81h1.46l0,.72v1.87h2V85h-2Z"/><path class="cls-1" d="M42.23,90.5a4,4,0,0,1-3.35,1.69,3.73,3.73,0,0,1-2.59-1,4.3,4.3,0,0,1-1.37-3.28A4.39,4.39,0,0,1,36,85a3.69,3.69,0,0,1,2.93-1.41,3.63,3.63,0,0,1,2.57,1,4.23,4.23,0,0,1,1.39,3.27v.72H36.43a3.35,3.35,0,0,0,.43,1,2.32,2.32,0,0,0,2,1.15,2.68,2.68,0,0,0,2.2-1.11Zm-.83-3.35A1.84,1.84,0,0,0,40.91,86a2.53,2.53,0,0,0-2-1,2.2,2.2,0,0,0-1.06.27,2.68,2.68,0,0,0-1.39,1.89Z"/><path class="cls-1" d="M50.72,84.78a3,3,0,0,1,4.43-.49A3.4,3.4,0,0,1,56.38,87v5.2H55l0-.72V87a2.35,2.35,0,0,0-.27-1.1,1.65,1.65,0,0,0-1.5-.92,1.6,1.6,0,0,0-1,.33A2,2,0,0,0,51.41,87v4.46l0,.74H50v-.72l0-3.76V87a2.35,2.35,0,0,0-.27-1.1A1.65,1.65,0,0,0,48.2,85a1.62,1.62,0,0,0-1,.33A2,2,0,0,0,46.44,87v5.18H45V83.55h1.44v.58a3.11,3.11,0,0,1,1.76-.58,3.25,3.25,0,0,1,2.49,1.26S50.71,84.8,50.72,84.78Z"/><path class="cls-1" d="M59.25,80v-.72H60.7v5.31a3.73,3.73,0,0,1,2.51-1,3.66,3.66,0,0,1,2.58,1,4.25,4.25,0,0,1,1.38,3.27,4.37,4.37,0,0,1-1.06,2.94,3.71,3.71,0,0,1-5.41.39v1H59.25V80Zm2,9.67a2.32,2.32,0,0,0,2,1.13,2.28,2.28,0,0,0,1.52-.57,2.94,2.94,0,0,0,1-2.31,3.07,3.07,0,0,0-.53-1.74,2.3,2.3,0,0,0-2-1.14,2.27,2.27,0,0,0-1.51.58,2.93,2.93,0,0,0-1,2.32A3.07,3.07,0,0,0,61.2,89.62Z"/><path class="cls-1" d="M75.92,90.5a4,4,0,0,1-3.34,1.69,3.75,3.75,0,0,1-2.6-1,4.29,4.29,0,0,1-1.36-3.28,4.43,4.43,0,0,1,1-2.91,3.69,3.69,0,0,1,2.94-1.41,3.63,3.63,0,0,1,2.57,1,4.26,4.26,0,0,1,1.39,3.27v.72H70.13a3.11,3.11,0,0,0,.43,1,2.31,2.31,0,0,0,2,1.15,2.66,2.66,0,0,0,2.19-1.11Zm-.82-3.35A1.9,1.9,0,0,0,74.61,86a2.55,2.55,0,0,0-2-1,2.24,2.24,0,0,0-1.07.27,2.65,2.65,0,0,0-1.38,1.89Z"/><path class="cls-1" d="M82.44,83.55h.72V85h-.72a2.16,2.16,0,0,0-1.08.27,2.65,2.65,0,0,0-1.23,2.5v4.43H78.7V83.55h1.43v.76A3.77,3.77,0,0,1,82.44,83.55Z"/><path class="cls-1" d="M85.75,90.28h1.44l-.07.8A3.72,3.72,0,0,1,86,93.61l-.22.17H83.52L85,92.5a2.42,2.42,0,0,0,.65-1.57Z"/><path class="cls-1" d="M97.56,83.82H96.12V83.1A3.28,3.28,0,0,1,97,80.89a3.73,3.73,0,0,1,3-1.3,3.9,3.9,0,0,1,2.52.87,3.3,3.3,0,0,1,1.27,2.64,4.36,4.36,0,0,1-1.11,2.79,16.1,16.1,0,0,1-2.74,2.36c-.43.31-.74.55-.93.7-.92.71-1.37,1.32-1.37,1.82h6.15v1.44H96.12v-.72a4.15,4.15,0,0,1,.93-2.5,17.35,17.35,0,0,1,2.47-2.31c.54-.44.94-.77,1.19-1a3.82,3.82,0,0,0,1.56-2.59,1.85,1.85,0,0,0-.43-1.19A2.33,2.33,0,0,0,99.92,81a2.68,2.68,0,0,0-1.35.36,1.9,1.9,0,0,0-1,1.71Z"/><path class="cls-1" d="M106.45,81.18A3.1,3.1,0,0,1,109,79.59a3.07,3.07,0,0,1,2.32,1.33,8,8,0,0,1,1.44,5,8.24,8.24,0,0,1-1.28,4.75A3,3,0,0,1,109,92.21a3.09,3.09,0,0,1-2.36-1.33,7.82,7.82,0,0,1-1.48-5A8,8,0,0,1,106.45,81.18Zm.67,7.77c.46,1.22,1.09,1.82,1.87,1.82a1.75,1.75,0,0,0,1.46-1,7.63,7.63,0,0,0,.86-3.84,8.58,8.58,0,0,0-.52-3.08c-.46-1.18-1.06-1.78-1.8-1.78a1.85,1.85,0,0,0-1.51,1,7.31,7.31,0,0,0-.89,3.81A8.47,8.47,0,0,0,107.12,89Z"/><path class="cls-1" d="M115.63,83.82h-1.44V83.1a3.24,3.24,0,0,1,.85-2.21,3.71,3.71,0,0,1,2.95-1.3,3.9,3.9,0,0,1,2.52.87,3.31,3.31,0,0,1,1.28,2.64,4.37,4.37,0,0,1-1.12,2.79,15.7,15.7,0,0,1-2.74,2.36c-.43.31-.74.55-.93.7-.91.71-1.37,1.32-1.37,1.82h6.16v1.44h-7.6v-.72a4.11,4.11,0,0,1,.94-2.5,16.6,16.6,0,0,1,2.46-2.31c.54-.44.94-.77,1.19-1a3.84,3.84,0,0,0,1.57-2.59,1.87,1.87,0,0,0-.44-1.19A2.33,2.33,0,0,0,118,81a2.68,2.68,0,0,0-1.35.36,1.92,1.92,0,0,0-1,1.71Z"/><path class="cls-1" d="M124.07,86.61h-1.55l.4-1,2.23-5.56.18-.45h1.21v12.6H125.1V84.06l-.85,2.1Z"/></g></g></svg>