<svg xmlns="http://www.w3.org/2000/svg" viewBox="0 0 98.33 97.16"><defs><style>.cls-1{fill:#fff;}</style></defs><g id="레이어_2" data-name="레이어 2"><g id="레이어_1-2" data-name="레이어 1"><path class="cls-1" d="M71.17,9.11H65.88V7.6h1.8V1.89H65.93V.38h9.8V1.89H74v5.6A10.55,10.55,0,0,0,76.14,7v1.5A16.8,16.8,0,0,1,71.17,9.11Zm9.44,4.47v1.6H67.16V10.5H69v3.08Zm-11.22-6H71.3c.32,0,.63,0,.94,0V1.89H69.39Zm9.09-.78H76.21V5.31h2.27V3.49H76.21V2h2.27V0h1.77V11.45H78.48Z"/><path class="cls-1" d="M89.37,9.6a15.39,15.39,0,0,0,5-.6v1.62a15.66,15.66,0,0,1-5,.6h-.14v4.16H87.46V11.22H83.09V9.6ZM83.81,4.21c0-2.32,1.87-3.94,4.55-3.94s4.56,1.62,4.56,3.94-1.89,4-4.56,4S83.81,6.54,83.81,4.21Zm1.71,0a2.86,2.86,0,0,0,5.67,0,2.86,2.86,0,0,0-5.67,0ZM97.49,0V15.38H95.71V0Z"/><path class="cls-1" d="M1.44,54.24H0V42H1.19l.18.43,4.21,9.32,4.19-9.32L10,42h1.19v.72l0,10.8v.72H9.72v-.72l0-7.46L6.23,53.8l-.18.44H5.11l-.18-.44L1.44,46.06v8.18Z"/><path class="cls-1" d="M14.74,47a3.72,3.72,0,0,1,5.47-.34,4.23,4.23,0,0,1,1.39,3.28,4.37,4.37,0,0,1-1.06,2.93,3.7,3.7,0,0,1-5.47.34,4.23,4.23,0,0,1-1.39-3.27A4.37,4.37,0,0,1,14.74,47Zm.9,4.68a2.31,2.31,0,0,0,2,1.14,2.27,2.27,0,0,0,1.51-.58,2.93,2.93,0,0,0,1-2.3,3.1,3.1,0,0,0-.52-1.75,2.3,2.3,0,0,0-2-1.13,2.26,2.26,0,0,0-1.51.57,2.94,2.94,0,0,0-1,2.31A3.09,3.09,0,0,0,15.64,51.66Z"/><path class="cls-1" d="M23.76,42v-.72H25.2v5.31a3.74,3.74,0,0,1,2.52-1,3.62,3.62,0,0,1,2.57,1,4.23,4.23,0,0,1,1.39,3.28,4.37,4.37,0,0,1-1.06,2.93,3.71,3.71,0,0,1-5.42.4v1H23.76V42Zm1.94,9.66a2.33,2.33,0,0,0,2,1.14,2.27,2.27,0,0,0,1.51-.58,2.93,2.93,0,0,0,1-2.3,3.1,3.1,0,0,0-.52-1.75,2.31,2.31,0,0,0-3.51-.56,2.94,2.94,0,0,0-1,2.32A3.13,3.13,0,0,0,25.7,51.66Z"/><path class="cls-1" d="M33.57,44.5V43.06H35V44.5H33.57Zm0,1.1H35v8.64H33.57V45.6Z"/><path class="cls-1" d="M37.44,41.28h1.44v13H37.44v-13Z"/><path class="cls-1" d="M47.5,52.54a4,4,0,0,1-3.35,1.7,3.71,3.71,0,0,1-2.59-1.05,4.28,4.28,0,0,1-1.37-3.27,4.47,4.47,0,0,1,1-2.92,3.75,3.75,0,0,1,5.51-.36,4.26,4.26,0,0,1,1.38,3.28v.72h-6.4a2.86,2.86,0,0,0,.43,1,2.3,2.3,0,0,0,2,1.16,2.69,2.69,0,0,0,2.2-1.12Zm-.83-3.34a1.91,1.91,0,0,0-.48-1.14,2.57,2.57,0,0,0-2-1,2.23,2.23,0,0,0-1.06.27,2.65,2.65,0,0,0-1.38,1.89Z"/><path class="cls-1" d="M58,42h1.46l0,.72,0,7.42a2.43,2.43,0,0,0,.6,1.6,2.79,2.79,0,0,0,2.28,1,3,3,0,0,0,1.77-.56,2.46,2.46,0,0,0,1.11-2.09V42.72l0-.71h1.46l0,.72,0,7.42a3.9,3.9,0,0,1-1.08,2.7,4.26,4.26,0,0,1-3.24,1.39,4.34,4.34,0,0,1-2.95-1.12,3.8,3.8,0,0,1-1.37-3V42.72Z"/><path class="cls-1" d="M76.17,42.3l.22-.3h1.77l-.8,1.13L74,47.88l3.68,5.22.79,1.14H76.71l-.21-.31-3.37-4.79-3.36,4.79-.22.31H67.79l.79-1.14,3.67-5.22L68.9,43.13,68.11,42h1.77l.21.3,3,4.32Z"/><path class="cls-1" d="M82,42h1.51l-.28.91L79.94,53.73l-.15.52H78.28l.29-.91,3.24-10.82Z"/><path class="cls-1" d="M85,42h1.46l0,.72,0,7.42a2.43,2.43,0,0,0,.6,1.6,2.79,2.79,0,0,0,2.28,1,3,3,0,0,0,1.77-.56,2.46,2.46,0,0,0,1.11-2.09V42.72l0-.71h1.46l0,.72,0,7.42a3.9,3.9,0,0,1-1.08,2.7,4.26,4.26,0,0,1-3.24,1.39,4.34,4.34,0,0,1-3-1.12,3.8,3.8,0,0,1-1.37-3V42.72Z"/><path class="cls-1" d="M96.64,42h1.44V54.24H96.64V42Z"/><path class="cls-1" d="M21.92,93.46H20.36l.43-1,4.68-10.8.2-.43h.93l.2.43,4.68,10.8.43,1H30.35l-.2-.44-4-9.27-4,9.27Z"/><path class="cls-1" d="M33.34,85.54v-.72h1.44v1a3.65,3.65,0,0,1,2.53-1,3.62,3.62,0,0,1,2.56,1,4.27,4.27,0,0,1,1.39,3.28,4.38,4.38,0,0,1-1.07,2.93,3.7,3.7,0,0,1-5.41.4v4.69H33.34V85.54Zm2,5.34a2.3,2.3,0,0,0,3.51.56,2.93,2.93,0,0,0,1-2.3,3.11,3.11,0,0,0-.53-1.75,2.27,2.27,0,0,0-2-1.13,2.34,2.34,0,0,0-1.51.55,3,3,0,0,0-1,2.33A3.09,3.09,0,0,0,35.3,90.88Z"/><path class="cls-1" d="M47.16,84.82h.72v1.44h-.72a2.16,2.16,0,0,0-1.08.27A2.62,2.62,0,0,0,44.86,89v4.43H43.42V84.82h1.44v.75A3.71,3.71,0,0,1,47.16,84.82Z"/><path class="cls-1" d="M49.23,83.72V82.28h1.46v1.44H49.23Zm0,1.1h1.44v8.64H49.23V84.82Z"/><path class="cls-1" d="M53.1,80.5h1.44v13H53.1v-13Z"/><path class="cls-1" d="M57.55,91.55H59l-.08.79a3.74,3.74,0,0,1-1.15,2.54l-.21.16H55.31l1.52-1.28a2.41,2.41,0,0,0,.64-1.56Z"/><path class="cls-1" d="M69.35,85.09H67.91v-.72a3.32,3.32,0,0,1,.85-2.22,3.74,3.74,0,0,1,2.95-1.29,3.89,3.89,0,0,1,2.52.86,3.32,3.32,0,0,1,1.28,2.65,4.32,4.32,0,0,1-1.12,2.79,15.59,15.59,0,0,1-2.73,2.35c-.43.32-.75.55-.94.71-.91.7-1.37,1.31-1.37,1.81h6.16v1.44h-7.6v-.72a4.11,4.11,0,0,1,.94-2.5A16.87,16.87,0,0,1,71.32,88l1.18-1a3.83,3.83,0,0,0,1.57-2.59,1.89,1.89,0,0,0-.43-1.19,2.33,2.33,0,0,0-1.93-.88,2.68,2.68,0,0,0-1.35.36,1.89,1.89,0,0,0-1,1.71Z"/><path class="cls-1" d="M78.25,82.44a2.76,2.76,0,0,1,4.86-.25,7.93,7.93,0,0,1,1.43,5,8.26,8.26,0,0,1-1.27,4.75,3,3,0,0,1-2.49,1.56,3.08,3.08,0,0,1-2.36-1.33,7.79,7.79,0,0,1-1.47-5A8,8,0,0,1,78.25,82.44Zm.66,7.78C79.38,91.43,80,92,80.78,92a1.72,1.72,0,0,0,1.46-1,7.46,7.46,0,0,0,.87-3.83,8.54,8.54,0,0,0-.53-3.08c-.45-1.19-1-1.78-1.8-1.78a1.88,1.88,0,0,0-1.51,1,7.35,7.35,0,0,0-.88,3.82A8.54,8.54,0,0,0,78.91,90.22Z"/><path class="cls-1" d="M87.42,85.09H86v-.72a3.31,3.31,0,0,1,.84-2.22,3.75,3.75,0,0,1,3-1.29,3.89,3.89,0,0,1,2.52.86,3.29,3.29,0,0,1,1.28,2.65,4.32,4.32,0,0,1-1.12,2.79,15.59,15.59,0,0,1-2.73,2.35c-.43.32-.75.55-.94.71-.91.7-1.37,1.31-1.37,1.81h6.16v1.44H86v-.72a4.15,4.15,0,0,1,.93-2.5A16.87,16.87,0,0,1,89.39,88l1.19-1a3.84,3.84,0,0,0,1.56-2.59,1.84,1.84,0,0,0-.43-1.19,2.33,2.33,0,0,0-1.93-.88,2.68,2.68,0,0,0-1.35.36,1.89,1.89,0,0,0-1,1.71Z"/><path class="cls-1" d="M95.87,87.88H94.32l.39-1L97,81.32l.18-.45h1.2v12.6H96.89V85.32l-.84,2.11Z"/></g></g></svg>