<svg xmlns="http://www.w3.org/2000/svg" viewBox="0 0 85.12 12.92"><defs><style>.cls-1{fill:#fff;}</style></defs><g id="레이어_2" data-name="레이어 2"><g id="레이어_1-2" data-name="레이어 1"><path class="cls-1" d="M0,0H1.56l.13.59,2,8.91,3.44-9L7.26,0H8.32l.17.49,3.44,9,2-8.91L14,0h1.56l-.21.93-2.51,11.4-.13.59H11.59l-.17-.49L7.79,2.91,4.16,12.43,4,12.92H2.85l-.13-.59L.21.93Z"/><path class="cls-1" d="M26.79,0V1.52h-7.6V5.7h5.55V7.22H19.19V11.4h7.6v1.52H17.67V0h9.12Z"/><path class="cls-1" d="M38,6.59a3.41,3.41,0,0,1,.44,5,3.78,3.78,0,0,1-3,1.33H29.83V6.46l0-5.68V0h.76l4.14,0a3.93,3.93,0,0,1,2.58.91,3.41,3.41,0,0,1,1.32,2.7,3.5,3.5,0,0,1-1.22,2.6A5.65,5.65,0,0,1,38,6.59ZM34.75,5.7a2.6,2.6,0,0,0,1.35-.38,1.94,1.94,0,0,0,1-1.71,1.91,1.91,0,0,0-.44-1.2,2.38,2.38,0,0,0-1.94-.89h-3.4v4.2Zm-3.38,5.72,4.08,0A2.48,2.48,0,0,0,36.78,11a1.92,1.92,0,0,0,1-1.71,2,2,0,0,0-.42-1.2,2.34,2.34,0,0,0-1.94-.89H31.37Z"/><path class="cls-1" d="M56.28,3.61a1.76,1.76,0,0,0-.48-1.2,2.86,2.86,0,0,0-2.22-.89A3.31,3.31,0,0,0,52,1.9a1.89,1.89,0,0,0-1.16,1.71A.88.88,0,0,0,51,4c.21.42.93.86,2.14,1.33,1.51.59,2.42,1,2.72,1.1,1.53.77,2.3,1.73,2.3,2.87a3.17,3.17,0,0,1-1,2.24,4.82,4.82,0,0,1-3.53,1.37,5.13,5.13,0,0,1-3.21-1A3.23,3.23,0,0,1,49,9.31h1.52a1.76,1.76,0,0,0,.57,1.22,3.46,3.46,0,0,0,2.47.87,3.91,3.91,0,0,0,1.8-.42,1.87,1.87,0,0,0,1.24-1.67.94.94,0,0,0-.11-.42,4.3,4.3,0,0,0-2.17-1.37c-1.5-.58-2.39-.94-2.68-1.08-1.53-.76-2.3-1.7-2.3-2.83a3.29,3.29,0,0,1,.91-2.24A4.29,4.29,0,0,1,53.58,0a4.51,4.51,0,0,1,2.85,1A3.29,3.29,0,0,1,57.8,3.61Z"/><path class="cls-1" d="M60.53,0h1.52V12.92H60.53V0Z"/><path class="cls-1" d="M73,0h.76V1.52H69.56v11.4H68V1.52h-4.2V0H73Z"/><path class="cls-1" d="M85.12,0V1.52h-7.6V5.7h5.55V7.22H77.52V11.4h7.6v1.52H76V0h9.12Z"/></g></g></svg>