<svg xmlns="http://www.w3.org/2000/svg" viewBox="0 0 8.89 8.77"><defs><style>.cls-1{fill:#f99;}</style></defs><g id="레이어_2" data-name="레이어 2"><g id="레이어_1-2" data-name="레이어 1"><path class="cls-1" d="M7.71,4.23a1.73,1.73,0,0,1-1.49.21c1,.87.87,4.33-2.68,4.33C1.53,8.77.2,7.6,0,6.55-.26,4.68,1.4,3.57,3.2,4,2.23,3.71.59,3.28.69,1.79.75.94,1.32.46,2.22.17a4.64,4.64,0,0,1,3.22.3L5.22,1.71H5.13C4.34.38,3.18-.11,2.37.22a1.53,1.53,0,0,0-.76,1.51c0,1,.79,2,2.23,2.48a.37.37,0,0,1,0,.09C1.87,3.59.81,4.89,1,6.61a2.44,2.44,0,0,0,2.63,2C7.11,8.64,7.23,5,5.92,4.33A4.24,4.24,0,0,1,4.83,5.85c-.51.37-1.16.38-1.34,0-.28-.63.8-1.25,1.56-1.67l0,.08C4.32,4.65,3.8,5.11,4,5.52s.55.3.93.07A4.88,4.88,0,0,0,6.15,3.66,6.83,6.83,0,0,1,7.41,1.48a.86.86,0,0,1,1.33.24C9.2,2.51,8.56,3.69,7.71,4.23Zm.56-2.1a.67.67,0,0,0-1-.27,6.56,6.56,0,0,0-1,1.83L6,4.25a1.71,1.71,0,0,0,1.71-.07A1.55,1.55,0,0,0,8.27,2.13Z"/></g></g></svg>